<svg xmlns="http://www.w3.org/2000/svg" width="32" height="32" viewBox="0 0 32 32" fill="none">
<path d="M16.9371 1C17.8564 1.14004 18.7611 1.33984 19.6013 1.75174C22.4787 3.16088 24.2154 5.4325 24.6256 8.62343C25.2168 13.2259 22.0932 17.1978 17.966 18.1511C17.3276 18.2931 16.6758 18.3658 16.0219 18.3679C13.4579 18.3978 10.9443 18.7294 8.54668 19.698C7.32737 20.1907 6.18483 20.8188 5.15888 21.6491C3.97297 22.6082 3.40111 23.8621 3.36713 25.3714C3.35248 25.996 3.36361 26.6212 3.36713 27.2464C3.36713 28.1839 3.8136 28.6344 4.74932 28.6344H20.2763C20.452 28.6344 20.6278 28.6174 20.7995 28.6754C21.253 28.8295 21.5512 29.1354 21.6333 29.6077C21.7188 30.101 21.5524 30.5141 21.1381 30.81C21.0303 30.879 20.9188 30.9422 20.8042 30.9992H3.92961C3.37943 30.8615 2.85503 30.6705 2.39449 30.3242C1.6328 29.753 1.20624 28.9807 1 28.0696V24.4369C1.14414 23.7191 1.3164 23.0119 1.62284 22.3399C2.34293 20.7632 3.58685 19.6921 5.01005 18.7921C6.64302 17.7597 8.41602 17.0648 10.2892 16.6113C10.3771 16.5902 10.5083 16.6113 10.5394 16.4982C10.5623 16.4174 10.4585 16.3758 10.4017 16.3254C8.07325 14.2747 7.00336 11.7036 7.37952 8.62226C7.77385 5.41903 9.53044 3.14448 12.4255 1.74119C13.2587 1.33749 14.154 1.14179 15.0621 1H16.9371ZM9.69333 9.66169C9.74958 13.1936 12.4841 15.9615 15.9996 15.9639C19.4882 15.9639 22.2907 13.2276 22.293 9.66579C22.293 6.20885 19.5907 3.39642 16.0184 3.37943C12.5298 3.36478 9.76247 6.1069 9.69333 9.66169Z" fill="white" stroke="white" stroke-width="0.5"/>
<path d="M24.7873 30.9994C24.1832 30.7322 23.9172 30.2811 23.9383 29.6096C23.9693 28.6446 23.9465 27.676 23.9465 26.7116C23.9465 26.3337 23.9465 26.3331 23.5545 26.3325C22.5397 26.3325 21.5249 26.3325 20.5077 26.3325C19.7735 26.3325 19.2609 25.8433 19.2573 25.1519C19.2544 24.4418 19.7647 23.9508 20.5141 23.949C21.5483 23.949 22.5824 23.9408 23.6195 23.9537C23.8773 23.9566 23.9553 23.8787 23.9523 23.6215C23.9394 22.558 23.9435 21.4946 23.9523 20.4305C23.9536 20.1602 24.0473 19.8985 24.2178 19.6887C24.3883 19.479 24.6254 19.3339 24.8898 19.2774C25.16 19.2223 25.441 19.2608 25.6865 19.3864C25.932 19.512 26.1275 19.7174 26.2409 19.9688C26.3112 20.1409 26.343 20.3263 26.3341 20.512C26.3341 21.517 26.3341 22.5219 26.3341 23.5265C26.3341 23.9478 26.3341 23.9478 26.7443 23.9484C27.7005 23.9484 28.6573 23.9713 29.6153 23.9402C30.2873 23.9185 30.7385 24.1845 31.0057 24.7892V25.4923C30.7385 26.0952 30.2885 26.3612 29.6176 26.3407C28.6245 26.3108 27.6302 26.3407 26.6364 26.329C26.4062 26.329 26.3323 26.4011 26.3347 26.6308C26.3447 27.6268 26.3165 28.6194 26.347 29.6119C26.3675 30.2828 26.1003 30.7328 25.498 31L24.7873 30.9994Z" fill="white" stroke="white" stroke-width="0.5"/>
</svg>