<svg xmlns="http://www.w3.org/2000/svg" width="32" height="30" viewBox="0 0 32 30" fill="none">
<path d="M15.8424 1.02892C19.2579 1.02892 22.6759 1.11012 26.0889 1.00226C28.8068 0.917434 30.7457 3.23204 30.6996 5.60724C30.6134 10.2886 30.6777 14.9735 30.6741 19.6561C30.6741 22.4094 28.8311 24.2416 26.0635 24.2453C22.9707 24.2453 19.8755 24.2526 16.7864 24.2392C16.3432 24.2327 15.9117 24.3815 15.567 24.6597C13.815 25.9928 12.0484 27.3003 10.2806 28.6152C10.0221 28.8078 9.76612 29.0078 9.43974 29.0817C8.39507 29.318 7.63674 28.7279 7.58214 27.5863C7.54453 26.7804 7.57122 25.9722 7.57001 25.1626C7.57001 24.2562 7.57001 24.2635 6.68186 24.2526C5.73668 24.2416 4.79271 24.3204 3.86816 23.9714C2.24837 23.3655 1.02656 21.778 1.01928 20.0438C0.998654 15.0983 0.988947 10.1516 1.01928 5.20734C1.03505 2.92302 2.94361 1.06043 5.2283 1.04468C8.76513 1.01923 12.302 1.03741 15.8388 1.03741L15.8424 1.02892ZM15.8242 3.16903C12.4075 3.16903 8.98959 3.16176 5.57288 3.16903C4.20425 3.16903 3.2433 4.13849 3.24087 5.49333C3.23359 10.2195 3.23359 14.9457 3.24087 19.6718C3.24087 21.1527 4.09869 22.0034 5.57531 22.0167C6.768 22.0264 7.96191 22.0313 9.15461 22.0167C9.6181 22.0094 9.81344 22.1767 9.80252 22.6529C9.78189 23.6224 9.79403 24.5919 9.80252 25.5613C9.80252 25.714 9.73215 25.9249 9.90201 26.0037C10.0719 26.0824 10.1871 25.8994 10.3097 25.8098C11.8191 24.6912 13.3333 23.5776 14.8293 22.4409C15.1934 22.1527 15.6474 22.0017 16.1118 22.0143C19.3878 22.0288 22.6637 22.024 25.9397 22.0204C27.6384 22.0204 28.4658 21.1951 28.4671 19.4925C28.4671 14.9085 28.4671 10.3241 28.4671 5.73933C28.4671 4.01973 27.6177 3.17024 25.896 3.16903C22.5392 3.16822 19.1819 3.16903 15.8242 3.17145V3.16903Z" fill="white" stroke="white"/>
<path d="M16.2899 16.49C14.4111 16.49 12.5275 16.49 10.6524 16.49C10.0383 16.49 9.58807 16.2584 9.39996 15.6511C9.35289 15.4944 9.3428 15.329 9.37048 15.1677C9.39816 15.0065 9.46285 14.8538 9.55949 14.7217C9.65613 14.5896 9.78209 14.4816 9.92749 14.4063C10.0729 14.331 10.2338 14.2903 10.3976 14.2875C14.3177 14.26 18.2378 14.26 22.1579 14.2875C22.8521 14.2875 23.2563 14.7917 23.2296 15.4305C23.2053 16.0366 22.7441 16.4778 22.0499 16.4839C20.1299 16.5009 18.2099 16.4839 16.2899 16.4839V16.49Z" fill="white" stroke="white"/>
<path d="M16.2762 10.9372C14.3987 10.9372 12.52 10.9372 10.6424 10.9372C9.82078 10.9372 9.3778 10.5735 9.35595 9.89956C9.33411 9.2256 9.80379 8.7977 10.6461 8.7977C14.4213 8.79286 18.1974 8.79286 21.9743 8.7977C22.8858 8.7977 23.4149 9.40379 23.188 10.1699C23.0193 10.7323 22.6103 10.9445 22.0338 10.9408C20.1126 10.9299 18.195 10.9372 16.2762 10.9372Z" fill="white" stroke="white"/>
</svg>