<svg xmlns="http://www.w3.org/2000/svg" width="16" height="12" viewBox="0 0 16 12" fill="none">
<path d="M5.41594 11C5.3479 11.0004 5.28044 10.9873 5.21745 10.9616C5.15445 10.9359 5.09716 10.898 5.04884 10.85L1.15035 6.95156C1.05405 6.85468 1 6.72364 1 6.58704C1 6.45045 1.05405 6.3194 1.15035 6.22253C1.19842 6.17407 1.2556 6.1356 1.31861 6.10935C1.38162 6.0831 1.4492 6.06959 1.51745 6.06959C1.58571 6.06959 1.65329 6.0831 1.71629 6.10935C1.7793 6.1356 1.83648 6.17407 1.88455 6.22253L5.41594 9.75392L14.0195 1.15035C14.1164 1.05405 14.2474 1 14.384 1C14.5206 1 14.6517 1.05405 14.7485 1.15035C14.797 1.19842 14.8355 1.2556 14.8617 1.31861C14.888 1.38162 14.9015 1.4492 14.9015 1.51745C14.9015 1.58571 14.888 1.65329 14.8617 1.71629C14.8355 1.7793 14.797 1.83648 14.7485 1.88455L5.77787 10.85C5.68157 10.9456 5.55158 10.9994 5.41594 11Z" fill="#F1F1F1" stroke="#F1F1F1" stroke-width="1.05"/>
</svg>