<svg xmlns="http://www.w3.org/2000/svg" width="30" height="31" viewBox="0 0 30 31" fill="none">
<path d="M26 16.3975L13.5 12.56C13.2818 12.4952 13.0501 12.4912 12.8298 12.5485C12.6095 12.6058 12.409 12.7221 12.25 12.885C12.0915 13.0466 11.9798 13.2483 11.927 13.4684C11.8742 13.6886 11.8821 13.919 11.95 14.135L15.9625 26.485C16.0411 26.7196 16.1876 26.9257 16.3834 27.077C16.5793 27.2283 16.8156 27.3181 17.0625 27.335H17.1625C17.3946 27.3331 17.6217 27.2666 17.8182 27.143C18.0147 27.0193 18.1729 26.8434 18.275 26.635L20.9 21.335L26.25 18.71C26.4731 18.5975 26.6574 18.4208 26.779 18.2027C26.9007 17.9845 26.9543 17.7349 26.9328 17.486C26.9112 17.2371 26.8156 17.0004 26.6583 16.8064C26.5009 16.6123 26.2891 16.4699 26.05 16.3975H26ZM7.85 6.55995C7.61462 6.32457 7.29538 6.19234 6.9625 6.19234C6.62962 6.19234 6.31038 6.32457 6.075 6.55995C5.83962 6.79533 5.70738 7.11458 5.70738 7.44745C5.70738 7.78033 5.83962 8.09957 6.075 8.33495L9.525 11.7725C9.6418 11.8883 9.78032 11.98 9.93262 12.0422C10.0849 12.1044 10.248 12.1359 10.4125 12.135C10.7274 12.124 11.0265 11.9945 11.25 11.7725C11.3672 11.6563 11.4602 11.518 11.5236 11.3657C11.5871 11.2134 11.6197 11.05 11.6197 10.885C11.6197 10.7199 11.5871 10.5566 11.5236 10.4042C11.4602 10.2519 11.3672 10.1137 11.25 9.99745L7.85 6.55995ZM8.5125 15.81C8.81211 15.8138 9.10314 15.7099 9.33258 15.5172C9.56201 15.3245 9.71458 15.0557 9.7625 14.76C9.81703 14.4353 9.74128 14.1022 9.55171 13.8331C9.36214 13.5639 9.07405 13.3805 8.75 13.3225L3.8875 12.56C3.56513 12.5204 3.24004 12.6079 2.98106 12.8039C2.72208 12.9999 2.54955 13.289 2.5 13.61C2.4496 13.9364 2.53042 14.2694 2.72482 14.5365C2.91922 14.8035 3.21139 14.9827 3.5375 15.035L8.35 15.7975L8.5125 15.81ZM8.575 17.535L4.2375 19.735C3.98838 19.8626 3.7893 20.0701 3.67215 20.3243C3.555 20.5785 3.52657 20.8647 3.5914 21.137C3.65623 21.4093 3.81058 21.652 4.02971 21.8261C4.24885 22.0002 4.5201 22.0958 4.8 22.0975C4.99622 22.1009 5.19 22.0535 5.3625 21.96L9.7125 19.76C9.86362 19.6883 9.99881 19.587 10.1101 19.4621C10.2213 19.3372 10.3064 19.1912 10.3602 19.0328C10.414 18.8745 10.4355 18.7069 10.4234 18.5401C10.4113 18.3733 10.3658 18.2106 10.2897 18.0616C10.2135 17.9127 10.1083 17.7806 9.98013 17.673C9.852 17.5655 9.70359 17.4848 9.54369 17.4357C9.3838 17.3866 9.21568 17.3701 9.04929 17.3871C8.88289 17.4042 8.72161 17.4544 8.575 17.535ZM17.6375 10.7975C17.8165 10.8856 18.013 10.9326 18.2125 10.935C18.4433 10.9343 18.6695 10.8696 18.8658 10.7483C19.0622 10.627 19.2211 10.4536 19.325 10.2475L21.5375 5.92245C21.6168 5.77452 21.6656 5.61213 21.6808 5.44496C21.696 5.27779 21.6774 5.10927 21.626 4.94945C21.5747 4.78962 21.4917 4.64178 21.382 4.51473C21.2723 4.38768 21.1381 4.28403 20.9875 4.20995C20.6938 4.06077 20.3531 4.03354 20.0394 4.13419C19.7258 4.23484 19.4645 4.45523 19.3125 4.74745L17.1 9.10995C17.0242 9.25599 16.9779 9.41555 16.9639 9.57949C16.9499 9.74344 16.9684 9.90854 17.0183 10.0653C17.0683 10.2221 17.1487 10.3675 17.2549 10.4931C17.3612 10.6188 17.4912 10.7222 17.6375 10.7975ZM14.1125 10.2725H14.3125C14.4752 10.2466 14.6312 10.1889 14.7715 10.1026C14.9119 10.0162 15.0337 9.90304 15.1302 9.76944C15.2266 9.63585 15.2956 9.48452 15.3334 9.32414C15.3711 9.16377 15.3767 8.99752 15.35 8.83495L14.5875 4.03495C14.5612 3.8708 14.5029 3.71343 14.4158 3.57182C14.3287 3.43022 14.2146 3.30715 14.08 3.20965C13.9453 3.11215 13.7928 3.04212 13.6311 3.00357C13.4694 2.96501 13.3017 2.95869 13.1375 2.98495C12.9733 3.01122 12.816 3.06956 12.6744 3.15664C12.5328 3.24372 12.4097 3.35785 12.3122 3.49249C12.2147 3.62714 12.1447 3.77967 12.1061 3.94138C12.0676 4.10308 12.0612 4.2708 12.0875 4.43495L12.875 9.20995C12.9199 9.50588 13.0695 9.77587 13.2966 9.97085C13.5237 10.1658 13.8132 10.2728 14.1125 10.2725Z" fill="#DCDDDD"/>
</svg>