<svg xmlns="http://www.w3.org/2000/svg" width="32" height="32" viewBox="0 0 32 32" fill="none">
  <path d="M15.1098 1H17.0245C17.0627 1.00564 17.101 1.0155 17.14 1.01761C17.6791 1.04561 18.2157 1.10939 18.7462 1.20853C23.311 2.0854 26.7885 4.50558 29.1788 8.46909C30.1814 10.1324 30.7913 11.943 31.0678 13.8634C31.1267 14.2685 31.1551 14.6764 31.2004 15.0829V16.8998C31.1923 16.9377 31.1861 16.9761 31.182 17.0147C31.1273 17.9453 30.9774 18.868 30.7346 19.7685C29.6617 23.6933 27.3833 26.7367 23.8909 28.8502C20.9877 30.6058 17.8194 31.2603 14.4397 30.9081C12.7415 30.7289 11.0879 30.2559 9.55389 29.5103C7.10896 28.34 5.02643 26.537 3.52509 24.2909C2.02376 22.0447 1.15903 19.4383 1.02177 16.7455C0.95951 15.6189 1.03091 14.4888 1.2345 13.3787C1.911 9.76114 3.66749 6.76209 6.5146 4.41048C8.67174 2.6288 11.1529 1.54176 13.9306 1.13597C14.3199 1.0782 14.7156 1.04438 15.1098 1ZM3.62849 15.979C3.65827 22.8352 9.16883 28.3669 16.0792 28.3831C17.7194 28.3914 19.345 28.0775 20.8627 27.4595C22.3803 26.8414 23.76 25.9315 24.9225 24.7819C26.085 23.6323 27.0072 22.2658 27.6363 20.7609C28.2654 19.256 28.5888 17.6424 28.5881 16.0129C28.6037 9.12286 22.986 3.49251 15.8948 3.59255C9.20287 3.68907 3.67245 9.09257 3.62849 15.979Z" fill="white" stroke="white"/>
  <path d="M16.8921 8.10276C16.8921 8.39513 16.8921 8.6882 16.8921 8.98057C16.8921 9.18205 16.9049 9.19826 17.1048 9.21446C17.6684 9.26006 18.2247 9.37022 18.7628 9.54276C19.4137 9.75411 20.0207 10.043 20.5143 10.5291C20.6901 10.7031 20.6901 10.7052 20.5228 10.8869C20.0612 11.3871 19.6009 11.8852 19.1386 12.3868C19.0677 12.4671 19.0081 12.484 18.9188 12.408C18.2898 11.8782 17.5523 11.6605 16.7382 11.664C16.3269 11.664 15.9135 11.6351 15.5058 11.7239C15.2592 11.7735 15.0279 11.8802 14.8307 12.0353C14.3896 12.3875 14.3882 12.9807 14.8271 13.3358C14.9998 13.4652 15.191 13.5683 15.3944 13.6415C16.0461 13.9057 16.7212 14.0952 17.3977 14.284C18.2486 14.5214 19.084 14.8075 19.8513 15.2605C20.8263 15.8431 21.3085 16.716 21.4269 17.8157C21.5283 18.7569 21.4184 19.672 20.9064 20.4822C20.1087 21.7447 18.9634 22.5393 17.4771 22.8218C17.3369 22.8506 17.1947 22.8686 17.0517 22.8754C16.919 22.8789 16.8871 22.9367 16.8878 23.0571C16.8921 23.6207 16.8878 24.1794 16.8878 24.7402C16.8878 24.9635 16.8878 24.9642 16.6567 24.9642H15.5412C15.3363 24.9642 15.3335 24.9607 15.3327 24.762C15.3327 24.1766 15.3292 23.5912 15.3327 23.0057C15.3327 22.8648 15.298 22.8 15.1441 22.7782C14.2561 22.6632 13.3915 22.4118 12.5814 22.0328C12.216 21.8629 11.8796 21.6373 11.5843 21.3642C11.4712 21.2563 11.3682 21.1384 11.2766 21.012C11.2057 20.9183 11.2191 20.8528 11.305 20.7753C11.8751 20.2586 12.4424 19.7408 13.0068 19.2219C13.0607 19.1732 13.1097 19.1282 13.177 19.2085C13.6734 19.7988 14.3542 20.0539 15.081 20.206C15.8929 20.3913 16.7368 20.3899 17.548 20.2018C17.6048 20.1877 17.6608 20.1673 17.7175 20.1532C18.1487 20.0454 18.3777 19.7601 18.4593 19.3374C18.5039 19.1272 18.5216 18.9123 18.5117 18.6977C18.5027 18.4709 18.4092 18.2555 18.2494 18.0933C17.9326 17.7567 17.5273 17.5151 17.0793 17.3958C15.8795 17.0879 14.7052 16.7026 13.5954 16.1439C13.1987 15.9523 12.8296 15.709 12.4977 15.4204C12.0517 15.0202 11.7708 14.544 11.724 13.9409C11.6673 13.2224 11.6701 12.5073 11.8786 11.8091C12.2488 10.5727 13.0976 9.8161 14.3109 9.43074C14.5826 9.34279 14.8624 9.28167 15.1462 9.24828C15.2845 9.23278 15.3391 9.17783 15.3377 9.03693C15.3306 8.42683 15.3342 7.81674 15.3377 7.20523C15.3377 7.01643 15.3455 7.00727 15.5377 7.00586C15.9256 7.00586 16.3135 7.00586 16.7013 7.00586C16.89 7.00586 16.8964 7.01572 16.8964 7.20946C16.894 7.5077 16.8926 7.80547 16.8921 8.10276Z" fill="white"/>
</svg>