<svg xmlns="http://www.w3.org/2000/svg" width="161" height="174" viewBox="0 0 161 174" fill="none">
  <g opacity="0.6">
    <path d="M75.8806 170.992C75.2859 170.993 74.7024 170.83 74.1941 170.521C73.6858 170.212 73.2723 169.77 72.9987 169.241C70.1168 163.651 66.4639 157.087 59.9219 149.983C59.5452 149.575 59.2807 149.077 59.1544 148.536C59.0281 147.996 59.0443 147.432 59.2014 146.899C61.6295 138.462 65.448 126.928 65.4841 126.812C65.6061 126.395 65.8108 126.007 66.086 125.672C66.3612 125.336 66.7012 125.058 67.0858 124.857C67.4704 124.655 67.8916 124.533 68.3245 124.497C68.7573 124.462 69.1929 124.514 69.6052 124.65C70.0175 124.787 70.3981 125.005 70.7243 125.291C71.0505 125.578 71.3156 125.928 71.5039 126.319C71.6921 126.71 71.7997 127.136 71.8201 127.569C71.8405 128.003 71.7733 128.437 71.6226 128.844C71.5865 128.952 68.2939 138.888 65.9091 146.964C70.9932 152.828 75.3078 159.317 78.7481 166.273C79.0009 166.767 79.1227 167.318 79.1018 167.872C79.0809 168.427 78.9181 168.966 78.6289 169.44C78.3398 169.913 77.9339 170.305 77.4502 170.577C76.9664 170.848 76.4211 170.992 75.8662 170.992H75.8806Z" fill="#4D70BE"/>
    <path d="M81.2629 173.587H56.1973L69.483 166.05L80.6144 166.483L81.2629 173.587Z" fill="#403F3F"/>
    <path d="M78.87 143.219C90.2788 139.653 97.1308 129.096 94.1745 119.639C91.2183 110.182 79.5731 105.407 68.1643 108.974C56.7555 112.54 49.9034 123.098 52.8597 132.554C55.816 142.011 67.4612 146.786 78.87 143.219Z" fill="#2D2525"/>
    <path d="M16.4838 114.334C15.7378 114.331 15.0158 114.07 14.4399 113.596C13.8641 113.122 13.4699 112.463 13.3241 111.731C13.1783 111 13.2898 110.24 13.6398 109.581C13.9898 108.923 14.5567 108.405 15.2446 108.116C15.8045 107.882 16.2962 107.511 16.674 107.036C17.0519 106.561 17.3037 105.998 17.406 105.4C17.4706 104.697 17.7643 104.034 18.2419 103.513C18.7196 102.992 19.3548 102.643 20.0502 102.518C20.8526 102.354 21.6461 102.15 22.4278 101.906C26.8083 100.63 32.2336 99.0238 49.309 103.822C66.1539 94.4055 66.3484 76.7393 66.3484 75.9756C66.3484 75.1194 66.687 74.298 67.2904 73.6906C67.8938 73.0832 68.7129 72.7391 69.569 72.7334C70.422 72.7334 71.2405 73.0702 71.8463 73.6707C72.4522 74.2711 72.7964 75.0866 72.804 75.9395C72.804 76.8834 72.7031 99.0598 51.1895 110.162C50.4562 110.543 49.6045 110.625 48.8119 110.393C32.529 105.695 27.9179 107.036 24.265 108.109L23.2708 108.397C22.7901 109.671 22.0537 110.832 21.107 111.809C20.1603 112.787 19.0233 113.561 17.7663 114.082C17.3603 114.252 16.924 114.338 16.4838 114.334Z" fill="#263238"/>
    <path d="M54.2593 91.1992C48.128 66.8325 31.7946 3.97753 84.1377 0.137356C131.099 -3.31376 143.981 59.217 147.115 80.8315C148.684 91.7682 149.536 102.796 149.666 113.844C149.725 119.433 147.832 124.867 144.312 129.208C140.791 133.549 135.866 136.524 130.386 137.62C104.801 142.822 80.5929 143.557 64.2812 137.123C62.1388 136.258 60.3335 134.724 59.1349 132.749C57.9364 130.774 57.4088 128.464 57.6311 126.164C58.258 119.19 58.2724 107.129 54.2593 91.1992Z" fill="#7AA3FF"/>
    <path opacity="0.1" d="M147.144 80.8454C144.19 60.4413 132.576 3.7537 91.9118 0.151289C89.5921 -0.0838631 87.2548 0.372896 85.1944 1.46401C83.134 2.55513 81.4427 4.23177 80.3336 6.2826C78.518 9.79855 78.5756 14.0566 81.2918 18.2714C90.2258 32.1984 111.603 80.233 108.375 106.408C106.934 118.318 99.4336 127.828 105.932 141.215C114.147 140.496 122.312 139.293 130.386 137.612C135.866 136.516 140.792 133.541 144.312 129.2C147.832 124.859 149.726 119.425 149.666 113.836C149.545 102.796 148.703 91.7757 147.144 80.8454Z" fill="black"/>
    <path d="M140.111 114.183C140.026 114.183 139.945 114.15 139.884 114.09C139.824 114.031 139.789 113.95 139.787 113.866C139.664 102.832 138.815 91.8183 137.244 80.8964C129.462 27.1051 108.518 -0.0931292 76.6509 2.25565C76.6083 2.25858 76.5655 2.25308 76.5251 2.23944C76.4846 2.22581 76.4472 2.20431 76.4151 2.17619C76.383 2.14808 76.3567 2.11389 76.3378 2.07559C76.3189 2.0373 76.3078 1.99565 76.3051 1.95304C76.301 1.86746 76.3303 1.78364 76.3867 1.71916C76.4431 1.65469 76.5223 1.61456 76.6077 1.6072C108.849 -0.77039 130.046 26.6224 137.849 80.8027C139.419 91.7539 140.271 102.796 140.399 113.858C140.399 113.944 140.365 114.027 140.304 114.088C140.243 114.149 140.161 114.183 140.075 114.183H140.111Z" fill="#263238"/>
    <path d="M139.622 144.943C151.031 141.377 157.883 130.819 154.927 121.363C151.97 111.906 140.325 107.131 128.916 110.697C117.507 114.264 110.655 124.821 113.612 134.278C116.568 143.735 128.213 148.51 139.622 144.943Z" fill="#2D2525"/>
    <path d="M141.596 170.992C141.002 170.994 140.418 170.831 139.909 170.522C139.401 170.213 138.987 169.77 138.715 169.242C135.833 163.651 132.18 157.087 125.631 149.983C125.257 149.574 124.994 149.075 124.868 148.535C124.742 147.995 124.757 147.432 124.91 146.899C127.345 138.463 131.157 126.928 131.2 126.812C131.333 126.41 131.545 126.037 131.822 125.716C132.099 125.396 132.437 125.132 132.816 124.942C133.195 124.752 133.608 124.638 134.031 124.607C134.454 124.576 134.879 124.629 135.281 124.763C135.684 124.896 136.056 125.107 136.377 125.385C136.698 125.662 136.961 126 137.152 126.379C137.342 126.758 137.456 127.171 137.487 127.594C137.517 128.017 137.465 128.442 137.331 128.844C137.295 128.952 134.01 138.888 131.625 146.964C136.709 152.826 141.022 159.315 144.457 166.273C144.71 166.767 144.831 167.318 144.81 167.872C144.79 168.427 144.627 168.966 144.338 169.44C144.048 169.914 143.643 170.305 143.159 170.577C142.675 170.849 142.13 170.992 141.575 170.992H141.596Z" fill="#4D70BE"/>
    <path d="M134.809 72.4811C134.087 72.4815 133.385 72.2399 132.815 71.7948C132.246 71.3498 131.842 70.7269 131.668 70.0255C131.494 69.3241 131.559 68.5846 131.855 67.9249C132.15 67.2652 132.657 66.7234 133.296 66.3858C133.916 66.0544 147.987 58.3668 151.935 39.8936C142.569 35.9742 125.695 27.1195 122.006 22.6669C121.643 22.2363 121.395 21.7207 121.286 21.1683C120.86 18.5078 121.108 15.783 122.006 13.243L120.306 9.95755C119.912 9.19322 119.839 8.30381 120.101 7.48501C120.363 6.6662 120.939 5.98506 121.704 5.59143C122.468 5.1978 123.358 5.12391 124.176 5.38603C124.995 5.64816 125.676 6.22482 126.07 6.98916L128.512 11.7155C128.775 12.2102 128.904 12.7649 128.886 13.3248C128.869 13.8847 128.705 14.4302 128.411 14.9073C127.752 16.2241 127.473 17.6986 127.605 19.1653C131.762 22.919 148.499 31.8026 156.734 34.8502C157.432 35.1089 158.019 35.601 158.396 36.2431C158.773 36.8852 158.916 37.6378 158.801 38.3734C155.149 61.9836 137.086 71.7102 136.322 72.1136C135.856 72.3577 135.336 72.4839 134.809 72.4811Z" fill="#2D2525"/>
    <path d="M124.499 22.2194C124.209 22.218 123.924 22.1385 123.674 21.9892C123.425 21.8399 123.22 21.6262 123.081 21.3706C122.943 21.115 122.876 20.8268 122.887 20.5363C122.898 20.2458 122.987 19.9636 123.145 19.7193C123.26 19.5464 125.926 15.5189 129.989 14.431C130.194 14.3761 130.408 14.3621 130.618 14.3898C130.828 14.4175 131.031 14.4863 131.215 14.5924C131.398 14.6984 131.559 14.8396 131.688 15.0078C131.818 15.1761 131.912 15.3681 131.967 15.573C132.022 15.7778 132.036 15.9914 132.008 16.2017C131.981 16.4119 131.912 16.6147 131.806 16.7983C131.7 16.982 131.558 17.1429 131.39 17.272C131.222 17.4011 131.03 17.4958 130.825 17.5507C127.994 18.3144 125.868 21.4557 125.854 21.4845C125.707 21.7102 125.506 21.8957 125.27 22.0241C125.033 22.1524 124.768 22.2196 124.499 22.2194Z" fill="#212121"/>
    <path d="M146.978 173.587H121.912L135.198 166.05L146.329 166.483L146.978 173.587Z" fill="#403F3F"/>
    <path d="M94.489 77.0511C103.97 76.2116 111.043 68.6131 110.288 60.0795C109.532 51.5458 101.234 45.3085 91.7527 46.148C82.2718 46.9874 75.1985 54.5859 75.9541 63.1195C76.7097 71.6532 85.0081 77.8905 94.489 77.0511Z" fill="white"/>
    <path d="M91.269 71.4267C93.7832 70.7105 94.7645 66.4196 93.4608 61.8426C92.157 57.2657 89.0618 54.1359 86.5476 54.8521C84.0333 55.5683 83.052 59.8593 84.3558 64.4362C85.6596 69.0132 88.7547 72.1429 91.269 71.4267Z" fill="#14262F"/>
    <path d="M73.5104 64.519C84.3897 63.1213 105.932 56.9756 109.484 54.4971C106.689 46.3124 93.6334 39.3094 82.0193 43.2576C71.493 46.8096 73.5104 64.519 73.5104 64.519Z" fill="#3C3C3C"/>
    <path d="M75.6211 69.7786C89.1301 67.2137 106.688 62.9052 111.71 60.1458C111.4 68.9501 108.828 77.8768 95.0525 80.8957C83.7842 83.3525 75.6211 69.7786 75.6211 69.7786Z" fill="#3C3C3C"/>
    <path d="M64.4937 78.249C69.3785 75.017 70.0225 67.3852 65.932 61.2028C61.8415 55.0204 54.5656 52.6286 49.6807 55.8606C44.7959 59.0926 44.1519 66.7245 48.2424 72.9068C52.3329 79.0892 59.6088 81.481 64.4937 78.249Z" fill="white"/>
    <path d="M57.3281 67.2714C58.1423 71.1332 57.4362 74.3537 55.7431 74.4762C54.0499 74.5987 52.0182 71.5511 51.1968 67.6893C50.3755 63.8275 51.0887 60.6141 52.7747 60.4845C54.4606 60.3548 56.5068 63.4096 57.3281 67.2714Z" fill="#14262F"/>
    <path d="M43.9346 65.7948C51.2331 66.6521 65.7292 65.6939 68.1356 64.3538C66.356 57.4156 57.7246 49.4902 49.8785 50.4989C42.8034 51.4067 43.9346 65.7948 43.9346 65.7948Z" fill="#3C3C3C"/>
    <path d="M45.2891 70.3407C54.3599 70.7514 66.1831 70.5209 69.5549 69.2456C69.2451 76.1694 67.4295 82.7691 58.1641 82.661C50.599 82.5745 45.2891 70.3407 45.2891 70.3407Z" fill="#3C3C3C"/>
    <path d="M97.4951 38.8989C89.2507 38.944 81.1874 36.4815 74.3748 31.8382C73.6917 31.3213 73.2419 30.5542 73.1243 29.7057C73.0068 28.8571 73.2311 27.9967 73.748 27.3135C74.2649 26.6304 75.0319 26.1806 75.8805 26.063C76.729 25.9455 77.5895 26.1698 78.2726 26.6867C85.8976 31.6596 95.1488 33.4949 104.095 31.8093C104.512 31.7303 104.94 31.7342 105.355 31.8207C105.77 31.9072 106.165 32.0747 106.515 32.3135C106.866 32.5524 107.166 32.8579 107.398 33.2127C107.631 33.5675 107.791 33.9647 107.87 34.3815C107.949 34.7982 107.945 35.2265 107.859 35.6418C107.772 36.0571 107.605 36.4513 107.366 36.8018C107.127 37.1524 106.821 37.4525 106.467 37.685C106.112 37.9175 105.715 38.0778 105.298 38.1568C102.726 38.6464 100.113 38.8948 97.4951 38.8989Z" fill="#393535"/>
    <path d="M39.7054 33.3299C39.1881 33.3273 38.6789 33.201 38.2204 32.9614C37.7619 32.7219 37.3673 32.3761 37.0697 31.953C36.7721 31.5298 36.5801 31.0416 36.5097 30.5291C36.4393 30.0166 36.4925 29.4947 36.6649 29.007C38.3725 24.2374 41.2184 21.1465 45.109 19.8064C52.1553 17.3784 59.7492 22.0976 60.0734 22.2993C60.7811 22.7643 61.2783 23.4883 61.4581 24.3158C61.6379 25.1433 61.4861 26.0083 61.0353 26.7251C60.5845 27.442 59.8705 27.9534 59.0468 28.1497C58.223 28.346 57.3552 28.2115 56.6295 27.775C55.1885 26.86 50.5991 24.7417 47.1912 25.9233C45.2315 26.6078 43.7761 28.3298 42.7458 31.1973C42.5194 31.822 42.1061 32.3618 41.5621 32.7434C41.0181 33.1249 40.3698 33.3297 39.7054 33.3299Z" fill="#393535"/>
    <path d="M65.1741 87.8553C65.0835 87.855 64.9936 87.8404 64.9076 87.812C64.663 87.7432 64.4558 87.58 64.3315 87.3585C64.2072 87.1369 64.176 86.875 64.2447 86.6304C64.5311 85.851 64.9688 85.1359 65.5326 84.5263C66.0965 83.9167 66.7753 83.4247 67.5301 83.0785C71.2334 81.1692 76.8964 81.5655 84.3246 84.2529C84.4447 84.2962 84.555 84.363 84.6492 84.4493C84.7433 84.5357 84.8194 84.6398 84.873 84.7557C84.9266 84.8717 84.9567 84.9971 84.9615 85.1247C84.9663 85.2523 84.9457 85.3797 84.901 85.4993C84.8584 85.6192 84.7923 85.7294 84.7067 85.8234C84.621 85.9175 84.5175 85.9936 84.4022 86.0472C84.2868 86.1009 84.1619 86.131 84.0348 86.1359C83.9077 86.1408 83.7809 86.1203 83.6617 86.0757C75.1384 82.992 70.693 83.6549 68.5316 84.7644C67.4523 85.2223 66.5942 86.083 66.1396 87.1636C66.0776 87.3693 65.9493 87.5488 65.7747 87.6739C65.6 87.799 65.3888 87.8628 65.1741 87.8553Z" fill="#263238"/>
    <path d="M34.6617 84.3037C23.3881 85.3054 12.4236 88.5252 2.39844 93.7781C7.96057 92.7262 27.8675 117.359 32.9829 136.351C42.4285 132.857 53.4375 130.472 65.1741 128.606C58.063 109.031 45.0582 86.847 34.6617 84.3037Z" fill="#407BFF"/>
    <path opacity="0.6" d="M34.6617 84.3037C23.3881 85.3054 12.4236 88.5252 2.39844 93.7781C7.96057 92.7262 27.8675 117.359 32.9829 136.351C42.4285 132.857 53.4375 130.472 65.1741 128.606C58.063 109.031 45.0582 86.847 34.6617 84.3037Z" fill="#2B2B2B"/>
    <path d="M34.6614 84.3039C22.3555 82.9134 2.37653 93.2163 2.37653 93.2163C-1.16104 95.4714 -0.202805 99.7006 1.72809 101.495C3.57973 98.836 24.2288 91.9194 31.9884 90.99C28.1338 87.4164 31.7218 84.7938 34.6614 84.3039Z" fill="#407BFF"/>
    <path opacity="0.2" d="M34.6614 84.3039C22.3555 82.9134 2.37653 93.2163 2.37653 93.2163C-1.16104 95.4714 -0.202805 99.7006 1.72809 101.495C3.57973 98.836 24.2288 91.9194 31.9884 90.99C28.1338 87.4164 31.7218 84.7938 34.6614 84.3039Z" fill="white"/>
    <path d="M16.491 114.333C15.9546 114.335 15.426 114.205 14.9521 113.954C14.4783 113.702 14.0739 113.338 13.7748 112.892C11.4332 109.29 12.8958 103.822 13.2128 102.755C13.4828 101.964 14.0485 101.309 14.7912 100.925C15.534 100.542 16.3962 100.461 17.1972 100.7C17.9983 100.938 18.6759 101.478 19.0882 102.205C19.5005 102.931 19.6155 103.79 19.409 104.6C18.883 106.408 18.775 108.721 19.1928 109.355C19.6606 110.073 19.8239 110.948 19.6469 111.787C19.4699 112.626 18.9671 113.361 18.249 113.829C17.7256 114.167 17.114 114.342 16.491 114.333Z" fill="#171E22"/>
  </g>
</svg>