<svg width="25" height="22" viewBox="0 0 25 22" fill="none" xmlns="http://www.w3.org/2000/svg">
<path d="M-3.10828e-07 14.889L-4.6531e-08 20.9355C-2.0827e-08 21.5235 0.541444 22 1.20968 22L8.06452 22C8.73275 22 9.27419 21.5235 9.27419 20.9355C9.27419 20.3474 8.73275 19.871 8.06452 19.871L2.41935 19.871L2.41935 14.889C2.41935 14.301 1.87791 13.8245 1.20968 13.8245C0.541443 13.8245 -3.36532e-07 14.301 -3.10828e-07 14.889ZM15.7258 1.06452C15.7258 1.65256 16.2673 2.12903 16.9355 2.12903L22.5806 2.12903L22.5806 7.07563C22.5806 7.66368 23.1221 8.14015 23.7903 8.14015C24.4586 8.14015 25 7.66368 25 7.07563L25 1.06452C25 0.476472 24.4586 8.3822e-07 23.7903 8.67429e-07L16.9355 1.16707e-06C16.2673 1.19628e-06 15.7258 0.476472 15.7258 1.06452ZM22.5806 14.889L22.5806 19.871L16.9355 19.871C16.2673 19.871 15.7258 20.3474 15.7258 20.9355C15.7258 21.5235 16.2673 22 16.9355 22L23.7903 22C24.4586 22 25 21.5235 25 20.9355L25 14.889C25 14.301 24.4586 13.8245 23.7903 13.8245C23.1221 13.8245 22.5806 14.301 22.5806 14.889ZM-9.15109e-07 1.06452L-6.52358e-07 7.07563C-6.26654e-07 7.66368 0.541443 8.14015 1.20968 8.14015C1.87791 8.14015 2.41935 7.66368 2.41935 7.07563L2.41935 2.12903L8.06452 2.12903C8.73275 2.12903 9.27419 1.65256 9.27419 1.06452C9.27419 0.476472 8.73275 1.52562e-06 8.06452 1.55483e-06L1.20968 1.85447e-06C0.541443 1.88368e-06 -9.40813e-07 0.476473 -9.15109e-07 1.06452Z" fill="#E9E9E9"/>
</svg>
