<svg xmlns="http://www.w3.org/2000/svg" width="34" height="27" viewBox="0 0 34 27" fill="none">
<path d="M20.6023 7.38811C20.5999 7.58975 20.5858 7.79109 20.5603 7.99112C20.5462 8.07526 20.5322 8.14538 20.5182 8.2155C20.5163 8.21732 20.5148 8.21951 20.5138 8.22192C20.5128 8.22432 20.5123 8.22691 20.5123 8.22952C20.5123 8.23213 20.5128 8.23472 20.5138 8.23713C20.5148 8.23953 20.5163 8.24172 20.5182 8.24354H20.5042C20.4304 8.5493 20.3222 8.84569 20.1816 9.12703C19.8536 9.71714 19.3738 10.2088 18.7919 10.5512C18.21 10.8935 17.5472 11.074 16.8721 11.074C16.1969 11.074 15.5341 10.8935 14.9522 10.5512C14.3703 10.2088 13.8905 9.71714 13.5625 9.12703C13.4211 8.83477 13.3084 8.5295 13.2259 8.2155C13.2256 8.13878 13.2113 8.06276 13.1839 7.99112C13.1979 7.9771 13.1979 7.9771 13.1839 7.9771C13.085 7.31803 13.1612 6.64454 13.4049 6.02425C13.6486 5.40395 14.0511 4.85868 14.5722 4.44316C15.1263 4.0226 15.7863 3.76409 16.4786 3.6964C17.171 3.62871 17.8685 3.75451 18.4936 4.05978C19.1187 4.36505 19.6468 4.83783 20.0191 5.42546C20.3914 6.01309 20.5933 6.69252 20.6023 7.38811ZM25.7209 22.7719C25.7236 23.2842 25.6814 23.7957 25.5947 24.3005C25.5842 24.3321 25.5795 24.3654 25.5807 24.3987C22.8778 25.7543 19.8958 26.4601 16.8721 26.4601C13.8483 26.4601 10.8663 25.7543 8.16344 24.3987C8.16463 24.3654 8.15988 24.3321 8.14941 24.3005C7.9406 23.0758 7.99117 21.821 8.29786 20.6171C8.60454 19.4132 9.16051 18.2871 9.9298 17.3116C10.6991 16.3361 11.6646 15.533 12.7638 14.9541C13.863 14.3752 15.0715 14.0335 16.3111 13.9511H16.3672C16.7027 13.9137 17.0414 13.9137 17.3769 13.9511H17.433C19.6771 14.092 21.7832 15.0825 23.3228 16.7211C24.8625 18.3598 25.72 20.5235 25.7209 22.7719ZM10.3371 7.38811C10.3343 7.45387 10.339 7.51974 10.3511 7.58444C9.88436 7.79698 9.37747 7.90696 8.86461 7.90698C8.1919 7.9057 7.5321 7.72219 6.95534 7.37594C6.37857 7.0297 5.90639 6.53366 5.58897 5.94054C5.27155 5.34743 5.12076 4.67939 5.15261 4.00743C5.18447 3.33547 5.39778 2.6847 5.76988 2.12427C6.14198 1.56384 6.65897 1.11469 7.2659 0.82456C7.87284 0.534428 8.54704 0.414151 9.21685 0.476515C9.88667 0.538878 10.5271 0.78155 11.07 1.17874C11.613 1.57593 12.0381 2.1128 12.3004 2.73229C11.6767 3.33628 11.1813 4.05996 10.8439 4.85997C10.5066 5.65999 10.3342 6.51987 10.3371 7.38811Z" fill="#DCDDDD"/>
<path d="M12.2987 12.0437C10.1997 12.9452 8.41065 14.4414 7.15217 16.3479C5.89369 18.2543 5.22089 20.4874 5.21679 22.7717V22.94C3.45223 22.6152 1.74597 22.0292 0.154286 21.2011C0.0503257 20.6651 -0.00133737 20.1203 2.63036e-05 19.5744C0.000398125 17.2239 0.934285 14.9698 2.59632 13.3078C4.25835 11.6457 6.51244 10.7119 8.86291 10.7115C9.77389 10.7041 10.6795 10.8511 11.5414 11.1462C11.7587 11.4733 12.0128 11.7745 12.2987 12.0437ZM28.6081 4.17652C28.6082 4.66644 28.5119 5.15159 28.3245 5.60425C28.1371 6.05691 27.8623 6.4682 27.5159 6.81463C27.1695 7.16105 26.7582 7.43581 26.3055 7.62321C25.8529 7.81061 25.3677 7.90697 24.8778 7.90678C24.3649 7.90677 23.8581 7.79678 23.3913 7.58424C23.4035 7.51955 23.4082 7.45367 23.4053 7.38791C23.4082 6.51968 23.2359 5.6598 22.8985 4.85978C22.5611 4.05976 22.0658 3.33608 21.442 2.73209C21.778 1.94142 22.3766 1.2909 23.1366 0.89036C23.8966 0.489817 24.7716 0.363785 25.6138 0.533539C26.4559 0.703292 27.2138 1.15843 27.7593 1.82213C28.3048 2.48582 28.6046 3.31741 28.6081 4.17652ZM33.7407 19.5744C33.742 20.1203 33.6904 20.6651 33.5864 21.2011C31.9947 22.0292 30.2885 22.6152 28.5239 22.94V22.7717C28.5198 20.4874 27.847 18.2543 26.5885 16.3479C25.3301 14.4414 23.541 12.9452 21.442 12.0437C21.7279 11.7745 21.982 11.4733 22.1993 11.1462C23.0612 10.8511 23.9668 10.7041 24.8778 10.7115C27.2283 10.7119 29.4824 11.6457 31.1444 13.3078C32.8064 14.9698 33.7403 17.2239 33.7407 19.5744Z" fill="#DCDDDD"/>
</svg>