<svg xmlns="http://www.w3.org/2000/svg" width="32" height="30" viewBox="0 0 32 30" fill="none">
<path d="M31.221 13.7315C30.2156 11.9878 24.6859 3.2376 15.2916 3.52037C6.60423 3.74031 1.57719 11.3751 0.210468 13.7315C0.0725879 13.9704 0 14.2413 0 14.517C0 14.7928 0.0725879 15.0637 0.210468 15.3025C1.20017 17.0148 6.49427 25.5137 15.7472 25.5137H16.1399C24.8273 25.2937 29.87 17.6589 31.221 15.3025C31.3589 15.0637 31.4315 14.7928 31.4315 14.517C31.4315 14.2413 31.3589 13.9704 31.221 13.7315ZM16.0614 22.3718C9.29056 22.5289 4.87619 16.7321 3.49375 14.517C5.0647 11.9878 9.16488 6.81937 15.4487 6.66227C22.1881 6.48947 26.6181 12.302 28.0163 14.517C26.3982 17.0463 22.3452 22.2147 16.0614 22.3718Z" fill="#F2F2F2"/>
<path d="M15.7267 9.01862C14.6393 9.01862 13.5762 9.34109 12.672 9.94525C11.7678 10.5494 11.0631 11.4081 10.6469 12.4128C10.2308 13.4175 10.1219 14.523 10.334 15.5896C10.5462 16.6562 11.0699 17.6359 11.8388 18.4048C12.6078 19.1738 13.5875 19.6975 14.6541 19.9096C15.7206 20.1218 16.8262 20.0129 17.8308 19.5967C18.8355 19.1806 19.6942 18.4758 20.2984 17.5716C20.9026 16.6675 21.225 15.6044 21.225 14.5169C21.225 13.0587 20.6458 11.6602 19.6146 10.629C18.5835 9.5979 17.185 9.01862 15.7267 9.01862ZM15.7267 16.8734C15.2607 16.8734 14.8051 16.7352 14.4176 16.4762C14.0301 16.2173 13.728 15.8493 13.5497 15.4187C13.3713 14.9881 13.3247 14.5143 13.4156 14.0572C13.5065 13.6001 13.7309 13.1802 14.0605 12.8507C14.39 12.5211 14.8099 12.2967 15.267 12.2058C15.7241 12.1149 16.1979 12.1615 16.6285 12.3399C17.0591 12.5182 17.4271 12.8203 17.686 13.2078C17.9449 13.5953 18.0831 14.0509 18.0831 14.5169C18.0831 15.1419 17.8349 15.7413 17.393 16.1832C16.951 16.6251 16.3517 16.8734 15.7267 16.8734Z" fill="#F2F2F2"/>
<line x1="27.9966" y1="3.34053" x2="5.82812" y2="27.0378" stroke="#F2F2F2" stroke-width="4" stroke-linecap="round"/>
</svg>