<svg width="25" height="18" viewBox="0 0 25 18" fill="none" xmlns="http://www.w3.org/2000/svg">
<path d="M24.8326 8.13033C24.0329 6.74283 19.6347 -0.219667 12.1626 0.0053326C5.25288 0.180333 1.25447 6.25533 0.167402 8.13033C0.057735 8.32036 0 8.53591 0 8.75533C0 8.97476 0.057735 9.19031 0.167402 9.38033C0.954589 10.7428 5.16542 17.5053 12.525 17.5053H12.8374C19.7471 17.3303 23.758 11.2553 24.8326 9.38033C24.9423 9.19031 25 8.97476 25 8.75533C25 8.53591 24.9423 8.32036 24.8326 8.13033ZM12.7749 15.0053C7.38953 15.1303 3.87843 10.5178 2.77886 8.75533C4.02837 6.74283 7.28957 2.63033 12.2876 2.50533C17.648 2.36783 21.1716 6.99283 22.2836 8.75533C20.9966 10.7678 17.7729 14.8803 12.7749 15.0053Z" fill="#E9E9E9"/>
<path d="M12.5273 4.38135C11.662 4.38135 10.8162 4.63794 10.0967 5.11867C9.37725 5.5994 8.8165 6.28268 8.48537 7.08211C8.15424 7.88153 8.0676 8.7612 8.23641 9.60987C8.40522 10.4585 8.82189 11.2381 9.43374 11.8499C10.0456 12.4618 10.8251 12.8785 11.6738 13.0473C12.5224 13.2161 13.4021 13.1295 14.2015 12.7983C15.0009 12.4672 15.6842 11.9064 16.1649 11.187C16.6457 10.4675 16.9023 9.62164 16.9023 8.75635C16.9023 7.59603 16.4413 6.48323 15.6209 5.66276C14.8004 4.84228 13.6876 4.38135 12.5273 4.38135ZM12.5273 10.6313C12.1565 10.6313 11.794 10.5214 11.4856 10.3154C11.1773 10.1093 10.937 9.81649 10.795 9.47388C10.6531 9.13127 10.616 8.75427 10.6883 8.39055C10.7607 8.02684 10.9393 7.69275 11.2015 7.43052C11.4637 7.1683 11.7978 6.98972 12.1615 6.91737C12.5252 6.84503 12.9022 6.88216 13.2448 7.02407C13.5874 7.16599 13.8803 7.40631 14.0863 7.71465C14.2923 8.023 14.4023 8.38551 14.4023 8.75635C14.4023 9.25363 14.2047 9.73054 13.8531 10.0822C13.5015 10.4338 13.0246 10.6313 12.5273 10.6313Z" fill="#E9E9E9"/>
</svg>
