<svg xmlns="http://www.w3.org/2000/svg" width="26" height="37" viewBox="0 0 26 37" fill="none">
<path d="M25.4253 36.0012H1.00975C1.00975 35.8761 1.00157 35.751 1.00157 35.625C1.00157 29.5781 1.00157 23.5312 1.00157 17.4844C1.00157 17.4278 1.00612 17.3702 1.00157 17.3136C0.984312 17.0397 1.10879 16.9173 1.38409 16.9237C1.7348 16.9328 2.08733 16.9128 2.43714 16.9237C2.75151 16.9374 2.87235 16.7986 2.85055 16.4964C2.84055 16.3722 2.85055 16.2462 2.85055 16.1211C2.88144 14.2318 2.75969 12.3388 2.91051 10.4532C3.07435 8.16727 4.02754 6.0107 5.60538 4.35608C8.00586 1.79287 10.9851 0.70349 14.4759 1.06875C18.7462 1.5171 22.4333 4.85922 23.3446 9.07796C23.6308 10.4029 23.6535 11.7425 23.6499 13.0876C23.6499 14.2263 23.6553 15.365 23.6499 16.5037C23.6499 16.8096 23.7625 16.942 24.0715 16.9265C24.3649 16.9118 24.6602 16.9265 24.9555 16.9265C25.4698 16.9265 25.5007 16.9584 25.5007 17.4625C25.5007 23.4752 25.5007 29.488 25.5007 35.5008C25.4988 35.6688 25.5125 35.8432 25.4253 36.0012ZM13.2502 16.9246C15.5956 16.9246 17.9406 16.9246 20.2854 16.9246C20.538 16.9246 20.7333 16.8991 20.727 16.5667C20.6906 14.6326 20.8178 12.6949 20.6615 10.7636C20.4907 8.60586 19.5403 6.8371 17.8522 5.50573C15.2791 3.47763 11.821 3.33883 9.05982 5.19526C6.941 6.61977 5.83616 8.66978 5.77801 11.2394C5.73894 12.946 5.77074 14.6545 5.77165 16.363C5.77165 16.9109 5.77892 16.9228 6.3168 16.9228L13.2502 16.9246Z" fill="white" stroke="white"/>
</svg>