<svg xmlns="http://www.w3.org/2000/svg" width="10" height="9" viewBox="0 0 10 9" fill="none">
<path d="M9.32495 3.63812H5.64497V0.533125C5.64497 0.395875 5.58035 0.264247 5.46533 0.167197C5.35031 0.0701473 5.1943 0.015625 5.03164 0.015625C4.86897 0.015625 4.71297 0.0701473 4.59795 0.167197C4.48293 0.264247 4.41831 0.395875 4.41831 0.533125V3.63812H0.73833C0.575665 3.63812 0.419662 3.69265 0.30464 3.7897C0.189619 3.88675 0.125 4.01838 0.125 4.15562C0.125 4.29287 0.189619 4.4245 0.30464 4.52155C0.419662 4.6186 0.575665 4.67312 0.73833 4.67312H4.41831V7.77812C4.41831 7.91537 4.48293 8.047 4.59795 8.14405C4.71297 8.2411 4.86897 8.29562 5.03164 8.29562C5.1943 8.29562 5.35031 8.2411 5.46533 8.14405C5.58035 8.047 5.64497 7.91537 5.64497 7.77812V4.67312H9.32495C9.48761 4.67312 9.64361 4.6186 9.75864 4.52155C9.87366 4.4245 9.93828 4.29287 9.93828 4.15562C9.93828 4.01838 9.87366 3.88675 9.75864 3.7897C9.64361 3.69265 9.48761 3.63812 9.32495 3.63812Z" fill="#435059"/>
</svg>