<svg xmlns="http://www.w3.org/2000/svg" width="15" height="15" viewBox="0 0 15 15" fill="none">
<path d="M14.3101 13.5706L11.6956 10.7465C12.5391 9.58229 12.9968 8.14459 12.9951 6.66452C12.9951 5.3464 12.6343 4.05789 11.9584 2.96191C11.2824 1.86594 10.3216 1.01173 9.19749 0.507309C8.07338 0.00288761 6.83645 -0.129092 5.6431 0.12806C4.44976 0.385212 3.3536 1.01995 2.49325 1.952C1.63289 2.88404 1.04699 4.07155 0.809615 5.36434C0.572244 6.65713 0.694072 7.99714 1.15969 9.21492C1.62531 10.4327 2.41381 11.4736 3.42548 12.2059C4.43715 12.9382 5.62655 13.329 6.84327 13.329C8.20949 13.3309 9.5366 12.835 10.6113 11.9212L13.2181 14.7536C13.2896 14.8317 13.3747 14.8936 13.4684 14.9359C13.5621 14.9782 13.6626 15 13.7641 15C13.8656 15 13.9661 14.9782 14.0599 14.9359C14.1536 14.8936 14.2386 14.8317 14.3101 14.7536C14.3822 14.6761 14.4394 14.584 14.4784 14.4825C14.5175 14.381 14.5376 14.2721 14.5376 14.1621C14.5376 14.0521 14.5175 13.9432 14.4784 13.8417C14.4394 13.7402 14.3822 13.6481 14.3101 13.5706ZM2.22937 6.66452C2.22937 5.67593 2.49998 4.70955 3.00696 3.88757C3.51394 3.06558 4.23453 2.42493 5.07761 2.04661C5.92069 1.6683 6.84839 1.56931 7.7434 1.76218C8.63841 1.95504 9.46053 2.43109 10.1058 3.13013C10.7511 3.82916 11.1905 4.71979 11.3685 5.68938C11.5465 6.65898 11.4552 7.66399 11.106 8.57732C10.7567 9.49066 10.1654 10.2713 9.40662 10.8205C8.64786 11.3698 7.75582 11.6629 6.84327 11.6629C5.61959 11.6629 4.44603 11.1363 3.58075 10.1989C2.71548 9.26154 2.22937 7.99018 2.22937 6.66452Z" fill="#F1F1F1"/>
</svg>