<svg xmlns="http://www.w3.org/2000/svg" width="27" height="24" viewBox="0 0 27 24" fill="none">
<path d="M25.8689 10.5069L16.5356 1.17359C16.3656 1.00354 16.1093 0.953453 15.8857 1.04547C15.662 1.13748 15.5188 1.3553 15.5188 1.59757V6.54077C14.8444 6.43012 14.1618 6.37421 13.4758 6.37421C6.5968 6.37421 1 11.971 1 18.85C1 20.0275 1.16423 21.1935 1.48919 22.3151C1.56374 22.5713 1.79667 22.7472 2.06226 22.7472C2.32783 22.7472 2.56078 22.5713 2.63533 22.3151C4.01905 17.5174 8.48021 14.1665 13.4768 14.1665C14.1628 14.1665 14.8489 14.2294 15.5198 14.3517V20.264C15.5198 20.5051 15.6654 20.7229 15.8867 20.8161C16.1103 20.9081 16.3666 20.858 16.5366 20.6879L25.8699 11.3547C25.9829 11.2417 26.0458 11.0926 26.0458 10.9342C26.0458 10.7758 25.9829 10.6243 25.8699 10.5137L25.8689 10.5069ZM16.7091 18.8233V13.8766C16.715 13.5994 16.5274 13.3455 16.2444 13.2802C15.3382 13.074 14.4076 12.9704 13.4711 12.9704C8.6618 12.9704 4.30572 15.7763 2.24531 19.9984C2.20687 19.6164 2.18591 19.232 2.18591 18.8476C2.18591 12.6244 7.24897 7.56459 13.469 7.56459C14.3157 7.56459 15.1602 7.6601 15.9767 7.8453C16.2982 7.91984 16.6173 7.71717 16.6895 7.39454C16.7012 7.34678 16.7047 7.2967 16.7047 7.24895V3.03241L24.6004 10.9249L16.7047 18.8206L16.7091 18.8233Z" fill="#F1F1F1" stroke="#F1F1F1" stroke-width="0.921033"/>
</svg>