<svg width="175" height="174" viewBox="0 0 175 174" fill="none" xmlns="http://www.w3.org/2000/svg">
<circle cx="87.6998" cy="87.1002" r="86.9" fill="#F1F1F1"/>
<g clip-path="url(#clip0_4847_4342)">
<path d="M127.988 101.466L124.519 63.9682C124.308 61.7152 123.243 59.6283 121.542 58.1358C119.841 56.6434 117.633 55.8587 115.372 55.9428C113.111 56.0269 110.967 56.9733 109.382 58.5879C107.796 60.2025 106.889 62.3628 106.846 64.6253L106.572 69.8265C100.419 59.8011 87.8884 39.4402 87.7388 39.1969C87.1247 38.1807 86.3127 37.2981 85.351 36.6017C84.3893 35.9053 83.2976 35.4091 82.1405 35.1426C81.012 34.8764 79.8416 34.8395 78.6986 35.0341C77.5556 35.2286 76.4633 35.6507 75.4864 36.2753C73.78 37.3642 72.4952 39.0016 71.8434 40.9181L69.624 37.2851C69.01 36.269 68.1981 35.3865 67.2366 34.6901C66.2751 33.9936 65.1835 33.4974 64.0266 33.2308C62.8977 32.9643 61.7268 32.9272 60.5834 33.1218C59.4399 33.3163 58.3472 33.7386 57.37 34.3635C55.3764 35.6627 53.9681 37.6882 53.4445 40.0095C52.921 42.3308 53.3234 44.7647 54.5663 46.7939L55.831 48.8637C53.819 48.6067 51.7805 49.0644 50.0714 50.1569C48.0778 51.4561 46.6695 53.4816 46.146 55.8029C45.6224 58.1241 46.0248 60.5581 47.2677 62.5873L51.5937 69.6677C49.5815 69.4081 47.5422 69.866 45.8341 70.9608C43.8402 72.2598 42.4316 74.2852 41.9077 76.6065C41.3838 78.9278 41.7859 81.3618 43.0287 83.3912L66.3212 121.539C72.768 132.089 84.7653 140.001 97.3947 140.001C102.365 140.001 107.257 138.755 111.622 136.379C111.657 136.36 111.693 136.34 111.727 136.318L114.432 134.597C121.14 130.33 125.12 125.502 127.334 118.947C128.955 114.151 128.738 109.78 128.349 105.353C128.165 103.247 127.988 101.466 127.988 101.466ZM124.166 117.877C122.213 123.659 118.658 127.945 112.637 131.775L109.985 133.462C94.6754 141.664 77.2185 132.962 69.1743 119.795L45.8834 81.6483C45.0934 80.368 44.8339 78.8301 45.1598 77.3614C45.4857 75.8927 46.3715 74.609 47.6288 73.783C48.8805 73.0243 50.3813 72.791 51.8043 73.1339C53.2273 73.4768 54.4571 74.3681 55.2258 75.6137L70.0411 99.8642C70.2774 100.237 70.6493 100.503 71.0782 100.607C71.5072 100.71 71.9597 100.643 72.34 100.419C72.5273 100.305 72.6903 100.154 72.8195 99.9769C72.9488 99.7994 73.0418 99.5982 73.0933 99.3847C73.1447 99.1712 73.1536 98.9497 73.1195 98.7328C73.0853 98.5158 73.0088 98.3078 72.8942 98.1205L50.1207 60.8435C49.3305 59.5633 49.0707 58.0254 49.3965 56.5567C49.7222 55.088 50.608 53.8042 51.8653 52.9782C53.1181 52.2176 54.621 51.984 56.0455 52.3283C57.47 52.6726 58.7003 53.5668 59.4674 54.8156L82.245 92.0984C82.4819 92.4703 82.8537 92.7359 83.2824 92.8396C83.711 92.9432 84.1631 92.8768 84.5438 92.6543C84.7312 92.5397 84.8941 92.3894 85.0234 92.2119C85.1526 92.0344 85.2457 91.8331 85.2971 91.6197C85.3486 91.4062 85.3575 91.1847 85.3233 90.9677C85.2892 90.7508 85.2126 90.5428 85.098 90.3554L57.4202 45.051C56.6297 43.7707 56.3697 42.2326 56.6955 40.7637C57.0213 39.2948 57.9071 38.0108 59.1648 37.1848C60.4186 36.4229 61.9234 36.1893 63.3492 36.5351C64.775 36.881 66.0055 37.7781 66.7709 39.0297L94.448 84.3342C94.6845 84.7066 95.0564 84.9726 95.4853 85.0762C95.9141 85.1797 96.3664 85.1127 96.7468 84.8892C97.1252 84.6579 97.3962 84.2858 97.5003 83.8547C97.6044 83.4237 97.533 82.9689 97.3019 82.5904L75.5349 46.9611C74.7443 45.6809 74.4844 44.1428 74.8104 42.674C75.1363 41.2051 76.0225 39.9213 77.2804 39.0957C77.8829 38.7106 78.5568 38.4505 79.2619 38.3311C79.967 38.2116 80.689 38.2351 81.3848 38.4002C82.1096 38.5679 82.7933 38.8796 83.3953 39.3167C83.9973 39.7538 84.5053 40.3075 84.8891 40.9448C85.0713 41.2416 103.211 70.7176 106.531 76.1595C106.718 76.4642 106.996 76.7012 107.327 76.8361C107.657 76.9709 108.022 76.9964 108.368 76.9089C108.714 76.8213 109.023 76.6253 109.25 76.3496C109.477 76.0738 109.609 75.7327 109.628 75.3763L110.186 64.7666C110.196 63.3494 110.75 61.9903 111.735 60.9711C112.72 59.9519 114.059 59.3509 115.475 59.2929C116.891 59.2348 118.275 59.7241 119.34 60.6592C120.404 61.5943 121.068 62.9035 121.194 64.3151C121.194 64.3151 124.834 103.554 125.018 105.645C125.389 109.859 125.581 113.689 124.166 117.877ZM48.907 125.059C45.1135 123.79 41.9227 119.749 40.2007 116.389C38.1896 112.481 37.7966 107.94 39.1064 103.745C39.2417 103.322 39.2036 102.864 39.0006 102.469C38.7976 102.075 38.4462 101.778 38.0239 101.642C37.6015 101.507 37.1428 101.545 36.7485 101.748C36.3542 101.951 36.0568 102.302 35.9215 102.725C34.3447 107.763 34.8132 113.22 37.2256 117.915C38.2061 119.83 41.8734 126.232 47.8462 128.231C48.0544 128.301 48.2743 128.329 48.4934 128.313C48.7124 128.298 48.9263 128.24 49.1228 128.142C49.3193 128.044 49.4946 127.908 49.6386 127.742C49.7827 127.576 49.8927 127.384 49.9623 127.176C50.032 126.967 50.0599 126.747 50.0446 126.528C50.0293 126.309 49.9709 126.095 49.8729 125.899C49.7749 125.702 49.6392 125.527 49.4734 125.383C49.3077 125.239 49.1152 125.129 48.907 125.059ZM53.0867 116.698C51.1222 116.041 49.442 113.891 48.5224 112.097C47.4594 110.033 47.2507 107.634 47.9415 105.417C48.0101 105.208 48.0367 104.987 48.0196 104.767C48.0025 104.547 47.9421 104.333 47.8419 104.137C47.7416 103.94 47.6036 103.766 47.4356 103.623C47.2676 103.48 47.073 103.372 46.8631 103.305C46.6531 103.237 46.432 103.212 46.2123 103.231C45.9926 103.249 45.7787 103.311 45.583 103.413C45.3873 103.514 45.2136 103.653 45.0719 103.822C44.9302 103.991 44.8233 104.186 44.7574 104.397C43.7985 107.456 44.082 110.77 45.5465 113.622C46.1383 114.777 48.3552 118.642 52.0258 119.87C52.4466 120.005 52.9037 119.971 53.2993 119.773C53.6948 119.576 53.9975 119.232 54.1424 118.814C54.2828 118.394 54.2504 117.934 54.0525 117.538C53.8545 117.141 53.5071 116.839 53.0867 116.698ZM138.563 50.2647C137.376 48.4959 133.032 42.6301 126.975 41.3979C126.541 41.3096 126.089 41.3975 125.719 41.6423C125.349 41.887 125.092 42.2687 125.004 42.7032C124.915 43.1378 125.003 43.5896 125.248 43.9594C125.493 44.3291 125.874 44.5864 126.309 44.6748C130.129 45.4522 133.709 49.035 135.787 52.1288C138.219 55.7517 139.153 60.1756 138.393 64.4723C138.353 64.6883 138.357 64.91 138.403 65.1247C138.449 65.3395 138.536 65.5431 138.661 65.7239C138.786 65.9047 138.945 66.0591 139.129 66.1784C139.314 66.2978 139.52 66.3796 139.736 66.4192C139.836 66.4378 139.937 66.447 140.039 66.4468C140.43 66.4464 140.808 66.3091 141.108 66.0588C141.408 65.8085 141.611 65.461 141.682 65.0767C142.597 59.9218 141.479 54.6129 138.563 50.2647ZM123.942 50.1627C123.508 50.0745 123.056 50.1625 122.686 50.4075C122.316 50.6524 122.059 51.0342 121.971 51.4689C121.883 51.9035 121.971 52.3554 122.216 52.7252C122.461 53.0949 122.842 53.3522 123.277 53.4404C125.247 53.8417 127.133 55.7476 128.241 57.3969C129.527 59.3114 130.021 61.6495 129.62 63.9206C129.58 64.1365 129.584 64.3582 129.629 64.5729C129.675 64.7876 129.763 64.9911 129.888 65.1719C130.012 65.3527 130.171 65.5072 130.356 65.6265C130.54 65.7459 130.746 65.8277 130.962 65.8675C131.178 65.9072 131.399 65.904 131.614 65.8581C131.829 65.8122 132.032 65.7244 132.213 65.5999C132.394 65.4753 132.548 65.3163 132.668 65.132C132.787 64.9477 132.869 64.7417 132.909 64.5258C133.465 61.3962 132.787 58.1727 131.016 55.5328C130.3 54.4653 127.671 50.9209 123.942 50.1627Z" fill="#4A8DBD"/>
<path d="M127.519 117.646C125.565 123.428 122.01 127.714 115.99 131.545L113.337 133.231C98.0279 141.433 80.571 132.732 72.5268 119.564L49.2359 81.4175C48.4459 80.1372 48.1864 78.5993 48.5123 77.1306C48.8382 75.6619 49.7239 74.3782 50.9813 73.5522C52.233 72.7935 53.7338 72.5602 55.1568 72.9031C56.5798 73.246 57.8096 74.1373 58.5783 75.3829L73.3936 99.6334C73.6299 100.006 74.0018 100.272 74.4307 100.376C74.8597 100.48 75.3122 100.412 75.6925 100.188C75.8798 100.074 76.0428 99.9236 76.172 99.7461C76.3013 99.5686 76.3943 99.3673 76.4458 99.1539C76.4972 98.9404 76.5061 98.7189 76.472 98.502C76.4378 98.285 76.3613 98.077 76.2467 97.8897L53.4732 60.6127C52.683 59.3325 52.4232 57.7946 52.749 56.3259C53.0747 54.8571 53.9604 53.5734 55.2178 52.7474C56.4706 51.9868 57.9735 51.7532 59.398 52.0975C60.8225 52.4418 62.0528 53.336 62.8199 54.5847L85.5975 91.8676C85.8344 92.2395 86.2062 92.5051 86.6349 92.6088C87.0635 92.7124 87.5156 92.646 87.8963 92.4235C88.0837 92.3089 88.2466 92.1586 88.3759 91.9811C88.5051 91.8036 88.5981 91.6023 88.6496 91.3888C88.7011 91.1754 88.71 90.9539 88.6758 90.7369C88.6417 90.52 88.5651 90.312 88.4505 90.1246L60.7726 44.8202C59.9822 43.5399 59.7222 42.0018 60.048 40.5329C60.3738 39.0639 61.2596 37.78 62.5173 36.954C63.7711 36.1921 65.2759 35.9585 66.7017 36.3043C68.1275 36.6502 69.358 37.5472 70.1234 38.7989L97.8005 84.1034C98.037 84.4758 98.4089 84.7418 98.8378 84.8454C99.2666 84.9489 99.7189 84.8819 100.099 84.6584C100.478 84.4271 100.749 84.055 100.853 83.6239C100.957 83.1929 100.886 82.7381 100.654 82.3596L78.8874 46.7303C78.0968 45.4501 77.8369 43.912 78.1629 42.4431C78.4888 40.9743 79.375 39.6905 80.6329 38.8649C81.2354 38.4798 81.9093 38.2197 82.6144 38.1003C83.3195 37.9808 84.0415 38.0043 84.7373 38.1694C85.4621 38.3371 86.1458 38.6487 86.7478 39.0859C87.3498 39.523 87.8578 40.0767 88.2416 40.714C88.4238 41.0108 106.564 70.4868 109.884 75.9287C110.07 76.2334 110.349 76.4704 110.679 76.6053C111.01 76.7401 111.375 76.7656 111.721 76.6781C112.067 76.5905 112.376 76.3945 112.602 76.1188C112.829 75.843 112.961 75.5019 112.98 75.1455L113.539 64.5357C113.548 63.1186 114.103 61.7594 115.087 60.7403C116.072 59.7211 117.411 59.1201 118.827 59.0621C120.243 59.004 121.627 59.4933 122.692 60.4284C123.757 61.3635 124.421 62.6727 124.546 64.0843C124.546 64.0843 128.187 103.323 128.371 105.414C128.741 109.628 128.933 113.458 127.519 117.646Z" fill="#4A8DBD"/>
</g>
<defs>
<clipPath id="clip0_4847_4342">
<rect width="107" height="107" fill="white" transform="translate(35 33)"/>
</clipPath>
</defs>
</svg>
