  <svg
            xmlns="http://www.w3.org/2000/svg"
            width="22"
            height="23"
            viewBox="0 0 22 23"
            fill="none"
            className="size-[13.56px] tablet:size-[22px]"
          >
            <path
              d="M11 22.0215C4.93416 22.0215 0 17.0873 0 11.0215C0 4.95564 4.93416 0.0214844 11 0.0214844C17.0658 0.0214844 22 4.95564 22 11.0215C22 17.0873 17.065 22.0215 11 22.0215ZM11 1.78148C5.9048 1.78148 1.76 5.92628 1.76 11.0215C1.76 16.1167 5.9048 20.2615 11 20.2615C16.0952 20.2615 20.24 16.1167 20.24 11.0215C20.24 5.92628 16.0943 1.78148 11 1.78148ZM10.9296 11.8311H5.28C5.04661 11.8311 4.82278 11.7384 4.65775 11.5733C4.49271 11.4083 4.4 11.1845 4.4 10.9511C4.4 10.7177 4.49271 10.4939 4.65775 10.3288C4.82278 10.1638 5.04661 10.0711 5.28 10.0711H10.0496V3.54148C10.0496 3.30809 10.1423 3.08426 10.3073 2.91923C10.4724 2.7542 10.6962 2.66148 10.9296 2.66148C11.163 2.66148 11.3868 2.7542 11.5519 2.91923C11.7169 3.08426 11.8096 3.30809 11.8096 3.54148V10.9511C11.8096 11.1845 11.7169 11.4083 11.5519 11.5733C11.3868 11.7384 11.163 11.8311 10.9296 11.8311Z"
              fill="#9C9C9C"
            />
          </svg>