<svg xmlns="http://www.w3.org/2000/svg" width="23" height="23" viewBox="0 0 23 23" fill="none">
<path d="M0.742781 4.7117C-0.210937 3.77813 -0.251625 2.22246 0.651895 1.23703C1.55542 0.251591 3.06101 0.209548 4.01472 1.14312L10.9221 7.90464L17.466 0.767484C18.3696 -0.217951 19.8751 -0.259995 20.8289 0.673576C21.7826 1.60715 21.8233 3.16281 20.9197 4.14825L14.3759 11.2854L21.2833 18.0469C22.237 18.9805 22.2777 20.5362 21.3742 21.5216C20.4706 22.507 18.9651 22.5491 18.0113 21.6155L11.1039 14.854L4.56004 21.9911C3.65651 22.9766 2.15092 23.0186 1.19721 22.085C0.243494 21.1515 0.202803 19.5958 1.10632 18.6104L7.65021 11.4732L0.742781 4.7117Z" fill="#707175"/>
</svg>