<svg width="27" height="27" viewBox="0 0 27 27" fill="none" xmlns="http://www.w3.org/2000/svg">
<circle cx="13.3929" cy="13.3929" r="13.3929" fill="#FFE9E9"/>
<path d="M15.908 19.2707L19.732 7.32408C19.908 6.76794 19.279 6.11576 18.7169 6.27143L6.6394 9.65949C6.1787 9.78358 6.11642 10.3847 6.50813 10.7908L9.04693 13.4326C9.32278 13.7187 9.72859 13.8021 9.98951 13.6167L17.4703 8.4894L12.0694 15.7735C11.8802 16.0333 11.9489 16.4418 12.2247 16.7279L14.7726 19.3608C15.1644 19.767 15.7673 19.7266 15.908 19.2707Z" fill="#4A8DBD"/>
<path d="M14.4658 14.4997C14.2339 14.28 14.224 13.9138 14.4437 13.6818C14.6635 13.4498 15.0296 13.4399 15.2616 13.6597L16.9416 15.2513L18.5332 13.5713C18.753 13.3393 19.1192 13.3294 19.3511 13.5492C19.5831 13.7689 19.593 14.1351 19.3732 14.3671L17.7816 16.0471L19.4616 17.6387C19.6936 17.8584 19.7035 18.2246 19.4837 18.4566C19.264 18.6885 18.8978 18.6984 18.6658 18.4787L16.9858 16.8871L15.3942 18.5671C15.1745 18.7991 14.8083 18.809 14.5763 18.5892C14.3444 18.3695 14.3345 18.0033 14.5542 17.7713L16.1458 16.0913L14.4658 14.4997Z" fill="#DC1010"/>
</svg>
