<svg width="28" height="27" viewBox="0 0 28 27" fill="none" xmlns="http://www.w3.org/2000/svg">
<circle cx="14.178" cy="13.3929" r="13.3929" fill="#EBEBEC"/>
<path d="M21.8163 8.2832C21.6347 8.44904 16.9026 12.6741 16.585 12.9603C16.9285 13.2982 21.6083 17.9491 21.8192 18.1581C21.8157 18.1234 21.825 8.31379 21.8163 8.2832ZM11.3173 13.0247C10.9696 12.709 6.36601 8.49885 6.14752 8.29997C6.13517 8.29976 6.1506 18.2256 6.14474 18.2308C6.33994 18.0339 10.9906 13.3516 11.3173 13.0247ZM16.1652 13.3354L15.2807 14.1247C14.8989 14.4682 14.4027 14.6568 13.8891 14.6537C13.3756 14.6506 12.8817 14.4559 12.5041 14.1079L11.7316 13.4026L6.97605 18.1889C6.98145 18.1889 6.40071 18.7565 6.42464 18.7487H21.5392C21.5631 18.7493 21.5868 18.7455 21.6092 18.7375C21.4795 18.6221 16.4529 13.6129 16.1652 13.3354Z" fill="#77BBE4"/>
<path d="M11.8234 12.7319C11.9275 12.8218 12.7573 13.5862 12.8814 13.6975C13.1577 13.9504 13.518 14.0915 13.8925 14.0936C14.267 14.0957 14.6289 13.9585 14.9079 13.7087L15.9435 12.7823L16.0303 12.7039L20.6262 8.59495L21.2532 8.03516H6.68164L7.29462 8.59495L11.8234 12.7319Z" fill="#77BBE4"/>
</svg>
