<svg xmlns="http://www.w3.org/2000/svg" width="50" height="50" viewBox="0 0 50 50" fill="none">
<g clip-path="url(#clip0_5925_9355)">
<path d="M24.9998 49.9995C38.8067 49.9995 49.9995 38.8067 49.9995 24.9998C49.9995 11.1928 38.8067 0 24.9998 0C11.1928 0 0 11.1928 0 24.9998C0 38.8067 11.1928 49.9995 24.9998 49.9995Z" fill="white"/>
<path d="M33.9805 21.0015L33.5295 34.6514C33.4911 35.8205 32.9986 36.9285 32.1566 37.7404C31.3146 38.5523 30.1894 39.0041 29.0197 39H20.4512C19.2823 39.0042 18.1577 38.553 17.3158 37.742C16.474 36.9311 15.981 35.8242 15.9415 34.6559L15.4905 21.0015C15.4806 20.7025 15.5899 20.4118 15.7944 20.1934C15.9988 19.975 16.2817 19.8467 16.5807 19.8369C16.8797 19.827 17.1704 19.9363 17.3888 20.1408C17.6072 20.3453 17.7355 20.6281 17.7454 20.9271L18.1963 34.5804C18.2188 35.1633 18.4662 35.7147 18.8867 36.119C19.3072 36.5233 19.8679 36.7489 20.4512 36.7485H29.0197C29.6038 36.7489 30.1652 36.5226 30.5858 36.1174C31.0064 35.7122 31.2533 35.1596 31.2746 34.5759L31.7256 20.9271C31.7355 20.6281 31.8637 20.3453 32.0821 20.1408C32.3005 19.9363 32.5912 19.827 32.8902 19.8369C33.1893 19.8467 33.4721 19.975 33.6766 20.1934C33.881 20.4118 33.9904 20.7025 33.9805 21.0015ZM35.4721 16.4591C35.4721 16.7581 35.3533 17.0449 35.1419 17.2563C34.9304 17.4677 34.6437 17.5865 34.3446 17.5865H15.1274C14.8284 17.5865 14.5417 17.4677 14.3302 17.2563C14.1188 17.0449 14 16.7581 14 16.4591C14 16.1601 14.1188 15.8733 14.3302 15.6619C14.5417 15.4504 14.8284 15.3316 15.1274 15.3316H18.6225C18.9797 15.3326 19.3245 15.2006 19.5898 14.9614C19.8551 14.7221 20.0219 14.3928 20.0577 14.0373C20.1409 13.2036 20.5316 12.4307 21.1535 11.8692C21.7754 11.3077 22.5841 10.9978 23.422 11H26.0489C26.8868 10.9978 27.6955 11.3077 28.3175 11.8692C28.9394 12.4307 29.33 13.2036 29.4132 14.0373C29.4491 14.3928 29.6158 14.7221 29.8811 14.9614C30.1464 15.2006 30.4912 15.3326 30.8485 15.3316H34.3435C34.6425 15.3316 34.9293 15.4504 35.1407 15.6619C35.3522 15.8733 35.471 16.1601 35.471 16.4591H35.4721ZM22.015 15.3316H27.4582C27.3101 14.9931 27.2132 14.6344 27.1707 14.2673C27.1428 13.9894 27.0127 13.7318 26.8057 13.5443C26.5986 13.3569 26.3294 13.2529 26.0501 13.2526H23.4231C23.1438 13.2529 22.8746 13.3569 22.6675 13.5443C22.4605 13.7318 22.3304 13.9894 22.3025 14.2673C22.2597 14.6345 22.1635 14.9932 22.015 15.3316ZM23.1503 32.4135V22.8133C23.1503 22.5143 23.0315 22.2275 22.8201 22.0161C22.6086 21.8047 22.3219 21.6859 22.0229 21.6859C21.7238 21.6859 21.4371 21.8047 21.2256 22.0161C21.0142 22.2275 20.8954 22.5143 20.8954 22.8133V32.418C20.8954 32.717 21.0142 33.0038 21.2256 33.2152C21.4371 33.4266 21.7238 33.5454 22.0229 33.5454C22.3219 33.5454 22.6086 33.4266 22.8201 33.2152C23.0315 33.0038 23.1503 32.717 23.1503 32.418V32.4135ZM28.5778 32.4135V22.8133C28.5778 22.5143 28.459 22.2275 28.2476 22.0161C28.0361 21.8047 27.7494 21.6859 27.4504 21.6859C27.1513 21.6859 26.8646 21.8047 26.6531 22.0161C26.4417 22.2275 26.3229 22.5143 26.3229 22.8133V32.418C26.3229 32.717 26.4417 33.0038 26.6531 33.2152C26.8646 33.4266 27.1513 33.5454 27.4504 33.5454C27.7494 33.5454 28.0361 33.4266 28.2476 33.2152C28.459 33.0038 28.5778 32.717 28.5778 32.418V32.4135Z" fill="#707175"/>
</g>
<defs>
<clipPath id="clip0_5925_9355">
<rect width="50" height="50" fill="white"/>
</clipPath>
</defs>
</svg>