<svg width="50" height="50" viewBox="0 0 50 50" fill="none" xmlns="http://www.w3.org/2000/svg">
<g clip-path="url(#clip0_5080_6378)">
<path d="M24.9998 49.9995C38.8067 49.9995 49.9995 38.8067 49.9995 24.9998C49.9995 11.1928 38.8067 0 24.9998 0C11.1928 0 0 11.1928 0 24.9998C0 38.8067 11.1928 49.9995 24.9998 49.9995Z" fill="white"/>
<g clip-path="url(#clip1_5080_6378)">
<path d="M35.9516 24.6316L39.6365 20.9487L29.442 19.4385L24.7657 10.2549L20.1792 19.4837L10 21.0933L17.3599 28.3071L15.7451 38.4855L24.1733 34.0842C25.2111 37.3624 28.2817 39.7453 31.8987 39.7453C36.3658 39.7453 40 36.111 40 31.644C40 28.6525 38.37 26.0348 35.9516 24.6316ZM25.6752 31.644C25.6752 28.2124 28.4671 25.4205 31.8988 25.4205C35.3304 25.4205 38.1223 28.2124 38.1223 31.644C38.1223 35.0757 35.3304 37.8675 31.8988 37.8675C28.4671 37.8675 25.6752 35.0757 25.6752 31.644ZM18.1845 35.0933L19.3663 27.6444L13.9801 22.3651L21.4296 21.1871L24.7861 14.4332L28.2084 21.154L35.669 22.2592L34.0847 23.8426C33.389 23.6474 32.6559 23.5427 31.8987 23.5427C27.4316 23.5427 23.7974 27.1769 23.7974 31.644C23.7974 31.8152 23.8034 31.9849 23.8139 32.1535L18.1845 35.0933Z" fill="#272727"/>
<path d="M35.7563 30.7051H28.043V32.5828H35.7563V30.7051Z" fill="#272727"/>
</g>
</g>
<defs>
<clipPath id="clip0_5080_6378">
<rect width="50" height="50" fill="white"/>
</clipPath>
<clipPath id="clip1_5080_6378">
<rect width="30" height="30" fill="white" transform="translate(10 10)"/>
</clipPath>
</defs>
</svg>
