<svg width="24" height="24" viewBox="0 0 24 24" fill="none" xmlns="http://www.w3.org/2000/svg">
<g clip-path="url(#clip0_4605_3903)">
<g clip-path="url(#clip1_4605_3903)">
<path d="M12.079 24.0066C18.7063 24.0066 24.0789 18.6341 24.0789 12.0067C24.0789 5.37937 18.7063 0.00683594 12.079 0.00683594C5.45163 0.00683594 0.0791016 5.37937 0.0791016 12.0067C0.0791016 18.6341 5.45163 24.0066 12.079 24.0066Z" fill="#DC1010"/>
<g clip-path="url(#clip2_4605_3903)">
<path d="M12.2402 5.24023C8.37273 5.24023 5.24023 8.37273 5.24023 12.2402C5.24023 16.1077 8.37273 19.2402 12.2402 19.2402C16.1077 19.2402 19.2402 16.1077 19.2402 12.2402C19.2402 8.37273 16.1077 5.24023 12.2402 5.24023ZM6.64023 12.2402C6.64023 9.14623 9.14623 6.64023 12.2402 6.64023C13.5352 6.64023 14.7217 7.08473 15.6702 7.81973L7.81973 15.6702C7.08473 14.7217 6.64023 13.5352 6.64023 12.2402ZM12.2402 17.8402C10.9452 17.8402 9.75873 17.3957 8.81023 16.6607L16.6607 8.81023C17.3957 9.75873 17.8402 10.9452 17.8402 12.2402C17.8402 15.3342 15.3342 17.8402 12.2402 17.8402Z" fill="white"/>
</g>
</g>
</g>
<defs>
<clipPath id="clip0_4605_3903">
<rect width="24" height="24" fill="white"/>
</clipPath>
<clipPath id="clip1_4605_3903">
<rect width="24" height="24" fill="white"/>
</clipPath>
<clipPath id="clip2_4605_3903">
<rect width="16.8" height="16.8" fill="white" transform="translate(3.83984 3.83984)"/>
</clipPath>
</defs>
</svg>
