<svg width="20" height="18" viewBox="0 0 20 18" fill="none" xmlns="http://www.w3.org/2000/svg">
<g clip-path="url(#clip0_10854_1359)">
<path fill-rule="evenodd" clip-rule="evenodd" d="M7.68132 4.01964C8.04269 4.01964 8.10935 4.23278 8.10935 4.45017V7.62597C8.10935 7.92226 8.01011 8.09369 7.68132 8.09369C6.93106 8.09369 6.72571 7.82431 6.72571 6.83836V5.27526C6.72541 4.28902 6.93106 4.01964 7.68132 4.01964ZM10.7935 3.36295C10.7935 3.36295 14.1592 3.37111 14.1655 3.37111C14.2414 3.37111 14.372 3.46393 14.4459 3.61208C14.5266 3.77746 14.5266 3.98063 14.4459 4.1442C14.4049 4.22795 14.3386 4.28479 14.2761 4.33921C14.164 4.43596 14.1903 4.59439 14.3556 4.62039C14.5302 4.647 14.6981 4.73196 14.7881 4.91094C14.8832 5.1005 14.8832 5.33301 14.7881 5.52107C14.6963 5.70187 14.5314 5.81403 14.3556 5.81403C14.2716 5.81403 14.2044 5.88145 14.2044 5.9652C14.2044 6.04834 14.2716 6.11759 14.3556 6.11759C14.5314 6.11759 14.6967 6.22793 14.7881 6.40753C14.8832 6.59831 14.8832 6.83141 14.7881 7.01856C14.6963 7.19997 14.5314 7.31093 14.3539 7.31093C14.2716 7.31093 14.2044 7.37895 14.2044 7.4621C14.2044 7.54585 14.2716 7.61327 14.3539 7.61327C14.5314 7.61327 14.6963 7.72544 14.7881 7.90503C14.8832 8.0958 14.8832 8.32893 14.7881 8.51785C14.6963 8.69744 14.5314 8.80846 14.3539 8.80846H12.2115C11.8164 8.80846 11.808 9.16642 11.7931 9.43552C11.7803 9.66706 11.7883 10.0798 11.8989 10.3863C12.0905 10.9249 11.9969 11.3206 11.8663 11.5473C11.5832 12.0462 11.0958 11.9785 10.9397 11.3738C10.7003 10.4468 10.0588 9.6057 9.54982 9.10988C9.31336 8.87825 9.09663 8.66937 8.97824 8.47677C8.87547 8.31019 8.88202 8.17441 8.88202 7.98364V4.20194C8.88202 4.13574 8.91458 4.01661 9.09695 3.98214C9.40066 3.9238 9.59375 3.76295 9.78177 3.6148C10.0771 3.38018 10.3837 3.36295 10.7935 3.36295ZM4.72483 0C3.42936 0 2.38498 1.05638 2.38498 2.36673V5.09385H1.93483C1.37617 5.09385 0.879382 5.23444 0.523087 5.57095C0.167986 5.90806 0 6.41176 0 6.9853V13.9292C0 14.5042 0.168284 15.0064 0.523087 15.3435C0.879087 15.6825 1.37617 15.8243 1.93483 15.8243H3.58061V17.0886C3.58061 17.5298 3.90761 17.8904 4.2935 17.9778C4.67999 18.0646 5.13134 17.8947 5.41799 17.4995L6.63066 15.8243H10.5959C11.1313 15.8243 11.1313 15.0116 10.5959 15.0116H6.4277C6.30037 15.0116 6.18199 15.0742 6.10548 15.1787L4.77146 17.0224C4.62948 17.2163 4.38198 17.153 4.38198 16.8464V15.4179C4.38198 15.1924 4.20144 15.0116 3.98025 15.0116H1.93453C1.50649 15.0116 1.23568 14.9094 1.07039 14.753C0.906881 14.5977 0.802865 14.3552 0.802865 13.9292V6.985C0.802865 6.55931 0.906881 6.31834 1.07039 6.16112C1.23568 6.00511 1.50649 5.90262 1.93453 5.90262H2.38468V11.473C2.38468 12.7833 3.42907 13.8397 4.72453 13.8397H10.9065L12.8016 16.2584C13.3725 16.9889 14.1168 16.6989 14.1168 16.031V13.8397H16.8602C18.155 13.8397 19.2 12.7833 19.2 11.473V2.36673C19.2 1.05638 18.155 0 16.8602 0H4.72483Z" fill="#7C7C7C"/>
</g>
<defs>
<clipPath id="clip0_10854_1359">
<rect width="19.6364" height="18" fill="white"/>
</clipPath>
</defs>
</svg>
