<svg width="21" height="18" viewBox="0 0 21 18" fill="none" xmlns="http://www.w3.org/2000/svg">
<g clip-path="url(#clip0_10854_1362)">
<path d="M19.5703 2.45138L19.8845 1.881C20.0159 1.64272 20.0468 1.36785 19.9709 1.10611C19.8949 0.845313 19.7222 0.628595 19.4849 0.497252L18.8122 0.126686C18.574 -0.00465216 18.2991 -0.034672 18.0373 0.0403778C17.7766 0.116367 17.5598 0.288991 17.4285 0.527253L17.1143 1.09763L19.5703 2.45138Z" fill="#7C7C7C"/>
<path d="M16.1091 10.2957L14.3539 11.0875C14.1926 11.1606 14.019 11.1982 13.8398 11.1982C13.8398 11.1982 13.7939 11.1973 13.777 11.1963C13.5875 11.186 13.4008 11.1334 13.2356 11.0425C12.8923 10.853 12.655 10.5096 12.6006 10.1222L12.4439 9.00674H3.00179C2.72599 9.00674 2.50178 8.78346 2.50178 8.50667C2.50178 8.22996 2.72599 8.0067 3.00179 8.0067H12.3221C12.3278 7.81157 12.3784 7.62112 12.4751 7.4457L12.9939 6.5057L3.00202 6.50476C2.72621 6.50476 2.502 6.28149 2.502 6.00475C2.502 5.72801 2.72621 5.50474 3.00202 5.50474H13.509C13.5202 5.50474 13.5296 5.51037 13.5409 5.5113L15.1788 2.54125C14.828 2.35457 14.434 2.2373 14.01 2.2373H2.50198C1.12294 2.2373 0 3.35931 0 4.73929V12.4677C0 13.8467 1.122 14.9696 2.50198 14.9696H5.5424C5.67561 14.9696 5.79945 15.0418 5.86416 15.1591L7.06028 17.2989C7.30512 17.738 7.75261 17.9998 8.25546 17.9998C8.75921 17.9998 9.20479 17.7381 9.45065 17.2989L10.6468 15.1591C10.7115 15.0428 10.8353 14.9706 10.9685 14.9706H14.0089C15.388 14.9706 16.5109 13.8485 16.5109 12.4686V9.99756C16.3974 10.1214 16.2629 10.2263 16.1091 10.2957ZM9.5067 11.5087H3.00267C2.72688 11.5087 2.50266 11.2854 2.50266 11.0087C2.50266 10.732 2.72687 10.5087 3.00267 10.5087H9.5067C9.78251 10.5087 10.0067 10.732 10.0067 11.0087C10.0067 11.2854 9.78251 11.5087 9.5067 11.5087Z" fill="#7C7C7C"/>
<path d="M16.633 1.97461L13.3524 7.92504C13.3262 7.97288 13.3168 8.02729 13.3233 8.08077L13.5907 9.98232C13.602 10.0602 13.6488 10.1287 13.7173 10.1662C13.7511 10.185 13.7877 10.1953 13.8252 10.1972C13.8646 10.1991 13.904 10.1915 13.9406 10.1756L15.6911 9.3866C15.7409 9.36508 15.7812 9.32663 15.8075 9.27966L19.088 3.32926L16.6319 1.97555L16.633 1.97461Z" fill="#7C7C7C"/>
</g>
<defs>
<clipPath id="clip0_10854_1362">
<rect width="20.4545" height="18" fill="white"/>
</clipPath>
</defs>
</svg>
