<svg width="21" height="18" viewBox="0 0 21 18" fill="none" xmlns="http://www.w3.org/2000/svg">
<g clip-path="url(#clip0_10873_4599)">
<path d="M19.8984 2.45138L20.2127 1.881C20.344 1.64272 20.3749 1.36785 20.299 1.10611C20.223 0.845313 20.0503 0.628595 19.813 0.497252L19.1404 0.126686C18.9021 -0.00465216 18.6273 -0.034672 18.3655 0.0403778C18.1047 0.116367 17.888 0.288991 17.7566 0.527253L17.4424 1.09763L19.8984 2.45138Z" fill="white"/>
<path d="M16.4372 10.2957L14.6821 11.0875C14.5207 11.1606 14.3471 11.1982 14.1679 11.1982C14.1679 11.1982 14.122 11.1973 14.1051 11.1963C13.9156 11.186 13.7289 11.1334 13.5638 11.0425C13.2205 10.853 12.9831 10.5096 12.9287 10.1222L12.772 9.00674H3.32992C3.05412 9.00674 2.8299 8.78346 2.8299 8.50667C2.8299 8.22996 3.05412 8.0067 3.32992 8.0067H12.6503C12.6559 7.81157 12.7066 7.62112 12.8032 7.4457L13.322 6.5057L3.33014 6.50476C3.05434 6.50476 2.83013 6.28149 2.83013 6.00475C2.83013 5.72801 3.05434 5.50474 3.33014 5.50474H13.8371C13.8483 5.50474 13.8577 5.51037 13.869 5.5113L15.507 2.54125C15.1561 2.35457 14.7621 2.2373 14.3381 2.2373H2.83011C1.45106 2.2373 0.328125 3.35931 0.328125 4.73929V12.4677C0.328125 13.8467 1.45012 14.9696 2.83011 14.9696H5.87052C6.00374 14.9696 6.12757 15.0418 6.19229 15.1591L7.3884 17.2989C7.63325 17.738 8.08073 17.9998 8.58358 17.9998C9.08733 17.9998 9.53292 17.7381 9.77878 17.2989L10.9749 15.1591C11.0396 15.0428 11.1635 14.9706 11.2967 14.9706H14.337C15.7161 14.9706 16.839 13.8485 16.839 12.4686V9.99756C16.7256 10.1214 16.591 10.2263 16.4372 10.2957ZM9.83483 11.5087H3.3308C3.055 11.5087 2.83079 11.2854 2.83079 11.0087C2.83079 10.732 3.05499 10.5087 3.3308 10.5087H9.83483C10.1106 10.5087 10.3348 10.732 10.3348 11.0087C10.3348 11.2854 10.1106 11.5087 9.83483 11.5087Z" fill="white"/>
<path d="M16.9611 1.97461L13.6805 7.92504C13.6543 7.97288 13.6449 8.02729 13.6514 8.08077L13.9188 9.98232C13.9301 10.0602 13.977 10.1287 14.0455 10.1662C14.0792 10.185 14.1158 10.1953 14.1534 10.1972C14.1927 10.1991 14.2322 10.1915 14.2687 10.1756L16.0192 9.3866C16.069 9.36508 16.1093 9.32663 16.1356 9.27966L19.4162 3.32926L16.9601 1.97555L16.9611 1.97461Z" fill="white"/>
</g>
<defs>
<clipPath id="clip0_10873_4599">
<rect width="20.4545" height="18" fill="white" transform="translate(0.328125)"/>
</clipPath>
</defs>
</svg>
