<svg width="20" height="18" viewBox="0 0 20 18" fill="none" xmlns="http://www.w3.org/2000/svg">
<g clip-path="url(#clip0_10873_4594)">
<path fill-rule="evenodd" clip-rule="evenodd" d="M8.00944 4.01964C8.37082 4.01964 8.43748 4.23278 8.43748 4.45017V7.62597C8.43748 7.92226 8.33824 8.09369 8.00944 8.09369C7.25919 8.09369 7.05383 7.82431 7.05383 6.83836V5.27526C7.05354 4.28902 7.25919 4.01964 8.00944 4.01964ZM11.1217 3.36295C11.1217 3.36295 14.4873 3.37111 14.4936 3.37111C14.5696 3.37111 14.7001 3.46393 14.774 3.61208C14.8547 3.77746 14.8547 3.98064 14.774 4.1442C14.733 4.22795 14.6667 4.28479 14.6043 4.33921C14.4922 4.43596 14.5184 4.59439 14.6837 4.62039C14.8583 4.64699 15.0263 4.73196 15.1163 4.91094C15.2113 5.10051 15.2113 5.33301 15.1163 5.52107C15.0245 5.70187 14.8595 5.81403 14.6837 5.81403C14.5998 5.81403 14.5325 5.88145 14.5325 5.9652C14.5325 6.04834 14.5998 6.11759 14.6837 6.11759C14.8595 6.11759 15.0248 6.22793 15.1163 6.40753C15.2113 6.59831 15.2113 6.83141 15.1163 7.01856C15.0245 7.19997 14.8595 7.31093 14.682 7.31093C14.5998 7.31093 14.5325 7.37895 14.5325 7.4621C14.5325 7.54585 14.5998 7.61327 14.682 7.61327C14.8595 7.61327 15.0245 7.72544 15.1163 7.90503C15.2113 8.0958 15.2113 8.32893 15.1163 8.51785C15.0245 8.69744 14.8595 8.80846 14.682 8.80846H12.5397C12.1446 8.80846 12.1361 9.16642 12.1212 9.43552C12.1084 9.66706 12.1164 10.0798 12.227 10.3863C12.4186 10.9249 12.325 11.3206 12.1945 11.5473C11.9114 12.0462 11.4239 11.9785 11.2678 11.3738C11.0284 10.4468 10.3869 9.6057 9.87794 9.10988C9.64149 8.87826 9.42475 8.66937 9.30636 8.47677C9.2036 8.31019 9.21014 8.17441 9.21014 7.98364V4.20194C9.21014 4.13574 9.24271 4.01661 9.42508 3.98214C9.72879 3.9238 9.92188 3.76295 10.1099 3.6148C10.4052 3.38018 10.7118 3.36295 11.1217 3.36295ZM5.05295 0C3.75748 0 2.71311 1.05638 2.71311 2.36673V5.09385H2.26295C1.70429 5.09385 1.20751 5.23444 0.851212 5.57095C0.496111 5.90806 0.328125 6.41176 0.328125 6.9853V13.9292C0.328125 14.5042 0.496409 15.0064 0.851212 15.3435C1.20721 15.6825 1.70429 15.8243 2.26295 15.8243H3.90873V17.0886C3.90873 17.5298 4.23574 17.8904 4.62162 17.9778C5.00812 18.0646 5.45947 17.8947 5.74612 17.4995L6.95879 15.8243H10.9241C11.4594 15.8243 11.4594 15.0116 10.9241 15.0116H6.75583C6.62849 15.0116 6.51012 15.0742 6.4336 15.1787L5.09958 17.0224C4.9576 17.2163 4.7101 17.153 4.7101 16.8464V15.4179C4.7101 15.1924 4.52956 15.0116 4.30837 15.0116H2.26265C1.83462 15.0116 1.56381 14.9094 1.39851 14.753C1.23501 14.5977 1.13099 14.3552 1.13099 13.9292V6.985C1.13099 6.55931 1.23501 6.31834 1.39851 6.16112C1.56381 6.00511 1.83462 5.90262 2.26265 5.90262H2.71281V11.473C2.71281 12.7833 3.75719 13.8397 5.05265 13.8397H11.2347L13.1297 16.2584C13.7007 16.9889 14.445 16.6989 14.445 16.031V13.8397H17.1883C18.4832 13.8397 19.5282 12.7833 19.5282 11.473V2.36673C19.5282 1.05638 18.4832 0 17.1883 0H5.05295Z" fill="white"/>
</g>
<defs>
<clipPath id="clip0_10873_4594">
<rect width="19.6364" height="18" fill="white" transform="translate(0.328125)"/>
</clipPath>
</defs>
</svg>
