<svg width="19" height="18" viewBox="0 0 19 18" fill="none" xmlns="http://www.w3.org/2000/svg">
<path d="M9.20795 0C7.45168 0 5.73486 0.527841 4.27458 1.51677C2.81431 2.50571 1.67616 3.91131 1.00406 5.55585C0.331972 7.20038 0.156122 9.00998 0.498752 10.7558C0.841382 12.5016 1.6871 14.1053 2.92897 15.364C4.17083 16.6226 5.75306 17.4798 7.47558 17.8271C9.1981 18.1743 10.9835 17.9961 12.6061 17.3149C14.2287 16.6337 15.6155 15.4802 16.5912 14.0001C17.567 12.5201 18.0878 10.78 18.0878 9C18.0878 7.8181 17.8581 6.64778 17.4118 5.55585C16.9656 4.46392 16.3115 3.47177 15.4869 2.63604C14.6624 1.80031 13.6835 1.13738 12.6061 0.685084C11.5288 0.232792 10.3741 0 9.20795 0ZM9.20795 16.2C7.80294 16.2 6.42948 15.7777 5.26126 14.9866C4.09303 14.1954 3.18252 13.0709 2.64484 11.7553C2.10717 10.4397 1.96649 8.99201 2.24059 7.59535C2.51469 6.19868 3.19127 4.91577 4.18476 3.90883C5.17825 2.90189 6.44404 2.21616 7.82205 1.93835C9.20007 1.66053 10.6284 1.80312 11.9265 2.34807C13.2245 2.89302 14.334 3.81586 15.1146 4.99989C15.8952 6.18393 16.3118 7.57597 16.3118 9C16.3118 10.9096 15.5634 12.7409 14.2311 14.0912C12.8989 15.4414 11.092 16.2 9.20795 16.2Z" fill="white"/>
<path d="M8.91751 3.60065C8.09323 3.60065 7.30272 3.93252 6.71986 4.52326C6.13701 5.114 5.80957 5.91521 5.80957 6.75065C5.80957 6.98934 5.90313 7.21826 6.06965 7.38704C6.23618 7.55582 6.46204 7.65065 6.69755 7.65065C6.93306 7.65065 7.15892 7.55582 7.32545 7.38704C7.49198 7.21826 7.58553 6.98934 7.58553 6.75065C7.58553 6.48364 7.66365 6.22263 7.81001 6.00063C7.95637 5.77862 8.1644 5.60559 8.40778 5.50341C8.65117 5.40123 8.91898 5.3745 9.17736 5.42659C9.43574 5.47868 9.67307 5.60725 9.85935 5.79605C10.0456 5.98485 10.1725 6.2254 10.2239 6.48727C10.2753 6.74915 10.2489 7.02059 10.1481 7.26727C10.0473 7.51395 9.87655 7.72479 9.65751 7.87313C9.43847 8.02147 9.18095 8.10065 8.91751 8.10065C8.682 8.10065 8.45614 8.19547 8.28961 8.36425C8.12308 8.53303 8.02952 8.76195 8.02952 9.00065V10.8006C8.02952 11.0393 8.12308 11.2683 8.28961 11.437C8.45614 11.6058 8.682 11.7006 8.91751 11.7006C9.15301 11.7006 9.37888 11.6058 9.5454 11.437C9.71193 11.2683 9.80549 11.0393 9.80549 10.8006V9.75665C10.5231 9.54425 11.1407 9.07612 11.5446 8.43854C11.9485 7.80096 12.1113 7.03691 12.0032 6.2872C11.8951 5.5375 11.5232 4.85269 10.9561 4.35898C10.3891 3.86527 9.66505 3.59594 8.91751 3.60065Z" fill="white"/>
<path d="M9.09794 14.4006C9.58836 14.4006 9.98592 13.9976 9.98592 13.5006C9.98592 13.0035 9.58836 12.6006 9.09794 12.6006C8.60752 12.6006 8.20996 13.0035 8.20996 13.5006C8.20996 13.9976 8.60752 14.4006 9.09794 14.4006Z" fill="white"/>
</svg>
