<svg width="18" height="18" viewBox="0 0 18 18" fill="none" xmlns="http://www.w3.org/2000/svg">
<path d="M8.87982 0C7.12356 0 5.40674 0.527841 3.94646 1.51677C2.48618 2.50571 1.34803 3.91131 0.67594 5.55585C0.00384748 7.20038 -0.172003 9.00998 0.170627 10.7558C0.513257 12.5016 1.35898 14.1053 2.60084 15.364C3.84271 16.6226 5.42494 17.4798 7.14746 17.8271C8.86997 18.1743 10.6554 17.9961 12.278 17.3149C13.9006 16.6337 15.2874 15.4802 16.2631 14.0001C17.2388 12.5201 17.7596 10.78 17.7596 9C17.7596 7.8181 17.53 6.64778 17.0837 5.55585C16.6374 4.46392 15.9834 3.47177 15.1588 2.63604C14.3342 1.80031 13.3553 1.13738 12.278 0.685084C11.2006 0.232792 10.0459 0 8.87982 0ZM8.87982 16.2C7.47481 16.2 6.10135 15.7777 4.93313 14.9866C3.76491 14.1954 2.85439 13.0709 2.31672 11.7553C1.77904 10.4397 1.63836 8.99201 1.91247 7.59535C2.18657 6.19868 2.86315 4.91577 3.85664 3.90883C4.85013 2.90189 6.11592 2.21616 7.49393 1.93835C8.87194 1.66053 10.3003 1.80312 11.5983 2.34807C12.8964 2.89302 14.0059 3.81586 14.7865 4.99989C15.567 6.18393 15.9837 7.57597 15.9837 9C15.9837 10.9096 15.2352 12.7409 13.903 14.0912C12.5708 15.4414 10.7639 16.2 8.87982 16.2Z" fill="#7C7C7C"/>
<path d="M8.58938 3.60065C7.76511 3.60065 6.97459 3.93252 6.39174 4.52326C5.80889 5.114 5.48145 5.91521 5.48145 6.75065C5.48145 6.98934 5.575 7.21826 5.74153 7.38704C5.90806 7.55582 6.13392 7.65065 6.36943 7.65065C6.60493 7.65065 6.8308 7.55582 6.99732 7.38704C7.16385 7.21826 7.25741 6.98934 7.25741 6.75065C7.25741 6.48364 7.33553 6.22263 7.48189 6.00063C7.62825 5.77862 7.83627 5.60559 8.07966 5.50341C8.32304 5.40123 8.59086 5.3745 8.84924 5.42659C9.10761 5.47868 9.34495 5.60725 9.53123 5.79605C9.71751 5.98485 9.84437 6.2254 9.89576 6.48727C9.94716 6.74915 9.92078 7.02059 9.81996 7.26727C9.71915 7.51395 9.54843 7.72479 9.32939 7.87313C9.11034 8.02147 8.85282 8.10065 8.58938 8.10065C8.35387 8.10065 8.12801 8.19547 7.96148 8.36425C7.79496 8.53303 7.7014 8.76195 7.7014 9.00065V10.8006C7.7014 11.0393 7.79496 11.2683 7.96148 11.437C8.12801 11.6058 8.35387 11.7006 8.58938 11.7006C8.82489 11.7006 9.05075 11.6058 9.21728 11.437C9.38381 11.2683 9.47736 11.0393 9.47736 10.8006V9.75665C10.1949 9.54425 10.8126 9.07612 11.2165 8.43854C11.6203 7.80096 11.7832 7.03691 11.6751 6.2872C11.5669 5.5375 11.1951 4.85269 10.628 4.35898C10.0609 3.86527 9.33692 3.59594 8.58938 3.60065Z" fill="#7C7C7C"/>
<path d="M8.76982 14.4006C9.26024 14.4006 9.6578 13.9976 9.6578 13.5006C9.6578 13.0035 9.26024 12.6006 8.76982 12.6006C8.2794 12.6006 7.88184 13.0035 7.88184 13.5006C7.88184 13.9976 8.2794 14.4006 8.76982 14.4006Z" fill="#7C7C7C"/>
</svg>
