<svg width="16" height="18" viewBox="0 0 16 18" fill="none" xmlns="http://www.w3.org/2000/svg">
<g clip-path="url(#clip0_10873_4560)">
<mask id="mask0_10873_4560" style="mask-type:luminance" maskUnits="userSpaceOnUse" x="0" y="-1" width="15" height="19">
<path d="M14.9332 -0.000976562H0.327148V17.999H14.9332V-0.000976562Z" fill="white"/>
</mask>
<g mask="url(#mask0_10873_4560)">
<path d="M0.336881 10.0738C0.336881 7.5278 0.335264 4.98189 0.332031 2.43614C0.332031 2.2373 0.385916 2.16213 0.611156 2.16552C1.47331 2.17766 2.33547 2.14759 3.19764 2.18298C3.37815 2.19026 3.43419 2.24991 3.42988 2.39977C3.42413 2.63384 3.42413 2.86808 3.42988 3.10249C3.43419 3.27562 3.35929 3.34933 3.16046 3.34497C2.79242 3.33526 2.42385 3.33867 2.05581 3.34497C1.75567 3.34933 1.63012 3.46233 1.62042 3.72809C1.61449 3.88958 1.62042 4.05156 1.62042 4.21305V16.2887C1.62042 16.7683 1.69747 16.8406 2.22124 16.8411C5.8495 16.8411 9.47777 16.8411 13.106 16.8411C13.557 16.8411 13.6513 16.7533 13.6513 16.3377C13.6513 12.1919 13.6513 8.04574 13.6513 3.89928C13.6513 3.4051 13.5829 3.34545 13.0273 3.34448C12.7132 3.34448 12.3985 3.33818 12.0844 3.34448C11.9092 3.34836 11.8397 3.27901 11.8408 3.12915C11.8408 2.87843 11.844 2.6277 11.8408 2.37746C11.8381 2.24846 11.892 2.18784 12.0434 2.18347C12.9497 2.15049 13.8566 2.17377 14.7635 2.17232C14.8848 2.17232 14.9408 2.22615 14.9343 2.33914C14.9279 2.46039 14.9343 2.58163 14.9343 2.70287C14.9343 7.70578 14.9363 12.7087 14.9403 17.7116C14.9403 17.9478 14.8772 18.0026 14.617 18.0026C9.95627 17.9942 5.29556 17.9942 0.634866 18.0026C0.396693 18.0026 0.334725 17.9565 0.335264 17.7407C0.343886 15.1868 0.340653 12.6325 0.340653 10.0783L0.336881 10.0738Z" fill="white"/>
<path d="M7.63482 4.36041C6.57615 4.36041 5.51731 4.36041 4.45829 4.36041C3.87471 4.36041 3.66887 4.19504 3.65863 3.67807C3.64355 2.9351 3.65325 2.19116 3.64355 1.44917C3.64355 1.24111 3.73407 1.16885 3.96686 1.17322C4.55959 1.18485 5.15233 1.17322 5.74507 1.17952C5.91534 1.17952 6.00533 1.13442 6.04952 0.978259C6.1977 0.449163 6.62339 0.166427 7.17787 0.0480954C8.12625 -0.154135 9.0854 0.287669 9.23197 1.02433C9.26215 1.17468 9.38554 1.17807 9.51864 1.17758C10.1195 1.17758 10.7208 1.18388 11.3221 1.17322C11.5479 1.16934 11.6201 1.24839 11.6185 1.44286C11.612 2.20183 11.6185 2.96128 11.6142 3.7222C11.6099 4.15091 11.3722 4.35944 10.8932 4.3609C9.80639 4.36284 8.7206 4.36041 7.63482 4.36041Z" fill="white"/>
<path d="M7.60896 7.21902H3.72923C3.30731 7.21902 3.30731 7.21902 3.30677 6.82814C3.30677 6.63415 3.31108 6.44016 3.30677 6.24618C3.303 6.10068 3.38005 6.03958 3.53416 6.04104C3.59667 6.04104 3.65972 6.04104 3.72276 6.04104H11.5361C11.9585 6.04104 11.9585 6.04104 11.9591 6.41107C11.9591 6.58905 11.9472 6.76751 11.9591 6.94453C11.9763 7.15646 11.8836 7.22581 11.6487 7.22435C10.3027 7.21515 8.95554 7.21902 7.60896 7.21902Z" fill="white"/>
<path d="M7.63679 9.98125H3.78508C3.30873 9.98125 3.30873 9.98126 3.30873 9.54035C3.30873 9.36241 3.31305 9.18493 3.30873 9.00691C3.30496 8.86143 3.37986 8.79935 3.53559 8.80081C3.5981 8.80081 3.66114 8.80081 3.72365 8.80081H11.537C11.9594 8.80081 11.9594 8.80081 11.9594 9.17081C11.9594 9.34055 11.9465 9.51029 11.9621 9.67958C11.9837 9.91142 11.8851 9.98899 11.6253 9.98701C10.3774 9.97729 9.1294 9.98269 7.88143 9.98269L7.63679 9.98125Z" fill="white"/>
<path d="M7.63772 11.5606C8.95755 11.5606 10.2774 11.5606 11.5972 11.5606C11.949 11.5606 11.9566 11.5693 11.9577 11.8889C11.9577 12.0668 11.9577 12.2444 11.9577 12.4223C11.9577 12.7356 11.9501 12.7405 11.5891 12.7424H3.69602C3.30967 12.7424 3.30967 12.7424 3.30859 12.3898C3.30859 12.2282 3.30859 12.0665 3.30859 11.9049C3.30859 11.561 3.30859 11.56 3.70518 11.5596L7.63772 11.5606Z" fill="white"/>
<path d="M7.60535 15.5053C6.29414 15.5053 4.98295 15.5053 3.67174 15.5053C3.3161 15.5053 3.30856 15.4966 3.30694 15.1804C3.30694 14.9704 3.31341 14.7604 3.30694 14.5499C3.30101 14.3816 3.38453 14.3123 3.56505 14.3234C3.60977 14.3258 3.65504 14.3234 3.69976 14.3234H11.5659C11.9565 14.3234 11.9565 14.3234 11.9576 14.6712C11.9576 14.8569 11.9463 15.0436 11.9603 15.2284C11.977 15.4427 11.8768 15.5092 11.6467 15.5083C10.4973 15.5014 9.34799 15.5053 8.19808 15.5053H7.60535Z" fill="white"/>
</g>
</g>
<defs>
<clipPath id="clip0_10873_4560">
<rect width="15" height="18" fill="white" transform="translate(0.328125)"/>
</clipPath>
</defs>
</svg>
