<svg width="15" height="18" viewBox="0 0 15 18" fill="none" xmlns="http://www.w3.org/2000/svg">
<g clip-path="url(#clip0_10843_5026)">
<mask id="mask0_10843_5026" style="mask-type:luminance" maskUnits="userSpaceOnUse" x="-1" y="-1" width="16" height="19">
<path d="M14.6051 -0.000976562H-0.000976562V17.999H14.6051V-0.000976562Z" fill="white"/>
</mask>
<g mask="url(#mask0_10843_5026)">
<path d="M0.00875592 10.0738C0.00875592 7.5278 0.00713936 4.98189 0.00390625 2.43614C0.00390625 2.2373 0.0577913 2.16213 0.283031 2.16552C1.14519 2.17766 2.00735 2.14759 2.86952 2.18298C3.05003 2.19026 3.10607 2.24991 3.10176 2.39977C3.09601 2.63384 3.09601 2.86808 3.10176 3.10249C3.10607 3.27562 3.03117 3.34933 2.83234 3.34497C2.4643 3.33526 2.09573 3.33867 1.72769 3.34497C1.42755 3.34933 1.302 3.46233 1.2923 3.72809C1.28637 3.88958 1.2923 4.05156 1.2923 4.21305V16.2887C1.2923 16.7683 1.36935 16.8406 1.89312 16.8411C5.52138 16.8411 9.14965 16.8411 12.7779 16.8411C13.2289 16.8411 13.3232 16.7533 13.3232 16.3377C13.3232 12.1919 13.3232 8.04574 13.3232 3.89928C13.3232 3.4051 13.2548 3.34545 12.6992 3.34448C12.3851 3.34448 12.0704 3.33818 11.7563 3.34448C11.5811 3.34836 11.5116 3.27901 11.5127 3.12915C11.5127 2.87843 11.5159 2.6277 11.5127 2.37746C11.51 2.24846 11.5639 2.18784 11.7153 2.18347C12.6216 2.15049 13.5285 2.17377 14.4354 2.17232C14.5567 2.17232 14.6127 2.22615 14.6062 2.33914C14.5998 2.46039 14.6062 2.58163 14.6062 2.70287C14.6062 7.70578 14.6082 12.7087 14.6122 17.7116C14.6122 17.9478 14.5491 18.0026 14.2889 18.0026C9.62815 17.9942 4.96744 17.9942 0.306741 18.0026C0.0685683 18.0026 0.00660048 17.9565 0.00713933 17.7407C0.0157609 15.1868 0.0125279 12.6325 0.0125279 10.0783L0.00875592 10.0738Z" fill="#7C7C7C"/>
<path d="M7.3067 4.36041C6.24803 4.36041 5.18919 4.36041 4.13017 4.36041C3.54659 4.36041 3.34075 4.19504 3.33051 3.67807C3.31543 2.9351 3.32513 2.19116 3.31543 1.44917C3.31543 1.24111 3.40595 1.16885 3.63874 1.17322C4.23147 1.18485 4.82421 1.17322 5.41695 1.17952C5.58722 1.17952 5.67721 1.13442 5.7214 0.978259C5.86958 0.449163 6.29527 0.166427 6.84975 0.0480954C7.79813 -0.154135 8.75728 0.287669 8.90385 1.02433C8.93403 1.17468 9.05742 1.17807 9.19052 1.17758C9.79134 1.17758 10.3927 1.18388 10.994 1.17322C11.2198 1.16934 11.292 1.24839 11.2904 1.44286C11.2839 2.20183 11.2904 2.96128 11.2861 3.7222C11.2818 4.15091 11.0441 4.35944 10.5651 4.3609C9.47827 4.36284 8.39248 4.36041 7.3067 4.36041Z" fill="#7C7C7C"/>
<path d="M7.28084 7.21902H3.40111C2.97919 7.21902 2.97919 7.21902 2.97865 6.82814C2.97865 6.63415 2.98296 6.44016 2.97865 6.24618C2.97488 6.10068 3.05193 6.03958 3.20604 6.04104C3.26855 6.04104 3.3316 6.04104 3.39464 6.04104H11.208C11.6304 6.04104 11.6304 6.04104 11.631 6.41107C11.631 6.58905 11.6191 6.76751 11.631 6.94453C11.6482 7.15646 11.5555 7.22581 11.3206 7.22435C9.97455 7.21515 8.62742 7.21902 7.28084 7.21902Z" fill="#7C7C7C"/>
<path d="M7.30866 9.98125H3.45695C2.9806 9.98125 2.9806 9.98126 2.9806 9.54035C2.9806 9.36242 2.98492 9.18494 2.9806 9.00691C2.97683 8.86143 3.05173 8.79935 3.20746 8.80081C3.26997 8.80081 3.33301 8.80081 3.39552 8.80081H11.2089C11.6313 8.80081 11.6313 8.80081 11.6313 9.17081C11.6313 9.34055 11.6184 9.51029 11.634 9.67958C11.6556 9.91142 11.557 9.98899 11.2972 9.98701C10.0493 9.97729 8.80127 9.98269 7.5533 9.98269L7.30866 9.98125Z" fill="#7C7C7C"/>
<path d="M7.3096 11.5606C8.62943 11.5606 9.94925 11.5606 11.2691 11.5606C11.6209 11.5606 11.6285 11.5693 11.6296 11.8889C11.6296 12.0668 11.6296 12.2444 11.6296 12.4223C11.6296 12.7356 11.622 12.7405 11.261 12.7424H3.3679C2.98155 12.7424 2.98155 12.7424 2.98047 12.3898C2.98047 12.2282 2.98047 12.0665 2.98047 11.9049C2.98047 11.561 2.98047 11.56 3.37706 11.5596L7.3096 11.5606Z" fill="#7C7C7C"/>
<path d="M7.27723 15.5053C5.96602 15.5053 4.65482 15.5053 3.34361 15.5053C2.98797 15.5053 2.98043 15.4966 2.97881 15.1804C2.97881 14.9704 2.98528 14.7604 2.97881 14.5499C2.97288 14.3816 3.0564 14.3123 3.23692 14.3234C3.28164 14.3258 3.32691 14.3234 3.37163 14.3234H11.2378C11.6284 14.3234 11.6284 14.3234 11.6295 14.6712C11.6295 14.8569 11.6182 15.0436 11.6322 15.2284C11.6489 15.4427 11.5487 15.5092 11.3186 15.5083C10.1692 15.5014 9.01987 15.5053 7.86996 15.5053H7.27723Z" fill="#7C7C7C"/>
</g>
</g>
<defs>
<clipPath id="clip0_10843_5026">
<rect width="15" height="18" fill="white"/>
</clipPath>
</defs>
</svg>
