<svg width="19" height="19" viewBox="0 0 19 19" fill="none" xmlns="http://www.w3.org/2000/svg">
<path d="M17.1792 13.9043H15.4558V1.64894C15.4558 1.01537 14.9404 0.5 14.3068 0.5H1.47706C0.843499 0.5 0.328125 1.01537 0.328125 1.64894V16.2021C0.328125 17.47 1.35813 18.5 2.626 18.5H16.0303C17.2981 18.5 18.3281 17.47 18.3281 16.2021V15.0532C18.3281 14.4196 17.8128 13.9043 17.1792 13.9043ZM4.15791 16.2021C4.15791 17.0466 3.4705 17.734 2.626 17.734C1.78149 17.734 1.09408 17.0466 1.09408 16.2021V1.64894C1.09408 1.43799 1.26612 1.26596 1.47706 1.26596H14.3068C14.5178 1.26596 14.6898 1.438 14.6898 1.64894V13.9043H5.30685C4.67329 13.9043 4.15791 14.4196 4.15791 15.0532V16.2021ZM17.5622 16.2021C17.5622 17.0466 16.8748 17.734 16.0303 17.734H4.3381C4.70163 17.3279 4.92379 16.7901 4.92379 16.2021V15.0532C4.92379 14.8422 5.09583 14.6702 5.30677 14.6702H17.1791C17.3901 14.6702 17.5621 14.8423 17.5621 15.0532L17.5622 16.2021Z" fill="white" stroke="white" stroke-width="0.45"/>
<path d="M2.62517 3.75619H13.1571C13.368 3.75619 13.5401 3.58415 13.5401 3.37321C13.5401 3.16228 13.368 2.99023 13.1571 2.99023H2.62517C2.41422 2.99023 2.24219 3.16228 2.24219 3.37321C2.24219 3.58415 2.41423 3.75619 2.62517 3.75619Z" fill="white" stroke="white" stroke-width="0.3"/>
<path d="M2.62517 10.6175H13.1571C13.368 10.6175 13.5401 10.4455 13.5401 10.2345C13.5401 10.0236 13.368 9.85156 13.1571 9.85156H2.62517C2.41422 9.85156 2.24219 10.0236 2.24219 10.2345C2.24219 10.4455 2.41423 10.6175 2.62517 10.6175Z" fill="white" stroke="white" stroke-width="0.3"/>
<path d="M13.5401 12.1818C13.5401 11.9709 13.368 11.7988 13.1571 11.7988H2.62517C2.41422 11.7988 2.24219 11.9709 2.24219 12.1818C2.24219 12.3927 2.41423 12.5648 2.62517 12.5648H13.1571C13.368 12.5648 13.5401 12.3927 13.5401 12.1818Z" fill="white" stroke="white" stroke-width="0.3"/>
<path d="M16.0317 15.8184H6.4572C6.24625 15.8184 6.07422 15.9904 6.07422 16.2013C6.07422 16.4123 6.24626 16.5843 6.4572 16.5843H16.0317C16.2426 16.5843 16.4146 16.4123 16.4146 16.2013C16.4146 15.9904 16.2426 15.8184 16.0317 15.8184Z" fill="white" stroke="white" stroke-width="0.3"/>
<path d="M4.80922 5.8931V8.44629H4.23076L3.30822 7.10487H3.29326V8.44629H2.60011V5.8931H3.18854L4.09612 7.22953H4.11607V5.8931H4.80922ZM5.13709 8.44629V5.8931H6.97719V6.45161H5.83024V6.89044H6.88244V7.44895H5.83024V7.88778H6.9722V8.44629H5.13709ZM7.96923 8.44629L7.21624 5.8931H7.98918L8.33824 7.46391H8.35819L8.77209 5.8931H9.38047L9.79436 7.4689H9.81431L10.1634 5.8931H10.9363L10.1833 8.44629H9.52009L9.08625 7.02009H9.0663L8.63246 8.44629H7.96923ZM12.4959 6.69097C12.4893 6.60786 12.4581 6.54303 12.4024 6.49649C12.3476 6.44995 12.264 6.42667 12.1518 6.42667C12.0803 6.42667 12.0218 6.4354 11.976 6.45285C11.9312 6.46948 11.8979 6.49233 11.8763 6.52142C11.8547 6.55051 11.8435 6.58376 11.8426 6.62116C11.841 6.65191 11.8464 6.67975 11.8589 6.70468C11.8722 6.72879 11.8929 6.75081 11.9212 6.77076C11.9494 6.78987 11.9856 6.80733 12.0297 6.82312C12.0737 6.83891 12.1261 6.85304 12.1867 6.8655L12.3962 6.91038C12.5375 6.9403 12.6584 6.97978 12.759 7.02882C12.8595 7.07785 12.9418 7.13562 13.0058 7.20211C13.0698 7.26777 13.1168 7.34173 13.1467 7.42402C13.1774 7.5063 13.1932 7.59606 13.194 7.6933C13.1932 7.86118 13.1512 8.0033 13.0681 8.11966C12.985 8.23602 12.8662 8.32453 12.7116 8.3852C12.5578 8.44587 12.3729 8.47621 12.1568 8.47621C11.9349 8.47621 11.7413 8.44338 11.5759 8.37772C11.4113 8.31206 11.2833 8.21108 11.1919 8.07478C11.1013 7.93765 11.0556 7.76228 11.0548 7.54868H11.713C11.7172 7.62681 11.7367 7.69247 11.7716 7.74566C11.8065 7.79885 11.8555 7.83916 11.9187 7.86658C11.9827 7.89401 12.0587 7.90773 12.1468 7.90773C12.2208 7.90773 12.2827 7.89858 12.3326 7.8803C12.3825 7.86201 12.4203 7.83666 12.446 7.80425C12.4718 7.77184 12.4851 7.73485 12.4859 7.6933C12.4851 7.65423 12.4722 7.62016 12.4473 7.59107C12.4232 7.56115 12.3833 7.53455 12.3276 7.51128C12.2719 7.48718 12.1967 7.46474 12.102 7.44396L11.8476 7.38911C11.6216 7.34007 11.4433 7.25821 11.3128 7.14351C11.1832 7.02799 11.1187 6.87049 11.1196 6.67102C11.1187 6.50896 11.162 6.36725 11.2492 6.24591C11.3373 6.12373 11.4591 6.02857 11.6145 5.96042C11.7708 5.89227 11.9499 5.85819 12.1518 5.85819C12.3579 5.85819 12.5362 5.89268 12.6866 5.96166C12.8371 6.03065 12.953 6.12789 13.0345 6.25339C13.1168 6.37805 13.1583 6.52392 13.1591 6.69097H12.4959Z" fill="white"/>
</svg>
