<svg width="20" height="19" viewBox="0 0 20 19" fill="none" xmlns="http://www.w3.org/2000/svg">
<path d="M17.8511 13.9043H16.1277V1.64894C16.1277 1.01537 15.6123 0.5 14.9787 0.5H2.14894C1.51537 0.5 1 1.01537 1 1.64894V16.2021C1 17.47 2.03 18.5 3.29787 18.5H16.7021C17.97 18.5 19 17.47 19 16.2021V15.0532C19 14.4196 18.4846 13.9043 17.8511 13.9043ZM4.82979 16.2021C4.82979 17.0466 4.14238 17.734 3.29787 17.734C2.45337 17.734 1.76596 17.0466 1.76596 16.2021V1.64894C1.76596 1.43799 1.938 1.26596 2.14894 1.26596H14.9787C15.1897 1.26596 15.3617 1.438 15.3617 1.64894V13.9043H5.97872C5.34516 13.9043 4.82979 14.4196 4.82979 15.0532V16.2021ZM18.234 16.2021C18.234 17.0466 17.5466 17.734 16.7021 17.734H5.00998C5.3735 17.3279 5.59567 16.7901 5.59567 16.2021V15.0532C5.59567 14.8422 5.76771 14.6702 5.97865 14.6702H17.851C18.0619 14.6702 18.234 14.8423 18.234 15.0532L18.234 16.2021Z" fill="#7C7C7C" stroke="#7C7C7C" stroke-width="0.45"/>
<path d="M3.29704 3.75619H13.829C14.0399 3.75619 14.2119 3.58415 14.2119 3.37321C14.2119 3.16228 14.0399 2.99023 13.829 2.99023H3.29704C3.0861 2.99023 2.91406 3.16228 2.91406 3.37321C2.91406 3.58415 3.0861 3.75619 3.29704 3.75619Z" fill="#7C7C7C" stroke="#7C7C7C" stroke-width="0.3"/>
<path d="M3.29704 10.6175H13.829C14.0399 10.6175 14.2119 10.4455 14.2119 10.2345C14.2119 10.0236 14.0399 9.85156 13.829 9.85156H3.29704C3.0861 9.85156 2.91406 10.0236 2.91406 10.2345C2.91406 10.4455 3.0861 10.6175 3.29704 10.6175Z" fill="#7C7C7C" stroke="#7C7C7C" stroke-width="0.3"/>
<path d="M14.2119 12.1818C14.2119 11.9709 14.0399 11.7988 13.829 11.7988H3.29704C3.0861 11.7988 2.91406 11.9709 2.91406 12.1818C2.91406 12.3927 3.0861 12.5648 3.29704 12.5648H13.829C14.0399 12.5648 14.2119 12.3927 14.2119 12.1818Z" fill="#7C7C7C" stroke="#7C7C7C" stroke-width="0.3"/>
<path d="M16.7035 15.8184H7.12907C6.91813 15.8184 6.74609 15.9904 6.74609 16.2013C6.74609 16.4123 6.91814 16.5843 7.12907 16.5843H16.7035C16.9145 16.5843 17.0865 16.4123 17.0865 16.2013C17.0865 15.9904 16.9145 15.8184 16.7035 15.8184Z" fill="#7C7C7C" stroke="#7C7C7C" stroke-width="0.3"/>
<path d="M5.48109 5.8931V8.44629H4.90263L3.98009 7.10487H3.96513V8.44629H3.27198V5.8931H3.86041L4.76799 7.22953H4.78794V5.8931H5.48109ZM5.80897 8.44629V5.8931H7.64906V6.45161H6.50212V6.89044H7.55431V7.44895H6.50212V7.88778H7.64407V8.44629H5.80897ZM8.6411 8.44629L7.88811 5.8931H8.66105L9.01012 7.46391H9.03007L9.44396 5.8931H10.0523L10.4662 7.4689H10.4862L10.8353 5.8931H11.6082L10.8552 8.44629H10.192L9.75812 7.02009H9.73818L9.30433 8.44629H8.6411ZM13.1678 6.69097C13.1611 6.60786 13.13 6.54303 13.0743 6.49649C13.0194 6.44995 12.9359 6.42667 12.8237 6.42667C12.7522 6.42667 12.6936 6.4354 12.6479 6.45285C12.603 6.46948 12.5698 6.49233 12.5482 6.52142C12.5266 6.55051 12.5154 6.58376 12.5145 6.62116C12.5129 6.65191 12.5183 6.67975 12.5307 6.70468C12.544 6.72879 12.5648 6.75081 12.5931 6.77076C12.6213 6.78987 12.6575 6.80733 12.7015 6.82312C12.7456 6.83891 12.7979 6.85304 12.8586 6.8655L13.068 6.91038C13.2093 6.9403 13.3303 6.97978 13.4308 7.02882C13.5314 7.07785 13.6137 7.13562 13.6777 7.20211C13.7417 7.26777 13.7886 7.34173 13.8185 7.42402C13.8493 7.5063 13.8651 7.59606 13.8659 7.6933C13.8651 7.86118 13.8231 8.0033 13.74 8.11966C13.6569 8.23602 13.538 8.32453 13.3835 8.3852C13.2297 8.44587 13.0448 8.47621 12.8287 8.47621C12.6068 8.47621 12.4131 8.44338 12.2477 8.37772C12.0832 8.31206 11.9552 8.21108 11.8638 8.07478C11.7732 7.93765 11.7275 7.76228 11.7266 7.54868H12.3849C12.389 7.62681 12.4086 7.69247 12.4435 7.74566C12.4784 7.79885 12.5274 7.83916 12.5906 7.86658C12.6546 7.89401 12.7306 7.90773 12.8187 7.90773C12.8927 7.90773 12.9546 7.89858 13.0045 7.8803C13.0543 7.86201 13.0922 7.83666 13.1179 7.80425C13.1437 7.77184 13.157 7.73485 13.1578 7.6933C13.157 7.65423 13.1441 7.62016 13.1192 7.59107C13.0951 7.56115 13.0552 7.53455 12.9995 7.51128C12.9438 7.48718 12.8686 7.46474 12.7738 7.44396L12.5195 7.38911C12.2934 7.34007 12.1152 7.25821 11.9847 7.14351C11.855 7.02799 11.7906 6.87049 11.7915 6.67102C11.7906 6.50896 11.8338 6.36725 11.9211 6.24591C12.0092 6.12373 12.131 6.02857 12.2864 5.96042C12.4426 5.89227 12.6217 5.85819 12.8237 5.85819C13.0298 5.85819 13.2081 5.89268 13.3585 5.96166C13.509 6.03065 13.6249 6.12789 13.7063 6.25339C13.7886 6.37805 13.8302 6.52392 13.831 6.69097H13.1678Z" fill="#7C7C7C"/>
</svg>
