<svg width="20" height="18" viewBox="0 0 20 18" fill="none" xmlns="http://www.w3.org/2000/svg">
<g clip-path="url(#clip0_10873_4643)">
<path d="M10.3812 7.60483L9.32826 9.15282C9.21942 9.31842 9.059 9.44343 8.87186 9.5085C8.68472 9.57357 8.48134 9.5751 8.29325 9.51282H8.20325C7.63995 9.32508 7.03047 9.32832 6.46916 9.52191C5.90785 9.7155 5.42601 10.0887 5.09824 10.5838L4.08123 12.1048C3.95098 12.3033 3.90437 12.5451 3.95157 12.7777C3.99877 13.0103 4.13594 13.2149 4.33324 13.3468C4.47818 13.4483 4.6513 13.5019 4.82824 13.4998C4.97647 13.4991 5.12223 13.4617 5.25255 13.3911C5.38287 13.3204 5.49371 13.2187 5.57524 13.0948L6.62824 11.5468C6.73708 11.3813 6.8975 11.2562 7.08464 11.1911C7.27178 11.1261 7.47516 11.1245 7.66325 11.1868H7.75325C8.31655 11.3746 8.92603 11.3714 9.48735 11.1778C10.0487 10.9841 10.5305 10.6109 10.8582 10.1158L11.8932 8.55883C11.9993 8.36122 12.0277 8.13116 11.973 7.91369C11.9182 7.69623 11.7842 7.50703 11.5973 7.38317C11.4104 7.2593 11.1839 7.20967 10.9624 7.24402C10.7407 7.27836 10.5399 7.39419 10.3992 7.56883L10.3812 7.60483Z" fill="white"/>
<path d="M14.7282 7.19996C15.361 7.20377 15.9837 7.04068 16.5334 6.72715C17.0832 6.41362 17.5404 5.96071 17.8594 5.41408C18.1783 4.86745 18.3475 4.24642 18.3498 3.61357C18.3522 2.98073 18.1877 2.35844 17.873 1.80942C17.5582 1.2604 17.1042 0.804069 16.5569 0.486402C16.0095 0.168735 15.3882 0.000965718 14.7553 4.15672e-06C14.1224 -0.000957402 13.5005 0.164922 12.9522 0.480925C12.4039 0.796927 11.9486 1.25188 11.6321 1.79994H3.92813C2.97335 1.79994 2.05768 2.17922 1.38255 2.85436C0.707411 3.52949 0.328125 4.44517 0.328125 5.39995V14.4C0.328125 15.3548 0.707411 16.2705 1.38255 16.9456C2.05768 17.6207 2.97335 18 3.92813 18H12.9281C13.8829 18 14.7986 17.6207 15.4738 16.9456C16.1489 16.2705 16.5282 15.3548 16.5282 14.4V8.99996C16.5282 8.76127 16.4334 8.53235 16.2646 8.36356C16.0958 8.19479 15.8669 8.09996 15.6282 8.09996C15.3894 8.09996 15.1606 8.19479 14.9918 8.36356C14.823 8.53235 14.7282 8.76127 14.7282 8.99996V14.4C14.7282 14.8774 14.5385 15.3352 14.201 15.6728C13.8634 16.0104 13.4056 16.2 12.9281 16.2H3.92813C3.45075 16.2 2.99291 16.0104 2.65534 15.6728C2.31777 15.3352 2.12813 14.8774 2.12813 14.4V5.39995C2.12813 4.92256 2.31777 4.46472 2.65534 4.12716C2.99291 3.78959 3.45075 3.59995 3.92813 3.59995H11.1281C11.1281 4.55473 11.5075 5.47041 12.1826 6.14554C12.8577 6.82068 13.7734 7.19996 14.7282 7.19996ZM14.7282 1.79994C15.0842 1.79994 15.4322 1.90551 15.7282 2.1033C16.0242 2.30108 16.2549 2.58221 16.3911 2.91111C16.5274 3.24003 16.563 3.60194 16.4936 3.95111C16.4242 4.30028 16.2527 4.621 16.001 4.87274C15.7493 5.12448 15.4285 5.29592 15.0793 5.36537C14.7302 5.43482 14.3682 5.39917 14.0394 5.26294C13.7104 5.1267 13.4293 4.89599 13.2315 4.59998C13.0337 4.30397 12.9281 3.95596 12.9281 3.59995C12.9281 3.12256 13.1178 2.66472 13.4553 2.32715C13.7929 1.98958 14.2508 1.79994 14.7282 1.79994Z" fill="white"/>
</g>
<defs>
<clipPath id="clip0_10873_4643">
<rect width="18.9" height="18" fill="white" transform="translate(0.328125)"/>
</clipPath>
</defs>
</svg>
