<svg width="19" height="18" viewBox="0 0 19 18" fill="none" xmlns="http://www.w3.org/2000/svg">
<g clip-path="url(#clip0_10854_1367)">
<path d="M10.0531 7.60483L9.00013 9.15282C8.8913 9.31842 8.73087 9.44343 8.54374 9.5085C8.3566 9.57357 8.15322 9.5751 7.96513 9.51282H7.87512C7.31182 9.32508 6.70234 9.32832 6.14103 9.52191C5.57973 9.7155 5.09789 10.0887 4.77012 10.5838L3.75311 12.1048C3.62285 12.3033 3.57625 12.5451 3.62344 12.7777C3.67064 13.0103 3.80782 13.2149 4.00512 13.3468C4.15005 13.4483 4.32318 13.5019 4.50012 13.4998C4.64835 13.4991 4.7941 13.4617 4.92442 13.3911C5.05474 13.3204 5.16559 13.2187 5.24712 13.0948L6.30012 11.5468C6.40895 11.3813 6.56938 11.2562 6.75652 11.1911C6.94365 11.1261 7.14703 11.1245 7.33513 11.1868H7.42513C7.98843 11.3746 8.59791 11.3714 9.15923 11.1778C9.72056 10.9841 10.2023 10.6109 10.5301 10.1158L11.5651 8.55883C11.6711 8.36122 11.6996 8.13116 11.6448 7.91369C11.59 7.69623 11.4561 7.50703 11.2692 7.38317C11.0823 7.2593 10.8558 7.20967 10.6342 7.24402C10.4126 7.27836 10.2118 7.39419 10.0711 7.56883L10.0531 7.60483Z" fill="#7C7C7C"/>
<path d="M14.4001 7.19996C15.0329 7.20377 15.6556 7.04068 16.2053 6.72715C16.755 6.41362 17.2123 5.96071 17.5313 5.41408C17.8501 4.86745 18.0193 4.24642 18.0217 3.61357C18.0241 2.98073 17.8596 2.35844 17.5449 1.80942C17.2301 1.2604 16.7761 0.804069 16.2288 0.486402C15.6814 0.168735 15.0601 0.000965718 14.4272 4.15672e-06C13.7943 -0.000957402 13.1724 0.164922 12.6241 0.480925C12.0757 0.796928 11.6204 1.25188 11.304 1.79994H3.60001C2.64523 1.79994 1.72956 2.17922 1.05442 2.85436C0.379286 3.52949 0 4.44517 0 5.39995V14.4C0 15.3548 0.379286 16.2705 1.05442 16.9456C1.72956 17.6207 2.64523 18 3.60001 18H12.6C13.5548 18 14.4705 17.6207 15.1456 16.9456C15.8207 16.2705 16.2001 15.3548 16.2001 14.4V8.99996C16.2001 8.76127 16.1052 8.53235 15.9365 8.36356C15.7676 8.19479 15.5388 8.09996 15.3001 8.09996C15.0613 8.09996 14.8324 8.19479 14.6637 8.36356C14.4949 8.53235 14.4001 8.76127 14.4001 8.99996V14.4C14.4001 14.8774 14.2104 15.3352 13.8729 15.6728C13.5353 16.0104 13.0774 16.2 12.6 16.2H3.60001C3.12262 16.2 2.66478 16.0104 2.32722 15.6728C1.98965 15.3352 1.80001 14.8774 1.80001 14.4V5.39995C1.80001 4.92256 1.98965 4.46472 2.32722 4.12716C2.66478 3.78959 3.12262 3.59995 3.60001 3.59995H10.8C10.8 4.55473 11.1793 5.47041 11.8544 6.14554C12.5296 6.82068 13.4453 7.19996 14.4001 7.19996ZM14.4001 1.79994C14.756 1.79994 15.1041 1.90551 15.4001 2.1033C15.6961 2.30108 15.9268 2.58221 16.063 2.91111C16.1993 3.24003 16.2349 3.60194 16.1654 3.95111C16.096 4.30028 15.9246 4.621 15.6729 4.87274C15.4211 5.12448 15.1004 5.29592 14.7512 5.36537C14.4021 5.43482 14.0401 5.39917 13.7112 5.26294C13.3823 5.1267 13.1012 4.89599 12.9034 4.59998C12.7056 4.30397 12.6 3.95596 12.6 3.59995C12.6 3.12256 12.7897 2.66472 13.1272 2.32715C13.4648 1.98959 13.9226 1.79994 14.4001 1.79994Z" fill="#7C7C7C"/>
</g>
<defs>
<clipPath id="clip0_10854_1367">
<rect width="18.9" height="18" fill="white"/>
</clipPath>
</defs>
</svg>
