<svg width="20" height="20" viewBox="0 0 20 20" fill="none" xmlns="http://www.w3.org/2000/svg">
<path d="M9.92694 16.9006C9.53792 16.8961 9.15318 16.9828 8.77637 17.0919C9.20639 17.4569 9.61245 17.7924 9.97127 17.7936C10.32 17.795 10.7156 17.4814 11.1349 17.1319C10.7379 17.0097 10.3327 16.9052 9.92694 16.9006Z" fill="#707175"/>
<path d="M3.10108 9.92499C3.10555 9.53597 3.01877 9.15123 2.90975 8.77441C2.54478 9.20444 2.20923 9.6105 2.20801 9.96931C2.20661 10.318 2.52026 10.7136 2.86973 11.1329C2.99188 10.7364 3.09696 10.3312 3.10108 9.92499Z" fill="#707175"/>
<path d="M17.0929 11.2256C17.4578 10.7956 17.7934 10.3896 17.7946 10.0307C17.796 9.68201 17.4824 9.28641 17.1329 8.86719C17.0103 9.26363 16.9061 9.66891 16.9015 10.075C16.8969 10.464 16.9839 10.8488 17.0929 11.2256Z" fill="#707175"/>
<path d="M10.0751 3.09921C10.4642 3.10359 10.849 3.01681 11.2258 2.9078C10.7957 2.54292 10.3897 2.20728 10.0309 2.20606C9.68218 2.20465 9.28652 2.51831 8.86719 2.86778C9.2638 2.99002 9.66896 3.09457 10.0751 3.09921Z" fill="#707175"/>
<path d="M3.94945 14.4215C4.32679 14.6231 4.67045 14.8275 4.93838 15.0941C5.19524 15.3491 5.39327 15.6704 5.58259 16.0242C5.64108 16.134 5.69806 16.2449 5.75556 16.357C5.75975 16.3651 5.76396 16.3734 5.76816 16.3816C5.94891 16.7339 6.14552 17.1172 6.38143 17.3784C6.4927 17.5014 6.6252 17.6125 6.78489 17.6795C6.92867 17.7401 7.08279 17.7598 7.23404 17.7578C7.40054 17.8764 7.57654 18.0255 7.77094 18.1907L7.77308 18.1925C7.82978 18.2406 7.88811 18.2902 7.94796 18.3402C7.44903 18.4591 6.96979 18.4972 6.52148 18.3094C5.92945 18.0614 5.57955 17.4981 5.25259 16.8712C5.21726 16.8029 5.18246 16.7354 5.14818 16.6686C5.14384 16.6601 5.13949 16.6516 5.13513 16.6431C4.93956 16.2615 4.72671 15.8462 4.45757 15.5788C4.19759 15.3205 3.79337 15.1092 3.42055 14.9143C3.41198 14.9098 3.40343 14.9054 3.39489 14.9009C3.39487 14.9009 3.3949 14.9009 3.39489 14.9009L3.38877 14.8977C3.29408 14.8482 3.19964 14.7988 3.10517 14.7478C2.47974 14.4101 1.92033 14.0369 1.6657 13.4151C1.47393 12.9471 1.50412 12.4582 1.61959 11.9561C1.67755 12.0268 1.73495 12.0954 1.79052 12.1619L1.79449 12.1667C1.95214 12.3551 2.0951 12.5266 2.2105 12.6891C2.21191 12.8468 2.23573 13.0057 2.29744 13.1563C2.3646 13.3198 2.47043 13.4595 2.59224 13.5795C2.87583 13.8588 3.29874 14.0801 3.68703 14.2832C3.69516 14.2875 3.70327 14.2917 3.71137 14.296C3.71135 14.296 3.71139 14.296 3.71137 14.296L3.71357 14.2971C3.79279 14.3386 3.87128 14.3797 3.94945 14.4215ZM3.94945 14.4215L4.08202 14.1734L3.94945 14.4215ZM3.94945 14.4215L4.08202 14.1734L3.94945 14.4215ZM4.08202 14.1734C4.00279 14.131 3.9234 14.0895 3.84452 14.0482L3.84183 14.0468L6.00581 16.2286C5.94836 16.1166 5.8904 16.0037 5.83068 15.8917C5.63804 15.5317 5.42429 15.1801 5.13673 14.8947C4.83744 14.597 4.46196 14.3765 4.08202 14.1734Z" fill="#7C7C7C"/>
<path d="M3.94945 14.4215C4.32679 14.6231 4.67045 14.8275 4.93838 15.0941C5.19524 15.3491 5.39327 15.6704 5.58259 16.0242C5.64108 16.134 5.69806 16.2449 5.75556 16.357C5.75975 16.3651 5.76396 16.3734 5.76816 16.3816C5.94891 16.7339 6.14552 17.1172 6.38143 17.3784C6.4927 17.5014 6.6252 17.6125 6.78489 17.6795C6.92867 17.7401 7.08279 17.7598 7.23404 17.7578C7.40054 17.8764 7.57654 18.0255 7.77094 18.1907L7.77308 18.1925C7.82978 18.2406 7.88811 18.2902 7.94796 18.3402C7.44903 18.4591 6.96979 18.4972 6.52148 18.3094C5.92945 18.0614 5.57955 17.4981 5.25259 16.8712C5.21726 16.8029 5.18246 16.7354 5.14818 16.6686C5.14384 16.6601 5.13949 16.6516 5.13513 16.6431C4.93956 16.2615 4.72671 15.8462 4.45757 15.5788C4.19759 15.3205 3.79337 15.1092 3.42055 14.9143C3.41198 14.9098 3.40343 14.9054 3.39489 14.9009M3.94945 14.4215C3.87128 14.3797 3.79279 14.3386 3.71357 14.2971L3.71137 14.296M3.94945 14.4215L4.08202 14.1734M3.39489 14.9009C3.39487 14.9009 3.3949 14.9009 3.39489 14.9009ZM3.39489 14.9009L3.38877 14.8977C3.29408 14.8482 3.19964 14.7988 3.10517 14.7478C2.47974 14.4101 1.92033 14.0369 1.6657 13.4151C1.47393 12.9471 1.50412 12.4582 1.61959 11.9561C1.67755 12.0268 1.73495 12.0954 1.79052 12.1619L1.79449 12.1667C1.95214 12.3551 2.0951 12.5266 2.2105 12.6891C2.21191 12.8468 2.23573 13.0057 2.29744 13.1563C2.3646 13.3198 2.47043 13.4595 2.59224 13.5795C2.87583 13.8588 3.29874 14.0801 3.68703 14.2832C3.69516 14.2875 3.70327 14.2917 3.71137 14.296M3.71137 14.296C3.71139 14.296 3.71135 14.296 3.71137 14.296ZM4.08202 14.1734C4.0028 14.131 3.9234 14.0895 3.84452 14.0482L3.84183 14.0468L6.0058 16.2286C5.94836 16.1166 5.8904 16.0037 5.83068 15.8917C5.63804 15.5317 5.42429 15.1801 5.13673 14.8947C4.83744 14.597 4.46196 14.3765 4.08202 14.1734Z" stroke="#7C7C7C" stroke-width="1.79439"/>
<path d="M2.62389 6.38053C2.88492 6.14472 3.26806 5.94813 3.62039 5.76736C3.62872 5.76309 3.63702 5.75883 3.64532 5.75458C3.64531 5.75458 3.64532 5.75457 3.64532 5.75458L3.6524 5.75095C3.76225 5.69456 3.87065 5.63891 3.97803 5.58162C4.33184 5.39232 4.65299 5.19448 4.9081 4.93766C5.17432 4.66948 5.37928 4.32556 5.58084 3.94843C5.62295 3.86972 5.66446 3.79043 5.70628 3.71046C5.71067 3.70208 5.7151 3.69361 5.71951 3.6852C5.9225 3.29725 6.14362 2.87468 6.42274 2.59135C6.54279 2.46942 6.68229 2.36364 6.84586 2.29656C6.99655 2.23475 7.15545 2.21089 7.31318 2.20953C7.47562 2.09413 7.64707 1.95114 7.83567 1.79347L7.8431 1.78725C7.90869 1.73242 7.97641 1.6758 8.04622 1.61865C7.54391 1.50313 7.05539 1.47294 6.58722 1.66468L2.62389 6.38053ZM2.62389 6.38053C2.5008 6.49178 2.38969 6.62434 2.32277 6.78404C2.26226 6.92782 2.24256 7.08188 2.24455 7.23308M2.62389 6.38053L2.24455 7.23308L2.62389 6.38053ZM1.6621 7.947C1.71268 7.88658 1.76271 7.82769 1.81133 7.77049L1.6621 7.947ZM1.6621 7.947C1.54318 7.44812 1.50519 6.96882 1.69291 6.52053L1.6621 7.947ZM5.10144 3.39386C5.09679 3.40276 5.09208 3.41176 5.08741 3.42069C4.89262 3.79319 4.68159 4.19675 4.42369 4.45655C4.15659 4.72524 3.74201 4.93791 3.36106 5.13328C3.35196 5.13795 3.34289 5.1426 3.33384 5.14725C3.26699 5.18151 3.19936 5.21634 3.1311 5.25166C2.50416 5.57872 1.94088 5.92854 1.69291 6.52053L5.10144 3.39386ZM5.10144 3.39386C5.15186 3.2974 5.2025 3.20079 5.25468 3.10409L5.10144 3.39386ZM5.10144 3.39386L5.25468 3.10409L5.10144 3.39386ZM2.24455 7.23308C2.12604 7.39952 1.97698 7.57541 1.81174 7.76998L2.24455 7.23308ZM5.25468 3.10409C5.59221 2.47871 5.96542 1.91939 6.58722 1.66468L5.25468 3.10409Z" fill="#7C7C7C"/>
<path d="M2.62389 6.38053C2.88492 6.14472 3.26806 5.94813 3.62039 5.76736C3.62872 5.7631 3.63702 5.75883 3.64532 5.75458M2.62389 6.38053L6.58722 1.66468M2.62389 6.38053C2.5008 6.49178 2.38969 6.62434 2.32277 6.78404C2.26226 6.92782 2.24256 7.08188 2.24455 7.23308M2.62389 6.38053L2.24455 7.23308M3.64532 5.75458C3.64532 5.75457 3.64531 5.75458 3.64532 5.75458ZM3.64532 5.75458L3.6524 5.75095C3.76225 5.69456 3.87065 5.63891 3.97803 5.58162C4.33184 5.39232 4.65299 5.19448 4.9081 4.93766C5.17432 4.66948 5.37928 4.32556 5.58084 3.94843C5.62295 3.86972 5.66446 3.79043 5.70628 3.71046C5.71067 3.70208 5.7151 3.69361 5.71951 3.6852C5.9225 3.29725 6.14362 2.87468 6.42274 2.59135C6.54279 2.46942 6.68229 2.36364 6.84586 2.29656C6.99655 2.23475 7.15545 2.21089 7.31318 2.20953C7.47562 2.09413 7.64707 1.95114 7.83567 1.79347L7.8431 1.78725C7.90869 1.73242 7.97641 1.6758 8.04622 1.61865C7.54391 1.50313 7.05539 1.47294 6.58722 1.66468M6.58722 1.66468C5.96542 1.91939 5.59221 2.47871 5.25468 3.10409M6.58722 1.66468L5.25468 3.10409M2.24455 7.23308C2.12604 7.39952 1.97698 7.57541 1.81174 7.76998L2.24455 7.23308ZM1.6621 7.947C1.71268 7.88658 1.76271 7.82769 1.81133 7.77049L1.6621 7.947ZM1.6621 7.947C1.54318 7.44812 1.50519 6.96882 1.69291 6.52053M1.6621 7.947L1.69291 6.52053M1.69291 6.52053C1.94088 5.92854 2.50416 5.57872 3.1311 5.25166C3.19936 5.21634 3.26699 5.18151 3.33384 5.14725C3.34289 5.1426 3.35196 5.13795 3.36106 5.13328C3.74201 4.93791 4.15659 4.72524 4.42369 4.45655C4.68159 4.19675 4.89262 3.79319 5.08741 3.42069C5.09208 3.41176 5.09679 3.40276 5.10144 3.39386M1.69291 6.52053L5.10144 3.39386M5.10144 3.39386C5.15186 3.2974 5.2025 3.20079 5.25468 3.10409M5.10144 3.39386L5.25468 3.10409" stroke="#7C7C7C" stroke-width="1.79439"/>
<path d="M16.0242 14.4206C16.1337 14.3621 16.2443 14.3054 16.3564 14.2479L16.357 14.2476C16.3652 14.2433 16.3734 14.2392 16.3816 14.235C16.734 14.0542 17.1173 13.8576 17.3784 13.6217C17.5017 13.5104 17.6126 13.3778 17.6795 13.2183C17.74 13.0744 17.7597 12.9204 17.7578 12.7691C17.8763 12.6027 18.0253 12.4268 18.1907 12.2321L18.199 12.2223C18.2452 12.1678 18.2926 12.1119 18.3404 12.0547C18.4594 12.5536 18.4974 13.0329 18.3097 13.4812C18.0617 14.0733 17.4985 14.4231 16.8716 14.75C16.8033 14.7853 16.7358 14.8201 16.6689 14.8545C16.6606 14.8588 16.6522 14.863 16.6439 14.8673C16.2621 15.063 15.8468 15.2759 15.5791 15.545C15.3209 15.8052 15.1094 16.2096 14.9144 16.5826C14.91 16.591 14.9056 16.5995 14.9012 16.6078C14.8507 16.7044 14.8001 16.8009 14.748 16.8975C14.4105 17.5228 14.037 18.0823 13.4152 18.3375C12.9469 18.5292 12.4584 18.499 11.9561 18.3835C12.0263 18.326 12.0944 18.269 12.1604 18.2139L12.1666 18.2087C12.1665 18.2087 12.1666 18.2086 12.1666 18.2087C12.3552 18.051 12.5266 17.908 12.6891 17.7927C12.8469 17.7913 13.0057 17.7674 13.1563 17.7057C13.32 17.6385 13.4597 17.5326 13.5796 17.4108C13.8588 17.1274 14.08 16.7046 14.2831 16.3165C14.2874 16.3082 14.2917 16.3 14.296 16.2918C14.296 16.2918 14.296 16.2917 14.296 16.2918L14.2978 16.2883C14.339 16.2096 14.3799 16.1315 14.4215 16.0537C14.6231 15.6764 14.8276 15.3328 15.0942 15.0647C15.3492 14.8078 15.6704 14.6099 16.0242 14.4206ZM15.8918 14.1724C15.5318 14.3651 15.1802 14.5788 14.8947 14.8664L17.1899 13.413C16.9564 13.6239 16.6005 13.8066 16.2301 13.9966L16.2287 13.9973L16.2271 13.9982C16.1156 14.0553 16.0033 14.1129 15.8918 14.1724Z" fill="#7C7C7C"/>
<path d="M15.8918 14.1724L16.0242 14.4206M15.8918 14.1724C15.5318 14.3651 15.1802 14.5788 14.8947 14.8664L17.1899 13.413C16.9564 13.6239 16.6005 13.8066 16.2301 13.9966L16.2287 13.9973L16.2271 13.9982C16.1156 14.0553 16.0033 14.1129 15.8918 14.1724ZM16.0242 14.4206C16.1337 14.3621 16.2443 14.3054 16.3564 14.2479L16.357 14.2476C16.3652 14.2433 16.3734 14.2392 16.3816 14.235C16.734 14.0542 17.1173 13.8576 17.3784 13.6217C17.5017 13.5104 17.6126 13.3778 17.6795 13.2183C17.74 13.0744 17.7597 12.9204 17.7578 12.7691C17.8763 12.6027 18.0253 12.4268 18.1907 12.2321L18.199 12.2223C18.2452 12.1678 18.2926 12.1119 18.3404 12.0547C18.4594 12.5536 18.4974 13.0329 18.3097 13.4812C18.0617 14.0733 17.4985 14.4231 16.8716 14.75C16.8033 14.7853 16.7358 14.8201 16.6689 14.8545C16.6606 14.8588 16.6522 14.863 16.6439 14.8673C16.2621 15.063 15.8468 15.2759 15.5791 15.545C15.3209 15.8052 15.1094 16.2096 14.9144 16.5826C14.91 16.591 14.9056 16.5995 14.9012 16.6078C14.8507 16.7044 14.8001 16.8009 14.748 16.8975C14.4105 17.5228 14.037 18.0823 13.4152 18.3375C12.9469 18.5292 12.4584 18.499 11.9561 18.3835C12.0263 18.326 12.0944 18.269 12.1604 18.2139L12.1666 18.2087M16.0242 14.4206C15.6704 14.6099 15.3492 14.8078 15.0942 15.0647C14.8276 15.3328 14.6231 15.6764 14.4215 16.0537C14.3799 16.1315 14.339 16.2096 14.2978 16.2883L14.296 16.2918M12.1666 18.2087C12.1666 18.2086 12.1665 18.2087 12.1666 18.2087ZM12.1666 18.2087C12.3552 18.051 12.5266 17.908 12.6891 17.7927C12.8469 17.7913 13.0057 17.7674 13.1563 17.7057C13.32 17.6385 13.4597 17.5326 13.5796 17.4108C13.8588 17.1274 14.08 16.7046 14.2831 16.3165C14.2874 16.3082 14.2917 16.3 14.296 16.2918M14.296 16.2918C14.296 16.2917 14.296 16.2918 14.296 16.2918Z" stroke="#7C7C7C" stroke-width="1.79439"/>
<path d="M18.337 6.58527C18.0823 5.96357 17.523 5.59034 16.8976 5.25269C16.801 5.20056 16.7044 5.14996 16.6078 5.09944C16.5993 5.09497 16.5907 5.09049 16.5821 5.08601C16.2093 4.89112 15.8052 4.67986 15.5452 4.42167C15.2762 4.15424 15.0633 3.73906 14.8677 3.35765C14.8633 3.34902 14.8589 3.34041 14.8545 3.33181L18.337 6.58527ZM18.337 6.58527C18.5287 7.0533 18.4984 7.54166 18.3832 8.04413L18.337 6.58527ZM18.337 6.58527L18.3832 8.04413L18.337 6.58527ZM18.3832 8.04413C18.3258 7.97416 18.269 7.90621 18.214 7.84045L18.2087 7.83415C18.051 7.64549 17.9081 7.47405 17.7927 7.3116C17.7913 7.15388 17.7675 6.99509 17.7058 6.84445C17.6386 6.68088 17.5328 6.5412 17.4108 6.42111L18.3832 8.04413ZM12.2319 1.80982C12.4265 1.97509 12.6027 2.12433 12.7692 2.24292C12.9204 2.24094 13.0745 2.26065 13.2182 2.32119C13.3778 2.38813 13.5104 2.49913 13.6217 2.62239L12.2319 1.80982ZM12.2319 1.80982L12.2237 1.80282C12.1688 1.75629 12.1125 1.70849 12.0547 1.66019M12.2319 1.80982L12.0547 1.66019L12.2319 1.80982ZM14.2476 3.64368L14.2513 3.65088C14.3077 3.76073 14.3633 3.86912 14.4206 3.9765C14.6099 4.3303 14.8077 4.65141 15.0646 4.90651C15.3327 5.17277 15.6766 5.37774 16.0538 5.5793C16.1319 5.62105 16.2103 5.66213 16.2895 5.70359L16.2918 5.70475C16.2996 5.70888 16.3075 5.71302 16.3154 5.71716C16.704 5.92032 17.1272 6.14166 17.4108 6.42111L14.2476 3.64368ZM14.2476 3.64368C14.2433 3.63525 14.239 3.6268 14.2346 3.61834L14.2476 3.64368ZM14.2476 3.64368L14.2346 3.61834L14.2476 3.64368ZM12.0547 1.66019C12.5536 1.54126 13.0329 1.5032 13.4812 1.69093L12.0547 1.66019ZM14.2346 3.61834C14.0539 3.26624 13.8574 2.88332 13.6217 2.62239L14.2346 3.61834ZM13.4812 1.69093C14.0732 1.93901 14.4232 2.50234 14.7501 3.12933L13.4812 1.69093Z" fill="#7C7C7C"/>
<path d="M18.337 6.58527C18.0823 5.96357 17.523 5.59034 16.8976 5.25269C16.801 5.20056 16.7044 5.14996 16.6078 5.09944C16.5993 5.09497 16.5907 5.09049 16.5821 5.08601C16.2093 4.89112 15.8052 4.67986 15.5452 4.42167C15.2762 4.15424 15.0633 3.73906 14.8677 3.35765C14.8633 3.34902 14.8589 3.34041 14.8545 3.33181L18.337 6.58527ZM18.337 6.58527C18.5287 7.0533 18.4984 7.54166 18.3832 8.04413M18.337 6.58527L18.3832 8.04413M18.3832 8.04413C18.3258 7.97416 18.269 7.90621 18.214 7.84045L18.2087 7.83415C18.051 7.64549 17.9081 7.47405 17.7927 7.3116C17.7913 7.15388 17.7675 6.99509 17.7058 6.84445C17.6386 6.68088 17.5328 6.5412 17.4108 6.42111M18.3832 8.04413L17.4108 6.42111M17.4108 6.42111C17.1272 6.14166 16.704 5.92032 16.3154 5.71716C16.3075 5.71302 16.2996 5.70888 16.2918 5.70475L16.2895 5.70359C16.2103 5.66213 16.1319 5.62105 16.0538 5.5793C15.6766 5.37774 15.3327 5.17277 15.0646 4.90651C14.8077 4.65141 14.6099 4.3303 14.4206 3.9765C14.3633 3.86912 14.3077 3.76073 14.2513 3.65088L14.2476 3.64368M17.4108 6.42111L14.2476 3.64368M12.2319 1.80982C12.4265 1.97509 12.6027 2.12433 12.7692 2.24292C12.9204 2.24094 13.0745 2.26065 13.2182 2.32119C13.3778 2.38813 13.5104 2.49913 13.6217 2.62239M12.2319 1.80982L13.6217 2.62239M12.2319 1.80982L12.2237 1.80282C12.1688 1.75629 12.1125 1.70849 12.0547 1.66019M12.2319 1.80982L12.0547 1.66019M13.6217 2.62239C13.8574 2.88332 14.0539 3.26624 14.2346 3.61834M13.6217 2.62239L14.2346 3.61834M12.0547 1.66019C12.5536 1.54126 13.0329 1.5032 13.4812 1.69093M12.0547 1.66019L13.4812 1.69093M14.2476 3.64368C14.2433 3.63525 14.239 3.6268 14.2346 3.61834M14.2476 3.64368L14.2346 3.61834M13.4812 1.69093C14.0732 1.93901 14.4232 2.50234 14.7501 3.12933L13.4812 1.69093Z" stroke="#7C7C7C" stroke-width="1.79439"/>
<path d="M3.79692 12.4914C3.60541 12.0136 3.2647 11.6061 2.9352 11.212L2.86935 11.1332C2.51988 10.714 2.20623 10.3183 2.20763 9.96956C2.20903 9.61058 2.5444 9.20469 2.90937 8.77466C2.92119 8.76077 2.9331 8.74682 2.94492 8.73281C3.27766 8.34132 3.62136 7.93649 3.81671 7.46023C4.00427 7.00248 4.05086 6.48583 4.09525 5.98672C4.09998 5.93383 4.10477 5.88129 4.10961 5.8291C3.99753 5.88909 3.88466 5.94697 3.77275 6.00423C3.40183 6.19442 3.04527 6.37743 2.81147 6.58863C2.78459 6.74204 2.74956 6.88216 2.70026 7.00219C2.65841 7.1044 2.59948 7.20852 2.52881 7.31466C2.39257 7.51918 2.21235 7.73135 2.02532 7.95157C1.8628 8.14281 1.69257 8.34289 1.53934 8.5558C1.24048 8.96906 1.00309 9.4294 1.00099 9.96501C0.998977 10.4826 1.2171 10.9315 1.49836 11.3361C1.65798 11.5656 1.83784 11.7808 2.00947 11.9861C2.18784 12.1994 2.35973 12.4053 2.49256 12.6038C2.56936 12.7185 2.63266 12.8307 2.67697 12.9406C2.72785 13.0674 2.76279 13.216 2.78888 13.379C3.04211 13.6285 3.43344 13.8334 3.84105 14.0467C3.92083 14.0885 4.00112 14.1305 4.08124 14.1733C4.07529 14.1052 4.06968 14.0364 4.06373 13.9672C4.02319 13.4674 3.9808 12.9507 3.79692 12.4914Z" fill="#C9C8C8"/>
<path d="M4.22364 4.2586C4.45131 4.02954 4.64561 3.65756 4.85174 3.26378C4.90218 3.16746 4.95358 3.06922 5.00673 2.9707C4.51725 3.06291 4.04159 3.23594 3.66253 3.61203C3.27015 4.00134 3.09467 4.49564 3.00098 5.00237C3.06951 4.96665 3.13752 4.93162 3.205 4.8973C3.60797 4.69047 3.98862 4.49529 4.22364 4.2586Z" fill="#707175"/>
<path d="M4.25851 15.7782C4.02953 15.5505 3.65756 15.356 3.26369 15.15C3.16737 15.0996 3.06913 15.0482 2.9707 14.9951C3.06282 15.4846 3.23585 15.9601 3.61202 16.3392C4.00125 16.7316 4.49563 16.9071 5.00237 17.0007C4.96665 16.9322 4.93162 16.8642 4.89729 16.7968C4.69047 16.3938 4.4952 16.0131 4.25851 15.7782Z" fill="#707175"/>
<path d="M15.7429 4.22355C15.9719 4.45121 16.3439 4.64561 16.7377 4.85165C16.834 4.90209 16.9323 4.95349 17.0307 5.00664C16.9386 4.51716 16.7655 4.04159 16.3893 3.66244C16.0001 3.27015 15.5057 3.09458 14.999 3.00098C15.0347 3.06945 15.0697 3.13766 15.1041 3.20491C15.3114 3.60788 15.5062 3.98853 15.7429 4.22355Z" fill="#707175"/>
<path d="M15.7782 15.7429C15.5506 15.972 15.3562 16.3439 15.1501 16.7377C15.0997 16.834 15.0483 16.9323 14.9951 17.0307C15.4846 16.9386 15.9603 16.7656 16.3394 16.3894C16.7317 16.0001 16.9072 15.5058 17.0009 14.999C16.9323 15.0348 16.8644 15.0698 16.7969 15.1041C16.3939 15.3109 16.0133 15.5062 15.7782 15.7429Z" fill="#707175"/>
<path d="M11.9867 17.9925C12.2001 17.8141 12.4059 17.6422 12.6044 17.5094C12.7191 17.4327 12.8315 17.3693 12.9414 17.325C13.068 17.2741 13.2167 17.2392 13.3798 17.2131C13.6292 16.9599 13.834 16.5685 14.0474 16.1609C14.0891 16.0811 14.1312 16.0008 14.1739 15.9207C14.1059 15.9266 14.0372 15.9323 13.968 15.9382C13.4683 15.979 12.9517 16.0213 12.4923 16.2054C12.0146 16.397 11.607 16.7377 11.2129 17.0672L11.1341 17.133C10.7149 17.4826 10.3192 17.7962 9.97046 17.7948C9.61148 17.7933 9.20559 17.458 8.77556 17.093L8.73372 17.0574C8.34222 16.7247 7.9374 16.381 7.46113 16.1857C7.00327 15.9979 6.48701 15.9517 5.98769 15.907C5.9348 15.9022 5.88227 15.8974 5.83008 15.8926C5.88997 16.0047 5.94794 16.1175 6.0052 16.2295C6.19539 16.6004 6.37832 16.9569 6.5895 17.1908C6.743 17.2176 6.88312 17.2527 7.00315 17.302C7.10536 17.3438 7.20936 17.4026 7.31551 17.4734C7.52014 17.6098 7.73231 17.7899 7.95247 17.9769C8.14377 18.1394 8.34385 18.3096 8.55664 18.4629C8.96985 18.7617 9.4303 18.9991 9.96591 19.0012C10.4833 19.0032 10.9324 18.7852 11.3369 18.5038C11.5663 18.3437 11.7815 18.1637 11.9867 17.9925Z" fill="#C9C8C8"/>
<path d="M17.7947 10.0308C17.7933 10.3898 17.4579 10.7957 17.093 11.2257C17.0812 11.2396 17.0693 11.2535 17.0574 11.2675C16.7247 11.659 16.381 12.0638 16.1857 12.5401C15.9979 12.998 15.9516 13.5142 15.9069 14.0136C15.9021 14.0661 15.8974 14.1186 15.8926 14.1712C16.0046 14.1111 16.1175 14.0533 16.2295 13.996C16.6004 13.8058 16.9569 13.6229 17.1907 13.4117C17.2176 13.2582 17.2526 13.1181 17.3019 12.998C17.3437 12.8959 17.4026 12.7918 17.4733 12.6857C17.6096 12.481 17.7898 12.269 17.9768 12.0488C18.1394 11.8575 18.3096 11.6574 18.4628 11.4446C18.7617 11.0313 18.9991 10.5709 19.0012 10.0353C19.0032 9.5179 18.7851 9.06886 18.5038 8.66432C18.3443 8.43482 18.1643 8.21955 17.9927 8.0143C17.8143 7.80095 17.6424 7.59513 17.5096 7.39663C17.4328 7.28194 17.3695 7.16961 17.3252 7.05981C17.2743 6.93302 17.2394 6.7843 17.2132 6.62127C16.9601 6.37188 16.5687 6.16698 16.1611 5.95377C16.0814 5.91199 16.001 5.86997 15.9209 5.82715C15.9269 5.89518 15.9325 5.96392 15.9384 6.03318C15.9793 6.53274 16.0214 7.04935 16.2057 7.50873C16.3972 7.98646 16.7379 8.39398 17.0674 8.78812C17.0895 8.8145 17.1114 8.84077 17.1333 8.86693C17.4825 9.28638 17.7961 9.68209 17.7947 10.0308Z" fill="#C9C8C8"/>
<path d="M11.2268 2.9091L11.2687 2.94466C11.6602 3.2774 12.065 3.62118 12.5413 3.81645C12.9991 4.00418 13.5154 4.0505 14.0147 4.09525C14.0672 4.09998 14.1198 4.10474 14.1723 4.10953C14.1123 3.99744 14.0544 3.88457 13.9972 3.77266C13.807 3.40183 13.624 3.04527 13.4128 2.81147C13.2593 2.7845 13.1193 2.74947 12.9992 2.70027C12.897 2.65832 12.793 2.59948 12.6868 2.52881C12.4822 2.39248 12.27 2.21226 12.0498 2.02523C11.8586 1.86271 11.6585 1.69248 11.4456 1.53925C11.0324 1.24039 10.572 1.00309 10.0364 1.00099C9.51888 0.998976 9.0699 1.21701 8.66536 1.49836C8.43581 1.6579 8.22065 1.83775 8.01529 2.00938C7.80199 2.18775 7.59612 2.35964 7.39762 2.49256C7.28292 2.56927 7.17065 2.63267 7.06074 2.67697C6.93407 2.72776 6.7854 2.7627 6.62233 2.78888C6.37295 3.04203 6.16805 3.43344 5.95474 3.84096C5.91297 3.92082 5.87094 4.00112 5.82812 4.08115C5.89625 4.0752 5.96498 4.06959 6.03416 4.06364C6.5338 4.02284 7.05045 3.98063 7.50978 3.79648C7.98756 3.60489 8.39508 3.26418 8.78911 2.93467C8.81538 2.9127 8.84165 2.89089 8.86791 2.86883C9.28719 2.51936 9.68291 2.2057 10.0315 2.2071C10.391 2.20877 10.7968 2.54422 11.2268 2.9091Z" fill="#C9C8C8"/>
<path fill-rule="evenodd" clip-rule="evenodd" d="M14.2104 5.64262C14.2104 6.004 13.9125 6.29696 13.5451 6.29696C13.1777 6.29696 12.8799 6.004 12.8799 5.64262C12.8799 5.28124 13.1777 4.98828 13.5451 4.98828C13.9125 4.98828 14.2104 5.28124 14.2104 5.64262ZM9.3551 6.46484C8.43874 6.52733 7.57414 6.91655 6.92598 7.56331C6.35156 8.13648 5.98519 8.87397 5.87419 9.6623C5.86344 9.61454 5.85364 9.56651 5.8448 9.51824C5.74697 10.0531 5.76971 10.6026 5.91142 11.1279C6.05313 11.6531 6.31034 12.1414 6.66493 12.5582C7.01946 12.9749 7.46276 13.3101 7.96338 13.5399C8.46372 13.7695 9.00916 13.8884 9.56125 13.8881H9.56243H11.6836C11.856 13.8823 12.0194 13.8109 12.1393 13.6889C12.2592 13.5669 12.3262 13.4039 12.3262 13.2342C12.3262 13.0645 12.2592 12.9015 12.1393 12.7795C12.1093 12.749 12.0767 12.7216 12.0418 12.6977C11.9372 12.6258 11.813 12.5846 11.6836 12.5802H9.56238H9.55641C9.17156 12.5786 8.79244 12.4879 8.44988 12.3152C8.10552 12.1416 7.80791 11.8903 7.58139 11.5817C7.35488 11.2731 7.20593 10.9161 7.14681 10.54C7.08764 10.1639 7.11998 9.7793 7.24109 9.41784C7.36225 9.05638 7.56874 8.72828 7.84368 8.46048C8.11863 8.19268 8.45421 7.99282 8.82287 7.87723C8.8749 7.86092 8.92732 7.84635 8.9802 7.83353C9.29289 7.75815 9.6184 7.74398 9.93801 7.79269C10.3296 7.85231 10.7006 8.00452 11.0192 8.23627V9.86592L11.0192 9.85608V11.164C11.0192 11.3373 11.0891 11.5036 11.2137 11.6261C11.2537 11.6654 11.2982 11.6991 11.346 11.7269C11.4474 11.7858 11.5639 11.8176 11.6836 11.8176C11.8599 11.8176 12.0289 11.7487 12.1535 11.6262C12.2781 11.5036 12.3481 11.3373 12.3481 11.164V7.93123C12.3482 7.84157 12.3296 7.75281 12.2933 7.67057C12.257 7.58828 12.2039 7.51426 12.1372 7.45306C11.4387 6.81137 10.5182 6.45504 9.56243 6.45632C9.52587 6.45683 9.48942 6.45786 9.45303 6.45942C9.44307 6.45956 9.43328 6.45978 9.42367 6.4601C9.40077 6.46136 9.37788 6.46294 9.3551 6.46484ZM13.0815 7.10915C13.2061 6.98658 13.3751 6.91773 13.5513 6.91773C13.7275 6.91773 13.8965 6.98658 14.0211 7.10915C14.1458 7.23177 14.2158 7.39799 14.2158 7.57135V10.8148V13.2346C14.2158 13.4079 14.1458 13.5742 14.0211 13.6968C13.8965 13.8193 13.7275 13.8882 13.5513 13.8882C13.3751 13.8882 13.2061 13.8193 13.0815 13.6968C12.9569 13.5742 12.8869 13.4079 12.8869 13.2346V10.8148V7.57135C12.8869 7.39799 12.9569 7.23177 13.0815 7.10915Z" fill="#707175"/>
</svg>
