<svg width="20" height="20" viewBox="0 0 20 20" fill="none" xmlns="http://www.w3.org/2000/svg">
<path d="M10.2551 16.9006C9.86605 16.8961 9.48131 16.9828 9.10449 17.0919C9.53452 17.4569 9.94058 17.7924 10.2994 17.7936C10.6481 17.795 11.0437 17.4814 11.463 17.1319C11.066 17.0097 10.6608 16.9052 10.2551 16.9006Z" fill="#707175"/>
<path d="M3.42921 9.92499C3.43367 9.53597 3.3469 9.15123 3.23787 8.77441C2.87291 9.20444 2.53736 9.6105 2.53614 9.96931C2.53473 10.318 2.84839 10.7136 3.19786 11.1329C3.32001 10.7364 3.42509 10.3312 3.42921 9.92499Z" fill="#707175"/>
<path d="M17.421 11.2256C17.786 10.7956 18.1216 10.3896 18.1227 10.0307C18.1241 9.68201 17.8105 9.28641 17.461 8.86719C17.3385 9.26363 17.2342 9.66891 17.2297 10.075C17.2251 10.464 17.312 10.8488 17.421 11.2256Z" fill="#707175"/>
<path d="M10.4033 3.09921C10.7923 3.10359 11.1771 3.01681 11.5539 2.9078C11.1239 2.54292 10.7178 2.20728 10.359 2.20606C10.0103 2.20465 9.61465 2.51831 9.19531 2.86778C9.59193 2.99002 9.99709 3.09457 10.4033 3.09921Z" fill="#707175"/>
<path d="M4.27757 14.4215C4.65492 14.6231 4.99857 14.8275 5.26651 15.0941C5.52337 15.3491 5.72139 15.6704 5.91072 16.0242C5.96921 16.134 6.02619 16.2449 6.08368 16.357C6.08787 16.3651 6.09208 16.3734 6.09629 16.3816C6.27704 16.7339 6.47364 17.1172 6.70955 17.3784C6.82082 17.5014 6.95333 17.6125 7.11302 17.6795C7.25679 17.7401 7.41092 17.7598 7.56217 17.7578C7.72867 17.8764 7.90467 18.0255 8.09907 18.1907L8.1012 18.1925C8.1579 18.2406 8.21623 18.2902 8.27608 18.3402C7.77715 18.4591 7.29791 18.4972 6.84961 18.3094C6.25757 18.0614 5.90767 17.4981 5.58072 16.8712C5.54539 16.8029 5.51058 16.7354 5.4763 16.6686C5.47196 16.6601 5.46761 16.6516 5.46325 16.6431C5.26768 16.2615 5.05484 15.8462 4.7857 15.5788C4.52571 15.3205 4.1215 15.1092 3.74867 14.9143C3.7401 14.9098 3.73155 14.9054 3.72301 14.9009C3.72303 14.9009 3.723 14.9009 3.72301 14.9009L3.7169 14.8977C3.6222 14.8482 3.52776 14.7988 3.43329 14.7478C2.80787 14.4101 2.24846 14.0369 1.99383 13.4151C1.80205 12.9471 1.83224 12.4582 1.94772 11.9561C2.00567 12.0268 2.06308 12.0954 2.11865 12.1619L2.12261 12.1667C2.28026 12.3551 2.42322 12.5266 2.53863 12.6891C2.54004 12.8468 2.56386 13.0057 2.62556 13.1563C2.69273 13.3198 2.79855 13.4595 2.92037 13.5795C3.20396 13.8588 3.62686 14.0801 4.01515 14.2832C4.02328 14.2875 4.0314 14.2917 4.03949 14.296C4.03948 14.296 4.03952 14.296 4.03949 14.296L4.0417 14.2971C4.12092 14.3386 4.19941 14.3797 4.27757 14.4215ZM4.27757 14.4215L4.41014 14.1734ZM4.27757 14.4215L4.41014 14.1734ZM4.41014 14.1734C4.33092 14.131 4.25153 14.0895 4.17264 14.0482L4.16995 14.0468L6.33393 16.2286C6.27649 16.1166 6.21852 16.0037 6.1588 15.8917C5.96616 15.5317 5.75241 15.1801 5.46485 14.8947C5.16556 14.597 4.79008 14.3765 4.41014 14.1734Z" fill="white"/>
<path d="M4.27757 14.4215C4.65492 14.6231 4.99857 14.8275 5.26651 15.0941C5.52337 15.3491 5.72139 15.6704 5.91072 16.0242C5.96921 16.134 6.02619 16.2449 6.08368 16.357C6.08787 16.3651 6.09208 16.3734 6.09629 16.3816C6.27704 16.7339 6.47364 17.1172 6.70955 17.3784C6.82082 17.5014 6.95333 17.6125 7.11302 17.6795C7.25679 17.7401 7.41092 17.7598 7.56217 17.7578C7.72867 17.8764 7.90467 18.0255 8.09907 18.1907L8.1012 18.1925C8.1579 18.2406 8.21623 18.2902 8.27608 18.3402C7.77715 18.4591 7.29791 18.4972 6.84961 18.3094C6.25757 18.0614 5.90767 17.4981 5.58072 16.8712C5.54539 16.8029 5.51058 16.7354 5.4763 16.6686C5.47196 16.6601 5.46761 16.6516 5.46325 16.6431C5.26768 16.2615 5.05484 15.8462 4.7857 15.5788C4.52571 15.3205 4.1215 15.1092 3.74867 14.9143C3.7401 14.9098 3.73155 14.9054 3.72301 14.9009M4.27757 14.4215C4.19941 14.3797 4.12092 14.3386 4.0417 14.2971L4.03949 14.296M4.27757 14.4215L4.41014 14.1734M3.72301 14.9009C3.723 14.9009 3.72303 14.9009 3.72301 14.9009ZM3.72301 14.9009L3.7169 14.8977C3.6222 14.8482 3.52776 14.7988 3.43329 14.7478C2.80787 14.4101 2.24846 14.0369 1.99383 13.4151C1.80205 12.9471 1.83224 12.4582 1.94772 11.9561C2.00567 12.0268 2.06308 12.0954 2.11865 12.1619L2.12261 12.1667C2.28026 12.3551 2.42322 12.5266 2.53863 12.6891C2.54004 12.8468 2.56386 13.0057 2.62556 13.1563C2.69273 13.3198 2.79855 13.4595 2.92037 13.5795C3.20396 13.8588 3.62686 14.0801 4.01515 14.2832C4.02328 14.2875 4.0314 14.2917 4.03949 14.296M4.03949 14.296C4.03952 14.296 4.03948 14.296 4.03949 14.296ZM4.41014 14.1734C4.33092 14.131 4.25153 14.0895 4.17264 14.0482L4.16995 14.0468L6.33393 16.2286C6.27649 16.1166 6.21852 16.0037 6.1588 15.8917C5.96616 15.5317 5.75241 15.1801 5.46485 14.8947C5.16556 14.597 4.79008 14.3765 4.41014 14.1734Z" stroke="white" stroke-width="1.79439"/>
<path d="M2.95201 6.38053C3.21305 6.14472 3.59619 5.94813 3.94852 5.76736C3.95684 5.7631 3.96515 5.75883 3.97344 5.75458C3.97343 5.75458 3.97345 5.75457 3.97344 5.75458L3.98052 5.75095C4.09037 5.69456 4.19877 5.63891 4.30616 5.58162C4.65997 5.39232 4.98111 5.19448 5.23623 4.93766C5.50245 4.66948 5.7074 4.32556 5.90896 3.94843C5.95107 3.86972 5.99258 3.79043 6.03441 3.71046C6.0388 3.70208 6.04323 3.69361 6.04763 3.6852C6.25063 3.29725 6.47175 2.87468 6.75086 2.59135C6.87091 2.46942 7.01041 2.36364 7.17398 2.29656C7.32467 2.23475 7.48358 2.21089 7.6413 2.20953C7.80375 2.09413 7.9752 1.95114 8.1638 1.79347L8.17122 1.78725C8.23681 1.73242 8.30453 1.6758 8.37434 1.61865C7.87204 1.50313 7.38351 1.47294 6.91535 1.66468L2.95201 6.38053ZM2.95201 6.38053C2.82892 6.49178 2.71781 6.62434 2.65089 6.78404C2.59038 6.92782 2.57069 7.08188 2.57268 7.23308M2.95201 6.38053L2.57268 7.23308ZM1.99022 7.947C2.0408 7.88658 2.09084 7.82769 2.13945 7.77049L1.99022 7.947ZM1.99022 7.947C1.87131 7.44812 1.83331 6.96882 2.02104 6.52053L1.99022 7.947ZM5.42957 3.39386C5.42492 3.40276 5.42021 3.41176 5.41554 3.42069C5.22075 3.79319 5.00972 4.19675 4.75181 4.45655C4.48471 4.72524 4.07013 4.93791 3.68919 5.13328C3.68009 5.13795 3.67102 5.1426 3.66196 5.14725C3.59511 5.18151 3.52748 5.21634 3.45923 5.25166C2.83229 5.57872 2.26901 5.92854 2.02104 6.52053L5.42957 3.39386ZM5.42957 3.39386C5.47999 3.2974 5.53062 3.20079 5.5828 3.10409ZM5.42957 3.39386L5.5828 3.10409ZM2.57268 7.23308C2.45417 7.39952 2.30511 7.57541 2.13986 7.76998L2.57268 7.23308ZM5.5828 3.10409C5.92033 2.47871 6.29355 1.91939 6.91535 1.66468L5.5828 3.10409Z" fill="white"/>
<path d="M2.95201 6.38053C3.21305 6.14472 3.59619 5.94813 3.94852 5.76736C3.95684 5.7631 3.96515 5.75883 3.97344 5.75458M2.95201 6.38053L6.91535 1.66468M2.95201 6.38053C2.82892 6.49178 2.71781 6.62434 2.65089 6.78404C2.59038 6.92782 2.57069 7.08188 2.57268 7.23308M2.95201 6.38053L2.57268 7.23308M3.97344 5.75458C3.97345 5.75457 3.97343 5.75458 3.97344 5.75458ZM3.97344 5.75458L3.98052 5.75095C4.09037 5.69456 4.19877 5.63891 4.30616 5.58162C4.65997 5.39232 4.98111 5.19448 5.23623 4.93766C5.50245 4.66948 5.7074 4.32556 5.90896 3.94843C5.95107 3.86972 5.99258 3.79043 6.03441 3.71046C6.0388 3.70208 6.04323 3.69361 6.04763 3.6852C6.25063 3.29725 6.47175 2.87468 6.75086 2.59135C6.87091 2.46942 7.01041 2.36364 7.17398 2.29656C7.32467 2.23475 7.48358 2.21089 7.6413 2.20953C7.80375 2.09413 7.9752 1.95114 8.1638 1.79347L8.17122 1.78725C8.23681 1.73242 8.30453 1.6758 8.37434 1.61865C7.87204 1.50313 7.38351 1.47294 6.91535 1.66468M6.91535 1.66468C6.29355 1.91939 5.92033 2.47871 5.5828 3.10409M6.91535 1.66468L5.5828 3.10409M2.57268 7.23308C2.45417 7.39952 2.30511 7.57541 2.13986 7.76998L2.57268 7.23308ZM1.99022 7.947C2.0408 7.88658 2.09084 7.82769 2.13945 7.77049L1.99022 7.947ZM1.99022 7.947C1.87131 7.44812 1.83331 6.96882 2.02104 6.52053M1.99022 7.947L2.02104 6.52053M2.02104 6.52053C2.26901 5.92854 2.83229 5.57872 3.45923 5.25166C3.52748 5.21634 3.59511 5.18151 3.66196 5.14725C3.67102 5.1426 3.68009 5.13795 3.68919 5.13328C4.07013 4.93791 4.48471 4.72524 4.75181 4.45655C5.00972 4.19675 5.22075 3.79319 5.41554 3.42069C5.42021 3.41176 5.42492 3.40276 5.42957 3.39386M2.02104 6.52053L5.42957 3.39386M5.42957 3.39386C5.47999 3.2974 5.53062 3.20079 5.5828 3.10409M5.42957 3.39386L5.5828 3.10409" stroke="white" stroke-width="1.79439"/>
<path d="M16.3523 14.4206C16.4618 14.3621 16.5724 14.3054 16.6846 14.2479L16.6852 14.2476C16.6933 14.2433 16.7015 14.2392 16.7098 14.235C17.0622 14.0542 17.4454 13.8576 17.7065 13.6217C17.8298 13.5104 17.9407 13.3778 18.0076 13.2183C18.0681 13.0744 18.0879 12.9204 18.0859 12.7691C18.2044 12.6027 18.3535 12.4268 18.5188 12.2321L18.5272 12.2223C18.5733 12.1678 18.6207 12.1119 18.6686 12.0547C18.7875 12.5536 18.8256 13.0329 18.6379 13.4812C18.3899 14.0733 17.8266 14.4231 17.1997 14.75C17.1315 14.7853 17.0639 14.8201 16.9971 14.8545C16.9887 14.8588 16.9804 14.863 16.972 14.8673C16.5902 15.063 16.1749 15.2759 15.9072 15.545C15.649 15.8052 15.4375 16.2096 15.2425 16.5826C15.2382 16.591 15.2337 16.5995 15.2293 16.6078C15.1788 16.7044 15.1282 16.8009 15.0761 16.8975C14.7387 17.5228 14.3652 18.0823 13.7433 18.3375C13.2751 18.5292 12.7865 18.499 12.2842 18.3835C12.3544 18.326 12.4225 18.269 12.4885 18.2139L12.4947 18.2087C12.4947 18.2087 12.4947 18.2086 12.4947 18.2087C12.6833 18.051 12.8548 17.908 13.0172 17.7927C13.175 17.7913 13.3338 17.7674 13.4844 17.7057C13.6481 17.6385 13.7878 17.5326 13.9077 17.4108C14.1869 17.1274 14.4081 16.7046 14.6112 16.3165C14.6155 16.3082 14.6198 16.3 14.6241 16.2918C14.6241 16.2918 14.6241 16.2917 14.6241 16.2918L14.6259 16.2883C14.6672 16.2096 14.7081 16.1315 14.7496 16.0537C14.9512 15.6764 15.1557 15.3328 15.4223 15.0647C15.6774 14.8078 15.9985 14.6099 16.3523 14.4206ZM16.2199 14.1724C15.8599 14.3651 15.5083 14.5788 15.2229 14.8664L17.518 13.413C17.2846 13.6239 16.9286 13.8066 16.5583 13.9966L16.5568 13.9973L16.5552 13.9982C16.4437 14.0553 16.3314 14.1129 16.2199 14.1724Z" fill="white"/>
<path d="M16.2199 14.1724L16.3523 14.4206M16.2199 14.1724C15.8599 14.3651 15.5083 14.5788 15.2229 14.8664L17.518 13.413C17.2846 13.6239 16.9286 13.8066 16.5583 13.9966L16.5568 13.9973L16.5552 13.9982C16.4437 14.0553 16.3314 14.1129 16.2199 14.1724ZM16.3523 14.4206C16.4618 14.3621 16.5724 14.3054 16.6846 14.2479L16.6852 14.2476C16.6933 14.2433 16.7015 14.2392 16.7098 14.235C17.0622 14.0542 17.4454 13.8576 17.7065 13.6217C17.8298 13.5104 17.9407 13.3778 18.0076 13.2183C18.0681 13.0744 18.0879 12.9204 18.0859 12.7691C18.2044 12.6027 18.3535 12.4268 18.5188 12.2321L18.5272 12.2223C18.5733 12.1678 18.6207 12.1119 18.6686 12.0547C18.7875 12.5536 18.8256 13.0329 18.6379 13.4812C18.3899 14.0733 17.8266 14.4231 17.1997 14.75C17.1315 14.7853 17.0639 14.8201 16.9971 14.8545C16.9887 14.8588 16.9804 14.863 16.972 14.8673C16.5902 15.063 16.1749 15.2759 15.9072 15.545C15.649 15.8052 15.4375 16.2096 15.2425 16.5826C15.2382 16.591 15.2337 16.5995 15.2293 16.6078C15.1788 16.7044 15.1282 16.8009 15.0761 16.8975C14.7387 17.5228 14.3652 18.0823 13.7433 18.3375C13.2751 18.5292 12.7865 18.499 12.2842 18.3835C12.3544 18.326 12.4225 18.269 12.4885 18.2139L12.4947 18.2087M16.3523 14.4206C15.9985 14.6099 15.6774 14.8078 15.4223 15.0647C15.1557 15.3328 14.9512 15.6764 14.7496 16.0537C14.7081 16.1315 14.6672 16.2096 14.6259 16.2883L14.6241 16.2918M12.4947 18.2087C12.4947 18.2086 12.4947 18.2087 12.4947 18.2087ZM12.4947 18.2087C12.6833 18.051 12.8548 17.908 13.0172 17.7927C13.175 17.7913 13.3338 17.7674 13.4844 17.7057C13.6481 17.6385 13.7878 17.5326 13.9077 17.4108C14.1869 17.1274 14.4081 16.7046 14.6112 16.3165C14.6155 16.3082 14.6198 16.3 14.6241 16.2918M14.6241 16.2918C14.6241 16.2917 14.6241 16.2918 14.6241 16.2918Z" stroke="white" stroke-width="1.79439"/>
<path d="M18.6651 6.58527C18.4105 5.96357 17.8511 5.59034 17.2257 5.25269C17.1292 5.20056 17.0325 5.14996 16.936 5.09944C16.9274 5.09497 16.9189 5.09049 16.9103 5.08601C16.5374 4.89112 16.1333 4.67986 15.8733 4.42167C15.6043 4.15424 15.3914 3.73906 15.1958 3.35765C15.1914 3.34902 15.187 3.34041 15.1826 3.33181L18.6651 6.58527ZM18.6651 6.58527C18.8569 7.0533 18.8265 7.54166 18.7113 8.04413ZM18.6651 6.58527L18.7113 8.04413ZM18.7113 8.04413C18.654 7.97416 18.5972 7.90621 18.5422 7.84045L18.5369 7.83415C18.3791 7.64549 18.2362 7.47405 18.1208 7.3116C18.1194 7.15388 18.0956 6.99509 18.0339 6.84445C17.9667 6.68088 17.8609 6.5412 17.739 6.42111L18.7113 8.04413ZM12.5601 1.80982C12.7546 1.97509 12.9308 2.12433 13.0973 2.24292C13.2485 2.24094 13.4026 2.26065 13.5463 2.32119C13.7059 2.38813 13.8385 2.49913 13.9498 2.62239L12.5601 1.80982ZM12.5601 1.80982L12.5518 1.80282C12.4969 1.75629 12.4406 1.70849 12.3828 1.66019M12.5601 1.80982L12.3828 1.66019ZM14.5757 3.64368L14.5795 3.65088C14.6358 3.76073 14.6914 3.86912 14.7488 3.9765C14.938 4.3303 15.1359 4.65141 15.3928 4.90651C15.6608 5.17277 16.0048 5.37774 16.3819 5.5793C16.46 5.62105 16.5384 5.66213 16.6176 5.70359L16.6199 5.70475C16.6278 5.70888 16.6356 5.71302 16.6436 5.71716C17.0321 5.92032 17.4553 6.14166 17.739 6.42111L14.5757 3.64368ZM14.5757 3.64368C14.5714 3.63525 14.5671 3.6268 14.5627 3.61834ZM14.5757 3.64368L14.5627 3.61834ZM12.3828 1.66019C12.8817 1.54126 13.361 1.5032 13.8093 1.69093L12.3828 1.66019ZM14.5627 3.61834C14.382 3.26624 14.1855 2.88332 13.9498 2.62239L14.5627 3.61834ZM13.8093 1.69093C14.4014 1.93901 14.7514 2.50234 15.0783 3.12933L13.8093 1.69093Z" fill="white"/>
<path d="M18.6651 6.58527C18.4105 5.96357 17.8511 5.59034 17.2257 5.25269C17.1292 5.20056 17.0325 5.14996 16.936 5.09944C16.9274 5.09497 16.9189 5.09049 16.9103 5.08601C16.5374 4.89112 16.1333 4.67986 15.8733 4.42167C15.6043 4.15424 15.3914 3.73906 15.1958 3.35765C15.1914 3.34902 15.187 3.34041 15.1826 3.33181L18.6651 6.58527ZM18.6651 6.58527C18.8569 7.0533 18.8265 7.54166 18.7113 8.04413M18.6651 6.58527L18.7113 8.04413M18.7113 8.04413C18.654 7.97416 18.5972 7.90621 18.5422 7.84045L18.5369 7.83415C18.3791 7.64549 18.2362 7.47405 18.1208 7.3116C18.1194 7.15388 18.0956 6.99509 18.0339 6.84445C17.9667 6.68088 17.8609 6.5412 17.739 6.42111M18.7113 8.04413L17.739 6.42111M17.739 6.42111C17.4553 6.14166 17.0321 5.92032 16.6436 5.71716C16.6356 5.71302 16.6278 5.70888 16.6199 5.70475L16.6176 5.70359C16.5384 5.66213 16.46 5.62105 16.3819 5.5793C16.0048 5.37774 15.6608 5.17277 15.3928 4.90651C15.1359 4.65141 14.938 4.3303 14.7488 3.9765C14.6914 3.86912 14.6358 3.76073 14.5795 3.65088L14.5757 3.64368M17.739 6.42111L14.5757 3.64368M12.5601 1.80982C12.7546 1.97509 12.9308 2.12433 13.0973 2.24292C13.2485 2.24094 13.4026 2.26065 13.5463 2.32119C13.7059 2.38813 13.8385 2.49913 13.9498 2.62239M12.5601 1.80982L13.9498 2.62239M12.5601 1.80982L12.5518 1.80282C12.4969 1.75629 12.4406 1.70849 12.3828 1.66019M12.5601 1.80982L12.3828 1.66019M13.9498 2.62239C14.1855 2.88332 14.382 3.26624 14.5627 3.61834M13.9498 2.62239L14.5627 3.61834M12.3828 1.66019C12.8817 1.54126 13.361 1.5032 13.8093 1.69093M12.3828 1.66019L13.8093 1.69093M14.5757 3.64368C14.5714 3.63525 14.5671 3.6268 14.5627 3.61834M14.5757 3.64368L14.5627 3.61834M13.8093 1.69093C14.4014 1.93901 14.7514 2.50234 15.0783 3.12933L13.8093 1.69093Z" stroke="white" stroke-width="1.79439"/>
<path d="M4.12505 12.4914C3.93354 12.0136 3.59283 11.6061 3.26333 11.212L3.19747 11.1332C2.848 10.714 2.53435 10.3183 2.53575 9.96956C2.53715 9.61058 2.87252 9.20469 3.2375 8.77466C3.24931 8.76077 3.26122 8.74682 3.27305 8.73281C3.60579 8.34132 3.94948 7.93649 4.14483 7.46023C4.3324 7.00248 4.37898 6.48583 4.42337 5.98672C4.4281 5.93383 4.43289 5.88129 4.43773 5.8291C4.32565 5.88909 4.21278 5.94697 4.10088 6.00423C3.72996 6.19442 3.37339 6.37743 3.13959 6.58863C3.11271 6.74204 3.07769 6.88216 3.02839 7.00219C2.98653 7.1044 2.9276 7.20852 2.85694 7.31466C2.72069 7.51918 2.54048 7.73135 2.35345 7.95157C2.19092 8.14281 2.0207 8.34289 1.86746 8.5558C1.5686 8.96906 1.33122 9.4294 1.32912 9.96501C1.3271 10.4826 1.54522 10.9315 1.82648 11.3361C1.98611 11.5656 2.16597 11.7808 2.33759 11.9861C2.51597 12.1994 2.68785 12.4053 2.82069 12.6038C2.89748 12.7185 2.96079 12.8307 3.0051 12.9406C3.05597 13.0674 3.09091 13.216 3.117 13.379C3.37024 13.6285 3.76156 13.8334 4.16918 14.0467C4.24895 14.0885 4.32925 14.1305 4.40937 14.1733C4.40341 14.1052 4.39781 14.0364 4.39185 13.9672C4.35131 13.4674 4.30893 12.9507 4.12505 12.4914Z" fill="#8B8B8B"/>
<path d="M4.55177 4.2586C4.77944 4.02954 4.97374 3.65756 5.17986 3.26378C5.2303 3.16746 5.2817 3.06922 5.33485 2.9707C4.84537 3.06291 4.36972 3.23594 3.99065 3.61203C3.59828 4.00134 3.4228 4.49564 3.3291 5.00237C3.39764 4.96665 3.46565 4.93162 3.53313 4.8973C3.9361 4.69047 4.31674 4.49529 4.55177 4.2586Z" fill="#707175"/>
<path d="M4.58664 15.7782C4.35766 15.5505 3.98568 15.356 3.59182 15.15C3.4955 15.0996 3.39725 15.0482 3.29883 14.9951C3.39095 15.4846 3.56398 15.9601 3.94015 16.3392C4.32937 16.7316 4.82376 16.9071 5.3305 17.0007C5.29477 16.9322 5.25975 16.8642 5.22542 16.7968C5.0186 16.3938 4.82332 16.0131 4.58664 15.7782Z" fill="#707175"/>
<path d="M16.071 4.22355C16.3 4.45121 16.672 4.64561 17.0658 4.85165C17.1621 4.90209 17.2604 4.95349 17.3588 5.00664C17.2667 4.51716 17.0937 4.04159 16.7175 3.66244C16.3283 3.27015 15.8338 3.09458 15.3271 3.00098C15.3629 3.06945 15.3978 3.13766 15.4322 3.20491C15.6395 3.60788 15.8343 3.98853 16.071 4.22355Z" fill="#707175"/>
<path d="M16.1063 15.7429C15.8787 15.972 15.6843 16.3439 15.4783 16.7377C15.4278 16.834 15.3764 16.9323 15.3232 17.0307C15.8127 16.9386 16.2884 16.7656 16.6675 16.3894C17.0598 16.0001 17.2353 15.5058 17.329 14.999C17.2605 15.0348 17.1925 15.0698 17.1251 15.1041C16.722 15.3109 16.3415 15.5062 16.1063 15.7429Z" fill="#707175"/>
<path d="M12.3148 17.9925C12.5282 17.8141 12.734 17.6422 12.9325 17.5094C13.0473 17.4327 13.1596 17.3693 13.2695 17.325C13.3962 17.2741 13.5448 17.2392 13.7079 17.2131C13.9573 16.9599 14.1622 16.5685 14.3755 16.1609C14.4173 16.0811 14.4593 16.0008 14.502 15.9207C14.434 15.9266 14.3653 15.9323 14.2961 15.9382C13.7964 15.979 13.2798 16.0213 12.8205 16.2054C12.3427 16.397 11.9352 16.7377 11.541 17.0672L11.4622 17.133C11.043 17.4826 10.6473 17.7962 10.2986 17.7948C9.93961 17.7933 9.53371 17.458 9.10369 17.093L9.06184 17.0574C8.67035 16.7247 8.26552 16.381 7.78926 16.1857C7.33139 15.9979 6.81514 15.9517 6.31582 15.907C6.26293 15.9022 6.21039 15.8974 6.1582 15.8926C6.2181 16.0047 6.27606 16.1175 6.33333 16.2295C6.52352 16.6004 6.70644 16.9569 6.91762 17.1908C7.07113 17.2176 7.21124 17.2527 7.33128 17.302C7.43348 17.3438 7.53749 17.4026 7.64363 17.4734C7.84826 17.6098 8.06044 17.7899 8.2806 17.9769C8.4719 18.1394 8.67198 18.3096 8.88477 18.4629C9.29797 18.7617 9.75843 18.9991 10.294 19.0012C10.8115 19.0032 11.2605 18.7852 11.6651 18.5038C11.8944 18.3437 12.1096 18.1638 12.3148 17.9925Z" fill="#8B8B8B"/>
<path d="M18.1228 10.0308C18.1214 10.3898 17.7861 10.7957 17.4211 11.2257C17.4093 11.2396 17.3974 11.2535 17.3856 11.2675C17.0528 11.659 16.7091 12.0638 16.5139 12.5401C16.326 12.998 16.2798 13.5142 16.235 14.0136C16.2303 14.0661 16.2255 14.1186 16.2207 14.1712C16.3328 14.1111 16.4456 14.0533 16.5576 13.996C16.9285 13.8058 17.285 13.6229 17.5188 13.4117C17.5457 13.2582 17.5808 13.1181 17.63 12.998C17.6719 12.8959 17.7307 12.7918 17.8015 12.6857C17.9377 12.481 18.1179 12.269 18.305 12.0488C18.4675 11.8575 18.6377 11.6574 18.791 11.4446C19.0898 11.0313 19.3272 10.5709 19.3293 10.0353C19.3313 9.5179 19.1132 9.06886 18.832 8.66432C18.6724 8.43482 18.4924 8.21955 18.3208 8.0143C18.1425 7.80095 17.9706 7.59513 17.8378 7.39663C17.7609 7.28194 17.6976 7.16961 17.6533 7.05981C17.6025 6.93302 17.5675 6.7843 17.5413 6.62127C17.2882 6.37188 16.8969 6.16698 16.4892 5.95377C16.4095 5.91199 16.3292 5.86997 16.2491 5.82715C16.255 5.89518 16.2606 5.96392 16.2665 6.03318C16.3074 6.53274 16.3496 7.04935 16.5338 7.50873C16.7253 7.98646 17.066 8.39398 17.3955 8.78812C17.4176 8.8145 17.4396 8.84077 17.4614 8.86693C17.8106 9.28638 18.1242 9.68209 18.1228 10.0308Z" fill="#8B8B8B"/>
<path d="M11.555 2.9091L11.5968 2.94466C11.9883 3.2774 12.3931 3.62118 12.8694 3.81645C13.3273 4.00418 13.8435 4.0505 14.3428 4.09525C14.3954 4.09998 14.4479 4.10474 14.5004 4.10953C14.4404 3.99744 14.3825 3.88457 14.3253 3.77266C14.1351 3.40183 13.9521 3.04527 13.7409 2.81147C13.5875 2.7845 13.4474 2.74947 13.3273 2.70027C13.2252 2.65832 13.1211 2.59948 13.015 2.52881C12.8103 2.39248 12.5982 2.21226 12.3779 2.02523C12.1867 1.86271 11.9866 1.69248 11.7738 1.53925C11.3606 1.24039 10.9002 1.00309 10.3645 1.00099C9.84701 0.998976 9.39803 1.21701 8.99349 1.49836C8.76393 1.6579 8.54878 1.83775 8.34341 2.00938C8.13012 2.18775 7.92424 2.35964 7.72574 2.49256C7.61105 2.56927 7.49878 2.63267 7.38887 2.67697C7.26219 2.72776 7.11353 2.7627 6.95046 2.78888C6.70107 3.04203 6.49618 3.43344 6.28287 3.84096C6.2411 3.92082 6.19907 4.00112 6.15625 4.08115C6.22437 4.0752 6.29311 4.06959 6.36229 4.06364C6.86192 4.02284 7.37857 3.98063 7.8379 3.79648C8.31568 3.60489 8.72321 3.26418 9.11723 2.93467C9.1435 2.9127 9.16977 2.89089 9.19604 2.86883C9.61532 2.51936 10.011 2.2057 10.3597 2.2071C10.7192 2.20877 11.1249 2.54422 11.555 2.9091Z" fill="#8B8B8B"/>
<path fill-rule="evenodd" clip-rule="evenodd" d="M14.5385 5.64262C14.5385 6.004 14.2406 6.29696 13.8732 6.29696C13.5059 6.29696 13.208 6.004 13.208 5.64262C13.208 5.28124 13.5059 4.98828 13.8732 4.98828C14.2406 4.98828 14.5385 5.28124 14.5385 5.64262ZM9.68322 6.46484C8.76687 6.52733 7.90226 6.91655 7.2541 7.56331C6.67968 8.13648 6.31332 8.87397 6.20231 9.6623C6.19157 9.61454 6.18177 9.56651 6.17292 9.51824C6.07509 10.0531 6.09783 10.6026 6.23954 11.1279C6.38125 11.6531 6.63847 12.1414 6.99305 12.5582C7.34759 12.9749 7.79089 13.3101 8.29151 13.5399C8.79184 13.7695 9.33729 13.8884 9.88938 13.8881H9.89056H12.0118C12.1842 13.8823 12.3475 13.8109 12.4674 13.6889C12.5873 13.5669 12.6543 13.4039 12.6543 13.2342C12.6543 13.0645 12.5873 12.9015 12.4674 12.7795C12.4375 12.749 12.4048 12.7216 12.3699 12.6977C12.2653 12.6258 12.1411 12.5846 12.0118 12.5802H9.8905H9.88454C9.49968 12.5786 9.12056 12.4879 8.778 12.3152C8.43365 12.1416 8.13603 11.8903 7.90952 11.5817C7.683 11.2731 7.53405 10.9161 7.47494 10.54C7.41576 10.1639 7.44811 9.7793 7.56921 9.41784C7.69037 9.05638 7.89686 8.72828 8.17181 8.46048C8.44675 8.19268 8.78234 7.99282 9.15099 7.87723C9.20302 7.86092 9.25545 7.84635 9.30832 7.83353C9.62101 7.75815 9.94652 7.74398 10.2661 7.79269C10.6577 7.85231 11.0287 8.00452 11.3474 8.23627V9.86592L11.3473 9.85608V11.164C11.3473 11.3373 11.4173 11.5036 11.5419 11.6261C11.5818 11.6654 11.6263 11.6991 11.6741 11.7269C11.7755 11.7858 11.892 11.8176 12.0118 11.8176C12.188 11.8176 12.357 11.7487 12.4816 11.6262C12.6062 11.5036 12.6762 11.3373 12.6762 11.164V7.93123C12.6764 7.84157 12.6577 7.75281 12.6214 7.67057C12.5851 7.58828 12.532 7.51426 12.4654 7.45306C11.7668 6.81137 10.8463 6.45504 9.89056 6.45632C9.85399 6.45683 9.81755 6.45786 9.78115 6.45942C9.7712 6.45956 9.76141 6.45978 9.75179 6.4601C9.7289 6.46136 9.706 6.46294 9.68322 6.46484ZM13.4096 7.10915C13.5342 6.98658 13.7032 6.91773 13.8795 6.91773C14.0556 6.91773 14.2247 6.98658 14.3493 7.10915C14.4739 7.23177 14.5439 7.39799 14.5439 7.57135V10.8148V13.2346C14.5439 13.4079 14.4739 13.5742 14.3493 13.6968C14.2247 13.8193 14.0556 13.8882 13.8795 13.8882C13.7032 13.8882 13.5342 13.8193 13.4096 13.6968C13.285 13.5742 13.215 13.4079 13.215 13.2346V10.8148V7.57135C13.215 7.39799 13.285 7.23177 13.4096 7.10915Z" fill="white"/>
</svg>
