<svg width="20" height="18" viewBox="0 0 20 18" fill="none" xmlns="http://www.w3.org/2000/svg">
<path d="M19.201 7.83229L12.4933 1.12476C12.3711 1.00254 12.1869 0.966548 12.0262 1.03268C11.8655 1.0988 11.7625 1.25535 11.7625 1.42946V4.98198C11.2779 4.90246 10.7873 4.86228 10.2943 4.86228C5.35046 4.86228 1.32812 8.88453 1.32812 13.8282C1.32812 14.6745 1.44615 15.5124 1.6797 16.3185C1.73327 16.5027 1.90068 16.6291 2.09155 16.6291C2.28241 16.6291 2.44983 16.5027 2.50341 16.3185C3.49787 12.8706 6.70403 10.4624 10.295 10.4624C10.788 10.4624 11.2811 10.5076 11.7633 10.5955V14.8444C11.7633 15.0177 11.8679 15.1742 12.0269 15.2412C12.1877 15.3073 12.3718 15.2713 12.4941 15.1491L19.2017 8.44159C19.2829 8.36039 19.3281 8.25325 19.3281 8.1394C19.3281 8.02555 19.2829 7.91673 19.2017 7.8372L19.201 7.83229ZM12.618 13.8091V10.254C12.6222 10.0548 12.4875 9.8723 12.284 9.82542C11.6328 9.67725 10.9639 9.60275 10.2909 9.60275C6.83454 9.60275 3.70389 11.6193 2.22311 14.6536C2.19549 14.379 2.18042 14.1028 2.18042 13.8266C2.18042 9.35408 5.81916 5.71777 10.2894 5.71777C10.8979 5.71777 11.5048 5.78641 12.0916 5.91951C12.3227 5.97308 12.552 5.82743 12.6039 5.59556C12.6123 5.56124 12.6148 5.52525 12.6148 5.49093V2.46063L18.2894 8.13271L12.6148 13.8072L12.618 13.8091Z" fill="white" stroke="white" stroke-width="0.807477"/>
</svg>
