<svg width="20" height="20" viewBox="0 0 20 20" fill="none" xmlns="http://www.w3.org/2000/svg">
<path d="M16.8279 6.91113H12.6283C12.4669 6.91113 12.3281 7.05628 12.3281 7.22499C12.3281 7.3937 12.4669 7.53885 12.6283 7.53885L16.8279 7.53791C16.9893 7.53791 17.1281 7.39277 17.1281 7.22405C17.1281 7.05534 17.0127 6.91113 16.8279 6.91113Z" fill="white" stroke="white" stroke-width="0.3"/>
<path d="M16.8279 8.79297H12.6283C12.4669 8.79297 12.3281 8.93812 12.3281 9.10683C12.3281 9.27554 12.4669 9.42069 12.6283 9.42069L16.8279 9.41975C16.9893 9.41975 17.1281 9.2746 17.1281 9.10589C17.1281 8.91362 17.0127 8.79297 16.8279 8.79297Z" fill="white" stroke="white" stroke-width="0.3"/>
<path d="M6.83047 5.65799H12.2789C12.4271 5.65799 12.5547 5.51285 12.5547 5.34413C12.5547 5.17542 12.4272 5.03027 12.2789 5.03027H6.83047C6.68223 5.03027 6.55469 5.17542 6.55469 5.34413C6.55469 5.51285 6.6814 5.65799 6.83047 5.65799Z" fill="white" stroke="white" stroke-width="0.3"/>
<path d="M6.83047 3.79764H12.2789C12.4271 3.79764 12.5547 3.6525 12.5547 3.48378C12.5547 3.31507 12.4272 3.16992 12.2789 3.16992L6.83047 3.17086C6.68223 3.17086 6.55469 3.31601 6.55469 3.48472C6.55469 3.65343 6.6814 3.79764 6.83047 3.79764Z" fill="white" stroke="white" stroke-width="0.3"/>
<path d="M16.8279 10.6504H12.6283C12.4669 10.6504 12.3281 10.7955 12.3281 10.9643C12.3281 11.133 12.4669 11.2781 12.6283 11.2781L16.8279 11.2772C16.9893 11.2772 17.1281 11.132 17.1281 10.9633C17.1281 10.7946 17.0127 10.6504 16.8279 10.6504Z" fill="white" stroke="white" stroke-width="0.3"/>
<path d="M16.8267 12.5322H6.62959C6.46754 12.5322 6.32812 12.6774 6.32812 12.8461C6.32812 13.0148 6.46754 13.1599 6.62959 13.1599H16.8267C16.9887 13.1599 17.1281 13.0148 17.1281 12.8461C17.1281 12.6529 17.0123 12.5322 16.8267 12.5322Z" fill="white" stroke="white" stroke-width="0.3"/>
<path d="M16.8267 14.3926H6.62959C6.46754 14.3926 6.32812 14.5377 6.32812 14.7064C6.32812 14.8751 6.46754 15.0203 6.62959 15.0203H16.8267C16.9887 15.0203 17.1281 14.8752 17.1281 14.7064C17.1281 14.5368 17.0123 14.3926 16.8267 14.3926Z" fill="white" stroke="white" stroke-width="0.3"/>
<path d="M16.8267 16.2744H6.62959C6.46754 16.2744 6.32812 16.4196 6.32812 16.5883C6.32812 16.757 6.46754 16.9021 6.62959 16.9021H16.8267C16.9887 16.9021 17.1281 16.757 17.1281 16.5883C17.1281 16.3951 17.0123 16.2744 16.8267 16.2744Z" fill="white" stroke="white" stroke-width="0.3"/>
<path d="M6.86757 6.91016C6.69886 6.91016 6.55371 7.0553 6.55371 7.22402V10.9639C6.55371 11.1326 6.69886 11.2778 6.86757 11.2778H11.2587C11.4274 11.2778 11.5725 11.1326 11.5725 10.9639V7.22402C11.5725 7.05531 11.4274 6.91016 11.2587 6.91016H6.86757ZM10.9448 10.65H7.18027V7.53701H10.9448V10.65Z" fill="white" stroke="white" stroke-width="0.3"/>
<path d="M19.607 5.68045C19.607 5.63238 19.607 5.60787 19.5825 5.58431V5.55981C19.558 5.5353 19.558 5.48723 19.5344 5.46367L15.0953 1.07257C15.0708 1.04807 15.0473 1.0245 14.9992 1.0245H14.9747C14.9502 1.0245 14.9266 1 14.8786 1H14.854H4.79281C4.6241 1 4.47895 1.14515 4.47895 1.31386V3.07541H2.7174C2.54869 3.07541 2.40354 3.22056 2.40354 3.38927V5.15083H0.641985C0.473276 5.15083 0.328125 5.29597 0.328125 5.46469V16.6117C0.328125 17.9387 1.38938 19 2.71643 19H17.2424C18.5694 19 19.6307 17.9387 19.6307 16.6117V15.164C19.6307 15.1159 19.6062 15.0679 19.6062 15.0189L19.607 5.68045ZM15.1923 2.03757L18.5222 5.3675L15.1923 5.36656V2.03757ZM2.71725 18.3478C1.75212 18.3478 0.955696 17.5513 0.955696 16.5862V15.1385L0.956638 5.75312H2.40433V16.2489C2.40433 16.4176 2.54948 16.5628 2.71819 16.5628C2.8869 16.5628 3.03205 16.4176 3.03205 16.2489L3.03111 5.43921V3.67766H4.4788V16.5863C4.4788 17.5759 3.70689 18.3478 2.71725 18.3478ZM19.0038 16.5862C19.0038 17.5513 18.2074 18.3478 17.2423 18.3478H4.31C4.79257 17.9133 5.10643 17.2865 5.10643 16.5862V1.60307H14.5645V5.70487C14.5645 5.87357 14.7096 6.01873 14.8783 6.01873H18.9801V15.574C18.9801 15.6221 19.0046 15.6701 19.0046 15.7191L19.0038 16.5862Z" fill="white" stroke="white" stroke-width="0.67"/>
</svg>
