<svg width="20" height="18" viewBox="0 0 20 18" fill="none" xmlns="http://www.w3.org/2000/svg">
<path d="M18.8729 7.83229L12.1652 1.12476C12.043 1.00254 11.8588 0.966548 11.6981 1.03268C11.5374 1.0988 11.4344 1.25535 11.4344 1.42946V4.98198C10.9497 4.90246 10.4592 4.86228 9.96614 4.86228C5.02233 4.86228 1 8.88453 1 13.8282C1 14.6745 1.11803 15.5124 1.35157 16.3185C1.40515 16.5027 1.57256 16.6291 1.76343 16.6291C1.95429 16.6291 2.12171 16.5027 2.17528 16.3185C3.16974 12.8706 6.37591 10.4624 9.96686 10.4624C10.4599 10.4624 10.953 10.5076 11.4351 10.5955V14.8444C11.4351 15.0177 11.5398 15.1742 11.6988 15.2412C11.8595 15.3073 12.0437 15.2713 12.1659 15.1491L18.8736 8.44159C18.9548 8.36039 19 8.25325 19 8.1394C19 8.02555 18.9548 7.91673 18.8736 7.8372L18.8729 7.83229ZM12.2899 13.8091V10.254C12.2941 10.0548 12.1593 9.8723 11.9559 9.82542C11.3046 9.67725 10.6358 9.60275 9.96279 9.60275C6.50642 9.60275 3.37577 11.6193 1.89499 14.6536C1.86736 14.379 1.85229 14.1028 1.85229 13.8266C1.85229 9.35408 5.49103 5.71777 9.96124 5.71777C10.5698 5.71777 11.1767 5.78641 11.7635 5.91951C11.9945 5.97308 12.2239 5.82743 12.2758 5.59556C12.2842 5.56124 12.2867 5.52525 12.2867 5.49093V2.46063L17.9612 8.13271L12.2867 13.8072L12.2899 13.8091Z" fill="#7C7C7C" stroke="#7C7C7C" stroke-width="0.807477"/>
</svg>
