<svg width="21" height="20" viewBox="0 0 21 20" fill="none" xmlns="http://www.w3.org/2000/svg">
<path d="M17.4998 6.91113H13.3002C13.1388 6.91113 13 7.05628 13 7.22499C13 7.3937 13.1388 7.53885 13.3002 7.53885L17.4998 7.53791C17.6612 7.53791 17.8 7.39277 17.8 7.22405C17.8 7.05534 17.6846 6.91113 17.4998 6.91113Z" fill="#7C7C7C" stroke="#7C7C7C" stroke-width="0.3"/>
<path d="M17.4998 8.79297H13.3002C13.1388 8.79297 13 8.93812 13 9.10683C13 9.27554 13.1388 9.42069 13.3002 9.42069L17.4998 9.41975C17.6612 9.41975 17.8 9.2746 17.8 9.10589C17.8 8.91362 17.6846 8.79297 17.4998 8.79297Z" fill="#7C7C7C" stroke="#7C7C7C" stroke-width="0.3"/>
<path d="M7.50234 5.65799H12.9508C13.099 5.65799 13.2266 5.51285 13.2266 5.34413C13.2266 5.17542 13.099 5.03027 12.9508 5.03027H7.50234C7.3541 5.03027 7.22656 5.17542 7.22656 5.34413C7.22656 5.51285 7.35327 5.65799 7.50234 5.65799Z" fill="#7C7C7C" stroke="#7C7C7C" stroke-width="0.3"/>
<path d="M7.50234 3.79764H12.9508C13.099 3.79764 13.2266 3.6525 13.2266 3.48378C13.2266 3.31507 13.099 3.16992 12.9508 3.16992L7.50234 3.17086C7.3541 3.17086 7.22656 3.31601 7.22656 3.48472C7.22656 3.65343 7.35327 3.79764 7.50234 3.79764Z" fill="#7C7C7C" stroke="#7C7C7C" stroke-width="0.3"/>
<path d="M17.4998 10.6504H13.3002C13.1388 10.6504 13 10.7955 13 10.9643C13 11.133 13.1388 11.2781 13.3002 11.2781L17.4998 11.2772C17.6612 11.2772 17.8 11.132 17.8 10.9633C17.8 10.7946 17.6846 10.6504 17.4998 10.6504Z" fill="#7C7C7C" stroke="#7C7C7C" stroke-width="0.3"/>
<path d="M17.4985 12.5322H7.30146C7.13942 12.5322 7 12.6774 7 12.8461C7 13.0148 7.13941 13.1599 7.30146 13.1599H17.4985C17.6606 13.1599 17.8 13.0148 17.8 12.8461C17.8 12.6529 17.6841 12.5322 17.4985 12.5322Z" fill="#7C7C7C" stroke="#7C7C7C" stroke-width="0.3"/>
<path d="M17.4985 14.3926H7.30146C7.13942 14.3926 7 14.5377 7 14.7064C7 14.8751 7.13941 15.0203 7.30146 15.0203H17.4985C17.6606 15.0203 17.8 14.8752 17.8 14.7064C17.8 14.5368 17.6841 14.3926 17.4985 14.3926Z" fill="#7C7C7C" stroke="#7C7C7C" stroke-width="0.3"/>
<path d="M17.4985 16.2744H7.30146C7.13942 16.2744 7 16.4196 7 16.5883C7 16.757 7.13941 16.9021 7.30146 16.9021H17.4985C17.6606 16.9021 17.8 16.757 17.8 16.5883C17.8 16.3951 17.6841 16.2744 17.4985 16.2744Z" fill="#7C7C7C" stroke="#7C7C7C" stroke-width="0.3"/>
<path d="M7.53945 6.91016C7.37074 6.91016 7.22559 7.0553 7.22559 7.22402V10.9639C7.22559 11.1326 7.37073 11.2778 7.53945 11.2778H11.9305C12.0993 11.2778 12.2444 11.1326 12.2444 10.9639V7.22402C12.2444 7.05531 12.0993 6.91016 11.9305 6.91016H7.53945ZM11.6166 10.65H7.85215V7.53701H11.6166V10.65Z" fill="#7C7C7C" stroke="#7C7C7C" stroke-width="0.3"/>
<path d="M20.2789 5.68045C20.2789 5.63238 20.2789 5.60787 20.2544 5.58431V5.55981C20.2299 5.5353 20.2299 5.48723 20.2063 5.46367L15.7672 1.07257C15.7427 1.04807 15.7191 1.0245 15.6711 1.0245H15.6466C15.6221 1.0245 15.5985 1 15.5504 1H15.5259H5.46469C5.29598 1 5.15083 1.14515 5.15083 1.31386V3.07541H3.38927C3.22057 3.07541 3.07541 3.22056 3.07541 3.38927V5.15083H1.31386C1.14515 5.15083 1 5.29597 1 5.46469V16.6117C1 17.9387 2.06126 19 3.38831 19H17.9142C19.2413 19 20.3025 17.9387 20.3025 16.6117V15.164C20.3025 15.1159 20.278 15.0679 20.278 15.0189L20.2789 5.68045ZM15.8641 2.03757L19.1941 5.3675L15.8641 5.36656V2.03757ZM3.38912 18.3478C2.424 18.3478 1.62757 17.5513 1.62757 16.5862V15.1385L1.62851 5.75312H3.07621V16.2489C3.07621 16.4176 3.22135 16.5628 3.39007 16.5628C3.55878 16.5628 3.70393 16.4176 3.70393 16.2489L3.70298 5.43921V3.67766H5.15068V16.5863C5.15068 17.5759 4.37877 18.3478 3.38912 18.3478ZM19.6757 16.5862C19.6757 17.5513 18.8793 18.3478 17.9141 18.3478H4.98188C5.46444 17.9133 5.7783 17.2865 5.7783 16.5862V1.60307H15.2363V5.70487C15.2363 5.87357 15.3815 6.01873 15.5502 6.01873H19.652V15.574C19.652 15.6221 19.6765 15.6701 19.6765 15.7191L19.6757 16.5862Z" fill="#7C7C7C" stroke="#7C7C7C" stroke-width="0.67"/>
</svg>
