<svg width="18" height="18" viewBox="0 0 18 18" fill="none" xmlns="http://www.w3.org/2000/svg">
<path d="M8.77066 2.67969H2.98463L2.98258 3.69136L2.97923 4.70406L2.71633 4.70741L2.45215 4.70973V6.69522H2.98463L2.98258 8.40005L2.97923 10.1062L2.71633 10.1095L2.45215 10.1118V12.0863L2.71633 12.0883L2.97923 12.0917L2.98258 13.1754L2.98463 14.2602H14.5544V2.67969H8.77066ZM13.6349 8.47009V13.3397L8.76834 13.3374L3.90181 13.3341V12.0917L4.16599 12.0883L4.42889 12.0863V10.1116L4.16599 10.1093L3.90181 10.1059L3.89846 8.3998L3.8964 6.69497H4.42683V4.70947L4.16393 4.70715L3.89975 4.7038L3.8964 4.16591C3.8964 3.86954 3.8964 3.62107 3.89975 3.61334C3.9031 3.60562 4.88825 3.60021 8.76937 3.60021H13.6336L13.6349 8.47009Z" fill="white"/>
<path d="M17.3409 0H0.328125V17.0115H1.53111V17.8839H4.17629V17.0115H13.3498V18H15.9958V17.0115H17.3409V0ZM16.0908 15.7614H1.57823V1.24985H16.0895L16.0908 15.7614Z" fill="white"/>
<path d="M9.02411 7.46944C8.90634 7.43755 8.68623 7.43344 8.56556 7.45929C8.38636 7.499 8.22154 7.58731 8.08915 7.71455C7.95676 7.84179 7.86191 8.00306 7.81499 8.18067C7.78171 8.33016 7.77819 8.48474 7.80461 8.63558C7.84709 8.82958 7.94662 9.0064 8.09036 9.14327C8.23411 9.28015 8.4155 9.37082 8.61118 9.40359C8.70916 9.42026 8.93023 9.41181 9.01494 9.3891C9.19255 9.34257 9.35398 9.24813 9.48165 9.11607C9.60932 8.98401 9.69833 8.81939 9.73896 8.64018C9.7631 8.53484 9.7631 8.31161 9.73896 8.21232C9.69772 8.03551 9.60952 7.87314 9.48369 7.74238C9.35786 7.61161 9.19907 7.51731 9.02411 7.46944Z" fill="white"/>
<path d="M12.1668 7.81368C12.011 6.96694 11.5455 6.20833 10.8609 5.68528C10.3741 5.31183 9.79566 5.07607 9.18627 5.00273C9.06136 4.98584 8.6391 4.97337 8.53647 4.98266C8.38952 4.99636 8.20092 5.02254 8.0858 5.04554C7.4322 5.17861 6.83093 5.49722 6.35412 5.96314C5.87731 6.42907 5.54522 7.02251 5.3977 7.67227C5.33573 7.95068 5.32422 8.0522 5.32422 8.4155C5.32422 8.76607 5.32936 8.82992 5.37761 9.08117C5.4334 9.37713 5.53009 9.6639 5.66492 9.93326C5.80063 10.2163 5.9756 10.4789 6.18466 10.7132C6.66776 11.2586 7.31117 11.6374 8.02286 11.7955C8.55056 11.9083 9.09703 11.8999 9.62102 11.771C10.8947 11.4464 11.8942 10.3976 12.1521 9.1142C12.2361 8.68519 12.2411 8.24447 12.1668 7.81368ZM11.0286 8.66136H11.3409L11.3326 8.73671C11.2942 9.04048 11.2031 9.33521 11.0632 9.60764C10.9822 9.75824 10.8893 9.90214 10.7854 10.038L10.7487 10.0798L10.5282 9.85963L10.3078 9.63945L10.1454 9.80165L9.98278 9.96458L10.2032 10.1848L10.4256 10.4069L10.3636 10.4558C10.018 10.7267 9.60903 10.9054 9.17525 10.9752C9.103 10.9867 9.03368 10.996 9.02119 10.996H8.9967V10.3783H8.53647V10.687C8.53647 10.9948 8.53647 10.9958 8.51443 10.9958C8.43801 10.9958 8.16442 10.9402 8.01232 10.8954C7.71571 10.8054 7.36938 10.6222 7.14895 10.4367L7.11759 10.4106L7.33803 10.1904L7.55847 9.97021L7.3929 9.80581L7.2283 9.64043L7.01032 9.85816C6.89079 9.97754 6.78988 10.0749 6.78596 10.0749C6.77151 10.0749 6.61745 9.86036 6.54495 9.7378C6.4186 9.52009 6.32237 9.28628 6.25887 9.04276C6.23265 8.9289 6.21343 8.81354 6.20131 8.69733V8.66161H6.81756V8.19043H6.19617L6.20352 8.1141C6.22801 7.85747 6.35047 7.46286 6.48543 7.21699C6.56724 7.06727 6.76416 6.77663 6.784 6.77663C6.78841 6.77663 6.88883 6.87449 7.00836 6.99339L7.22634 7.21112L7.38873 7.04892L7.55137 6.88672L7.33093 6.66654L7.11049 6.44636L7.21434 6.36783C7.56149 6.10825 7.96758 5.93856 8.39637 5.8739C8.44879 5.86534 8.5012 5.85922 8.51492 5.858H8.53794V6.486H8.9989V6.17016C8.9989 5.97445 9.00331 5.85604 9.00943 5.85604C9.13152 5.86955 9.25266 5.89055 9.37217 5.91891C9.71638 6.0001 10.0398 6.15236 10.3215 6.36588L10.4276 6.44441L10.2052 6.6663L9.98474 6.88648L10.1491 7.05186L10.3147 7.21626L10.5351 6.99608L10.7555 6.7759L10.818 6.85761C11.0984 7.22519 11.2763 7.66042 11.3336 8.11899L11.3409 8.19018H10.7163V8.66112L11.0286 8.66136Z" fill="white"/>
</svg>
