<svg width="18" height="18" viewBox="0 0 18 18" fill="none" xmlns="http://www.w3.org/2000/svg">
<path d="M8.44254 2.67969H2.65651L2.65445 3.69136L2.6511 4.70406L2.38821 4.70741L2.12402 4.70973V6.69522H2.65651L2.65445 8.40005L2.6511 10.1062L2.38821 10.1095L2.12402 10.1118V12.0863L2.38821 12.0883L2.6511 12.0917L2.65445 13.1754L2.65651 14.2602H14.2262V2.67969H8.44254ZM13.3068 8.47009V13.3397L8.44022 13.3374L3.57368 13.3341V12.0917L3.83787 12.0883L4.10076 12.0863V10.1116L3.83787 10.1093L3.57368 10.1059L3.57034 8.3998L3.56828 6.69497H4.0987V4.70947L3.83581 4.70715L3.57162 4.7038L3.56828 4.16591C3.56828 3.86954 3.56828 3.62107 3.57162 3.61334C3.57497 3.60562 4.56012 3.60021 8.44125 3.60021H13.3055L13.3068 8.47009Z" fill="#7C7C7C"/>
<path d="M17.0128 0H0V17.0115H1.20299V17.8839H3.84817V17.0115H13.0217V18H15.6677V17.0115H17.0128V0ZM15.7627 15.7614H1.25011V1.24985H15.7614L15.7627 15.7614Z" fill="#7C7C7C"/>
<path d="M8.69599 7.46944C8.57821 7.43755 8.35811 7.43344 8.23744 7.45929C8.05824 7.499 7.89342 7.58731 7.76103 7.71455C7.62863 7.84179 7.53378 8.00306 7.48687 8.18067C7.45359 8.33016 7.45006 8.48474 7.47649 8.63558C7.51897 8.82958 7.61849 9.0064 7.76224 9.14327C7.90599 9.28015 8.08738 9.37082 8.28305 9.40359C8.38104 9.42026 8.6021 9.41181 8.68681 9.3891C8.86442 9.34257 9.02586 9.24813 9.15353 9.11607C9.2812 8.98401 9.3702 8.81939 9.41084 8.64018C9.43497 8.53484 9.43497 8.31161 9.41084 8.21232C9.3696 8.03551 9.2814 7.87314 9.15557 7.74238C9.02973 7.61161 8.87095 7.51731 8.69599 7.46944Z" fill="#7C7C7C"/>
<path d="M11.8387 7.81368C11.6828 6.96694 11.2174 6.20833 10.5327 5.68528C10.046 5.31183 9.46754 5.07607 8.85815 5.00273C8.73323 4.98584 8.31097 4.97337 8.20835 4.98266C8.06139 4.99636 7.87279 5.02254 7.75768 5.04554C7.10408 5.17861 6.5028 5.49722 6.02599 5.96314C5.54918 6.42907 5.21709 7.02251 5.06957 7.67227C5.00761 7.95068 4.99609 8.0522 4.99609 8.4155C4.99609 8.76607 5.00124 8.82992 5.04949 9.08117C5.10528 9.37713 5.20197 9.6639 5.33679 9.93326C5.47251 10.2163 5.64747 10.4789 5.85653 10.7132C6.33963 11.2586 6.98304 11.6374 7.69473 11.7955C8.22243 11.9083 8.7689 11.8999 9.2929 11.771C10.5665 11.4464 11.5661 10.3976 11.824 9.1142C11.908 8.68519 11.913 8.24447 11.8387 7.81368ZM10.7005 8.66136H11.0128L11.0045 8.73671C10.9661 9.04048 10.8749 9.33521 10.735 9.60764C10.6541 9.75824 10.5612 9.90214 10.4573 10.038L10.4206 10.0798L10.2001 9.85963L9.97968 9.63945L9.81729 9.80165L9.65466 9.96458L9.8751 10.1848L10.0975 10.4069L10.0355 10.4558C9.68983 10.7267 9.28091 10.9054 8.84713 10.9752C8.77487 10.9867 8.70556 10.996 8.69306 10.996H8.66857V10.3783H8.20835V10.687C8.20835 10.9948 8.20835 10.9957 8.1863 10.9957C8.10989 10.9957 7.8363 10.9402 7.6842 10.8954C7.38759 10.8054 7.04126 10.6222 6.82082 10.4367L6.78947 10.4106L7.00991 10.1904L7.23034 9.97021L7.06477 9.80581L6.90018 9.64043L6.68219 9.85816C6.56266 9.97754 6.46175 10.0749 6.45783 10.0749C6.44338 10.0749 6.28932 9.86036 6.21682 9.73779C6.09048 9.52009 5.99424 9.28628 5.93075 9.04276C5.90452 8.9289 5.8853 8.81354 5.87319 8.69733V8.66161H6.48943V8.19043H5.86804L5.87539 8.1141C5.89988 7.85747 6.02235 7.46286 6.15731 7.21699C6.23911 7.06727 6.43604 6.77663 6.45588 6.77663C6.46028 6.77663 6.56071 6.87449 6.68023 6.99339L6.89822 7.21112L7.06061 7.04892L7.22324 6.88672L7.0028 6.66654L6.78237 6.44636L6.88622 6.36783C7.23337 6.10825 7.63946 5.93856 8.06825 5.8739C8.12066 5.86534 8.17308 5.85922 8.18679 5.858H8.20982V6.486H8.67078V6.17016C8.67078 5.97445 8.67518 5.85604 8.68131 5.85604C8.8034 5.86955 8.92454 5.89055 9.04405 5.91891C9.38826 6.0001 9.71164 6.15236 9.9934 6.36588L10.0995 6.44441L9.87706 6.6663L9.65662 6.88648L9.82097 7.05186L9.98654 7.21626L10.207 6.99608L10.4274 6.7759L10.4899 6.85761C10.7703 7.22519 10.9482 7.66042 11.0054 8.11899L11.0128 8.19018H10.3882V8.66112L10.7005 8.66136Z" fill="#7C7C7C"/>
</svg>
