<svg width="20" height="20" viewBox="0 0 20 20" fill="none" xmlns="http://www.w3.org/2000/svg">
<path d="M18.4548 7.89284H16.3418C16.2406 7.59037 16.1181 7.29537 15.9765 7.00993L17.4707 5.5157C17.6837 5.30269 17.6837 4.95656 17.4707 4.74463L15.2597 2.53363C15.0552 2.32915 14.6931 2.32915 14.4887 2.53363L12.9987 4.01827C12.7101 3.87343 12.413 3.74882 12.1094 3.64764V1.54529C12.1094 1.24495 11.8645 1 11.5641 1H8.43497C8.13462 1 7.88968 1.24496 7.88968 1.54529V3.637C7.58189 3.73818 7.27942 3.86279 6.9876 4.01083L5.50934 2.53257C5.40604 2.42926 5.26971 2.37175 5.12486 2.37175C4.98001 2.37175 4.84155 2.42926 4.74037 2.53257L2.52938 4.74357C2.31638 4.95657 2.31638 5.30271 2.52938 5.51463L4.00123 6.98649C3.85426 7.28043 3.7254 7.58396 3.62528 7.89388H1.54529C1.24495 7.89388 1 8.13884 1 8.43917V11.5661C1 11.8665 1.24496 12.1114 1.54529 12.1114H3.62528C3.72859 12.4224 3.85426 12.7249 4.00123 13.0167L2.52938 14.4886C2.31638 14.7016 2.31638 15.0477 2.52938 15.2596L4.74037 17.4706C4.94486 17.6751 5.30696 17.6751 5.51144 17.4706L6.99183 15.9902C7.28364 16.1372 7.58399 16.2597 7.89178 16.3609V18.4547C7.89178 18.7551 8.13674 19 8.43707 19H11.564C11.8644 19 12.1093 18.755 12.1093 18.4547V16.3502C12.415 16.249 12.7089 16.1244 12.9986 15.9796L14.4897 17.4706C14.593 17.5739 14.7293 17.6314 14.8742 17.6314C15.019 17.6314 15.1575 17.5739 15.2586 17.4706L17.4696 15.2596C17.6826 15.0466 17.6826 14.7005 17.4696 14.4886L15.9733 12.9922C16.1181 12.7057 16.2374 12.4118 16.3386 12.1093H18.4548C18.7551 12.1093 19.0001 11.8643 19.0001 11.564V8.43811C19.0001 8.13563 18.7573 7.89284 18.4548 7.89284ZM9.9995 13.2263C8.21879 13.2263 6.77682 11.7843 6.77682 10.0037C6.77682 8.22304 8.21887 6.78099 9.9995 6.78099C11.7801 6.78099 13.2222 8.22304 13.2222 10.0037C13.2222 11.7833 11.7801 13.2263 9.9995 13.2263Z" stroke="#7C7C7C" stroke-width="1.79439"/>
</svg>
