<svg width="21" height="20" viewBox="0 0 21 20" fill="none" xmlns="http://www.w3.org/2000/svg">
<path d="M18.7829 7.89284H16.6699C16.5687 7.59037 16.4463 7.29537 16.3046 7.00993L17.7989 5.5157C18.0119 5.30269 18.0119 4.95656 17.7989 4.74463L15.5879 2.53363C15.3834 2.32915 15.0213 2.32915 14.8168 2.53363L13.3268 4.01827C13.0382 3.87343 12.7411 3.74882 12.4375 3.64764V1.54529C12.4375 1.24495 12.1926 1 11.8923 1H8.7631C8.46275 1 8.2178 1.24496 8.2178 1.54529V3.637C7.91001 3.73818 7.60754 3.86279 7.31573 4.01083L5.83747 2.53257C5.73416 2.42926 5.59784 2.37175 5.45298 2.37175C5.30813 2.37175 5.16968 2.42926 5.0685 2.53257L2.85751 4.74357C2.6445 4.95657 2.6445 5.30271 2.85751 5.51463L4.32936 6.98649C4.18238 7.28043 4.05352 7.58396 3.9534 7.89388H1.87342C1.57307 7.89388 1.32812 8.13884 1.32812 8.43917V11.5661C1.32812 11.8665 1.57308 12.1114 1.87342 12.1114H3.9534C4.05671 12.4224 4.18238 12.7249 4.32936 13.0167L2.85751 14.4886C2.6445 14.7016 2.6445 15.0477 2.85751 15.2596L5.0685 17.4706C5.27298 17.6751 5.63509 17.6751 5.83957 17.4706L7.31995 15.9902C7.61177 16.1372 7.91211 16.2597 8.2199 16.3609V18.4547C8.2199 18.7551 8.46486 19 8.7652 19H11.8922C12.1925 19 12.4375 18.755 12.4375 18.4547V16.3502C12.7431 16.249 13.0371 16.1244 13.3268 15.9796L14.8178 17.4706C14.9211 17.5739 15.0574 17.6314 15.2023 17.6314C15.3471 17.6314 15.4856 17.5739 15.5868 17.4706L17.7978 15.2596C18.0108 15.0466 18.0108 14.7005 17.7978 14.4886L16.3014 12.9922C16.4462 12.7057 16.5655 12.4118 16.6667 12.1093H18.7829C19.0832 12.1093 19.3282 11.8643 19.3282 11.564V8.43811C19.3282 8.13563 19.0854 7.89284 18.7829 7.89284ZM10.3276 13.2263C8.54692 13.2263 7.10495 11.7843 7.10495 10.0037C7.10495 8.22304 8.547 6.78099 10.3276 6.78099C12.1082 6.78099 13.5503 8.22304 13.5503 10.0037C13.5503 11.7833 12.1082 13.2263 10.3276 13.2263Z" stroke="white" stroke-width="1.79439"/>
</svg>
