<svg xmlns="http://www.w3.org/2000/svg" width="22" height="22" viewBox="0 0 22 22" fill="none">
<path d="M11.625 1C12.2379 1.09336 12.841 1.22656 13.4012 1.50117C15.3195 2.44063 16.4773 3.95508 16.7508 6.08242C17.1449 9.15078 15.0625 11.7988 12.3109 12.4344C11.8854 12.529 11.4508 12.5775 11.0148 12.5789C9.30547 12.5988 7.62969 12.8199 6.03125 13.4656C5.21836 13.7941 4.45664 14.2129 3.77266 14.7664C2.98203 15.4059 2.60078 16.2418 2.57812 17.248C2.56836 17.6645 2.57578 18.0813 2.57812 18.498C2.57812 19.123 2.87578 19.4234 3.49961 19.4234H13.8512C13.9684 19.4234 14.0855 19.4121 14.2 19.4508C14.5023 19.5535 14.7012 19.7574 14.7559 20.0723C14.8129 20.4012 14.702 20.6766 14.4258 20.8738C14.3539 20.9198 14.2795 20.962 14.2031 21H2.95312C2.58633 20.9082 2.23672 20.7809 1.92969 20.55C1.42187 20.1691 1.1375 19.6543 1 19.0469V16.625C1.09609 16.1465 1.21094 15.675 1.41523 15.227C1.89531 14.1758 2.72461 13.4617 3.67344 12.8617C4.76211 12.1734 5.94414 11.7102 7.19297 11.4078C7.25156 11.3938 7.33906 11.4078 7.35977 11.3324C7.375 11.2785 7.30586 11.2508 7.26797 11.2172C5.71562 9.85 5.00234 8.13594 5.25313 6.08164C5.51602 3.94609 6.68711 2.42969 8.61719 1.49414C9.17266 1.225 9.76953 1.09453 10.375 1H11.625ZM6.7957 6.77461C6.8332 9.1293 8.65625 10.9746 11 10.9762C13.3258 10.9762 15.1941 9.15195 15.1957 6.77734C15.1957 4.47266 13.3941 2.59766 11.0125 2.58633C8.68672 2.57656 6.8418 4.40469 6.7957 6.77461Z" fill="#707175" stroke="#707175" stroke-width="0.5"/>
<path d="M16.8586 21.0001C16.4559 20.822 16.2785 20.5212 16.2926 20.0736C16.3133 19.4302 16.2981 18.7845 16.2981 18.1415C16.2981 17.8896 16.2981 17.8892 16.0367 17.8888C15.3602 17.8888 14.6836 17.8888 14.0055 17.8888C13.516 17.8888 13.1742 17.5626 13.1719 17.1017C13.1699 16.6283 13.5102 16.3009 14.0098 16.2997C14.6992 16.2997 15.3887 16.2943 16.0801 16.3029C16.252 16.3048 16.3039 16.2529 16.302 16.0814C16.2934 15.3724 16.2961 14.6634 16.302 13.954C16.3028 13.7738 16.3653 13.5993 16.4789 13.4595C16.5926 13.3196 16.7507 13.2229 16.927 13.1853C17.1071 13.1486 17.2944 13.1742 17.4581 13.2579C17.6218 13.3417 17.7521 13.4786 17.8277 13.6462C17.8746 13.761 17.8958 13.8845 17.8899 14.0083C17.8899 14.6784 17.8899 15.3483 17.8899 16.0181C17.8899 16.299 17.8899 16.299 18.1633 16.2993C18.8008 16.2993 19.4387 16.3146 20.0774 16.2939C20.5254 16.2794 20.8262 16.4568 21.0043 16.8599V17.3286C20.8262 17.7306 20.5262 17.9079 20.0789 17.8943C19.4168 17.8743 18.7539 17.8943 18.0914 17.8865C17.9379 17.8865 17.8887 17.9345 17.8902 18.0876C17.8969 18.7517 17.8781 19.4134 17.8984 20.0751C17.9121 20.5224 17.734 20.8224 17.3324 21.0005L16.8586 21.0001Z" fill="#707175" stroke="#707175" stroke-width="0.5"/>
</svg>