<svg xmlns="http://www.w3.org/2000/svg" width="22" height="22" viewBox="0 0 22 22" fill="none">
<path d="M10.3437 0.999634H11.6116C11.637 1.00339 11.6623 1.00997 11.6882 1.01138C12.0451 1.03004 12.4005 1.07256 12.7518 1.13866C15.7747 1.72323 18.0775 3.33669 19.6604 5.97903C20.3244 7.08791 20.7282 8.29495 20.9113 9.57525C20.9503 9.84531 20.9691 10.1172 20.9992 10.3882V11.5995C20.9937 11.6248 20.9897 11.6504 20.9869 11.6761C20.9507 12.2965 20.8514 12.9117 20.6906 13.512C19.9801 16.1285 18.4714 18.1575 16.1586 19.5664C14.2361 20.7369 12.138 21.1732 9.89996 20.9383C8.77538 20.8189 7.68037 20.5036 6.6645 20.0065C5.04543 19.2263 3.66636 18.0243 2.67215 16.5269C1.67795 15.0295 1.10531 13.2919 1.01442 11.4967C0.973187 10.7455 1.02047 9.99218 1.15529 9.25212C1.60328 6.84039 2.76645 4.84103 4.65185 3.27328C6.08033 2.0855 7.72342 1.36081 9.5628 1.09028C9.8206 1.05177 10.0826 1.02922 10.3437 0.999634ZM2.74062 10.9857C2.76034 15.5564 6.40951 19.2443 10.9857 19.2551C12.0718 19.2606 13.1483 19.0513 14.1533 18.6393C15.1583 18.2273 16.072 17.6206 16.8418 16.8542C17.6116 16.0878 18.2224 15.1768 18.6389 14.1735C19.0555 13.1703 19.2697 12.0945 19.2692 11.0082C19.2795 6.41488 15.5594 2.66131 10.8636 2.728C6.43205 2.79235 2.76974 6.39468 2.74062 10.9857Z" fill="#707175" stroke="#707175" stroke-width="0.4"/>
<path d="M11.5243 5.73493C11.5243 5.92984 11.5243 6.12522 11.5243 6.32013C11.5243 6.45446 11.5327 6.46526 11.6652 6.47606C12.0383 6.50646 12.4067 6.57991 12.7631 6.69493C13.1941 6.83583 13.5961 7.02839 13.9229 7.35246C14.0394 7.46847 14.0394 7.46988 13.9286 7.59105C13.6229 7.92451 13.3181 8.25657 13.0119 8.59097C12.965 8.64451 12.9255 8.65578 12.8664 8.60506C12.4498 8.25187 11.9615 8.10674 11.4224 8.10909C11.15 8.10909 10.8762 8.08983 10.6062 8.14901C10.443 8.18209 10.2898 8.25322 10.1592 8.3566C9.8671 8.59144 9.86616 8.9869 10.1568 9.22361C10.2712 9.30992 10.3978 9.37863 10.5325 9.42744C10.9641 9.60357 11.4111 9.72991 11.8591 9.85578C12.4226 10.0141 12.9758 10.2047 13.4839 10.5067C14.1296 10.8951 14.4489 11.4771 14.5273 12.2102C14.5944 12.8377 14.5217 13.4478 14.1826 13.9879C13.6543 14.8295 12.8959 15.3593 11.9117 15.5477C11.8188 15.5669 11.7246 15.5788 11.6299 15.5833C11.5421 15.5857 11.521 15.6242 11.5215 15.7045C11.5243 16.0803 11.5215 16.4527 11.5215 16.8265C11.5215 16.9754 11.5215 16.9759 11.3684 16.9759H10.6297C10.494 16.9759 10.4921 16.9736 10.4917 16.8411C10.4917 16.4508 10.4893 16.0605 10.4917 15.6702C10.4917 15.5763 10.4686 15.5331 10.3667 15.5185C9.7787 15.4419 9.20616 15.2743 8.66965 15.0216C8.4277 14.9083 8.20494 14.758 8.00941 14.5759C7.93449 14.504 7.86628 14.4254 7.80561 14.3411C7.75865 14.2786 7.76757 14.2349 7.82439 14.1833C8.20194 13.8389 8.57761 13.4936 8.9514 13.1477C8.98709 13.1153 9.01949 13.0852 9.0641 13.1387C9.39282 13.5323 9.84362 13.7023 10.3249 13.8038C10.8626 13.9273 11.4214 13.9263 11.9586 13.801C11.9962 13.7916 12.0333 13.778 12.0709 13.7686C12.3564 13.6967 12.5081 13.5065 12.5621 13.2247C12.5917 13.0846 12.6033 12.9413 12.5968 12.7982C12.5908 12.647 12.5289 12.5034 12.4231 12.3953C12.2133 12.1709 11.9449 12.0098 11.6482 11.9303C10.8537 11.725 10.0761 11.4681 9.34116 11.0957C9.07849 10.968 8.83402 10.8057 8.61424 10.6133C8.31887 10.3466 8.13291 10.0291 8.10192 9.62705C8.06435 9.14799 8.06623 8.67128 8.20429 8.20584C8.44941 7.38158 9.01151 6.87716 9.81498 6.62025C9.99492 6.56161 10.1802 6.52087 10.3682 6.49861C10.4597 6.48828 10.4959 6.45164 10.4949 6.35771C10.4902 5.95098 10.4926 5.54425 10.4949 5.13658C10.4949 5.01071 10.5001 5.0046 10.6274 5.00366C10.8842 5.00366 11.1411 5.00366 11.398 5.00366C11.5229 5.00366 11.5271 5.01024 11.5271 5.1394C11.5255 5.33822 11.5246 5.53673 11.5243 5.73493Z" fill="#707175" stroke="#707175" stroke-width="0.4"/>
</svg>