<svg xmlns="http://www.w3.org/2000/svg" width="28" height="40" viewBox="0 0 28 40" fill="none">
<g clip-path="url(#clip0_7630_2987)">
<path d="M27.9146 39.9999H0.0111449C0.0111449 39.8569 0.00179986 39.7139 0.00179986 39.5699C0.00179986 32.6592 0.00179986 25.7485 0.00179986 18.8378C0.00179986 18.7731 0.00699178 18.7074 0.00179986 18.6427C-0.0179294 18.3296 0.124328 18.1898 0.438958 18.1971C0.839774 18.2075 1.24267 18.1845 1.64245 18.1971C2.00173 18.2127 2.13983 18.0541 2.11491 17.7087C2.10349 17.5667 2.11491 17.4227 2.11491 17.2797C2.15021 15.1205 2.01107 12.9572 2.18344 10.8021C2.37068 8.1897 3.46004 5.72505 5.26329 3.83405C8.00669 0.904677 11.4116 -0.340333 15.401 0.0771055C20.2814 0.589511 24.4952 4.40907 25.5367 9.23049C25.8638 10.7447 25.8897 12.2757 25.8856 13.8129C25.8856 15.1143 25.8918 16.4156 25.8856 17.717C25.8856 18.0666 26.0143 18.2179 26.3674 18.2002C26.7028 18.1835 27.0403 18.2002 27.3777 18.2002C27.9655 18.2002 28.0008 18.2367 28.0008 18.8128C28.0008 25.6845 28.0008 32.5563 28.0008 39.428C27.9987 39.62 28.0143 39.8193 27.9146 39.9999ZM14.0002 18.1981C16.6807 18.1981 19.3607 18.1981 22.0404 18.1981C22.3291 18.1981 22.5524 18.1689 22.5451 17.789C22.5036 15.5787 22.6489 13.3642 22.4703 11.157C22.2751 8.69095 21.189 6.6695 19.2597 5.14794C16.319 2.83011 12.3669 2.67149 9.21122 4.79312C6.78971 6.42113 5.52704 8.764 5.46058 11.7007C5.41593 13.6512 5.45227 15.6037 5.45331 17.5563C5.45331 18.1825 5.46162 18.196 6.07634 18.196L14.0002 18.1981Z" fill="#7C7C7C"/>
</g>
<defs>
<clipPath id="clip0_7630_2987">
<rect width="28" height="40" fill="white"/>
</clipPath>
</defs>
</svg>