<svg xmlns="http://www.w3.org/2000/svg" width="25" height="22" viewBox="0 0 25 22" fill="none">
  <path d="M23.9198 2.99613L24.3039 2.299C24.4644 2.00777 24.5022 1.67182 24.4094 1.35191C24.3165 1.03316 24.1055 0.768283 23.8154 0.607753L22.9933 0.154839C22.7021 -0.00568595 22.3662 -0.0423769 22.0462 0.0493507C21.7275 0.142226 21.4626 0.353211 21.3021 0.64442L20.918 1.34155L23.9198 2.99613Z" fill="white"/>
  <path d="M19.6889 12.5839L17.5437 13.5516C17.3465 13.641 17.1343 13.6869 16.9153 13.6869C16.9153 13.6869 16.8592 13.6858 16.8385 13.6846C16.6069 13.672 16.3787 13.6078 16.1769 13.4966C15.7573 13.265 15.4672 12.8453 15.4007 12.3718L15.2092 11.0085H3.66886C3.33177 11.0085 3.05773 10.7356 3.05773 10.3973C3.05773 10.0591 3.33177 9.78622 3.66886 9.78622H15.0604C15.0673 9.54773 15.1292 9.31496 15.2473 9.10056L15.8814 7.95167L3.66913 7.95052C3.33204 7.95052 3.058 7.67763 3.058 7.33939C3.058 7.00116 3.33204 6.72827 3.66913 6.72827H16.511C16.5247 6.72827 16.5362 6.73515 16.55 6.73629L18.5519 3.10623C18.1231 2.87806 17.6415 2.73474 17.1233 2.73474H3.05798C1.37248 2.73474 0 4.10608 0 5.79272V15.2385C0 16.924 1.37133 18.2964 3.05798 18.2964H6.77404C6.93686 18.2964 7.08821 18.3847 7.16731 18.528L8.62923 21.1434C8.92848 21.68 9.47541 22 10.09 22C10.7057 22 11.2503 21.6801 11.5508 21.1434L13.0127 18.528C13.0918 18.3859 13.2432 18.2976 13.406 18.2976H17.122C18.8075 18.2976 20.18 16.9262 20.18 15.2396V12.2195C20.0413 12.3708 19.8761 12.4993 19.6881 12.5841L19.6889 12.5839ZM11.6193 14.0664H3.66993C3.33285 14.0664 3.05881 13.7935 3.05881 13.4553C3.05881 13.1171 3.33284 12.8442 3.66993 12.8442H11.6193C11.9564 12.8442 12.2304 13.1171 12.2304 13.4553C12.2304 13.7935 11.9564 14.0664 11.6193 14.0664Z" fill="white"/>
  <path d="M20.3289 2.4137L16.3193 9.68645C16.2872 9.74492 16.2757 9.81142 16.2837 9.87678L16.6105 12.2009C16.6243 12.2961 16.6816 12.3798 16.7653 12.4257C16.8066 12.4486 16.8513 12.4612 16.8972 12.4635C16.9453 12.4658 16.9935 12.4566 17.0382 12.4371L19.1777 11.4728C19.2385 11.4465 19.2878 11.3995 19.3199 11.3421L23.3295 4.06938L20.3276 2.41485L20.3289 2.4137Z" fill="white"/>
</svg>