<svg xmlns="http://www.w3.org/2000/svg" width="19" height="13" viewBox="0 0 19 13" fill="none">
  <path d="M18.815 5.90975C18.2392 4.91116 15.0725 -0.0997449 9.69264 0.0621875C4.71762 0.188135 1.83877 4.56031 1.05608 5.90975C0.977116 6.04651 0.935547 6.20164 0.935547 6.35956C0.935547 6.51747 0.977116 6.67261 1.05608 6.80937C1.62285 7.78996 4.65465 12.6569 9.95354 12.6569H10.1785C15.1535 12.531 18.0413 8.15881 18.815 6.80937C18.894 6.67261 18.9355 6.51747 18.9355 6.35956C18.9355 6.20164 18.894 6.04651 18.815 5.90975ZM10.1335 10.8577C6.25601 10.9476 3.72801 7.62803 2.93633 6.35956C3.83597 4.91116 6.18404 1.9514 9.78261 1.86144C13.6421 1.76248 16.1791 5.09109 16.9797 6.35956C16.0531 7.80795 13.732 10.7677 10.1335 10.8577Z" fill="white"/>
  <path d="M9.93977 3.21167C9.317 3.21167 8.70822 3.39634 8.19041 3.74232C7.67261 4.0883 7.26902 4.58006 7.0307 5.15541C6.79238 5.73075 6.73002 6.36385 6.85152 6.97463C6.97301 7.58542 7.2729 8.14646 7.71326 8.58681C8.15362 9.02716 8.71468 9.32705 9.32547 9.44854C9.93627 9.57003 10.5694 9.50768 11.1447 9.26936C11.7201 9.03104 12.2119 8.62747 12.5579 8.10967C12.9038 7.59187 13.0885 6.98311 13.0885 6.36035C13.0885 5.52527 12.7568 4.72439 12.1663 4.1339C11.5758 3.54341 10.7749 3.21167 9.93977 3.21167ZM9.93977 7.70979C9.67287 7.70979 9.41196 7.63065 9.19004 7.48237C8.96813 7.33409 8.79516 7.12334 8.69302 6.87676C8.59089 6.63018 8.56416 6.35886 8.61623 6.09709C8.6683 5.83533 8.79682 5.59488 8.98555 5.40616C9.17428 5.21744 9.41473 5.08892 9.6765 5.03685C9.93827 4.98478 10.2096 5.0115 10.4562 5.11364C10.7028 5.21577 10.9135 5.38873 11.0618 5.61065C11.2101 5.83256 11.2892 6.09346 11.2892 6.36035C11.2892 6.71825 11.1471 7.06148 10.894 7.31455C10.6409 7.56762 10.2977 7.70979 9.93977 7.70979Z" fill="white"/>
</svg>