<svg xmlns="http://www.w3.org/2000/svg" width="24" height="22" viewBox="0 0 24 22" fill="none">
<path fill-rule="evenodd" clip-rule="evenodd" d="M9.38828 4.91289C9.82996 4.91289 9.91143 5.1734 9.91143 5.4391V9.32063C9.91143 9.68276 9.79014 9.89229 9.38828 9.89229C8.4713 9.89229 8.22031 9.56304 8.22031 8.358V6.44754C8.21995 5.24214 8.4713 4.91289 9.38828 4.91289ZM13.1921 4.11027C13.1921 4.11027 17.3057 4.12025 17.3134 4.12025C17.4062 4.12025 17.5658 4.23369 17.6561 4.41476C17.7547 4.61689 17.7547 4.86522 17.6561 5.06513C17.606 5.16749 17.5249 5.23696 17.4486 5.30348C17.3116 5.42173 17.3437 5.61536 17.5457 5.64714C17.7591 5.67966 17.9644 5.7835 18.0744 6.00226C18.1906 6.23395 18.1906 6.51812 18.0744 6.74797C17.9622 6.96895 17.7606 7.10604 17.5457 7.10604C17.4431 7.10604 17.3609 7.18844 17.3609 7.2908C17.3609 7.39242 17.4431 7.47705 17.5457 7.47705C17.7606 7.47705 17.9626 7.61192 18.0744 7.83142C18.1906 8.0646 18.1906 8.3495 18.0744 8.57824C17.9622 8.79996 17.7606 8.93558 17.5436 8.93558C17.4431 8.93558 17.3609 9.01872 17.3609 9.12034C17.3609 9.2227 17.4431 9.30511 17.5436 9.30511C17.7606 9.30511 17.9622 9.4422 18.0744 9.6617C18.1906 9.89487 18.1906 10.1798 18.0744 10.4107C17.9622 10.6302 17.7606 10.7659 17.5436 10.7659H14.9252C14.4423 10.7659 14.432 11.2034 14.4138 11.5323C14.3981 11.8153 14.4079 12.3197 14.5431 12.6944C14.7773 13.3526 14.6629 13.8363 14.5033 14.1134C14.1573 14.7231 13.5615 14.6404 13.3707 13.9013C13.0781 12.7683 12.2941 11.7403 11.672 11.1343C11.383 10.8512 11.1181 10.5959 10.9734 10.3605C10.8478 10.1569 10.8558 9.99095 10.8558 9.75778V5.13571C10.8558 5.05479 10.8956 4.90919 11.1185 4.86706C11.4897 4.79575 11.7257 4.59916 11.9555 4.41809C12.3164 4.13133 12.6912 4.11027 13.1921 4.11027ZM5.77479 0C4.19144 0 2.91498 1.29113 2.91498 2.89267V6.22582H2.36479C1.68198 6.22582 1.0748 6.39765 0.639329 6.80894C0.205316 7.22096 0 7.8366 0 8.53759V17.0246C0 17.7274 0.205681 18.3412 0.639329 18.7532C1.07444 19.1675 1.68198 19.3408 2.36479 19.3408H4.3763V20.8861C4.3763 21.4253 4.77597 21.8661 5.24761 21.9729C5.71999 22.079 6.27164 21.8713 6.62199 21.3883L8.10414 19.3408H12.9506C13.6049 19.3408 13.6049 18.3475 12.9506 18.3475H7.85608C7.70045 18.3475 7.55577 18.424 7.46225 18.5518L5.83178 20.8052C5.65825 21.0421 5.35575 20.9648 5.35575 20.5901V18.8441C5.35575 18.5685 5.13509 18.3475 4.86475 18.3475H2.36442C1.84127 18.3475 1.51028 18.2226 1.30825 18.0315C1.10841 17.8416 0.981279 17.5452 0.981279 17.0246V8.53722C0.981279 8.01693 1.10841 7.72241 1.30825 7.53026C1.51028 7.33958 1.84127 7.21431 2.36442 7.21431H2.91461V14.0225C2.91461 15.624 4.19108 16.9152 5.77442 16.9152H13.3302L15.6464 19.8714C16.3442 20.7642 17.2539 20.4098 17.2539 19.5935V16.9152H20.6069C22.1895 16.9152 23.4667 15.624 23.4667 14.0225V2.89267C23.4667 1.29113 22.1895 0 20.6069 0H5.77479Z" fill="white"/>
</svg>
