<svg xmlns="http://www.w3.org/2000/svg" width="21" height="19" viewBox="0 0 21 19" fill="none">
  <path d="M20.2422 8.44172C19.6001 7.32807 16.0685 1.7397 10.0688 1.9203C4.52057 2.06076 1.31002 6.93678 0.437151 8.44172C0.349093 8.59425 0.302734 8.76726 0.302734 8.94337C0.302734 9.11949 0.349093 9.2925 0.437151 9.44502C1.06923 10.5386 4.45034 15.9664 10.3598 15.9664H10.6106C16.1588 15.826 19.3794 10.95 20.2422 9.44502C20.3303 9.2925 20.3766 9.11949 20.3766 8.94337C20.3766 8.76726 20.3303 8.59425 20.2422 8.44172ZM10.5604 13.9599C6.23621 14.0602 3.41694 10.358 2.53404 8.94337C3.53734 7.32807 6.15594 4.02722 10.1691 3.92689C14.4733 3.81653 17.3026 7.52872 18.1955 8.94337C17.1621 10.5587 14.5736 13.8595 10.5604 13.9599Z" fill="white"/>
  <path d="M10.3494 5.43115C9.65491 5.43115 8.97599 5.6371 8.39852 6.02295C7.82105 6.40881 7.37097 6.95723 7.10519 7.59888C6.83941 8.24053 6.76987 8.94659 6.90537 9.62776C7.04086 10.3089 7.3753 10.9346 7.8664 11.4257C8.3575 11.9168 8.98319 12.2513 9.66436 12.3868C10.3455 12.5223 11.0516 12.4527 11.6932 12.1869C12.3349 11.9211 12.8833 11.4711 13.2692 10.8936C13.655 10.3161 13.861 9.63721 13.861 8.94269C13.861 8.01137 13.491 7.1182 12.8325 6.45966C12.1739 5.80112 11.2807 5.43115 10.3494 5.43115ZM10.3494 10.4476C10.0518 10.4476 9.76082 10.3594 9.51333 10.194C9.26584 10.0286 9.07295 9.7936 8.95904 9.51861C8.84514 9.24362 8.81533 8.94102 8.8734 8.64909C8.93147 8.35716 9.0748 8.089 9.28527 7.87853C9.49574 7.66806 9.7639 7.52473 10.0558 7.46666C10.3478 7.40859 10.6504 7.4384 10.9253 7.5523C11.2003 7.66621 11.4354 7.8591 11.6007 8.10659C11.7661 8.35408 11.8544 8.64504 11.8544 8.94269C11.8544 9.34183 11.6958 9.72462 11.4136 10.0068C11.1314 10.2891 10.7486 10.4476 10.3494 10.4476Z" fill="white"/>
  <line x1="18.1937" y1="2.12014" x2="4.33996" y2="16.9293" stroke="white" stroke-width="3" stroke-linecap="round"/>
</svg>