<svg xmlns="http://www.w3.org/2000/svg" width="15" height="20" viewBox="0 0 15 20" fill="none">
  <g clip-path="url(#clip0_8479_5432)">
    <path d="M0.00875592 11.1943C0.00875592 8.36536 0.00713936 5.53657 0.00390625 2.70796C0.00390625 2.48703 0.0577913 2.40351 0.283031 2.40728C1.14519 2.42076 2.00735 2.38735 2.86952 2.42668C3.05003 2.43476 3.10607 2.50104 3.10176 2.66755C3.09601 2.92763 3.09601 3.1879 3.10176 3.44835C3.10607 3.64072 3.03117 3.72262 2.83234 3.71777C2.4643 3.70699 2.09573 3.71077 1.72769 3.71777C1.42755 3.72262 1.302 3.84817 1.2923 4.14346C1.28637 4.3229 1.2923 4.50288 1.2923 4.68231V18.0997C1.2923 18.6326 1.36935 18.7129 1.89312 18.7135C5.52138 18.7135 9.14965 18.7135 12.7779 18.7135C13.2289 18.7135 13.3232 18.6159 13.3232 18.1541C13.3232 13.5477 13.3232 8.94085 13.3232 4.33368C13.3232 3.78459 13.2548 3.71831 12.6992 3.71723C12.3851 3.71723 12.0704 3.71023 11.7563 3.71723C11.5811 3.72154 11.5116 3.64449 11.5127 3.47798C11.5127 3.1994 11.5159 2.92081 11.5127 2.64276C11.51 2.49943 11.5639 2.43207 11.7153 2.42722C12.6216 2.39058 13.5285 2.41644 14.4354 2.41483C14.5567 2.41483 14.6127 2.47464 14.6062 2.60019C14.5998 2.73491 14.6062 2.86962 14.6062 3.00433C14.6062 8.56312 14.6082 14.1219 14.6122 19.6807C14.6122 19.9431 14.5491 20.004 14.2889 20.004C9.62815 19.9947 4.96744 19.9947 0.306741 20.004C0.0685683 20.004 0.00660048 19.9528 0.00713933 19.713C0.0157609 16.8754 0.0125279 14.0373 0.0125279 11.1992L0.00875592 11.1943Z" fill="white"/>
    <path d="M7.30768 4.84599C6.24901 4.84599 5.19017 4.84599 4.13115 4.84599C3.54757 4.84599 3.34173 4.66224 3.33149 4.08783C3.31641 3.26231 3.32611 2.43571 3.31641 1.61127C3.31641 1.3801 3.40693 1.29981 3.63972 1.30466C4.23245 1.31759 4.82519 1.30466 5.41793 1.31166C5.5882 1.31166 5.67819 1.26155 5.72238 1.08804C5.87056 0.500155 6.29625 0.186004 6.85073 0.0545245C7.79911 -0.170176 8.75826 0.320717 8.90483 1.13923C8.93501 1.30628 9.0584 1.31005 9.1915 1.30951C9.79232 1.30951 10.3937 1.31651 10.995 1.30466C11.2208 1.30035 11.293 1.38818 11.2914 1.60426C11.2849 2.44756 11.2914 3.2914 11.2871 4.13686C11.2828 4.61321 11.0451 4.84491 10.5661 4.84653C9.47925 4.84868 8.39346 4.84599 7.30768 4.84599Z" fill="white"/>
    <path d="M7.28084 8.02228H3.40111C2.97919 8.02228 2.97919 8.02228 2.97865 7.58796C2.97865 7.37242 2.98296 7.15688 2.97865 6.94134C2.97488 6.77968 3.05193 6.71179 3.20604 6.71341C3.26855 6.71341 3.3316 6.71341 3.39464 6.71341H11.208C11.6304 6.71341 11.6304 6.71341 11.631 7.12455C11.631 7.32231 11.6191 7.5206 11.631 7.71729C11.6482 7.95276 11.5555 8.02982 11.3206 8.0282C9.97455 8.01797 8.62742 8.02228 7.28084 8.02228Z" fill="white"/>
    <path d="M7.30866 11.0924H3.45695C2.9806 11.0924 2.9806 11.0924 2.9806 10.6025C2.9806 10.4048 2.98492 10.2076 2.9806 10.0098C2.97683 9.84815 3.05173 9.77917 3.20746 9.78079C3.26997 9.78079 3.33301 9.78079 3.39552 9.78079H11.2089C11.6313 9.78079 11.6313 9.78079 11.6313 10.1919C11.6313 10.3805 11.6184 10.5691 11.634 10.7572C11.6556 11.0148 11.557 11.101 11.2972 11.0988C10.0493 11.088 8.80127 11.094 7.5533 11.094L7.30866 11.0924Z" fill="white"/>
    <path d="M7.3096 12.8468C8.62943 12.8468 9.94925 12.8468 11.2691 12.8468C11.6209 12.8468 11.6285 12.8565 11.6296 13.2116C11.6296 13.4093 11.6296 13.6066 11.6296 13.8043C11.6296 14.1524 11.622 14.1578 11.261 14.16H3.3679C2.98155 14.16 2.98155 14.16 2.98047 13.7682C2.98047 13.5886 2.98047 13.409 2.98047 13.2294C2.98047 12.8473 2.98047 12.8462 3.37706 12.8457L7.3096 12.8468Z" fill="white"/>
    <path d="M7.27723 17.2285C5.96602 17.2285 4.65482 17.2285 3.34361 17.2285C2.98797 17.2285 2.98043 17.2188 2.97881 16.8675C2.97881 16.6342 2.98528 16.4009 2.97881 16.167C2.97288 15.98 3.0564 15.903 3.23692 15.9153C3.28164 15.918 3.32691 15.9153 3.37163 15.9153H11.2378C11.6284 15.9153 11.6284 15.9153 11.6295 16.3017C11.6295 16.5081 11.6182 16.7155 11.6322 16.9208C11.6489 17.159 11.5487 17.2328 11.3186 17.2318C10.1692 17.2242 9.01987 17.2285 7.86996 17.2285H7.27723Z" fill="white"/>
  </g>
  <defs>
    <clipPath id="clip0_8479_5432">
      <rect width="14.6061" height="20" fill="white"/>
    </clipPath>
  </defs>
</svg>