<svg xmlns="http://www.w3.org/2000/svg" width="21" height="20" viewBox="0 0 21 20" fill="none">
  <path d="M11.1699 8.44981L9.99993 10.1698C9.879 10.3538 9.70075 10.4927 9.49282 10.565C9.28489 10.6373 9.05891 10.639 8.84992 10.5698H8.74992C8.12403 10.3612 7.44683 10.3648 6.82315 10.5799C6.19948 10.795 5.6641 11.2097 5.29991 11.7598L4.1699 13.4498C4.02517 13.6703 3.97339 13.939 4.02583 14.1975C4.07827 14.4559 4.23069 14.6832 4.44991 14.8298C4.61095 14.9426 4.80331 15.0021 4.99991 14.9998C5.16461 14.999 5.32656 14.9575 5.47136 14.879C5.61616 14.8004 5.73932 14.6874 5.82991 14.5498L6.99991 12.8298C7.12084 12.6459 7.29909 12.5069 7.50702 12.4346C7.71495 12.3623 7.94093 12.3606 8.14992 12.4298H8.24992C8.87581 12.6384 9.55301 12.6349 10.1767 12.4198C10.8004 12.2046 11.3357 11.7899 11.6999 11.2398L12.8499 9.50981C12.9677 9.29024 12.9993 9.03462 12.9385 8.79299C12.8776 8.55137 12.7288 8.34115 12.5211 8.20352C12.3134 8.06589 12.0618 8.01075 11.8156 8.04891C11.5693 8.08707 11.3462 8.21577 11.1899 8.40981L11.1699 8.44981Z" fill="white"/>
  <path d="M16.0001 7.99996C16.7032 8.00419 17.3951 7.82298 18.0059 7.47461C18.6167 7.12624 19.1248 6.62301 19.4792 6.01565C19.8335 5.40828 20.0215 4.71824 20.0241 4.01508C20.0268 3.31192 19.844 2.62049 19.4943 2.01047C19.1445 1.40045 18.6401 0.89341 18.032 0.540447C17.4238 0.187483 16.7334 0.00107302 16.0302 4.61859e-06C15.327 -0.00106378 14.636 0.183247 14.0268 0.534361C13.4175 0.885475 12.9116 1.39098 12.56 1.99993H4.00001C2.93914 1.99993 1.92173 2.42136 1.17158 3.17151C0.421429 3.92166 0 4.93908 0 5.99995V16C0 17.0609 0.421429 18.0783 1.17158 18.8284C1.92173 19.5786 2.93914 20 4.00001 20H14C15.0609 20 16.0783 19.5786 16.8285 18.8284C17.5786 18.0783 18.0001 17.0609 18.0001 16V9.99996C18.0001 9.73475 17.8947 9.48039 17.7072 9.29285C17.5196 9.10532 17.2653 8.99996 17.0001 8.99996C16.7348 8.99996 16.4805 9.10532 16.293 9.29285C16.1054 9.48039 16.0001 9.73475 16.0001 9.99996V16C16.0001 16.5304 15.7893 17.0391 15.4143 17.4142C15.0392 17.7893 14.5305 18 14 18H4.00001C3.46958 18 2.96087 17.7893 2.5858 17.4142C2.21072 17.0391 2.00001 16.5304 2.00001 16V5.99995C2.00001 5.46951 2.21072 4.9608 2.5858 4.58573C2.96087 4.21066 3.46958 3.99994 4.00001 3.99994H12C12 5.06081 12.4215 6.07823 13.1716 6.82838C13.9218 7.57853 14.9392 7.99996 16.0001 7.99996ZM16.0001 1.99993C16.3956 1.99993 16.7823 2.11723 17.1112 2.337C17.4401 2.55676 17.6964 2.86912 17.8478 3.23457C17.9992 3.60003 18.0388 4.00216 17.9616 4.39012C17.8845 4.77809 17.694 5.13445 17.4143 5.41416C17.1346 5.69387 16.7782 5.88435 16.3902 5.96152C16.0023 6.03869 15.6001 5.99908 15.2347 5.84771C14.8692 5.69633 14.5569 5.43999 14.3371 5.11109C14.1173 4.78219 14 4.39551 14 3.99994C14 3.46951 14.2108 2.9608 14.5858 2.58572C14.9609 2.21065 15.4696 1.99993 16.0001 1.99993Z" fill="white"/>
</svg>