<svg xmlns="http://www.w3.org/2000/svg" width="20" height="21" viewBox="0 0 20 21" fill="none">
  <path d="M19.3907 6.67158C19.3615 7.38681 18.9394 8.16274 18.0846 8.69503C17.9789 8.76069 17.9493 8.82842 17.9676 8.94694C18.0531 9.50429 18.0842 10.0685 18.0605 10.6318C18.0449 11.1133 17.9751 11.5916 17.8523 12.0577C17.8136 12.2022 17.8323 12.2914 17.9626 12.388C18.712 12.9336 19.0609 13.8379 18.8369 14.6787C18.5871 15.6219 17.9647 16.1942 16.9955 16.3652C16.5402 16.4475 16.0703 16.3733 15.6632 16.155C15.5454 16.0926 15.4671 16.1021 15.3689 16.1897C14.6641 16.8154 13.8507 17.3091 12.9683 17.647C12.8434 17.6957 12.8084 17.7709 12.8018 17.8947C12.7272 19.2414 11.8442 20.2382 10.5119 20.4872C9.08474 20.754 7.63215 19.758 7.37569 18.3354C7.35612 18.2276 7.3249 18.1157 7.33406 18.0091C7.35779 17.7861 7.26287 17.6841 7.05595 17.6048C6.21194 17.2821 5.43555 16.8071 4.76611 16.2037C4.65162 16.1005 4.55545 16.0868 4.41431 16.1575C3.41803 16.6555 2.17694 16.3226 1.58325 15.4104C0.946674 14.4272 1.12528 13.1805 2.02539 12.4785C2.23065 12.3183 2.29268 12.1869 2.22606 11.9173C1.98709 10.944 1.98293 9.95536 2.1428 8.96758C2.16361 8.83833 2.13822 8.76813 2.0229 8.69958C1.53675 8.41238 1.15322 7.98169 0.925929 7.46771C0.698635 6.95373 0.63893 6.38216 0.75516 5.83288C0.985392 4.71791 1.92797 3.83668 3.07081 3.69751C3.64576 3.62731 4.20948 3.69751 4.71824 4.0031C4.87853 4.0989 4.9901 4.08569 5.1404 3.96924C5.87601 3.39078 6.71441 2.95419 7.61217 2.68207C7.77662 2.63252 7.83907 2.54208 7.86613 2.37979C8.01851 1.53283 8.52436 0.969566 9.31539 0.67761C10.1339 0.373679 10.8887 0.54464 11.5461 1.10543C11.9609 1.44951 12.2216 1.94236 12.2714 2.47642C12.2717 2.51741 12.2864 2.557 12.313 2.58837C12.3396 2.61973 12.3764 2.6409 12.4171 2.64821C13.2285 2.88855 13.9954 3.23666 14.6624 3.74748C15.02 4.02127 15.2748 4.03655 15.6999 3.86559C17.4805 3.14251 19.3969 4.47675 19.3907 6.67158ZM17.2978 10.3551C17.3 9.98655 17.2813 9.61817 17.242 9.25169C17.2261 9.11212 17.1654 9.06008 17.0263 9.06917C16.8127 9.08321 16.6012 9.1051 16.3843 9.07784C15.3302 8.94652 14.5737 8.40225 14.1519 7.44504C13.7489 6.52994 13.8709 5.64086 14.4363 4.82074C14.5416 4.66753 14.53 4.59609 14.3947 4.49038C13.7826 4.01094 13.0919 3.68347 12.3638 3.42166C12.2226 3.37087 12.1902 3.43323 12.1452 3.54555C11.7239 4.5837 10.6618 5.14573 9.56394 4.89466C8.81787 4.72204 8.29579 4.27028 7.99686 3.56826C7.95939 3.47948 7.95523 3.35766 7.7887 3.4134C7.05054 3.66572 6.35942 4.00764 5.73492 4.47964C5.58338 4.59403 5.53092 4.68281 5.68704 4.83437C5.76365 4.9087 5.8082 5.0173 5.86149 5.11352C6.46184 6.19545 6.20413 7.59494 5.26197 8.40432C4.66536 8.91679 3.98091 9.15011 3.19113 9.07619C2.89969 9.04893 2.89969 9.05513 2.86722 9.34048C2.78395 10.09 2.79103 10.8362 2.93716 11.5787C3.01585 11.9776 3.01335 11.9813 3.41678 11.9776C4.24945 11.9701 4.89976 12.3137 5.33191 13.01C5.8286 13.8053 5.78988 14.6147 5.29652 15.4051C5.2374 15.4992 5.18245 15.5632 5.30027 15.6632C5.89379 16.1732 6.56579 16.5857 7.29076 16.8851C7.4269 16.9404 7.48602 16.9103 7.53723 16.7781C7.63535 16.5198 7.77869 16.2808 7.96064 16.072C9.33246 14.5176 11.7718 14.8914 12.5894 16.7827C12.6515 16.926 12.7143 16.9322 12.8392 16.8809C13.5453 16.59 14.2005 16.1901 14.7806 15.6962C14.8901 15.6033 14.9022 15.5384 14.8193 15.4071C14.3106 14.606 14.2781 13.7813 14.7993 12.9802C15.2748 12.2476 15.9809 11.9218 16.8577 11.9825C17.0425 11.9953 17.1175 11.9297 17.1525 11.7562C17.2528 11.2619 17.309 10.7647 17.2994 10.3551H17.2978ZM3.43843 15.7875C4.32688 15.7916 5.06796 15.078 5.0817 14.2054C5.09543 13.3329 4.34229 12.5805 3.458 12.5784C3.02686 12.5795 2.61346 12.7488 2.3072 13.0498C2.00093 13.3508 1.82642 13.7593 1.82139 14.1869C1.81847 15.0602 2.54872 15.7829 3.43843 15.7875ZM15.0504 14.1964C15.0594 14.618 15.2354 15.0192 15.5402 15.3133C15.8451 15.6073 16.2543 15.7706 16.6795 15.7677C17.1048 15.7649 17.5118 15.5962 17.8126 15.2982C18.1135 15.0001 18.284 14.5966 18.2874 14.1749C18.2874 13.3011 17.5521 12.5784 16.6637 12.5784C16.4504 12.5788 16.2394 12.6211 16.0427 12.7028C15.846 12.7845 15.6675 12.904 15.5175 13.0543C15.3676 13.2047 15.2491 13.3831 15.1689 13.5791C15.0887 13.7751 15.0485 13.9848 15.0504 14.1964ZM11.6781 2.77911C11.6877 1.89168 10.9753 1.1525 10.1018 1.14383C9.20798 1.13433 8.45233 1.84337 8.43984 2.70272C8.42735 3.60956 9.13095 4.33965 10.0232 4.35287C10.9458 4.36278 11.6689 3.67521 11.6785 2.77911H11.6781ZM16.6624 8.2346H17.9335C17.9404 8.23418 17.9474 8.23418 17.9543 8.2346C18.105 8.24822 18.1679 8.18463 18.1625 8.03101C18.1529 7.83197 18.1625 7.6321 18.1591 7.43265C18.1483 6.91728 17.7936 6.53985 17.2769 6.5192C16.8685 6.5031 16.4584 6.50392 16.0496 6.5192C15.5429 6.53737 15.1986 6.89705 15.1869 7.39713C15.1824 7.59659 15.194 7.79646 15.1824 7.9955C15.172 8.17141 15.2311 8.24327 15.4176 8.23831C15.8302 8.22592 16.2465 8.2346 16.6624 8.2346ZM3.45258 8.2346C3.86892 8.2346 4.28525 8.22882 4.70158 8.23707C4.87436 8.24038 4.93848 8.17678 4.92932 8.00747C4.91891 7.82206 4.92932 7.63582 4.9264 7.4504C4.92307 6.91605 4.58584 6.5448 4.05002 6.51961C3.6416 6.50103 3.23109 6.50268 2.82267 6.51961C2.33181 6.53985 2.0025 6.87971 1.97835 7.36823C1.96752 7.5809 1.98126 7.7948 1.9721 8.00747C1.96419 8.17802 2.03455 8.23955 2.20442 8.23625C2.61992 8.22799 3.03625 8.2346 3.45258 8.2346ZM10.0723 19.6733C10.4886 19.6733 10.905 19.6675 11.3213 19.6762C11.4949 19.6795 11.5573 19.6143 11.5482 19.4458C11.5382 19.2608 11.5482 19.0741 11.5453 18.8891C11.5386 18.3556 11.2043 17.9881 10.6668 17.9604C10.2647 17.9384 9.86159 17.9384 9.45944 17.9604C8.90905 17.9922 8.60554 18.3259 8.59305 18.8722C8.58847 19.0646 8.59888 19.2575 8.58972 19.4503C8.58139 19.6233 8.65675 19.6787 8.82412 19.6758C9.2417 19.6663 9.65803 19.6733 10.0739 19.6733H10.0723ZM16.6578 4.52135C16.5467 4.52241 16.4369 4.54516 16.3347 4.5883C16.2325 4.63145 16.1398 4.69415 16.062 4.77281C15.9842 4.85148 15.9228 4.94458 15.8813 5.04679C15.8397 5.149 15.8189 5.25832 15.82 5.36852C15.821 5.47871 15.844 5.58762 15.8875 5.68902C15.931 5.79042 15.9942 5.88233 16.0735 5.9595C16.1528 6.03667 16.2467 6.09759 16.3497 6.13879C16.4528 6.17998 16.563 6.20064 16.6741 6.19958C17.132 6.19627 17.5284 5.8048 17.5259 5.35923C17.5227 5.13397 17.4295 4.91918 17.2667 4.76207C17.104 4.60495 16.885 4.51837 16.6578 4.52135ZM2.6041 5.36583C2.60301 5.47753 2.62439 5.58831 2.66699 5.69171C2.7096 5.79511 2.77256 5.88904 2.85221 5.968C2.93185 6.04697 3.02658 6.10939 3.13084 6.1516C3.2351 6.19381 3.34681 6.21498 3.45942 6.21385C3.57202 6.21273 3.68327 6.18933 3.78666 6.14504C3.89004 6.10075 3.98348 6.03645 4.0615 5.95591C4.13953 5.87537 4.20057 5.7802 4.24106 5.67597C4.28156 5.57174 4.30068 5.46055 4.29732 5.3489C4.29358 4.87649 3.9143 4.51598 3.42677 4.523C2.94549 4.52672 2.60118 4.88062 2.6041 5.36583ZM10.0365 17.6391C10.1489 17.643 10.2609 17.6248 10.3661 17.5854C10.4714 17.546 10.5677 17.4864 10.6495 17.4098C10.7312 17.3332 10.7969 17.2413 10.8426 17.1394C10.8883 17.0375 10.9132 16.9276 10.9158 16.8161C10.922 16.3325 10.5623 15.9671 10.0739 15.9605C9.59308 15.9539 9.22796 16.3053 9.2213 16.7798C9.21464 17.2543 9.56519 17.63 10.0365 17.6391Z" fill="white"/>
  <path d="M7.54707 7.07409C7.58371 7.09019 7.63533 7.1096 7.68362 7.1352C7.88513 7.24312 8.08594 7.35214 8.28606 7.46226C8.35351 7.49901 8.42053 7.54237 8.50089 7.5114C8.70114 7.43459 8.90015 7.35531 9.09916 7.27561C9.17327 7.24587 9.18742 7.17443 9.20657 7.11043C9.2736 6.87917 9.34604 6.64916 9.40475 6.41584C9.43556 6.29444 9.49717 6.24364 9.62249 6.24571C9.90685 6.24984 10.1912 6.25108 10.4756 6.24571C10.6117 6.24282 10.6733 6.30063 10.705 6.42865C10.7616 6.65535 10.8374 6.87752 10.8961 7.10423C10.9248 7.21614 10.9793 7.28841 11.0955 7.31484C11.1162 7.31752 11.1362 7.32396 11.1546 7.33383C11.5401 7.59151 11.8753 7.46804 12.2371 7.24587C12.6172 7.01256 12.5168 6.97911 12.8945 7.3231C13.0527 7.46721 13.1971 7.62661 13.3524 7.77156C13.4357 7.84672 13.439 7.91114 13.3832 8.00405C13.2525 8.22291 13.1334 8.44921 13.0052 8.66931C12.9507 8.76181 12.9382 8.84482 13.0006 8.93732C13.0341 8.98163 13.0578 9.03242 13.0701 9.08639C13.133 9.46837 13.407 9.58193 13.7438 9.66906C14.3445 9.82351 14.2554 9.70127 14.2513 10.3298C14.2455 11.1445 14.3878 10.9389 13.6122 11.1635C13.3483 11.2399 13.2096 11.3589 13.0939 11.6141C12.9598 11.9093 12.9744 12.1319 13.148 12.3883C13.2612 12.5535 13.4507 12.7439 13.4007 12.9252C13.3545 13.0928 13.1426 13.2184 12.9985 13.3571C12.5934 13.7469 12.5822 13.7585 12.1068 13.4748C11.8266 13.3096 11.5942 13.251 11.2699 13.4104C11.0243 13.531 10.8998 13.6582 10.8353 13.9138C10.6804 14.5307 10.6687 14.5278 10.0272 14.5278C9.46179 14.5278 9.4443 14.5324 9.30982 13.991C9.23197 13.6755 9.0875 13.4955 8.76859 13.3769C8.51046 13.2824 8.31604 13.2683 8.10579 13.4348C8.05969 13.4653 8.01092 13.4917 7.96007 13.5136C7.51376 13.7515 7.51376 13.7515 7.14739 13.3897C7.03456 13.2778 6.92756 13.1593 6.80724 13.0561C6.68692 12.9528 6.68984 12.8608 6.76894 12.734C6.88926 12.5411 6.98752 12.3351 7.10451 12.1397C7.16862 12.0324 7.14114 11.9436 7.11325 11.8309C7.00042 11.3729 6.70358 11.178 6.25102 11.0875C5.81595 10.9992 5.88257 11.0615 5.87632 10.5994C5.87382 10.3859 5.88173 10.1725 5.87341 9.95937C5.86841 9.84044 5.91504 9.78634 6.02787 9.75785C6.24977 9.70251 6.46751 9.63396 6.68942 9.57615C6.82931 9.54022 6.92673 9.47044 6.95671 9.32343C6.96232 9.28217 6.9765 9.24252 6.99834 9.20697C7.22816 8.89148 7.107 8.61769 6.92715 8.32615C6.65403 7.88471 6.66569 7.87686 7.03373 7.51016C7.15613 7.38834 7.28353 7.27024 7.40843 7.15131C7.42508 7.12982 7.44595 7.1119 7.46978 7.09862C7.49361 7.08535 7.5199 7.077 7.54707 7.07409ZM10.0451 12.8554C11.4431 12.8599 12.5431 11.7871 12.546 10.4149C12.5497 9.00587 11.4677 7.91816 10.0592 7.91444C9.73262 7.91254 9.40886 7.97464 9.10652 8.09718C8.80418 8.21971 8.52922 8.40028 8.29743 8.6285C8.06563 8.85672 7.88157 9.12811 7.7558 9.42708C7.63003 9.72605 7.56504 10.0467 7.56455 10.3707C7.55914 11.7623 8.64577 12.8504 10.0447 12.855L10.0451 12.8554Z" fill="white"/>
  <path d="M10.0453 12.2472C9.63601 12.2472 9.22676 12.2406 8.81792 12.2505C8.63348 12.255 8.57145 12.1869 8.58102 12.0089C8.5931 11.7896 8.57852 11.5687 8.58768 11.3482C8.60725 10.8642 8.96863 10.5053 9.45366 10.4946C9.85583 10.4855 10.2583 10.4855 10.661 10.4946C11.1236 10.5041 11.4741 10.8299 11.5312 11.2813C11.5628 11.5348 11.5445 11.7896 11.5503 12.0436C11.5536 12.1914 11.487 12.2501 11.3359 12.2501C10.9054 12.2434 10.4753 12.2472 10.0453 12.2472Z" fill="white"/>
  <path d="M10.0504 10.2711C9.93767 10.2725 9.82582 10.2514 9.7215 10.2091C9.61717 10.1667 9.5225 10.104 9.4431 10.0247C9.36371 9.9453 9.30122 9.8509 9.25936 9.7471C9.21749 9.64329 9.1971 9.5322 9.19939 9.42042C9.20189 8.93107 9.57826 8.55322 10.0604 8.55322C10.2917 8.55484 10.5132 8.64673 10.6768 8.80901C10.8404 8.97129 10.933 9.19092 10.9347 9.42042C10.9359 9.89036 10.5375 10.2744 10.0504 10.2711Z" fill="white"/>
</svg>