<svg xmlns="http://www.w3.org/2000/svg" width="25" height="25" viewBox="0 0 25 25" fill="none">
  <path d="M24.2428 9.57339H21.308C21.1675 9.15329 20.9974 8.74357 20.8007 8.34713L22.876 6.2718C23.1719 5.97596 23.1719 5.49522 22.876 5.20087L19.8052 2.13005C19.5212 1.84604 19.0183 1.84604 18.7343 2.13005L16.6649 4.19204C16.264 3.99087 15.8513 3.81781 15.4298 3.67727V0.75735C15.4298 0.340201 15.0895 0 14.6724 0H10.3263C9.9092 0 9.569 0.340217 9.569 0.75735V3.66251C9.14151 3.80303 8.72141 3.97609 8.31612 4.18171L6.26298 2.12857C6.1195 1.98509 5.93016 1.90521 5.72897 1.90521C5.52779 1.90521 5.33549 1.98509 5.19496 2.12857L2.12414 5.1994C1.8283 5.49524 1.8283 5.97598 2.12414 6.27033L4.16838 8.31456C3.96425 8.72281 3.78527 9.14439 3.64622 9.57483H0.75735C0.340201 9.57483 0 9.91505 0 10.3322V14.6752C0 15.0924 0.340217 15.4326 0.75735 15.4326H3.64622C3.78971 15.8645 3.96425 16.2846 4.16838 16.6899L2.12414 18.7341C1.8283 19.0299 1.8283 19.5107 2.12414 19.805L5.19496 22.8759C5.47897 23.1599 5.98189 23.1599 6.2659 22.8759L8.32199 20.8198C8.72728 21.0239 9.14443 21.194 9.57192 21.3345V24.2427C9.57192 24.6598 9.91213 25 10.3293 25H14.6723C15.0894 25 15.4296 24.6598 15.4296 24.2427V21.3197C15.8542 21.1792 16.2624 21.0061 16.6648 20.805L18.7357 22.8759C18.8791 23.0193 19.0685 23.0992 19.2697 23.0992C19.4708 23.0992 19.6631 23.0193 19.8037 22.8759L22.8745 19.805C23.1703 19.5092 23.1703 19.0285 22.8745 18.7341L20.7962 16.6558C20.9974 16.2579 21.1631 15.8497 21.3036 15.4296H24.2427C24.6599 15.4296 25.0001 15.0893 25.0001 14.6722V10.3307C25.0001 9.9106 24.6629 9.57339 24.2428 9.57339ZM12.4993 16.981C10.0261 16.981 8.02336 14.9782 8.02336 12.5051C8.02336 10.032 10.0262 8.02916 12.4993 8.02916C14.9724 8.02916 16.9752 10.032 16.9752 12.5051C16.9752 14.9768 14.9724 16.981 12.4993 16.981Z" fill="white"/>
</svg>