<svg xmlns="http://www.w3.org/2000/svg" width="17" height="15" viewBox="0 0 17 15" fill="none">
  <path d="M16.3156 7.03821L10.7362 1.45899C10.6346 1.35734 10.4814 1.3274 10.3477 1.3824C10.214 1.43741 10.1284 1.56762 10.1284 1.71244V4.66737C9.72524 4.60123 9.31721 4.56781 8.9071 4.56781C4.79493 4.56781 1.44922 7.91345 1.44922 12.0255C1.44922 12.7295 1.54739 13.4264 1.74165 14.0969C1.78621 14.2501 1.92546 14.3552 2.08423 14.3552C2.24298 14.3552 2.38224 14.2501 2.4268 14.0969C3.25398 11.229 5.92081 9.22586 8.90771 9.22586C9.31782 9.22586 9.72793 9.26346 10.129 9.33657V12.8708C10.129 13.0149 10.216 13.1451 10.3483 13.2008C10.482 13.2558 10.6352 13.2259 10.7369 13.1242L16.3162 7.54502C16.3837 7.47748 16.4213 7.38836 16.4213 7.29366C16.4213 7.19896 16.3837 7.10844 16.3162 7.0423L16.3156 7.03821ZM10.84 12.0096V9.05255C10.8435 8.88684 10.7314 8.73506 10.5622 8.69606C10.0205 8.57282 9.46413 8.51085 8.90432 8.51085C6.02937 8.51085 3.42534 10.1882 2.19365 12.7121C2.17067 12.4837 2.15814 12.2539 2.15814 12.0241C2.15814 8.30401 5.18479 5.27939 8.90303 5.27939C9.40922 5.27939 9.91404 5.33648 10.4021 5.44719C10.5943 5.49175 10.7851 5.3706 10.8283 5.17774C10.8352 5.14919 10.8373 5.11925 10.8373 5.0907V2.57016L15.5573 7.2881L10.8373 12.008L10.84 12.0096Z" fill="white" stroke="white"/>
</svg>