<svg width="195" height="15" viewBox="0 0 195 15" fill="none" xmlns="http://www.w3.org/2000/svg">
<path d="M16.8186 10.5386C16.8186 12.9041 14.775 14.0868 10.6879 14.0868H6.93359C5.27705 14.0868 3.97135 13.877 3.01649 13.4575C1.55527 12.8643 0.824653 11.895 0.824653 10.5495V4.45139C0.824653 2.06424 2.86097 0.87066 6.93359 0.87066H10.6879C12.5904 0.87066 13.9323 1.03704 14.7135 1.36979C16.1169 1.91233 16.8186 2.93953 16.8186 4.45139V10.5386ZM14.3989 10.4844V4.50564C14.3989 3.39164 13.18 2.83464 10.7422 2.83464H6.92274C4.46325 2.83464 3.23351 3.39164 3.23351 4.50564V10.4844C3.23351 11.5622 4.46325 12.1011 6.92274 12.1011H10.753C13.1836 12.1011 14.3989 11.5622 14.3989 10.4844ZM34.8958 12.6654C34.8958 13.6709 34.4546 14.1736 33.572 14.1736C33.167 14.1736 32.7076 13.9602 32.194 13.5334L20.9418 3.97396V13.2296C20.9418 13.6564 20.7682 13.924 20.421 14.0326C20.3197 14.047 20.1823 14.0579 20.0087 14.0651C19.8351 14.0796 19.6253 14.0868 19.3793 14.0868C18.8151 14.0868 18.533 13.8011 18.533 13.2296V2.2053C18.533 1.25043 18.9453 0.773004 19.77 0.773004C20.2908 0.773004 20.8261 1.00449 21.3759 1.46745L32.4761 10.9184V1.71701C32.4761 1.29745 32.6497 1.03342 32.997 0.924914C33.0982 0.910446 33.2357 0.899595 33.4093 0.892362C33.5829 0.877894 33.7927 0.87066 34.0386 0.87066C34.6101 0.87066 34.8958 1.15278 34.8958 1.71701V12.6654ZM39.3012 12.8932C39.3012 13.2622 39.1385 13.5587 38.8129 13.783C38.5308 13.9783 38.1944 14.076 37.8038 14.076C37.3987 14.076 37.0587 13.9819 36.7839 13.7938C36.4656 13.5768 36.3064 13.2766 36.3064 12.8932C36.3064 12.5171 36.4656 12.2241 36.7839 12.0143C37.0804 11.8262 37.4168 11.7322 37.793 11.7322C38.1764 11.7322 38.5163 11.8262 38.8129 12.0143C39.1385 12.2313 39.3012 12.5243 39.3012 12.8932ZM55.1324 7.53299C55.1324 8.1985 54.8322 8.53125 54.2318 8.53125H42.6975V13.2296C42.6975 13.8011 42.4154 14.0868 41.8511 14.0868C41.2507 14.0868 40.9035 14.0615 40.8095 14.0109C40.4622 13.9023 40.2886 13.6419 40.2886 13.2296V3.95226C40.2886 2.89612 40.9686 2.08594 42.3286 1.5217C43.3702 1.08767 44.5132 0.87066 45.7574 0.87066H47.5586C48.1301 0.87066 48.4158 1.23958 48.4158 1.97743C48.4158 2.5489 48.1301 2.83464 47.5586 2.83464C44.3179 2.83464 42.6975 3.23611 42.6975 4.03906V6.54557H54.2318C54.8322 6.54557 55.1324 6.87471 55.1324 7.53299ZM72.4175 10.5386C72.4175 12.9041 70.374 14.0868 66.2869 14.0868H62.5326C60.876 14.0868 59.5703 13.877 58.6155 13.4575C57.1542 12.8643 56.4236 11.895 56.4236 10.5495V4.45139C56.4236 2.06424 58.4599 0.87066 62.5326 0.87066H66.2869C68.1894 0.87066 69.5312 1.03704 70.3125 1.36979C71.7159 1.91233 72.4175 2.93953 72.4175 4.45139V10.5386ZM69.9978 10.4844V4.50564C69.9978 3.39164 68.7789 2.83464 66.3411 2.83464H62.5217C60.0622 2.83464 58.8325 3.39164 58.8325 4.50564V10.4844C58.8325 11.5622 60.0622 12.1011 62.5217 12.1011H66.352C68.7826 12.1011 69.9978 11.5622 69.9978 10.4844ZM90.4188 10.365C90.4188 12.8751 88.0136 14.1302 83.2031 14.1302C83.0584 14.1302 82.874 14.1266 82.6497 14.1194C82.4327 14.1194 82.1795 14.1157 81.8902 14.1085C81.6008 14.1013 81.3477 14.094 81.1306 14.0868C80.9136 14.0868 80.7328 14.0868 80.5881 14.0868C77.2027 14.0868 75.1664 13.4502 74.4792 12.1771C74.2405 11.7358 74.1211 11.1318 74.1211 10.365V1.71701C74.1211 1.15278 74.4032 0.87066 74.9674 0.87066C75.51 0.87066 75.8572 0.892362 76.0091 0.935764C76.3636 1.04427 76.5408 1.30469 76.5408 1.71701V10.2023C76.5408 11.0414 77.0508 11.602 78.0707 11.8841C78.3746 11.9565 78.7326 12.0107 79.145 12.0469C79.5645 12.083 80.0564 12.1011 80.6207 12.1011H83.941C85.2069 12.1011 86.0569 12.0324 86.4909 11.895C87.5109 11.6273 88.0208 11.0667 88.0208 10.2131V1.71701C88.0208 1.29745 88.1908 1.03704 88.5308 0.935764C88.6683 0.892362 89.0155 0.87066 89.5725 0.87066C90.1367 0.87066 90.4188 1.15278 90.4188 1.71701V10.365ZM108.55 12.6654C108.55 13.6709 108.109 14.1736 107.227 14.1736C106.821 14.1736 106.362 13.9602 105.849 13.5334L94.5963 3.97396V13.2296C94.5963 13.6564 94.4227 13.924 94.0755 14.0326C93.9742 14.047 93.8368 14.0579 93.6632 14.0651C93.4896 14.0796 93.2798 14.0868 93.0338 14.0868C92.4696 14.0868 92.1875 13.8011 92.1875 13.2296V2.2053C92.1875 1.25043 92.5998 0.773004 93.4245 0.773004C93.9453 0.773004 94.4806 1.00449 95.0304 1.46745L106.131 10.9184V1.71701C106.131 1.29745 106.304 1.03342 106.651 0.924914C106.753 0.910446 106.89 0.899595 107.064 0.892362C107.237 0.877894 107.447 0.87066 107.693 0.87066C108.265 0.87066 108.55 1.15278 108.55 1.71701V12.6654ZM126.736 10.5169C126.736 11.7611 126.11 12.7052 124.859 13.349C123.89 13.8409 122.707 14.0868 121.311 14.0868H111.111C110.547 14.0868 110.265 13.8011 110.265 13.2296V1.71701C110.265 1.15278 110.547 0.87066 111.111 0.87066H121.365C124.946 0.87066 126.736 1.9919 126.736 4.23438V10.5169ZM124.349 10.5061V4.24523C124.349 3.73163 123.958 3.34824 123.177 3.09505C122.62 2.92144 121.994 2.83464 121.3 2.83464H112.674V12.1011H121.257C122.002 12.1011 122.645 12.0035 123.188 11.8082C123.962 11.5333 124.349 11.0992 124.349 10.5061ZM145.616 13.1862C145.616 13.519 145.504 13.7975 145.28 14.0217C145.056 14.2459 144.777 14.3581 144.444 14.3581C143.981 14.3581 143.605 14.1411 143.316 13.707L141.178 10.6037H131.022L128.885 13.707C128.653 14.047 128.403 14.217 128.136 14.217C127.868 14.217 127.611 14.1302 127.365 13.9566C127.091 13.7685 126.953 13.5479 126.953 13.2947C126.953 13.2151 126.975 13.1428 127.018 13.0777L134.635 1.4349C134.946 0.957466 135.482 0.718751 136.241 0.718751C136.806 0.718751 137.182 0.877894 137.37 1.19618C137.384 1.21788 137.399 1.25043 137.413 1.29384C137.435 1.33001 137.464 1.37703 137.5 1.4349L145.573 12.8607C145.602 12.9113 145.616 13.0198 145.616 13.1862ZM139.768 8.60721L136.111 3.21441L132.433 8.60721H139.768ZM155.414 1.97743C155.414 2.5489 155.132 2.83464 154.568 2.83464H149.219V13.2296C149.219 13.8011 148.94 14.0868 148.383 14.0868C147.819 14.0868 147.468 14.0651 147.331 14.0217C146.991 13.9204 146.821 13.6564 146.821 13.2296V2.83464H141.515C140.943 2.83464 140.658 2.5489 140.658 1.97743C140.658 1.58681 140.701 1.31916 140.788 1.17448C140.903 0.971933 141.146 0.87066 141.515 0.87066H154.568C155.132 0.87066 155.414 1.23958 155.414 1.97743ZM158.832 13.2296C158.832 13.8011 158.55 14.0868 157.986 14.0868C157.74 14.0868 157.53 14.0796 157.357 14.0651C157.183 14.0579 157.046 14.047 156.944 14.0326C156.597 13.924 156.424 13.6564 156.424 13.2296V1.71701C156.424 1.29022 156.594 1.02619 156.934 0.924914C157.013 0.910446 157.14 0.899595 157.313 0.892362C157.487 0.877894 157.711 0.87066 157.986 0.87066C158.55 0.87066 158.832 1.15278 158.832 1.71701V13.2296ZM176.519 10.5386C176.519 12.9041 174.476 14.0868 170.388 14.0868H166.634C164.978 14.0868 163.672 13.877 162.717 13.4575C161.256 12.8643 160.525 11.895 160.525 10.5495V4.45139C160.525 2.06424 162.561 0.87066 166.634 0.87066H170.388C172.291 0.87066 173.633 1.03704 174.414 1.36979C175.817 1.91233 176.519 2.93953 176.519 4.45139V10.5386ZM174.099 10.4844V4.50564C174.099 3.39164 172.88 2.83464 170.443 2.83464H166.623C164.164 2.83464 162.934 3.39164 162.934 4.50564V10.4844C162.934 11.5622 164.164 12.1011 166.623 12.1011H170.454C172.884 12.1011 174.099 11.5622 174.099 10.4844ZM194.596 12.6654C194.596 13.6709 194.155 14.1736 193.273 14.1736C192.867 14.1736 192.408 13.9602 191.895 13.5334L180.642 3.97396V13.2296C180.642 13.6564 180.469 13.924 180.122 14.0326C180.02 14.047 179.883 14.0579 179.709 14.0651C179.536 14.0796 179.326 14.0868 179.08 14.0868C178.516 14.0868 178.234 13.8011 178.234 13.2296V2.2053C178.234 1.25043 178.646 0.773004 179.47 0.773004C179.991 0.773004 180.527 1.00449 181.076 1.46745L192.177 10.9184V1.71701C192.177 1.29745 192.35 1.03342 192.697 0.924914C192.799 0.910446 192.936 0.899595 193.11 0.892362C193.283 0.877894 193.493 0.87066 193.739 0.87066C194.311 0.87066 194.596 1.15278 194.596 1.71701V12.6654Z" fill="white"/>
</svg>
