<svg width="32" height="32" viewBox="0 0 32 32" fill="none" xmlns="http://www.w3.org/2000/svg">
<path d="M29.22 16.08C29.22 17.3067 28.6667 17.92 27.56 17.92H6.3V26.58C6.3 27.6333 5.78 28.16 4.74 28.16C3.63333 28.16 2.99333 28.1133 2.82 28.02C2.18 27.82 1.86 27.34 1.86 26.58V9.48C1.86 7.53333 3.11333 6.04 5.62 5C7.54 4.2 9.64667 3.8 11.94 3.8H15.26C16.3133 3.8 16.84 4.48 16.84 5.84C16.84 6.89333 16.3133 7.42 15.26 7.42C9.28667 7.42 6.3 8.16 6.3 9.64V14.26H27.56C28.6667 14.26 29.22 14.8667 29.22 16.08Z" fill="url(#paint0_linear_9578_3510)"/>
<defs>
<linearGradient id="paint0_linear_9578_3510" x1="2.97801" y1="18" x2="26.3765" y2="9.20023" gradientUnits="userSpaceOnUse">
<stop stop-color="#6BA5CF"/>
<stop offset="1" stop-color="#389CE3"/>
</linearGradient>
</defs>
</svg>
