<svg width="64" height="64" viewBox="0 0 64 64" fill="none" xmlns="http://www.w3.org/2000/svg">
<path d="M61.9998 32.8116C61.9998 35.5066 60.7841 36.8541 58.3527 36.8541H11.6442V55.8802C11.6442 58.1944 10.5017 59.3515 8.21684 59.3515C5.78547 59.3515 4.37938 59.249 3.99857 59.0439C2.59248 58.6045 1.88943 57.55 1.88943 55.8802V18.3113C1.88943 14.0344 4.64303 10.7535 10.1502 8.46865C14.3685 6.71104 18.9969 5.83223 24.0353 5.83223H31.3294C33.6436 5.83223 34.8007 7.3262 34.8007 10.3141C34.8007 12.6283 33.6436 13.7854 31.3294 13.7854C18.2059 13.7854 11.6442 15.4112 11.6442 18.6628V28.813H58.3527C60.7841 28.813 61.9998 30.1459 61.9998 32.8116Z" fill="url(#paint0_linear_9578_3512)"/>
<defs>
<linearGradient id="paint0_linear_9578_3512" x1="4.21976" y1="36.3999" x2="54.5085" y2="18.0604" gradientUnits="userSpaceOnUse">
<stop stop-color="#6BA5CF"/>
<stop offset="1" stop-color="#389CE3"/>
</linearGradient>
</defs>
</svg>
