<svg width="1200" height="630" viewBox="0 0 1200 630" fill="none" xmlns="http://www.w3.org/2000/svg">
<rect x="1" y="1" width="1198" height="628" rx="7.78003" fill="white" stroke="#DEE6F7" stroke-width="2"/>
<path d="M279.291 311.18V286.804H287.98C289.876 286.804 291.447 287.149 292.693 287.839C293.939 288.53 294.871 289.474 295.49 290.672C296.109 291.862 296.418 293.203 296.418 294.695C296.418 296.195 296.105 297.544 295.478 298.742C294.859 299.932 293.923 300.876 292.669 301.575C291.423 302.265 289.856 302.61 287.968 302.61H281.993V299.492H287.634C288.833 299.492 289.805 299.285 290.551 298.873C291.296 298.452 291.844 297.881 292.193 297.159C292.542 296.437 292.717 295.615 292.717 294.695C292.717 293.775 292.542 292.957 292.193 292.243C291.844 291.529 291.292 290.97 290.539 290.565C289.793 290.16 288.809 289.958 287.587 289.958H282.969V311.18H279.291ZM305.601 311.584C304.443 311.584 303.395 311.37 302.459 310.942C301.522 310.505 300.781 309.874 300.233 309.049C299.693 308.224 299.424 307.212 299.424 306.014C299.424 304.983 299.622 304.134 300.019 303.467C300.416 302.8 300.951 302.273 301.626 301.884C302.3 301.495 303.054 301.202 303.887 301.003C304.72 300.805 305.569 300.654 306.434 300.551C307.529 300.424 308.418 300.321 309.1 300.241C309.783 300.154 310.279 300.015 310.588 299.825C310.898 299.634 311.052 299.325 311.052 298.896V298.813C311.052 297.774 310.759 296.968 310.172 296.397C309.592 295.826 308.727 295.54 307.577 295.54C306.379 295.54 305.434 295.806 304.744 296.337C304.062 296.861 303.59 297.444 303.328 298.087L299.983 297.325C300.38 296.215 300.959 295.318 301.721 294.635C302.491 293.945 303.375 293.445 304.375 293.136C305.375 292.818 306.426 292.66 307.529 292.66C308.259 292.66 309.033 292.747 309.85 292.922C310.675 293.088 311.445 293.398 312.159 293.85C312.881 294.302 313.472 294.949 313.933 295.79C314.393 296.623 314.623 297.706 314.623 299.039V311.18H311.147V308.68H311.005C310.775 309.14 310.429 309.593 309.969 310.037C309.509 310.481 308.918 310.85 308.196 311.144C307.474 311.438 306.609 311.584 305.601 311.584ZM306.375 308.728C307.359 308.728 308.2 308.533 308.898 308.145C309.604 307.756 310.14 307.248 310.505 306.621C310.878 305.986 311.064 305.308 311.064 304.586V302.229C310.937 302.356 310.691 302.475 310.326 302.586C309.969 302.689 309.561 302.781 309.1 302.86C308.64 302.931 308.192 302.999 307.755 303.062C307.319 303.118 306.954 303.165 306.66 303.205C305.97 303.292 305.339 303.439 304.768 303.646C304.204 303.852 303.752 304.149 303.411 304.538C303.078 304.919 302.911 305.427 302.911 306.062C302.911 306.942 303.236 307.609 303.887 308.061C304.538 308.506 305.367 308.728 306.375 308.728ZM319.363 311.18V292.898H322.803V295.802H322.993C323.327 294.818 323.914 294.044 324.755 293.481C325.604 292.91 326.564 292.624 327.635 292.624C327.857 292.624 328.119 292.632 328.421 292.648C328.73 292.664 328.972 292.683 329.147 292.707V296.111C329.004 296.072 328.75 296.028 328.385 295.98C328.02 295.925 327.655 295.897 327.29 295.897C326.449 295.897 325.699 296.076 325.04 296.433C324.39 296.782 323.874 297.27 323.493 297.897C323.112 298.516 322.922 299.222 322.922 300.015V311.18H319.363ZM341.841 292.898V295.754H331.855V292.898H341.841ZM334.533 288.518H338.091V305.812C338.091 306.502 338.195 307.022 338.401 307.371C338.607 307.712 338.873 307.946 339.198 308.073C339.532 308.192 339.893 308.252 340.281 308.252C340.567 308.252 340.817 308.232 341.031 308.192C341.245 308.153 341.412 308.121 341.531 308.097L342.174 311.037C341.968 311.116 341.674 311.196 341.293 311.275C340.912 311.362 340.436 311.41 339.865 311.418C338.929 311.434 338.056 311.267 337.246 310.918C336.437 310.569 335.782 310.029 335.282 309.299C334.783 308.569 334.533 307.653 334.533 306.55V288.518ZM345.777 311.18V292.898H349.336V311.18H345.777ZM347.575 290.077C346.956 290.077 346.424 289.871 345.98 289.458C345.543 289.037 345.325 288.538 345.325 287.958C345.325 287.371 345.543 286.871 345.98 286.459C346.424 286.038 346.956 285.828 347.575 285.828C348.193 285.828 348.721 286.038 349.158 286.459C349.602 286.871 349.824 287.371 349.824 287.958C349.824 288.538 349.602 289.037 349.158 289.458C348.721 289.871 348.193 290.077 347.575 290.077ZM361.825 311.549C360.055 311.549 358.532 311.148 357.254 310.347C355.985 309.537 355.009 308.422 354.326 307.002C353.644 305.582 353.303 303.955 353.303 302.122C353.303 300.265 353.652 298.627 354.35 297.206C355.048 295.778 356.032 294.663 357.302 293.862C358.571 293.06 360.067 292.66 361.789 292.66C363.177 292.66 364.415 292.918 365.502 293.433C366.589 293.941 367.466 294.655 368.133 295.576C368.807 296.496 369.208 297.571 369.335 298.801H365.871C365.681 297.944 365.245 297.206 364.562 296.587C363.888 295.969 362.983 295.659 361.848 295.659C360.857 295.659 359.988 295.921 359.242 296.445C358.504 296.96 357.929 297.698 357.516 298.658C357.103 299.611 356.897 300.737 356.897 302.039C356.897 303.372 357.099 304.522 357.504 305.49C357.909 306.458 358.48 307.208 359.218 307.74C359.964 308.272 360.841 308.537 361.848 308.537C362.523 308.537 363.134 308.414 363.681 308.168C364.237 307.914 364.701 307.553 365.074 307.085C365.455 306.617 365.721 306.054 365.871 305.395H369.335C369.208 306.577 368.823 307.633 368.18 308.561C367.538 309.49 366.677 310.22 365.598 310.751C364.526 311.283 363.269 311.549 361.825 311.549ZM373.141 311.18V292.898H376.7V311.18H373.141ZM374.938 290.077C374.319 290.077 373.787 289.871 373.343 289.458C372.907 289.037 372.688 288.538 372.688 287.958C372.688 287.371 372.907 286.871 373.343 286.459C373.787 286.038 374.319 285.828 374.938 285.828C375.557 285.828 376.085 286.038 376.521 286.459C376.965 286.871 377.188 287.371 377.188 287.958C377.188 288.538 376.965 289.037 376.521 289.458C376.085 289.871 375.557 290.077 374.938 290.077ZM381.487 318.035V292.898H384.963V295.861H385.26C385.467 295.481 385.764 295.04 386.153 294.54C386.542 294.04 387.081 293.604 387.772 293.231C388.462 292.85 389.375 292.66 390.509 292.66C391.985 292.66 393.302 293.033 394.461 293.778C395.619 294.524 396.528 295.6 397.186 297.004C397.853 298.408 398.186 300.099 398.186 302.074C398.186 304.05 397.857 305.744 397.198 307.157C396.54 308.561 395.635 309.644 394.485 310.406C393.334 311.16 392.021 311.537 390.545 311.537C389.434 311.537 388.525 311.35 387.819 310.977C387.121 310.604 386.573 310.168 386.177 309.668C385.78 309.168 385.475 308.724 385.26 308.335H385.046V318.035H381.487ZM384.975 302.039C384.975 303.324 385.161 304.451 385.534 305.419C385.907 306.387 386.447 307.145 387.153 307.692C387.859 308.232 388.724 308.502 389.747 308.502C390.811 308.502 391.699 308.22 392.414 307.657C393.128 307.085 393.667 306.312 394.032 305.336C394.405 304.36 394.592 303.261 394.592 302.039C394.592 300.833 394.409 299.749 394.044 298.789C393.687 297.829 393.148 297.071 392.425 296.516C391.711 295.961 390.819 295.683 389.747 295.683C388.716 295.683 387.843 295.949 387.129 296.48C386.423 297.012 385.887 297.754 385.522 298.706C385.157 299.658 384.975 300.769 384.975 302.039ZM407.494 311.584C406.335 311.584 405.288 311.37 404.352 310.942C403.415 310.505 402.673 309.874 402.126 309.049C401.586 308.224 401.316 307.212 401.316 306.014C401.316 304.983 401.515 304.134 401.912 303.467C402.308 302.8 402.844 302.273 403.518 301.884C404.193 301.495 404.947 301.202 405.78 301.003C406.613 300.805 407.462 300.654 408.327 300.551C409.422 300.424 410.311 300.321 410.993 300.241C411.675 300.154 412.171 300.015 412.481 299.825C412.79 299.634 412.945 299.325 412.945 298.896V298.813C412.945 297.774 412.651 296.968 412.064 296.397C411.485 295.826 410.62 295.54 409.47 295.54C408.271 295.54 407.327 295.806 406.637 296.337C405.954 296.861 405.482 297.444 405.22 298.087L401.876 297.325C402.273 296.215 402.852 295.318 403.614 294.635C404.383 293.945 405.268 293.445 406.268 293.136C407.268 292.818 408.319 292.66 409.422 292.66C410.152 292.66 410.926 292.747 411.743 292.922C412.568 293.088 413.338 293.398 414.052 293.85C414.774 294.302 415.365 294.949 415.825 295.79C416.286 296.623 416.516 297.706 416.516 299.039V311.18H413.04V308.68H412.897C412.667 309.14 412.322 309.593 411.862 310.037C411.402 310.481 410.811 310.85 410.089 311.144C409.366 311.438 408.502 311.584 407.494 311.584ZM408.267 308.728C409.251 308.728 410.092 308.533 410.791 308.145C411.497 307.756 412.033 307.248 412.398 306.621C412.77 305.986 412.957 305.308 412.957 304.586V302.229C412.83 302.356 412.584 302.475 412.219 302.586C411.862 302.689 411.453 302.781 410.993 302.86C410.533 302.931 410.085 302.999 409.648 303.062C409.212 303.118 408.847 303.165 408.553 303.205C407.863 303.292 407.232 303.439 406.661 303.646C406.097 303.852 405.645 304.149 405.304 304.538C404.971 304.919 404.804 305.427 404.804 306.062C404.804 306.942 405.129 307.609 405.78 308.061C406.431 308.506 407.26 308.728 408.267 308.728ZM429.79 292.898V295.754H419.804V292.898H429.79ZM422.482 288.518H426.041V305.812C426.041 306.502 426.144 307.022 426.35 307.371C426.556 307.712 426.822 307.946 427.148 308.073C427.481 308.192 427.842 308.252 428.231 308.252C428.516 308.252 428.766 308.232 428.98 308.192C429.195 308.153 429.361 308.121 429.48 308.097L430.123 311.037C429.917 311.116 429.623 311.196 429.242 311.275C428.861 311.362 428.385 311.41 427.814 311.418C426.878 311.434 426.005 311.267 425.196 310.918C424.386 310.569 423.732 310.029 423.232 309.299C422.732 308.569 422.482 307.653 422.482 306.55V288.518ZM441.409 311.549C439.608 311.549 438.057 311.164 436.756 310.394C435.462 309.617 434.462 308.525 433.756 307.121C433.058 305.709 432.709 304.054 432.709 302.158C432.709 300.285 433.058 298.635 433.756 297.206C434.462 295.778 435.446 294.663 436.708 293.862C437.978 293.06 439.461 292.66 441.16 292.66C442.191 292.66 443.191 292.83 444.159 293.171C445.127 293.513 445.996 294.048 446.766 294.778C447.535 295.508 448.142 296.457 448.587 297.623C449.031 298.781 449.253 300.19 449.253 301.848V303.11H434.72V300.444H445.766C445.766 299.507 445.575 298.678 445.194 297.956C444.814 297.226 444.278 296.651 443.588 296.23C442.905 295.81 442.104 295.6 441.183 295.6C440.184 295.6 439.311 295.846 438.565 296.337C437.827 296.822 437.256 297.456 436.851 298.242C436.454 299.019 436.256 299.865 436.256 300.777V302.86C436.256 304.082 436.47 305.121 436.898 305.978C437.335 306.835 437.942 307.49 438.72 307.942C439.497 308.387 440.406 308.609 441.445 308.609C442.12 308.609 442.735 308.514 443.29 308.323C443.845 308.125 444.326 307.831 444.73 307.442C445.135 307.054 445.444 306.573 445.659 306.002L449.027 306.609C448.757 307.601 448.273 308.47 447.575 309.216C446.885 309.954 446.016 310.529 444.968 310.942C443.929 311.346 442.743 311.549 441.409 311.549ZM469.773 311.549C468.059 311.549 466.563 311.156 465.286 310.37C464.008 309.585 463.016 308.486 462.31 307.073C461.604 305.661 461.251 304.011 461.251 302.122C461.251 300.226 461.604 298.567 462.31 297.147C463.016 295.727 464.008 294.624 465.286 293.838C466.563 293.052 468.059 292.66 469.773 292.66C471.487 292.66 472.982 293.052 474.26 293.838C475.537 294.624 476.529 295.727 477.235 297.147C477.942 298.567 478.295 300.226 478.295 302.122C478.295 304.011 477.942 305.661 477.235 307.073C476.529 308.486 475.537 309.585 474.26 310.37C472.982 311.156 471.487 311.549 469.773 311.549ZM469.785 308.561C470.895 308.561 471.816 308.268 472.546 307.68C473.276 307.093 473.816 306.312 474.165 305.336C474.522 304.36 474.7 303.284 474.7 302.11C474.7 300.944 474.522 299.872 474.165 298.896C473.816 297.913 473.276 297.123 472.546 296.528C471.816 295.933 470.895 295.635 469.785 295.635C468.666 295.635 467.737 295.933 466.999 296.528C466.269 297.123 465.726 297.913 465.369 298.896C465.02 299.872 464.845 300.944 464.845 302.11C464.845 303.284 465.02 304.36 465.369 305.336C465.726 306.312 466.269 307.093 466.999 307.68C467.737 308.268 468.666 308.561 469.785 308.561ZM485.826 300.325V311.18H482.267V292.898H485.683V295.873H485.909C486.33 294.905 486.988 294.128 487.885 293.54C488.79 292.953 489.928 292.66 491.301 292.66C492.547 292.66 493.638 292.922 494.574 293.445C495.51 293.961 496.237 294.731 496.752 295.754C497.268 296.778 497.526 298.043 497.526 299.551V311.18H493.967V299.98C493.967 298.654 493.622 297.619 492.932 296.873C492.241 296.119 491.293 295.742 490.087 295.742C489.262 295.742 488.528 295.921 487.885 296.278C487.25 296.635 486.746 297.159 486.373 297.849C486.008 298.531 485.826 299.357 485.826 300.325ZM511.455 311.18V286.804H526.571V289.97H515.132V297.397H525.487V300.551H515.132V311.18H511.455ZM537.167 311.549C535.453 311.549 533.957 311.156 532.679 310.37C531.402 309.585 530.41 308.486 529.704 307.073C528.998 305.661 528.645 304.011 528.645 302.122C528.645 300.226 528.998 298.567 529.704 297.147C530.41 295.727 531.402 294.624 532.679 293.838C533.957 293.052 535.453 292.66 537.167 292.66C538.881 292.66 540.376 293.052 541.654 293.838C542.931 294.624 543.923 295.727 544.629 297.147C545.336 298.567 545.689 300.226 545.689 302.122C545.689 304.011 545.336 305.661 544.629 307.073C543.923 308.486 542.931 309.585 541.654 310.37C540.376 311.156 538.881 311.549 537.167 311.549ZM537.178 308.561C538.289 308.561 539.21 308.268 539.94 307.68C540.67 307.093 541.209 306.312 541.559 305.336C541.916 304.36 542.094 303.284 542.094 302.11C542.094 300.944 541.916 299.872 541.559 298.896C541.209 297.913 540.67 297.123 539.94 296.528C539.21 295.933 538.289 295.635 537.178 295.635C536.06 295.635 535.131 295.933 534.393 296.528C533.663 297.123 533.12 297.913 532.763 298.896C532.414 299.872 532.239 300.944 532.239 302.11C532.239 303.284 532.414 304.36 532.763 305.336C533.12 306.312 533.663 307.093 534.393 307.68C535.131 308.268 536.06 308.561 537.178 308.561ZM561.242 303.598V292.898H564.813V311.18H561.313V308.014H561.123C560.702 308.99 560.028 309.803 559.1 310.454C558.179 311.096 557.033 311.418 555.66 311.418C554.485 311.418 553.446 311.16 552.541 310.644C551.645 310.12 550.939 309.347 550.423 308.323C549.915 307.3 549.661 306.034 549.661 304.526V292.898H553.22V304.098C553.22 305.344 553.565 306.335 554.255 307.073C554.946 307.811 555.842 308.18 556.945 308.18C557.612 308.18 558.274 308.014 558.933 307.68C559.6 307.347 560.151 306.843 560.587 306.169C561.032 305.494 561.25 304.637 561.242 303.598ZM573.153 300.325V311.18H569.594V292.898H573.01V295.873H573.237C573.657 294.905 574.316 294.128 575.212 293.54C576.117 292.953 577.256 292.66 578.628 292.66C579.874 292.66 580.965 292.922 581.901 293.445C582.838 293.961 583.564 294.731 584.08 295.754C584.595 296.778 584.853 298.043 584.853 299.551V311.18H581.294V299.98C581.294 298.654 580.949 297.619 580.259 296.873C579.569 296.119 578.62 295.742 577.414 295.742C576.589 295.742 575.855 295.921 575.212 296.278C574.578 296.635 574.074 297.159 573.701 297.849C573.336 298.531 573.153 299.357 573.153 300.325ZM596.47 311.537C594.994 311.537 593.677 311.16 592.518 310.406C591.368 309.644 590.463 308.561 589.805 307.157C589.154 305.744 588.829 304.05 588.829 302.074C588.829 300.099 589.158 298.408 589.817 297.004C590.483 295.6 591.396 294.524 592.554 293.778C593.713 293.033 595.026 292.66 596.494 292.66C597.628 292.66 598.541 292.85 599.231 293.231C599.93 293.604 600.469 294.04 600.85 294.54C601.239 295.04 601.54 295.481 601.755 295.861H601.969V286.804H605.528V311.18H602.052V308.335H601.755C601.54 308.724 601.231 309.168 600.826 309.668C600.429 310.168 599.882 310.604 599.184 310.977C598.485 311.35 597.581 311.537 596.47 311.537ZM597.255 308.502C598.279 308.502 599.144 308.232 599.85 307.692C600.564 307.145 601.104 306.387 601.469 305.419C601.842 304.451 602.028 303.324 602.028 302.039C602.028 300.769 601.846 299.658 601.481 298.706C601.116 297.754 600.58 297.012 599.874 296.48C599.168 295.949 598.295 295.683 597.255 295.683C596.184 295.683 595.292 295.961 594.577 296.516C593.863 297.071 593.324 297.829 592.959 298.789C592.602 299.749 592.423 300.833 592.423 302.039C592.423 303.261 592.606 304.36 592.971 305.336C593.336 306.312 593.875 307.085 594.589 307.657C595.311 308.22 596.2 308.502 597.255 308.502ZM615.927 311.584C614.769 311.584 613.721 311.37 612.785 310.942C611.849 310.505 611.107 309.874 610.559 309.049C610.02 308.224 609.75 307.212 609.75 306.014C609.75 304.983 609.948 304.134 610.345 303.467C610.742 302.8 611.277 302.273 611.952 301.884C612.626 301.495 613.38 301.202 614.213 301.003C615.046 300.805 615.896 300.654 616.76 300.551C617.855 300.424 618.744 300.321 619.427 300.241C620.109 300.154 620.605 300.015 620.914 299.825C621.224 299.634 621.379 299.325 621.379 298.896V298.813C621.379 297.774 621.085 296.968 620.498 296.397C619.918 295.826 619.054 295.54 617.903 295.54C616.705 295.54 615.761 295.806 615.07 296.337C614.388 296.861 613.916 297.444 613.654 298.087L610.309 297.325C610.706 296.215 611.285 295.318 612.047 294.635C612.817 293.945 613.702 293.445 614.701 293.136C615.701 292.818 616.752 292.66 617.855 292.66C618.585 292.66 619.359 292.747 620.176 292.922C621.002 293.088 621.771 293.398 622.485 293.85C623.207 294.302 623.799 294.949 624.259 295.79C624.719 296.623 624.949 297.706 624.949 299.039V311.18H621.474V308.68H621.331C621.101 309.14 620.756 309.593 620.295 310.037C619.835 310.481 619.244 310.85 618.522 311.144C617.8 311.438 616.935 311.584 615.927 311.584ZM616.701 308.728C617.685 308.728 618.526 308.533 619.224 308.145C619.93 307.756 620.466 307.248 620.831 306.621C621.204 305.986 621.39 305.308 621.39 304.586V302.229C621.263 302.356 621.017 302.475 620.652 302.586C620.295 302.689 619.887 302.781 619.427 302.86C618.966 302.931 618.518 302.999 618.082 303.062C617.645 303.118 617.28 303.165 616.987 303.205C616.296 303.292 615.665 303.439 615.094 303.646C614.531 303.852 614.078 304.149 613.737 304.538C613.404 304.919 613.237 305.427 613.237 306.062C613.237 306.942 613.563 307.609 614.213 308.061C614.864 308.506 615.693 308.728 616.701 308.728ZM638.223 292.898V295.754H628.237V292.898H638.223ZM630.915 288.518H634.474V305.812C634.474 306.502 634.577 307.022 634.783 307.371C634.99 307.712 635.256 307.946 635.581 308.073C635.914 308.192 636.275 308.252 636.664 308.252C636.95 308.252 637.2 308.232 637.414 308.192C637.628 308.153 637.795 308.121 637.914 308.097L638.557 311.037C638.35 311.116 638.057 311.196 637.676 311.275C637.295 311.362 636.819 311.41 636.247 311.418C635.311 311.434 634.438 311.267 633.629 310.918C632.82 310.569 632.165 310.029 631.665 309.299C631.165 308.569 630.915 307.653 630.915 306.55V288.518ZM642.16 311.18V292.898H645.719V311.18H642.16ZM643.957 290.077C643.338 290.077 642.807 289.871 642.362 289.458C641.926 289.037 641.708 288.538 641.708 287.958C641.708 287.371 641.926 286.871 642.362 286.459C642.807 286.038 643.338 285.828 643.957 285.828C644.576 285.828 645.104 286.038 645.54 286.459C645.985 286.871 646.207 287.371 646.207 287.958C646.207 288.538 645.985 289.037 645.54 289.458C645.104 289.871 644.576 290.077 643.957 290.077ZM658.207 311.549C656.493 311.549 654.998 311.156 653.72 310.37C652.443 309.585 651.451 308.486 650.744 307.073C650.038 305.661 649.685 304.011 649.685 302.122C649.685 300.226 650.038 298.567 650.744 297.147C651.451 295.727 652.443 294.624 653.72 293.838C654.998 293.052 656.493 292.66 658.207 292.66C659.921 292.66 661.417 293.052 662.694 293.838C663.972 294.624 664.964 295.727 665.67 297.147C666.376 298.567 666.729 300.226 666.729 302.122C666.729 304.011 666.376 305.661 665.67 307.073C664.964 308.486 663.972 309.585 662.694 310.37C661.417 311.156 659.921 311.549 658.207 311.549ZM658.219 308.561C659.33 308.561 660.25 308.268 660.98 307.68C661.71 307.093 662.25 306.312 662.599 305.336C662.956 304.36 663.135 303.284 663.135 302.11C663.135 300.944 662.956 299.872 662.599 298.896C662.25 297.913 661.71 297.123 660.98 296.528C660.25 295.933 659.33 295.635 658.219 295.635C657.1 295.635 656.172 295.933 655.434 296.528C654.704 297.123 654.16 297.913 653.803 298.896C653.454 299.872 653.28 300.944 653.28 302.11C653.28 303.284 653.454 304.36 653.803 305.336C654.16 306.312 654.704 307.093 655.434 307.68C656.172 308.268 657.1 308.561 658.219 308.561ZM674.26 300.325V311.18H670.702V292.898H674.118V295.873H674.344C674.764 294.905 675.423 294.128 676.32 293.54C677.224 292.953 678.363 292.66 679.736 292.66C680.981 292.66 682.072 292.922 683.009 293.445C683.945 293.961 684.671 294.731 685.187 295.754C685.703 296.778 685.96 298.043 685.96 299.551V311.18H682.402V299.98C682.402 298.654 682.057 297.619 681.366 296.873C680.676 296.119 679.728 295.742 678.522 295.742C677.696 295.742 676.962 295.921 676.32 296.278C675.685 296.635 675.181 297.159 674.808 297.849C674.443 298.531 674.26 299.357 674.26 300.325ZM704.924 311.584C703.765 311.584 702.718 311.37 701.782 310.942C700.845 310.505 700.103 309.874 699.556 309.049C699.016 308.224 698.747 307.212 698.747 306.014C698.747 304.983 698.945 304.134 699.342 303.467C699.738 302.8 700.274 302.273 700.948 301.884C701.623 301.495 702.377 301.202 703.21 301.003C704.043 300.805 704.892 300.654 705.757 300.551C706.852 300.424 707.741 300.321 708.423 300.241C709.106 300.154 709.601 300.015 709.911 299.825C710.22 299.634 710.375 299.325 710.375 298.896V298.813C710.375 297.774 710.082 296.968 709.494 296.397C708.915 295.826 708.05 295.54 706.9 295.54C705.701 295.54 704.757 295.806 704.067 296.337C703.384 296.861 702.912 297.444 702.651 298.087L699.306 297.325C699.703 296.215 700.282 295.318 701.044 294.635C701.813 293.945 702.698 293.445 703.698 293.136C704.698 292.818 705.749 292.66 706.852 292.66C707.582 292.66 708.356 292.747 709.173 292.922C709.998 293.088 710.768 293.398 711.482 293.85C712.204 294.302 712.795 294.949 713.255 295.79C713.716 296.623 713.946 297.706 713.946 299.039V311.18H710.47V308.68H710.328C710.097 309.14 709.752 309.593 709.292 310.037C708.832 310.481 708.241 310.85 707.519 311.144C706.796 311.438 705.932 311.584 704.924 311.584ZM705.698 308.728C706.681 308.728 707.523 308.533 708.221 308.145C708.927 307.756 709.463 307.248 709.828 306.621C710.201 305.986 710.387 305.308 710.387 304.586V302.229C710.26 302.356 710.014 302.475 709.649 302.586C709.292 302.689 708.883 302.781 708.423 302.86C707.963 302.931 707.515 302.999 707.078 303.062C706.642 303.118 706.277 303.165 705.983 303.205C705.293 303.292 704.662 303.439 704.091 303.646C703.527 303.852 703.075 304.149 702.734 304.538C702.401 304.919 702.234 305.427 702.234 306.062C702.234 306.942 702.559 307.609 703.21 308.061C703.861 308.506 704.69 308.728 705.698 308.728ZM722.245 300.325V311.18H718.686V292.898H722.102V295.873H722.328C722.749 294.905 723.407 294.128 724.304 293.54C725.208 292.953 726.347 292.66 727.72 292.66C728.966 292.66 730.057 292.922 730.993 293.445C731.929 293.961 732.655 294.731 733.171 295.754C733.687 296.778 733.945 298.043 733.945 299.551V311.18H730.386V299.98C730.386 298.654 730.041 297.619 729.35 296.873C728.66 296.119 727.712 295.742 726.506 295.742C725.681 295.742 724.947 295.921 724.304 296.278C723.669 296.635 723.165 297.159 722.792 297.849C722.427 298.531 722.245 299.357 722.245 300.325ZM745.561 311.537C744.085 311.537 742.768 311.16 741.61 310.406C740.459 309.644 739.555 308.561 738.896 307.157C738.245 305.744 737.92 304.05 737.92 302.074C737.92 300.099 738.249 298.408 738.908 297.004C739.574 295.6 740.487 294.524 741.645 293.778C742.804 293.033 744.117 292.66 745.585 292.66C746.72 292.66 747.632 292.85 748.323 293.231C749.021 293.604 749.561 294.04 749.941 294.54C750.33 295.04 750.632 295.481 750.846 295.861H751.06V286.804H754.619V311.18H751.144V308.335H750.846C750.632 308.724 750.322 309.168 749.918 309.668C749.521 310.168 748.973 310.604 748.275 310.977C747.577 311.35 746.672 311.537 745.561 311.537ZM746.347 308.502C747.37 308.502 748.235 308.232 748.942 307.692C749.656 307.145 750.195 306.387 750.56 305.419C750.933 304.451 751.12 303.324 751.12 302.039C751.12 300.769 750.937 299.658 750.572 298.706C750.207 297.754 749.672 297.012 748.965 296.48C748.259 295.949 747.386 295.683 746.347 295.683C745.276 295.683 744.383 295.961 743.669 296.516C742.955 297.071 742.415 297.829 742.05 298.789C741.693 299.749 741.515 300.833 741.515 302.039C741.515 303.261 741.697 304.36 742.062 305.336C742.427 306.312 742.967 307.085 743.681 307.657C744.403 308.22 745.292 308.502 746.347 308.502ZM772.127 300.325V311.18H768.569V286.804H772.08V295.873H772.306C772.734 294.889 773.389 294.108 774.27 293.529C775.15 292.949 776.301 292.66 777.721 292.66C778.975 292.66 780.07 292.918 781.006 293.433C781.951 293.949 782.681 294.719 783.196 295.742C783.72 296.758 783.982 298.028 783.982 299.551V311.18H780.423V299.98C780.423 298.639 780.078 297.599 779.388 296.861C778.697 296.115 777.737 295.742 776.507 295.742C775.666 295.742 774.912 295.921 774.246 296.278C773.587 296.635 773.068 297.159 772.687 297.849C772.314 298.531 772.127 299.357 772.127 300.325ZM794.051 311.584C792.893 311.584 791.845 311.37 790.909 310.942C789.973 310.505 789.231 309.874 788.683 309.049C788.144 308.224 787.874 307.212 787.874 306.014C787.874 304.983 788.072 304.134 788.469 303.467C788.866 302.8 789.402 302.273 790.076 301.884C790.75 301.495 791.504 301.202 792.337 301.003C793.171 300.805 794.02 300.654 794.885 300.551C795.98 300.424 796.868 300.321 797.551 300.241C798.233 300.154 798.729 300.015 799.038 299.825C799.348 299.634 799.503 299.325 799.503 298.896V298.813C799.503 297.774 799.209 296.968 798.622 296.397C798.043 295.826 797.178 295.54 796.027 295.54C794.829 295.54 793.885 295.806 793.194 296.337C792.512 296.861 792.04 297.444 791.778 298.087L788.433 297.325C788.83 296.215 789.409 295.318 790.171 294.635C790.941 293.945 791.826 293.445 792.825 293.136C793.825 292.818 794.877 292.66 795.98 292.66C796.71 292.66 797.483 292.747 798.301 292.922C799.126 293.088 799.895 293.398 800.61 293.85C801.332 294.302 801.923 294.949 802.383 295.79C802.843 296.623 803.073 297.706 803.073 299.039V311.18H799.598V308.68H799.455C799.225 309.14 798.88 309.593 798.42 310.037C797.959 310.481 797.368 310.85 796.646 311.144C795.924 311.438 795.059 311.584 794.051 311.584ZM794.825 308.728C795.809 308.728 796.65 308.533 797.348 308.145C798.055 307.756 798.59 307.248 798.955 306.621C799.328 305.986 799.515 305.308 799.515 304.586V302.229C799.388 302.356 799.142 302.475 798.777 302.586C798.42 302.689 798.011 302.781 797.551 302.86C797.09 302.931 796.642 302.999 796.206 303.062C795.769 303.118 795.404 303.165 795.111 303.205C794.42 303.292 793.79 303.439 793.218 303.646C792.655 303.852 792.203 304.149 791.861 304.538C791.528 304.919 791.361 305.427 791.361 306.062C791.361 306.942 791.687 307.609 792.337 308.061C792.988 308.506 793.817 308.728 794.825 308.728ZM822.798 292.898L816.169 311.18H812.36L805.719 292.898H809.539L814.169 306.966H814.36L818.978 292.898H822.798ZM833.4 311.549C831.599 311.549 830.048 311.164 828.747 310.394C827.453 309.617 826.453 308.525 825.747 307.121C825.049 305.709 824.7 304.054 824.7 302.158C824.7 300.285 825.049 298.635 825.747 297.206C826.453 295.778 827.437 294.663 828.699 293.862C829.969 293.06 831.452 292.66 833.151 292.66C834.182 292.66 835.182 292.83 836.15 293.171C837.118 293.513 837.987 294.048 838.757 294.778C839.526 295.508 840.133 296.457 840.578 297.623C841.022 298.781 841.244 300.19 841.244 301.848V303.11H826.711V300.444H837.757C837.757 299.507 837.566 298.678 837.185 297.956C836.805 297.226 836.269 296.651 835.579 296.23C834.896 295.81 834.095 295.6 833.174 295.6C832.175 295.6 831.302 295.846 830.556 296.337C829.818 296.822 829.247 297.456 828.842 298.242C828.445 299.019 828.247 299.865 828.247 300.777V302.86C828.247 304.082 828.461 305.121 828.89 305.978C829.326 306.835 829.933 307.49 830.711 307.942C831.488 308.387 832.397 308.609 833.436 308.609C834.111 308.609 834.726 308.514 835.281 308.323C835.836 308.125 836.317 307.831 836.721 307.442C837.126 307.054 837.435 306.573 837.65 306.002L841.018 306.609C840.748 307.601 840.264 308.47 839.566 309.216C838.876 309.954 838.007 310.529 836.959 310.942C835.92 311.346 834.734 311.549 833.4 311.549ZM856.312 318.035C855.781 318.035 855.297 317.992 854.86 317.904C854.424 317.825 854.099 317.738 853.884 317.643L854.741 314.727C855.392 314.901 855.971 314.977 856.479 314.953C856.987 314.929 857.435 314.738 857.824 314.381C858.221 314.024 858.57 313.441 858.871 312.632L859.312 311.418L852.623 292.898H856.431L861.061 307.085H861.252L865.882 292.898H869.703L862.168 313.62C861.819 314.572 861.375 315.377 860.835 316.036C860.296 316.702 859.653 317.202 858.907 317.536C858.161 317.869 857.296 318.035 856.312 318.035ZM880.126 311.549C878.412 311.549 876.916 311.156 875.639 310.37C874.361 309.585 873.369 308.486 872.663 307.073C871.957 305.661 871.604 304.011 871.604 302.122C871.604 300.226 871.957 298.567 872.663 297.147C873.369 295.727 874.361 294.624 875.639 293.838C876.916 293.052 878.412 292.66 880.126 292.66C881.84 292.66 883.336 293.052 884.613 293.838C885.891 294.624 886.883 295.727 887.589 297.147C888.295 298.567 888.648 300.226 888.648 302.122C888.648 304.011 888.295 305.661 887.589 307.073C886.883 308.486 885.891 309.585 884.613 310.37C883.336 311.156 881.84 311.549 880.126 311.549ZM880.138 308.561C881.249 308.561 882.169 308.268 882.899 307.68C883.629 307.093 884.169 306.312 884.518 305.336C884.875 304.36 885.054 303.284 885.054 302.11C885.054 300.944 884.875 299.872 884.518 298.896C884.169 297.913 883.629 297.123 882.899 296.528C882.169 295.933 881.249 295.635 880.138 295.635C879.019 295.635 878.091 295.933 877.353 296.528C876.623 297.123 876.079 297.913 875.722 298.896C875.373 299.872 875.198 300.944 875.198 302.11C875.198 303.284 875.373 304.36 875.722 305.336C876.079 306.312 876.623 307.093 877.353 307.68C878.091 308.268 879.019 308.561 880.138 308.561ZM904.201 303.598V292.898H907.772V311.18H904.273V308.014H904.082C903.662 308.99 902.987 309.803 902.059 310.454C901.139 311.096 899.992 311.418 898.619 311.418C897.445 311.418 896.405 311.16 895.501 310.644C894.604 310.12 893.898 309.347 893.382 308.323C892.874 307.3 892.62 306.034 892.62 304.526V292.898H896.179V304.098C896.179 305.344 896.524 306.335 897.215 307.073C897.905 307.811 898.802 308.18 899.905 308.18C900.571 308.18 901.234 308.014 901.892 307.68C902.559 307.347 903.11 306.843 903.547 306.169C903.991 305.494 904.209 304.637 904.201 303.598ZM912.554 311.18V292.898H915.994V295.802H916.184C916.517 294.818 917.105 294.044 917.946 293.481C918.795 292.91 919.755 292.624 920.826 292.624C921.048 292.624 921.31 292.632 921.612 292.648C921.921 292.664 922.163 292.683 922.338 292.707V296.111C922.195 296.072 921.941 296.028 921.576 295.98C921.211 295.925 920.846 295.897 920.481 295.897C919.64 295.897 918.89 296.076 918.231 296.433C917.581 296.782 917.065 297.27 916.684 297.897C916.303 298.516 916.113 299.222 916.113 300.015V311.18H912.554ZM267.609 344.898L260.979 363.18H257.17L250.529 344.898H254.35L258.98 358.966H259.17L263.788 344.898H267.609ZM278.032 363.549C276.318 363.549 274.823 363.156 273.545 362.37C272.268 361.585 271.276 360.486 270.57 359.073C269.863 357.661 269.51 356.011 269.51 354.122C269.51 352.226 269.863 350.567 270.57 349.147C271.276 347.727 272.268 346.624 273.545 345.838C274.823 345.052 276.318 344.66 278.032 344.66C279.746 344.66 281.242 345.052 282.519 345.838C283.797 346.624 284.789 347.727 285.495 349.147C286.201 350.567 286.554 352.226 286.554 354.122C286.554 356.011 286.201 357.661 285.495 359.073C284.789 360.486 283.797 361.585 282.519 362.37C281.242 363.156 279.746 363.549 278.032 363.549ZM278.044 360.561C279.155 360.561 280.076 360.268 280.806 359.68C281.536 359.093 282.075 358.312 282.424 357.336C282.781 356.36 282.96 355.284 282.96 354.11C282.96 352.944 282.781 351.872 282.424 350.896C282.075 349.913 281.536 349.123 280.806 348.528C280.076 347.933 279.155 347.635 278.044 347.635C276.925 347.635 275.997 347.933 275.259 348.528C274.529 349.123 273.985 349.913 273.628 350.896C273.279 351.872 273.105 352.944 273.105 354.11C273.105 355.284 273.279 356.36 273.628 357.336C273.985 358.312 274.529 359.093 275.259 359.68C275.997 360.268 276.925 360.561 278.044 360.561ZM290.527 363.18V344.898H294.086V363.18H290.527ZM292.324 342.077C291.705 342.077 291.173 341.871 290.729 341.458C290.293 341.037 290.074 340.538 290.074 339.958C290.074 339.371 290.293 338.871 290.729 338.459C291.173 338.038 291.705 337.828 292.324 337.828C292.943 337.828 293.471 338.038 293.907 338.459C294.351 338.871 294.574 339.371 294.574 339.958C294.574 340.538 294.351 341.037 293.907 341.458C293.471 341.871 292.943 342.077 292.324 342.077ZM306.574 363.549C304.805 363.549 303.281 363.148 302.004 362.347C300.734 361.537 299.758 360.422 299.076 359.002C298.393 357.582 298.052 355.955 298.052 354.122C298.052 352.265 298.401 350.627 299.099 349.206C299.798 347.778 300.782 346.663 302.051 345.862C303.321 345.06 304.816 344.66 306.538 344.66C307.927 344.66 309.165 344.918 310.252 345.433C311.339 345.941 312.216 346.655 312.882 347.576C313.557 348.496 313.957 349.571 314.084 350.801H310.621C310.43 349.944 309.994 349.206 309.312 348.587C308.637 347.969 307.733 347.659 306.598 347.659C305.606 347.659 304.737 347.921 303.991 348.445C303.253 348.96 302.678 349.698 302.265 350.658C301.853 351.611 301.646 352.737 301.646 354.039C301.646 355.372 301.849 356.522 302.254 357.49C302.658 358.458 303.229 359.208 303.967 359.74C304.713 360.272 305.59 360.537 306.598 360.537C307.272 360.537 307.883 360.414 308.431 360.168C308.986 359.914 309.45 359.553 309.823 359.085C310.204 358.617 310.47 358.054 310.621 357.395H314.084C313.957 358.577 313.573 359.633 312.93 360.561C312.287 361.49 311.426 362.22 310.347 362.751C309.276 363.283 308.018 363.549 306.574 363.549ZM325.77 363.549C323.968 363.549 322.417 363.164 321.116 362.394C319.822 361.617 318.823 360.525 318.116 359.121C317.418 357.709 317.069 356.054 317.069 354.158C317.069 352.285 317.418 350.635 318.116 349.206C318.823 347.778 319.806 346.663 321.068 345.862C322.338 345.06 323.821 344.66 325.52 344.66C326.551 344.66 327.551 344.83 328.519 345.171C329.487 345.513 330.356 346.048 331.126 346.778C331.895 347.508 332.502 348.457 332.947 349.623C333.391 350.781 333.613 352.19 333.613 353.848V355.11H319.08V352.444H330.126C330.126 351.507 329.935 350.678 329.554 349.956C329.174 349.226 328.638 348.651 327.948 348.23C327.265 347.81 326.464 347.6 325.543 347.6C324.544 347.6 323.671 347.846 322.925 348.337C322.187 348.822 321.616 349.456 321.211 350.242C320.814 351.019 320.616 351.865 320.616 352.777V354.86C320.616 356.082 320.83 357.121 321.259 357.978C321.695 358.835 322.302 359.49 323.08 359.942C323.857 360.387 324.766 360.609 325.805 360.609C326.48 360.609 327.095 360.514 327.65 360.323C328.206 360.125 328.686 359.831 329.09 359.442C329.495 359.054 329.804 358.573 330.019 358.002L333.387 358.609C333.117 359.601 332.633 360.47 331.935 361.216C331.245 361.954 330.376 362.529 329.328 362.942C328.289 363.346 327.103 363.549 325.77 363.549ZM349.991 352.325V363.18H346.432V338.804H349.943V347.873H350.169C350.598 346.889 351.252 346.108 352.133 345.529C353.014 344.949 354.164 344.66 355.585 344.66C356.839 344.66 357.934 344.918 358.87 345.433C359.814 345.949 360.544 346.719 361.06 347.742C361.584 348.758 361.845 350.028 361.845 351.551V363.18H358.287V351.98C358.287 350.639 357.941 349.599 357.251 348.861C356.561 348.115 355.601 347.742 354.371 347.742C353.53 347.742 352.776 347.921 352.109 348.278C351.451 348.635 350.931 349.159 350.55 349.849C350.177 350.531 349.991 351.357 349.991 352.325ZM374.474 363.549C372.673 363.549 371.121 363.164 369.82 362.394C368.527 361.617 367.527 360.525 366.821 359.121C366.122 357.709 365.773 356.054 365.773 354.158C365.773 352.285 366.122 350.635 366.821 349.206C367.527 347.778 368.511 346.663 369.772 345.862C371.042 345.06 372.526 344.66 374.224 344.66C375.255 344.66 376.255 344.83 377.223 345.171C378.191 345.513 379.06 346.048 379.83 346.778C380.6 347.508 381.207 348.457 381.651 349.623C382.095 350.781 382.317 352.19 382.317 353.848V355.11H367.785V352.444H378.83C378.83 351.507 378.64 350.678 378.259 349.956C377.878 349.226 377.342 348.651 376.652 348.23C375.97 347.81 375.168 347.6 374.248 347.6C373.248 347.6 372.375 347.846 371.629 348.337C370.891 348.822 370.32 349.456 369.915 350.242C369.518 351.019 369.32 351.865 369.32 352.777V354.86C369.32 356.082 369.534 357.121 369.963 357.978C370.399 358.835 371.006 359.49 371.784 359.942C372.562 360.387 373.47 360.609 374.51 360.609C375.184 360.609 375.799 360.514 376.354 360.323C376.91 360.125 377.39 359.831 377.795 359.442C378.199 359.054 378.509 358.573 378.723 358.002L382.091 358.609C381.822 359.601 381.337 360.47 380.639 361.216C379.949 361.954 379.08 362.529 378.033 362.942C376.993 363.346 375.807 363.549 374.474 363.549ZM391.586 363.584C390.428 363.584 389.38 363.37 388.444 362.942C387.508 362.505 386.766 361.874 386.218 361.049C385.679 360.224 385.409 359.212 385.409 358.014C385.409 356.983 385.607 356.134 386.004 355.467C386.401 354.8 386.937 354.273 387.611 353.884C388.285 353.495 389.039 353.202 389.872 353.003C390.706 352.805 391.555 352.654 392.42 352.551C393.515 352.424 394.403 352.321 395.086 352.241C395.768 352.154 396.264 352.015 396.573 351.825C396.883 351.634 397.038 351.325 397.038 350.896V350.813C397.038 349.774 396.744 348.968 396.157 348.397C395.578 347.826 394.713 347.54 393.562 347.54C392.364 347.54 391.42 347.806 390.729 348.337C390.047 348.861 389.575 349.444 389.313 350.087L385.968 349.325C386.365 348.215 386.944 347.318 387.706 346.635C388.476 345.945 389.361 345.445 390.36 345.136C391.36 344.818 392.412 344.66 393.515 344.66C394.245 344.66 395.018 344.747 395.836 344.922C396.661 345.088 397.43 345.398 398.145 345.85C398.867 346.302 399.458 346.949 399.918 347.79C400.378 348.623 400.608 349.706 400.608 351.039V363.18H397.133V360.68H396.99C396.76 361.14 396.415 361.593 395.955 362.037C395.494 362.481 394.903 362.85 394.181 363.144C393.459 363.438 392.594 363.584 391.586 363.584ZM392.36 360.728C393.344 360.728 394.185 360.533 394.883 360.145C395.59 359.756 396.125 359.248 396.49 358.621C396.863 357.986 397.05 357.308 397.05 356.586V354.229C396.923 354.356 396.677 354.475 396.312 354.586C395.955 354.689 395.546 354.781 395.086 354.86C394.625 354.931 394.177 354.999 393.741 355.062C393.304 355.118 392.939 355.165 392.646 355.205C391.955 355.292 391.325 355.439 390.753 355.646C390.19 355.852 389.738 356.149 389.396 356.538C389.063 356.919 388.896 357.427 388.896 358.062C388.896 358.942 389.222 359.609 389.872 360.061C390.523 360.506 391.352 360.728 392.36 360.728ZM405.348 363.18V344.898H408.788V347.802H408.979C409.312 346.818 409.899 346.044 410.74 345.481C411.589 344.91 412.549 344.624 413.621 344.624C413.843 344.624 414.105 344.632 414.406 344.648C414.716 344.664 414.958 344.683 415.132 344.707V348.111C414.989 348.072 414.735 348.028 414.37 347.98C414.005 347.925 413.64 347.897 413.275 347.897C412.434 347.897 411.684 348.076 411.026 348.433C410.375 348.782 409.859 349.27 409.479 349.897C409.098 350.516 408.907 351.222 408.907 352.015V363.18H405.348ZM424.401 363.537C422.925 363.537 421.608 363.16 420.45 362.406C419.299 361.644 418.394 360.561 417.736 359.157C417.085 357.744 416.76 356.05 416.76 354.074C416.76 352.099 417.089 350.408 417.748 349.004C418.414 347.6 419.327 346.524 420.485 345.778C421.644 345.033 422.957 344.66 424.425 344.66C425.56 344.66 426.472 344.85 427.162 345.231C427.861 345.604 428.4 346.04 428.781 346.54C429.17 347.04 429.471 347.481 429.686 347.861H429.9V338.804H433.459V363.18H429.983V360.335H429.686C429.471 360.724 429.162 361.168 428.757 361.668C428.361 362.168 427.813 362.604 427.115 362.977C426.417 363.35 425.512 363.537 424.401 363.537ZM425.187 360.502C426.21 360.502 427.075 360.232 427.781 359.692C428.495 359.145 429.035 358.387 429.4 357.419C429.773 356.451 429.959 355.324 429.959 354.039C429.959 352.769 429.777 351.658 429.412 350.706C429.047 349.754 428.511 349.012 427.805 348.48C427.099 347.949 426.226 347.683 425.187 347.683C424.115 347.683 423.223 347.961 422.509 348.516C421.794 349.071 421.255 349.829 420.89 350.789C420.533 351.749 420.354 352.833 420.354 354.039C420.354 355.261 420.537 356.36 420.902 357.336C421.267 358.312 421.806 359.085 422.521 359.657C423.243 360.22 424.131 360.502 425.187 360.502ZM440.883 363.406C440.232 363.406 439.673 363.176 439.205 362.715C438.736 362.247 438.502 361.684 438.502 361.025C438.502 360.375 438.736 359.819 439.205 359.359C439.673 358.891 440.232 358.657 440.883 358.657C441.533 358.657 442.093 358.891 442.561 359.359C443.029 359.819 443.263 360.375 443.263 361.025C443.263 361.462 443.152 361.862 442.93 362.228C442.716 362.585 442.43 362.87 442.073 363.084C441.716 363.299 441.319 363.406 440.883 363.406ZM456.793 363.18V338.804H471.909V341.97H460.471V349.397H470.826V352.551H460.471V363.18H456.793ZM482.505 363.549C480.791 363.549 479.296 363.156 478.018 362.37C476.741 361.585 475.749 360.486 475.042 359.073C474.336 357.661 473.983 356.011 473.983 354.122C473.983 352.226 474.336 350.567 475.042 349.147C475.749 347.727 476.741 346.624 478.018 345.838C479.296 345.052 480.791 344.66 482.505 344.66C484.219 344.66 485.715 345.052 486.992 345.838C488.27 346.624 489.262 347.727 489.968 349.147C490.674 350.567 491.027 352.226 491.027 354.122C491.027 356.011 490.674 357.661 489.968 359.073C489.262 360.486 488.27 361.585 486.992 362.37C485.715 363.156 484.219 363.549 482.505 363.549ZM482.517 360.561C483.628 360.561 484.548 360.268 485.278 359.68C486.008 359.093 486.548 358.312 486.897 357.336C487.254 356.36 487.433 355.284 487.433 354.11C487.433 352.944 487.254 351.872 486.897 350.896C486.548 349.913 486.008 349.123 485.278 348.528C484.548 347.933 483.628 347.635 482.517 347.635C481.398 347.635 480.47 347.933 479.732 348.528C479.002 349.123 478.458 349.913 478.101 350.896C477.752 351.872 477.578 352.944 477.578 354.11C477.578 355.284 477.752 356.36 478.101 357.336C478.458 358.312 479.002 359.093 479.732 359.68C480.47 360.268 481.398 360.561 482.517 360.561ZM506.581 355.598V344.898H510.151V363.18H506.652V360.014H506.462C506.041 360.99 505.367 361.803 504.438 362.454C503.518 363.096 502.371 363.418 500.998 363.418C499.824 363.418 498.785 363.16 497.88 362.644C496.983 362.12 496.277 361.347 495.761 360.323C495.254 359.3 495 358.034 495 356.526V344.898H498.558V356.098C498.558 357.344 498.904 358.335 499.594 359.073C500.284 359.811 501.181 360.18 502.284 360.18C502.95 360.18 503.613 360.014 504.272 359.68C504.938 359.347 505.49 358.843 505.926 358.169C506.37 357.494 506.589 356.637 506.581 355.598ZM518.492 352.325V363.18H514.933V344.898H518.349V347.873H518.575C518.996 346.905 519.654 346.128 520.551 345.54C521.456 344.953 522.594 344.66 523.967 344.66C525.213 344.66 526.304 344.922 527.24 345.445C528.176 345.961 528.902 346.731 529.418 347.754C529.934 348.778 530.192 350.043 530.192 351.551V363.18H526.633V351.98C526.633 350.654 526.288 349.619 525.598 348.873C524.907 348.119 523.959 347.742 522.753 347.742C521.928 347.742 521.194 347.921 520.551 348.278C519.916 348.635 519.412 349.159 519.039 349.849C518.674 350.531 518.492 351.357 518.492 352.325ZM541.809 363.537C540.333 363.537 539.015 363.16 537.857 362.406C536.706 361.644 535.802 360.561 535.143 359.157C534.493 357.744 534.167 356.05 534.167 354.074C534.167 352.099 534.497 350.408 535.155 349.004C535.822 347.6 536.734 346.524 537.893 345.778C539.051 345.033 540.364 344.66 541.832 344.66C542.967 344.66 543.88 344.85 544.57 345.231C545.268 345.604 545.808 346.04 546.189 346.54C546.577 347.04 546.879 347.481 547.093 347.861H547.307V338.804H550.866V363.18H547.391V360.335H547.093C546.879 360.724 546.569 361.168 546.165 361.668C545.768 362.168 545.221 362.604 544.522 362.977C543.824 363.35 542.919 363.537 541.809 363.537ZM542.594 360.502C543.618 360.502 544.483 360.232 545.189 359.692C545.903 359.145 546.442 358.387 546.808 357.419C547.18 356.451 547.367 355.324 547.367 354.039C547.367 352.769 547.184 351.658 546.819 350.706C546.454 349.754 545.919 349.012 545.213 348.48C544.506 347.949 543.634 347.683 542.594 347.683C541.523 347.683 540.63 347.961 539.916 348.516C539.202 349.071 538.662 349.829 538.297 350.789C537.94 351.749 537.762 352.833 537.762 354.039C537.762 355.261 537.944 356.36 538.309 357.336C538.674 358.312 539.214 359.085 539.928 359.657C540.65 360.22 541.539 360.502 542.594 360.502ZM561.266 363.584C560.107 363.584 559.06 363.37 558.124 362.942C557.187 362.505 556.445 361.874 555.898 361.049C555.358 360.224 555.089 359.212 555.089 358.014C555.089 356.983 555.287 356.134 555.684 355.467C556.08 354.8 556.616 354.273 557.29 353.884C557.965 353.495 558.719 353.202 559.552 353.003C560.385 352.805 561.234 352.654 562.099 352.551C563.194 352.424 564.083 352.321 564.765 352.241C565.448 352.154 565.943 352.015 566.253 351.825C566.562 351.634 566.717 351.325 566.717 350.896V350.813C566.717 349.774 566.424 348.968 565.836 348.397C565.257 347.826 564.392 347.54 563.242 347.54C562.043 347.54 561.099 347.806 560.409 348.337C559.726 348.861 559.254 349.444 558.992 350.087L555.648 349.325C556.045 348.215 556.624 347.318 557.386 346.635C558.155 345.945 559.04 345.445 560.04 345.136C561.04 344.818 562.091 344.66 563.194 344.66C563.924 344.66 564.698 344.747 565.515 344.922C566.34 345.088 567.11 345.398 567.824 345.85C568.546 346.302 569.137 346.949 569.597 347.79C570.058 348.623 570.288 349.706 570.288 351.039V363.18H566.812V360.68H566.669C566.439 361.14 566.094 361.593 565.634 362.037C565.174 362.481 564.583 362.85 563.861 363.144C563.138 363.438 562.274 363.584 561.266 363.584ZM562.039 360.728C563.023 360.728 563.865 360.533 564.563 360.145C565.269 359.756 565.805 359.248 566.17 358.621C566.543 357.986 566.729 357.308 566.729 356.586V354.229C566.602 354.356 566.356 354.475 565.991 354.586C565.634 354.689 565.225 354.781 564.765 354.86C564.305 354.931 563.857 354.999 563.42 355.062C562.984 355.118 562.619 355.165 562.325 355.205C561.635 355.292 561.004 355.439 560.433 355.646C559.869 355.852 559.417 356.149 559.076 356.538C558.743 356.919 558.576 357.427 558.576 358.062C558.576 358.942 558.901 359.609 559.552 360.061C560.203 360.506 561.032 360.728 562.039 360.728ZM583.562 344.898V347.754H573.576V344.898H583.562ZM576.254 340.518H579.813V357.812C579.813 358.502 579.916 359.022 580.122 359.371C580.328 359.712 580.594 359.946 580.92 360.073C581.253 360.192 581.614 360.252 582.003 360.252C582.288 360.252 582.538 360.232 582.753 360.192C582.967 360.153 583.133 360.121 583.252 360.097L583.895 363.037C583.689 363.116 583.395 363.196 583.014 363.275C582.633 363.362 582.157 363.41 581.586 363.418C580.65 363.434 579.777 363.267 578.968 362.918C578.158 362.569 577.504 362.029 577.004 361.299C576.504 360.569 576.254 359.653 576.254 358.55V340.518ZM587.499 363.18V344.898H591.057V363.18H587.499ZM589.296 342.077C588.677 342.077 588.145 341.871 587.701 341.458C587.264 341.037 587.046 340.538 587.046 339.958C587.046 339.371 587.264 338.871 587.701 338.459C588.145 338.038 588.677 337.828 589.296 337.828C589.915 337.828 590.442 338.038 590.879 338.459C591.323 338.871 591.545 339.371 591.545 339.958C591.545 340.538 591.323 341.037 590.879 341.458C590.442 341.871 589.915 342.077 589.296 342.077ZM603.546 363.549C601.832 363.549 600.336 363.156 599.059 362.37C597.781 361.585 596.789 360.486 596.083 359.073C595.377 357.661 595.024 356.011 595.024 354.122C595.024 352.226 595.377 350.567 596.083 349.147C596.789 347.727 597.781 346.624 599.059 345.838C600.336 345.052 601.832 344.66 603.546 344.66C605.26 344.66 606.756 345.052 608.033 345.838C609.311 346.624 610.302 347.727 611.009 349.147C611.715 350.567 612.068 352.226 612.068 354.122C612.068 356.011 611.715 357.661 611.009 359.073C610.302 360.486 609.311 361.585 608.033 362.37C606.756 363.156 605.26 363.549 603.546 363.549ZM603.558 360.561C604.669 360.561 605.589 360.268 606.319 359.68C607.049 359.093 607.589 358.312 607.938 357.336C608.295 356.36 608.473 355.284 608.473 354.11C608.473 352.944 608.295 351.872 607.938 350.896C607.589 349.913 607.049 349.123 606.319 348.528C605.589 347.933 604.669 347.635 603.558 347.635C602.439 347.635 601.511 347.933 600.773 348.528C600.043 349.123 599.499 349.913 599.142 350.896C598.793 351.872 598.618 352.944 598.618 354.11C598.618 355.284 598.793 356.36 599.142 357.336C599.499 358.312 600.043 359.093 600.773 359.68C601.511 360.268 602.439 360.561 603.558 360.561ZM619.599 352.325V363.18H616.04V344.898H619.456V347.873H619.682C620.103 346.905 620.762 346.128 621.658 345.54C622.563 344.953 623.701 344.66 625.074 344.66C626.32 344.66 627.411 344.922 628.347 345.445C629.284 345.961 630.01 346.731 630.525 347.754C631.041 348.778 631.299 350.043 631.299 351.551V363.18H627.74V351.98C627.74 350.654 627.395 349.619 626.705 348.873C626.014 348.119 625.066 347.742 623.86 347.742C623.035 347.742 622.301 347.921 621.658 348.278C621.023 348.635 620.52 349.159 620.147 349.849C619.782 350.531 619.599 351.357 619.599 352.325ZM644.942 363.18V344.898H648.382V347.802H648.572C648.906 346.818 649.493 346.044 650.334 345.481C651.183 344.91 652.143 344.624 653.214 344.624C653.436 344.624 653.698 344.632 654 344.648C654.309 344.664 654.551 344.683 654.726 344.707V348.111C654.583 348.072 654.329 348.028 653.964 347.98C653.599 347.925 653.234 347.897 652.869 347.897C652.028 347.897 651.278 348.076 650.62 348.433C649.969 348.782 649.453 349.27 649.072 349.897C648.691 350.516 648.501 351.222 648.501 352.015V363.18H644.942ZM665.03 363.549C663.229 363.549 661.678 363.164 660.376 362.394C659.083 361.617 658.083 360.525 657.377 359.121C656.679 357.709 656.33 356.054 656.33 354.158C656.33 352.285 656.679 350.635 657.377 349.206C658.083 347.778 659.067 346.663 660.329 345.862C661.598 345.06 663.082 344.66 664.78 344.66C665.812 344.66 666.812 344.83 667.78 345.171C668.748 345.513 669.617 346.048 670.386 346.778C671.156 347.508 671.763 348.457 672.207 349.623C672.652 350.781 672.874 352.19 672.874 353.848V355.11H658.341V352.444H669.387C669.387 351.507 669.196 350.678 668.815 349.956C668.434 349.226 667.899 348.651 667.208 348.23C666.526 347.81 665.725 347.6 664.804 347.6C663.804 347.6 662.932 347.846 662.186 348.337C661.448 348.822 660.876 349.456 660.472 350.242C660.075 351.019 659.877 351.865 659.877 352.777V354.86C659.877 356.082 660.091 357.121 660.519 357.978C660.956 358.835 661.563 359.49 662.34 359.942C663.118 360.387 664.027 360.609 665.066 360.609C665.74 360.609 666.355 360.514 666.911 360.323C667.466 360.125 667.946 359.831 668.351 359.442C668.756 359.054 669.065 358.573 669.279 358.002L672.648 358.609C672.378 359.601 671.894 360.47 671.196 361.216C670.505 361.954 669.636 362.529 668.589 362.942C667.55 363.346 666.363 363.549 665.03 363.549ZM680.753 363.18L675.373 344.898H679.051L682.634 358.324H682.812L686.407 344.898H690.085L693.655 358.264H693.834L697.393 344.898H701.071L695.703 363.18H692.072L688.359 349.98H688.085L684.372 363.18H680.753ZM709.768 363.584C708.61 363.584 707.562 363.37 706.626 362.942C705.69 362.505 704.948 361.874 704.4 361.049C703.861 360.224 703.591 359.212 703.591 358.014C703.591 356.983 703.789 356.134 704.186 355.467C704.583 354.8 705.118 354.273 705.793 353.884C706.467 353.495 707.221 353.202 708.054 353.003C708.887 352.805 709.736 352.654 710.601 352.551C711.696 352.424 712.585 352.321 713.267 352.241C713.95 352.154 714.446 352.015 714.755 351.825C715.065 351.634 715.219 351.325 715.219 350.896V350.813C715.219 349.774 714.926 348.968 714.339 348.397C713.759 347.826 712.894 347.54 711.744 347.54C710.546 347.54 709.601 347.806 708.911 348.337C708.229 348.861 707.757 349.444 707.495 350.087L704.15 349.325C704.547 348.215 705.126 347.318 705.888 346.635C706.658 345.945 707.542 345.445 708.542 345.136C709.542 344.818 710.593 344.66 711.696 344.66C712.426 344.66 713.2 344.747 714.017 344.922C714.842 345.088 715.612 345.398 716.326 345.85C717.048 346.302 717.64 346.949 718.1 347.79C718.56 348.623 718.79 349.706 718.79 351.039V363.18H715.315V360.68H715.172C714.942 361.14 714.596 361.593 714.136 362.037C713.676 362.481 713.085 362.85 712.363 363.144C711.641 363.438 710.776 363.584 709.768 363.584ZM710.542 360.728C711.526 360.728 712.367 360.533 713.065 360.145C713.771 359.756 714.307 359.248 714.672 358.621C715.045 357.986 715.231 357.308 715.231 356.586V354.229C715.104 354.356 714.858 354.475 714.493 354.586C714.136 354.689 713.728 354.781 713.267 354.86C712.807 354.931 712.359 354.999 711.922 355.062C711.486 355.118 711.121 355.165 710.827 355.205C710.137 355.292 709.506 355.439 708.935 355.646C708.372 355.852 707.919 356.149 707.578 356.538C707.245 356.919 707.078 357.427 707.078 358.062C707.078 358.942 707.404 359.609 708.054 360.061C708.705 360.506 709.534 360.728 710.542 360.728ZM723.53 363.18V344.898H726.97V347.802H727.16C727.494 346.818 728.081 346.044 728.922 345.481C729.771 344.91 730.731 344.624 731.802 344.624C732.024 344.624 732.286 344.632 732.588 344.648C732.897 344.664 733.139 344.683 733.314 344.707V348.111C733.171 348.072 732.917 348.028 732.552 347.98C732.187 347.925 731.822 347.897 731.457 347.897C730.616 347.897 729.866 348.076 729.208 348.433C728.557 348.782 728.041 349.27 727.66 349.897C727.279 350.516 727.089 351.222 727.089 352.015V363.18H723.53ZM742.583 363.537C741.107 363.537 739.79 363.16 738.631 362.406C737.481 361.644 736.576 360.561 735.918 359.157C735.267 357.744 734.942 356.05 734.942 354.074C734.942 352.099 735.271 350.408 735.929 349.004C736.596 347.6 737.508 346.524 738.667 345.778C739.825 345.033 741.139 344.66 742.607 344.66C743.741 344.66 744.654 344.85 745.344 345.231C746.042 345.604 746.582 346.04 746.963 346.54C747.352 347.04 747.653 347.481 747.867 347.861H748.082V338.804H751.64V363.18H748.165V360.335H747.867C747.653 360.724 747.344 361.168 746.939 361.668C746.542 362.168 745.995 362.604 745.297 362.977C744.598 363.35 743.694 363.537 742.583 363.537ZM743.368 360.502C744.392 360.502 745.257 360.232 745.963 359.692C746.677 359.145 747.217 358.387 747.582 357.419C747.955 356.451 748.141 355.324 748.141 354.039C748.141 352.769 747.959 351.658 747.594 350.706C747.229 349.754 746.693 349.012 745.987 348.48C745.281 347.949 744.408 347.683 743.368 347.683C742.297 347.683 741.404 347.961 740.69 348.516C739.976 349.071 739.437 349.829 739.072 350.789C738.715 351.749 738.536 352.833 738.536 354.039C738.536 355.261 738.719 356.36 739.084 357.336C739.449 358.312 739.988 359.085 740.702 359.657C741.424 360.22 742.313 360.502 743.368 360.502ZM770.419 349.361L767.194 349.932C767.059 349.52 766.845 349.127 766.551 348.754C766.265 348.381 765.877 348.076 765.385 347.838C764.893 347.6 764.278 347.481 763.54 347.481C762.532 347.481 761.691 347.707 761.016 348.159C760.342 348.603 760.005 349.179 760.005 349.885C760.005 350.496 760.231 350.988 760.683 351.361C761.136 351.734 761.866 352.039 762.873 352.277L765.777 352.944C767.46 353.333 768.713 353.932 769.539 354.741C770.364 355.55 770.776 356.602 770.776 357.895C770.776 358.99 770.459 359.966 769.824 360.823C769.197 361.672 768.321 362.339 767.194 362.823C766.075 363.307 764.778 363.549 763.302 363.549C761.255 363.549 759.584 363.112 758.291 362.239C756.997 361.359 756.204 360.109 755.91 358.49L759.35 357.966C759.564 358.863 760.005 359.542 760.671 360.002C761.338 360.454 762.207 360.68 763.278 360.68C764.444 360.68 765.377 360.438 766.075 359.954C766.773 359.462 767.122 358.863 767.122 358.157C767.122 357.586 766.908 357.106 766.48 356.717C766.059 356.328 765.412 356.034 764.54 355.836L761.445 355.158C759.739 354.769 758.477 354.15 757.66 353.301C756.851 352.452 756.446 351.377 756.446 350.075C756.446 348.996 756.748 348.052 757.351 347.242C757.954 346.433 758.787 345.802 759.85 345.35C760.913 344.89 762.131 344.66 763.504 344.66C765.48 344.66 767.035 345.088 768.17 345.945C769.304 346.794 770.054 347.933 770.419 349.361ZM791.439 363.549C789.638 363.549 788.086 363.164 786.785 362.394C785.492 361.617 784.492 360.525 783.786 359.121C783.087 357.709 782.738 356.054 782.738 354.158C782.738 352.285 783.087 350.635 783.786 349.206C784.492 347.778 785.476 346.663 786.737 345.862C788.007 345.06 789.491 344.66 791.189 344.66C792.22 344.66 793.22 344.83 794.188 345.171C795.156 345.513 796.025 346.048 796.795 346.778C797.565 347.508 798.172 348.457 798.616 349.623C799.06 350.781 799.282 352.19 799.282 353.848V355.11H784.75V352.444H795.795C795.795 351.507 795.605 350.678 795.224 349.956C794.843 349.226 794.307 348.651 793.617 348.23C792.935 347.81 792.133 347.6 791.213 347.6C790.213 347.6 789.34 347.846 788.594 348.337C787.856 348.822 787.285 349.456 786.88 350.242C786.483 351.019 786.285 351.865 786.285 352.777V354.86C786.285 356.082 786.499 357.121 786.928 357.978C787.364 358.835 787.971 359.49 788.749 359.942C789.527 360.387 790.435 360.609 791.475 360.609C792.149 360.609 792.764 360.514 793.319 360.323C793.875 360.125 794.355 359.831 794.76 359.442C795.164 359.054 795.474 358.573 795.688 358.002L799.056 358.609C798.787 359.601 798.302 360.47 797.604 361.216C796.914 361.954 796.045 362.529 794.998 362.942C793.958 363.346 792.772 363.549 791.439 363.549ZM818.347 344.898L811.717 363.18H807.909L801.267 344.898H805.088L809.718 358.966H809.908L814.526 344.898H818.347ZM828.949 363.549C827.148 363.549 825.597 363.164 824.295 362.394C823.002 361.617 822.002 360.525 821.296 359.121C820.598 357.709 820.248 356.054 820.248 354.158C820.248 352.285 820.598 350.635 821.296 349.206C822.002 347.778 822.986 346.663 824.248 345.862C825.517 345.06 827.001 344.66 828.699 344.66C829.731 344.66 830.73 344.83 831.699 345.171C832.667 345.513 833.535 346.048 834.305 346.778C835.075 347.508 835.682 348.457 836.126 349.623C836.571 350.781 836.793 352.19 836.793 353.848V355.11H822.26V352.444H833.305C833.305 351.507 833.115 350.678 832.734 349.956C832.353 349.226 831.818 348.651 831.127 348.23C830.445 347.81 829.643 347.6 828.723 347.6C827.723 347.6 826.85 347.846 826.104 348.337C825.366 348.822 824.795 349.456 824.39 350.242C823.994 351.019 823.795 351.865 823.795 352.777V354.86C823.795 356.082 824.01 357.121 824.438 357.978C824.875 358.835 825.482 359.49 826.259 359.942C827.037 360.387 827.945 360.609 828.985 360.609C829.659 360.609 830.274 360.514 830.83 360.323C831.385 360.125 831.865 359.831 832.27 359.442C832.674 359.054 832.984 358.573 833.198 358.002L836.567 358.609C836.297 359.601 835.813 360.47 835.114 361.216C834.424 361.954 833.555 362.529 832.508 362.942C831.468 363.346 830.282 363.549 828.949 363.549ZM840.741 363.18V344.898H844.181V347.802H844.371C844.705 346.818 845.292 346.044 846.133 345.481C846.982 344.91 847.942 344.624 849.013 344.624C849.236 344.624 849.497 344.632 849.799 344.648C850.108 344.664 850.35 344.683 850.525 344.707V348.111C850.382 348.072 850.128 348.028 849.763 347.98C849.398 347.925 849.033 347.897 848.668 347.897C847.827 347.897 847.077 348.076 846.419 348.433C845.768 348.782 845.252 349.27 844.871 349.897C844.49 350.516 844.3 351.222 844.3 352.015V363.18H840.741ZM856.411 370.035C855.879 370.035 855.395 369.992 854.959 369.904C854.522 369.825 854.197 369.738 853.983 369.643L854.84 366.727C855.49 366.901 856.07 366.977 856.577 366.953C857.085 366.929 857.533 366.738 857.922 366.381C858.319 366.024 858.668 365.441 858.97 364.632L859.41 363.418L852.721 344.898H856.53L861.16 359.085H861.35L865.98 344.898H869.801L862.267 365.62C861.918 366.572 861.473 367.377 860.934 368.036C860.394 368.702 859.751 369.202 859.005 369.536C858.26 369.869 857.395 370.035 856.411 370.035ZM893.596 355.598V344.898H897.167V363.18H893.668V360.014H893.477C893.057 360.99 892.382 361.803 891.454 362.454C890.534 363.096 889.387 363.418 888.014 363.418C886.84 363.418 885.8 363.16 884.896 362.644C883.999 362.12 883.293 361.347 882.777 360.323C882.269 359.3 882.016 358.034 882.016 356.526V344.898H885.574V356.098C885.574 357.344 885.919 358.335 886.61 359.073C887.3 359.811 888.197 360.18 889.3 360.18C889.966 360.18 890.629 360.014 891.287 359.68C891.954 359.347 892.505 358.843 892.942 358.169C893.386 357.494 893.604 356.637 893.596 355.598ZM915.648 349.361L912.423 349.932C912.288 349.52 912.074 349.127 911.78 348.754C911.495 348.381 911.106 348.076 910.614 347.838C910.122 347.6 909.507 347.481 908.769 347.481C907.761 347.481 906.92 347.707 906.246 348.159C905.571 348.603 905.234 349.179 905.234 349.885C905.234 350.496 905.46 350.988 905.912 351.361C906.365 351.734 907.095 352.039 908.102 352.277L911.007 352.944C912.689 353.333 913.942 353.932 914.768 354.741C915.593 355.55 916.006 356.602 916.006 357.895C916.006 358.99 915.688 359.966 915.053 360.823C914.426 361.672 913.55 362.339 912.423 362.823C911.304 363.307 910.007 363.549 908.531 363.549C906.484 363.549 904.813 363.112 903.52 362.239C902.227 361.359 901.433 360.109 901.14 358.49L904.579 357.966C904.794 358.863 905.234 359.542 905.9 360.002C906.567 360.454 907.436 360.68 908.507 360.68C909.673 360.68 910.606 360.438 911.304 359.954C912.002 359.462 912.352 358.863 912.352 358.157C912.352 357.586 912.137 357.106 911.709 356.717C911.288 356.328 910.642 356.034 909.769 355.836L906.674 355.158C904.968 354.769 903.706 354.15 902.889 353.301C902.08 352.452 901.675 351.377 901.675 350.075C901.675 348.996 901.977 348.052 902.58 347.242C903.183 346.433 904.016 345.802 905.079 345.35C906.142 344.89 907.36 344.66 908.733 344.66C910.709 344.66 912.264 345.088 913.399 345.945C914.534 346.794 915.283 347.933 915.648 349.361ZM927.798 363.549C925.997 363.549 924.445 363.164 923.144 362.394C921.851 361.617 920.851 360.525 920.145 359.121C919.446 357.709 919.097 356.054 919.097 354.158C919.097 352.285 919.446 350.635 920.145 349.206C920.851 347.778 921.835 346.663 923.096 345.862C924.366 345.06 925.85 344.66 927.548 344.66C928.579 344.66 929.579 344.83 930.547 345.171C931.515 345.513 932.384 346.048 933.154 346.778C933.924 347.508 934.531 348.457 934.975 349.623C935.419 350.781 935.641 352.19 935.641 353.848V355.11H921.109V352.444H932.154C932.154 351.507 931.964 350.678 931.583 349.956C931.202 349.226 930.666 348.651 929.976 348.23C929.294 347.81 928.492 347.6 927.572 347.6C926.572 347.6 925.699 347.846 924.953 348.337C924.215 348.822 923.644 349.456 923.239 350.242C922.842 351.019 922.644 351.865 922.644 352.777V354.86C922.644 356.082 922.858 357.121 923.287 357.978C923.723 358.835 924.33 359.49 925.108 359.942C925.886 360.387 926.794 360.609 927.834 360.609C928.508 360.609 929.123 360.514 929.678 360.323C930.234 360.125 930.714 359.831 931.119 359.442C931.523 359.054 931.833 358.573 932.047 358.002L935.415 358.609C935.146 359.601 934.661 360.47 933.963 361.216C933.273 361.954 932.404 362.529 931.357 362.942C930.317 363.346 929.131 363.549 927.798 363.549ZM939.59 363.18V344.898H943.03V347.802H943.22C943.553 346.818 944.141 346.044 944.982 345.481C945.831 344.91 946.791 344.624 947.862 344.624C948.084 344.624 948.346 344.632 948.648 344.648C948.957 344.664 949.199 344.683 949.374 344.707V348.111C949.231 348.072 948.977 348.028 948.612 347.98C948.247 347.925 947.882 347.897 947.517 347.897C946.676 347.897 945.926 348.076 945.267 348.433C944.617 348.782 944.101 349.27 943.72 349.897C943.339 350.516 943.149 351.222 943.149 352.015V363.18H939.59ZM403.755 395.898V398.754H393.424V395.898H403.755ZM396.257 414.18V393.779C396.257 392.636 396.506 391.688 397.006 390.934C397.506 390.173 398.169 389.605 398.994 389.232C399.819 388.852 400.716 388.661 401.684 388.661C402.398 388.661 403.009 388.721 403.517 388.84C404.025 388.951 404.402 389.054 404.648 389.149L403.815 392.029C403.648 391.982 403.434 391.926 403.172 391.863C402.91 391.791 402.593 391.756 402.22 391.756C401.355 391.756 400.736 391.97 400.363 392.398C399.998 392.827 399.815 393.446 399.815 394.255V414.18H396.257ZM414.408 414.549C412.694 414.549 411.198 414.156 409.92 413.37C408.643 412.585 407.651 411.486 406.945 410.073C406.239 408.661 405.886 407.011 405.886 405.122C405.886 403.226 406.239 401.567 406.945 400.147C407.651 398.727 408.643 397.624 409.92 396.838C411.198 396.052 412.694 395.66 414.408 395.66C416.122 395.66 417.617 396.052 418.895 396.838C420.172 397.624 421.164 398.727 421.87 400.147C422.577 401.567 422.93 403.226 422.93 405.122C422.93 407.011 422.577 408.661 421.87 410.073C421.164 411.486 420.172 412.585 418.895 413.37C417.617 414.156 416.122 414.549 414.408 414.549ZM414.419 411.561C415.53 411.561 416.451 411.268 417.181 410.68C417.911 410.093 418.45 409.312 418.8 408.336C419.157 407.36 419.335 406.284 419.335 405.11C419.335 403.944 419.157 402.872 418.8 401.896C418.45 400.913 417.911 400.123 417.181 399.528C416.451 398.933 415.53 398.635 414.419 398.635C413.301 398.635 412.372 398.933 411.634 399.528C410.904 400.123 410.361 400.913 410.004 401.896C409.655 402.872 409.48 403.944 409.48 405.11C409.48 406.284 409.655 407.36 410.004 408.336C410.361 409.312 410.904 410.093 411.634 410.68C412.372 411.268 413.301 411.561 414.419 411.561ZM426.902 414.18V395.898H430.342V398.802H430.532C430.866 397.818 431.453 397.044 432.294 396.481C433.143 395.91 434.103 395.624 435.174 395.624C435.396 395.624 435.658 395.632 435.96 395.648C436.269 395.664 436.511 395.683 436.686 395.707V399.111C436.543 399.072 436.289 399.028 435.924 398.98C435.559 398.925 435.194 398.897 434.829 398.897C433.988 398.897 433.238 399.076 432.579 399.433C431.929 399.782 431.413 400.27 431.032 400.897C430.651 401.516 430.461 402.222 430.461 403.015V414.18H426.902ZM457.17 395.898V398.754H447.184V395.898H457.17ZM449.862 391.518H453.42V408.812C453.42 409.502 453.524 410.022 453.73 410.371C453.936 410.712 454.202 410.946 454.527 411.073C454.861 411.192 455.222 411.252 455.61 411.252C455.896 411.252 456.146 411.232 456.36 411.192C456.575 411.153 456.741 411.121 456.86 411.097L457.503 414.037C457.297 414.116 457.003 414.196 456.622 414.275C456.241 414.362 455.765 414.41 455.194 414.418C454.258 414.434 453.385 414.267 452.575 413.918C451.766 413.569 451.111 413.029 450.611 412.299C450.112 411.569 449.862 410.653 449.862 409.55V391.518ZM465.058 403.325V414.18H461.499V389.804H465.01V398.873H465.236C465.665 397.889 466.32 397.108 467.2 396.529C468.081 395.949 469.232 395.66 470.652 395.66C471.906 395.66 473.001 395.918 473.937 396.433C474.881 396.949 475.611 397.719 476.127 398.742C476.651 399.758 476.913 401.028 476.913 402.551V414.18H473.354V402.98C473.354 401.639 473.009 400.599 472.318 399.861C471.628 399.115 470.668 398.742 469.438 398.742C468.597 398.742 467.843 398.921 467.177 399.278C466.518 399.635 465.998 400.159 465.617 400.849C465.244 401.531 465.058 402.357 465.058 403.325ZM489.541 414.549C487.74 414.549 486.188 414.164 484.887 413.394C483.594 412.617 482.594 411.525 481.888 410.121C481.189 408.709 480.84 407.054 480.84 405.158C480.84 403.285 481.189 401.635 481.888 400.206C482.594 398.778 483.578 397.663 484.84 396.862C486.109 396.06 487.593 395.66 489.291 395.66C490.323 395.66 491.322 395.83 492.29 396.171C493.258 396.513 494.127 397.048 494.897 397.778C495.667 398.508 496.274 399.457 496.718 400.623C497.162 401.781 497.385 403.19 497.385 404.848V406.11H482.852V403.444H493.897C493.897 402.507 493.707 401.678 493.326 400.956C492.945 400.226 492.409 399.651 491.719 399.23C491.037 398.81 490.235 398.6 489.315 398.6C488.315 398.6 487.442 398.846 486.696 399.337C485.958 399.822 485.387 400.456 484.982 401.242C484.586 402.019 484.387 402.865 484.387 403.777V405.86C484.387 407.082 484.601 408.121 485.03 408.978C485.466 409.835 486.073 410.49 486.851 410.942C487.629 411.387 488.537 411.609 489.577 411.609C490.251 411.609 490.866 411.514 491.422 411.323C491.977 411.125 492.457 410.831 492.862 410.442C493.266 410.054 493.576 409.573 493.79 409.002L497.158 409.609C496.889 410.601 496.405 411.47 495.706 412.216C495.016 412.954 494.147 413.529 493.1 413.942C492.06 414.346 490.874 414.549 489.541 414.549ZM501.333 414.18V395.898H504.892V414.18H501.333ZM503.13 393.077C502.512 393.077 501.98 392.871 501.536 392.458C501.099 392.037 500.881 391.538 500.881 390.958C500.881 390.371 501.099 389.871 501.536 389.459C501.98 389.038 502.512 388.828 503.13 388.828C503.749 388.828 504.277 389.038 504.713 389.459C505.158 389.871 505.38 390.371 505.38 390.958C505.38 391.538 505.158 392.037 504.713 392.458C504.277 392.871 503.749 393.077 503.13 393.077ZM509.68 414.18V395.898H513.119V398.802H513.31C513.643 397.818 514.23 397.044 515.071 396.481C515.92 395.91 516.881 395.624 517.952 395.624C518.174 395.624 518.436 395.632 518.737 395.648C519.047 395.664 519.289 395.683 519.463 395.707V399.111C519.321 399.072 519.067 399.028 518.702 398.98C518.337 398.925 517.972 398.897 517.607 398.897C516.766 398.897 516.016 399.076 515.357 399.433C514.706 399.782 514.191 400.27 513.81 400.897C513.429 401.516 513.238 402.222 513.238 403.015V414.18H509.68ZM547.053 395.898L540.423 414.18H536.615L529.973 395.898H533.794L538.424 409.966H538.614L543.232 395.898H547.053ZM555.194 414.584C554.036 414.584 552.988 414.37 552.052 413.942C551.116 413.505 550.374 412.874 549.826 412.049C549.287 411.224 549.017 410.212 549.017 409.014C549.017 407.983 549.215 407.134 549.612 406.467C550.009 405.8 550.544 405.273 551.219 404.884C551.893 404.495 552.647 404.202 553.48 404.003C554.313 403.805 555.162 403.654 556.027 403.551C557.122 403.424 558.011 403.321 558.693 403.241C559.376 403.154 559.872 403.015 560.181 402.825C560.491 402.634 560.645 402.325 560.645 401.896V401.813C560.645 400.774 560.352 399.968 559.765 399.397C559.185 398.826 558.32 398.54 557.17 398.54C555.972 398.54 555.028 398.806 554.337 399.337C553.655 399.861 553.183 400.444 552.921 401.087L549.576 400.325C549.973 399.215 550.552 398.318 551.314 397.635C552.084 396.945 552.968 396.445 553.968 396.136C554.968 395.818 556.019 395.66 557.122 395.66C557.852 395.66 558.626 395.747 559.443 395.922C560.269 396.088 561.038 396.398 561.752 396.85C562.474 397.302 563.066 397.949 563.526 398.79C563.986 399.623 564.216 400.706 564.216 402.039V414.18H560.741V411.68H560.598C560.368 412.14 560.023 412.593 559.562 413.037C559.102 413.481 558.511 413.85 557.789 414.144C557.067 414.438 556.202 414.584 555.194 414.584ZM555.968 411.728C556.952 411.728 557.793 411.533 558.491 411.145C559.197 410.756 559.733 410.248 560.098 409.621C560.471 408.986 560.657 408.308 560.657 407.586V405.229C560.53 405.356 560.284 405.475 559.919 405.586C559.562 405.689 559.154 405.781 558.693 405.86C558.233 405.931 557.785 405.999 557.348 406.062C556.912 406.118 556.547 406.165 556.253 406.205C555.563 406.292 554.932 406.439 554.361 406.646C553.798 406.852 553.345 407.149 553.004 407.538C552.671 407.919 552.504 408.427 552.504 409.062C552.504 409.942 552.83 410.609 553.48 411.061C554.131 411.506 554.96 411.728 555.968 411.728ZM572.515 389.804V414.18H568.956V389.804H572.515ZM588.884 406.598V395.898H592.454V414.18H588.955V411.014H588.765C588.344 411.99 587.67 412.803 586.741 413.454C585.821 414.096 584.674 414.418 583.301 414.418C582.127 414.418 581.088 414.16 580.183 413.644C579.286 413.12 578.58 412.347 578.064 411.323C577.557 410.3 577.303 409.034 577.303 407.526V395.898H580.861V407.098C580.861 408.344 581.207 409.335 581.897 410.073C582.587 410.811 583.484 411.18 584.587 411.18C585.253 411.18 585.916 411.014 586.575 410.68C587.241 410.347 587.793 409.843 588.229 409.169C588.673 408.494 588.892 407.637 588.884 406.598ZM602.556 414.584C601.398 414.584 600.351 414.37 599.414 413.942C598.478 413.505 597.736 412.874 597.189 412.049C596.649 411.224 596.379 410.212 596.379 409.014C596.379 407.983 596.578 407.134 596.974 406.467C597.371 405.8 597.907 405.273 598.581 404.884C599.256 404.495 600.009 404.202 600.843 404.003C601.676 403.805 602.525 403.654 603.39 403.551C604.485 403.424 605.373 403.321 606.056 403.241C606.738 403.154 607.234 403.015 607.544 402.825C607.853 402.634 608.008 402.325 608.008 401.896V401.813C608.008 400.774 607.714 399.968 607.127 399.397C606.548 398.826 605.683 398.54 604.532 398.54C603.334 398.54 602.39 398.806 601.699 399.337C601.017 399.861 600.545 400.444 600.283 401.087L596.939 400.325C597.335 399.215 597.915 398.318 598.676 397.635C599.446 396.945 600.331 396.445 601.331 396.136C602.33 395.818 603.382 395.66 604.485 395.66C605.215 395.66 605.988 395.747 606.806 395.922C607.631 396.088 608.4 396.398 609.115 396.85C609.837 397.302 610.428 397.949 610.888 398.79C611.348 399.623 611.578 400.706 611.578 402.039V414.18H608.103V411.68H607.96C607.73 412.14 607.385 412.593 606.925 413.037C606.464 413.481 605.873 413.85 605.151 414.144C604.429 414.438 603.564 414.584 602.556 414.584ZM603.33 411.728C604.314 411.728 605.155 411.533 605.853 411.145C606.56 410.756 607.095 410.248 607.46 409.621C607.833 408.986 608.02 408.308 608.02 407.586V405.229C607.893 405.356 607.647 405.475 607.282 405.586C606.925 405.689 606.516 405.781 606.056 405.86C605.596 405.931 605.147 405.999 604.711 406.062C604.274 406.118 603.909 406.165 603.616 406.205C602.925 406.292 602.295 406.439 601.723 406.646C601.16 406.852 600.708 407.149 600.366 407.538C600.033 407.919 599.867 408.427 599.867 409.062C599.867 409.942 600.192 410.609 600.843 411.061C601.493 411.506 602.322 411.728 603.33 411.728ZM616.604 414.18V389.804H620.163V398.861H620.377C620.584 398.481 620.881 398.04 621.27 397.54C621.659 397.04 622.198 396.604 622.889 396.231C623.579 395.85 624.491 395.66 625.626 395.66C627.102 395.66 628.419 396.033 629.578 396.778C630.736 397.524 631.645 398.6 632.303 400.004C632.97 401.408 633.303 403.099 633.303 405.074C633.303 407.05 632.974 408.744 632.315 410.157C631.657 411.561 630.752 412.644 629.602 413.406C628.451 414.16 627.138 414.537 625.662 414.537C624.551 414.537 623.642 414.35 622.936 413.977C622.238 413.604 621.69 413.168 621.294 412.668C620.897 412.168 620.591 411.724 620.377 411.335H620.08V414.18H616.604ZM620.092 405.039C620.092 406.324 620.278 407.451 620.651 408.419C621.024 409.387 621.563 410.145 622.27 410.692C622.976 411.232 623.841 411.502 624.864 411.502C625.928 411.502 626.816 411.22 627.53 410.657C628.245 410.085 628.784 409.312 629.149 408.336C629.522 407.36 629.709 406.261 629.709 405.039C629.709 403.833 629.526 402.749 629.161 401.789C628.804 400.829 628.264 400.071 627.542 399.516C626.828 398.961 625.936 398.683 624.864 398.683C623.833 398.683 622.96 398.949 622.246 399.48C621.54 400.012 621.004 400.754 620.639 401.706C620.274 402.658 620.092 403.769 620.092 405.039ZM640.858 389.804V414.18H637.299V389.804H640.858ZM653.525 414.549C651.724 414.549 650.173 414.164 648.871 413.394C647.578 412.617 646.578 411.525 645.872 410.121C645.174 408.709 644.825 407.054 644.825 405.158C644.825 403.285 645.174 401.635 645.872 400.206C646.578 398.778 647.562 397.663 648.824 396.862C650.093 396.06 651.577 395.66 653.275 395.66C654.307 395.66 655.307 395.83 656.275 396.171C657.243 396.513 658.112 397.048 658.881 397.778C659.651 398.508 660.258 399.457 660.702 400.623C661.147 401.781 661.369 403.19 661.369 404.848V406.11H646.836V403.444H657.881C657.881 402.507 657.691 401.678 657.31 400.956C656.929 400.226 656.394 399.651 655.703 399.23C655.021 398.81 654.219 398.6 653.299 398.6C652.299 398.6 651.426 398.846 650.681 399.337C649.943 399.822 649.371 400.456 648.967 401.242C648.57 402.019 648.371 402.865 648.371 403.777V405.86C648.371 407.082 648.586 408.121 649.014 408.978C649.451 409.835 650.058 410.49 650.835 410.942C651.613 411.387 652.521 411.609 653.561 411.609C654.235 411.609 654.85 411.514 655.406 411.323C655.961 411.125 656.441 410.831 656.846 410.442C657.251 410.054 657.56 409.573 657.774 409.002L661.143 409.609C660.873 410.601 660.389 411.47 659.691 412.216C659 412.954 658.131 413.529 657.084 413.942C656.045 414.346 654.858 414.549 653.525 414.549ZM674.188 414.18V395.898H677.746V414.18H674.188ZM675.985 393.077C675.366 393.077 674.834 392.871 674.39 392.458C673.954 392.037 673.735 391.538 673.735 390.958C673.735 390.371 673.954 389.871 674.39 389.459C674.834 389.038 675.366 388.828 675.985 388.828C676.604 388.828 677.131 389.038 677.568 389.459C678.012 389.871 678.234 390.371 678.234 390.958C678.234 391.538 678.012 392.037 677.568 392.458C677.131 392.871 676.604 393.077 675.985 393.077ZM686.093 403.325V414.18H682.534V395.898H685.95V398.873H686.176C686.597 397.905 687.255 397.128 688.152 396.54C689.057 395.953 690.195 395.66 691.568 395.66C692.814 395.66 693.905 395.922 694.841 396.445C695.777 396.961 696.503 397.731 697.019 398.754C697.535 399.778 697.793 401.043 697.793 402.551V414.18H694.234V402.98C694.234 401.654 693.889 400.619 693.199 399.873C692.508 399.119 691.56 398.742 690.354 398.742C689.529 398.742 688.795 398.921 688.152 399.278C687.517 399.635 687.013 400.159 686.64 400.849C686.275 401.531 686.093 402.357 686.093 403.325ZM716.265 400.361L713.04 400.932C712.905 400.52 712.691 400.127 712.397 399.754C712.111 399.381 711.723 399.076 711.231 398.838C710.739 398.6 710.124 398.481 709.386 398.481C708.378 398.481 707.537 398.707 706.862 399.159C706.188 399.603 705.851 400.179 705.851 400.885C705.851 401.496 706.077 401.988 706.529 402.361C706.981 402.734 707.711 403.039 708.719 403.277L711.623 403.944C713.306 404.333 714.559 404.932 715.385 405.741C716.21 406.55 716.622 407.602 716.622 408.895C716.622 409.99 716.305 410.966 715.67 411.823C715.043 412.672 714.167 413.339 713.04 413.823C711.921 414.307 710.624 414.549 709.148 414.549C707.1 414.549 705.43 414.112 704.137 413.239C702.843 412.359 702.05 411.109 701.756 409.49L705.196 408.966C705.41 409.863 705.851 410.542 706.517 411.002C707.184 411.454 708.053 411.68 709.124 411.68C710.29 411.68 711.223 411.438 711.921 410.954C712.619 410.462 712.968 409.863 712.968 409.157C712.968 408.586 712.754 408.106 712.326 407.717C711.905 407.328 711.258 407.034 710.386 406.836L707.291 406.158C705.585 405.769 704.323 405.15 703.506 404.301C702.697 403.452 702.292 402.377 702.292 401.075C702.292 399.996 702.593 399.052 703.197 398.242C703.8 397.433 704.633 396.802 705.696 396.35C706.759 395.89 707.977 395.66 709.35 395.66C711.326 395.66 712.881 396.088 714.016 396.945C715.15 397.794 715.9 398.933 716.265 400.361ZM720.535 414.18V395.898H724.094V414.18H720.535ZM722.332 393.077C721.714 393.077 721.182 392.871 720.738 392.458C720.301 392.037 720.083 391.538 720.083 390.958C720.083 390.371 720.301 389.871 720.738 389.459C721.182 389.038 721.714 388.828 722.332 388.828C722.951 388.828 723.479 389.038 723.916 389.459C724.36 389.871 724.582 390.371 724.582 390.958C724.582 391.538 724.36 392.037 723.916 392.458C723.479 392.871 722.951 393.077 722.332 393.077ZM736.547 421.416C735.095 421.416 733.845 421.226 732.798 420.845C731.758 420.464 730.909 419.96 730.251 419.333C729.592 418.707 729.1 418.02 728.775 417.274L731.834 416.013C732.048 416.362 732.333 416.731 732.69 417.12C733.055 417.516 733.547 417.854 734.166 418.131C734.793 418.409 735.599 418.548 736.583 418.548C737.931 418.548 739.046 418.219 739.927 417.56C740.808 416.909 741.248 415.87 741.248 414.442V410.847H741.022C740.808 411.236 740.498 411.668 740.094 412.144C739.697 412.62 739.149 413.033 738.451 413.382C737.753 413.731 736.844 413.906 735.726 413.906C734.281 413.906 732.98 413.569 731.822 412.894C730.671 412.212 729.759 411.208 729.084 409.883C728.418 408.55 728.084 406.911 728.084 404.967C728.084 403.023 728.414 401.357 729.072 399.968C729.739 398.58 730.651 397.516 731.81 396.778C732.968 396.033 734.281 395.66 735.749 395.66C736.884 395.66 737.801 395.85 738.499 396.231C739.197 396.604 739.741 397.04 740.129 397.54C740.526 398.04 740.832 398.481 741.046 398.861H741.308V395.898H744.795V414.584C744.795 416.155 744.43 417.445 743.7 418.453C742.97 419.46 741.982 420.206 740.736 420.69C739.499 421.174 738.102 421.416 736.547 421.416ZM736.511 410.954C737.535 410.954 738.4 410.716 739.106 410.24C739.82 409.756 740.36 409.066 740.725 408.169C741.097 407.264 741.284 406.181 741.284 404.92C741.284 403.69 741.101 402.607 740.736 401.67C740.371 400.734 739.836 400.004 739.13 399.48C738.423 398.949 737.551 398.683 736.511 398.683C735.44 398.683 734.547 398.961 733.833 399.516C733.119 400.064 732.579 400.809 732.214 401.754C731.857 402.698 731.679 403.753 731.679 404.92C731.679 406.118 731.861 407.169 732.226 408.074C732.591 408.978 733.131 409.685 733.845 410.192C734.567 410.7 735.456 410.954 736.511 410.954ZM753.127 403.325V414.18H749.568V389.804H753.079V398.873H753.305C753.734 397.889 754.388 397.108 755.269 396.529C756.15 395.949 757.301 395.66 758.721 395.66C759.975 395.66 761.07 395.918 762.006 396.433C762.95 396.949 763.68 397.719 764.196 398.742C764.72 399.758 764.981 401.028 764.981 402.551V414.18H761.423V402.98C761.423 401.639 761.078 400.599 760.387 399.861C759.697 399.115 758.737 398.742 757.507 398.742C756.666 398.742 755.912 398.921 755.245 399.278C754.587 399.635 754.067 400.159 753.686 400.849C753.313 401.531 753.127 402.357 753.127 403.325ZM778.264 395.898V398.754H768.278V395.898H778.264ZM770.956 391.518H774.515V408.812C774.515 409.502 774.618 410.022 774.825 410.371C775.031 410.712 775.297 410.946 775.622 411.073C775.955 411.192 776.316 411.252 776.705 411.252C776.991 411.252 777.241 411.232 777.455 411.192C777.669 411.153 777.836 411.121 777.955 411.097L778.598 414.037C778.391 414.116 778.098 414.196 777.717 414.275C777.336 414.362 776.86 414.41 776.289 414.418C775.352 414.434 774.48 414.267 773.67 413.918C772.861 413.569 772.206 413.029 771.706 412.299C771.206 411.569 770.956 410.653 770.956 409.55V391.518ZM795.606 400.361L792.381 400.932C792.246 400.52 792.031 400.127 791.738 399.754C791.452 399.381 791.063 399.076 790.571 398.838C790.08 398.6 789.465 398.481 788.727 398.481C787.719 398.481 786.878 398.707 786.203 399.159C785.529 399.603 785.192 400.179 785.192 400.885C785.192 401.496 785.418 401.988 785.87 402.361C786.322 402.734 787.052 403.039 788.06 403.277L790.964 403.944C792.646 404.333 793.9 404.932 794.725 405.741C795.551 406.55 795.963 407.602 795.963 408.895C795.963 409.99 795.646 410.966 795.011 411.823C794.384 412.672 793.507 413.339 792.381 413.823C791.262 414.307 789.964 414.549 788.489 414.549C786.441 414.549 784.771 414.112 783.478 413.239C782.184 412.359 781.391 411.109 781.097 409.49L784.537 408.966C784.751 409.863 785.192 410.542 785.858 411.002C786.525 411.454 787.394 411.68 788.465 411.68C789.631 411.68 790.564 411.438 791.262 410.954C791.96 410.462 792.309 409.863 792.309 409.157C792.309 408.586 792.095 408.106 791.666 407.717C791.246 407.328 790.599 407.034 789.726 406.836L786.632 406.158C784.926 405.769 783.664 405.15 782.847 404.301C782.038 403.452 781.633 402.377 781.633 401.075C781.633 399.996 781.934 399.052 782.537 398.242C783.14 397.433 783.974 396.802 785.037 396.35C786.1 395.89 787.318 395.66 788.691 395.66C790.667 395.66 792.222 396.088 793.357 396.945C794.491 397.794 795.241 398.933 795.606 400.361ZM802.221 414.406C801.57 414.406 801.011 414.176 800.543 413.715C800.075 413.247 799.84 412.684 799.84 412.025C799.84 411.375 800.075 410.819 800.543 410.359C801.011 409.891 801.57 409.657 802.221 409.657C802.872 409.657 803.431 409.891 803.899 410.359C804.367 410.819 804.601 411.375 804.601 412.025C804.601 412.462 804.49 412.862 804.268 413.228C804.054 413.585 803.768 413.87 803.411 414.084C803.054 414.299 802.657 414.406 802.221 414.406Z" fill="#7C7C7C"/>
<path d="M432.264 213.494H436.851C438.197 213.494 438.45 214.251 438.45 215.766C438.45 217.281 438.197 218.038 436.851 218.038H432.433C427.51 218.038 425.406 219.469 425.406 221.32V226.706H452.672C454.019 226.706 454.313 227.463 454.313 228.978C454.313 230.493 454.019 231.25 452.672 231.25H425.406V242.191C425.406 243.79 424.438 244.168 422.586 244.168C420.777 244.168 419.809 243.79 419.809 242.191V221.32C419.809 216.06 423.975 213.494 432.264 213.494ZM481.117 244H468.872C460.583 244 456.417 241.391 456.417 236.174V221.32C456.417 216.06 460.583 213.494 468.872 213.494H481.117C489.406 213.494 493.572 216.06 493.572 221.32V236.174C493.572 241.391 489.406 244 481.117 244ZM480.948 239.456C485.872 239.456 488.017 237.983 488.017 236.174V221.32C488.017 219.469 485.872 218.038 480.948 218.038H469.04C464.117 218.038 461.971 219.469 461.971 221.32V236.174C461.971 237.983 464.117 239.456 469.04 239.456H480.948ZM522.394 244H509.434C501.145 244 496.979 241.391 496.979 236.174V215.303C496.979 213.704 497.947 213.325 499.757 213.325C501.608 213.325 502.576 213.704 502.576 215.303V236.174C502.576 237.983 504.68 239.456 509.603 239.456H522.226C527.149 239.456 529.253 237.983 529.253 236.174V215.303C529.253 213.704 530.221 213.325 532.072 213.325C533.882 213.325 534.849 213.704 534.849 215.303V236.174C534.849 241.391 530.684 244 522.394 244ZM573.743 244.168C572.228 244.168 571.892 243.958 570.419 242.738L544.247 220.689V242.191C544.247 243.79 543.279 244.168 541.427 244.168C539.618 244.168 538.65 243.79 538.65 242.191V215.303C538.65 213.746 539.576 213.325 541.301 213.325C543.153 213.325 543.952 213.788 545.256 214.882L571.05 236.847V215.303C571.05 213.704 572.018 213.325 573.827 213.325C575.679 213.325 576.647 213.704 576.647 215.303V242.191C576.647 243.832 575.679 244.168 573.743 244.168ZM618.854 221.32V236.174C618.854 241.391 614.73 244 606.399 244H582.54C581.236 244 580.605 243.327 580.605 242.022V215.429C580.605 214.125 581.236 213.494 582.54 213.494H606.399C614.73 213.494 618.854 216.06 618.854 221.32ZM586.201 218.038V239.456H606.23C611.153 239.456 613.341 237.983 613.341 236.174V221.32C613.341 219.469 611.153 218.038 606.23 218.038H586.201ZM640.314 213.367C641.955 213.367 642.922 213.914 643.596 214.84L661.942 241.012C662.152 241.349 662.236 241.686 662.236 241.98C662.236 243.243 660.595 244.21 659.164 244.21C658.407 244.21 657.734 243.958 657.313 243.369L652.348 236.131H628.953L624.282 243.369C623.903 243.958 623.188 244.21 622.473 244.21C621.084 244.21 619.443 243.243 619.443 241.938C619.443 241.602 619.569 241.307 619.738 241.012L636.989 214.84C637.621 213.914 638.63 213.367 640.314 213.367ZM640.314 218.501L631.856 231.587H649.234L640.314 218.501ZM687.022 218.038H674.315V242.191C674.315 243.79 673.347 244.168 671.496 244.168C669.686 244.168 668.718 243.79 668.718 242.191V218.038H656.053C654.706 218.038 654.412 217.281 654.412 215.766C654.412 214.251 654.706 213.494 656.053 213.494H687.022C688.369 213.494 688.663 214.251 688.663 215.766C688.663 217.281 688.369 218.038 687.022 218.038ZM696.738 215.303V242.191C696.738 243.79 695.77 244.168 693.918 244.168C692.109 244.168 691.141 243.79 691.141 242.191V215.303C691.141 213.704 692.109 213.325 693.918 213.325C695.77 213.325 696.738 213.704 696.738 215.303ZM724.995 244H712.751C704.462 244 700.296 241.391 700.296 236.174V221.32C700.296 216.06 704.462 213.494 712.751 213.494H724.995C733.285 213.494 737.451 216.06 737.451 221.32V236.174C737.451 241.391 733.285 244 724.995 244ZM724.827 239.456C729.75 239.456 731.896 237.983 731.896 236.174V221.32C731.896 219.469 729.75 218.038 724.827 218.038H712.919C707.996 218.038 705.85 219.469 705.85 221.32V236.174C705.85 237.983 707.996 239.456 712.919 239.456H724.827ZM776.119 244.168C774.605 244.168 774.268 243.958 772.795 242.738L746.623 220.689V242.191C746.623 243.79 745.655 244.168 743.804 244.168C741.994 244.168 741.026 243.79 741.026 242.191V215.303C741.026 213.746 741.952 213.325 743.677 213.325C745.529 213.325 746.328 213.788 747.633 214.882L773.426 236.847V215.303C773.426 213.704 774.394 213.325 776.204 213.325C778.055 213.325 779.023 213.704 779.023 215.303V242.191C779.023 243.832 778.055 244.168 776.119 244.168Z" fill="#707175"/>
</svg>
