<svg width="50" height="50" viewBox="0 0 50 50" fill="none" xmlns="http://www.w3.org/2000/svg">
<g clip-path="url(#clip0_4280_4842)">
<path d="M49.9995 24.9998C49.9995 11.1928 38.8067 -1.66897e-06 24.9998 -1.66897e-06C11.1928 -1.66897e-06 0 11.1928 0 24.9998C0 38.8067 11.1928 49.9995 24.9998 49.9995C38.8067 49.9995 49.9995 38.8067 49.9995 24.9998Z" fill="white"/>
<g clip-path="url(#clip1_4280_4842)">
<path d="M16.6486 28.1293L15.6044 32.0277L11.7876 32.1084C10.647 29.9928 10 27.5722 10 24.9999C10 22.5126 10.6049 20.1669 11.6772 18.1016H11.678L15.076 18.7245L16.5645 22.1021C16.2529 23.0104 16.0831 23.9854 16.0831 24.9999C16.0833 26.101 16.2827 27.156 16.6486 28.1293Z" fill="#FBBB00"/>
<path d="M39.7382 22.1978C39.9105 23.1051 40.0003 24.0422 40.0003 24.9999C40.0003 26.0738 39.8874 27.1214 39.6723 28.1318C38.9421 31.5703 37.0341 34.5728 34.391 36.6975L34.3902 36.6967L30.1103 36.4783L29.5045 32.6969C31.2584 31.6684 32.629 30.0587 33.351 28.1318H25.3301V22.1978H33.468H39.7382Z" fill="#518EF8"/>
<path d="M34.3893 36.6967L34.3901 36.6975C31.8195 38.7637 28.5541 40 24.9995 40C19.2871 40 14.3206 36.8071 11.7871 32.1085L16.6481 28.1294C17.9148 31.5101 21.1761 33.9168 24.9995 33.9168C26.6428 33.9168 28.1825 33.4725 29.5036 32.697L34.3893 36.6967Z" fill="#28B446"/>
<path d="M34.575 13.4533L29.7156 17.4316C28.3484 16.5769 26.7321 16.0832 25.0005 16.0832C21.0906 16.0832 17.7684 18.6002 16.5651 22.1022L11.6786 18.1016H11.6777C14.1742 13.2885 19.2033 10 25.0005 10C28.6401 10 31.9772 11.2964 34.575 13.4533Z" fill="#F14336"/>
</g>
</g>
<defs>
<clipPath id="clip0_4280_4842">
<rect width="50" height="50" fill="white"/>
</clipPath>
<clipPath id="clip1_4280_4842">
<rect width="30" height="30" fill="white" transform="translate(10 10)"/>
</clipPath>
</defs>
</svg>
