<svg width="50" height="50" viewBox="0 0 50 50" fill="none" xmlns="http://www.w3.org/2000/svg">
<g clip-path="url(#clip0_10970_1469)">
<path d="M24.9998 49.9995C38.8067 49.9995 49.9995 38.8067 49.9995 24.9998C49.9995 11.1928 38.8067 0 24.9998 0C11.1928 0 0 11.1928 0 24.9998C0 38.8067 11.1928 49.9995 24.9998 49.9995Z" fill="#00FFD5"/>
<path fill-rule="evenodd" clip-rule="evenodd" d="M32.8794 22.7591C32.5526 25.9012 30.4053 28.5548 27.3997 29.5315C24.3977 30.5083 21.0977 29.6285 18.9863 27.2801C16.8712 24.9352 16.3362 21.5633 17.6181 18.6762C18.9036 15.7892 21.7656 13.929 24.9256 13.929C27.1914 13.9326 29.3496 14.895 30.8649 16.5755C32.3802 18.2596 33.1128 20.5075 32.8794 22.7591ZM17.4709 33.6116L14.354 39.7018L17.3524 38.506C17.8551 38.3049 18.4261 38.5348 18.6487 39.0267L20.0097 42L21.9632 35.4394C21.4102 34.7931 20.7817 34.215 20.0923 33.7122C19.2269 33.5794 18.3471 33.5435 17.4745 33.6117L17.4709 33.6116ZM27.8844 35.4502L29.8342 42L31.1916 39.0231C31.4143 38.5312 31.9852 38.3013 32.488 38.5024L35.4864 39.6982L32.3731 33.608H30.391C29.9852 33.6045 29.5974 33.7696 29.3208 34.0677L29.2526 34.1323L27.8844 35.4502ZM21.0904 22.756L23.0798 24.7956C23.2665 24.9896 23.5215 25.0973 23.7908 25.1009C24.0601 25.1045 24.3187 25.0039 24.509 24.8136L28.7499 20.4757C29.1413 20.0772 29.1341 19.4344 28.7319 19.0466C28.3297 18.6551 27.6906 18.6623 27.2991 19.0645L23.8052 22.641L22.5412 21.3447C22.1533 20.9461 21.5106 20.9353 21.112 21.3267C20.7098 21.7145 20.7026 22.3574 21.0904 22.756ZM19.4495 12.3459V12.3494H16.9036V12.3459C16.0418 12.3351 15.3272 13.0174 15.3056 13.8792V16.497C15.2984 17.4378 14.9214 18.3391 14.2499 19.0035L12.5263 20.7918C12.2103 21.0719 12.02 21.4668 12.002 21.887C11.9805 22.3107 12.1313 22.7237 12.4186 23.0325L14.2499 24.8603C14.925 25.5461 15.302 26.4726 15.302 27.435V29.9809C15.302 30.8391 15.9735 31.5429 16.8318 31.5824V31.5788C18.1604 31.4675 19.4998 31.5501 20.8033 31.823C21.8519 32.2252 23.0009 33.6113 23.8089 34.4192L23.8125 34.4228C24.4229 35.0297 25.4069 35.0297 26.0173 34.4228L27.8343 32.6777L27.8738 32.6346C28.5381 31.9631 29.4394 31.5861 30.3803 31.5789H32.9945V31.5861C33.8599 31.5645 34.5458 30.8464 34.5314 29.9809V27.435C34.5314 26.4726 34.9121 25.5498 35.5835 24.8603L37.3718 23.0721C37.6662 22.7776 37.8314 22.3826 37.8314 21.9661C37.8314 21.5531 37.6662 21.1546 37.3718 20.8601L35.6267 19.0431C34.9336 18.3788 34.5386 17.4595 34.535 16.4972V13.8794C34.5422 13.4736 34.3806 13.0786 34.0933 12.7913C33.8025 12.504 33.4111 12.3424 33.0017 12.346V12.3496H30.3912C29.4468 12.346 28.5454 11.9654 27.8847 11.2975L26.0246 9.43747C25.4177 8.87011 24.4805 8.85215 23.8521 9.39797L23.8126 9.44106L22.0208 11.2975C21.3493 11.9906 20.4156 12.3748 19.4461 12.3461L19.4495 12.3459ZM24.9184 15.9619C22.5592 15.9583 20.4191 17.348 19.4567 19.5026C18.4979 21.6607 18.8965 24.1815 20.4765 25.9339C22.0566 27.6899 24.5198 28.347 26.7642 27.618C29.012 26.8854 30.6136 24.9033 30.8578 22.5548C31.0373 20.8707 30.4915 19.1901 29.3604 17.9334C28.2256 16.673 26.6133 15.9583 24.9184 15.9619Z" fill="#052E37"/>
</g>
<defs>
<clipPath id="clip0_10970_1469">
<rect width="50" height="50" fill="white"/>
</clipPath>
</defs>
</svg>
