<svg width="50" height="50" viewBox="0 0 50 50" fill="none" xmlns="http://www.w3.org/2000/svg">
<path d="M25 50C38.8071 50 50 38.8071 50 25C50 11.1929 38.8071 0 25 0C11.1929 0 0 11.1929 0 25C0 38.8071 11.1929 50 25 50Z" fill="#F8772F"/>
<path d="M34.337 27.2417C32.7665 29.3821 32.0949 29.5669 31.8076 29.5752C31.6737 29.5752 31.016 29.5604 30.8007 29.3904C30.6474 29.2713 30.518 29.2851 30.3508 29.3599C29.827 29.5937 29.3245 29.8671 28.822 30.1433C28.5864 30.2726 28.3518 30.4057 28.106 30.5128C27.3855 30.8297 27.0252 30.6763 26.7434 29.9281C26.2622 30.2865 25.7873 30.6422 25.3107 30.995C25.1887 31.0874 25.0631 31.1733 24.9356 31.2546C24.615 31.4579 24.2742 31.5872 23.9194 31.3692C23.5647 31.1512 23.4954 30.7835 23.5647 30.2985C23.0982 30.9452 22.604 31.4551 22.2991 32.1073C22.1282 32.4768 21.9028 32.5987 21.6247 32.4925C21.3264 32.377 21.2164 32.1064 21.3476 31.7341C21.6497 30.9027 22.2077 30.208 22.6917 29.48C23.1034 28.8399 23.5802 28.2439 24.1143 27.7017C24.1957 27.6187 24.2815 27.5401 24.3712 27.4662C24.6917 27.214 25.0501 27.1622 25.3116 27.3489C25.6146 27.565 25.6682 27.8671 25.598 28.2218C25.512 28.656 25.2968 29.0486 25.1804 29.5567C25.6294 29.1798 26.0201 28.85 26.4146 28.523C26.6484 28.3095 26.9175 28.1382 27.21 28.0167C27.743 27.8228 28.1753 28.1331 28.1855 28.7004C28.1855 28.8195 28.0931 28.9849 28.2391 29.0505C28.3434 29.0985 28.4441 28.9655 28.5411 28.9054C29.0013 28.6043 29.4865 28.3435 29.9915 28.1258C30.4534 27.941 30.8802 27.941 31.2635 28.2994C31.3061 28.337 31.3522 28.3704 31.4012 28.3992C31.5407 28.499 31.9157 28.4491 32.9587 27.7775L35.3642 25.7202C34.9947 26.3161 34.6418 26.8288 34.337 27.2417Z" fill="#772B00"/>
<path d="M24.9955 15.0045C28.8592 15.0045 32.7222 15.0045 36.5846 15.0045C36.9126 14.9925 37.2394 15.0521 37.5461 15.1799C37.7402 15.267 37.8059 15.3603 37.6663 15.5742C36.7116 17.0351 35.7936 18.5233 34.9123 20.039C34.8685 20.1219 34.8042 20.1896 34.7268 20.2341C34.6494 20.2785 34.5621 20.2981 34.475 20.2904C34.0072 20.2823 33.5385 20.2904 33.0707 20.2904H13.7207C13.1873 20.2904 13.1864 20.2904 13.1864 20.8894V33.0139C13.1864 33.5744 13.1864 33.5765 13.6856 33.5765H36.3008C36.7862 33.5765 36.788 33.5765 36.788 33.0433C36.788 31.7469 36.7954 30.4506 36.788 29.1542C36.7828 29.0084 36.8066 28.863 36.8577 28.7283C36.9088 28.5935 36.9859 28.4726 37.0839 28.3737C37.6385 27.7656 38.1645 27.129 38.7054 26.5067C38.7664 26.4368 38.8209 26.3111 38.9254 26.3516C39.0298 26.3922 38.9938 26.529 38.9947 26.6243C38.9947 28.9342 39.0095 31.2442 38.9873 33.5542C38.9753 34.883 37.9926 35.9229 36.751 35.9949C36.6586 36.001 36.5661 35.9999 36.4737 35.9999C28.8185 35.9999 21.163 35.9999 13.5072 35.9999C12.5439 35.9999 11.7738 35.6249 11.2773 34.6823C11.0973 34.3497 11.0015 33.9703 11 33.5835C11 28.1933 11 22.8027 11 17.4118C11 16.0657 12.0169 15.0045 13.2742 15.0015C17.1791 14.9988 21.0862 14.9998 24.9955 15.0045Z" fill="#772B00"/>
<path d="M17.5002 22.0001C18.0432 22.0001 18.1088 22.0423 18.1539 22.5989C18.1806 22.9357 18.2902 23.1269 18.6334 23.1374C18.6846 23.1456 18.735 23.1583 18.7841 23.1755C19.7595 23.4152 19.8456 23.5979 19.489 24.5599C19.3866 24.8493 19.2278 24.9253 18.9521 24.806C18.5244 24.6076 18.058 24.514 17.5893 24.5325C17.4483 24.5362 17.3093 24.5674 17.1795 24.6244C16.7696 24.824 16.7081 25.2073 17.0319 25.5273C17.2809 25.7733 17.6016 25.8948 17.9111 26.031C18.2742 26.1758 18.6245 26.3524 18.9583 26.559C19.7247 27.0712 20.0854 27.8052 19.9829 28.7398C19.8866 29.6142 19.3835 30.2183 18.6007 30.5234C18.2092 30.6755 18.074 30.8899 18.1047 31.2944C18.1221 31.5267 18.1539 31.815 17.8732 31.9153C17.5658 32.0209 17.2256 32.0494 16.9305 31.8731C16.7255 31.7506 16.7512 31.495 16.7696 31.287C16.8024 30.9342 16.6569 30.7653 16.3249 30.7283C15.9912 30.6772 15.6656 30.5806 15.3566 30.4411C15.0584 30.3217 14.9365 30.1359 15.0318 29.7874C15.3515 28.6109 15.2931 28.7398 16.204 29.1105C16.6743 29.3016 17.1764 29.3935 17.6897 29.2319C17.9572 29.1485 18.1631 29.0006 18.2215 28.7092C18.284 28.3923 18.1262 28.1716 17.8926 27.9921C17.659 27.8126 17.3639 27.7112 17.0903 27.5887C16.662 27.3975 16.2306 27.2138 15.8546 26.9192C15.5857 26.7179 15.3706 26.4497 15.2293 26.1396C15.0881 25.8296 15.0254 25.4877 15.047 25.1459C15.0685 24.8041 15.1738 24.4735 15.3528 24.1849C15.5318 23.8963 15.7788 23.6591 16.0708 23.4955C16.1793 23.4215 16.2968 23.3626 16.4202 23.3201C16.7737 23.2251 16.8659 22.9938 16.8588 22.6358C16.8434 22.0761 16.9458 21.9969 17.5002 22.0001Z" fill="#772B00"/>
<path d="M27.8401 24.123H22.3712C21.7939 24.123 21.7431 24.0721 21.7412 23.5105C21.7412 22.6042 21.7412 22.6042 22.6419 22.6042H33.2655C33.8539 22.6042 33.9213 22.6735 33.9241 23.2749C33.9241 24.122 33.9241 24.122 33.065 24.122L27.8401 24.123Z" fill="#772B00"/>
<path d="M25.3626 26.5154C24.3345 26.5154 23.3054 26.5154 22.2763 26.5154C21.8144 26.5154 21.7497 26.4415 21.7423 25.9861C21.7275 24.9985 21.7275 24.9985 22.7104 24.9985H28.3566C28.9201 24.9985 29.0033 25.0863 29.0079 25.6452C29.0134 26.5108 29.0134 26.5108 28.1331 26.5108L25.3626 26.5154Z" fill="#772B00"/>
<path d="M24.9998 15.0045C21.1361 15.0045 17.273 15.0045 13.4106 15.0045C13.0826 14.9925 12.7558 15.0521 12.4491 15.1799C12.255 15.267 12.1893 15.3603 12.3289 15.5742C13.2842 17.0351 14.2022 18.5233 15.0829 20.039C15.1267 20.1219 15.191 20.1896 15.2684 20.2341C15.3458 20.2785 15.4331 20.2981 15.5202 20.2904C15.988 20.2823 16.4567 20.2904 16.9245 20.2904H36.2747C36.8081 20.2904 36.809 20.2904 36.809 20.8894V33.0139C36.809 33.5744 36.809 33.5765 36.3098 33.5765H13.6944C13.209 33.5765 13.2072 33.5765 13.2072 33.0433C13.2072 31.7469 13.1998 30.4506 13.2118 29.1542C13.217 29.0084 13.1932 28.863 13.1421 28.7283C13.0911 28.5935 13.0139 28.4726 12.916 28.3737C12.3613 27.7656 11.8353 27.129 11.2944 26.5067C11.2334 26.4368 11.1789 26.3111 11.0744 26.3516C10.97 26.3922 11.006 26.529 11.006 26.6243C11.006 28.9342 10.9903 31.2442 11.0125 33.5542C11.0245 34.883 12.0072 35.9229 13.2488 35.9949C13.3412 36.001 13.4337 35.9999 13.5261 35.9999C21.182 35.9999 28.8376 35.9999 36.4928 35.9999C37.4561 35.9999 38.2262 35.6249 38.7227 34.6823C38.9027 34.3497 38.9985 33.9703 39 33.5835C39 28.1933 39 22.8027 39 17.4118C39 16.0657 37.9831 15.0045 36.7258 15.0015C32.8177 14.9988 28.9091 14.9998 24.9998 15.0045Z" fill="#772B00"/>
</svg>
