<svg width="50" height="50" viewBox="0 0 50 50" fill="none" xmlns="http://www.w3.org/2000/svg">
<g clip-path="url(#clip0_9856_3368)">
<path d="M50.1646 25.0142C50.1646 11.2072 38.9718 0.0144026 25.1648 0.0144026C11.3578 0.0144026 0.165039 11.2072 0.165039 25.0142C0.165039 38.8211 11.3578 50.0139 25.1648 50.0139C38.9718 50.0139 50.1646 38.8211 50.1646 25.0142Z" fill="#DB5A3D"/>
<path d="M38.5121 19.7519C38.4826 19.7519 38.4826 19.7224 38.453 19.7224L24.855 15.0222C24.7663 14.9926 24.6776 14.9926 24.5594 15.0222L10.9909 19.7224C10.9614 19.7224 10.9318 19.7519 10.9318 19.7519C10.784 19.8406 10.6953 19.9884 10.6953 20.1658C10.6953 20.3431 10.784 20.4909 10.9318 20.5796C10.9614 20.5796 10.9614 20.6092 10.9909 20.6092L14.42 21.7916V26.078C13.7401 26.2849 13.2376 26.9057 13.2376 27.6447C13.2376 28.2063 13.5332 28.7089 13.9766 29.034C13.9175 29.3296 13.8583 29.6253 13.7696 29.98C13.5923 30.9851 13.4445 32.2266 13.4445 33.7342C13.4445 33.8229 13.474 33.9116 13.5332 34.0003C13.7105 34.2368 14.1835 34.6802 14.8634 34.6802C15.5433 34.6802 16.0163 34.2663 16.1936 34.0003C16.2528 33.9116 16.2823 33.8229 16.2823 33.7342C16.2823 32.2562 16.1345 30.9851 15.9572 29.98C15.898 29.6253 15.8389 29.3001 15.7502 29.034C16.2232 28.7384 16.4893 28.2063 16.4893 27.6447C16.4893 26.9057 15.9867 26.2849 15.3068 26.078V22.1168L24.5003 25.2798C24.5889 25.3094 24.6776 25.3094 24.7959 25.2798L38.3643 20.6092C38.3939 20.6092 38.4234 20.5796 38.4234 20.5796C38.5713 20.4909 38.6599 20.3431 38.6599 20.1658C38.7486 19.9884 38.6599 19.811 38.5121 19.7519Z" fill="#641909"/>
<path d="M24.7074 26.2847C24.6483 26.2847 24.6187 26.2847 24.5596 26.2551L17.2285 23.7129V30.4528C17.2285 30.7188 17.4354 30.9258 17.7015 30.9258C17.7606 30.9258 22.2539 30.9553 24.4414 32.6994C24.5301 32.7585 24.6187 32.7881 24.737 32.7881C24.8257 32.7881 24.9439 32.7585 25.0326 32.6994C27.2201 30.9553 31.7134 30.9258 31.7725 30.9258C32.0385 30.9258 32.2455 30.7188 32.2455 30.4528V23.7425L24.9144 26.2847C24.7961 26.2847 24.7665 26.2847 24.7074 26.2847Z" fill="#781803"/>
</g>
<defs>
<clipPath id="clip0_9856_3368">
<rect width="50" height="50" fill="white"/>
</clipPath>
</defs>
</svg>
