<svg width="50" height="50" viewBox="0 0 50 50" fill="none" xmlns="http://www.w3.org/2000/svg">
<path d="M49.9995 25.0002C49.9995 11.1933 38.8067 0.000486612 24.9998 0.000486612C11.1928 0.000486612 0 11.1933 0 25.0002C0 38.8072 11.1928 50 24.9998 50C38.8067 50 49.9995 38.8072 49.9995 25.0002Z" fill="white"/>
<path d="M7.87075 27.8455L6.68599 28.4873C6.63662 28.5367 6.53789 28.4873 6.53789 28.3886L6.78472 27.0557C6.83408 26.6608 6.73535 26.2165 6.43916 25.9203L5.45186 24.9824C5.40249 24.933 5.40249 24.8343 5.50122 24.8343L6.83408 24.6368C7.229 24.5874 7.62393 24.3406 7.77202 23.9457L8.46313 22.5635L9.15425 23.9457C9.35171 24.2913 9.69726 24.5874 10.0922 24.6368L11.6225 24.8343L10.5365 25.9203C10.2403 26.2165 10.0922 26.6114 10.1909 27.0557L10.4377 28.586L9.05552 27.8949C8.66059 27.6481 8.21631 27.6481 7.87075 27.8455Z" fill="#389CE3"/>
<path d="M25.0004 27.0039C25.6421 27.0039 26.2839 26.8558 26.8269 26.5596C26.0371 27.5962 24.5561 27.7443 23.5194 26.9545C23.3713 26.8558 23.2232 26.7077 23.1245 26.5596C23.7169 26.8064 24.3586 26.9545 25.0004 27.0039Z" fill="black"/>
<path d="M21.1504 20.4892C21.1504 18.3665 22.8782 16.6387 25.0009 16.6387C27.1236 16.6387 28.8514 18.3665 28.8514 20.4892C28.8514 22.7106 27.0248 25.475 25.0009 25.475C22.9769 25.475 21.1504 22.6612 21.1504 20.4892Z" fill="#133E58"/>
<path d="M31.8133 33.8665V34.2614H18.1392V33.8665C18.1392 31.2008 19.6695 28.7819 22.0884 27.6465C23.52 29.2262 25.9389 29.3743 27.5679 27.9427C27.6666 27.8439 27.7654 27.7452 27.8641 27.6465C30.283 28.7819 31.8133 31.2008 31.8133 33.8665Z" fill="#133E58"/>
<path d="M38.0326 28.7341L38.3781 26.8582L36.9959 25.5253C36.6504 25.1798 36.5516 24.6861 36.6997 24.2418C36.8478 23.7975 37.2427 23.452 37.7364 23.4026L39.0692 23.2052C37.8845 16.4421 32.01 11.2588 25.0002 11.2588C17.941 11.2588 12.0665 16.4915 10.9805 23.2545L12.3133 23.452C12.5602 23.5013 12.8563 23.6001 13.0044 23.7975C13.4981 24.2912 13.4981 25.081 13.0044 25.5747L11.6222 26.9075L11.9678 28.7834C12.0171 29.2277 11.869 29.6226 11.5729 29.9188C13.4487 35.5958 18.7802 39.5944 25.0002 39.5944C31.2695 39.5944 36.601 35.4971 38.4769 29.8695C38.0819 29.6226 37.9338 29.1783 38.0326 28.7341ZM33.3429 35.0034C33.3429 35.3984 32.9973 35.7439 32.6024 35.7439H17.3979C17.003 35.7439 16.6575 35.3984 16.6575 35.0034V33.8187C16.6575 30.3137 18.8295 27.2037 22.137 25.9696C22.1864 25.9696 22.2851 25.9202 22.3345 25.9202C20.7548 24.6367 19.6687 22.4153 19.6687 20.4407C19.6687 17.4788 22.0876 15.1093 25.0002 15.1093C27.9621 15.1093 30.381 17.4788 30.381 20.4407C30.381 22.4153 29.2949 24.6861 27.7153 25.9202C27.7646 25.9202 27.8634 25.9202 27.9127 25.9696C31.1708 27.2037 33.3429 30.3137 33.3923 33.8187V35.0034H33.3429Z" fill="#133E58"/>
<path d="M8.46323 20.7851C8.3645 20.7851 8.26577 20.7851 8.11768 20.8345C10.1416 13.4297 16.954 7.9502 25.0006 7.9502C32.9977 7.9502 39.7607 13.331 41.8341 20.6864C41.7353 20.6864 41.6366 20.637 41.5379 20.637C41.0442 20.637 40.5999 20.8839 40.4025 21.3282L40.205 21.7231C38.5266 14.9107 32.356 9.77671 25.0006 9.77671C17.5958 9.77671 11.3758 14.9107 9.74673 21.8218L9.59863 21.4762C9.3518 21.032 8.90752 20.7851 8.46323 20.7851Z" fill="#133E58"/>
<path d="M41.5375 29.1279L42.0312 29.3748C40.2047 37.1745 33.2442 42.9502 25.0002 42.9502C16.7562 42.9502 9.79575 37.2238 7.96924 29.5229L8.46289 29.276L10.0426 30.1152C12.0172 36.4833 17.9904 41.173 25.0002 41.173C32.0594 41.173 38.082 36.4833 40.0072 30.0165L41.5375 29.1279Z" fill="#133E58"/>
<path d="M43.5613 25.8691C43.2651 26.1653 43.117 26.5602 43.2157 27.0045L43.4625 28.3373C43.4625 28.4361 43.4132 28.4854 43.3144 28.4361L42.1297 27.7943C41.7841 27.5969 41.3398 27.5969 40.9449 27.7943L39.5627 28.4854L39.8095 26.9551C39.8589 26.5602 39.7602 26.1159 39.464 25.8197L38.3779 24.7337L39.9082 24.5362C40.3032 24.4869 40.6981 24.24 40.8462 23.8451L41.5373 22.4629L42.2284 23.8451C42.4259 24.1907 42.7714 24.4869 43.1664 24.5362L44.4992 24.7337C44.5979 24.7337 44.5979 24.8324 44.5486 24.8818L43.5613 25.8691Z" fill="#389CE3"/>
</svg>
