<svg width="50" height="50" viewBox="0 0 50 50" fill="none" xmlns="http://www.w3.org/2000/svg">
<g clip-path="url(#clip0_9856_3346)">
<path d="M50.1646 25.0142C50.1646 11.2072 38.9718 0.0144026 25.1648 0.0144026C11.3578 0.0144026 0.165039 11.2072 0.165039 25.0142C0.165039 38.8211 11.3578 50.0139 25.1648 50.0139C38.9718 50.0139 50.1646 38.8211 50.1646 25.0142Z" fill="#49A6E8"/>
<path d="M24.6953 10.9868C32.4346 10.9868 38.7085 17.2607 38.7085 25C38.7085 32.7393 32.4346 39.0132 24.6953 39.0132C16.9561 39.0132 10.6821 32.7393 10.6821 25C10.6821 17.2607 16.9561 10.9868 24.6953 10.9868Z" fill="#49A5E8" stroke="#0B3351" stroke-width="1.97368"/>
<path d="M35.41 25.0001C35.41 19.0827 30.6131 14.2858 24.6957 14.2858C18.7784 14.2858 13.9814 19.0827 13.9814 25.0001C13.9814 30.9174 18.7784 35.7144 24.6957 35.7144C30.6131 35.7144 35.41 30.9174 35.41 25.0001Z" fill="#0B3351"/>
<path d="M17.2283 28V22.1818H21.0806V23.196H18.4585V24.5824H20.8249V25.5966H18.4585V28H17.2283ZM23.9705 28H21.908V22.1818H23.9876C24.5728 22.1818 25.0766 22.2983 25.4989 22.5312C25.9213 22.7623 26.2461 23.0947 26.4734 23.5284C26.7025 23.9621 26.8171 24.4811 26.8171 25.0852C26.8171 25.6913 26.7025 26.2121 26.4734 26.6477C26.2461 27.0833 25.9194 27.4176 25.4933 27.6506C25.069 27.8835 24.5614 28 23.9705 28ZM23.1381 26.946H23.9194C24.283 26.946 24.5889 26.8816 24.837 26.7528C25.087 26.6222 25.2745 26.4205 25.3995 26.1477C25.5264 25.8731 25.5898 25.5189 25.5898 25.0852C25.5898 24.6553 25.5264 24.304 25.3995 24.0312C25.2745 23.7585 25.0879 23.5578 24.8398 23.429C24.5917 23.3002 24.2859 23.2358 23.9222 23.2358H23.1381V26.946ZM28.6083 22.1818L29.7816 24.1648H29.8271L31.006 22.1818H32.3952L30.6197 25.0909L32.435 28H31.0202L29.8271 26.0142H29.7816L28.5884 28H27.1793L29.0004 25.0909L27.2134 22.1818H28.6083Z" fill="#49A5E8"/>
</g>
<defs>
<clipPath id="clip0_9856_3346">
<rect width="50" height="50" fill="white"/>
</clipPath>
</defs>
</svg>
