<svg width="50" height="50" viewBox="0 0 50 50" fill="none" xmlns="http://www.w3.org/2000/svg">
<circle cx="25" cy="25" r="25" fill="#FFE8E8"/>
<path fill-rule="evenodd" clip-rule="evenodd" d="M25.0001 0C38.8073 0 50 11.1927 50 25.0001C50 38.8073 38.8073 50 25.0001 50C11.1927 50 0 38.8073 0 25.0001C0 11.1927 11.1927 0 25.0001 0ZM32.7332 24.3383C32.0826 24.989 32.0826 26.0447 32.7332 26.6954C33.3839 27.3462 34.4397 27.3462 35.0903 26.6954L36.2692 25.5165C39.5064 22.2793 39.5061 16.9685 36.2687 13.7314C33.0315 10.4942 27.7207 10.4936 24.4835 13.7308L23.3046 14.9097C22.6538 15.5603 22.6538 16.6161 23.3046 17.2668C23.9553 17.9176 25.011 17.9176 25.6617 17.2668L26.8406 16.0879C28.789 14.1396 31.9639 14.1405 33.9114 16.0886C35.8595 18.0363 35.8604 21.211 33.9121 23.1594L32.7332 24.3383ZM31.4818 20.8753C32.1329 20.2246 32.1329 19.1689 31.4818 18.5182C30.8313 17.8671 29.7754 17.8671 29.1247 18.5182L18.5182 29.1247C17.8671 29.7754 17.8671 30.8313 18.5182 31.4818C19.1689 32.1329 20.2246 32.1329 20.8753 31.4818L31.4818 20.8753ZM26.6954 35.0903C27.3462 34.4397 27.3462 33.3839 26.6954 32.7332C26.0447 32.0826 24.989 32.0826 24.3383 32.7332L23.1594 33.9121C21.211 35.8604 18.0363 35.8595 16.0886 33.9114C14.1405 31.9639 14.1396 28.789 16.0879 26.8406L17.2668 25.6617C17.9176 25.011 17.9176 23.9553 17.2668 23.3046C16.6161 22.6538 15.5603 22.6538 14.9097 23.3046L13.7308 24.4835C10.4936 27.7207 10.4942 33.0315 13.7314 36.2687C16.9685 39.5061 22.2793 39.5064 25.5165 36.2692L26.6954 35.0903Z" fill="#722626"/>
</svg>
