<svg width="50" height="50" viewBox="0 0 50 50" fill="none" xmlns="http://www.w3.org/2000/svg">
<g clip-path="url(#clip0_4774_1366)">
<path d="M50.1646 25.0139C50.1646 11.2069 38.9718 0.0141585 25.1648 0.0141585C11.3578 0.0141585 0.165039 11.2069 0.165039 25.0139C0.165039 38.8209 11.3578 50.0137 25.1648 50.0137C38.9718 50.0137 50.1646 38.8209 50.1646 25.0139Z" fill="#DBFF00"/>
<g clip-path="url(#clip1_4774_1366)">
<path d="M38.8885 25.2864C38.8885 29.3959 38.8523 33.5054 38.9156 37.6148C38.9156 38.7126 38.5931 39.0208 37.4718 39.015C29.1402 38.9739 20.8086 38.9739 12.4771 39.015C11.4251 39.015 10.991 38.833 10.997 37.6677C11.0472 29.4076 11.0472 21.1476 10.997 12.8876C10.997 11.8485 11.3226 11.4933 12.3655 11.5902C13.168 11.6536 13.9745 11.6536 14.777 11.5902C15.9827 11.5139 17.0829 11.4288 16.9895 13.1606C16.9623 13.7036 17.52 14.1292 18.1168 14.1733C18.9672 14.2481 19.8227 14.2481 20.673 14.1733C21.4627 14.0999 22.0023 13.5657 21.9299 12.7878C21.8244 11.6137 22.4725 11.5491 23.3859 11.5843C24.6398 11.6342 25.8968 11.6254 27.1507 11.5843C27.8832 11.5608 28.2811 11.7282 28.2329 12.5471C28.1575 13.7682 28.9202 14.1703 30.0415 14.1586C30.5931 14.1586 31.1477 14.1586 31.6994 14.1586C32.6459 14.1586 33.3271 13.686 33.2789 12.7673C33.2186 11.5726 33.8817 11.5139 34.7619 11.5931C36.0942 11.7194 37.8697 11.0061 38.6383 11.9102C39.2924 12.6792 38.8674 14.3406 38.8734 15.6057C38.8734 18.8346 38.8734 22.0634 38.8734 25.2923L38.8885 25.2864ZM24.9232 17.3933C20.9593 17.3933 16.9955 17.4256 13.0317 17.3699C12.0158 17.3699 11.7566 17.6839 11.7627 18.6174C11.7928 24.7248 11.7928 30.8332 11.7627 36.9426C11.7627 37.97 12.0852 38.2547 13.1312 38.2488C21.0066 38.2117 28.884 38.2117 36.7634 38.2488C37.9149 38.2488 38.1892 37.9201 38.1801 36.8458C38.1299 30.7794 38.1299 24.7199 38.1801 18.6673C38.1801 17.6252 37.8606 17.3522 36.8237 17.3669C32.8599 17.4256 28.896 17.3933 24.9292 17.3933H24.9232Z" fill="#567209"/>
<path d="M32.4951 10.8033V11.2407C32.4951 13.3424 31.7355 14.085 29.737 13.2572C27.9947 12.5381 29.2969 10.6712 28.9924 9.35327C28.8417 8.68988 29.0708 8.16152 29.9902 8.07933C32.3896 7.86798 32.4951 7.95312 32.4951 10.8033Z" fill="#567209"/>
<path d="M17.6707 10.7735V10.3332C17.6707 8.24325 18.376 7.54757 20.3534 8.27847C22.162 8.95359 20.8809 10.7618 21.1733 12.0327C21.3331 12.7255 21.1522 13.3536 20.1364 13.4446C17.8515 13.6619 17.6677 13.5004 17.6707 10.7735Z" fill="#567209"/>
<path d="M23.7687 27.9663C21.6587 26.4252 21.2336 24.3734 22.6654 22.8295C22.9698 22.5021 23.3406 22.2399 23.7545 22.0595C24.1683 21.8791 24.6162 21.7844 25.0696 21.7813C25.523 21.7783 25.9722 21.867 26.3885 22.0419C26.8049 22.2168 27.1794 22.474 27.4883 22.7972C28.9171 24.2648 28.5373 26.2902 26.5027 27.9545C26.7167 28.4389 27.2562 28.3391 27.627 28.5064C28.9838 29.0618 30.0731 30.0984 30.6745 31.4065C31.6391 33.561 31.0844 34.7293 28.7544 35.3751C26.2778 36.0744 23.6441 36.0438 21.1854 35.287C19.2472 34.6999 18.7739 33.6814 19.4371 31.794C19.9917 30.2177 21.1281 29.1933 22.6534 28.4947C23.0091 28.3303 23.5486 28.4418 23.7687 27.9663Z" fill="#567209"/>
</g>
</g>
<defs>
<clipPath id="clip0_4774_1366">
<rect width="50" height="50" fill="white"/>
</clipPath>
<clipPath id="clip1_4774_1366">
<rect width="28" height="31" fill="white" transform="translate(11 8)"/>
</clipPath>
</defs>
</svg>
