<svg width="50" height="50" viewBox="0 0 50 50" fill="none" xmlns="http://www.w3.org/2000/svg">
<g clip-path="url(#clip0_9856_3382)">
<path d="M25.1648 50.0139C38.9718 50.0139 50.1646 38.8211 50.1646 25.0142C50.1646 11.2072 38.9718 0.0144043 25.1648 0.0144043C11.3578 0.0144043 0.165039 11.2072 0.165039 25.0142C0.165039 38.8211 11.3578 50.0139 25.1648 50.0139Z" fill="#7A7A7A"/>
<path d="M30.322 17.6283C30.322 20.7381 27.8035 23.2566 24.6937 23.2566C21.5839 23.2566 19.0654 20.7381 19.0654 17.6283C19.0654 14.5216 21.5839 12 24.6937 12C27.8035 12 30.322 14.5216 30.322 17.6283Z" fill="#EAEAEA"/>
<path d="M28.0701 24.0581C26.9532 25.7725 25.8393 27.4869 24.7225 29.2015C23.5899 27.487 22.4574 25.7726 21.3279 24.0549C15.5901 25.469 11.2347 30.3904 10.6997 36.4251C10.6403 37.104 11.1878 37.6828 11.8698 37.6828H37.5208C38.2028 37.6828 38.7504 37.1009 38.6909 36.4251C38.1528 30.3964 33.8009 25.475 28.0691 24.0581L28.0701 24.0581ZM32.9694 33.8164C32.9694 34.0167 32.8068 34.1794 32.6065 34.1794H28.2328C28.0326 34.1794 27.8699 34.0167 27.8699 33.8164V32.7089C27.8699 32.5087 28.0326 32.346 28.2328 32.346H32.6065C32.8068 32.346 32.9694 32.5087 32.9694 32.7089V33.8164Z" fill="#232323"/>
</g>
<defs>
<clipPath id="clip0_9856_3382">
<rect width="50" height="50" fill="white"/>
</clipPath>
</defs>
</svg>
