<svg width="24" height="22" viewBox="0 0 24 22" fill="none" xmlns="http://www.w3.org/2000/svg">
<path d="M8.37296 6.7213C8.37296 4.41323 6.4951 2.53418 4.18712 2.53418C1.87914 2.53418 0 4.41205 0 6.7213C0 9.02937 1.87787 10.9071 4.18712 10.9071C6.49519 10.9084 8.37296 9.02928 8.37296 6.7213ZM2.74172 7.72507L3.51358 7.62406C3.54475 7.8136 3.60336 7.97944 3.6894 8.1191C3.77543 8.26 3.87394 8.361 3.98118 8.42335V6.91207C3.233 6.65271 2.8602 6.11777 2.8602 5.30729C2.8602 4.8933 2.96494 4.55663 3.17567 4.29726C3.3864 4.0379 3.65449 3.88829 3.98117 3.85088V3.49425H4.40636V3.85088C4.71186 3.89701 4.95876 4.0242 5.14952 4.23492C5.33906 4.44565 5.46001 4.73494 5.50988 5.10529L4.76299 5.22375C4.71685 4.93695 4.59839 4.74493 4.40636 4.64642V6.05546C4.86523 6.20634 5.17698 6.39338 5.34032 6.61408C5.53484 6.87843 5.6321 7.21385 5.6321 7.62034C5.6321 8.07174 5.52112 8.4433 5.3004 8.73385C5.0797 9.02438 4.78168 9.20271 4.40635 9.26754V9.94213H3.98116V9.28625C3.27289 9.18649 2.85894 8.66525 2.74172 7.72507Z" fill="white"/>
<path d="M6.82968 13.574C6.61022 13.574 6.43066 13.7535 6.43066 13.9742C6.43066 14.1949 6.61022 14.3745 6.82968 14.3745C7.05039 14.3745 7.22994 14.1949 7.22994 13.9742C7.22994 13.7535 7.05038 13.574 6.82968 13.574Z" fill="white"/>
<path d="M4.90946 7.75738C4.90946 7.41697 4.74237 7.18627 4.4082 7.06909V8.47561C4.55285 8.44444 4.67131 8.36339 4.76732 8.23246C4.86084 8.10028 4.90946 7.94318 4.90946 7.75738Z" fill="white"/>
<path d="M10.0997 6.96403H22.0153C22.1948 6.96403 22.3644 6.92288 22.5178 6.85305L21.5664 2.73584L9.75293 5.46661L10.0997 6.96403Z" fill="white"/>
<path d="M9.11342 6.96409H9.32665L8.9351 5.26951C8.88772 5.06751 9.0149 4.86427 9.2169 4.81811L20.3045 2.25569L19.5501 0L8.16309 3.80566C8.76535 4.62365 9.12446 5.63118 9.12446 6.72222C9.12571 6.80327 9.11716 6.88304 9.11342 6.96409Z" fill="white"/>
<path d="M3.98242 4.63867C3.87144 4.68481 3.78041 4.76336 3.70809 4.87683C3.63577 4.9903 3.59961 5.115 3.59961 5.25216C3.59961 5.5402 3.7268 5.75218 3.98116 5.88686L3.98242 4.63867Z" fill="white"/>
<path d="M9.02516 7.71742C8.5638 9.96564 6.56996 11.6603 4.18716 11.6603C3.65848 11.6603 3.14972 11.5743 2.6709 11.4197V11.8H7.1734C8.3717 11.8 9.3468 12.7751 9.3468 13.9734C9.3468 15.1717 8.3717 16.1468 7.1734 16.1468L2.6709 16.148V21.8055C2.6709 21.9127 2.75818 22 2.86542 22H23.0432C23.1504 22 23.2377 21.9127 23.2377 21.8055L23.2365 7.28125C22.8986 7.54934 22.4784 7.71643 22.0145 7.71643L9.02516 7.71742ZM21.6491 20.507H16.6751C16.4669 20.507 16.2985 20.3387 16.2985 20.1304C16.2985 19.9222 16.4669 19.7539 16.6751 19.7539H21.6491C21.8573 19.7539 22.0257 19.9222 22.0257 20.1304C22.0257 20.3387 21.8573 20.507 21.6491 20.507Z" fill="white"/>
<path d="M8.59492 13.9745C8.59492 13.1914 7.95774 12.553 7.17468 12.553H2.6709V15.396H7.1734C7.95646 15.396 8.59492 14.7575 8.59492 13.9745ZM5.67712 13.9745C5.67712 13.3385 6.1946 12.8223 6.82929 12.8223C7.46523 12.8223 7.98146 13.3398 7.98146 13.9745C7.98146 14.6104 7.46398 15.1266 6.82929 15.1266C6.1946 15.1266 5.67712 14.6104 5.67712 13.9745Z" fill="white"/>
<path d="M22.7266 4.41556L23.1418 6.21362C23.2029 6.06898 23.2366 5.90938 23.2366 5.74227V5.40435C23.2366 5.00036 23.0371 4.64003 22.7266 4.41556Z" fill="white"/>
</svg>
