<svg width="50" height="50" viewBox="0 0 50 50" fill="none" xmlns="http://www.w3.org/2000/svg">
<path d="M49.9995 25.0002C49.9995 11.1933 38.8067 0.000486612 24.9998 0.000486612C11.1928 0.000486612 0 11.1933 0 25.0002C0 38.8072 11.1928 50 24.9998 50C38.8067 50 49.9995 38.8072 49.9995 25.0002Z" fill="white"/>
<path d="M18 8.4023L20.4362 15C21.6948 14.4636 23.0772 14.1665 24.5261 14.1665C25.8976 14.1665 27.2058 14.4406 28.4088 14.9234L32 9.16773C32 9.16773 31.3741 8.69349 30.5595 8.69349C30.1063 8.69349 29.5949 8.83993 29.0996 9.29544C28.889 9.48872 28.6876 9.57046 28.493 9.57046C27.403 9.5696 26.5311 7 25.5674 7C24.5801 7 23.4976 8.92763 22.2373 8.92763C22.0478 8.92763 21.8549 8.88421 21.6577 8.78459C20.6923 8.29672 19.8803 7.70498 19.1566 7.70498C18.7464 7.70413 18.3656 7.89485 18 8.4023Z" fill="url(#paint0_linear_10817_1165)"/>
<path d="M29.6156 36.929C26.4941 38.5051 24.9997 39.962 24.9997 39.962C24.9997 39.962 23.5053 38.5051 20.3838 36.929C15.3234 34.3737 15.7189 28.8972 15.7693 20.028L19.4947 16.7617H30.5048L34.2301 20.028C34.2828 28.8972 34.676 34.3737 29.6156 36.929Z" fill="url(#paint1_linear_10817_1165)"/>
<g style="mix-blend-mode:color-burn">
<path d="M29.6178 36.929C26.4963 38.5051 25.002 39.962 25.002 39.962V16.7617H30.507L34.2324 20.028C34.285 28.8972 34.6783 34.3737 29.6178 36.929Z" fill="#DFCC22"/>
</g>
<path d="M24.9997 41L24.4871 40.5024C24.4741 40.4896 23.018 39.0963 20.0549 37.6004C17.6412 36.3817 16.208 34.4546 15.5456 31.5361C14.9548 28.924 14.9805 25.7237 15.0151 21.6712C15.0199 21.1339 15.0243 20.5828 15.0282 20.0177V19.6736L19.2201 16H30.7814L34.9716 19.6736V20.0177C34.9752 20.5828 34.9796 21.1339 34.9847 21.6712C35.0193 25.7237 35.0468 28.924 34.4542 31.5361C33.7918 34.4546 32.3586 36.3817 29.9449 37.6004C26.9818 39.0963 25.5257 40.4896 25.5113 40.5033L24.9997 41ZM16.5108 20.3709C16.5075 20.8178 16.5039 21.2557 16.5 21.6845C16.4339 29.4042 16.3947 34.0642 20.7145 36.246C22.8911 37.3456 24.3031 38.3894 25.0006 38.9616C25.6976 38.3894 27.1096 37.3447 29.2862 36.246C33.606 34.0642 33.5673 29.4042 33.5011 21.6845C33.4975 21.2554 33.4939 20.8175 33.4903 20.3709L30.2302 17.512H19.7696L16.5108 20.3709Z" fill="url(#paint2_linear_10817_1165)"/>
<path d="M25.002 40.0222L24.9709 39.992C24.9561 39.9778 23.4446 38.5213 20.3663 36.9681C18.1236 35.8355 16.847 34.1123 16.2265 31.3784C15.6519 28.8484 15.6793 25.6848 15.7135 21.6794C15.718 21.1412 15.7224 20.5893 15.7266 20.0236V20.003L19.4803 16.7129H30.5255L34.2787 20.0039V20.0245C34.282 20.5902 34.2862 21.1422 34.2913 21.6804C34.3255 25.6857 34.353 28.8489 33.7784 31.3789C33.1583 34.1114 31.8817 35.8346 29.6386 36.9685C26.5603 38.5227 25.0488 39.9792 25.0339 39.9925L25.002 40.0222ZM15.8166 20.0461C15.8133 20.6044 15.8091 21.1495 15.804 21.6813C15.7698 25.6802 15.7428 28.8393 16.3142 31.3587C16.928 34.0619 18.1898 35.7659 20.4063 36.8847C23.2565 38.3243 24.7711 39.6818 25.002 39.8967C25.2333 39.6818 26.7479 38.3243 29.5981 36.8847C31.8146 35.7659 33.0764 34.0615 33.6902 31.3583C34.2621 28.8383 34.2346 25.6802 34.2004 21.6808C34.1959 21.1493 34.1917 20.6044 34.1878 20.0461L30.4904 16.8045H19.514L15.8166 20.0461Z" fill="#7A7016"/>
<path fill-rule="evenodd" clip-rule="evenodd" d="M19 27.5002C19 24.4622 21.4627 22 24.5002 22C27.5378 22 30.0005 24.4622 30.0005 27.4998C30.0005 30.5373 27.5378 33 24.5002 33C21.4627 33 19 30.5383 19 27.5002ZM22.0679 27.5807L23.5045 28.8564L26.5246 24.9885L27.2095 25.5235L23.6195 30.1221L21.4906 28.2307L22.0679 27.5807Z" fill="#7A7016"/>
<defs>
<linearGradient id="paint0_linear_10817_1165" x1="25" y1="7" x2="25" y2="15" gradientUnits="userSpaceOnUse">
<stop stop-color="#7A7016"/>
<stop offset="1" stop-color="#A89917"/>
</linearGradient>
<linearGradient id="paint1_linear_10817_1165" x1="17.5558" y1="16.6468" x2="25.2669" y2="39.7097" gradientUnits="userSpaceOnUse">
<stop stop-color="#F2E56D"/>
<stop offset="0.881879" stop-color="#F2DB12"/>
</linearGradient>
<linearGradient id="paint2_linear_10817_1165" x1="25" y1="16" x2="25" y2="41" gradientUnits="userSpaceOnUse">
<stop stop-color="#AC9E1D"/>
<stop offset="1" stop-color="#857B1E"/>
</linearGradient>
</defs>
</svg>
