<svg width="50" height="50" viewBox="0 0 50 50" fill="none" xmlns="http://www.w3.org/2000/svg">
<g clip-path="url(#clip0_10970_1424)">
<path d="M24.9998 49.9995C38.8067 49.9995 49.9995 38.8067 49.9995 24.9998C49.9995 11.1928 38.8067 0 24.9998 0C11.1928 0 0 11.1928 0 24.9998C0 38.8067 11.1928 49.9995 24.9998 49.9995Z" fill="#030303"/>
<path d="M31.8122 16.3154C32.4346 15.8211 33.2121 15.5593 34.0078 15.5775C34.5475 15.5738 35.0865 15.6213 35.6182 15.7204C35.6708 15.7292 35.7249 15.7001 35.7451 15.6503C35.7668 15.5995 35.75 15.5419 35.706 15.5093C34.429 14.5918 32.8144 14.2746 31.2846 14.6389C31.245 14.649 31.2145 14.6789 31.2013 14.7165C31.0343 15.1517 30.9136 15.6041 30.8417 16.0647C30.8383 16.0984 30.8504 16.133 30.8746 16.1574C30.8987 16.1819 30.9323 16.1958 30.9669 16.1929C31.2176 16.1772 31.4676 16.2231 31.696 16.3279C31.734 16.3477 31.7807 16.3425 31.8148 16.3158L31.8122 16.3154ZM19.7071 28.9219C18.9027 28.8078 18.1082 29.1896 17.6933 29.8895C17.2797 30.5896 17.3282 31.471 17.8174 32.1203C18.3051 32.7708 19.138 33.0638 19.9255 32.8612C20.713 32.6586 21.302 32.0018 21.4163 31.1961C21.4913 30.6676 21.3543 30.1314 21.0333 29.7058C20.7125 29.2789 20.2357 28.9969 19.7071 28.9219ZM16.8309 34.7171L16.8322 34.7173C16.6891 34.697 16.5909 34.5647 16.611 34.4229C16.6313 34.2798 16.7625 34.18 16.9056 34.2003L20.9327 34.7716C21.0758 34.7919 21.1741 34.9242 21.1538 35.0673C21.1337 35.2091 21.0025 35.3088 20.8594 35.2885L16.8309 34.7171ZM23.48 13.6438C23.7982 13.422 23.6144 12.9093 23.8607 12.9443C24.0966 12.9777 24.1117 12.9733 24.078 13.2105L24.0793 13.2107C24.0573 13.3101 24.0766 13.4154 24.1356 13.5001C24.1933 13.5845 24.2839 13.6408 24.3858 13.6552C24.4876 13.6697 24.5903 13.6409 24.6693 13.5758C24.7495 13.5109 24.7973 13.4151 24.8038 13.3134C24.8159 13.2284 24.8152 13.0849 24.9452 13.0955L24.9454 13.0942C25.1324 13.101 25.2938 12.9648 25.3201 12.7791C25.3463 12.5948 25.2292 12.4191 25.0476 12.3736C24.9183 12.3487 24.9603 12.21 24.9724 12.1249L24.9726 12.1236C24.9823 11.9343 24.8455 11.7676 24.6573 11.7409C24.4691 11.7142 24.2913 11.8363 24.2481 12.0208C24.2212 12.2103 24.2227 12.2552 24.0242 12.2271L24.024 12.2284C23.9931 12.224 23.9641 12.2054 23.9455 12.1791C23.9269 12.1528 23.9197 12.1202 23.9268 12.0883L24.1572 10.9743L24.1574 10.973C24.1726 10.9121 24.232 10.8731 24.2937 10.8832C24.3567 10.8935 24.3998 10.9509 24.3936 11.0131L24.3768 11.1317C24.3485 11.3315 24.4868 11.5155 24.6853 11.5437C24.8838 11.5719 25.0678 11.4336 25.0961 11.2337C25.1082 11.1487 25.1079 11.0026 25.2404 11.0136L25.2403 11.0148C25.4325 11.0316 25.6043 10.8955 25.6316 10.7035C25.6586 10.5127 25.5316 10.3329 25.3421 10.2968C25.2115 10.2717 25.2525 10.1316 25.2647 10.0452C25.2929 9.84668 25.1546 9.6627 24.9561 9.63454C24.7576 9.60638 24.5736 9.74466 24.5454 9.94317L24.5123 10.1765C24.2919 10.1452 24.3432 10.071 24.3956 9.81278C24.4207 9.69142 24.3952 9.56549 24.3253 9.46484C24.2541 9.36401 24.1439 9.29709 24.0214 9.27972L21.0256 8.85474C20.9031 8.83737 20.7799 8.87119 20.6833 8.94954C20.5869 9.0266 20.5287 9.14064 20.5203 9.26438L20.494 9.6078C20.298 9.58001 20.3157 9.5299 20.3414 9.34814L20.3401 9.34796C20.3626 9.15257 20.2247 8.9752 20.0301 8.94759C19.8354 8.91998 19.6536 9.05199 19.6195 9.24573C19.6075 9.33082 19.6093 9.47573 19.4756 9.46334L19.4769 9.46352C19.2833 9.44659 19.11 9.58375 19.0827 9.77584C19.0555 9.96792 19.1838 10.1479 19.3744 10.1855C19.505 10.2106 19.4643 10.3494 19.4522 10.4345L19.4509 10.4343C19.4298 10.6299 19.5677 10.8073 19.7623 10.8349C19.957 10.8625 20.1388 10.7305 20.1715 10.5366C20.1842 10.4476 20.1827 10.3001 20.3258 10.3204C20.3877 10.3292 20.4312 10.384 20.4265 10.4452L20.3379 11.5793C20.327 11.7119 20.1902 11.6846 20.1309 11.6762C19.9929 11.6566 20.0364 11.5076 20.0479 11.4264L20.0467 11.4262C20.0592 11.236 19.9226 11.068 19.7331 11.0411C19.5436 11.0142 19.3656 11.1376 19.3234 11.3236C19.3114 11.4087 19.3132 11.5536 19.1795 11.5412L19.1806 11.5427C18.9935 11.5359 18.8321 11.6721 18.806 11.8564C18.7797 12.0421 18.8968 12.2178 19.0784 12.2633C19.2087 12.2897 19.1682 12.4273 19.1561 12.5124L19.1546 12.5135C19.1434 12.7039 19.28 12.8718 19.4695 12.8987C19.659 12.9256 19.837 12.8022 19.8779 12.6161C19.9117 12.3776 19.9261 12.3875 20.1607 12.4208C20.4069 12.4557 20.0879 12.897 20.3318 13.1986C20.4417 13.3325 23.3837 13.7104 23.4785 13.645L23.48 13.6438ZM22.6353 13.9066L21.0705 13.6834C21.0071 13.6757 20.9484 13.7186 20.9393 13.7831L18.8826 28.2819C18.8775 28.318 18.8893 28.3552 18.9158 28.3813C18.9424 28.4074 18.9801 28.4194 19.0166 28.4127C19.5253 28.331 20.0474 28.405 20.5133 28.625C20.5464 28.6415 20.586 28.6406 20.6188 28.6229C20.6503 28.605 20.6732 28.5727 20.6784 28.5366L22.7349 14.0392C22.7438 13.976 22.6998 13.9158 22.6368 13.9056L22.6353 13.9066ZM16.6648 35.8879C16.5263 35.863 16.4329 35.734 16.4526 35.5948C16.4724 35.4555 16.5982 35.3563 16.7382 35.3709L20.7666 35.9424C20.9051 35.9673 20.9984 36.0976 20.9787 36.2368C20.9589 36.376 20.8333 36.4739 20.6933 36.4593L16.6648 35.8879ZM19.2412 21.684C18.1494 20.6388 16.747 20.3925 15.5665 21.1325C15.1009 21.4294 14.7236 21.8453 14.4724 22.337C14.0031 23.3002 13.9416 24.4105 14.3009 25.4189C14.8974 27.2394 14.2315 29.2358 12.6621 30.3335C11.9307 30.8544 11.641 31.7102 11.5079 32.6487C11.2663 33.9715 11.5196 35.3383 12.2193 36.4871C12.9088 37.5133 14.0111 38.1879 15.2385 38.333L21.385 39.2049C22.603 39.4066 23.8495 39.0653 24.7959 38.2711C25.6946 37.507 26.3291 36.3162 26.5467 34.782C26.6795 33.8461 26.642 32.9518 26.0934 32.248L26.0933 32.2493C24.9952 30.8771 24.8374 28.9768 25.693 27.4413C26.415 26.1156 26.4467 24.613 25.6231 23.5676C24.9308 22.6909 23.8116 22.3954 22.6366 22.7429C22.2548 22.8571 22.0284 22.729 22.0035 22.9043L21.1413 28.9825C21.1347 29.0197 21.1489 29.0585 21.1782 29.0837C21.9724 29.8447 22.1842 31.0307 21.7033 32.0197C21.2224 33.0088 20.1583 33.5759 19.069 33.4214C17.981 33.267 17.1153 32.4262 16.9284 31.3424C16.7416 30.2586 17.2761 29.1785 18.2506 28.6684C18.2845 28.6522 18.309 28.6188 18.313 28.5812L19.2771 21.785C19.2824 21.7476 19.2691 21.7103 19.2412 21.684ZM31.6067 36.9621C31.448 36.6529 31.1986 36.3992 30.8921 36.2335C30.1348 35.8144 29.2342 35.9615 28.8099 36.7652L28.8111 36.7654C28.5371 37.2881 28.4571 37.8895 28.5871 38.4656C28.6453 38.871 28.674 39.2801 28.6726 39.6889C28.6714 39.7255 28.6887 39.7608 28.7184 39.7835C28.748 39.8061 28.7865 39.8129 28.8208 39.8033C30.2044 39.4774 30.8673 39.319 31.5428 38.2655L31.5442 38.2644C31.6588 38.0597 31.7279 37.8315 31.7428 37.5969C31.7503 37.377 31.7037 37.1586 31.6067 36.9621ZM30.8971 34.205L30.4203 35.2486C30.4052 35.2807 30.4065 35.3177 30.4217 35.3501C30.4383 35.3814 30.4677 35.4053 30.5022 35.4128C30.9913 35.5151 31.439 35.7614 31.7865 36.121C31.8104 36.1468 31.8454 36.1596 31.8813 36.1568C31.9172 36.154 31.9489 36.1348 31.9689 36.1048L32.6088 35.1264L36.9258 26.7017L36.9269 26.7031C37.0918 26.4306 37.0172 26.0755 36.755 25.8937C36.5293 25.7696 36.3858 25.6506 36.1209 25.738C35.9619 25.793 35.8279 25.9029 35.7441 26.0488L30.904 34.194C30.9009 34.1975 30.8989 34.2014 30.8971 34.205ZM30.1187 17.2855C30.0214 17.4243 29.958 17.5836 29.9343 17.7512C29.8968 17.997 29.9677 18.2477 30.1303 18.4365C30.291 18.6105 30.5163 18.7096 30.7531 18.7089C31.7228 18.7334 32.2992 17.4975 31.6006 16.9526C31.1998 16.6814 30.6635 16.7263 30.3134 17.0619L30.1187 17.2855ZM29.3686 17.1962L29.3673 17.196C28.8967 17.0648 28.3996 17.0561 27.9253 17.1729C27.8905 17.1772 27.8587 17.1977 27.8412 17.2281C27.0784 18.573 26.927 20.1782 27.4228 21.6425C27.4418 21.6939 27.4925 21.7261 27.5459 21.7205C27.6006 21.7151 27.6433 21.6738 27.6509 21.6197C27.7482 20.9246 27.9481 20.2481 28.2448 19.6117C28.4555 19.0353 28.8219 18.5284 29.3036 18.1456C29.4296 18.0544 29.2488 17.8736 29.4372 17.3427C29.4589 17.2826 29.4275 17.2164 29.3675 17.1947L29.3686 17.1962ZM28.5883 16.5135C29.5763 16.4643 29.7133 16.8335 29.8607 16.694L29.9653 16.5957C30.1366 16.4543 30.2581 16.4321 30.2523 16.3248L30.251 16.3246C30.2446 15.916 30.3127 15.5101 30.4502 15.1246C30.4643 15.0806 30.4501 15.0325 30.4149 15.0025C30.3799 14.9713 30.3309 14.9643 30.2886 14.9846C29.6047 15.3005 28.9919 15.7541 28.4924 16.3184C28.4609 16.3547 28.4538 16.405 28.4754 16.4475C28.4957 16.4898 28.5394 16.5158 28.587 16.5133L28.5883 16.5135ZM29.4823 18.7589L29.481 18.7587C29.1738 19.0702 28.9343 19.4425 28.7789 19.8518C28.3107 20.8533 28.1042 21.9562 28.1794 23.0584C28.1809 23.0941 28.196 23.1265 28.2214 23.1511C29.2388 24.5079 30.8349 25.3077 32.5308 25.3116C32.5769 25.3115 32.6173 25.2857 32.6365 25.2437C32.6554 25.203 32.6491 25.1548 32.6199 25.1191C31.385 23.6459 30.388 21.8672 30.2543 19.9639L30.2541 19.9652C30.2354 19.7443 30.2367 19.5222 30.2613 19.3021C30.2674 19.2504 30.239 19.2003 30.1905 19.1803C29.987 19.0949 29.8062 18.9601 29.6635 18.7886C29.6095 18.7244 29.5413 18.7042 29.4797 18.7586L29.4823 18.7589ZM30.84 19.3946L30.8374 19.3942C30.8165 20.2369 30.97 21.074 31.2893 21.8544C31.8053 23.0835 32.5373 24.2092 33.4491 25.1788C33.4762 25.2103 33.5175 25.2253 33.5582 25.2166C35.183 24.9053 36.5766 23.8695 37.3435 22.4041C37.3615 22.3699 37.3621 22.3292 37.3432 22.295C36.8556 21.3105 36.1663 20.4408 35.3188 19.7406C34.3378 18.8874 33.7004 18.4577 32.5174 18.1294C32.4605 18.1135 32.3996 18.1443 32.3785 18.2005C32.1358 18.7986 31.5862 19.2151 30.9446 19.2884C30.8897 19.2951 30.8454 19.3388 30.8388 19.3944L30.84 19.3946ZM32.5721 17.5389L32.571 17.5374C33.3923 17.7275 34.1653 18.091 34.8356 18.6029C35.4502 19.0544 36.023 19.5591 36.5481 20.1123C36.9225 20.5139 37.2531 20.9552 37.5316 21.4301C37.5563 21.4691 37.6018 21.4913 37.6473 21.4859C37.6942 21.4794 37.7318 21.4466 37.7448 21.4011C38.221 19.7499 37.8828 17.9713 36.8361 16.6079C36.8194 16.5871 36.7965 16.572 36.7698 16.5656C36.5473 16.5117 36.3257 16.4605 36.1038 16.4119C34.9002 16.1544 33.4855 15.9393 32.4701 16.5698C32.3623 16.6347 32.1941 16.7174 32.2728 16.839C32.5524 17.2785 32.4059 17.4957 32.5694 17.5386L32.5721 17.5389Z" fill="white"/>
</g>
<defs>
<clipPath id="clip0_10970_1424">
<rect width="50" height="50" fill="white"/>
</clipPath>
</defs>
</svg>
