<svg width="74" height="74" viewBox="0 0 74 74" fill="none" xmlns="http://www.w3.org/2000/svg">
<path d="M37.0426 73.652C57.3664 73.652 73.8422 57.1763 73.8422 36.8524C73.8422 16.5285 57.3664 0.0527344 37.0426 0.0527344C16.7187 0.0527344 0.24292 16.5285 0.24292 36.8524C0.24292 57.1763 16.7187 73.652 37.0426 73.652Z" fill="#26E071"/>
<path d="M51.8315 22.9743C51.5144 23.3047 51.2659 23.6941 51.1 24.1203C50.6422 25.233 50.1508 26.251 49.6985 27.1078L49.5645 27.3581L38.4476 17.3442C38.0899 17.0275 37.628 16.8525 37.1494 16.8525C36.6709 16.8525 36.209 17.0275 35.8512 17.3442L19.6589 31.5695C19.3286 31.8616 19.1071 32.2561 19.0301 32.6893C18.953 33.1225 19.0251 33.5689 19.2345 33.9562C19.6314 34.6515 20.2511 35.1938 20.9942 35.4965C21.7373 35.7991 22.5608 35.8444 23.3329 35.6252V48.2594C23.3241 48.3853 23.3241 48.5118 23.3329 48.6377H21.1832V52.226H27.4926V36.4875H34.3939V52.2093H52.5238V48.621H50.0168C50.0534 48.4265 50.074 48.2292 50.0782 48.0313V35.4583C50.4967 35.5935 50.9337 35.6629 51.3736 35.6641C52.0219 35.671 52.66 35.5023 53.2195 35.176C53.7791 34.8497 54.2392 34.3781 54.5507 33.8116C54.7487 33.4314 54.815 32.9967 54.7393 32.5751C54.6635 32.1535 54.45 31.7686 54.1319 31.4805L50.2234 27.959C50.9809 26.2855 51.6117 24.5579 52.1106 22.7907C52.0269 22.8519 51.9375 22.9186 51.8315 22.9743ZM45.6895 43.7865H38.7715V36.3762H45.6672L45.6895 43.7865Z" fill="#076739"/>
</svg>
