<svg xmlns="http://www.w3.org/2000/svg" width="50" height="50" viewBox="0 0 50 50" fill="none">
<g clip-path="url(#clip0_9856_3326)">
<path d="M49.9995 24.9998C49.9995 11.1928 38.8067 -1.66897e-06 24.9998 -1.66897e-06C11.1928 -1.66897e-06 0 11.1928 0 24.9998C0 38.8067 11.1928 49.9995 24.9998 49.9995C38.8067 49.9995 49.9995 38.8067 49.9995 24.9998Z" fill="#2F4360"/>
<path d="M24.6953 11C23.5906 11 22.6953 11.8953 22.6953 13V15.6667H26.6953V13C26.6953 11.8953 25.8 11 24.6953 11ZM24.6953 13C25.064 13 25.362 13.2987 25.362 13.6667C25.362 14.0347 25.064 14.3333 24.6953 14.3333C24.3273 14.3333 24.0286 14.0347 24.0286 13.6667C24.0286 13.2987 24.3273 13 24.6953 13ZM16.6953 13.6667C15.5926 13.6667 14.6953 14.564 14.6953 15.6667V37C14.6953 38.1027 15.5926 39 16.6953 39H28.5911C31.2667 39 30.8298 39 33.5525 39C34.6953 39 34.6953 38.1429 34.6953 38.1429C34.6953 38.1429 34.6953 32.3333 34.6953 29.6667V15.6667C34.6953 14.564 33.798 13.6667 32.6953 13.6667H28.0286V16.3333C28.0286 16.7013 27.7306 17 27.362 17H22.0286C21.6606 17 21.362 16.7013 21.362 16.3333V13.6667H16.6953ZM24.6745 20.3333C25.3278 20.3333 25.832 20.5088 26.0286 20.8542C27.9373 21.1195 27.3463 23.6908 27.0703 24.5208C27.173 24.5828 27.3408 24.7743 27.2995 25.125C27.2208 25.7783 26.9695 25.9443 26.7995 25.9583C26.7341 26.5683 26.3488 27.2825 26.1328 27.3958C26.1328 27.8312 26.1116 28.1692 26.1536 28.6458C26.5888 29.8126 29.4404 29.7004 29.9453 31.6875C29.7454 31.8918 29.5554 32.1049 29.3828 32.3333H19.6536H19.362C19.362 32.23 19.3735 32.1363 19.3828 32.0417L19.362 32.0208C19.6193 29.6875 22.7588 29.8738 23.2161 28.6458C23.2181 28.6185 23.2378 28.5872 23.2578 28.5625C23.2918 28.1278 23.2786 27.8065 23.2786 27.3958C23.062 27.2825 22.6558 26.5683 22.5911 25.9583C22.4218 25.9443 22.149 25.7783 22.0703 25.125C22.0283 24.7743 22.1975 24.5828 22.2995 24.5208C21.7261 22.3135 22.0585 20.3813 24.6745 20.3333Z" fill="#AEBBCF"/>
</g>
<defs>
<clipPath id="clip0_9856_3326">
<rect width="50" height="50" fill="white"/>
</clipPath>
</defs>
</svg>