<svg width="50" height="50" viewBox="0 0 50 50" fill="none" xmlns="http://www.w3.org/2000/svg">
<g clip-path="url(#clip0_9856_3357)">
<path d="M50.1646 25.0142C50.1646 11.2072 38.9718 0.0144026 25.1648 0.0144026C11.3578 0.0144026 0.165039 11.2072 0.165039 25.0142C0.165039 38.8211 11.3578 50.0139 25.1648 50.0139C38.9718 50.0139 50.1646 38.8211 50.1646 25.0142Z" fill="#5D51A2"/>
<path fill-rule="evenodd" clip-rule="evenodd" d="M17.493 34.001V25.5877H21.278C22.8823 25.8748 24.4866 26.7453 26.0908 27.7548H29.0305C30.3613 27.8346 31.0586 29.1836 29.7643 30.0701C28.7343 30.8266 27.3738 30.7833 25.9792 30.658C25.0175 30.6101 24.9765 31.9022 25.9792 31.9068C26.3278 31.9341 26.7061 31.8521 27.0365 31.8521C28.7753 31.8498 30.2086 31.5171 31.086 30.143L31.5258 29.1152L35.8988 26.9481C38.0864 26.228 39.6428 28.5159 38.0295 30.1088C34.8619 32.4127 31.6146 34.3086 28.2922 35.84C25.8789 37.3075 23.4657 37.2574 21.0547 35.84L17.493 34.001ZM20.3597 14L36.6326 18.3593L34.3652 26.8205L18.0923 22.4612L20.3597 14ZM28.0324 17.9241C29.4088 18.2932 30.2246 19.7038 29.8554 21.0802C29.4863 22.4566 28.0757 23.2724 26.6993 22.9032C25.3229 22.5341 24.5071 21.1235 24.8763 19.7471C25.2431 18.3707 26.6537 17.5549 28.0324 17.9241ZM22.7342 16.0167L33.5539 18.9154C33.3693 19.6036 33.7795 20.3168 34.47 20.4991L33.5744 23.8444C32.8862 23.6598 32.173 24.07 31.9906 24.7605L21.1687 21.8618C21.3532 21.1736 20.9431 20.4627 20.2526 20.2781L21.1481 16.9328C21.8363 17.1174 22.5496 16.7072 22.7342 16.0167ZM10.6953 24.7787H16.3536V34.8464H10.6953V24.7787Z" fill="#110848"/>
</g>
<defs>
<clipPath id="clip0_9856_3357">
<rect width="50" height="50" fill="white"/>
</clipPath>
</defs>
</svg>
