<svg width="50" height="50" viewBox="0 0 50 50" fill="none" xmlns="http://www.w3.org/2000/svg">
<path d="M49.9995 25.0012C49.9995 11.1942 38.8067 0.00146317 24.9998 0.00146317C11.1928 0.00146317 0 11.1942 0 25.0012C0 38.8082 11.1928 50.001 24.9998 50.001C38.8067 50.001 49.9995 38.8082 49.9995 25.0012Z" fill="white"/>
<g clip-path="url(#clip0_10817_1168)">
<path d="M12 26.4373V24.7799C12 22.4101 12 20.0404 12 17.6706C12 16.354 12.812 15.5065 14.1441 15.4959C17.0462 15.4712 19.9483 15.4853 22.8504 15.4865C22.9555 15.4958 23.0598 15.5115 23.1628 15.5335C23.1628 16.682 23.2012 17.8281 23.1447 18.9707C23.1183 19.5231 22.5069 19.7218 21.9339 19.4044C21.3838 19.1011 20.8252 18.9765 20.2078 19.1493C19.9371 19.2261 19.6851 19.3557 19.467 19.5305C19.249 19.7052 19.0694 19.9215 18.9392 20.1661C18.809 20.4107 18.7309 20.6786 18.7095 20.9536C18.6881 21.2286 18.724 21.505 18.8149 21.7661C18.9058 22.0272 19.0499 22.2675 19.2384 22.4725C19.4269 22.6775 19.656 22.843 19.9117 22.9589C20.1675 23.0748 20.4446 23.1388 20.7263 23.1469C21.008 23.155 21.2885 23.1071 21.5507 23.0061C22.9922 22.4407 23.1964 22.5794 23.2 24.1099C23.2 24.8669 23.2 25.6251 23.2 26.4385C22.2066 26.4385 21.2913 26.4385 20.376 26.4385C19.3453 26.4385 19.009 27.0028 19.5015 27.8832C20.042 28.8471 19.8462 29.9603 19.021 30.6503C18.6284 30.9768 18.1309 31.1577 17.6157 31.1614C17.1005 31.165 16.6004 30.9912 16.203 30.6703C15.3526 29.992 15.1387 28.8918 15.6673 27.9138C16.1958 26.9358 15.8655 26.4409 14.7363 26.4373C13.839 26.435 12.9453 26.4373 12 26.4373Z" fill="#454545"/>
<path d="M35.5836 24.6856L33.1722 23.6444C32.4624 23.3388 32.4389 23.1709 33.0356 22.6727C33.2844 22.4708 33.4883 22.2192 33.6342 21.9339C33.7801 21.6486 33.8647 21.3359 33.8827 21.016C33.9007 20.6961 33.8516 20.3759 33.7386 20.0761C33.6256 19.7763 33.4512 19.5033 33.2265 19.2749C33.0019 19.0464 32.732 18.8674 32.4341 18.7493C32.1362 18.6312 31.8169 18.5767 31.4967 18.5893C31.1766 18.6018 30.8625 18.6812 30.5748 18.8222C30.2871 18.9632 30.032 19.1628 29.826 19.4082C29.6173 19.6484 29.4623 19.9303 29.3712 20.2351C29.2801 20.5399 29.255 20.8606 29.2975 21.1759C29.3569 21.7222 29.1565 21.8767 28.6572 21.6663C27.8019 21.3069 26.9555 20.9251 26.0611 20.5344C26.426 19.6937 26.7753 18.8966 27.1179 18.0973C27.4324 17.3618 27.353 17.2498 26.5581 17.28C25.1699 17.3338 24.0862 16.3016 24.1098 14.9503C24.1175 14.642 24.1876 14.3384 24.3157 14.0578C24.4439 13.7773 24.6275 13.5256 24.8555 13.3178C25.0835 13.1101 25.3512 12.9507 25.6425 12.8491C25.9338 12.7476 26.2425 12.7061 26.5503 12.727C26.8771 12.7459 27.1958 12.8358 27.4843 12.9905C27.7727 13.1451 28.024 13.3609 28.2206 13.6226C28.6314 14.1409 28.8464 14.1129 29.1162 13.5107C29.4811 12.6945 29.8349 11.8751 30.22 10.9951C31.1403 11.3914 32.0403 11.7788 32.9382 12.165C34.4764 12.8367 36.0135 13.5084 37.5494 14.1801C38.9466 14.788 39.4201 15.9433 38.819 17.3282C37.8196 19.6366 36.8121 21.9424 35.7963 24.2456C35.7381 24.3811 35.6687 24.5098 35.5836 24.6856Z" fill="#85898C"/>
<path d="M35.5198 28.0641C35.5198 29.1734 35.5198 30.1876 35.5198 31.2017C35.5198 33.0409 35.5198 34.8812 35.5198 36.725C35.5138 38.1963 34.6758 39.0013 33.1566 39.0013H24.3198V36.1033C26.0862 36.8978 27.6163 36.6827 28.7063 35.0222C29.4116 33.9457 29.25 32.5649 28.3928 31.579C27.4402 30.4825 26.1441 30.2722 24.3343 30.9503V28.0641C25.2808 28.0641 26.2345 28.0582 27.1882 28.0641C27.6886 28.0641 28.0986 27.8913 28.1745 27.3989C28.2155 27.1275 28.054 26.8055 27.9334 26.5316C27.5307 25.6691 27.5801 24.8594 28.1842 24.1085C28.4645 23.771 28.8442 23.5255 29.2722 23.4049C29.7001 23.2843 30.1557 23.2944 30.5775 23.4339C31.4758 23.7359 32.0341 24.374 32.0871 25.2919C32.0929 25.7568 31.9863 26.2165 31.776 26.6339C31.3625 27.5035 31.6711 28.0523 32.6647 28.0605C33.5834 28.0699 34.5046 28.0641 35.5198 28.0641Z" fill="#454545"/>
<path d="M12 27.8008C12.8789 27.8008 13.679 27.8008 14.4792 27.8008C14.6096 27.8008 14.74 27.8212 14.8775 27.8321C14.2183 29.8617 14.4792 31.1569 15.7141 32.0537C16.2398 32.4491 16.8777 32.6567 17.5297 32.6447C18.1818 32.6328 18.812 32.4019 19.3236 31.9875C20.4985 31.0546 20.7335 29.7557 20.052 27.8321H22.9319C22.9319 28.7433 22.9166 29.6378 22.9413 30.5322C22.9495 30.8211 22.9859 31.1617 23.141 31.382C23.5053 31.8997 23.9576 31.7432 24.4335 31.4723C24.8932 31.2004 25.4344 31.111 25.9541 31.2212C26.4739 31.3313 26.9361 31.6334 27.2527 32.0698C27.5694 32.5063 27.7184 33.0467 27.6715 33.5884C27.6247 34.1301 27.3851 34.6353 26.9984 35.0078C26.317 35.6868 25.3182 35.818 24.4441 35.3437C23.4677 34.8128 22.9366 35.1499 22.9342 36.3067C22.9342 37.1831 22.9342 38.0594 22.9342 38.9671C22.6992 38.9815 22.5242 39.0008 22.3526 39.0008C19.651 39.0008 16.9486 39.0008 14.2454 39.0008C12.8119 39.0008 12 38.1485 12.0012 36.6751C12.0012 33.9866 12.0012 31.2982 12.0012 28.6097L12 27.8008Z" fill="#454545"/>
</g>
<defs>
<clipPath id="clip0_10817_1168">
<rect width="27.0697" height="28" fill="white" transform="translate(12 11.001)"/>
</clipPath>
</defs>
</svg>
