<svg width="50" height="51" viewBox="0 0 50 51" fill="none" xmlns="http://www.w3.org/2000/svg">
<g clip-path="url(#clip0_10751_1201)">
<path d="M49.9995 26.0002C49.9995 12.1933 38.8067 1.00049 24.9998 1.00049C11.1928 1.00049 0 12.1933 0 26.0002C0 39.8072 11.1928 51 24.9998 51C38.8067 51 49.9995 39.8072 49.9995 26.0002Z" fill="#1B7D93"/>
<path d="M39.9062 22.8026C39.9061 23.3175 39.7305 23.8172 39.4078 24.2207C39.0851 24.6243 38.6344 24.9079 38.1287 25.0257C37.623 25.1435 37.0919 25.0885 36.6217 24.8696C36.1515 24.6507 35.7697 24.2808 35.5382 23.8199L29.592 24.8014C29.592 24.8207 29.592 24.8399 29.592 24.8595C29.5914 25.901 29.2179 26.9084 28.5378 27.7023L32.3313 32.0198C33.0266 31.6371 33.8402 31.5231 34.6152 31.6997C35.3903 31.8763 36.072 32.331 36.5289 32.9761C36.9858 33.6213 37.1856 34.4112 37.0898 35.1937C36.994 35.9762 36.6094 36.6958 36.01 37.2139C35.4106 37.732 34.639 38.0119 33.8438 37.9996C33.0487 37.9873 32.2862 37.6837 31.7035 37.1473C31.1207 36.611 30.7589 35.8798 30.6877 35.0947C30.6166 34.3096 30.8412 33.5263 31.3182 32.8955L27.5259 28.5799C26.8291 29.0187 26.0224 29.2559 25.1969 29.2647C24.3713 29.2735 23.5597 29.0536 22.8535 28.6298L22.2203 29.3827C22.7102 30.0019 22.9516 30.779 22.8979 31.5641C22.8441 32.3492 22.4991 33.0868 21.9293 33.6348C21.3596 34.1829 20.6053 34.5025 19.8119 34.5321C19.0185 34.5617 18.2421 34.2992 17.6324 33.7952C17.0226 33.2912 16.6226 32.5814 16.5095 31.8025C16.3963 31.0236 16.5781 30.2307 17.0196 29.5767C17.4612 28.9227 18.1313 28.4538 18.9009 28.2604C19.6705 28.067 20.4851 28.1628 21.1877 28.5292L21.8209 27.7763C21.2056 27.0857 20.8235 26.2217 20.7279 25.3052L15.6582 25.0502C15.4686 25.5899 15.0889 26.0437 14.589 26.3283C14.089 26.6129 13.5023 26.7093 12.9364 26.5997C12.3705 26.4902 11.8635 26.182 11.5084 25.7318C11.1533 25.2816 10.9739 24.7196 11.0031 24.1489C11.0323 23.5782 11.2682 23.037 11.6675 22.6248C12.0668 22.2126 12.6027 21.9569 13.1768 21.9047C13.751 21.8524 14.3249 22.0072 14.7932 22.3405C15.2615 22.6739 15.5928 23.1634 15.7264 23.7193L20.7954 23.9743C20.933 23.3089 21.224 22.684 21.6457 22.1486C22.0674 21.6132 22.6084 21.1818 23.2263 20.888C23.8441 20.5942 24.5222 20.4461 25.2075 20.4553C25.8927 20.4644 26.5665 20.6305 27.1762 20.9407L30.1734 16.829C29.82 16.3777 29.6427 15.8153 29.6739 15.2449C29.7052 14.6746 29.9429 14.1345 30.3435 13.7238C30.744 13.3131 31.2806 13.0594 31.8547 13.0092C32.4288 12.959 33.0019 13.1156 33.4688 13.4504C33.9358 13.7852 34.2653 14.2757 34.3968 14.8318C34.5284 15.388 34.4532 15.9725 34.185 16.4781C33.9168 16.9837 33.4737 17.3765 32.9369 17.5844C32.4001 17.7923 31.8057 17.8014 31.2627 17.61L28.2643 21.7226C28.769 22.2152 29.148 22.8199 29.3699 23.4867L35.3146 22.5055C35.391 21.9304 35.6853 21.4056 36.1377 21.0377C36.5901 20.6697 37.1668 20.4861 37.7508 20.524C38.3347 20.562 38.8823 20.8187 39.2824 21.2421C39.6824 21.6654 39.905 22.2237 39.905 22.8038L39.9062 22.8026Z" fill="#B4F1FF"/>
</g>
<defs>
<clipPath id="clip0_10751_1201">
<rect width="50" height="50" fill="white" transform="translate(0 0.5)"/>
</clipPath>
</defs>
</svg>
