<svg width="51" height="50" viewBox="0 0 51 50" fill="none" xmlns="http://www.w3.org/2000/svg">
<g clip-path="url(#clip0_10917_3037)">
<path d="M53 26.1362C53 10.7545 40.5278 -1.71196 25.1426 -1.70842C9.75735 -1.70487 -2.71485 10.7673 -2.71484 26.149C-2.71484 41.5307 9.75735 53.9971 25.1426 53.9936C40.5278 53.99 53 41.5178 53 26.1362Z" fill="#0FB063"/>
<path d="M25.2769 12.9077L39.3526 21.5856H11.2012L25.2769 12.9077Z" fill="#0A502E"/>
<path d="M39.5536 35.55C39.5536 36.9465 38.4477 38.0437 37.0401 38.0437H13.5135C12.106 38.0437 11 36.9465 11 35.55V22.1841C11 21.9846 11 21.8849 11 21.7852L24.4725 30.064C24.4725 30.064 24.4725 30.064 24.573 30.064C24.573 30.064 24.573 30.064 24.6736 30.064C24.7741 30.064 24.8747 30.1638 24.9752 30.1638C25.0757 30.1638 25.1763 30.1638 25.2768 30.1638C25.3774 30.1638 25.4779 30.1638 25.5784 30.1638C25.679 30.1638 25.7795 30.064 25.8801 30.064C25.8801 30.064 25.8801 30.064 25.9806 30.064C25.9806 30.064 25.9806 30.064 26.0811 30.064L39.5536 21.7852C39.5536 21.8849 39.5536 22.0844 39.5536 22.1841V35.55Z" fill="#0A502E"/>
<ellipse cx="40.4506" cy="15.2851" rx="9.8578" ry="9.85054" fill="#FFF6F6"/>
<g clip-path="url(#clip1_10917_3037)">
<path d="M40.6593 15.3579V16.2736H39.5312V15.3579H40.6593Z" fill="#0A502E"/>
<path d="M43.9429 11.6773C43.9429 13.8124 42.2307 15.5611 40.0955 15.5611C37.9804 15.5611 36.248 13.8327 36.248 11.6773C36.248 9.52187 37.9804 7.79346 40.0955 7.79346C42.2106 7.79346 43.9429 9.52187 43.9429 11.6773Z" fill="#0FB063"/>
<path d="M40.2562 22.7391C42.4116 22.7391 44.3252 21.4987 45.5338 19.6077V18.9773C45.5338 17.0659 43.9223 15.5002 42.331 15.1748L40.095 21.2954L37.8591 15.1748C36.2677 15.5002 34.6562 17.0659 34.6562 18.9773V19.0586C35.8447 21.2547 37.8994 22.7391 40.2562 22.7391Z" fill="#0FB063"/>
<path d="M40.5179 16.0493H40.0949H39.6719L38.6445 21.3362L40.0949 22.5563L41.5452 21.3362L40.5179 16.0493Z" fill="#0A502E"/>
</g>
</g>
<defs>
<clipPath id="clip0_10917_3037">
<rect width="50.0368" height="50" rx="25" fill="white"/>
</clipPath>
<clipPath id="clip1_10917_3037">
<rect width="10.8776" height="14.9457" fill="white" transform="translate(34.6562 7.79346)"/>
</clipPath>
</defs>
</svg>
