<svg xmlns="http://www.w3.org/2000/svg" width="30" height="30" viewBox="0 0 30 30" fill="none">
<ellipse cx="15" cy="14.9889" rx="15" ry="14.989" transform="rotate(180 15 14.9889)" fill="#0FB063"/>
<path d="M9.3125 24.6982V5.15051H17.0247C18.5073 5.15051 19.7704 5.43367 20.814 6C21.8575 6.55996 22.6529 7.33945 23.2001 8.33847C23.7537 9.33112 24.0305 10.4765 24.0305 11.7746C24.0305 13.0727 23.7506 14.218 23.1906 15.2107C22.6306 16.2034 21.8193 16.9765 20.7567 17.5301C19.7004 18.0837 18.4214 18.3605 16.9197 18.3605H12.0041V15.0484H16.2515C17.0469 15.0484 17.7024 14.9116 18.2178 14.638C18.7396 14.358 19.1277 13.9731 19.3822 13.4831C19.6431 12.9868 19.7736 12.4173 19.7736 11.7746C19.7736 11.1255 19.6431 10.5592 19.3822 10.0756C19.1277 9.58565 18.7396 9.20704 18.2178 8.93979C17.696 8.66617 17.0342 8.52936 16.2325 8.52936H13.4454V24.6982H9.3125Z" fill="white"/>
</svg>