<svg width="50" height="50" viewBox="0 0 50 50" fill="none" xmlns="http://www.w3.org/2000/svg">
<path d="M49.9995 25.0002C49.9995 11.1933 38.8067 0.000478983 24.9998 0.000478983C11.1928 0.000478983 0 11.1933 0 25.0002C0 38.8072 11.1928 50 24.9998 50C38.8067 50 49.9995 38.8072 49.9995 25.0002Z" fill="#F81969"/>
<path d="M23.6074 32.7231C19.767 35.5322 14.1172 32.6415 14.1815 27.8549C14.1381 22.9754 19.9194 20.1057 23.7604 23.1085C24.4618 23.6396 25.0364 24.3199 25.4429 25.1001C25.8493 25.8804 26.0774 26.7412 26.1106 27.6204C26.7522 28.7373 27.8037 29.5602 29.0421 29.9145C29.2197 29.2428 29.3038 28.5497 29.2919 27.8549C29.2895 26.5513 29.0101 25.2631 28.4722 24.0757C27.9343 22.8883 27.1502 21.8287 26.1718 20.9673C20.3604 15.8166 10.9492 20.0731 11.0002 27.8544C10.9696 35.8177 20.6913 39.9951 26.4216 34.5075C25.3898 34.0752 24.4384 33.472 23.6074 32.7231Z" fill="#5C0725"/>
<path d="M24.1421 18.5049C25.1688 18.9401 26.115 19.5451 26.941 20.2943C27.9513 19.5738 29.1616 19.187 30.4026 19.188C38.3124 19.5148 38.3165 30.7945 30.4026 31.1223C28.8605 31.1235 27.3779 30.5274 26.2658 29.4591C25.1537 28.3908 24.4985 26.9333 24.4378 25.3925C23.7953 24.2682 22.7374 23.4409 21.4915 23.0881C20.9571 25.4316 21.3631 27.8911 22.6222 29.9386C23.8813 31.986 25.8932 33.458 28.2257 34.0384C33.8678 35.5036 39.6267 30.9938 39.5492 25.1579C39.5936 17.1385 29.8229 13.035 24.1421 18.5049Z" fill="white"/>
<path d="M27.7464 15.3388C29.4861 14.8694 31.319 14.8694 33.0587 15.3388L33.7571 14.5384C33.8341 14.4502 33.8783 14.3381 33.882 14.2211C33.8857 14.1041 33.8488 13.9894 33.7775 13.8965L32.503 12.2039C32.4555 12.1406 32.3939 12.0892 32.3231 12.0538C32.2523 12.0184 32.1743 12 32.0951 12H28.7049C28.6258 12.0005 28.5479 12.0192 28.4772 12.0546C28.4065 12.0899 28.3449 12.141 28.297 12.2039L27.0276 13.8965C26.9563 13.9894 26.9194 14.1041 26.9231 14.2211C26.9268 14.3381 26.9709 14.4502 27.048 14.5384L27.7464 15.3388Z" fill="white"/>
</svg>
