<svg xmlns="http://www.w3.org/2000/svg" width="31" height="30" viewBox="0 0 31 30" fill="none">
<ellipse cx="15.0124" cy="15" rx="15.0111" ry="15" transform="rotate(180 15.0124 15)" fill="#F3DB00"/>
<path d="M18.6946 10.4388C18.6274 9.76149 18.3392 9.23534 17.8298 8.86031C17.3205 8.48529 16.6292 8.29778 15.756 8.29778C15.1627 8.29778 14.6617 8.38174 14.2531 8.54966C13.8445 8.71198 13.5311 8.93868 13.3128 9.22974C13.1001 9.5208 12.9937 9.85104 12.9937 10.2205C12.9825 10.5283 13.0469 10.797 13.1868 11.0265C13.3324 11.256 13.5311 11.4547 13.7829 11.6226C14.0348 11.7849 14.3259 11.9277 14.6561 12.0508C14.9864 12.1683 15.339 12.2691 15.714 12.3531L17.2589 12.7225C18.0089 12.8904 18.6974 13.1143 19.3243 13.3942C19.9512 13.674 20.4942 14.0183 20.9531 14.4269C21.4121 14.8355 21.7676 15.3168 22.0194 15.871C22.2769 16.4251 22.4084 17.0604 22.414 17.7769C22.4084 18.8292 22.1398 19.7415 21.608 20.514C21.0819 21.2808 20.3206 21.8769 19.3243 22.3023C18.3336 22.7221 17.1385 22.932 15.7392 22.932C14.3511 22.932 13.142 22.7193 12.1121 22.2939C11.0878 21.8685 10.2874 21.2388 9.71087 20.4048C9.13994 19.5652 8.84049 18.5269 8.8125 17.2899H12.3304C12.3696 17.8664 12.5347 18.3478 12.8258 18.734C13.1225 19.1146 13.5171 19.4029 14.0096 19.5988C14.5078 19.7891 15.0703 19.8843 15.6972 19.8843C16.3129 19.8843 16.8475 19.7947 17.3009 19.6156C17.7599 19.4365 18.1153 19.1874 18.3672 18.8684C18.619 18.5493 18.745 18.1827 18.745 17.7685C18.745 17.3823 18.6302 17.0576 18.4007 16.7945C18.1769 16.5315 17.8466 16.3076 17.41 16.1229C16.979 15.9382 16.4501 15.7702 15.8232 15.6191L13.9509 15.1489C12.5011 14.7963 11.3565 14.245 10.5169 13.4949C9.67729 12.7449 9.26029 11.7345 9.26588 10.464C9.26029 9.42285 9.53736 8.51328 10.0971 7.73525C10.6624 6.95722 11.4377 6.34991 12.4228 5.91331C13.4079 5.47672 14.5274 5.25842 15.7812 5.25842C17.0574 5.25842 18.1713 5.47672 19.1228 5.91331C20.08 6.34991 20.8244 6.95722 21.3561 7.73525C21.8879 8.51328 22.1622 9.41445 22.179 10.4388H18.6946Z" fill="white"/>
</svg>