<svg width="23" height="22" viewBox="0 0 23 22" fill="none" xmlns="http://www.w3.org/2000/svg">
<g id="personal_icon">
<path id="Vector" d="M1.36162 16.1197C1.39443 15.4791 1.70703 15.0149 1.91929 14.5201C2.2647 13.7183 2.0891 13.093 1.3732 12.602C1.29409 12.5483 1.21498 12.4927 1.13779 12.4351C-0.373118 11.2958 -0.376978 10.8297 1.11271 9.71152C2.30715 8.81388 2.36118 8.59714 1.72826 7.2315C1.00079 5.66829 1.30181 5.14467 3.00568 4.9778C4.5494 4.83394 4.66711 4.70544 4.86779 3.12881C4.91081 2.78009 4.9831 2.43555 5.08391 2.09882C5.24986 1.55217 5.62614 1.31434 6.19345 1.50039C6.68397 1.65342 7.16579 1.83269 7.63682 2.03744C8.40868 2.3846 8.96827 2.17554 9.46805 1.5119C10.9828 -0.503965 11.0272 -0.503965 12.5555 1.5119C13.0572 2.17554 13.6245 2.38844 14.3886 2.02593C14.5816 1.93003 14.8016 1.84947 15.01 1.767C16.5537 1.16281 16.9203 1.38339 17.1461 3.03482C17.3834 4.76106 17.3834 4.76106 19.2127 4.98739C20.6696 5.16385 20.9784 5.71816 20.3705 7.06079C19.6238 8.71222 19.6353 8.75826 21.1424 9.88415C22.3156 10.7588 22.3117 11.4186 21.1424 12.2606C19.7087 13.2829 19.6546 13.4786 20.3705 15.1089C20.961 16.4515 20.7237 16.8562 19.2301 17.073C17.177 17.3703 17.3159 17.5064 17.0921 19.131C16.8566 20.8208 16.573 20.9436 14.9367 20.301C13.4238 19.7064 13.2656 19.7486 12.2699 21.028C11.2742 22.3073 10.7764 22.3361 9.76136 21.0414C8.74637 19.7467 8.60357 19.6988 7.01162 20.3298C5.50457 20.9244 5.03374 20.7383 4.92375 19.1521C4.78481 17.1152 4.20785 17.3223 2.71624 17.0634C2.08717 16.9617 1.37899 16.9502 1.36162 16.1197ZM16.5016 8.89444C16.1768 8.41201 15.7645 7.9938 15.2859 7.66114C14.8788 7.39453 14.6395 7.78389 14.4021 8.01789C13.144 9.25311 11.882 10.4807 10.6586 11.7466C10.1338 12.2894 9.72469 12.2855 9.22491 11.7466C8.68654 11.1539 8.07872 10.6264 7.53263 10.0433C6.83217 9.29339 6.49641 10.005 6.06224 10.3675C5.62807 10.73 5.41002 11.0887 5.96189 11.6046C7.11968 12.6998 8.25238 13.8411 9.37157 14.9861C9.7575 15.3832 10.0508 15.4599 10.4811 15.0264C12.3278 13.1582 14.2015 11.3169 16.0597 9.4641C16.218 9.28288 16.3655 9.09268 16.5016 8.89444Z" fill="white"/>
</g>
</svg>
