<svg width="50" height="51" viewBox="0 0 50 51" fill="none" xmlns="http://www.w3.org/2000/svg">
<path d="M49.8113 25.566C49.9155 11.8631 38.8916 0.670256 25.1887 0.56605C11.4858 0.461843 0.292888 11.4858 0.188682 25.1887C0.0844758 38.8916 11.1084 50.0845 24.8113 50.1887C38.5142 50.2929 49.7071 39.269 49.8113 25.566Z" fill="#46FF9B"/>
<path d="M10.0255 32.0079L12.729 29.3043C12.8554 29.1806 12.9954 29.4008 13.0729 29.4756H13.0838L21.696 38.0878V38.0892C21.7422 38.1422 21.7422 38.2197 21.696 38.2727L18.9938 40.964V40.9762C18.9367 41.0116 18.862 41.0075 18.8103 40.964L10.0255 32.1806C9.9915 32.1276 9.99147 32.0595 10.0255 32.0079ZM30.08 29.042H26.0947C25.468 29.0325 24.9651 28.5227 24.9651 27.8961C24.9651 27.2708 25.468 26.7598 26.0947 26.7516H30.08C30.5598 26.7231 30.9798 26.4186 31.1565 25.9714C31.3332 25.5242 31.2353 25.0158 30.905 24.6665C30.674 24.4368 30.36 24.309 30.0338 24.3118C28.4217 24.2166 23.2877 24.5877 22.1432 23.9801C21.3045 23.6362 20.3436 23.8306 19.7034 24.4722L15.5114 28.6641L22.3267 35.4903L23.3461 34.4708C24.7543 32.9824 26.7932 33.0626 28.5914 33.1428C30.092 33.1999 31.386 33.257 32.0955 32.5012L40.1016 24.4952L39.2996 23.7054V23.7041C38.3549 22.7648 36.8298 22.7648 35.8865 23.7041L33.4929 26.0977C33.2156 27.775 31.779 29.0148 30.08 29.042ZM29.4914 12.3367C28.8091 11.5306 27.8195 11.0481 26.7648 11.0046C25.7086 10.9611 24.6837 11.3607 23.9361 12.1083C23.1899 12.8546 22.7889 13.8808 22.8324 14.9356C22.8759 15.9917 23.3598 16.9799 24.1658 17.6636L29.4915 23.0014L34.8294 17.6636C35.634 16.9785 36.1152 15.9876 36.1573 14.9328C36.1981 13.8767 35.7971 12.8518 35.0496 12.1056C34.3006 11.358 33.2757 10.9597 32.2196 11.0032C31.1634 11.0467 30.1751 11.5306 29.4914 12.3367Z" fill="#013E21"/>
</svg>
