<svg width="51" height="50" viewBox="0 0 51 50" fill="none" xmlns="http://www.w3.org/2000/svg">
<g clip-path="url(#clip0_10917_3069)">
<path d="M53 26.1362C53 10.7545 40.5278 -1.71196 25.1426 -1.70842C9.75735 -1.70487 -2.71485 10.7673 -2.71484 26.149C-2.71484 41.5307 9.75735 53.9971 25.1426 53.9936C40.5278 53.99 53 41.5178 53 26.1362Z" fill="#9C9C9C"/>
<path d="M25.2769 12.9077L39.3526 21.5856H11.2012L25.2769 12.9077Z" fill="#202020"/>
<path d="M39.5536 35.55C39.5536 36.9465 38.4477 38.0437 37.0401 38.0437H13.5135C12.106 38.0437 11 36.9465 11 35.55V22.1841C11 21.9846 11 21.8849 11 21.7852L24.4725 30.064C24.4725 30.064 24.4725 30.064 24.573 30.064C24.573 30.064 24.573 30.064 24.6736 30.064C24.7741 30.064 24.8747 30.1638 24.9752 30.1638C25.0757 30.1638 25.1763 30.1638 25.2768 30.1638C25.3774 30.1638 25.4779 30.1638 25.5784 30.1638C25.679 30.1638 25.7795 30.064 25.8801 30.064C25.8801 30.064 25.8801 30.064 25.9806 30.064C25.9806 30.064 25.9806 30.064 26.0811 30.064L39.5536 21.7852C39.5536 21.8849 39.5536 22.0844 39.5536 22.1841V35.55Z" fill="#202020"/>
<ellipse cx="40.4506" cy="15.2851" rx="9.8578" ry="9.85054" fill="#FFF6F6"/>
<g clip-path="url(#clip1_10917_3069)">
<path d="M42.6109 12.9609H38.4453V14.8833H42.6109V12.9609Z" fill="white"/>
<path d="M42.6109 11.1802V12.536H42.1982V11.6051H38.8579V12.536H38.4453V11.1802H42.6109Z" fill="white"/>
<path d="M38.0322 10.7554V12.5361H38.8575V11.6053H42.1978V12.5159H43.023V10.7554H38.0322ZM42.1978 12.9611V14.4383H38.8575V12.9611H38.0322V15.3084H43.023V12.9611H42.1978Z" fill="#202020"/>
<path d="M41.1955 15.895H39.8594V17.1294H41.1955V15.895Z" fill="#202020"/>
<path d="M45.6362 15.1669V20.2663H35.4385V14.9038L39.4468 16.4417V17.5547H41.6082V16.5024L45.6362 15.1669Z" fill="#202020"/>
<path d="M45.6362 12.9609V14.7215L41.6082 16.057V15.4702H39.4468V15.9963L35.4385 14.4584V12.9609H45.6362Z" fill="#202020"/>
<path d="M41.1955 15.895V16.4215L40.5274 16.6443L39.8594 16.381V15.895H41.1955Z" fill="#202020"/>
<path d="M45.6362 12.9609V14.7215L41.6082 16.057V15.4702H39.4468V15.9963L35.4385 14.4584V12.9609H45.6362Z" fill="#202020"/>
<path d="M40.5274 16.4215L39.8594 16.1582V16.6037L40.5274 16.867L41.2151 16.6442V16.1987L40.5274 16.4215Z" fill="white"/>
<path d="M41.1955 15.8955H39.8594V17.1299H41.1955V15.8955Z" fill="#202020"/>
</g>
</g>
<defs>
<clipPath id="clip0_10917_3069">
<rect width="50.0368" height="50" rx="25" fill="white"/>
</clipPath>
<clipPath id="clip1_10917_3069">
<rect width="10.1977" height="9.51087" fill="white" transform="translate(35.4385 10.7554)"/>
</clipPath>
</defs>
</svg>
