<svg id="Layer_1" data-name="Layer 1" xmlns="http://www.w3.org/2000/svg" viewBox="0 0 36 34"><defs><style>.cls-1{fill:#fff;}.cls-2{fill:none;}</style></defs><path class="cls-1" d="M35.65,6.25a5.73,5.73,0,0,0-1.72-4.16A5.59,5.59,0,0,0,29.8.47c-2.73.09-5.51.07-8.21.05L18.05.5H14.47C11.6.5,8.72.5,5.85.52A5.37,5.37,0,0,0,.49,5.78c0,6,0,11.9,0,16.88a5.48,5.48,0,0,0,3.62,5A7.69,7.69,0,0,0,7,28H8v1.33c0,.64,0,1.29,0,1.94a2.39,2.39,0,0,0,.87,1.85,2.07,2.07,0,0,0,1.3.42,3.26,3.26,0,0,0,.61-.07A3.28,3.28,0,0,0,12,32.84l.87-.64q2.61-1.92,5.22-3.87A1.63,1.63,0,0,1,19.13,28H29.79a5.49,5.49,0,0,0,5.83-5.75c0-1.65,0-3.3,0-4.95C35.6,13.65,35.58,9.92,35.65,6.25ZM26.93,18.56c-.22,1.05-.75,1.45-1.49,1.44-2.49,0-5,0-7.47,0h-7.3C9.6,20,9,19.32,9,18.06s.58-2,1.67-2Q18,16,25.36,16C26.54,16,27.23,17.14,26.93,18.56Zm0-7c-.22,1-.75,1.45-1.49,1.44-2.49,0-5,0-7.47,0h-7.3C9.6,13,9,12.32,9,11.06S9.58,9,10.67,9H25.36C26.54,9,27.23,10.14,26.93,11.56Z"/><path class="cls-2" d="M26.93,11.56c-.22,1-.75,1.45-1.49,1.44-2.49,0-5,0-7.47,0h-7.3C9.6,13,9,12.32,9,11.06S9.58,9,10.67,9H25.36C26.54,9,27.23,10.14,26.93,11.56Z"/><path class="cls-2" d="M26.93,18.56c-.22,1.05-.75,1.45-1.49,1.44-2.49,0-5,0-7.47,0h-7.3C9.6,20,9,19.32,9,18.06s.58-2,1.67-2Q18,16,25.36,16C26.54,16,27.23,17.14,26.93,18.56Z"/></svg>