<svg width="36" height="34" viewBox="0 0 36 34" fill="none" xmlns="http://www.w3.org/2000/svg">
<path d="M18.0423 1.03289C21.9658 1.03289 25.8921 1.12523 29.8129 1.00257C32.935 0.906098 35.1622 3.53848 35.1093 6.23977C35.0103 11.5638 35.0842 16.892 35.08 22.2174C35.08 25.3487 32.9628 27.4325 29.7836 27.4366C26.2308 27.4366 22.6753 27.4449 19.1267 27.4297C18.6176 27.4223 18.1219 27.5915 17.7259 27.908C15.7133 29.424 13.6839 30.9111 11.6532 32.4065C11.3563 32.6256 11.0622 32.853 10.6873 32.9371C9.4872 33.2058 8.61608 32.5346 8.55336 31.2364C8.51015 30.3199 8.54081 29.4006 8.53942 28.4799C8.53942 27.449 8.53942 27.4573 7.51916 27.4449C6.4334 27.4325 5.34903 27.5221 4.28696 27.1252C2.42625 26.4361 1.0227 24.6306 1.01434 22.6584C0.990641 17.0339 0.979491 11.4081 1.01434 5.78496C1.03245 3.18704 3.22489 1.06873 5.8494 1.05081C9.91231 1.02187 13.9752 1.04254 18.0381 1.04254L18.0423 1.03289ZM18.0214 3.46681C14.0965 3.46681 10.1702 3.45854 6.24524 3.46681C4.67304 3.46681 3.56916 4.56938 3.56637 6.11022C3.55801 11.4852 3.55801 16.8603 3.56637 22.2353C3.56637 23.9194 4.55178 24.887 6.24803 24.9021C7.61812 24.9131 8.98962 24.9187 10.3597 24.9021C10.8921 24.8938 11.1165 25.084 11.104 25.6257C11.0803 26.7282 11.0942 27.8308 11.104 28.9334C11.104 29.107 11.0232 29.3468 11.2183 29.4364C11.4134 29.526 11.5458 29.3179 11.6866 29.2159C13.4205 27.9438 15.1599 26.6772 16.8785 25.3845C17.2968 25.0568 17.8183 24.8851 18.3517 24.8994C22.115 24.9159 25.8782 24.9104 29.6414 24.9062C31.5927 24.9062 32.5433 23.9677 32.5447 22.0313C32.5447 16.818 32.5447 11.6042 32.5447 6.39C32.5447 4.43432 31.5691 3.46819 29.5913 3.46681C25.7351 3.46589 21.8785 3.46681 18.0214 3.46957V3.46681Z" fill="white" stroke="white" stroke-width="1.06651"/>
<path d="M18.556 18.6162C16.3978 18.6162 14.234 18.6162 12.08 18.6162C11.3746 18.6162 10.8573 18.3529 10.6412 17.6622C10.5872 17.484 10.5756 17.2958 10.6074 17.1124C10.6392 16.9291 10.7135 16.7554 10.8245 16.6052C10.9355 16.455 11.0802 16.3322 11.2472 16.2465C11.4143 16.1608 11.5991 16.1146 11.7872 16.1113C16.2904 16.0801 20.7936 16.0801 25.2968 16.1113C26.0943 16.1113 26.5585 16.6848 26.5278 17.4113C26.5 18.1006 25.9702 18.6024 25.1727 18.6093C22.9671 18.6286 20.7615 18.6093 18.556 18.6093V18.6162Z" fill="white" stroke="white" stroke-width="1.06651"/>
<path d="M18.5403 12.3016C16.3835 12.3016 14.2253 12.3016 12.0685 12.3016C11.1247 12.3016 10.6158 11.888 10.5907 11.1215C10.5656 10.355 11.1051 9.86839 12.0727 9.86839C16.4095 9.86288 20.7472 9.86288 25.0859 9.86839C26.1329 9.86839 26.7408 10.5577 26.4801 11.429C26.2863 12.0686 25.8165 12.3099 25.1542 12.3057C22.9473 12.2933 20.7445 12.3016 18.5403 12.3016Z" fill="white" stroke="white" stroke-width="1.06651"/>
</svg>
