<svg width="32" height="33" viewBox="0 0 32 33" fill="none" xmlns="http://www.w3.org/2000/svg">
<path fill-rule="evenodd" clip-rule="evenodd" d="M15.8959 0.336182C12.774 0.336182 9.72219 1.27444 7.12644 3.0323C4.53069 4.79016 2.50755 7.28868 1.31286 10.2119C0.118166 13.1351 -0.19442 16.3518 0.414629 19.455C1.02368 22.5583 2.52701 25.4088 4.73451 27.6462C6.94202 29.8835 9.75455 31.4072 12.8164 32.0244C15.8783 32.6417 19.0521 32.3249 21.9363 31.1141C24.8206 29.9032 27.2858 27.8527 29.0202 25.2219C30.7546 22.5911 31.6804 19.4981 31.6804 16.334C31.6804 14.2331 31.2721 12.1528 30.4788 10.2119C29.6856 8.27096 28.5229 6.50737 27.0572 5.02184C25.5915 3.5363 23.8514 2.35791 21.9363 1.55394C20.0213 0.749978 17.9687 0.336182 15.8959 0.336182ZM15.38 6.73546C13.9148 6.73546 12.5096 7.32538 11.4736 8.37544C10.4375 9.4255 9.85547 10.8497 9.85547 12.3347C9.85547 12.759 10.0218 13.1659 10.3178 13.4659C10.6138 13.7659 11.0153 13.9345 11.4339 13.9345C11.8526 13.9345 12.254 13.7659 12.5501 13.4659C12.8461 13.1659 13.0124 12.759 13.0124 12.3347C13.0124 11.8601 13.1512 11.3961 13.4114 11.0015C13.6716 10.6069 14.0413 10.2993 14.474 10.1177C14.9066 9.93606 15.3827 9.88854 15.842 9.98113C16.3012 10.0737 16.7231 10.3023 17.0543 10.6379C17.3854 10.9735 17.6109 11.4011 17.7022 11.8665C17.7936 12.332 17.7467 12.8145 17.5675 13.253C17.3883 13.6915 17.0848 14.0663 16.6955 14.33C16.3061 14.5936 15.8483 14.7344 15.38 14.7344C14.9614 14.7344 14.5599 14.9029 14.2639 15.2029C13.9679 15.503 13.8016 15.9099 13.8016 16.3342V19.5337C13.8016 19.958 13.9679 20.3649 14.2639 20.6649C14.5599 20.965 14.9614 21.1335 15.38 21.1335C15.7987 21.1335 16.2002 20.965 16.4962 20.6649C16.7922 20.3649 16.9585 19.958 16.9585 19.5337V17.678C18.2341 17.3004 19.332 16.4683 20.0499 15.335C20.7678 14.2017 21.0573 12.8435 20.8651 11.5109C20.6729 10.1783 20.0118 8.96101 19.0038 8.08342C17.9959 7.20583 16.7089 6.7271 15.38 6.73546ZM17.278 24.3329C17.278 25.2165 16.5713 25.9327 15.6995 25.9327C14.8278 25.9327 14.1211 25.2165 14.1211 24.3329C14.1211 23.4494 14.8278 22.7332 15.6995 22.7332C16.5713 22.7332 17.278 23.4494 17.278 24.3329Z" fill="white"/>
</svg>
