<svg xmlns="http://www.w3.org/2000/svg" viewBox="0 0 31.91 32.34"><defs><style>.cls-1,.cls-2{fill:#fff;}.cls-1{stroke:#fff;stroke-miterlimit:10;stroke-width:0.34px;}</style></defs><g id="Layer_2" data-name="Layer 2"><g id="Layer_1-2" data-name="Layer 1"><g id="Layer_2-2" data-name="Layer 2"><g id="Layer_1-2-2" data-name="Layer 1-2"><path class="cls-1" d="M16,.17a15.6,15.6,0,0,0-8.78,2.7,15.94,15.94,0,0,0-5.8,7.18A16.12,16.12,0,0,0,4.8,27.48,15.62,15.62,0,0,0,22,31a15.92,15.92,0,0,0,7.09-5.89,16.29,16.29,0,0,0-1.91-20.2A15.73,15.73,0,0,0,16,.17ZM16,29a12.46,12.46,0,0,1-7-2.16A12.71,12.71,0,0,1,4.3,21.07,12.89,12.89,0,0,1,7,7.17,12.52,12.52,0,0,1,20.8,4.34a12.71,12.71,0,0,1,5.66,4.72,12.93,12.93,0,0,1-1.57,16.16A12.57,12.57,0,0,1,16,29Z"/><path class="cls-2" d="M15.45,6.57a5.48,5.48,0,0,0-3.91,1.6,5.61,5.61,0,0,0-1.61,4,1.59,1.59,0,0,0,1.57,1.6,1.6,1.6,0,0,0,1.58-1.6h0A2.42,2.42,0,0,1,14.54,10a2.38,2.38,0,0,1,1.37-.14,2.53,2.53,0,0,1,1.21.66,2.38,2.38,0,0,1,.65,1.23,2.53,2.53,0,0,1-.13,1.39,2.37,2.37,0,0,1-.87,1.08,2.31,2.31,0,0,1-1.32.41,1.55,1.55,0,0,0-1.12.47,1.57,1.57,0,0,0-.46,1.12v3.2a1.6,1.6,0,0,0,.46,1.13,1.57,1.57,0,0,0,2.22,0l0,0A1.69,1.69,0,0,0,17,19.37V17.51a5.56,5.56,0,0,0,3.09-2.34,5.62,5.62,0,0,0-1.05-7.25A5.42,5.42,0,0,0,15.45,6.57Z"/><path class="cls-2" d="M15.77,25.77a1.6,1.6,0,1,0-1.59-1.61h0a1.59,1.59,0,0,0,1.58,1.6Z"/></g></g></g></g></svg>