<svg xmlns="http://www.w3.org/2000/svg" viewBox="0 0 33.34 32.2"><defs><style>.cls-1{fill:#fff;}</style></defs><g id="Layer_2" data-name="Layer 2"><g id="Layer_1-2" data-name="Layer 1"><path class="cls-1" d="M32.75,14.13a5.81,5.81,0,0,0-.65-.73L32,13.32c-4.37-4.2-8.7-8.39-12-11.57l-.48-.46A3.88,3.88,0,0,0,16.72,0h-.33a3.66,3.66,0,0,0-2,.74c-.18.14-.35.3-.48.42L2.35,12.36l-.29.28c-.11.1-.22.2-.32.31l-.31.3-.29.28a3.42,3.42,0,0,0-.14,5,3.67,3.67,0,0,0,2.43,1.12v4.21c0,1.41,0,2.83,0,4.23,0,.09,0,.16,0,.28s0,.06,0,.06A3.79,3.79,0,0,0,4.66,31,4.17,4.17,0,0,0,7.58,32.2h4.9a1.61,1.61,0,0,0,1.82-1.78v-7a.84.84,0,0,1,.92-.89h3a1,1,0,0,1,.29.06.86.86,0,0,1,.56.87c0,2.34,0,4.72,0,7.06a1.58,1.58,0,0,0,1.73,1.68h5.06a4.28,4.28,0,0,0,2.24-.67,4,4,0,0,0,1.48-1.78,4.84,4.84,0,0,0,.35-2V19.6h0a3.4,3.4,0,0,0,3-1.95,3.69,3.69,0,0,0,.37-1.59A3.46,3.46,0,0,0,32.75,14.13Zm-6,3.94c0,.5,0,1,0,1.51V28c0,.7-.35,1-1.09,1H22.33c0-1.32,0-2.64,0-4V23.57a4,4,0,0,0-1.06-2.88,4.13,4.13,0,0,0-3-1.35c-1.19,0-2.34,0-3.24,0a4.08,4.08,0,0,0-4,3.62,7.72,7.72,0,0,0,0,.93V29H7.72c-.7,0-1-.32-1-1v-9.8a1.61,1.61,0,0,0-1.83-1.8H3.73c-.35,0-.41-.15-.44-.22s-.08-.24.12-.43L16.35,3.29a.55.55,0,0,1,.33-.17A.56.56,0,0,1,17,3.3L29.94,15.77c.24.24.18.36.14.44s-.11.23-.46.23H28.35A1.57,1.57,0,0,0,26.71,18.07Z"/></g></g></svg>