<svg xmlns="http://www.w3.org/2000/svg" width="32" height="32" viewBox="0 0 32 32" fill="none">
<g clip-path="url(#clip0_7799_3816)">
<path d="M3.40854 23.8432C3.40854 22.3546 3.4029 20.8659 3.41355 19.3779C3.41355 19.0914 3.33839 18.9678 3.03273 18.9622C2.16649 18.9446 1.39734 18.6612 0.804191 18.0072C-0.313836 16.7731 -0.260597 15.0406 0.92946 13.8122C1.50883 13.2146 2.10386 12.6327 2.692 12.0439C6.33274 8.40108 9.97285 4.75788 13.6123 1.11426C13.7788 0.942677 13.9542 0.780043 14.1378 0.627032C14.6107 0.2439 15.14 0.0626795 15.7663 0.0118878C16.88 -0.0821708 17.6936 0.378089 18.4458 1.13557C22.5797 5.2984 26.7245 9.4514 30.8801 13.5946C31.1087 13.8235 31.3392 14.0517 31.5133 14.3239C32.1259 15.2826 32.1396 16.3135 31.6874 17.303C31.2277 18.3107 30.3721 18.8424 29.2491 18.944C28.5751 19.0067 28.6139 18.8669 28.6133 19.6181C28.6133 22.439 28.6133 25.2608 28.6133 28.0834C28.6133 28.6879 28.5688 29.2867 28.3327 29.8586C28.0756 30.4831 27.6407 31.0182 27.0822 31.3973C26.5238 31.7763 25.8663 31.9826 25.1916 31.9906C23.5073 31.9968 21.8231 31.9906 20.1389 31.9906C19.433 31.9906 19.0572 31.6194 19.0565 30.9152C19.054 28.4793 19.054 26.0433 19.0565 23.6074C19.0565 22.9076 18.7596 22.3878 18.1095 22.0918C17.9172 22.0112 17.7096 21.9737 17.5013 21.9821C16.5136 21.9821 15.5258 21.9758 14.5381 21.9821C13.6048 21.9928 12.9741 22.6324 12.9728 23.5729C12.9691 25.9875 12.9691 28.4023 12.9728 30.8173C12.9728 31.652 12.6315 31.995 11.8028 31.995C10.1912 31.995 8.57902 31.9692 6.96806 32.0019C5.00697 32.0382 3.47054 30.4148 3.44298 28.7148C3.44298 28.6007 3.41229 28.4872 3.41229 28.3731C3.40979 26.864 3.40979 25.3546 3.41229 23.8451L3.40854 23.8432Z" fill="white"/>
</g>
<defs>
<clipPath id="clip0_7799_3816">
<rect width="32" height="32" fill="white"/>
</clipPath>
</defs>
</svg>