<svg width="22" height="21" viewBox="0 0 22 21" fill="none" xmlns="http://www.w3.org/2000/svg">
<path d="M3.28119 15.4441C3.28119 14.5138 3.27767 13.5834 3.28433 12.6534C3.28433 12.4742 3.2373 12.397 3.04605 12.3935C2.50403 12.3825 2.02277 12.2054 1.65163 11.7966C0.952067 11.0254 0.985379 9.9425 1.73001 9.17475C2.09253 8.80126 2.46484 8.43757 2.83285 8.06956C5.1109 5.79282 7.38855 3.51582 9.66582 1.23855C9.76997 1.13132 9.87973 1.02967 9.99463 0.93404C10.2905 0.694582 10.6217 0.581319 11.0136 0.549575C11.7104 0.490788 12.2195 0.778451 12.6902 1.25188C15.2768 3.85365 17.8702 6.44927 20.4704 9.03876C20.6135 9.1818 20.7577 9.32446 20.8666 9.49455C21.2499 10.0938 21.2585 10.7381 20.9756 11.3565C20.6879 11.9863 20.1526 12.3187 19.4499 12.3821C19.0282 12.4213 19.0525 12.3339 19.0521 12.8035C19.0521 14.5665 19.0521 16.3301 19.0521 18.0943C19.0521 18.4721 19.0243 18.8463 18.8765 19.2038C18.7156 19.5941 18.4435 19.9285 18.0941 20.1654C17.7446 20.4023 17.3332 20.5313 16.9111 20.5362C15.8572 20.5402 14.8034 20.5362 13.7495 20.5362C13.3078 20.5362 13.0727 20.3042 13.0723 19.8641C13.0707 18.3417 13.0707 16.8192 13.0723 15.2968C13.0723 14.8594 12.8865 14.5345 12.4797 14.3495C12.3594 14.2991 12.2295 14.2757 12.0992 14.281C11.4811 14.281 10.8631 14.277 10.2451 14.281C9.66111 14.2876 9.26646 14.6874 9.26567 15.2752C9.26332 16.7844 9.26332 18.2936 9.26567 19.803C9.26567 20.3246 9.05208 20.539 8.53359 20.539C7.5252 20.539 6.51642 20.5229 5.50842 20.5433C4.28135 20.566 3.31999 19.5514 3.30275 18.4889C3.30275 18.4176 3.28355 18.3466 3.28355 18.2753C3.28198 17.3321 3.28198 16.3888 3.28355 15.4453L3.28119 15.4441ZM17.8289 15.0981C17.8289 14.0054 17.827 12.9124 17.8289 11.8194C17.8289 11.4275 18.0711 11.1872 18.4623 11.1813C18.7225 11.1778 18.9827 11.1794 19.2429 11.1813C19.542 11.1813 19.7771 11.0724 19.9053 10.7894C20.0256 10.5253 19.9645 10.2619 19.7297 10.0268C17.0386 7.33564 14.3475 4.64452 11.6563 1.9534C11.3455 1.64301 10.983 1.64222 10.6746 1.95026C7.98008 4.64504 5.2853 7.34061 2.59025 10.037C2.37745 10.2498 2.29828 10.4967 2.42095 10.7816C2.53852 11.0594 2.77053 11.1735 3.06016 11.1782C3.2953 11.1829 3.53045 11.1782 3.76246 11.1782C4.29311 11.1782 4.50278 11.3906 4.50317 11.9267C4.50317 14.0407 4.50317 16.1549 4.50317 18.2694C4.50317 18.9271 4.90253 19.3315 5.55859 19.3354C6.31341 19.3397 7.06784 19.3319 7.82266 19.3401C7.99745 19.3421 8.04409 19.2802 8.0433 19.1136C8.03782 17.9379 8.04017 16.759 8.04017 15.5813C8.04017 15.3928 8.04683 15.2055 8.06486 15.017C8.16832 13.9357 9.08383 13.0743 10.1663 13.0574C10.8365 13.0468 11.5066 13.0421 12.1764 13.0574C12.7972 13.0739 13.3196 13.329 13.7358 13.7942C14.1395 14.2449 14.2904 14.7846 14.2908 15.376C14.2908 16.6183 14.2939 17.8611 14.2884 19.1034C14.2884 19.2798 14.3386 19.3405 14.5212 19.3386C15.2627 19.3292 16.0046 19.3362 16.7461 19.3339C17.43 19.3339 17.8289 18.9337 17.8293 18.2545C17.8309 17.204 17.8308 16.1518 17.8289 15.0981Z" fill="white" stroke="white" stroke-width="0.6"/>
</svg>
