<svg width="22" height="22" viewBox="0 0 22 22" fill="none" xmlns="http://www.w3.org/2000/svg">
<path d="M3.13276 15.9022C3.13276 14.9718 3.12923 14.0414 3.13589 13.1114C3.13589 12.9323 3.08886 12.855 2.89761 12.8515C2.3556 12.8405 1.87433 12.6634 1.50319 12.2546C0.803629 11.4834 0.836942 10.4005 1.58157 9.63276C1.94409 9.25927 2.31641 8.89557 2.68441 8.52757C4.96246 6.25083 7.24011 3.97383 9.51738 1.69656C9.62153 1.58933 9.73129 1.48768 9.84619 1.39205C10.1421 1.15259 10.4732 1.03933 10.8652 1.00758C11.562 0.948796 12.0711 1.23646 12.5418 1.70989C15.1284 4.31165 17.7218 6.90728 20.322 9.49677C20.465 9.63981 20.6092 9.78247 20.7182 9.95256C21.1015 10.5518 21.1101 11.1961 20.8271 11.8145C20.5395 12.4443 20.0041 12.7767 19.3014 12.8402C18.8797 12.8793 18.904 12.792 18.9036 13.2615C18.9036 15.0245 18.9036 16.7881 18.9036 18.5523C18.9036 18.9301 18.8758 19.3043 18.7281 19.6618C18.5672 20.0521 18.2951 20.3865 17.9456 20.6234C17.5962 20.8603 17.1848 20.9893 16.7626 20.9943C15.7088 20.9982 14.6549 20.9943 13.6011 20.9943C13.1594 20.9943 12.9243 20.7622 12.9239 20.3221C12.9223 18.7997 12.9223 17.2772 12.9239 15.7548C12.9239 15.3174 12.7381 14.9925 12.3313 14.8076C12.211 14.7571 12.0811 14.7337 11.9508 14.739C11.3327 14.739 10.7147 14.735 10.0966 14.739C9.51267 14.7456 9.11802 15.1454 9.11724 15.7332C9.11489 17.2424 9.11489 18.7516 9.11724 20.261C9.11724 20.7826 8.90365 20.997 8.38515 20.997C7.37676 20.997 6.36798 20.9809 5.35999 21.0013C4.13291 21.024 3.17156 20.0094 3.15431 18.9469C3.15431 18.8756 3.13511 18.8046 3.13511 18.7333C3.13354 17.7901 3.13354 16.8468 3.13511 15.9033L3.13276 15.9022ZM17.6805 15.5561C17.6805 14.4635 17.6785 13.3704 17.6805 12.2774C17.6805 11.8855 17.9227 11.6452 18.3138 11.6393C18.574 11.6358 18.8343 11.6374 19.0945 11.6393C19.3935 11.6393 19.6287 11.5304 19.7568 11.2474C19.8772 10.9833 19.816 10.7199 19.5813 10.4848C16.8901 7.79365 14.199 5.10253 11.5079 2.41141C11.1971 2.10101 10.8346 2.10023 10.5262 2.40827C7.83164 5.10305 5.13686 7.79862 2.44182 10.495C2.22901 10.7078 2.14984 10.9547 2.27251 11.2396C2.39008 11.5175 2.6221 11.6315 2.91172 11.6362C3.14687 11.6409 3.38201 11.6362 3.61402 11.6362C4.14467 11.6362 4.35434 11.8486 4.35473 12.3848C4.35473 14.4987 4.35473 16.613 4.35473 18.7274C4.35473 19.3851 4.75409 19.7895 5.41015 19.7934C6.16497 19.7978 6.9194 19.7899 7.67422 19.7981C7.84901 19.8001 7.89565 19.7382 7.89487 19.5716C7.88938 18.3959 7.89173 17.217 7.89173 16.0393C7.89173 15.8508 7.89839 15.6635 7.91642 15.475C8.01989 14.3937 8.93539 13.5323 10.0178 13.5154C10.688 13.5048 11.3582 13.5001 12.028 13.5154C12.6487 13.5319 13.1712 13.787 13.5874 14.2522C13.991 14.7029 14.1419 15.2426 14.1423 15.834C14.1423 17.0763 14.1455 18.3191 14.14 19.5614C14.14 19.7378 14.1901 19.7985 14.3728 19.7966C15.1143 19.7872 15.8561 19.7942 16.5976 19.7919C17.2815 19.7919 17.6805 19.3917 17.6809 18.7126C17.6825 17.662 17.6823 16.6098 17.6805 15.5561Z" fill="white" stroke="white" stroke-width="0.3"/>
</svg>
