<svg width="32" height="32" viewBox="0 0 32 32" fill="none" xmlns="http://www.w3.org/2000/svg">
<path d="M29.9574 23.8298H26.8936V2.04255C26.8936 0.916221 25.9774 0 24.8511 0H2.04255C0.916221 0 0 0.916221 0 2.04255V27.9149C0 30.1689 1.83111 32 4.08511 32H27.9149C30.1689 32 32 30.1689 32 27.9149V25.8723C32 24.746 31.0838 23.8298 29.9574 23.8298ZM6.80851 27.9149C6.80851 29.4162 5.58645 30.6383 4.08511 30.6383C2.58376 30.6383 1.3617 29.4162 1.3617 27.9149V2.04255C1.3617 1.66754 1.66755 1.3617 2.04255 1.3617H24.8511C25.2261 1.3617 25.5319 1.66755 25.5319 2.04255V23.8298H8.85106C7.72473 23.8298 6.80851 24.746 6.80851 25.8723V27.9149ZM30.6383 27.9149C30.6383 29.4162 29.4162 30.6383 27.9149 30.6383H7.12885C7.77511 29.9162 8.17008 28.9601 8.17008 27.9149V25.8723C8.17008 25.4973 8.47593 25.1915 8.85093 25.1915H29.9573C30.3323 25.1915 30.6382 25.4973 30.6382 25.8723L30.6383 27.9149Z" fill="white"/>
<path d="M4.08515 18.3832H22.8086C23.1836 18.3832 23.4894 18.0773 23.4894 17.7023C23.4894 17.3273 23.1835 17.0215 22.8086 17.0215H4.08515C3.71014 17.0215 3.4043 17.3273 3.4043 17.7023C3.4043 18.0773 3.71015 18.3832 4.08515 18.3832Z" fill="white"/>
<path d="M4.08515 5.78748H22.8086C23.1836 5.78748 23.4894 5.48163 23.4894 5.10663C23.4894 4.73163 23.1835 4.42578 22.8086 4.42578H4.08515C3.71014 4.42578 3.4043 4.73163 3.4043 5.10663C3.4043 5.48163 3.71015 5.78748 4.08515 5.78748Z" fill="white"/>
<path d="M4.08515 15.3187H22.8086C23.1836 15.3187 23.4894 15.0129 23.4894 14.6379C23.4894 14.2629 23.1835 13.957 22.8086 13.957H4.08515C3.71014 13.957 3.4043 14.2629 3.4043 14.6379C3.4043 15.0129 3.71015 15.3187 4.08515 15.3187Z" fill="white"/>
<path d="M23.4894 20.7658C23.4894 20.3908 23.1835 20.085 22.8086 20.085H4.08515C3.71014 20.085 3.4043 20.3908 3.4043 20.7658C3.4043 21.1408 3.71015 21.4467 4.08515 21.4467H22.8086C23.1836 21.4467 23.4894 21.1408 23.4894 20.7658Z" fill="white"/>
<path d="M27.9148 27.2344H10.8935C10.5185 27.2344 10.2126 27.5402 10.2126 27.9152C10.2126 28.2902 10.5185 28.5961 10.8935 28.5961H27.9148C28.2898 28.5961 28.5956 28.2902 28.5956 27.9152C28.5956 27.5402 28.2898 27.2344 27.9148 27.2344Z" fill="white"/>
<path d="M7.95119 7.58892V12.1279H7.02034L5.21404 9.50825H5.18523V12.1279H4.08816V7.58892H5.03231L6.81865 10.2042H6.85633V7.58892H7.95119ZM8.64102 12.1279V7.58892H11.8059V8.47988H9.73809V9.41073H11.6441V10.3039H9.73809V11.237H11.8059V12.1279H8.64102ZM13.5812 12.1279L12.2603 7.58892H13.4726L14.1574 10.5632H14.1951L14.9775 7.58892H15.9659L16.7483 10.5699H16.786L17.473 7.58892H18.6831L17.3644 12.1279H16.3072L15.4894 9.37527H15.454L14.6361 12.1279H13.5812ZM21.535 8.94974C21.5202 8.78721 21.4544 8.66088 21.3377 8.57075C21.2225 8.47914 21.0577 8.43334 20.8435 8.43334C20.7016 8.43334 20.5834 8.45181 20.4889 8.48875C20.3943 8.52568 20.3234 8.57666 20.2761 8.64167C20.2288 8.70521 20.2044 8.77834 20.203 8.86109C20.2 8.92905 20.2133 8.98889 20.2429 9.04061C20.2739 9.09232 20.3182 9.13812 20.3758 9.17802C20.4349 9.21643 20.5059 9.25042 20.5886 9.27997C20.6713 9.30952 20.7644 9.33538 20.8679 9.35754L21.2579 9.44619C21.4825 9.49495 21.6805 9.55996 21.8519 9.64123C22.0248 9.72249 22.1696 9.81927 22.2863 9.93156C22.4045 10.0439 22.4939 10.1731 22.5545 10.3194C22.615 10.4657 22.6461 10.6297 22.6476 10.8114C22.6461 11.0981 22.5737 11.3441 22.4304 11.5495C22.287 11.7549 22.0809 11.9122 21.812 12.0215C21.5446 12.1309 21.2217 12.1856 20.8435 12.1856C20.4637 12.1856 20.1328 12.1287 19.8506 12.0149C19.5684 11.9011 19.3489 11.7283 19.1923 11.4963C19.0357 11.2643 18.9552 10.971 18.9507 10.6164H20.0013C20.0101 10.7627 20.0493 10.8846 20.1187 10.9821C20.1882 11.0796 20.2835 11.1535 20.4046 11.2037C20.5273 11.254 20.6691 11.2791 20.8302 11.2791C20.9779 11.2791 21.1035 11.2591 21.207 11.2192C21.3119 11.1793 21.3924 11.1239 21.4485 11.053C21.5047 10.9821 21.5335 10.9008 21.535 10.8092C21.5335 10.7235 21.5069 10.6504 21.4552 10.5898C21.4035 10.5278 21.3237 10.4746 21.2158 10.4302C21.1094 10.3844 20.9735 10.3423 20.808 10.3039L20.3337 10.1931C19.9407 10.103 19.6312 9.95742 19.4051 9.75648C19.179 9.55405 19.0667 9.28071 19.0682 8.93644C19.0667 8.65571 19.1421 8.4097 19.2943 8.19841C19.4465 7.98712 19.657 7.82237 19.9259 7.70417C20.1948 7.58597 20.5014 7.52687 20.8457 7.52687C21.1973 7.52687 21.5025 7.58671 21.761 7.70639C22.0211 7.82459 22.2228 7.99081 22.3661 8.20506C22.5094 8.4193 22.5825 8.66753 22.5855 8.94974H21.535Z" fill="white"/>
</svg>
