<svg width="32" height="32" viewBox="0 0 32 32" fill="none" xmlns="http://www.w3.org/2000/svg">
<path fill-rule="evenodd" clip-rule="evenodd" d="M5.81818 26.1818V28.3636C5.81818 29.9673 4.5128 31.2727 2.90909 31.2727C1.30538 31.2727 0 29.9673 0 28.3636V0.727273C0 0.326705 0.326691 0 0.727273 0H25.0909C25.4915 0 25.8182 0.326691 25.8182 0.727273V24H8C6.79687 24 5.81818 24.9787 5.81818 26.1818ZM22.9091 16.7274H2.90909C2.50852 16.7274 2.18182 17.0541 2.18182 17.4547C2.18182 17.8553 2.50851 18.182 2.90909 18.182H22.9091C23.3097 18.182 23.6364 17.8553 23.6364 17.4547C23.6364 17.0541 23.3097 16.7274 22.9091 16.7274ZM2.90909 20.3638C2.50852 20.3638 2.18182 20.6905 2.18182 21.0911C2.18182 21.4916 2.50851 21.8183 2.90909 21.8183H22.9091C23.3097 21.8183 23.6364 21.4916 23.6364 21.0911C23.6364 20.6905 23.3097 20.3638 22.9091 20.3638H2.90909ZM22.9091 4H2.90909C2.50852 4 2.18182 3.67329 2.18182 3.27273C2.18182 2.87216 2.50851 2.54545 2.90909 2.54545H22.9091C23.3097 2.54545 23.6364 2.87216 23.6364 3.27273C23.6364 3.67329 23.3097 4 22.9091 4ZM2.90909 14.1818H22.9091C23.3097 14.1818 23.6364 13.8551 23.6364 13.4545C23.6364 13.054 23.3097 12.7273 22.9091 12.7273H2.90909C2.50851 12.7273 2.18182 13.054 2.18182 13.4545C2.18182 13.8551 2.50852 14.1818 2.90909 14.1818ZM7.03883 10.3636V5.51515H5.86932V8.30871H5.82907L3.92093 5.51515H2.91241V10.3636H4.08428V7.56534H4.11506L6.04451 10.3636H7.03883ZM7.77569 5.51515V10.3636H11.1564V9.41193H8.94756V8.41525H10.9835V7.46117H8.94756V6.46686H11.1564V5.51515H7.77569ZM11.6417 5.51515L13.0527 10.3636H14.1796L15.0531 7.4233H15.091L15.9646 10.3636H17.0939L18.5025 5.51515H17.2099L16.476 8.69934H16.4357L15.6 5.51515H14.5442L13.7085 8.69223H13.6682L12.9367 5.51515H11.6417ZM21.3381 6.56392C21.4628 6.6602 21.533 6.79514 21.5488 6.96875H22.6709C22.6678 6.6673 22.5896 6.40215 22.4366 6.1733C22.2835 5.94444 22.068 5.76689 21.7902 5.64062C21.514 5.51278 21.1881 5.44886 20.8125 5.44886C20.4448 5.44886 20.1173 5.512 19.83 5.63826C19.5428 5.76452 19.3179 5.9405 19.1553 6.16619C18.9927 6.39189 18.9122 6.65467 18.9138 6.95455C18.9122 7.32229 19.0322 7.61427 19.2737 7.83049C19.5152 8.04514 19.8458 8.2006 20.2656 8.29688L20.7723 8.41525C20.949 8.45628 21.0942 8.50126 21.2079 8.55019C21.3231 8.59754 21.4083 8.65436 21.4635 8.72064C21.5188 8.78535 21.5472 8.86348 21.5488 8.95502C21.5472 9.05287 21.5164 9.13968 21.4564 9.21544C21.3965 9.29119 21.3104 9.35038 21.1984 9.39299C21.0879 9.43561 20.9538 9.45691 20.7959 9.45691C20.6239 9.45691 20.4724 9.43008 20.3414 9.37642C20.212 9.32276 20.1102 9.24384 20.036 9.13968C19.9618 9.03551 19.92 8.9053 19.9105 8.74905H18.7884C18.7931 9.12784 18.8791 9.44113 19.0464 9.68892C19.2137 9.93671 19.4481 10.1214 19.7495 10.2429C20.051 10.3644 20.4045 10.4252 20.8101 10.4252C21.2142 10.4252 21.559 10.3668 21.8447 10.25C22.1319 10.1332 22.3521 9.96512 22.5052 9.74574C22.6583 9.52636 22.7356 9.26357 22.7372 8.95739C22.7356 8.76326 22.7025 8.58807 22.6378 8.43182C22.5731 8.27557 22.4776 8.13747 22.3513 8.01752C22.2266 7.89757 22.072 7.79419 21.8873 7.70739C21.7042 7.62058 21.4927 7.55114 21.2528 7.49905L20.8362 7.40436C20.7257 7.38068 20.6263 7.35306 20.5379 7.3215C20.4495 7.28993 20.3737 7.25363 20.3106 7.21259C20.2491 7.16998 20.2017 7.12105 20.1686 7.06581C20.137 7.01057 20.1228 6.94665 20.1259 6.87405C20.1275 6.78567 20.1536 6.70754 20.2041 6.63968C20.2546 6.57023 20.3303 6.51578 20.4313 6.47633C20.5324 6.43687 20.6586 6.41714 20.8101 6.41714C21.039 6.41714 21.215 6.46607 21.3381 6.56392Z" fill="white"/>
<path d="M30.5454 24.7275H7.99997C7.196 24.7275 6.54542 25.3781 6.54542 26.1821V28.3639C6.54542 30.371 4.91615 32.0003 2.90906 32.0003H28.3636C29.5525 32.0003 30.6108 31.4264 31.2727 30.5415C31.7315 29.9335 32 29.1821 32 28.3639V26.1821C32 25.3781 31.3494 24.7275 30.5454 24.7275ZM28.3636 29.0912H10.1818C9.7812 29.0912 9.45451 28.7645 9.45451 28.3639C9.45451 27.9633 9.78122 27.6366 10.1818 27.6366H28.3636C28.7642 27.6366 29.0909 27.9633 29.0909 28.3639C29.0909 28.7645 28.7642 29.0912 28.3636 29.0912Z" fill="white"/>
</svg>


