<svg width="32" height="32" viewBox="0 0 32 32" fill="none" xmlns="http://www.w3.org/2000/svg">
<path d="M21.2051 15.4861C21.3182 15.6443 21.485 15.6562 21.6237 15.7149C26.9558 18.0475 30.0439 22.0934 30.888 27.8526C31.0224 28.7648 30.9935 29.6896 30.9969 30.6111C30.9969 30.8749 30.9042 30.9702 30.6506 30.9464C30.5094 30.9336 30.3673 30.9464 30.2252 30.9464C20.9149 30.9464 11.6044 30.9464 2.29363 30.9464C1.90053 30.9464 1.39085 31.1166 1.14495 30.8724C0.879481 30.6077 1.05987 30.0913 1.05987 29.6862C1.05987 26.3789 2.02475 23.3796 3.98431 20.7138C5.66137 18.4318 7.82854 16.77 10.4552 15.7081C10.8857 15.538 10.8857 15.538 10.5513 15.2231C6.04171 11.0164 7.42438 3.66236 13.1337 1.52413C16.7831 0.162732 20.8894 1.53689 22.9187 4.80423C25.0187 8.18389 24.4503 12.4272 21.5386 15.1695C21.4263 15.2733 21.3157 15.3797 21.2051 15.4861ZM15.9918 28.2227C19.9058 28.2227 23.8198 28.2176 27.727 28.2296C28.1031 28.2296 28.2095 28.1555 28.1456 27.7565C27.0906 21.1792 21.2978 16.7266 14.661 17.409C9.21546 17.9698 4.72627 22.2922 3.91709 27.7343C3.85753 28.1402 3.94091 28.2321 4.34252 28.2304C8.2259 28.2168 12.1084 28.2227 15.9918 28.2227ZM16.0207 14.6088C17.4382 14.5725 18.7857 13.9848 19.7766 12.9705C20.7675 11.9562 21.3237 10.5954 21.3269 9.17737C21.3301 7.75938 20.7801 6.39607 19.7938 5.37729C18.8075 4.35852 17.4627 3.76464 16.0454 3.72193C13.0444 3.71937 10.5879 6.14776 10.5769 9.13431C10.5732 9.85204 10.7112 10.5634 10.9832 11.2276C11.2551 11.8919 11.6556 12.4958 12.1616 13.0049C12.6675 13.5139 13.2691 13.918 13.9316 14.194C14.5942 14.47 15.3047 14.6124 16.0224 14.6131L16.0207 14.6088Z" fill="white" stroke="white"/>
</svg>
