<svg width="33" height="32" viewBox="0 0 33 32" fill="none" xmlns="http://www.w3.org/2000/svg">
<path d="M16.7565 0.467773L30.1948 8.22638V23.7436L16.7565 31.5022L3.31817 23.7436V8.22638L16.7565 0.467773Z" fill="white"/>
<path d="M16.1412 28.2669C15.4496 28.259 14.7656 28.4132 14.0957 28.607C14.8602 29.2559 15.5821 29.8524 16.22 29.8546C16.8399 29.8571 17.5432 29.2996 18.2887 28.6782C17.5829 28.4609 16.8625 28.2751 16.1412 28.2669Z" fill="white"/>
<path d="M4.00617 15.8663C4.01411 15.1747 3.85984 14.4907 3.66602 13.8208C3.01718 14.5853 2.42064 15.3072 2.41847 15.9451C2.41597 16.565 2.97359 17.2683 3.59488 18.0138C3.81204 17.3088 3.99885 16.5885 4.00617 15.8663Z" fill="white"/>
<path d="M28.881 18.1782C29.5298 17.4137 30.1264 16.6919 30.1285 16.0539C30.131 15.434 29.5734 14.7307 28.9521 13.9854C28.7342 14.6902 28.5489 15.4107 28.5408 16.1327C28.5326 16.8243 28.6872 17.5084 28.881 18.1782Z" fill="white"/>
<path d="M16.4065 3.73215C17.0982 3.73994 17.7822 3.58566 18.4521 3.39185C17.6876 2.74317 16.9657 2.14647 16.3278 2.1443C15.7079 2.1418 15.0045 2.69942 14.259 3.32071C14.9641 3.53803 15.6844 3.7239 16.4065 3.73215Z" fill="white"/>
<path d="M5.51413 23.8587C6.18497 24.2172 6.79593 24.5806 7.27226 25.0545L7.27263 25.0548C7.72928 25.5081 8.08096 26.0791 8.41754 26.708C8.52153 26.9032 8.62282 27.1004 8.72504 27.2997L8.72507 27.2998C8.73252 27.3143 8.73997 27.3288 8.74745 27.3434C9.06879 27.9698 9.41831 28.6512 9.83771 29.1155L9.83778 29.1156C10.0356 29.3344 10.2711 29.5318 10.555 29.6509C10.8106 29.7586 11.0846 29.7936 11.3535 29.7901C11.6495 30.0009 11.9624 30.2659 12.308 30.5596L12.3081 30.5596L12.3118 30.5628C12.4126 30.6484 12.5163 30.7365 12.6227 30.8255C11.7357 31.0369 10.8837 31.1045 10.0867 30.7707L10.0867 30.7707C9.03418 30.3298 8.41213 29.3284 7.83087 28.2139C7.76806 28.0925 7.70618 27.9724 7.64524 27.8536C7.63752 27.8385 7.62979 27.8234 7.62204 27.8083C7.27435 27.1299 6.89595 26.3917 6.41748 25.9162L6.41745 25.9162C5.95524 25.457 5.23666 25.0814 4.57385 24.7349C4.55861 24.7269 4.54341 24.719 4.52823 24.7111C4.5282 24.711 4.52817 24.711 4.52814 24.711L4.51736 24.7054C4.34901 24.6173 4.18111 24.5295 4.01316 24.4388L4.0131 24.4387C2.90122 23.8385 1.90676 23.175 1.45408 22.0696L1.45405 22.0695C1.11311 21.2374 1.16681 20.3684 1.3721 19.4757C1.47513 19.6014 1.57719 19.7235 1.67598 19.8416L1.68303 19.8501L1.68304 19.8501C1.96331 20.1852 2.21746 20.4901 2.42262 20.779C2.42513 21.0593 2.46748 21.3417 2.57718 21.6095L2.57738 21.61C2.69678 21.9006 2.88472 22.1485 3.10128 22.3619L3.10141 22.362C3.60558 22.8585 4.35729 23.2518 5.0476 23.6129C5.06205 23.6205 5.07648 23.628 5.09087 23.6356C5.09091 23.6356 5.09094 23.6356 5.09097 23.6356L5.09479 23.6376C5.23563 23.7114 5.37517 23.7844 5.51413 23.8587ZM5.51413 23.8587L5.74981 23.4177M5.51413 23.8587L5.74981 23.4177M5.74981 23.4177C5.60897 23.3424 5.46783 23.2685 5.32758 23.1951L5.3228 23.1926L9.16993 27.0715C9.06781 26.8724 8.96476 26.6717 8.85859 26.4725C8.51611 25.8325 8.13611 25.2075 7.62488 24.7C7.0928 24.1707 6.42527 23.7787 5.74981 23.4177Z" fill="#8AC2E3" stroke="#8AC2E3"/>
<path d="M3.15716 9.56393L3.15724 9.56386C3.62131 9.14463 4.30238 8.79521 4.92875 8.47384C4.94355 8.46625 4.95832 8.45867 4.97306 8.45111C4.97307 8.4511 4.97308 8.4511 4.97309 8.45109L4.98565 8.44465C5.18094 8.34441 5.37366 8.24548 5.56457 8.14362C6.19357 7.80708 6.7645 7.45536 7.21805 6.99878C7.69134 6.52201 8.05571 5.9106 8.41404 5.24013L8.41415 5.23994C8.48901 5.10001 8.5627 4.95924 8.63706 4.81707L8.63713 4.81693C8.64493 4.80203 8.65274 4.78711 8.66057 4.77215C9.02145 4.08246 9.41456 3.33121 9.91077 2.8275C10.1242 2.61074 10.3722 2.42268 10.663 2.30342L10.6631 2.3034C10.931 2.19352 11.2134 2.15113 11.4938 2.1487C11.7826 1.94355 12.0874 1.68934 12.4227 1.40903L12.4227 1.40896L12.4359 1.39797C12.5525 1.30049 12.6729 1.19983 12.797 1.09823C11.904 0.892871 11.0355 0.839197 10.2032 1.18006L3.15716 9.56393ZM3.15716 9.56393C2.93833 9.76171 2.7408 9.99737 2.62183 10.2813C2.51425 10.5369 2.47924 10.8108 2.48278 11.0796M3.15716 9.56393L2.48278 11.0796M1.44729 12.3488C1.53721 12.2414 1.62616 12.1367 1.71259 12.035L1.71322 12.0343L1.44729 12.3488ZM1.44729 12.3488C1.23588 11.4619 1.16833 10.6098 1.50207 9.81282L1.44729 12.3488ZM7.56177 4.25422L7.56169 4.25437C7.55342 4.27018 7.54513 4.28603 7.53683 4.30191C7.19053 4.96414 6.81536 5.6816 6.35685 6.14346L6.35661 6.1437C5.88176 6.62138 5.14496 6.99924 4.46771 7.34656C4.45154 7.35486 4.43541 7.36313 4.41931 7.37139L4.41915 7.37147C4.30031 7.43238 4.18023 7.49423 4.05889 7.55701C2.94431 8.13846 1.94293 8.76034 1.50209 9.81278L7.56177 4.25422ZM7.56177 4.25422C7.65141 4.08272 7.74143 3.91098 7.83419 3.73905M7.56177 4.25422L7.83419 3.73905M2.48278 11.0796C2.27209 11.3755 2.00709 11.6882 1.71332 12.0341L2.48278 11.0796ZM7.83419 3.73905C8.43425 2.62726 9.09776 1.63291 10.2032 1.18007L7.83419 3.73905Z" fill="#8AC2E3" stroke="#8AC2E3"/>
<path d="M26.7463 23.4154L26.9817 23.8566C27.1764 23.7527 27.3731 23.6518 27.5724 23.5496L27.5735 23.549L27.5736 23.549C27.5881 23.5415 27.6026 23.5341 27.6172 23.5266C28.2437 23.2052 28.9251 22.8557 29.3893 22.4363L29.3894 22.4362C29.6085 22.2383 29.8056 22.0027 29.9246 21.7191C30.0321 21.4634 30.0672 21.1895 30.0637 20.9206C30.2744 20.6247 30.5394 20.312 30.8333 19.9659L30.8336 19.9656L30.8482 19.9484C30.9303 19.8516 31.0145 19.7523 31.0996 19.6505C31.3111 20.5375 31.3787 21.3896 31.045 22.1866C30.6041 23.2392 29.6028 23.8611 28.4883 24.4423C28.3669 24.505 28.2468 24.5669 28.128 24.628C28.1132 24.6356 28.0983 24.6432 28.0834 24.6508C27.4047 24.9987 26.6664 25.3771 26.1905 25.8556L26.1902 25.8559C25.7311 26.3184 25.3554 27.0371 25.0088 27.7002C25.001 27.7152 24.9931 27.7302 24.9853 27.7451C24.8955 27.9168 24.8056 28.0884 24.7129 28.2601L24.7128 28.2602C24.1129 29.3718 23.449 30.3665 22.3434 30.8201C21.511 31.161 20.6424 31.1073 19.7494 30.9019C19.8742 30.7997 19.9953 30.6984 20.1126 30.6003L20.1237 30.5911C20.1237 30.591 20.1237 30.591 20.1238 30.591C20.4591 30.3107 20.7638 30.0566 21.0526 29.8515C21.3331 29.849 21.6155 29.8065 21.8832 29.6969L21.8835 29.6968C22.1745 29.5774 22.4225 29.3891 22.6357 29.1727L22.6358 29.1727C23.1322 28.6688 23.5254 27.9172 23.8864 27.2272C23.8941 27.2125 23.9017 27.1978 23.9094 27.1832C23.9094 27.1831 23.9094 27.1831 23.9095 27.1831L23.9126 27.177C23.9859 27.0371 24.0586 26.8982 24.1324 26.7599C24.4908 26.0892 24.8544 25.4783 25.3284 25.0017L25.3287 25.0014C25.7821 24.5447 26.3532 24.1929 26.9822 23.8563L26.7463 23.4154ZM26.7463 23.4154C26.1063 23.7579 25.4813 24.1379 24.9738 24.6491L29.0542 22.0653C28.6391 22.4403 28.0063 22.765 27.3479 23.1028L27.3453 23.1041L27.3425 23.1056C27.1443 23.2072 26.9446 23.3096 26.7463 23.4154Z" fill="#8AC2E3" stroke="#8AC2E3"/>
<path d="M31.0931 9.92902L31.0931 9.92898C30.6404 8.82373 29.646 8.16023 28.5341 7.55996L28.534 7.55992C28.3624 7.46724 28.1907 7.37732 28.019 7.28752C28.0038 7.27957 27.9886 7.27161 27.9733 7.26363C27.3105 6.91716 26.592 6.54158 26.1298 6.08257L26.1296 6.0824C25.6514 5.60697 25.2731 4.86903 24.9254 4.19095C24.9176 4.17561 24.9097 4.1603 24.9019 4.14502L31.0931 9.92902ZM31.0931 9.92902C31.434 10.7611 31.3801 11.6293 31.1752 12.5226M31.0931 9.92902L31.1752 12.5226M31.1752 12.5226C31.0733 12.3982 30.9723 12.2774 30.8745 12.1605L30.8651 12.1493C30.8651 12.1493 30.8651 12.1493 30.8651 12.1492C30.5847 11.8138 30.3306 11.5091 30.1255 11.2203C30.123 10.9399 30.0806 10.6576 29.9709 10.3898L29.9708 10.3894C29.8514 10.0986 29.6634 9.85068 29.4466 9.63719L31.1752 12.5226ZM20.2395 1.43921L20.2399 1.43948C20.5858 1.73329 20.8987 1.99835 21.1947 2.20918C21.4634 2.20566 21.7374 2.24069 21.9929 2.34832C22.2766 2.46734 22.5124 2.66467 22.7102 2.88381L20.2395 1.43921ZM20.2395 1.43921L20.2249 1.42677C20.1273 1.34405 20.0271 1.25907 19.9244 1.17319M20.2395 1.43921L19.9244 1.17319M23.823 4.69946L23.823 4.69947L23.8296 4.71225C23.9298 4.90754 24.0287 5.10025 24.1306 5.29115C24.4671 5.92014 24.8188 6.49101 25.2755 6.94452L25.2756 6.94457C25.7522 7.41793 26.3635 7.78227 27.034 8.14061C27.1729 8.21484 27.3123 8.28787 27.4531 8.36157L27.4571 8.36364C27.4711 8.37098 27.4851 8.37833 27.4992 8.3857C28.1899 8.74687 28.9422 9.14028 29.4465 9.6371L23.823 4.69946ZM23.823 4.69946C23.8153 4.68447 23.8076 4.66945 23.7999 4.6544M23.823 4.69946L23.7999 4.6544M19.9244 1.17319C20.8114 0.961764 21.6634 0.894109 22.4605 1.22784L19.9244 1.17319ZM23.7999 4.6544C23.4786 4.02845 23.1293 3.34778 22.7103 2.8839L23.7999 4.6544ZM22.4606 1.22788C23.5131 1.66892 24.1352 2.67037 24.7164 3.78505L22.4606 1.22788Z" fill="#8AC2E3" stroke="#8AC2E3"/>
<path d="M5.24408 20.4288C4.90362 19.5793 4.2979 18.8548 3.71211 18.1543L3.59504 18.0142C2.97375 17.2688 2.41614 16.5653 2.41863 15.9454C2.42112 15.3072 3.01734 14.5856 3.66619 13.8211C3.6872 13.7964 3.70837 13.7716 3.72939 13.7467C4.32094 13.0507 4.93196 12.331 5.27926 11.4843C5.61271 10.6705 5.69553 9.75201 5.77445 8.86468C5.78286 8.77066 5.79137 8.67725 5.79998 8.58447C5.60072 8.69111 5.40006 8.79401 5.20111 8.89582C4.54169 9.23394 3.90779 9.55929 3.49214 9.93477C3.44435 10.2075 3.38208 10.4566 3.29444 10.67C3.22003 10.8517 3.11526 11.0368 2.98963 11.2255C2.74741 11.5891 2.42703 11.9663 2.09452 12.3578C1.80559 12.6978 1.50296 13.0535 1.23054 13.432C0.699227 14.1667 0.277198 14.9851 0.273462 15.9373C0.269882 16.8574 0.657662 17.6555 1.15768 18.3749C1.44147 18.7829 1.76122 19.1655 2.06634 19.5304C2.38345 19.9096 2.68903 20.2756 2.92519 20.6285C3.06171 20.8325 3.17426 21.032 3.25303 21.2274C3.34348 21.4527 3.40559 21.717 3.45198 22.0068C3.90218 22.4502 4.59788 22.8145 5.32254 23.1937C5.46436 23.268 5.60711 23.3427 5.74955 23.4188C5.73896 23.2978 5.729 23.1755 5.71841 23.0525C5.64634 22.1638 5.57099 21.2453 5.24408 20.4288Z" fill="#5EA1D0"/>
<path d="M6.00178 5.79109C6.40653 5.38386 6.75196 4.72256 7.11841 4.0225C7.20808 3.85126 7.29946 3.6766 7.39395 3.50146C6.52375 3.66539 5.67813 3.973 5.00423 4.64161C4.30666 5.33373 3.99469 6.2125 3.82812 7.11337C3.94996 7.04986 4.07087 6.98759 4.19084 6.92657C4.90724 6.55887 5.58395 6.21188 6.00178 5.79109Z" fill="white"/>
<path d="M6.06486 26.2713C5.65778 25.8666 4.99648 25.5208 4.29627 25.1545C4.12503 25.0649 3.95037 24.9736 3.77539 24.8792C3.93916 25.7494 4.24677 26.5948 4.91553 27.2687C5.6075 27.9663 6.48642 28.2783 7.3873 28.4448C7.32379 28.323 7.26152 28.2021 7.20049 28.0823C6.8328 27.3657 6.48564 26.689 6.06486 26.2713Z" fill="white"/>
<path d="M26.4821 5.7277C26.8892 6.13244 27.5506 6.47804 28.2507 6.84433C28.4219 6.934 28.5966 7.02538 28.7716 7.11987C28.6078 6.24967 28.3002 5.40421 27.6314 4.73015C26.9395 4.03274 26.0605 3.72061 25.1597 3.5542C25.2232 3.67593 25.2853 3.7972 25.3465 3.91676C25.715 4.63316 26.0613 5.30987 26.4821 5.7277Z" fill="white"/>
<path d="M26.545 26.2082C26.1403 26.6154 25.7947 27.2767 25.4284 27.9768C25.3387 28.148 25.2473 28.3227 25.1528 28.4977C26.023 28.3339 26.8687 28.0263 27.5426 27.3575C28.2401 26.6655 28.5521 25.7866 28.7187 24.8857C28.5968 24.9493 28.476 25.0115 28.3561 25.0725C27.6395 25.4402 26.963 25.7874 26.545 26.2082Z" fill="white"/>
<path d="M19.8037 30.2073C20.1831 29.8902 20.5489 29.5846 20.9018 29.3485C21.1058 29.2121 21.3055 29.0994 21.5009 29.0206C21.7261 28.9302 21.9904 28.8682 22.2803 28.8217C22.7237 28.3716 23.0879 27.6758 23.4672 26.9511C23.5414 26.8093 23.6161 26.6665 23.6921 26.5241C23.5712 26.5345 23.4491 26.5448 23.326 26.5552C22.4377 26.6278 21.5192 26.703 20.7026 27.0303C19.8532 27.3709 19.1287 27.9765 18.428 28.5623L18.2879 28.6794C17.5426 29.3008 16.8391 29.8583 16.2192 29.8558C15.581 29.8533 14.8594 29.2571 14.0949 28.6082L14.0205 28.545C13.3245 27.9535 12.6048 27.3425 11.7581 26.9952C10.9441 26.6614 10.0263 26.5792 9.13861 26.4997C9.04458 26.4912 8.95118 26.4827 8.8584 26.4741C8.96488 26.6734 9.06793 26.874 9.16974 27.0731C9.50786 27.7324 9.83306 28.3663 10.2085 28.782C10.4814 28.8298 10.7305 28.8922 10.9439 28.9797C11.1256 29.0541 11.3105 29.1587 11.4992 29.2845C11.863 29.5269 12.2402 29.8471 12.6316 30.1796C12.9717 30.4685 13.3274 30.7711 13.7057 31.0437C14.4403 31.5749 15.2589 31.9969 16.2111 32.0006C17.131 32.0042 17.9293 31.6166 18.6485 31.1164C19.0562 30.8317 19.4388 30.5118 19.8037 30.2073Z" fill="#5EA1D0"/>
<path d="M30.1287 16.0538C30.1262 16.692 29.53 17.4136 28.8812 18.1781C28.8602 18.2028 28.839 18.2276 28.818 18.2525C28.2264 18.9485 27.6154 19.6682 27.2683 20.5149C26.9343 21.329 26.8521 22.2467 26.7726 23.1344C26.7641 23.2278 26.7556 23.3212 26.7471 23.4146C26.9463 23.3079 27.147 23.205 27.3461 23.1032C28.0054 22.7651 28.6393 22.4399 29.0549 22.0644C29.1027 21.7915 29.165 21.5425 29.2526 21.329C29.327 21.1475 29.4316 20.9624 29.5574 20.7738C29.7996 20.4099 30.12 20.0329 30.4525 19.6414C30.7415 19.3013 31.0441 18.9457 31.3165 18.5673C31.8478 17.8326 32.2699 17.0141 32.2736 16.0619C32.2772 15.142 31.8894 14.3437 31.3894 13.6245C31.1057 13.2165 30.7858 12.8338 30.4807 12.4689C30.1636 12.0896 29.858 11.7237 29.6219 11.3708C29.4853 11.1669 29.3728 10.9672 29.294 10.772C29.2036 10.5466 29.1415 10.2822 29.0949 9.99236C28.6449 9.549 27.9492 9.18473 27.2245 8.80567C27.0827 8.73141 26.9399 8.65669 26.7975 8.58057C26.8081 8.70152 26.8181 8.82373 26.8286 8.94686C26.9012 9.83497 26.9762 10.7534 27.3038 11.5701C27.6442 12.4194 28.2499 13.1439 28.8357 13.8446C28.875 13.8915 28.914 13.9382 28.9528 13.9847C29.5736 14.7304 30.1312 15.4339 30.1287 16.0538Z" fill="#5EA1D0"/>
<path d="M18.4521 3.39203L18.5265 3.45524C19.2225 4.04679 19.9422 4.65796 20.7889 5.00511C21.6029 5.33887 22.5207 5.42122 23.4084 5.50077C23.5018 5.50918 23.5952 5.51764 23.6886 5.52615C23.5819 5.32689 23.479 5.12622 23.3772 4.92727C23.0391 4.268 22.7138 3.63411 22.3383 3.21846C22.0655 3.17051 21.8165 3.10824 21.603 3.02076C21.4214 2.94619 21.2364 2.84158 21.0477 2.71595C20.6839 2.47357 20.3067 2.15319 19.9152 1.82068C19.5752 1.53175 19.2195 1.22912 18.8411 0.956698C18.1065 0.425388 17.288 0.0035166 16.3357 -0.000219536C15.4157 -0.0038 14.6175 0.383823 13.8983 0.883998C13.4902 1.16763 13.1077 1.48738 12.7426 1.7925C12.3634 2.10961 11.9974 2.41519 11.6445 2.6515C11.4406 2.78787 11.241 2.90058 11.0456 2.97935C10.8204 3.06964 10.5561 3.13175 10.2662 3.1783C9.82284 3.62835 9.45857 4.3242 9.07935 5.0487C9.00509 5.19067 8.93037 5.33343 8.85425 5.47571C8.97536 5.46512 9.09756 5.45516 9.22054 5.44458C10.1088 5.37203 11.0273 5.297 11.8439 4.96962C12.6933 4.62901 13.4178 4.02329 14.1183 3.43749C14.165 3.39842 14.2117 3.35965 14.2584 3.32043C15.0038 2.69914 15.7073 2.14152 16.3271 2.14401C16.9662 2.14697 17.6876 2.74335 18.4521 3.39203Z" fill="#5EA1D0"/>
<path fill-rule="evenodd" clip-rule="evenodd" d="M23.7579 8.25239C23.7579 8.89486 23.2284 9.41568 22.5752 9.41568C21.9221 9.41568 21.3926 8.89486 21.3926 8.25239C21.3926 7.60993 21.9221 7.08911 22.5752 7.08911C23.2284 7.08911 23.7579 7.60993 23.7579 8.25239ZM15.1262 9.71414C13.4971 9.82523 11.96 10.5172 10.8077 11.667C9.78649 12.686 9.13517 13.9971 8.93782 15.3986C8.91872 15.3137 8.9013 15.2283 8.88557 15.1425C8.71165 16.0934 8.75208 17.0703 9.00401 18.0041C9.25594 18.9379 9.71322 19.806 10.3436 20.5469C10.9739 21.2878 11.762 21.8836 12.652 22.2922C13.5415 22.7004 14.5112 22.9118 15.4927 22.9113L15.4948 22.9113H19.2659C19.5724 22.901 19.8628 22.774 20.076 22.5571C20.2891 22.3402 20.4082 22.0504 20.4082 21.7487C20.4082 21.4471 20.2891 21.1572 20.076 20.9403L20.0759 20.9403C20.0226 20.8861 19.9646 20.8375 19.9026 20.7949C19.7166 20.6672 19.4958 20.5938 19.2659 20.5861H15.4947H15.4947L15.4841 20.5861C14.7999 20.5833 14.1259 20.4219 13.5169 20.115C12.9047 19.8064 12.3756 19.3595 11.9729 18.8109C11.5702 18.2623 11.3054 17.6277 11.2003 16.959C11.0951 16.2903 11.1526 15.6066 11.3679 14.964C11.5833 14.3214 11.9504 13.7381 12.4392 13.262C12.928 12.7859 13.5246 12.4306 14.18 12.2251C14.2725 12.1961 14.3657 12.1702 14.4597 12.1474C15.0156 12.0134 15.5943 11.9882 16.1625 12.0748C16.8586 12.1808 17.5182 12.4514 18.0847 12.8634V15.7606L18.0846 15.7431V18.0683C18.0846 18.3765 18.209 18.672 18.4305 18.8899C18.5015 18.9597 18.5806 19.0197 18.6656 19.069C18.8459 19.1737 19.053 19.2303 19.2659 19.2303C19.5792 19.2303 19.8797 19.1079 20.1012 18.89C20.3227 18.6721 20.4472 18.3765 20.4472 18.0684V12.3211C20.4474 12.1617 20.4142 12.0039 20.3497 11.8577C20.2852 11.7114 20.1908 11.5798 20.0723 11.471C18.8304 10.3302 17.194 9.69672 15.4948 9.69899C15.4298 9.6999 15.365 9.70174 15.3003 9.7045C15.2826 9.70476 15.2652 9.70515 15.2481 9.70572C15.2074 9.70796 15.1667 9.71077 15.1262 9.71414ZM21.751 10.8596C21.9725 10.6417 22.273 10.5193 22.5863 10.5193C22.8995 10.5193 23.2 10.6417 23.4215 10.8596C23.6431 11.0776 23.7675 11.3731 23.7675 11.6813V17.4475V21.7495C23.7675 22.0576 23.6431 22.3532 23.4215 22.5711C23.2 22.789 22.8995 22.9114 22.5863 22.9114C22.273 22.9114 21.9725 22.789 21.751 22.5711C21.5295 22.3532 21.405 22.0576 21.405 21.7495V17.4475V11.6813C21.405 11.3731 21.5295 11.0776 21.751 10.8596Z" fill="#389CE3"/>
</svg>
