<svg xmlns="http://www.w3.org/2000/svg" width="34" height="34" viewBox="0 0 34 34" fill="none">
<path d="M17.9998 1C18.9804 1.14937 19.9454 1.36249 20.8416 1.80186C23.9109 3.30496 25.7634 5.72803 26.2009 9.13172C26.8315 14.041 23.4997 18.2778 19.0972 19.2946C18.4163 19.4461 17.7211 19.5236 17.0235 19.5259C14.2886 19.5578 11.6074 19.9115 9.04989 20.9446C7.74928 21.4702 6.53055 22.1402 5.43619 23.0258C4.17121 24.0489 3.56121 25.3864 3.52496 26.9964C3.50934 27.6626 3.52121 28.3295 3.52496 28.9963C3.52496 29.9963 4.00121 30.4769 4.99932 30.4769H21.5616C21.7491 30.4769 21.9366 30.4588 22.1197 30.5207C22.6034 30.685 22.9216 31.0113 23.0091 31.515C23.1003 32.0413 22.9228 32.4819 22.481 32.7975C22.3659 32.8711 22.247 32.9385 22.1247 32.9994H4.12496C3.53809 32.8525 2.97872 32.6488 2.48748 32.2794C1.67499 31.67 1.22 30.8463 1 29.8744V25.9995C1.15375 25.2339 1.3375 24.4795 1.66437 23.7627C2.43248 22.0808 3.75934 20.9384 5.27744 19.9784C7.01929 18.8771 8.91052 18.1359 10.9086 17.6522C11.0024 17.6297 11.1424 17.6522 11.1755 17.5316C11.1999 17.4453 11.0892 17.4009 11.0286 17.3472C8.54489 15.1597 7.40366 12.4173 7.80491 9.13047C8.22552 5.71366 10.0992 3.28745 13.1873 1.79061C14.0761 1.35999 15.0311 1.15125 15.9998 1H17.9998ZM10.273 10.2392C10.333 14.0066 13.2498 16.9591 16.9998 16.9616C20.721 16.9616 23.7103 14.0429 23.7128 10.2436C23.7128 6.55614 20.8303 3.5562 17.0198 3.53808C13.2986 3.52245 10.3467 6.44739 10.273 10.2392Z" fill="white" stroke="white" stroke-width="0.631361"/>
<path d="M26.3752 32.9994C25.7309 32.7144 25.4471 32.2331 25.4696 31.5169C25.5028 30.4875 25.4784 29.4544 25.4784 28.4257C25.4784 28.0226 25.4784 28.022 25.0603 28.0213C23.9778 28.0213 22.8953 28.0213 21.8103 28.0213C21.0272 28.0213 20.4803 27.4995 20.4766 26.762C20.4735 26.0045 21.0178 25.4808 21.8172 25.4789C22.9203 25.4789 24.0234 25.4701 25.1296 25.4839C25.4046 25.487 25.4878 25.4039 25.4846 25.1295C25.4709 23.9952 25.4753 22.8608 25.4846 21.7258C25.486 21.4375 25.5859 21.1583 25.7678 20.9346C25.9497 20.7108 26.2026 20.556 26.4846 20.4959C26.7729 20.4371 27.0726 20.4781 27.3344 20.6121C27.5963 20.7461 27.8049 20.9652 27.9258 21.2334C28.0008 21.4169 28.0347 21.6147 28.0252 21.8127C28.0252 22.8848 28.0252 23.9566 28.0252 25.0283C28.0252 25.4776 28.0252 25.4776 28.4627 25.4783C29.4827 25.4783 30.5033 25.5026 31.5252 25.4695C32.242 25.4464 32.7233 25.7301 33.0083 26.3751V27.1251C32.7233 27.7682 32.2433 28.052 31.5277 28.0301C30.4683 27.9982 29.4077 28.0301 28.3477 28.0176C28.1021 28.0176 28.0233 28.0945 28.0258 28.3395C28.0365 29.4019 28.0065 30.4607 28.039 31.5194C28.0608 32.235 27.7758 32.715 27.1334 33L26.3752 32.9994Z" fill="white" stroke="white" stroke-width="0.631361"/>
</svg>