<svg xmlns="http://www.w3.org/2000/svg" width="28" height="27" viewBox="0 0 28 27" fill="none">
<path d="M14.0258 0.0137821C18.0752 0.0137821 22.1246 0.0275642 26.174 0C26.9001 0 27.0817 0.248077 27.0817 0.909617C27.0677 8.90322 27.0677 16.8968 27.0817 24.8766C27.0817 25.5933 26.8164 25.8276 26.1322 25.7449C25.5178 25.676 25.0011 25.7174 25.0709 26.5581C25.0989 26.8613 24.8475 26.9853 24.5543 26.9853C23.507 26.9853 22.4598 26.9715 21.4125 26.9853C20.9517 26.9853 20.8819 26.6959 20.8959 26.3375C20.9238 25.8827 20.7004 25.7449 20.2675 25.7449C16.0785 25.7587 11.8894 25.7587 7.70036 25.7449C7.23957 25.7449 7.07201 25.9379 7.08597 26.3651C7.09993 26.8337 6.87652 27.0129 6.40176 26.9991C5.46621 26.9715 4.54462 26.9853 3.60906 26.9991C3.1343 27.0129 2.84107 26.875 2.88296 26.3375C2.92485 25.8138 2.61765 25.7449 2.18479 25.7449C0.886183 25.7587 0.91411 25.8965 0.91411 24.4632C0.91411 16.6487 0.91411 8.84809 0.91411 1.03366C0.91411 0.0137821 0.91411 0.0137821 1.94741 0.0137821C5.98285 0.0137821 10.0043 0.0137821 14.0258 0.0137821ZM14.0817 3.40417C11.1773 3.40417 8.2589 3.41795 5.3545 3.39039C4.78199 3.39039 4.55858 3.56956 4.60047 4.1484C4.64236 4.79616 4.61443 5.43014 4.60047 6.07789C4.60047 6.31219 4.61443 6.6154 4.33516 6.64296C3.67888 6.72565 3.7487 7.16668 3.7487 7.60771C3.7487 8.06251 3.76266 8.5311 3.7487 8.98591C3.7487 9.35803 3.77662 9.67502 4.26535 9.73014C4.55858 9.75771 4.60047 10.0058 4.60047 10.2539C4.60047 11.8112 4.60047 13.3824 4.60047 14.9398C4.60047 15.1465 4.60047 15.4084 4.30724 15.4084C3.67888 15.3946 3.73473 15.808 3.73473 16.2077C3.73473 16.7866 3.73473 17.3516 3.7487 17.9305C3.7487 18.1923 3.76266 18.468 4.11175 18.4955C4.55858 18.5369 4.61443 18.8263 4.61443 19.1709C4.61443 19.9013 4.64236 20.6455 4.60047 21.376C4.58651 21.8584 4.7401 21.9686 5.22883 22.01C6.90444 22.1478 8.58006 21.9686 10.2417 21.9962C12.5876 22.0238 14.9334 22.0651 17.2793 22.0513C18.1869 22.0513 19.0946 21.9411 20.0022 22.01C20.9098 22.0789 21.8174 22.0513 22.7251 22.01C23.3814 21.9824 23.535 21.7343 23.535 21.1279C23.507 15.5048 23.507 9.88175 23.535 4.24488C23.535 3.51443 23.2836 3.36283 22.6134 3.37661C19.7648 3.41795 16.9163 3.40417 14.0817 3.40417Z" fill="white"/>
<path d="M14.1082 4.713C16.5239 4.713 18.9535 4.72678 21.3692 4.69922C21.9836 4.69922 22.193 4.90595 22.1791 5.49858C22.1651 10.3499 22.1651 15.1874 22.1791 20.0387C22.1791 20.59 21.9417 20.7553 21.425 20.7553C16.5099 20.7416 11.6087 20.7416 6.69357 20.7553C6.12106 20.7553 5.86972 20.5486 5.92557 19.9835C5.9535 19.6666 5.92557 19.3358 5.93954 19.0188C5.93954 18.7983 5.98143 18.564 6.23277 18.5364C6.81924 18.4951 6.79131 18.1092 6.79131 17.6957C6.79131 17.2133 6.77735 16.731 6.79131 16.2486C6.80527 15.8489 6.76338 15.5181 6.2607 15.4492C6.00936 15.4217 5.9535 15.2012 5.9535 14.9806C5.9535 13.3957 5.9535 11.8108 5.9535 10.2258C5.9535 10.0053 5.98143 9.77102 6.23277 9.74346C6.84716 9.67455 6.80527 9.26109 6.80527 8.83384C6.79131 8.42038 6.80527 8.00692 6.80527 7.59345C6.80527 7.15243 6.87509 6.72518 6.21881 6.62871C5.84179 6.57358 5.9535 6.14634 5.9535 5.85691C5.92557 4.69922 5.93954 4.69922 7.07058 4.69922C9.40248 4.713 11.7623 4.713 14.1082 4.713ZM8.07595 12.8996C8.07595 16.1659 10.743 18.7845 14.0104 18.7569C17.2919 18.7294 19.903 16.1108 19.903 12.8444C19.903 9.61942 17.1941 7.00083 13.9127 7.01461C10.7011 7.01461 8.07595 9.67455 8.07595 12.8996Z" fill="white"/>
<path d="M13.327 8.40712C13.6202 8.35199 13.6761 8.60007 13.69 8.91705C13.69 9.12379 13.6761 9.37186 13.9693 9.38564C14.3184 9.41321 14.3184 9.13757 14.3044 8.90327C14.2765 8.4209 14.5558 8.37955 14.9328 8.44846C15.3936 8.54494 15.8125 8.72411 16.2314 8.94462C16.7062 9.1927 17.1251 9.45456 16.4688 9.96449C16.3012 10.1023 16.2593 10.2539 16.4409 10.4331C16.6084 10.5985 16.776 10.5847 16.9156 10.4193C17.4323 9.79911 17.7115 10.1712 17.9768 10.6536C18.2142 11.0808 18.3678 11.5356 18.4795 12.0042C18.5773 12.4315 18.4516 12.6107 18.0048 12.6244C17.8093 12.6244 17.4742 12.4866 17.4881 12.8725C17.4881 13.1619 17.7395 13.1619 17.9489 13.1619C18.5354 13.1619 18.5912 13.4651 18.4516 13.9337C18.3259 14.361 18.1723 14.7607 17.9629 15.1466C17.6976 15.6289 17.4183 15.9873 16.9017 15.3671C16.762 15.2017 16.5945 15.1879 16.4269 15.3533C16.2454 15.5325 16.3012 15.6841 16.4688 15.8219C17.0552 16.2767 16.7899 16.5661 16.2733 16.8142C15.9102 16.9796 15.5612 17.1587 15.1841 17.2828C14.7094 17.4344 14.2207 17.5446 14.2905 16.7591C14.3044 16.5523 14.2067 16.4007 13.9554 16.4145C13.704 16.4283 13.6621 16.6212 13.6761 16.8142C13.718 17.4206 13.3829 17.4482 12.9221 17.3241C12.5032 17.2001 12.0842 17.076 11.6933 16.8555C11.2185 16.5937 10.7996 16.3318 11.4559 15.8219C11.6235 15.6978 11.6514 15.5187 11.4838 15.3395C11.3023 15.1603 11.1347 15.2292 11.0091 15.3808C10.5343 15.9597 10.255 15.6703 10.0037 15.1741C9.78027 14.7469 9.57082 14.3058 9.47308 13.8373C9.3893 13.4514 9.48704 13.2171 9.93387 13.1895C10.1433 13.1757 10.4645 13.2584 10.4505 12.9001C10.4366 12.5969 10.1573 12.652 9.9618 12.6382C9.47308 12.6244 9.37533 12.3764 9.48704 11.9491C9.59875 11.4943 9.78027 11.0808 10.0037 10.6674C10.269 10.1712 10.5343 9.81289 11.037 10.4606C11.1487 10.5985 11.3023 10.6674 11.4559 10.5158C11.6235 10.378 11.6653 10.185 11.4978 10.0334C10.7856 9.42699 11.3442 9.16513 11.8189 8.90327C12.2518 8.64141 12.7126 8.48981 13.327 8.40712ZM13.9693 14.4988C14.9188 14.4988 15.5891 13.8235 15.603 12.9001C15.603 11.9078 14.9468 11.26 13.9554 11.26C13.0757 11.26 12.3077 12.018 12.3216 12.8863C12.3216 13.7546 13.0896 14.4988 13.9693 14.4988Z" fill="white"/>
</svg>