<svg width="34" height="34" viewBox="0 0 34 34" fill="none" xmlns="http://www.w3.org/2000/svg">
<circle cx="16.6667" cy="16.6667" r="16.6667" transform="matrix(-1 0 0 1 33.332 0)" fill="#A3A3A3"/>
<path d="M21.9062 11.5197C21.9062 11.3287 21.8537 11.1415 21.7544 10.9784C21.6551 10.8153 21.5129 10.6827 21.3433 10.595C21.1736 10.5073 20.9832 10.4679 20.7927 10.4812C20.6021 10.4945 20.419 10.5598 20.2631 10.6702L12.9742 15.8367C12.8388 15.9325 12.7283 16.0591 12.6517 16.2062C12.5752 16.3532 12.5349 16.5165 12.5342 16.6822C12.5334 16.848 12.5723 17.0116 12.6476 17.1593C12.7229 17.307 12.8324 17.4346 12.9669 17.5315L20.2558 22.7751C20.4113 22.8872 20.5948 22.9543 20.786 22.9688C20.9771 22.9833 21.1686 22.9448 21.3393 22.8575C21.51 22.7702 21.6532 22.6375 21.7533 22.474C21.8533 22.3105 21.9062 22.1225 21.9062 21.9308V11.5197ZM9.41101 10.9971C9.41101 10.859 9.46586 10.7266 9.5635 10.629C9.66114 10.5314 9.79356 10.4766 9.93165 10.4766C10.0697 10.4766 10.2022 10.5314 10.2998 10.629C10.3974 10.7266 10.4523 10.859 10.4523 10.9971V22.4482C10.4523 22.5863 10.3974 22.7186 10.2998 22.8163C10.2022 22.9139 10.0697 22.9687 9.93165 22.9687C9.79356 22.9687 9.66114 22.9139 9.5635 22.8163C9.46586 22.7186 9.41101 22.5863 9.41101 22.4482V10.9971Z" fill="white"/>
</svg>
