<svg width="34" height="34" viewBox="0 0 34 34" fill="none" xmlns="http://www.w3.org/2000/svg">
<circle cx="16.6667" cy="16.6667" r="16.6667" transform="matrix(-1 0 0 1 33.8594 0.285645)" fill="#7C7C7C"/>
<path d="M18.0033 25.5147C16.4251 25.5147 14.843 25.0669 13.4701 24.1587C10.4608 22.1687 9.09045 18.3651 10.1376 14.9087C10.2519 14.5312 10.6508 14.3176 11.0283 14.4322C11.4058 14.5465 11.619 14.9455 11.5047 15.323C10.6394 18.1794 11.7719 21.3226 14.258 22.9669C16.7697 24.628 20.1272 24.4247 22.424 22.473C24.6915 20.5458 25.4387 17.1805 24.2005 14.4712C22.893 11.6097 19.7094 9.99689 16.6315 10.6362C15.3362 10.9051 14.1105 11.5705 13.1805 12.5105C12.903 12.7908 12.4508 12.7933 12.1705 12.5158C11.8901 12.2383 11.8876 11.7862 12.1651 11.5058C13.2908 10.3683 14.774 9.56296 16.3412 9.2376C20.0669 8.46582 23.918 10.4155 25.5001 13.8776C27.0226 17.209 26.1383 21.1915 23.3497 23.5619C21.8262 24.8558 19.9172 25.5147 18.0033 25.5147Z" fill="white"/>
<path d="M12.6719 12.7227C12.6109 12.7227 12.5484 12.7148 12.4866 12.698C12.1055 12.5959 11.8794 12.2044 11.9816 11.8234L13.1444 7.48266C13.2466 7.10159 13.638 6.87409 14.0191 6.97766C14.4001 7.07981 14.6262 7.47123 14.5241 7.85231L13.3612 12.193C13.2759 12.5119 12.9873 12.7227 12.6719 12.7227Z" fill="white"/>
<path d="M17.0126 13.886C16.9512 13.886 16.8891 13.8781 16.8273 13.8613L12.4866 12.6978C12.1055 12.5956 11.8794 12.2042 11.9816 11.8231C12.0837 11.442 12.4773 11.2156 12.8562 11.3181L17.1969 12.4817C17.578 12.5838 17.8041 12.9753 17.7019 13.3563C17.6166 13.6753 17.328 13.886 17.0126 13.886Z" fill="white"/>
</svg>
