<svg width="34" height="34" viewBox="0 0 34 34" fill="none" xmlns="http://www.w3.org/2000/svg">
<circle cx="17.3346" cy="16.6667" r="16.6667" fill="#A3A3A3"/>
<path d="M12.0938 11.5197C12.0938 11.3287 12.1463 11.1415 12.2456 10.9784C12.3449 10.8153 12.4871 10.6827 12.6567 10.595C12.8264 10.5073 13.0168 10.4679 13.2073 10.4812C13.3979 10.4945 13.581 10.5598 13.7369 10.6702L21.0258 15.8367C21.1612 15.9325 21.2717 16.0591 21.3483 16.2062C21.4248 16.3532 21.4651 16.5165 21.4658 16.6822C21.4666 16.848 21.4277 17.0116 21.3524 17.1593C21.2771 17.307 21.1676 17.4346 21.0331 17.5315L13.7442 22.7751C13.5887 22.8872 13.4052 22.9543 13.214 22.9688C13.0229 22.9833 12.8314 22.9448 12.6607 22.8575C12.49 22.7702 12.3468 22.6375 12.2467 22.474C12.1467 22.3105 12.0938 22.1225 12.0938 21.9308V11.5197ZM24.589 10.9971C24.589 10.859 24.5341 10.7266 24.4365 10.629C24.3389 10.5314 24.2064 10.4766 24.0684 10.4766C23.9303 10.4766 23.7978 10.5314 23.7002 10.629C23.6026 10.7266 23.5477 10.859 23.5477 10.9971V22.4482C23.5477 22.5863 23.6026 22.7186 23.7002 22.8163C23.7978 22.9139 23.9303 22.9687 24.0684 22.9687C24.2064 22.9687 24.3389 22.9139 24.4365 22.8163C24.5341 22.7186 24.589 22.5863 24.589 22.4482V10.9971Z" fill="white"/>
</svg>
