<svg width="34" height="34" viewBox="0 0 34 34" fill="none" xmlns="http://www.w3.org/2000/svg">
<circle cx="16.6667" cy="16.6667" r="16.6667" transform="matrix(-1 0 0 1 33.8594 0)" fill="#7C7C7C"/>
<path d="M22.9246 10.8804H12.9246L14.008 9.80536C14.1649 9.64844 14.253 9.43561 14.253 9.2137C14.253 8.99178 14.1649 8.77895 14.008 8.62203C13.851 8.46511 13.6382 8.37695 13.4163 8.37695C13.1944 8.37695 12.9815 8.46511 12.8246 8.62203L10.3246 11.122C10.2465 11.1995 10.1845 11.2917 10.1422 11.3932C10.0999 11.4948 10.0781 11.6037 10.0781 11.7137C10.0781 11.8237 10.0999 11.9326 10.1422 12.0342C10.1845 12.1357 10.2465 12.2279 10.3246 12.3054L12.8246 14.8054C12.9021 14.8835 12.9943 14.9455 13.0958 14.9878C13.1974 15.0301 13.3063 15.0519 13.4163 15.0519C13.5263 15.0519 13.6352 15.0301 13.7368 14.9878C13.8383 14.9455 13.9305 14.8835 14.008 14.8054C14.0861 14.7279 14.1481 14.6357 14.1904 14.5342C14.2327 14.4326 14.2545 14.3237 14.2545 14.2137C14.2545 14.1037 14.2327 13.9948 14.1904 13.8932C14.1481 13.7917 14.0861 13.6995 14.008 13.622L12.9246 12.547H22.9246C23.0954 12.5437 23.2651 12.5741 23.4241 12.6364C23.583 12.6986 23.7282 12.7916 23.8513 12.91C23.9743 13.0284 24.0728 13.1699 24.1412 13.3264C24.2095 13.4829 24.2464 13.6513 24.2496 13.822V15.8804C24.2496 16.1014 24.3374 16.3133 24.4937 16.4696C24.65 16.6259 24.8619 16.7137 25.083 16.7137C25.304 16.7137 25.5159 16.6259 25.6722 16.4696C25.8285 16.3133 25.9163 16.1014 25.9163 15.8804V13.822C25.913 13.4324 25.833 13.0473 25.6809 12.6886C25.5288 12.3299 25.3075 12.0047 25.0297 11.7316C24.7519 11.4584 24.423 11.2426 24.0618 11.0966C23.7006 10.9505 23.3142 10.8771 22.9246 10.8804ZM23.1746 18.622C23.0177 18.4651 22.8049 18.377 22.583 18.377C22.361 18.377 22.1482 18.4651 21.9913 18.622C21.8344 18.7789 21.7462 18.9918 21.7462 19.2137C21.7462 19.4356 21.8344 19.6484 21.9913 19.8054L23.0746 20.8804H13.0746C12.9039 20.8837 12.7342 20.8533 12.5752 20.791C12.4162 20.7288 12.271 20.6358 12.148 20.5174C12.0249 20.399 11.9264 20.2575 11.8581 20.101C11.7897 19.9445 11.7529 19.7761 11.7496 19.6054V17.547C11.7496 17.326 11.6618 17.1141 11.5055 16.9578C11.3493 16.8015 11.1373 16.7137 10.9163 16.7137C10.6953 16.7137 10.4833 16.8015 10.327 16.9578C10.1708 17.1141 10.083 17.326 10.083 17.547V19.6054C10.0862 19.995 10.1662 20.3801 10.3183 20.7388C10.4704 21.0975 10.6917 21.4227 10.9695 21.6958C11.2473 21.969 11.5762 22.1848 11.9374 22.3308C12.2986 22.4769 12.685 22.5503 13.0746 22.547H23.0746L21.9913 23.622C21.9132 23.6995 21.8512 23.7917 21.8089 23.8932C21.7666 23.9948 21.7448 24.1037 21.7448 24.2137C21.7448 24.3237 21.7666 24.4326 21.8089 24.5342C21.8512 24.6357 21.9132 24.7279 21.9913 24.8054C22.0688 24.8835 22.1609 24.9455 22.2625 24.9878C22.364 25.0301 22.4729 25.0519 22.583 25.0519C22.693 25.0519 22.8019 25.0301 22.9034 24.9878C23.005 24.9455 23.0972 24.8835 23.1746 24.8054L25.6746 22.3054C25.7527 22.2279 25.8147 22.1357 25.857 22.0342C25.8993 21.9326 25.9211 21.8237 25.9211 21.7137C25.9211 21.6037 25.8993 21.4948 25.857 21.3932C25.8147 21.2917 25.7527 21.1995 25.6746 21.122L23.1746 18.622Z" fill="white"/>
</svg>
