<svg xmlns="http://www.w3.org/2000/svg" width="25" height="25" viewBox="0 0 25 25" fill="none">
<circle cx="12.5" cy="12.5" r="12.5" fill="#DC1010"/>
<path d="M14.375 6.25L14.0848 14.7115H11.5402L11.2501 6.25H14.375ZM12.8125 18.75C12.381 18.75 12.0108 18.5877 11.7021 18.2632C11.397 17.9347 11.2463 17.5361 11.2501 17.0673C11.2463 16.6106 11.397 16.22 11.7021 15.8954C12.0108 15.5709 12.381 15.4087 12.8125 15.4087C13.2218 15.4087 13.5826 15.5709 13.8951 15.8954C14.2113 16.22 14.3713 16.6106 14.375 17.0673C14.3713 17.3798 14.295 17.6643 14.1462 17.9207C14.0011 18.1731 13.8114 18.3754 13.577 18.5276C13.3427 18.6759 13.0878 18.75 12.8125 18.75Z" fill="white"/>
</svg>