<svg width="50" height="50" viewBox="0 0 50 50" fill="none" xmlns="http://www.w3.org/2000/svg">
<g clip-path="url(#clip0_8949_1038)">
<path d="M25.0007 49.9995C38.8077 49.9995 50.0005 38.8067 50.0005 24.9998C50.0005 11.1928 38.8077 0 25.0007 0C11.1937 0 0.000976563 11.1928 0.000976563 24.9998C0.000976563 38.8067 11.1937 49.9995 25.0007 49.9995Z" fill="white"/>
<g clip-path="url(#clip1_8949_1038)">
<path fill-rule="evenodd" clip-rule="evenodd" d="M25.001 9C27.54 9 29.9385 9.59115 32.0713 10.6432C31.3916 11.2344 30.8265 11.9557 30.415 12.7682C28.7588 12.0339 26.9281 11.625 25.001 11.625C17.6156 11.625 11.6286 17.612 11.6286 24.9974C11.6286 32.3828 17.6156 38.3698 25.001 38.3698C32.3864 38.3698 38.3734 32.3828 38.3734 24.9974C38.3734 24.2448 38.3109 23.5078 38.1911 22.7891C39.0921 22.5911 39.9281 22.2187 40.6624 21.7109C40.8838 22.7708 41.001 23.8698 41.001 24.9974C41.001 33.8333 33.8369 40.9974 25.001 40.9974C16.165 40.9974 9.00098 33.8359 9.00098 25C9.00098 16.1641 16.165 9 25.001 9ZM37.9176 14.763H40.5947V17.0312H37.9176V20.099H35.4437V17.0286H32.7588V14.7604H35.4437V11.7786H37.9176V14.763ZM26.5999 24.5208C26.0921 24.2526 25.7223 23.9479 25.4906 23.6146C25.1729 23.1589 25.014 22.6354 25.014 22.0443C25.014 21.0703 25.4723 20.2734 26.389 19.651C27.1051 19.1771 28.0505 18.9375 29.2275 18.9375C30.7874 18.9375 31.9359 19.2344 32.6833 19.8281C33.4281 20.4193 33.8005 21.1667 33.8005 22.0651C33.8005 22.5911 33.652 23.0781 33.3525 23.5339C33.1286 23.8724 32.777 24.2005 32.2979 24.5182C32.9281 24.8203 33.3994 25.2214 33.7093 25.7161C34.0218 26.2161 34.1755 26.7656 34.1755 27.3698C34.1755 27.9531 34.0426 28.4948 33.7744 29.0026C33.5062 29.5104 33.1781 29.901 32.79 30.1745C32.3994 30.4505 31.915 30.651 31.3369 30.7812C30.7562 30.9115 30.139 30.9766 29.4801 30.9766C28.2458 30.9766 27.3057 30.8307 26.652 30.5391C26.001 30.2474 25.5088 29.8177 25.1676 29.25C24.8291 28.6823 24.6572 28.0521 24.6572 27.3516C24.6572 26.6693 24.8161 26.0911 25.1338 25.6146C25.4515 25.1458 25.9385 24.7812 26.5999 24.5208ZM28.0583 22.2344C28.0583 22.6354 28.1859 22.9609 28.4385 23.2083C28.6911 23.4557 29.027 23.5781 29.4489 23.5781C29.8213 23.5781 30.126 23.4557 30.3656 23.2109C30.6077 22.9661 30.7249 22.651 30.7249 22.2682C30.7249 21.8646 30.5999 21.5391 30.3499 21.2865C30.0973 21.0339 29.777 20.9089 29.389 20.9089C28.9958 20.9089 28.6729 21.0312 28.4255 21.2786C28.1807 21.5234 28.0583 21.8437 28.0583 22.2344ZM27.8786 27.2448C27.8786 27.7604 28.0348 28.1771 28.3473 28.5052C28.6598 28.8307 29.0166 28.9922 29.4176 28.9922C29.8057 28.9922 30.152 28.8255 30.4593 28.4948C30.7666 28.1641 30.9202 27.7448 30.9202 27.2344C30.9202 26.7187 30.7666 26.2995 30.4567 25.9714C30.1442 25.6432 29.7874 25.4792 29.3812 25.4792C28.9775 25.4792 28.626 25.638 28.3291 25.9557C28.027 26.2734 27.8786 26.7057 27.8786 27.2448ZM22.4984 18.9375V30.7839H19.2275V23.0339C18.6989 23.4349 18.1859 23.7578 17.6911 24.0052C17.1937 24.2526 16.5739 24.4896 15.8291 24.7161V22.0781C16.9307 21.7214 17.7874 21.2917 18.3942 20.7917C19.0036 20.2891 19.4827 19.6719 19.8265 18.9375H22.4984Z" fill="#FC2626"/>
</g>
</g>
<defs>
<clipPath id="clip0_8949_1038">
<rect width="50" height="50" fill="white"/>
</clipPath>
<clipPath id="clip1_8949_1038">
<rect width="32" height="32" fill="white" transform="translate(9.00098 9)"/>
</clipPath>
</defs>
</svg>
