<svg width="50" height="50" viewBox="0 0 50 50" fill="none" xmlns="http://www.w3.org/2000/svg">
<g clip-path="url(#clip0_7106_9824)">
<path d="M25.1638 50.0142C38.9708 50.0142 50.1636 38.8214 50.1636 25.0144C50.1636 11.2074 38.9708 0.0146484 25.1638 0.0146484C11.3568 0.0146484 0.164063 11.2074 0.164063 25.0144C0.164063 38.8214 11.3568 50.0142 25.1638 50.0142Z" fill="white"/>
<path d="M32.8397 19.7159L32.4371 34.3408C32.4028 35.5934 31.9631 36.7806 31.2113 37.6504C30.4595 38.5203 29.4548 39.0044 28.4105 39H20.76C19.7163 39.0045 18.7122 38.521 17.9606 37.6522C17.2089 36.7833 16.7688 35.5973 16.7334 34.3457L16.3308 19.7159C16.322 19.3955 16.4196 19.0841 16.6021 18.8501C16.7847 18.6161 17.0372 18.4787 17.3042 18.4681C17.5712 18.4575 17.8307 18.5746 18.0257 18.7937C18.2207 19.0128 18.3353 19.3158 18.3441 19.6362L18.7467 34.2647C18.7668 34.8892 18.9877 35.4801 19.3631 35.9132C19.7385 36.3464 20.2392 36.5881 20.76 36.5877H28.4105C28.932 36.5881 29.4332 36.3457 29.8087 35.9115C30.1843 35.4773 30.4047 34.8852 30.4238 34.2599L30.8264 19.6362C30.8352 19.3158 30.9497 19.0128 31.1448 18.7937C31.3398 18.5746 31.5993 18.4575 31.8663 18.4681C32.1333 18.4787 32.3858 18.6161 32.5684 18.8501C32.7509 19.0841 32.8485 19.3955 32.8397 19.7159ZM34.1715 14.849C34.1715 15.1694 34.0654 15.4766 33.8767 15.7032C33.6879 15.9297 33.4318 16.057 33.1649 16.057H16.0066C15.7397 16.057 15.4836 15.9297 15.2948 15.7032C15.1061 15.4766 15 15.1694 15 14.849C15 14.5286 15.1061 14.2214 15.2948 13.9948C15.4836 13.7683 15.7397 13.641 16.0066 13.641H19.1272C19.4462 13.6421 19.754 13.5007 19.9909 13.2443C20.2278 12.988 20.3767 12.6351 20.4087 12.2543C20.483 11.361 20.8317 10.5328 21.387 9.93125C21.9423 9.32965 22.6644 8.99768 23.4125 9.00001H25.758C26.5061 8.99768 27.2282 9.32965 27.7835 9.93125C28.3388 10.5328 28.6875 11.361 28.7618 12.2543C28.7938 12.6351 28.9427 12.988 29.1796 13.2443C29.4164 13.5007 29.7243 13.6421 30.0433 13.641H33.1639C33.4308 13.641 33.6869 13.7683 33.8757 13.9948C34.0644 14.2214 34.1705 14.5286 34.1705 14.849H34.1715ZM22.1562 13.641H27.0163C26.884 13.2783 26.7975 12.894 26.7596 12.5007C26.7347 12.203 26.6185 11.9269 26.4336 11.7261C26.2488 11.5252 26.0084 11.4138 25.759 11.4135H23.4135C23.1641 11.4138 22.9237 11.5252 22.7389 11.7261C22.554 11.9269 22.4379 12.203 22.4129 12.5007C22.3747 12.8941 22.2888 13.2784 22.1562 13.641ZM23.1699 31.943V21.6571C23.1699 21.3368 23.0639 21.0295 22.8751 20.803C22.6863 20.5764 22.4302 20.4492 22.1633 20.4492C21.8963 20.4492 21.6402 20.5764 21.4515 20.803C21.2627 21.0295 21.1566 21.3368 21.1566 21.6571V31.9478C21.1566 32.2682 21.2627 32.5755 21.4515 32.802C21.6402 33.0285 21.8963 33.1558 22.1633 33.1558C22.4302 33.1558 22.6863 33.0285 22.8751 32.802C23.0639 32.5755 23.1699 32.2682 23.1699 31.9478V31.943ZM28.0159 31.943V21.6571C28.0159 21.3368 27.9098 21.0295 27.721 20.803C27.5323 20.5764 27.2762 20.4492 27.0092 20.4492C26.7423 20.4492 26.4862 20.5764 26.2974 20.803C26.1087 21.0295 26.0026 21.3368 26.0026 21.6571V31.9478C26.0026 32.2682 26.1087 32.5755 26.2974 32.802C26.4862 33.0285 26.7423 33.1558 27.0092 33.1558C27.2762 33.1558 27.5323 33.0285 27.721 32.802C27.9098 32.5755 28.0159 32.2682 28.0159 31.9478V31.943Z" fill="#818181"/>
</g>
<defs>
<clipPath id="clip0_7106_9824">
<rect width="50" height="50" fill="white"/>
</clipPath>
</defs>
</svg>
