<svg width="50" height="50" viewBox="0 0 50 50" fill="none" xmlns="http://www.w3.org/2000/svg">
<g clip-path="url(#clip0_6803_15327)">
<path d="M24.9998 49.999C38.8067 49.999 49.9995 38.8063 49.9995 24.9993C49.9995 11.1923 38.8067 -0.000488281 24.9998 -0.000488281C11.1928 -0.000488281 0 11.1923 0 24.9993C0 38.8063 11.1928 49.999 24.9998 49.999Z" fill="white"/>
<g clip-path="url(#clip1_6803_15327)">
<path d="M13.0156 26.9107C13.0156 22.3844 13.013 17.8583 13.0078 13.3325C13.0078 12.9791 13.094 12.8454 13.4544 12.8515C14.8339 12.873 16.2133 12.8196 17.5928 12.8825C17.8816 12.8954 17.9713 13.0015 17.9644 13.2679C17.9552 13.684 17.9552 14.1004 17.9644 14.5172C17.9713 14.8249 17.8514 14.956 17.5333 14.9482C16.9444 14.931 16.3547 14.937 15.7659 14.9482C15.2856 14.956 15.0848 15.1569 15.0692 15.6293C15.0598 15.9164 15.0692 16.2044 15.0692 16.4915V37.9593C15.0692 38.812 15.1925 38.9405 16.0306 38.9413C21.8358 38.9413 27.641 38.9413 33.4462 38.9413C34.1679 38.9413 34.3187 38.7853 34.3187 38.0464C34.3187 30.6761 34.3187 23.3052 34.3187 15.9337C34.3187 15.0551 34.2092 14.9491 33.3203 14.9474C32.8177 14.9474 32.3142 14.9362 31.8116 14.9474C31.5314 14.9543 31.4201 14.831 31.4219 14.5646C31.4219 14.1188 31.427 13.6731 31.4219 13.2282C31.4176 12.9989 31.5038 12.8911 31.746 12.8834C33.1962 12.8247 34.6472 12.8661 36.0982 12.8635C36.2922 12.8635 36.3819 12.9592 36.3715 13.1601C36.3612 13.3757 36.3715 13.5912 36.3715 13.8067C36.3715 22.7008 36.3747 31.5949 36.381 40.4889C36.381 40.9088 36.2801 41.0062 35.8637 41.0062C28.4066 40.9913 20.9495 40.9913 13.4923 41.0062C13.1113 41.0062 13.0121 40.9243 13.013 40.5407C13.0268 36.0005 13.0216 31.4595 13.0216 26.9185L13.0156 26.9107Z" fill="#707175"/>
<path d="M24.6907 16.7536C22.9969 16.7536 21.3027 16.7536 19.6083 16.7536C18.6746 16.7536 18.3452 16.4596 18.3288 15.5405C18.3047 14.2197 18.3202 12.8971 18.3047 11.578C18.3047 11.2082 18.4495 11.0797 18.822 11.0875C19.7704 11.1081 20.7187 11.0875 21.6671 11.0987C21.9396 11.0987 22.0835 11.0185 22.1542 10.7409C22.3913 9.80025 23.0724 9.29761 23.9596 9.08724C25.477 8.72772 27.0117 9.51315 27.2462 10.8228C27.2944 11.09 27.4919 11.0961 27.7048 11.0952C28.6661 11.0952 29.6283 11.1064 30.5905 11.0875C30.9517 11.0806 31.0673 11.2211 31.0647 11.5668C31.0543 12.9161 31.0647 14.2662 31.0578 15.619C31.0509 16.3811 30.6707 16.7519 29.9042 16.7544C28.1652 16.7579 26.428 16.7536 24.6907 16.7536Z" fill="#707175"/>
<path d="M24.6493 21.8359H18.4418C17.7667 21.8359 17.7667 21.8359 17.7658 21.141C17.7658 20.7962 17.7727 20.4513 17.7658 20.1064C17.7598 19.8478 17.8831 19.7392 18.1297 19.7417C18.2297 19.7417 18.3306 19.7417 18.4314 19.7417H30.9328C31.6087 19.7417 31.6087 19.7417 31.6096 20.3996C31.6096 20.716 31.5906 21.0333 31.6096 21.3479C31.6372 21.7247 31.4889 21.848 31.113 21.8454C28.9593 21.829 26.8039 21.8359 24.6493 21.8359Z" fill="#707175"/>
<path d="M24.6907 26.7475H18.528C17.7658 26.7475 17.7658 26.7475 17.7658 25.9638C17.7658 25.6474 17.7727 25.3318 17.7658 25.0154C17.7598 24.7567 17.8796 24.6464 18.1288 24.649C18.2288 24.649 18.3297 24.649 18.4297 24.649H30.9311C31.607 24.649 31.607 24.649 31.607 25.3068C31.607 25.6086 31.5863 25.9103 31.6113 26.2112C31.6458 26.6233 31.488 26.7613 31.0724 26.7578C29.0757 26.7406 27.0789 26.7501 25.0821 26.7501L24.6907 26.7475Z" fill="#707175"/>
<path d="M24.6961 29.5549C26.8079 29.5549 28.9196 29.5549 31.0313 29.5549C31.5943 29.5549 31.6064 29.5705 31.6081 30.1386C31.6081 30.455 31.6081 30.7706 31.6081 31.087C31.6081 31.644 31.596 31.6526 31.0184 31.656H18.3894C17.7713 31.656 17.7713 31.656 17.7695 31.0292C17.7695 30.7419 17.7695 30.4545 17.7695 30.1671C17.7695 29.5558 17.7695 29.5541 18.4041 29.5532L24.6961 29.5549Z" fill="#707175"/>
<path d="M24.6436 36.566C22.5456 36.566 20.4477 36.566 18.3498 36.566C17.7808 36.566 17.7687 36.5505 17.7661 35.9884C17.7661 35.6151 17.7764 35.2418 17.7661 34.8676C17.7566 34.5684 17.8902 34.4451 18.1791 34.4649C18.2506 34.4693 18.3231 34.4649 18.3946 34.4649H30.9805C31.6055 34.4649 31.6055 34.4649 31.6072 35.0831C31.6072 35.4133 31.5891 35.7453 31.6116 36.0737C31.6383 36.4548 31.4779 36.5729 31.1098 36.5712C29.2708 36.5591 27.4318 36.566 25.5919 36.566H24.6436Z" fill="#707175"/>
</g>
<path d="M21.3239 19.2308C20.7801 19.2308 20.2363 19.2308 19.6925 19.2308C19.2696 19.2278 19.0061 18.9935 19.0001 18.6282C18.9941 18.2629 19.269 18.004 19.7016 18.0022C20.7783 17.9993 21.8547 17.9993 22.931 18.0022C23.3739 18.0022 23.6404 18.2414 23.6392 18.6208C23.6379 19.0002 23.3636 19.2278 22.9226 19.2296C22.3903 19.2321 21.8574 19.2308 21.3239 19.2308Z" fill="white" stroke="white" stroke-width="0.3"/>
</g>
<defs>
<clipPath id="clip0_6803_15327">
<rect width="50" height="50" fill="white"/>
</clipPath>
<clipPath id="clip1_6803_15327">
<rect width="23.3698" height="32" fill="white" transform="translate(13 9)"/>
</clipPath>
</defs>
</svg>
