<svg xmlns="http://www.w3.org/2000/svg" width="16" height="16" viewBox="0 0 16 16" fill="none">
  <path d="M14.6512 6.83721H8.7907V0.976744C8.7907 0.717695 8.68779 0.469257 8.50462 0.286082C8.32144 0.102907 8.073 0 7.81395 0C7.5549 0 7.30647 0.102907 7.12329 0.286082C6.94012 0.469257 6.83721 0.717695 6.83721 0.976744V6.83721H0.976744C0.717695 6.83721 0.469257 6.94012 0.286082 7.12329C0.102907 7.30647 0 7.5549 0 7.81395C0 8.073 0.102907 8.32144 0.286082 8.50462C0.469257 8.68779 0.717695 8.7907 0.976744 8.7907H6.83721V14.6512C6.83721 14.9102 6.94012 15.1587 7.12329 15.3418C7.30647 15.525 7.5549 15.6279 7.81395 15.6279C8.073 15.6279 8.32144 15.525 8.50462 15.3418C8.68779 15.1587 8.7907 14.9102 8.7907 14.6512V8.7907H14.6512C14.9102 8.7907 15.1587 8.68779 15.3418 8.50462C15.525 8.32144 15.6279 8.073 15.6279 7.81395C15.6279 7.5549 15.525 7.30647 15.3418 7.12329C15.1587 6.94012 14.9102 6.83721 14.6512 6.83721Z" fill="#BCBCBC"/>
</svg>