<svg width="37" height="37" viewBox="0 0 37 37" fill="none" xmlns="http://www.w3.org/2000/svg">
<path id="Vector" d="M19.2498 19.9905L15.069 24.1521C14.8986 24.321 14.7634 24.522 14.6711 24.7435C14.5788 24.9649 14.5313 25.2025 14.5313 25.4424C14.5313 25.6823 14.5788 25.9198 14.6711 26.1413C14.7634 26.3627 14.8986 26.5637 15.069 26.7326C15.238 26.903 15.439 27.0382 15.6606 27.1304C15.8821 27.2227 16.1196 27.2702 16.3596 27.2702C16.5996 27.2702 16.8372 27.2227 17.0587 27.1304C17.2802 27.0382 17.4812 26.903 17.6502 26.7326L24.9211 19.4634C25.0866 19.2906 25.2163 19.0868 25.3029 18.8637C25.4847 18.4213 25.4847 17.925 25.3029 17.4826C25.2163 17.2595 25.0866 17.0557 24.9211 16.8829L17.6502 9.61369C17.4807 9.44425 17.2795 9.30984 17.0581 9.21814C16.8366 9.12644 16.5993 9.07924 16.3596 9.07924C16.1199 9.07924 15.8826 9.12644 15.6611 9.21814C15.4397 9.30984 15.2385 9.44425 15.069 9.61369C14.8995 9.78313 14.7651 9.98429 14.6734 10.2057C14.5816 10.4271 14.5344 10.6643 14.5344 10.904C14.5344 11.1436 14.5816 11.3809 14.6734 11.6023C14.7651 11.8237 14.8995 12.0248 15.069 12.1943L19.2498 16.3559H1.81773C1.33564 16.3559 0.873293 16.5473 0.532402 16.8881C0.191511 17.229 0 17.6912 0 18.1732C0 18.6551 0.191511 19.1174 0.532402 19.4582C0.873293 19.799 1.33564 19.9905 1.81773 19.9905H19.2498ZM18.1773 0.000181173C14.7802 -0.014982 11.4467 0.921938 8.55511 2.70467C5.6635 4.4874 3.32946 7.04459 1.81773 10.0862C1.60079 10.52 1.5651 11.0221 1.7185 11.4822C1.8719 11.9423 2.20183 12.3226 2.63571 12.5395C3.0696 12.7564 3.57189 12.7921 4.03209 12.6388C4.4923 12.4854 4.87271 12.1555 5.08966 11.7218C6.23881 9.40165 7.98682 7.43042 10.153 6.01178C12.3193 4.59314 14.8251 3.77856 17.4116 3.65221C19.9981 3.52586 22.5715 4.09233 24.8657 5.29308C27.16 6.49383 29.0919 8.2853 30.4618 10.4824C31.8317 12.6794 32.5899 15.2023 32.6581 17.7904C32.7263 20.3785 32.102 22.9378 30.8497 25.204C29.5974 27.4701 27.7625 29.3607 25.5347 30.6806C23.3069 32.0004 20.7669 32.7016 18.1773 32.7116C15.4669 32.7233 12.808 31.9708 10.5059 30.5403C8.20385 29.1099 6.35181 27.0596 5.16237 24.6246C4.94542 24.1908 4.56501 23.8609 4.1048 23.7076C3.6446 23.5542 3.14231 23.5899 2.70842 23.8068C2.27454 24.0237 1.94461 24.404 1.79121 24.8641C1.6378 25.3242 1.6735 25.8264 1.89044 26.2601C3.33159 29.1597 5.52141 31.6216 8.23337 33.3913C10.9453 35.161 14.081 36.1742 17.316 36.3261C20.5509 36.478 23.7678 35.7631 26.6337 34.2554C29.4997 32.7476 31.9106 30.5017 33.6173 27.75C35.324 24.9983 36.2643 21.8407 36.341 18.6039C36.4178 15.367 35.6282 12.1684 34.0539 9.33897C32.4796 6.50951 30.1777 4.15192 27.3865 2.51006C24.5952 0.868205 21.4159 0.00170126 18.1773 0.000181173Z" fill="white"/>
</svg>
