<svg width="44" height="40" viewBox="0 0 44 40" fill="none" xmlns="http://www.w3.org/2000/svg">
<ellipse cx="21.5214" cy="20" rx="21.5214" ry="20" fill="#BB3434"/>
<path d="M43.044 21.3334L31.9246 12.6667L29.4138 17.0001L20.0879 25.3334C22.5987 30.6667 25.4682 35.6667 27.6204 39.0001C33.0007 37.6667 36.5498 34.4134 38.3811 32.3334C41.6093 28.6667 42.6853 25.0001 43.044 21.3334Z" fill="#AE2828"/>
<path d="M27.7266 27.2623C28.1303 27.2455 28.6569 27.2611 29.0955 27.1301L31.995 17.6493C31.6961 17.3234 31.2394 17.0793 30.9056 16.8677L32.1283 12.8698C28.195 11.8309 24.3354 13.1572 21.7943 15.8192C20.4785 16.2124 19.4266 17.0457 18.8664 18.0088L14.9331 16.9699L15.2824 15.8276L14.0533 15.503L14.4026 14.3607L11.9443 13.7115L9.84825 20.565L12.3066 21.2143L12.6559 20.072L13.885 20.3967L14.2344 19.2544L18.1677 20.2933C18.1871 21.533 18.6451 22.6415 19.5068 23.7333C19.9855 26.9461 22.6055 30.1071 26.5388 31.146L27.7266 27.2623ZM30.5148 13.8017L29.7463 16.3146C29.2016 15.9239 28.7099 15.794 27.9724 15.5992C26.7433 15.2746 25.6901 15.2433 24.602 15.3263C26.4431 14.0842 28.2325 13.4457 30.5148 13.8017ZM21.6158 25.5249C22.4943 26.1273 23.2848 26.583 24.514 26.9076C25.1285 27.0699 25.6202 27.1998 26.2697 27.2479L25.5361 29.6466C23.6743 28.7845 22.3908 27.3344 21.6158 25.5249Z" fill="white"/>
</svg>
