<svg width="40" height="40" viewBox="0 0 40 40" fill="none" xmlns="http://www.w3.org/2000/svg">
<circle cx="20" cy="20" r="20" fill="#A3A3A3"/>
<path d="M31.8425 19.1303C31.0425 17.7428 26.6425 10.7803 19.1675 11.0053C12.255 11.1803 8.25497 17.2553 7.16747 19.1303C7.05776 19.3204 7 19.5359 7 19.7553C7 19.9748 7.05776 20.1903 7.16747 20.3803C7.95497 21.7428 12.1675 28.5053 19.53 28.5053H19.8425C26.755 28.3303 30.7675 22.2553 31.8425 20.3803C31.9522 20.1903 32.0099 19.9748 32.0099 19.7553C32.0099 19.5359 31.9522 19.3204 31.8425 19.1303ZM19.78 26.0053C14.3925 26.1303 10.88 21.5178 9.77997 19.7553C11.03 17.7428 14.2925 13.6303 19.2925 13.5053C24.655 13.3678 28.18 17.9928 29.2925 19.7553C28.005 21.7678 24.78 25.8803 19.78 26.0053Z" fill="white"/>
<line x1="28.1548" y1="10.1157" x2="11.1157" y2="29.8452" stroke="white" stroke-width="3" stroke-linecap="round"/>
<path d="M19.5137 15.3809C18.6484 15.3809 17.8025 15.6374 17.0831 16.1182C16.3636 16.5989 15.8028 17.2822 15.4717 18.0816C15.1406 18.881 15.0539 19.7607 15.2227 20.6094C15.3915 21.458 15.8082 22.2376 16.4201 22.8495C17.0319 23.4613 17.8115 23.878 18.6602 24.0468C19.5088 24.2156 20.3885 24.129 21.1879 23.7978C21.9873 23.4667 22.6706 22.9059 23.1514 22.1865C23.6321 21.467 23.8887 20.6212 23.8887 19.7559C23.8887 18.5955 23.4277 17.4827 22.6073 16.6623C21.7868 15.8418 20.674 15.3809 19.5137 15.3809ZM19.5137 21.6309C19.1428 21.6309 18.7803 21.5209 18.472 21.3149C18.1636 21.1088 17.9233 20.816 17.7814 20.4734C17.6395 20.1308 17.6024 19.7538 17.6747 19.3901C17.747 19.0263 17.9256 18.6923 18.1878 18.43C18.4501 18.1678 18.7842 17.9892 19.1479 17.9169C19.5116 17.8445 19.8886 17.8817 20.2312 18.0236C20.5738 18.1655 20.8667 18.4058 21.0727 18.7142C21.2787 19.0225 21.3887 19.385 21.3887 19.7559C21.3887 20.2531 21.1911 20.7301 20.8395 21.0817C20.4879 21.4333 20.011 21.6309 19.5137 21.6309Z" fill="white"/>
</svg>
