<svg width="30" height="30" viewBox="0 0 30 30" fill="none" xmlns="http://www.w3.org/2000/svg">
<g id="Layer_1" clip-path="url(#clip0_2367_2170)">
<path id="Vector" d="M14.4506 0.0113308C15.1397 -0.0374888 15.8289 0.105067 16.4459 0.424035C20.4791 2.40559 24.3941 4.60229 27.9827 7.36242C29.7043 8.68834 30.4397 11.2553 29.7214 13.2676C29.3067 14.4311 28.5414 15.2257 27.3385 15.4379C26.0245 15.6706 24.9599 15.1277 24.1433 14.0871C24.0034 13.9119 23.8992 13.7097 23.8369 13.4923C23.7746 13.275 23.7555 13.047 23.7806 12.822C23.8057 12.5969 23.8746 12.3793 23.9832 12.1821C24.0917 11.9848 24.2378 11.812 24.4126 11.6739C25.2392 11.0563 26.2269 11.4309 26.4221 12.4568C26.4977 12.8534 26.5903 13.2149 27.0606 13.1476C27.5309 13.0803 27.5352 12.6719 27.5209 12.2929C27.4668 10.8221 26.0715 9.88108 24.5181 10.2674C23.8227 10.4474 23.1963 10.8386 22.7209 11.3899C20.9181 13.3934 20.1285 15.8301 19.7551 18.46C19.4272 20.7741 19.225 23.1052 19.1494 25.4423C19.0397 28.8844 15.9399 30.9289 12.8473 29.5796C8.51619 27.6902 4.60693 25.1482 1.44589 21.5129C0.267264 20.1606 -0.299957 18.6166 0.163226 16.7975C0.515245 15.4131 1.38033 15.1613 2.38935 16.1287C5.28104 18.9093 8.46774 21.2802 11.7955 23.4666C12.5395 23.9554 12.9357 24.5086 12.9485 25.4687C12.9727 27.2746 14.0801 28.3854 15.5566 28.2493C15.8894 28.2207 16.2113 28.1135 16.4972 27.9361C16.7466 27.7898 16.872 27.5497 16.7822 27.2541C16.6924 26.9585 16.4487 26.8707 16.1594 26.8868C14.2981 26.9892 14.2369 26.9278 14.1043 24.9623C14.0316 23.9013 13.4858 23.1651 12.6236 22.6076C9.98739 20.9093 7.46619 19.0298 5.07724 16.9819C4.7694 16.7156 4.46726 16.4404 4.16797 16.1624C3.97258 15.9976 3.82811 15.778 3.75219 15.5303C3.67627 15.2827 3.67218 15.0177 3.74042 14.7677C4.81215 10.5836 6.29149 6.59263 9.02641 3.20612C9.75524 2.30245 10.6123 1.51654 11.5689 0.874787C12.4326 0.299637 13.3789 -0.0706244 14.4506 0.0113308Z" fill="white"/>
</g>
<defs>
<clipPath id="clip0_2367_2170">
<rect width="30" height="30" fill="white"/>
</clipPath>
</defs>
</svg>
