<svg width="74" height="74" viewBox="0 0 74 74" fill="none" xmlns="http://www.w3.org/2000/svg">
<path d="M73.6 36.5721C73.5957 29.6225 71.5767 22.8197 67.7818 16.9688C63.987 11.118 58.5753 6.46425 52.1874 3.5584C45.7994 0.652549 38.7027 -0.383685 31.7374 0.572366C24.7721 1.52842 18.2298 4.43672 12.885 8.95299C7.54016 13.4693 3.61665 19.4044 1.5789 26.0558C-0.458846 32.7071 -0.525497 39.7963 1.38684 46.4839C3.29917 53.1716 7.11041 59.1777 12.3694 63.7914C17.6284 68.405 24.1149 71.4329 31.061 72.5167V47.0943H21.6974V36.5721H31.061V28.5622C31.061 19.4579 36.5483 14.4082 44.9554 14.4082C47.7134 14.4465 50.4646 14.6877 53.1863 15.1296V24.0847H48.5549C47.7651 23.9808 46.9618 24.0538 46.2045 24.2984C45.4472 24.5429 44.7553 24.9527 44.1799 25.4973C43.6046 26.042 43.1607 26.7076 42.881 27.4448C42.6013 28.1821 42.493 28.972 42.5642 29.7562V36.5721H52.8591L51.223 47.0943H42.6648V72.5167C51.3015 71.1338 59.1577 66.7571 64.8262 60.1707C70.4947 53.5843 73.605 45.2185 73.6 36.5721Z" fill="url(#paint0_linear_532_9503)"/>
<path d="M51.1222 47.9809L52.859 37.4587H42.564V30.6429C42.4929 29.8587 42.6012 29.0687 42.8809 28.3315C43.1606 27.5943 43.6045 26.9287 44.1798 26.384C44.7551 25.8393 45.4471 25.4296 46.2044 25.185C46.9617 24.9405 47.765 24.8675 48.5547 24.9714H53.1862V16.0163C50.4645 15.5743 47.7132 15.3332 44.9553 15.2949C36.5482 15.2949 31.0609 20.27 31.0609 29.4489V37.4587H21.6973V47.9809H31.0609V73.4034C32.9607 73.684 34.8789 73.8253 36.7999 73.8263C38.7291 73.8244 40.6556 73.683 42.564 73.4034V47.9809H51.1222Z" fill="white"/>
<defs>
<linearGradient id="paint0_linear_532_9503" x1="10.7732" y1="10.8511" x2="62.2115" y2="62.9011" gradientUnits="userSpaceOnUse">
<stop stop-color="#4676ED"/>
<stop offset="0.19" stop-color="#436DE4"/>
<stop offset="0.49" stop-color="#3C55CD"/>
<stop offset="0.87" stop-color="#302EA8"/>
<stop offset="1" stop-color="#2B1E99"/>
</linearGradient>
</defs>
</svg>
