<svg width="19" height="19" viewBox="0 0 19 19" fill="none" xmlns="http://www.w3.org/2000/svg">
<path id="Vector" fill-rule="evenodd" clip-rule="evenodd" d="M17.9442 2.11367H16.7092C16.4911 1.49561 16.0867 0.96042 15.5517 0.581856C15.0167 0.203293 14.3774 0 13.722 0C13.0666 0 12.4274 0.203293 11.8924 0.581856C11.3573 0.96042 10.9529 1.49561 10.7348 2.11367H1.05554C0.775594 2.11367 0.507113 2.22488 0.309161 2.42283C0.111208 2.62078 0 2.88926 0 3.16921C0 3.44915 0.111208 3.71764 0.309161 3.91559C0.507113 4.11354 0.775594 4.22475 1.05554 4.22475H10.7348C10.9529 4.8428 11.3573 5.378 11.8924 5.75656C12.4274 6.13512 13.0666 6.33842 13.722 6.33842C14.3774 6.33842 15.0167 6.13512 15.5517 5.75656C16.0867 5.378 16.4911 4.8428 16.7092 4.22475H17.9442C18.2241 4.22475 18.4926 4.11354 18.6906 3.91559C18.8885 3.71764 18.9997 3.44915 18.9997 3.16921C18.9997 2.88926 18.8885 2.62078 18.6906 2.42283C18.4926 2.22488 18.2241 2.11367 17.9442 2.11367ZM13.722 4.22475C14.002 4.22475 14.2705 4.11354 14.4684 3.91559C14.6664 3.71764 14.7776 3.44915 14.7776 3.16921C14.7776 2.88926 14.6664 2.62078 14.4684 2.42283C14.2705 2.22488 14.002 2.11367 13.722 2.11367C13.4421 2.11367 13.1736 2.22488 12.9756 2.42283C12.7777 2.62078 12.6665 2.88926 12.6665 3.16921C12.6665 3.44915 12.7777 3.71764 12.9756 3.91559C13.1736 4.11354 13.4421 4.22475 13.722 4.22475ZM0 9.50245C0 9.2225 0.111208 8.95402 0.309161 8.75607C0.507113 8.55812 0.775594 8.44691 1.05554 8.44691H2.29052C2.5086 7.82886 2.91302 7.29366 3.44803 6.9151C3.98304 6.53653 4.6223 6.33324 5.2777 6.33324C5.9331 6.33324 6.57236 6.53653 7.10738 6.9151C7.64239 7.29366 8.0468 7.82886 8.26488 8.44691H17.9442C18.2241 8.44691 18.4926 8.55812 18.6906 8.75607C18.8885 8.95402 18.9997 9.2225 18.9997 9.50245C18.9997 9.7824 18.8885 10.0509 18.6906 10.2488C18.4926 10.4468 18.2241 10.558 17.9442 10.558H8.26488C8.0468 11.176 7.64239 11.7112 7.10738 12.0898C6.57236 12.4684 5.9331 12.6717 5.2777 12.6717C4.6223 12.6717 3.98304 12.4684 3.44803 12.0898C2.91302 11.7112 2.5086 11.176 2.29052 10.558H1.05554C0.775594 10.558 0.507113 10.4468 0.309161 10.2488C0.111208 10.0509 0 9.7824 0 9.50245ZM5.2777 10.558C5.55765 10.558 5.82613 10.4468 6.02408 10.2488C6.22203 10.0509 6.33324 9.7824 6.33324 9.50245C6.33324 9.2225 6.22203 8.95402 6.02408 8.75607C5.82613 8.55812 5.55765 8.44691 5.2777 8.44691C4.99776 8.44691 4.72927 8.55812 4.53132 8.75607C4.33337 8.95402 4.22216 9.2225 4.22216 9.50245C4.22216 9.7824 4.33337 10.0509 4.53132 10.2488C4.72927 10.4468 4.99776 10.558 5.2777 10.558ZM1.05554 14.7802C0.775594 14.7802 0.507113 14.8914 0.309161 15.0893C0.111208 15.2873 0 15.5557 0 15.8357C0 16.1156 0.111208 16.3841 0.309161 16.5821C0.507113 16.78 0.775594 16.8912 1.05554 16.8912H10.7348C10.9529 17.5093 11.3573 18.0445 11.8924 18.423C12.4274 18.8016 13.0666 19.0049 13.722 19.0049C14.3774 19.0049 15.0167 18.8016 15.5517 18.423C16.0867 18.0445 16.4911 17.5093 16.7092 16.8912H17.9442C18.2241 16.8912 18.4926 16.78 18.6906 16.5821C18.8885 16.3841 18.9997 16.1156 18.9997 15.8357C18.9997 15.5557 18.8885 15.2873 18.6906 15.0893C18.4926 14.8914 18.2241 14.7802 17.9442 14.7802H16.7092C16.4911 14.1621 16.0867 13.6269 15.5517 13.2483C15.0167 12.8698 14.3774 12.6665 13.722 12.6665C13.0666 12.6665 12.4274 12.8698 11.8924 13.2483C11.3573 13.6269 10.9529 14.1621 10.7348 14.7802H1.05554ZM14.7776 15.8357C14.7776 16.1156 14.6664 16.3841 14.4684 16.5821C14.2705 16.78 14.002 16.8912 13.722 16.8912C13.4421 16.8912 13.1736 16.78 12.9756 16.5821C12.7777 16.3841 12.6665 16.1156 12.6665 15.8357C12.6665 15.5557 12.7777 15.2873 12.9756 15.0893C13.1736 14.8914 13.4421 14.7802 13.722 14.7802C14.002 14.7802 14.2705 14.8914 14.4684 15.0893C14.6664 15.2873 14.7776 15.5557 14.7776 15.8357Z" fill="#888888"/>
</svg>
