<svg width="74" height="74" viewBox="0 0 74 74" fill="none" xmlns="http://www.w3.org/2000/svg">
<path d="M73.3223 37.3047C73.4756 17.134 57.2484 0.6581 37.0777 0.504708C16.9071 0.351317 0.431131 16.5785 0.27774 36.7492C0.124348 56.9199 16.3516 73.3958 36.5223 73.5492C56.6929 73.7026 73.1689 57.4754 73.3223 37.3047Z" fill="url(#paint0_radial_532_9482)"/>
<g clip-path="url(#clip0_532_9482)">
<path d="M37.867 29.9442C37.9352 29.8763 37.9352 29.8084 38.0035 29.8084L39.9832 28.7219L38.0035 27.6354C37.9352 27.5675 37.867 27.5675 37.867 27.4996L36.7747 25.5303L35.6824 27.4996C35.6142 27.5675 35.6142 27.6354 35.5459 27.6354L33.5662 28.654L35.5459 29.7405C35.6142 29.8084 35.6824 29.8084 35.6824 29.8763L36.7747 31.8456L37.867 29.9442Z" fill="white"/>
<path d="M31.3816 43.9327C32.3373 45.5624 33.4296 47.328 34.4536 49.1615C35.3411 50.6555 36.1603 51.8778 36.5699 52.6248C36.5699 52.6927 36.6381 52.6927 36.6381 52.7606C37.0477 52.1494 37.6621 51.0629 38.4813 49.6369C38.5496 49.5011 38.6861 49.2973 38.7544 49.1615C39.3688 48.2108 39.9149 47.1922 40.4611 46.3094C40.9389 45.5624 41.3485 44.7475 41.7581 44.0006C48.38 32.66 49.3357 29.6042 49.3357 28.7893C49.404 21.9307 43.6013 16.3623 36.5016 16.3623C29.4019 16.3623 23.6675 21.9307 23.6675 28.7214C23.6675 29.5363 24.5549 32.3884 30.4941 42.5745C30.8355 43.0499 31.1085 43.5252 31.3816 43.9327ZM27.9 28.7893C27.9 24.0358 31.7229 20.1651 36.5699 20.1651C41.4168 20.1651 45.2397 23.9679 45.2397 28.7893C45.2397 33.6108 41.4168 37.4136 36.5699 37.4136C31.7912 37.4815 27.9 33.5428 27.9 28.7893Z" fill="white"/>
<path d="M44.3523 28.7897C44.3523 24.5795 40.8707 21.1162 36.5699 21.1162C32.2691 21.1162 28.7875 24.5116 28.7875 28.7897C28.7875 33.0679 32.2691 36.5312 36.5699 36.5312C40.8707 36.5312 44.3523 33.0679 44.3523 28.7897ZM36.3651 33L34.9997 30.4874L32.4739 29.1293C32.3373 29.0614 32.2691 28.9255 32.2691 28.7897C32.2691 28.6539 32.3373 28.5181 32.4739 28.4502L34.9997 27.0921L36.3651 24.5795C36.4333 24.4437 36.5699 24.3758 36.7064 24.3758C36.8429 24.3758 36.9795 24.4437 37.0477 24.5795L38.4131 27.0921L40.9389 28.4502C41.0755 28.5181 41.1437 28.6539 41.1437 28.7897C41.1437 28.9255 41.0755 29.0614 40.9389 29.1293L38.4131 30.4874L37.0477 33C36.9795 33.1358 36.8429 33.2037 36.7064 33.2037C36.6381 33.2716 36.4333 33.1358 36.3651 33Z" fill="white"/>
<path d="M51.5885 50.7915C48.4483 50.2483 44.1475 49.9087 39.5053 49.8408C39.4371 49.9087 39.4371 49.9766 39.3688 50.1125C38.0717 52.2855 37.116 53.7794 37.116 53.7794C37.0477 53.9153 36.9112 53.9832 36.7747 53.9832C36.6381 53.9832 36.5016 53.9153 36.4333 53.7794C36.4333 53.7794 36.0237 53.1683 35.4093 52.0818C35.4093 52.0139 35.3411 52.0139 35.3411 51.9459C35.3411 51.878 35.2728 51.878 35.2728 51.8101C35.2728 51.7422 35.2045 51.7422 35.2045 51.6743C35.2045 51.6064 35.1363 51.6064 35.1363 51.5385C35.1363 51.5385 35.1363 51.5385 35.1363 51.4706C35.1363 51.4027 35.068 51.4027 35.068 51.3348C35.068 51.2669 34.9997 51.2669 34.9997 51.199C34.9997 51.199 34.9997 51.1311 34.9315 51.1311C34.9315 51.0632 34.8632 51.0632 34.8632 50.9952C34.8632 50.9952 34.8632 50.9273 34.7949 50.9273C34.7949 50.8594 34.7267 50.8594 34.7267 50.7915C34.7267 50.7915 34.7267 50.7236 34.6584 50.7236C34.6584 50.6557 34.5901 50.6557 34.5901 50.5878C34.5901 50.5878 34.5901 50.5878 34.5901 50.5199C34.5901 50.452 34.5219 50.3841 34.5219 50.3841C34.5219 50.3841 34.5219 50.3162 34.4536 50.3162C34.4536 50.2483 34.3853 50.2483 34.3853 50.1804C34.3853 50.1804 34.3853 50.1804 34.3853 50.1125C34.3171 50.0445 34.3171 49.9766 34.2488 49.9087C29.675 50.0445 25.5107 50.3841 22.507 50.8594C18.8206 51.4706 17.9331 52.2176 17.9331 52.4213C17.9331 52.625 18.8888 53.4399 23.3944 54.119C27.0808 54.6622 32.0643 55.0018 37.3208 55.0018C42.5773 55.0018 47.4925 54.6622 51.2472 54.119C55.6845 53.4399 56.7085 52.6929 56.7085 52.4213C56.2989 52.1497 55.4115 51.4027 51.5885 50.7915Z" fill="white"/>
</g>
<defs>
<radialGradient id="paint0_radial_532_9482" cx="0" cy="0" r="1" gradientUnits="userSpaceOnUse" gradientTransform="translate(36.8 37.027) rotate(0.435707) scale(36.5233)">
<stop stop-color="#417257"/>
<stop offset="1" stop-color="#235A39"/>
</radialGradient>
<clipPath id="clip0_532_9482">
<rect width="38.7071" height="38.7071" fill="white" transform="translate(17.8649 16.3623)"/>
</clipPath>
</defs>
</svg>
