<svg width="27" height="27" viewBox="0 0 27 27" fill="none" xmlns="http://www.w3.org/2000/svg">
<path id="Vector" d="M9.42837 25.344V21.2161C9.42837 20.1623 10.3341 19.3081 11.4515 19.3081H15.5358C16.0724 19.3081 16.587 19.5091 16.9664 19.8669C17.3458 20.2247 17.5589 20.71 17.5589 21.2161V25.344C17.5555 25.7821 17.7377 26.2033 18.0649 26.5142C18.3922 26.8251 18.8375 27 19.3021 27H22.0886C23.39 27.0032 24.6393 26.5178 25.5607 25.6511C26.4821 24.7843 27 23.6074 27 22.38V10.6203C27 9.62882 26.534 8.68838 25.7276 8.0523L16.2484 0.912423C14.5994 -0.339442 12.2368 -0.299022 10.6371 1.00842L1.37418 8.0523C0.529684 8.66963 0.0249427 9.61285 0 10.6203V22.368C0 24.9262 2.19891 27 4.9114 27H7.63431C8.59911 27 9.38321 26.2659 9.3902 25.356L9.42837 25.344Z" fill="#DADADA"/>
</svg>
