<svg width="60" height="56" viewBox="0 0 60 56" fill="none" xmlns="http://www.w3.org/2000/svg">
<g id="dark_given">
<ellipse id="Ellipse 6" cx="30" cy="27.8793" rx="30" ry="27.8793" fill="#967F04"/>
<path id="!" d="M42.6429 19.6981L29.8763 33.6141L25.227 29.6544L36.9332 14.8353L42.6429 19.6981ZM21.7116 38.4915C20.9231 37.82 20.4814 36.9685 20.3865 35.937C20.3042 34.9044 20.6054 33.9931 21.2901 33.2029C21.9438 32.4216 22.784 31.9928 23.8106 31.9165C24.8441 31.8459 25.7551 32.1464 26.5436 32.818C27.2913 33.4548 27.716 34.2918 27.8176 35.3291C27.9261 36.3722 27.6535 37.2844 26.9998 38.0657C26.5411 38.5906 25.9904 38.9549 25.3477 39.1587C24.7176 39.3615 24.0784 39.4098 23.43 39.3036C22.7874 39.1906 22.2146 38.9199 21.7116 38.4915Z" fill="white"/>
</g>
</svg>
