<svg width="40" height="40" viewBox="0 0 40 40" fill="none" xmlns="http://www.w3.org/2000/svg">
<circle cx="20" cy="20" r="20" fill="#0FB063"/>
<path d="M15.3212 26.2004L15.3197 26.199L9.88351 21.5209L9.8824 21.5199C9.64877 21.3176 9.5 21.0266 9.5 20.7045C9.5 20.3823 9.64877 20.0913 9.8824 19.889M15.3212 26.2004L29.496 13.8001C29.2636 13.6015 28.9633 13.5 28.6631 13.5C28.3626 13.5 28.0622 13.6017 27.8297 13.8005L27.8286 13.8014L16.1577 23.845L11.5611 19.8894L11.2334 20.267L11.5596 19.888L11.5603 19.8886C11.4443 19.7882 11.3103 19.7117 11.1676 19.6606C11.0245 19.6093 10.8731 19.5835 10.7215 19.5835C10.57 19.5835 10.4186 19.6093 10.2755 19.6606C10.1326 19.7118 9.99848 19.7884 9.8824 19.889M15.3212 26.2004C15.4378 26.2999 15.5722 26.3754 15.7151 26.4256C15.8581 26.4759 16.0091 26.5007 16.1602 26.5L16.1577 26.0002L16.1595 26.5C16.4579 26.4989 16.756 26.3976 16.987 26.2004L16.9884 26.1991L29.496 15.4418L15.3212 26.2004ZM9.8824 19.889L10.2096 20.267L9.88198 19.8894C9.88212 19.8893 9.88226 19.8891 9.8824 19.889Z" fill="white" stroke="white"/>
</svg>
