<svg width="60" height="56" viewBox="0 0 60 56" fill="none" xmlns="http://www.w3.org/2000/svg">
<g id="dark_agreement">
<g id="Group 86">
<ellipse id="Ellipse 4" cx="30" cy="27.8793" rx="30" ry="27.8793" fill="#0A7234"/>
<path id="Vector" d="M22.8195 37.4907L22.8164 37.4881L14.6622 30.4708L14.66 30.4689C14.2598 30.1225 14 29.6191 14 29.0567C14 28.4943 14.2598 27.9909 14.66 27.6445C14.8586 27.4723 15.087 27.3422 15.3289 27.2555C15.5712 27.1687 15.8268 27.1253 16.0823 27.1253C16.3378 27.1253 16.5935 27.1687 16.8357 27.2555C17.0772 27.3421 17.3053 27.4719 17.5037 27.6437C17.5043 27.6442 17.5049 27.6447 17.5055 27.6452L24.2366 33.4377L41.5799 18.5127L41.5821 18.5107C41.9794 18.1709 42.4889 18 42.9946 18C43.5001 18 44.0094 18.1708 44.4067 18.5104L22.8195 37.4907ZM22.8195 37.4907C23.019 37.661 23.2478 37.7893 23.4898 37.8743C23.7315 37.9593 23.9864 38.0012 24.2409 38M22.8195 37.4907L25.6457 37.4882M25.6457 37.4882L25.6428 37.4907C25.2481 37.8276 24.7429 37.998 24.2409 38M25.6457 37.4882L44.4062 21.3528C44.4068 21.3523 44.4074 21.3518 44.408 21.3513C44.6076 21.1805 44.7756 20.9693 44.8938 20.7251C45.0128 20.4794 45.0769 20.2091 45.0769 19.9314C45.0769 19.6537 45.0128 19.3834 44.8938 19.1378C44.7754 18.8931 44.6071 18.6817 44.4071 18.5107L25.6457 37.4882ZM24.2409 38C24.2406 38 24.2404 38 24.2402 38L24.2366 37L24.2415 38C24.2413 38 24.2411 38 24.2409 38Z" fill="white" stroke="white" stroke-width="2"/>
</g>
</g>
</svg>
