<svg width="60" height="56" viewBox="0 0 60 56" fill="none" xmlns="http://www.w3.org/2000/svg">
<g id="dark_created">
<g id="Group 88">
<g id="Group 48">
<ellipse id="Ellipse 7" cx="30" cy="27.8793" rx="30" ry="27.8793" fill="#2945A8"/>
<path id="Vector" d="M29.8606 11.0132C30.6648 10.9563 31.469 11.1226 32.189 11.4947C36.8955 13.8066 41.464 16.3695 45.6516 19.5897C47.6607 21.1367 48.5188 24.1315 47.6806 26.4793C47.1967 27.8367 46.3036 28.7638 44.8999 29.0114C43.3666 29.2829 42.1242 28.6494 41.1713 27.4354C41.0081 27.231 40.8865 26.995 40.8138 26.7415C40.7411 26.4879 40.7188 26.222 40.7481 25.9594C40.7774 25.6968 40.8578 25.4429 40.9845 25.2128C41.1112 24.9827 41.2816 24.7811 41.4856 24.6199C42.4502 23.8993 43.6027 24.3364 43.8306 25.5333C43.9187 25.9961 44.0268 26.4178 44.5756 26.3393C45.1245 26.2607 45.1294 25.7843 45.1128 25.3421C45.0496 23.6261 43.4214 22.5282 41.6087 22.979C40.7972 23.1889 40.0663 23.6453 39.5115 24.2886C37.4077 26.6261 36.4864 29.469 36.0506 32.5373C35.668 35.2371 35.432 37.9567 35.3438 40.6835C35.2158 44.6994 31.5986 47.0847 27.9897 45.5105C22.9355 43.3061 18.3737 40.3403 14.685 36.099C13.3096 34.5213 12.6477 32.72 13.1882 30.5976C13.599 28.9824 14.6085 28.6887 15.7859 29.8173C19.1603 33.0615 22.879 35.8275 26.7623 38.3785C27.6304 38.9487 28.0928 39.5942 28.1077 40.7142C28.136 42.8212 29.4282 44.1172 31.1512 43.9584C31.5396 43.925 31.9152 43.7999 32.2488 43.593C32.5399 43.4222 32.6862 43.1422 32.5814 42.7973C32.4767 42.4524 32.1923 42.35 31.8547 42.3688C29.6827 42.4883 29.6112 42.4166 29.4565 40.1235C29.3717 38.8856 28.7347 38.0267 27.7286 37.3762C24.6523 35.3949 21.7103 33.202 18.9225 30.8128C18.5633 30.502 18.2107 30.181 17.8615 29.8566C17.6335 29.6643 17.4649 29.4081 17.3763 29.1192C17.2877 28.8302 17.2829 28.5211 17.3625 28.2294C18.6132 23.3478 20.3395 18.6916 23.5309 14.7406C24.3814 13.6863 25.3816 12.7693 26.4979 12.0206C27.5057 11.3496 28.61 10.9176 29.8606 11.0132Z" fill="white"/>
</g>
</g>
</g>
</svg>
