<svg width="60" height="56" viewBox="0 0 60 56" fill="none" xmlns="http://www.w3.org/2000/svg">
<g id="dark_added">
<g id="Group 55">
<ellipse id="Ellipse 4" cx="30" cy="27.8793" rx="30" ry="27.8793" fill="#0E79B6"/>
<path id="Vector" d="M30.8606 11.0132C31.6648 10.9563 32.469 11.1226 33.189 11.4947C37.8955 13.8066 42.464 16.3695 46.6516 19.5897C48.6607 21.1367 49.5188 24.1315 48.6806 26.4793C48.1967 27.8367 47.3036 28.7638 45.8999 29.0114C44.3666 29.2829 43.1242 28.6494 42.1713 27.4354C42.0081 27.231 41.8865 26.995 41.8138 26.7415C41.7411 26.4879 41.7188 26.222 41.7481 25.9594C41.7774 25.6968 41.8578 25.4429 41.9845 25.2128C42.1112 24.9827 42.2816 24.7811 42.4856 24.6199C43.4502 23.8993 44.6027 24.3364 44.8306 25.5333C44.9187 25.9961 45.0268 26.4178 45.5756 26.3393C46.1245 26.2607 46.1294 25.7843 46.1128 25.3421C46.0496 23.6261 44.4214 22.5282 42.6087 22.979C41.7972 23.1889 41.0663 23.6453 40.5115 24.2886C38.4077 26.6261 37.4864 29.469 37.0506 32.5373C36.668 35.2371 36.432 37.9567 36.3438 40.6835C36.2158 44.6994 32.5986 47.0847 28.9897 45.5105C23.9355 43.3061 19.3737 40.3403 15.685 36.099C14.3096 34.5213 13.6477 32.72 14.1882 30.5976C14.599 28.9824 15.6085 28.6887 16.7859 29.8173C20.1603 33.0615 23.879 35.8275 27.7623 38.3785C28.6304 38.9487 29.0928 39.5942 29.1077 40.7142C29.136 42.8212 30.4282 44.1172 32.1512 43.9584C32.5396 43.925 32.9152 43.7999 33.2488 43.593C33.5399 43.4222 33.6862 43.1422 33.5814 42.7973C33.4767 42.4524 33.1923 42.35 32.8547 42.3688C30.6827 42.4883 30.6112 42.4166 30.4565 40.1235C30.3717 38.8856 29.7347 38.0267 28.7286 37.3762C25.6523 35.3949 22.7103 33.202 19.9225 30.8128C19.5633 30.502 19.2107 30.181 18.8615 29.8566C18.6335 29.6643 18.4649 29.4081 18.3763 29.1192C18.2877 28.8302 18.2829 28.5211 18.3625 28.2294C19.6132 23.3478 21.3395 18.6916 24.5309 14.7406C25.3814 13.6863 26.3816 12.7693 27.4979 12.0206C28.5057 11.3496 29.61 10.9176 30.8606 11.0132Z" fill="white"/>
</g>
</g>
</svg>
