<svg width="60" height="56" viewBox="0 0 60 56" fill="none" xmlns="http://www.w3.org/2000/svg">
<g id="dark_received">
<ellipse id="Ellipse 5" cx="30" cy="27.8793" rx="30" ry="27.8793" fill="#C79D07"/>
<path id="!" d="M34.5 13.9395L33.8036 32.8116H27.6966L27.0002 13.9395H34.5ZM30.7501 41.8187C29.7144 41.8187 28.826 41.4568 28.085 40.733C27.3528 40.0003 26.9912 39.1112 27.0002 38.0657C26.9912 37.0471 27.3528 36.1758 28.085 35.4521C28.826 34.7283 29.7144 34.3664 30.7501 34.3664C31.7322 34.3664 32.5983 34.7283 33.3482 35.4521C34.1072 36.1758 34.4911 37.0471 34.5 38.0657C34.4911 38.7627 34.308 39.3972 33.9509 39.969C33.6027 40.532 33.1474 40.9832 32.5849 41.3228C32.0224 41.6534 31.4108 41.8187 30.7501 41.8187Z" fill="white"/>
</g>
</svg>
