<svg xmlns="http://www.w3.org/2000/svg" width="60" height="56" viewBox="0 0 60 56" fill="none">
<ellipse cx="30" cy="27.8793" rx="30" ry="27.8793" fill="#FCF324"/>
<path d="M40.4372 17.8488L30.1548 33.6891L24.9133 30.5552L34.0001 14.0001L40.4372 17.8488ZM22.9119 39.8528C22.0229 39.3214 21.4462 38.5549 21.1816 37.5534C20.9292 36.5488 21.0751 35.6001 21.6193 34.7074C22.1343 33.8285 22.8918 33.2663 23.8916 33.0208C24.8991 32.7798 25.8472 32.9251 26.7362 33.4566C27.5791 33.9606 28.1367 34.7156 28.409 35.7217C28.6889 36.7324 28.5714 37.6772 28.0563 38.5561C27.6909 39.1497 27.2083 39.6003 26.6083 39.9079C26.0205 40.2123 25.3981 40.366 24.7411 40.3688C24.0887 40.3639 23.4789 40.1919 22.9119 39.8528Z" fill="white"/>
</svg>