<svg width="40" height="40" viewBox="0 0 40 40" fill="none" xmlns="http://www.w3.org/2000/svg">
<g id="Group 52">
<circle id="Ellipse 3" cx="20" cy="20" r="20" fill="#0DD76A"/>
<path id="Vector" d="M29.35 29.2999C29.15 28.4 29.1 27.4499 29.35 26.5499C29.5 25.9 29.0499 25.2999 28.4 25.2999H13.4C12.4 25.2999 11.7 26.35 11.7 27.9C11.7 29.4499 12.35 30.5 13.35 30.5H28.35C29.05 30.5 29.5 29.9 29.35 29.2999ZM15.95 21.6C15.65 21.6 15.45 21.85 15.45 22.1V24.35H25.5V22.1C25.5 21.85 25.25 21.6 25 21.6H15.95ZM15.85 13.05C16.3 14.6 17.45 15.85 19 16.35V17.85C19 19.05 18.55 19.9 18.05 20.55H23C22.5 19.9 22.05 19.05 22.05 17.85V16.35C23.55 15.85 24.75 14.6 25.2 13.05C27.25 12.85 28.85 10.95 28.85 8.64995V8.34995C28.85 7.79995 28.4 7.34995 27.85 7.34995H25.35C25.35 6.84995 24.95 6.44995 24.45 6.44995H16.55C16.05 6.44995 15.65 6.84995 15.65 7.34995H13.15C12.6 7.34995 12.15 7.79995 12.15 8.34995V8.64995C12.15 11 13.8 12.9 15.85 13.05ZM25.35 11.8V8.39995H27.85V8.69995C27.85 10.4 26.75 11.8 25.35 12.1C25.35 11.95 25.35 11.85 25.35 11.8ZM13.15 8.39995H15.65C15.65 10.7 15.65 11.6 15.65 12.05C14.25 11.8 13.15 10.4 13.15 8.64995V8.39995Z" fill="white"/>
</g>
</svg>
