<svg width="40" height="40" viewBox="0 0 40 40" fill="none" xmlns="http://www.w3.org/2000/svg">
<g id="Group 49">
<circle id="Ellipse 4" cx="20" cy="20" r="20" fill="#F84A4A"/>
<path id="Vector" d="M25.7672 27.2622C26.1424 27.2454 26.6317 27.261 27.0393 27.1299L29.7339 17.6492C29.4561 17.3233 29.0317 17.0792 28.7215 16.8676L29.8577 12.8697C26.2025 11.8308 22.6158 13.157 20.2543 15.8191C19.0315 16.2123 18.054 17.0455 17.5333 18.0086L13.8781 16.9698L14.2027 15.8275L13.0605 15.5029L13.3851 14.3606L11.1006 13.7113L9.15272 20.5649L11.4372 21.2142L11.7619 20.0719L12.9041 20.3966L13.2288 19.2543L16.884 20.2932C16.9021 21.5328 17.3277 22.6414 18.1285 23.7332C18.5734 26.946 21.0082 30.107 24.6634 31.1459L25.7672 27.2622ZM28.3584 13.8015L27.6441 16.3145C27.1379 15.9237 26.681 15.7939 25.9957 15.5991C24.8534 15.2744 23.8747 15.2432 22.8635 15.3261C24.5745 14.0841 26.2374 13.4456 28.3584 13.8015ZM20.0884 25.5247C20.9048 26.1271 21.6394 26.5828 22.7817 26.9075C23.3528 27.0698 23.8097 27.1997 24.4133 27.2478L23.7316 29.6465C22.0014 28.7844 20.8086 27.3343 20.0884 25.5247Z" fill="white"/>
</g>
</svg>
