<svg width="40" height="40" viewBox="0 0 40 40" fill="none" xmlns="http://www.w3.org/2000/svg">
<circle cx="20" cy="20" r="20" fill="#C65F00"/>
<g clip-path="url(#clip0_84_993)">
<path d="M31.0237 12.1835C27.8808 13.0762 25.141 12.2307 23.9557 11.8264L22.8865 11.7435C21.7873 11.8927 20.2689 10.7832 18.4623 11.0383C14.7867 12.0904 12.8178 13.0405 12.073 13.0584C10.879 13.0903 10.043 12.6107 8.84404 12.1835L7 20.3979L11.9195 23.4982C11.9582 24.6345 12.32 25.0809 13.5003 25.2492C13.6812 25.6676 14.0767 26.6942 15.5639 26.3715C15.4679 26.9633 16.3575 28.157 17.8484 27.6737C17.8646 28.5804 19.3631 29.9016 21.1422 28.1226C22.7555 28.4031 23.6949 28.2501 23.9532 26.7758C26.0443 27.1737 26.33 25.6765 26.4997 25.1179C26.8565 25.0388 28.0867 25.0222 28.3013 23.3669C28.3562 23.0519 30.5471 23.3554 30.5471 21.0317L33.0062 20.139L31.0237 12.1835ZM21.9445 27.5028C22.053 27.5028 22.5271 26.7796 22.4685 26.3919L22.5583 26.4021C24.1042 26.9046 22.738 28.3075 21.9445 27.5028ZM27.8359 22.1043L24.4984 19.8087C23.9545 19.3585 23.2633 19.9821 23.9046 20.5318L26.8478 22.7088C27.9894 23.4498 26.9189 24.7965 25.8372 24.0109L22.7006 22.1272C22.1628 21.7166 21.6363 22.6093 22.0643 22.8669L25.0911 24.8654C26.194 25.5719 25.0749 26.7006 24.1029 26.0132L21.4242 24.3744C20.9738 22.997 20.0006 22.946 18.7704 23.4294C17.3706 21.4309 16.1503 22.6259 14.884 23.3171C14.3849 22.4078 13.6151 22.3912 12.5995 22.756L8.01061 19.81L9.39426 13.3721C10.5808 13.9906 12.4211 13.9945 13.0611 13.7764C13.2371 13.6858 18.3138 11.6083 19.0561 11.7116C23.1822 12.2842 18.8066 12.4972 18.5733 12.8339C17.3431 14.5212 15.2346 15.8871 15.2346 15.8871C15.0699 16.2697 15.0711 16.4699 15.1909 16.739C15.4279 17.2746 15.6251 17.5195 16.4386 17.7949C17.9607 18.0003 20.3487 17.091 21.5115 16.2454C22.0281 16.1613 22.4635 15.9904 23.0262 16.4023L29.131 20.6453C30.1017 21.6324 28.9651 22.8121 27.8359 22.1043Z" fill="#D6D6D6"/>
</g>
<defs>
<clipPath id="clip0_84_993">
<rect width="26" height="18" fill="white" transform="translate(7 11)"/>
</clipPath>
</defs>
</svg>
