<svg width="40" height="40" viewBox="0 0 40 40" fill="none" xmlns="http://www.w3.org/2000/svg">
<g id="Group 52">
<circle id="Ellipse 3" cx="20" cy="20" r="20" fill="#078340"/>
<path id="Vector" d="M29.3502 29.3002C29.1502 28.4002 29.1002 27.4502 29.3502 26.5502C29.5002 25.9002 29.0502 25.3002 28.4002 25.3002H13.4002C12.4002 25.3002 11.7002 26.3502 11.7002 27.9002C11.7002 29.4502 12.3502 30.5002 13.3502 30.5002H28.3502C29.0502 30.5002 29.5002 29.9002 29.3502 29.3002ZM15.9502 21.6002C15.6502 21.6002 15.4502 21.8502 15.4502 22.1002V24.3502H25.5002V22.1002C25.5002 21.8502 25.2502 21.6002 25.0002 21.6002H15.9502ZM15.8502 13.0502C16.3002 14.6002 17.4502 15.8502 19.0002 16.3502V17.8502C19.0002 19.0502 18.5502 19.9002 18.0502 20.5502H23.0002C22.5002 19.9002 22.0502 19.0502 22.0502 17.8502V16.3502C23.5502 15.8502 24.7502 14.6002 25.2002 13.0502C27.2502 12.8502 28.8502 10.9502 28.8502 8.6502V8.3502C28.8502 7.8002 28.4002 7.3502 27.8502 7.3502H25.3502C25.3502 6.8502 24.9502 6.4502 24.4502 6.4502H16.5502C16.0502 6.4502 15.6502 6.8502 15.6502 7.3502H13.1502C12.6002 7.3502 12.1502 7.8002 12.1502 8.3502V8.6502C12.1502 11.0002 13.8002 12.9002 15.8502 13.0502ZM25.3502 11.8002V8.4002H27.8502V8.7002C27.8502 10.4002 26.7502 11.8002 25.3502 12.1002C25.3502 11.9502 25.3502 11.8502 25.3502 11.8002ZM13.1502 8.4002H15.6502C15.6502 10.7002 15.6502 11.6002 15.6502 12.0502C14.2502 11.8002 13.1502 10.4002 13.1502 8.6502V8.4002Z" fill="#D6D6D6"/>
</g>
</svg>
