<svg width="74" height="74" viewBox="0 0 74 74" fill="none" xmlns="http://www.w3.org/2000/svg">
<g clip-path="url(#clip0_532_9427)">
<path d="M63.0638 63.0682C77.435 48.697 77.435 25.3968 63.0638 11.0256C48.6927 -3.34556 25.3924 -3.34556 11.0213 11.0256C-3.34988 25.3968 -3.34988 48.697 11.0213 63.0682C25.3924 77.4393 48.6927 77.4393 63.0638 63.0682Z" fill="url(#paint0_radial_532_9427)"/>
<g clip-path="url(#clip1_532_9427)">
<path d="M17.8854 26.6787C16.8421 26.6787 16 27.5404 16 28.591V50.3144C16 51.3726 16.8421 52.2267 17.8854 52.2267H56.1072C57.1505 52.2267 57.9925 51.3726 57.9925 50.3144V28.591C57.9925 27.5328 57.1505 26.6787 56.1072 26.6787H40.8602V28.6213H33.1324V26.6787H17.8854ZM55.4588 29.7626V49.173H18.5337V29.7626H55.4588Z" fill="#68491B"/>
<path d="M18.5337 49.1731H55.4588V29.7627H18.5337V49.1731ZM36.8137 33.867H52.8729V36.6486H36.8137V33.867ZM36.8137 38.3039H52.8729V39.4074H36.8137V38.3039ZM36.8137 41.1384H52.8729V42.2419H36.8137V41.1384ZM36.8137 43.9653H52.8729V45.0688H36.8137V43.9653ZM28.0128 31.418C30.5167 31.418 32.5511 33.4815 32.5511 36.0212C32.5511 38.5609 30.5167 40.6244 28.0128 40.6244C25.5089 40.6244 23.4744 38.5609 23.4744 36.0212C23.4744 33.4815 25.5089 31.418 28.0128 31.418ZM21.1196 45.3938C21.1196 43.0053 23.0273 41.0628 25.3896 41.0628H30.6433C32.9982 41.0628 34.9134 42.9978 34.9134 45.3938V47.4951H21.1196V45.3938Z" fill="#FFF0E1"/>
<path d="M23.4745 36.0211C23.4745 38.5608 25.5089 40.6243 28.0128 40.6243C30.5167 40.6243 32.5511 38.5608 32.5511 36.0211C32.5511 33.4739 30.5167 31.418 28.0128 31.418C25.5089 31.418 23.4745 33.4815 23.4745 36.0211Z" fill="#68491B"/>
<path d="M30.6434 41.0625H25.3897C23.0348 41.0625 21.1196 42.9975 21.1196 45.3936V47.4949H34.9135V45.3936C34.9135 43.0051 32.9983 41.0625 30.6434 41.0625ZM29.533 46.928H28.8996H26.7758H26.1423L25.1661 41.7125C25.263 41.705 25.3599 41.6974 25.4567 41.6974H30.2186C30.3155 41.6974 30.4124 41.705 30.5093 41.7125L29.533 46.928Z" fill="#68491B"/>
<path d="M27.3049 43.4209L26.7758 46.9281L27.3049 43.4209Z" fill="#68491B"/>
<path d="M28.378 43.4206L28.9071 46.9278H29.5405L30.5167 41.7124C30.4199 41.7048 30.323 41.6973 30.2261 41.6973H25.4642C25.3673 41.6973 25.2705 41.7048 25.1736 41.7124L26.1498 46.9278H26.7832L27.3123 43.4206H27.3272L26.813 42.4607H28.8773L28.3631 43.4206H28.378Z" fill="#FFF0E1"/>
<path d="M26.7758 46.9281H28.8996L28.378 43.4209H28.3556L28.8698 42.4609H26.8056L27.3198 43.4209H27.3049L26.7758 46.9281Z" fill="#FFF0E1"/>
<path d="M52.873 33.8672H36.8137V36.6487H52.873V33.8672Z" fill="#68491B"/>
<path d="M52.873 38.3037H36.8137V39.4073H52.873V38.3037Z" fill="#D1B59A"/>
<path d="M52.873 41.1377H36.8137V42.2412H52.873V41.1377Z" fill="#D1B59A"/>
<path d="M52.873 43.9648H36.8137V45.0684H52.873V43.9648Z" fill="#D1B59A"/>
<path d="M33.1323 26.6786V28.6211H40.8601V26.6786V22.2266H33.1323V26.6786Z" fill="#FFF0E1"/>
</g>
</g>
<defs>
<radialGradient id="paint0_radial_532_9427" cx="0" cy="0" r="1" gradientUnits="userSpaceOnUse" gradientTransform="translate(37.0426 37.0469) rotate(45) scale(36.7996)">
<stop stop-color="#F29F53"/>
<stop offset="1" stop-color="#E77F1F"/>
</radialGradient>
<clipPath id="clip0_532_9427">
<rect width="73.6" height="73.6" fill="white" transform="translate(0 0.226562)"/>
</clipPath>
<clipPath id="clip1_532_9427">
<rect width="42" height="30" fill="white" transform="translate(16 22.2266)"/>
</clipPath>
</defs>
</svg>
