<svg width="74" height="74" viewBox="0 0 74 74" fill="none" xmlns="http://www.w3.org/2000/svg">
<g id="Asset 6" clip-path="url(#clip0_532_9493)">
<g id="Layer 2">
<g id="ELEMENTS">
<path id="Vector" d="M36.8 73.8266C57.1241 73.8266 73.6 57.3506 73.6 37.0266C73.6 16.7025 57.1241 0.226562 36.8 0.226562C16.4759 0.226562 0 16.7025 0 37.0266C0 57.3506 16.4759 73.8266 36.8 73.8266Z" fill="url(#paint0_linear_532_9493)"/>
<path id="Vector_2" d="M48.2276 23.1074C47.7297 23.1074 47.2431 23.255 46.8291 23.5316C46.4152 23.8082 46.0926 24.2013 45.9021 24.6613C45.7115 25.1212 45.6617 25.6273 45.7588 26.1156C45.8559 26.6039 46.0957 27.0524 46.4477 27.4044C46.7997 27.7564 47.2482 27.9961 47.7365 28.0933C48.2248 28.1904 48.7309 28.1405 49.1908 27.95C49.6507 27.7595 50.0439 27.4369 50.3204 27.0229C50.597 26.609 50.7446 26.1224 50.7446 25.6245C50.7446 24.9569 50.4795 24.3167 50.0074 23.8447C49.5354 23.3726 48.8951 23.1074 48.2276 23.1074Z" fill="white"/>
<path id="Vector_3" d="M36.9764 26.3535C34.8755 26.3535 32.8219 26.9765 31.0751 28.1437C29.3283 29.3108 27.9668 30.9698 27.1628 32.9108C26.3588 34.8517 26.1485 36.9875 26.5584 39.048C26.9682 41.1085 27.9799 43.0011 29.4654 44.4867C30.9509 45.9722 32.8436 46.9839 34.9041 47.3937C36.9646 47.8036 39.1004 47.5932 41.0413 46.7893C42.9823 45.9853 44.6412 44.6238 45.8084 42.877C46.9756 41.1302 47.5986 39.0765 47.5986 36.9757C47.5986 35.5808 47.3238 34.1995 46.79 32.9108C46.2562 31.622 45.4738 30.451 44.4874 29.4647C43.5011 28.4783 42.3301 27.6959 41.0413 27.1621C39.7526 26.6283 38.3713 26.3535 36.9764 26.3535ZM36.9764 43.797C35.6273 43.797 34.3084 43.397 33.1867 42.6474C32.0649 41.8979 31.1906 40.8325 30.6743 39.5861C30.158 38.3397 30.0229 36.9681 30.2861 35.6449C30.5493 34.3217 31.199 33.1062 32.153 32.1523C33.107 31.1983 34.3224 30.5486 35.6456 30.2854C36.9688 30.0222 38.3404 30.1573 39.5868 30.6736C40.8333 31.1899 41.8986 32.0642 42.6482 33.1859C43.3977 34.3077 43.7978 35.6265 43.7978 36.9757C43.7978 38.7848 43.0791 40.5198 41.7998 41.7991C40.5206 43.0783 38.7855 43.797 36.9764 43.797Z" fill="white"/>
<path id="Vector_4" d="M45.3078 58.5487H28.1916C26.4859 58.5454 24.7976 58.2062 23.2231 57.5504C21.6485 56.8946 20.2186 55.9351 19.0149 54.7267C17.8111 53.5183 16.8572 52.0846 16.2075 50.5076C15.5579 48.9305 15.2252 47.2409 15.2285 45.5353V28.3687C15.2219 26.6609 15.5521 24.9686 16.2003 23.3886C16.8485 21.8086 17.8019 20.372 19.0059 19.1609C20.21 17.9499 21.6411 16.9881 23.2173 16.3308C24.7934 15.6734 26.4838 15.3334 28.1916 15.3301H45.3078C48.7438 15.3367 52.0372 16.7046 54.4668 19.1342C56.8964 21.5638 58.2642 24.8572 58.2709 28.2931V45.5353C58.2742 47.2409 57.9415 48.9305 57.2919 50.5076C56.6422 52.0846 55.6883 53.5183 54.4845 54.7267C53.2808 55.9351 51.8508 56.8946 50.2763 57.5504C48.7018 58.2062 47.0135 58.5454 45.3078 58.5487ZM28.1916 19.4581C25.8304 19.4648 23.5678 20.4057 21.8982 22.0753C20.2286 23.7449 19.2877 26.0075 19.281 28.3687V45.5353C19.2877 47.8965 20.2286 50.159 21.8982 51.8286C23.5678 53.4982 25.8304 54.4392 28.1916 54.4458H45.3078C46.4855 54.4558 47.6535 54.2328 48.7448 53.7898C49.836 53.3468 50.8288 52.6924 51.6663 51.8643C52.5037 51.0362 53.1692 50.0508 53.6245 48.9646C54.0797 47.8784 54.3158 46.713 54.3191 45.5353V28.3687C54.3158 27.1909 54.0797 26.0255 53.6245 24.9393C53.1692 23.8532 52.5037 22.8677 51.6663 22.0396C50.8288 21.2115 49.836 20.5572 48.7448 20.1141C47.6535 19.6711 46.4855 19.4482 45.3078 19.4581H28.1916Z" fill="white"/>
</g>
</g>
</g>
<defs>
<linearGradient id="paint0_linear_532_9493" x1="62.8268" y1="10.9998" x2="10.7732" y2="63.0534" gradientUnits="userSpaceOnUse">
<stop stop-color="#FBE18A"/>
<stop offset="0.21" stop-color="#FCBB45"/>
<stop offset="0.38" stop-color="#F75274"/>
<stop offset="0.52" stop-color="#D53692"/>
<stop offset="0.74" stop-color="#8F39CE"/>
<stop offset="1" stop-color="#5B4FE9"/>
</linearGradient>
<clipPath id="clip0_532_9493">
<rect width="73.6" height="73.6" fill="white" transform="translate(0 0.226562)"/>
</clipPath>
</defs>
</svg>
