<svg width="60" height="56" viewBox="0 0 60 56" fill="none" xmlns="http://www.w3.org/2000/svg">
<g id="dark_coc">
<ellipse id="Ellipse 4" cx="30" cy="27.8793" rx="30" ry="27.8793" fill="#A10000"/>
<path id="!" d="M34.5 13.9399L33.8036 32.8121H27.6966L27.0002 13.9399H34.5ZM30.7501 41.8192C29.7144 41.8192 28.826 41.4573 28.085 40.7335C27.3528 40.0008 26.9912 39.1117 27.0002 38.0662C26.9912 37.0476 27.3528 36.1763 28.085 35.4525C28.826 34.7288 29.7144 34.3669 30.7501 34.3669C31.7322 34.3669 32.5983 34.7288 33.3482 35.4525C34.1072 36.1763 34.4911 37.0476 34.5 38.0662C34.4911 38.7632 34.308 39.3976 33.9509 39.9695C33.6027 40.5325 33.1474 40.9837 32.5849 41.3233C32.0224 41.6539 31.4108 41.8192 30.7501 41.8192Z" fill="white"/>
</g>
</svg>
