<svg width="74" height="74" viewBox="0 0 74 74" fill="none" xmlns="http://www.w3.org/2000/svg">
<path d="M36.8 73.8266C57.1241 73.8266 73.6 57.3506 73.6 37.0266C73.6 16.7025 57.1241 0.226562 36.8 0.226562C16.4759 0.226562 0 16.7025 0 37.0266C0 57.3506 16.4759 73.8266 36.8 73.8266Z" fill="url(#paint0_linear_532_9340)"/>
<path d="M21.3701 30.1801H28.4935V53.0857H21.3701V30.1801ZM24.9444 18.8028C25.7619 18.8079 26.5595 19.0555 27.2361 19.5144C27.9126 19.9733 28.4377 20.6227 28.7448 21.3804C29.0518 22.138 29.127 22.9698 28.9607 23.7702C28.7945 24.5706 28.3943 25.3037 27.811 25.8764C27.2277 26.4491 26.4874 26.8358 25.6841 26.9873C24.8807 27.1388 24.0505 27.0484 23.2986 26.7275C22.5467 26.4066 21.907 25.8697 21.4606 25.1848C21.0142 24.5 20.7812 23.698 20.7912 22.8805C20.8045 21.7901 21.2487 20.7492 22.0269 19.9852C22.805 19.2211 23.8539 18.7961 24.9444 18.8028Z" fill="white"/>
<path d="M32.9744 30.1799H39.7957V33.3011C40.4832 32.1402 41.4692 31.1847 42.6511 30.534C43.833 29.8832 45.1677 29.5611 46.5164 29.601C53.7404 29.601 55.0493 34.3583 55.0493 40.5252V53.1107H48.0518V41.9347C48.0518 39.2918 48.0518 35.8685 44.3517 35.8685C40.6515 35.8685 40.0726 38.7632 40.0726 41.7585V53.0855H32.9744V30.1799Z" fill="white"/>
<defs>
<linearGradient id="paint0_linear_532_9340" x1="62.8268" y1="10.9998" x2="10.7732" y2="63.0534" gradientUnits="userSpaceOnUse">
<stop stop-color="#007AB5"/>
<stop offset="1" stop-color="#0046E5"/>
</linearGradient>
</defs>
</svg>
