<svg width="74" height="74" viewBox="0 0 74 74" fill="none" xmlns="http://www.w3.org/2000/svg">
<g clip-path="url(#clip0_210_3614)">
<path d="M72.5018 42.6681C75.7211 22.6001 62.0626 3.72201 41.9946 0.502673C21.9266 -2.71666 3.04845 10.9419 -0.17088 31.0099C-3.39021 51.0779 10.2683 69.956 30.3363 73.1753C50.4043 76.3946 69.2824 62.7361 72.5018 42.6681Z" fill="url(#paint0_radial_210_3614)"/>
<path d="M36 19L56.7042 31.7738H15.2958L36 19Z" fill="#3CC7C1"/>
<path d="M57 52.3293C57 54.3848 55.3732 55.9999 53.3028 55.9999H18.6972C16.6268 55.9999 15 54.3848 15 52.3293V32.6547C15 32.361 15 32.2142 15 32.0674L34.8169 44.2539C34.8169 44.2539 34.8169 44.2539 34.9648 44.2539C34.9648 44.2539 34.9648 44.2539 35.1127 44.2539C35.2606 44.2539 35.4085 44.4007 35.5563 44.4007C35.7042 44.4007 35.8521 44.4007 36 44.4007C36.1479 44.4007 36.2958 44.4007 36.4437 44.4007C36.5915 44.4007 36.7394 44.2539 36.8873 44.2539C36.8873 44.2539 36.8873 44.2539 37.0352 44.2539C37.0352 44.2539 37.0352 44.2539 37.1831 44.2539L57 32.0674C57 32.2142 57 32.5079 57 32.6547V52.3293Z" fill="#3CC7C1"/>
<mask id="mask0_210_3614" style="mask-type:alpha" maskUnits="userSpaceOnUse" x="0" y="0" width="74" height="74">
<circle cx="36.8" cy="36.8" r="36.8" fill="#D9D9D9"/>
</mask>
<g mask="url(#mask0_210_3614)">
<circle cx="59.5" cy="21.5" r="14.5" fill="#FFF7F7"/>
<g clip-path="url(#clip1_210_3614)">
<path d="M59.8297 21.1348V22.4817H58.1704V21.1348H59.8297Z" fill="#35F5E2"/>
<path d="M64.6592 15.717C64.6592 18.8599 62.1407 21.434 59 21.434C55.8888 21.434 53.3407 18.8898 53.3407 15.717C53.3407 12.5442 55.8888 10 59 10C62.1111 10 64.6592 12.5442 64.6592 15.717Z" fill="#2BBFBB"/>
<path d="M59.237 31.9999C62.4074 31.9999 65.2222 30.1741 67 27.3904V26.4625C67 23.6489 64.6296 21.3441 62.2889 20.8652L59 29.8748L55.7111 20.8652C53.3704 21.3441 51 23.6489 51 26.4625V26.5822C52.7481 29.8149 55.7704 31.9999 59.237 31.9999Z" fill="#2BBFBB"/>
<path d="M59.6223 22.1523H59H58.3778L56.8667 29.9347L59 31.7306L61.1334 29.9347L59.6223 22.1523Z" fill="#35F5E2"/>
</g>
</g>
</g>
<defs>
<radialGradient id="paint0_radial_210_3614" cx="0" cy="0" r="1" gradientUnits="userSpaceOnUse" gradientTransform="translate(36.1654 36.839) rotate(9.11381) scale(36.8009)">
<stop stop-color="#69F1FA"/>
<stop offset="0.0001" stop-color="#0AFFFF"/>
<stop offset="1" stop-color="#67F1ED"/>
</radialGradient>
<clipPath id="clip0_210_3614">
<rect width="73.6" height="73.6" fill="white"/>
</clipPath>
<clipPath id="clip1_210_3614">
<rect width="16" height="22" fill="white" transform="translate(51 10)"/>
</clipPath>
</defs>
</svg>
