<svg width="74" height="74" viewBox="0 0 74 74" fill="none" xmlns="http://www.w3.org/2000/svg">
<g clip-path="url(#clip0_532_9362)">
<path d="M72.5018 42.8942C75.7211 22.8262 62.0626 3.94808 41.9946 0.728747C21.9266 -2.49059 3.04845 11.168 -0.17088 31.2359C-3.39021 51.3039 10.2683 70.1821 30.3363 73.4014C50.4043 76.6207 69.2824 62.9622 72.5018 42.8942Z" fill="#E84142"/>
<g clip-path="url(#clip1_532_9362)">
<path d="M49.8 19.2266H23C17.1 19.2266 14 23.8266 14 28.2266V46.1266C14 51.9266 18.6 55.1266 23 55.1266H49.9C54.2 55.1266 58.9 52.0266 58.9 46.1266V28.2266C58.8 23.8266 55.7 19.2266 49.8 19.2266ZM54.3 45.6266C54.3 50.1266 49.8 50.1266 49.8 50.1266V29.9266L36.4 38.9266L23 29.9266V50.1266C23 50.1266 18.5 50.1266 18.5 45.6266V27.6266C18.5 27.6266 18.5 23.1266 23 23.1266L36.4 33.2266L49.8 23.2266C54.3 23.2266 54.3 27.7266 54.3 27.7266V45.6266Z" fill="white"/>
</g>
<mask id="mask0_532_9362" style="mask-type:alpha" maskUnits="userSpaceOnUse" x="0" y="0" width="74" height="74">
<circle cx="36.8" cy="37.0266" r="36.8" fill="#D9D9D9"/>
</mask>
<g mask="url(#mask0_532_9362)">
<circle cx="59.5" cy="21.7266" r="14.5" fill="#FFF7F7"/>
<g clip-path="url(#clip2_532_9362)">
<path d="M59.8297 21.3613V22.7083H58.1704V21.3613H59.8297Z" fill="#BF4040"/>
<path d="M64.6592 15.9436C64.6592 19.0864 62.1407 21.6606 59 21.6606C55.8888 21.6606 53.3407 19.1164 53.3407 15.9436C53.3407 12.7708 55.8888 10.2266 59 10.2266C62.1111 10.2266 64.6592 12.7708 64.6592 15.9436Z" fill="#F84A4A"/>
<path d="M59.237 32.2265C62.4074 32.2265 65.2222 30.4006 67 27.617V26.6891C67 23.8755 64.6296 21.5707 62.2889 21.0918L59 30.1013L55.7111 21.0918C53.3704 21.5707 51 23.8755 51 26.6891V26.8088C52.7481 30.0415 55.7704 32.2265 59.237 32.2265Z" fill="#F84A4A"/>
<path d="M59.6223 22.3789H59H58.3778L56.8667 30.1612L59 31.9571L61.1334 30.1612L59.6223 22.3789Z" fill="#BF4040"/>
</g>
</g>
</g>
<defs>
<clipPath id="clip0_532_9362">
<rect width="73.6" height="73.6" fill="white" transform="translate(0 0.226562)"/>
</clipPath>
<clipPath id="clip1_532_9362">
<rect width="44.8" height="35.8" fill="white" transform="translate(14 19.2266)"/>
</clipPath>
<clipPath id="clip2_532_9362">
<rect width="16" height="22" fill="white" transform="translate(51 10.2266)"/>
</clipPath>
</defs>
</svg>
