<svg width="74" height="74" viewBox="0 0 74 74" fill="none" xmlns="http://www.w3.org/2000/svg">
<g clip-path="url(#clip0_532_9417)">
<path d="M63.0638 63.0682C77.435 48.697 77.435 25.3968 63.0638 11.0256C48.6927 -3.34556 25.3924 -3.34556 11.0213 11.0256C-3.34988 25.3968 -3.34988 48.697 11.0213 63.0682C25.3924 77.4393 48.6927 77.4393 63.0638 63.0682Z" fill="url(#paint0_radial_532_9417)"/>
<g clip-path="url(#clip1_532_9417)">
<path d="M36.9692 59.2266L36.2912 58.9787C29.8814 56.7477 21.4992 50.4885 18.9723 40.0773C16.1371 28.3646 17.1233 21.8575 17.1849 21.6097L17.4314 20.2463L18.7257 19.8744C18.7874 19.8744 20.9445 19.1928 27.0462 17.6435C33.4561 15.9702 36.4761 15.3505 36.5994 15.3505L36.9692 15.2266L37.4006 15.2885C37.5239 15.2885 40.4823 15.9083 46.9538 17.5815C52.9938 19.1308 55.151 19.8125 55.2743 19.8125L56.5686 20.1843L56.8151 21.5477C56.8767 21.7956 57.8629 28.3026 55.0277 40.0153C52.5008 50.4885 44.1186 56.7477 37.7088 58.9787L36.9692 59.2266ZM21.376 23.5928C21.2527 25.9477 21.3143 31.2153 23.1633 39.0237C25.1972 47.328 31.6687 52.5336 36.9692 54.5787C42.208 52.5336 48.7411 47.328 50.775 39.0237C52.6857 31.1533 52.7473 25.8857 52.624 23.5928C51.3914 23.2209 49.2342 22.6632 45.8444 21.7956C40.9137 20.4942 37.9553 19.8744 36.9692 19.6266C35.9214 19.8744 33.0247 20.4942 28.094 21.7956C24.7658 22.6632 22.6086 23.2829 21.376 23.5928Z" fill="white"/>
<path d="M36.9692 57.925L36.661 57.801C30.5593 55.694 22.6086 49.6827 20.2049 39.7672C17.4314 28.3024 18.3559 22.0433 18.4176 21.7954L18.5408 21.2377L19.0955 21.0517C19.1572 21.0517 21.3143 20.37 27.3544 18.8207C33.7643 17.1475 36.7226 16.5898 36.8459 16.5278L36.9692 16.4658L37.1541 16.5278C37.2773 16.5278 40.2357 17.1475 46.6456 18.8207C52.6857 20.37 54.8428 20.9898 54.9045 21.0517L55.4592 21.2377L55.5824 21.7954C55.6441 22.0433 56.5686 28.3024 53.7951 39.7672C51.3914 49.6827 43.4407 55.694 37.2773 57.801L36.9692 57.925ZM20.2049 22.663C20.02 24.3982 19.7735 30.2236 21.9923 39.3334C24.1495 48.3813 31.3606 53.8968 36.9692 55.9419C42.5778 53.8968 49.7889 48.3813 51.9461 39.3334C54.2265 30.1616 53.98 24.3982 53.7951 22.663C52.8089 22.3531 50.4669 21.7334 46.1525 20.6179C40.6672 19.1926 37.7088 18.5729 36.9692 18.3869C36.2296 18.5729 33.2712 19.1926 27.7858 20.6179C23.5331 21.7334 21.1911 22.3531 20.2049 22.663Z" fill="white"/>
<path d="M36.9692 17.458C36.9692 17.458 39.9276 18.0777 46.3991 19.751C52.5008 21.3003 54.6579 21.982 54.6579 21.982C54.6579 21.982 55.6441 28.1791 52.8706 39.582C50.6518 48.8158 43.3174 54.7651 36.9692 56.9341C30.621 54.7651 23.2866 48.8158 21.0678 39.582C18.3559 28.1172 19.3421 21.92 19.3421 21.92C19.3421 21.92 21.4992 21.3003 27.6009 19.689C34.0108 18.0158 36.9692 17.458 36.9692 17.458Z" fill="#9E6BC6"/>
<path d="M35.0312 44.5947C34.8162 44.8337 34.5116 45.0328 34.2428 45.0328C33.974 45.0328 33.6694 44.8237 33.4455 44.5848L28.4286 39.0087L30.0232 37.2363L34.2518 41.9361L45.4322 29.4199L47 31.2222L35.0312 44.5947Z" fill="white" stroke="white" stroke-linejoin="round"/>
</g>
</g>
<defs>
<radialGradient id="paint0_radial_532_9417" cx="0" cy="0" r="1" gradientUnits="userSpaceOnUse" gradientTransform="translate(37.0426 37.0469) rotate(45) scale(36.7996)">
<stop stop-color="#9E48C6"/>
<stop offset="1" stop-color="#6A24A2"/>
</radialGradient>
<clipPath id="clip0_532_9417">
<rect width="73.6" height="73.6" fill="white" transform="translate(0 0.226562)"/>
</clipPath>
<clipPath id="clip1_532_9417">
<rect width="40" height="44" fill="white" transform="translate(17 15.2266)"/>
</clipPath>
</defs>
</svg>
