<svg xmlns="http://www.w3.org/2000/svg" width="161" height="174" viewBox="0 0 161 174" fill="none">
  <g opacity="0.4">
    <path d="M75.8801 171.406C75.2854 171.407 74.7019 171.244 74.1937 170.935C73.6854 170.626 73.2718 170.184 72.9982 169.655C70.1163 164.065 66.4634 157.501 59.9214 150.397C59.5447 149.989 59.2802 149.491 59.1539 148.95C59.0276 148.41 59.0438 147.846 59.201 147.313C61.629 138.876 65.4475 127.342 65.4836 127.226C65.6056 126.809 65.8103 126.421 66.0855 126.086C66.3607 125.75 66.7007 125.472 67.0853 125.271C67.4699 125.069 67.8911 124.947 68.324 124.911C68.7568 124.876 69.1924 124.928 69.6047 125.064C70.017 125.201 70.3976 125.419 70.7238 125.705C71.05 125.992 71.3151 126.342 71.5034 126.733C71.6917 127.124 71.7992 127.55 71.8196 127.983C71.84 128.417 71.7728 128.851 71.6221 129.258C71.586 129.366 68.2934 139.302 65.9086 147.378C70.9927 153.242 75.3073 159.731 78.7477 166.687C79.0004 167.181 79.1222 167.732 79.1013 168.286C79.0805 168.841 78.9176 169.38 78.6285 169.854C78.3393 170.327 77.9334 170.719 77.4497 170.991C76.966 171.262 76.4206 171.406 75.8657 171.406H75.8801Z" fill="#407BFF"/>
    <path d="M81.2624 174H56.1968L69.4825 166.464L80.6139 166.897L81.2624 174Z" fill="#263238"/>
    <path d="M78.8695 143.634C90.2783 140.067 97.1304 129.51 94.1741 120.053C91.2178 110.596 79.5726 105.821 68.1638 109.388C56.755 112.954 49.9029 123.512 52.8592 132.969C55.8155 142.425 67.4607 147.2 78.8695 143.634Z" fill="#263238"/>
    <path d="M16.4838 114.748C15.7378 114.745 15.0158 114.484 14.4399 114.01C13.8641 113.536 13.4699 112.877 13.3241 112.145C13.1783 111.414 13.2898 110.654 13.6398 109.995C13.9898 109.337 14.5567 108.819 15.2446 108.53C15.8045 108.296 16.2962 107.925 16.674 107.45C17.0519 106.975 17.3037 106.412 17.406 105.814C17.4706 105.11 17.7643 104.448 18.2419 103.927C18.7196 103.406 19.3548 103.057 20.0502 102.932C20.8526 102.768 21.6461 102.564 22.4278 102.32C26.8083 101.044 32.2336 99.4378 49.309 104.236C66.1539 94.8195 66.3484 77.1532 66.3484 76.3895C66.3484 75.5334 66.687 74.712 67.2904 74.1046C67.8938 73.4972 68.7129 73.153 69.569 73.1473C70.422 73.1473 71.2405 73.4842 71.8463 74.0846C72.4522 74.6851 72.7964 75.5005 72.804 76.3535C72.804 77.2973 72.7031 99.4738 51.1895 110.576C50.4562 110.957 49.6045 111.039 48.8119 110.807C32.529 106.109 27.9179 107.45 24.265 108.523L23.2708 108.811C22.7901 110.084 22.0537 111.246 21.107 112.223C20.1603 113.201 19.0233 113.974 17.7663 114.496C17.3603 114.666 16.924 114.752 16.4838 114.748Z" fill="#263238"/>
    <path d="M54.2583 91.6132C48.127 67.2464 31.7936 4.39147 84.1367 0.551296C131.098 -2.89982 143.98 59.6309 147.114 81.2454C148.683 92.1822 149.535 103.21 149.665 114.258C149.724 119.846 147.831 125.281 144.311 129.621C140.791 133.962 135.865 136.938 130.385 138.034C104.8 143.236 80.592 143.971 64.2802 137.537C62.1378 136.672 60.3325 135.138 59.134 133.163C57.9354 131.188 57.4079 128.878 57.6302 126.578C58.257 119.604 58.2714 107.543 54.2583 91.6132Z" fill="#407BFF"/>
    <path opacity="0.1" d="M147.143 81.2594C144.189 60.8553 132.575 4.16774 91.9108 0.565321C89.5912 0.330169 87.2539 0.786928 85.1934 1.87805C83.133 2.96916 81.4417 4.6458 80.3326 6.69663C78.517 10.2126 78.5747 14.4706 81.2909 18.6855C90.2249 32.6124 111.602 80.647 108.374 106.822C106.933 118.732 99.4326 128.242 105.931 141.629C114.146 140.91 122.311 139.707 130.385 138.026C135.865 136.93 140.791 133.955 144.311 129.614C147.831 125.273 149.725 119.839 149.665 114.25C149.544 103.21 148.702 92.1897 147.143 81.2594Z" fill="black"/>
    <path d="M140.111 114.597C140.026 114.597 139.945 114.564 139.884 114.504C139.824 114.445 139.789 114.365 139.787 114.28C139.664 103.246 138.815 92.2324 137.244 81.3105C129.462 27.5192 108.518 0.320994 76.6509 2.66977C76.6083 2.6727 76.5655 2.6672 76.5251 2.65356C76.4846 2.63993 76.4472 2.61843 76.4151 2.59032C76.383 2.5622 76.3567 2.52801 76.3378 2.48971C76.3189 2.45142 76.3078 2.40978 76.3051 2.36717C76.301 2.28159 76.3303 2.19776 76.3867 2.13329C76.4431 2.06881 76.5223 2.02868 76.6077 2.02133C108.849 -0.356266 130.046 27.0365 137.849 81.2168C139.419 92.168 140.271 103.21 140.399 114.273C140.399 114.359 140.365 114.441 140.304 114.502C140.243 114.563 140.161 114.597 140.075 114.597H140.111Z" fill="#263238"/>
    <path d="M139.622 145.357C151.031 141.791 157.883 131.233 154.927 121.777C151.97 112.32 140.325 107.545 128.916 111.111C117.507 114.678 110.655 125.235 113.612 134.692C116.568 144.149 128.213 148.924 139.622 145.357Z" fill="#263238"/>
    <path d="M141.595 171.407C141.001 171.408 140.417 171.245 139.908 170.936C139.4 170.627 138.986 170.184 138.714 169.656C135.832 164.065 132.179 157.501 125.63 150.397C125.256 149.988 124.993 149.489 124.867 148.949C124.741 148.41 124.756 147.846 124.909 147.314C127.344 138.877 131.156 127.342 131.199 127.227C131.332 126.824 131.544 126.452 131.821 126.131C132.098 125.81 132.436 125.547 132.815 125.356C133.194 125.166 133.607 125.052 134.03 125.021C134.453 124.991 134.878 125.043 135.28 125.177C135.683 125.31 136.055 125.522 136.376 125.799C136.697 126.076 136.96 126.414 137.151 126.793C137.341 127.172 137.455 127.585 137.486 128.008C137.516 128.431 137.464 128.856 137.33 129.258C137.294 129.366 134.009 139.302 131.624 147.378C136.708 153.24 141.021 159.729 144.456 166.687C144.709 167.181 144.83 167.732 144.809 168.286C144.789 168.841 144.626 169.381 144.337 169.854C144.047 170.328 143.642 170.719 143.158 170.991C142.674 171.263 142.129 171.406 141.574 171.407H141.595Z" fill="#407BFF"/>
    <path d="M134.808 72.8952C134.086 72.8956 133.384 72.654 132.814 72.2089C132.245 71.7639 131.841 71.141 131.667 70.4396C131.493 69.7381 131.559 68.9987 131.854 68.339C132.149 67.6793 132.656 67.1375 133.295 66.7999C133.915 66.4685 147.986 58.7809 151.934 40.3077C142.568 36.3883 125.694 27.5336 122.005 23.081C121.642 22.6504 121.394 22.1348 121.285 21.5824C120.859 18.9219 121.107 16.1971 122.005 13.657L120.305 10.3716C119.911 9.60731 119.838 8.71791 120.1 7.8991C120.362 7.08029 120.938 6.39915 121.703 6.00552C122.467 5.61189 123.357 5.538 124.175 5.80013C124.994 6.06225 125.675 6.63891 126.069 7.40325L128.511 12.1296C128.774 12.6243 128.903 13.179 128.885 13.7389C128.868 14.2988 128.704 14.8443 128.41 15.3214C127.751 16.6382 127.472 18.1127 127.604 19.5794C131.761 23.3331 148.498 32.2167 156.733 35.2643C157.431 35.523 158.018 36.0151 158.395 36.6572C158.772 37.2993 158.915 38.0519 158.8 38.7875C155.148 62.3977 137.085 72.1242 136.321 72.5277C135.855 72.7718 135.335 72.898 134.808 72.8952Z" fill="#263238"/>
    <path d="M124.499 22.6334C124.208 22.632 123.923 22.5525 123.674 22.4032C123.424 22.2538 123.219 22.0402 123.081 21.7845C122.943 21.5289 122.875 21.2408 122.886 20.9503C122.898 20.6598 122.987 20.3776 123.144 20.1333C123.26 19.9604 125.925 15.9329 129.989 14.845C130.194 14.7901 130.407 14.7761 130.618 14.8038C130.828 14.8315 131.031 14.9003 131.214 15.0063C131.398 15.1124 131.559 15.2536 131.688 15.4218C131.817 15.5901 131.912 15.7821 131.967 15.9869C132.021 16.1918 132.035 16.4054 132.008 16.6157C131.98 16.8259 131.911 17.0286 131.805 17.2123C131.699 17.3959 131.558 17.5569 131.39 17.686C131.221 17.8151 131.029 17.9098 130.825 17.9646C127.993 18.7284 125.868 21.8697 125.853 21.8985C125.707 22.1242 125.506 22.3097 125.269 22.438C125.033 22.5664 124.768 22.6335 124.499 22.6334Z" fill="#263238"/>
    <path d="M146.978 174H121.912L135.198 166.464L146.329 166.897L146.978 174Z" fill="#263238"/>
    <path d="M94.4885 77.4652C103.969 76.6257 111.043 69.0273 110.287 60.4936C109.532 51.96 101.233 45.7226 91.7523 46.5621C82.2713 47.4016 75.198 55 75.9536 63.5337C76.7092 72.0673 85.0076 78.3047 94.4885 77.4652Z" fill="white"/>
    <path d="M91.2685 71.8407C93.7828 71.1245 94.7641 66.8336 93.4603 62.2566C92.1565 57.6797 89.0614 54.5499 86.5471 55.2661C84.0328 55.9823 83.0516 60.2733 84.3553 64.8502C85.6591 69.4272 88.7542 72.5569 91.2685 71.8407Z" fill="#263238"/>
    <path d="M73.5099 64.933C84.3892 63.5353 105.932 57.3896 109.484 54.9111C106.688 46.7264 93.633 39.7234 82.0188 43.6716C71.4925 47.2236 73.5099 64.933 73.5099 64.933Z" fill="#263238"/>
    <path d="M75.6206 70.1927C89.1297 67.6278 106.688 63.3193 111.71 60.5599C111.4 69.3642 108.828 78.291 95.052 81.3098C83.7837 83.7666 75.6206 70.1927 75.6206 70.1927Z" fill="#263238"/>
    <path d="M64.4932 78.6631C69.3781 75.4311 70.022 67.7993 65.9315 61.6169C61.8411 55.4345 54.5651 53.0427 49.6803 56.2747C44.7954 59.5067 44.1514 67.1386 48.2419 73.3209C52.3324 79.5033 59.6084 81.8951 64.4932 78.6631Z" fill="white"/>
    <path d="M57.3276 67.6855C58.1418 71.5472 57.4357 74.7678 55.7426 74.8903C54.0494 75.0128 52.0177 71.9651 51.1963 68.1033C50.375 64.2416 51.0883 61.0282 52.7742 60.8985C54.4601 60.7688 56.5063 63.8237 57.3276 67.6855Z" fill="#263238"/>
    <path d="M43.9341 66.2087C51.2326 67.0661 65.7287 66.1078 68.1351 64.7677C66.3555 57.8295 57.7241 49.9041 49.8781 50.9128C42.8029 51.8206 43.9341 66.2087 43.9341 66.2087Z" fill="#263238"/>
    <path d="M45.2886 70.7549C54.3595 71.1656 66.1826 70.935 69.5544 69.6598C69.2446 76.5836 67.429 83.1833 58.1636 83.0752C50.5985 82.9887 45.2886 70.7549 45.2886 70.7549Z" fill="#263238"/>
    <path d="M97.4946 39.313C89.2502 39.3581 81.1869 36.8956 74.3743 32.2523C73.6912 31.7354 73.2414 30.9683 73.1238 30.1198C73.0063 29.2712 73.2306 28.4108 73.7475 27.7277C74.2644 27.0445 75.0315 26.5947 75.88 26.4772C76.7285 26.3596 77.589 26.584 78.2721 27.1008C85.8971 32.0737 95.1483 33.909 104.094 32.2235C104.511 32.1445 104.939 32.1483 105.355 32.2348C105.77 32.3213 106.164 32.4888 106.515 32.7276C106.865 32.9665 107.165 33.272 107.398 33.6268C107.63 33.9817 107.791 34.3788 107.87 34.7956C107.949 35.2124 107.945 35.6406 107.858 36.0559C107.772 36.4712 107.604 36.8654 107.365 37.216C107.127 37.5665 106.821 37.8666 106.466 38.0991C106.111 38.3316 105.714 38.4919 105.297 38.5709C102.725 39.0605 100.113 39.3089 97.4946 39.313Z" fill="#263238"/>
    <path d="M39.7049 33.7438C39.1876 33.7412 38.6784 33.6149 38.2199 33.3754C37.7614 33.1358 37.3668 32.79 37.0692 32.3669C36.7716 31.9438 36.5796 31.4556 36.5092 30.9431C36.4388 30.4306 36.492 29.9087 36.6644 29.421C38.372 24.6514 41.2179 21.5605 45.1085 20.2204C52.1548 17.7924 59.7487 22.5115 60.0729 22.7132C60.7806 23.1783 61.2778 23.9023 61.4576 24.7298C61.6374 25.5572 61.4857 26.4223 61.0348 27.1391C60.584 27.8559 59.87 28.3674 59.0463 28.5636C58.2225 28.7599 57.3547 28.6254 56.629 28.1889C55.1881 27.2739 50.5986 25.1557 47.1907 26.3373C45.231 27.0217 43.7756 28.7437 42.7453 31.6112C42.5189 32.2359 42.1056 32.7757 41.5616 33.1573C41.0176 33.5389 40.3693 33.7437 39.7049 33.7438Z" fill="#263238"/>
    <path d="M65.1736 88.2693C65.0831 88.2691 64.9931 88.2545 64.9071 88.2261C64.6625 88.1573 64.4553 87.9941 64.331 87.7725C64.2067 87.551 64.1755 87.2891 64.2442 87.0445C64.5306 86.2651 64.9683 85.55 65.5322 84.9404C66.096 84.3308 66.7748 83.8387 67.5296 83.4925C71.2329 81.5832 76.8959 81.9795 84.3241 84.6669C84.4442 84.7103 84.5546 84.7771 84.6487 84.8634C84.7428 84.9497 84.8189 85.0539 84.8725 85.1698C84.9262 85.2857 84.9562 85.4111 84.961 85.5388C84.9658 85.6664 84.9452 85.7937 84.9005 85.9134C84.8579 86.0332 84.7918 86.1434 84.7062 86.2375C84.6205 86.3316 84.517 86.4077 84.4017 86.4613C84.2863 86.515 84.1614 86.5451 84.0343 86.55C83.9072 86.5549 83.7804 86.5344 83.6612 86.4897C75.1379 83.4061 70.6925 84.0689 68.5311 85.1785C67.4518 85.6363 66.5937 86.4971 66.1391 87.5777C66.0772 87.7834 65.9488 87.9628 65.7742 88.088C65.5995 88.2131 65.3884 88.2769 65.1736 88.2693Z" fill="#263238"/>
    <path d="M34.6617 84.7177C23.3881 85.7194 12.4236 88.9392 2.39844 94.1921C7.96057 93.1402 27.8675 117.773 32.9829 136.765C42.4285 133.271 53.4375 130.886 65.1741 129.02C58.063 109.445 45.0582 87.261 34.6617 84.7177Z" fill="#407BFF"/>
    <path opacity="0.6" d="M34.6617 84.7177C23.3881 85.7194 12.4236 88.9392 2.39844 94.1921C7.96057 93.1402 27.8675 117.773 32.9829 136.765C42.4285 133.271 53.4375 130.886 65.1741 129.02C58.063 109.445 45.0582 87.261 34.6617 84.7177Z" fill="white"/>
    <path d="M34.6614 84.7179C22.3555 83.3274 2.37653 93.6303 2.37653 93.6303C-1.16104 95.8854 -0.202805 100.115 1.72809 101.909C3.57973 99.2501 24.2288 92.3335 31.9884 91.404C28.1338 87.8304 31.7218 85.2079 34.6614 84.7179Z" fill="#407BFF"/>
    <path opacity="0.2" d="M34.6614 84.7179C22.3555 83.3274 2.37653 93.6303 2.37653 93.6303C-1.16104 95.8854 -0.202805 100.115 1.72809 101.909C3.57973 99.2501 24.2288 92.3335 31.9884 91.404C28.1338 87.8304 31.7218 85.2079 34.6614 84.7179Z" fill="white"/>
    <path d="M16.491 114.747C15.9546 114.749 15.426 114.619 14.9521 114.368C14.4783 114.116 14.0739 113.752 13.7748 113.306C11.4332 109.704 12.8958 104.236 13.2128 103.169C13.4828 102.378 14.0485 101.723 14.7912 101.339C15.534 100.956 16.3962 100.875 17.1972 101.114C17.9983 101.352 18.6759 101.892 19.0882 102.619C19.5005 103.345 19.6155 104.204 19.409 105.014C18.883 106.822 18.775 109.135 19.1928 109.769C19.6606 110.487 19.8239 111.362 19.6469 112.201C19.4699 113.04 18.9671 113.775 18.249 114.243C17.7256 114.581 17.114 114.756 16.491 114.747Z" fill="#263238"/>
  </g>
</svg>