<svg width="35" height="41" viewBox="0 0 35 41" fill="none" xmlns="http://www.w3.org/2000/svg">
<path d="M17.5994 7.14257C18.3037 7.14257 19.9769 7.58401 19.9769 7.58401C24.5099 8.61365 27.7006 12.7523 27.7006 17.425V30.0021L28.6274 30.925L29.4018 31.6961H5.59821L6.37258 30.925L7.29939 30.0021V17.425C7.29939 12.7524 10.4901 8.61365 15.0231 7.58401C15.0231 7.58401 16.8171 7.14257 17.4006 7.14257M17.5 0C15.7498 0 14.4117 1.3323 14.4117 3.075V4.5099C8.54378 5.8427 4.11757 11.1725 4.11757 17.425V28.7L0 32.8V34.85H35V32.8L30.8824 28.7V17.425C30.8824 11.1725 26.4561 5.8427 20.5883 4.5099V3.075C20.5883 1.3323 19.2502 0 17.5 0ZM21.6176 36.9H13.3823C13.3823 39.1551 15.235 41 17.5 41C19.765 41 21.6176 39.1551 21.6176 36.9Z" fill="white"/>
</svg>
