<svg width="74" height="100" viewBox="15 0 74 100" fill="none" xmlns="http://www.w3.org/2000/svg">
<path d="M78.0638 78.2908C92.435 63.9197 92.435 40.6194 78.0638 26.2483C63.6927 11.8771 40.3924 11.8771 26.0213 26.2483C11.6501 40.6194 11.6501 63.9197 26.0213 78.2908C40.3924 92.662 63.6927 92.662 78.0638 78.2908Z" fill="url(#paint0_radial_532_9466)"/>
<path fill-rule="evenodd" clip-rule="evenodd" d="M28.0025 52.3868C28.0263 51.005 28.1137 49.631 28.3519 48.265C28.5981 46.8276 28.9555 45.3901 29.4876 44.0321C30.0276 42.6661 30.6233 41.3398 31.3857 40.077C32.1322 38.8461 32.982 37.7024 33.9191 36.6144C36.0475 34.1366 38.7557 32.1193 41.7021 30.7295C43.6875 29.7924 45.7603 29.1729 47.9205 28.7758C49.9616 28.4026 52.0582 28.3867 54.1231 28.5376C55.902 28.6726 57.7048 29.0776 59.3964 29.6415C62.0966 30.5389 64.6221 31.897 66.8538 33.668C69.6017 35.852 71.8333 38.6157 73.4296 41.7528C74.192 43.2538 74.8274 44.8818 75.2244 46.5178C75.4468 47.447 75.6454 48.3762 75.7724 49.3292C75.9074 50.3379 75.963 51.3385 75.9948 52.3551C76.0345 54.0308 75.8439 55.7303 75.5104 57.3743C75.1371 59.2327 74.5415 61.0513 73.7393 62.7668C72.9452 64.4743 71.9604 66.1103 70.777 67.5795C70.1735 68.326 69.554 69.0487 68.871 69.7238C68.5216 70.0732 68.1642 70.4068 67.7989 70.7404C67.4494 71.058 67.1 71.3598 66.687 71.5901C63.8994 73.2103 60.961 71.2804 58.7531 69.3267C58.6102 69.5014 58.4672 69.6841 58.3163 69.8588C58.0304 70.1924 57.6413 70.383 57.1966 70.4306C56.2991 70.5339 55.4652 70.2877 54.6711 69.9144C52.0106 68.6517 49.5327 67.0871 47.2375 65.2446C44.8153 63.2989 42.6551 61.0672 40.4949 58.8276C37.7868 56.0083 35.6107 52.8157 33.8238 49.3531C33.395 48.5192 33.0932 47.6376 33.0376 46.629C33.0296 46.1128 33.2123 45.5728 33.6332 45.2074C34.7451 44.2544 35.9205 43.3967 37.2308 42.7296C37.9536 42.3563 38.5968 42.4675 39.1845 42.9996C40.6776 44.3736 42.1548 45.7634 43.5366 47.2564C44.3149 48.0983 44.3229 48.4239 43.6717 49.3769C43.2269 50.0202 42.7345 50.6317 42.2898 51.275C41.6386 52.2201 41.6624 52.9586 42.3533 53.872C42.6472 54.2532 42.9489 54.6344 43.2746 54.9917C44.847 56.7072 46.5069 58.3432 48.1985 59.9554C48.6909 60.4239 49.2071 60.8607 49.763 61.2499C50.4857 61.7502 51.2402 61.8614 52.0106 61.3452C52.2885 61.1625 52.5665 60.9719 52.8286 60.7734C53.3686 60.3604 53.9086 59.9554 54.4725 59.5901C54.9093 59.3041 55.3382 59.3121 55.767 59.598C55.91 59.6933 56.0529 59.7965 56.18 59.9077C57.6889 61.3134 59.1105 62.8065 60.5083 64.3234C61.0483 64.9111 61.1436 65.5623 60.7704 66.2771C60.4606 66.8727 60.1112 67.4445 59.7379 67.9925C60.3494 68.5564 61.0007 69.0885 61.6996 69.5491C62.4699 70.0574 63.3515 70.51 64.2886 70.5895C64.7492 70.6292 65.2019 70.5577 65.6228 70.375C66.0358 70.1924 66.3773 69.9223 66.7108 69.6285C67.4335 68.9932 68.1165 68.326 68.7678 67.6192C70.0543 66.2215 71.1424 64.641 72.0318 62.9653C72.9213 61.2896 73.5964 59.5106 74.0411 57.6681C74.2714 56.7231 74.462 55.7462 74.5494 54.7773C74.6209 53.9911 74.6606 53.2048 74.6924 52.4107C74.7003 51.8706 74.6765 51.267 74.6288 50.7111C74.5812 50.0678 74.5256 49.4245 74.4223 48.7892C74.1364 47.1452 73.7314 45.5489 73.1278 43.9844C72.4845 42.3166 71.6348 40.7362 70.6261 39.267C68.7281 36.5112 66.2026 34.1842 63.3197 32.4847C61.2786 31.2855 59.0788 30.4357 56.7756 29.8877C55.2587 29.5303 53.7022 29.3715 52.1456 29.3159C50.0013 29.2524 47.7935 29.5144 45.7206 30.0783C43.4811 30.6898 41.3447 31.6031 39.3831 32.8341C38.0489 33.668 36.8179 34.6448 35.6743 35.717C34.5545 36.7732 33.5776 37.9486 32.6802 39.1955C31.9178 40.2518 31.2507 41.3954 30.7027 42.5787C30.0673 43.9447 29.5114 45.3504 29.162 46.8117C29.0031 47.4709 28.8681 48.138 28.7411 48.8051C28.6219 49.4404 28.5663 50.0996 28.5107 50.7429C28.4393 51.4418 28.4234 52.1565 28.4393 52.8554C28.4552 53.7687 28.5107 54.682 28.6299 55.5874C29.1064 59.3359 30.5359 62.9415 32.712 66.0309C34.9118 69.1599 37.8741 71.7093 41.2812 73.4406C42.9966 74.3142 44.7994 74.9416 46.6657 75.3942C48.3414 75.7993 50.0489 75.9343 51.7723 75.9899C50.589 75.9661 49.4056 75.9184 48.2303 75.7437C44.4341 75.1719 40.8126 73.6947 37.7074 71.4313C34.6577 69.1996 32.1719 66.2373 30.4803 62.8541C29.6305 61.1546 28.9952 59.3597 28.5822 57.5093C28.3678 56.5483 28.209 55.5794 28.1137 54.6026C28.0501 53.864 27.9866 53.1175 28.0025 52.3868Z" fill="#EFFFEB"/>
<mask id="mask0_532_9466" style="mask-type:alpha" maskUnits="userSpaceOnUse" x="16" y="14" width="74" height="75">
<circle cx="52.8" cy="51.2482" r="36.8" fill="#D9D9D9"/>
</mask>
<g mask="url(#mask0_532_9466)">
<circle cx="75.5" cy="35.9482" r="14.5" fill="#E2E1E1"/>
<g clip-path="url(#clip0_532_9466)">
<path d="M75.8297 35.583V36.9299H74.1704V35.583H75.8297Z" fill="#6D8EDB"/>
<path d="M80.6592 30.1652C80.6592 33.3081 78.1407 35.8823 75 35.8823C71.8888 35.8823 69.3407 33.338 69.3407 30.1652C69.3407 26.9925 71.8888 24.4482 75 24.4482C78.1111 24.4482 80.6592 26.9925 80.6592 30.1652Z" fill="#21325C"/>
<path d="M75.237 46.4482C78.4074 46.4482 81.2222 44.6223 83 41.8386V40.9108C83 38.0972 80.6296 35.7924 78.2889 35.3135L75 44.323L71.7111 35.3135C69.3704 35.7924 67 38.0972 67 40.9108V41.0305C68.7481 44.2631 71.7704 46.4482 75.237 46.4482Z" fill="#21325C"/>
<path d="M75.6223 36.6006H75H74.3778L72.8667 44.3829L75 46.1788L77.1334 44.3829L75.6223 36.6006Z" fill="#6D8EDB"/>
</g>
</g>
<defs>
<radialGradient id="paint0_radial_532_9466" cx="0" cy="0" r="1" gradientUnits="userSpaceOnUse" gradientTransform="translate(52.0426 52.2695) rotate(45) scale(36.7996)">
<stop stop-color="#5B6C96"/>
<stop offset="1" stop-color="#172852"/>
</radialGradient>
<clipPath id="clip0_532_9466">
<rect width="16" height="22" fill="white" transform="translate(67 24.4482)"/>
</clipPath>
</defs>
</svg>
