<svg xmlns="http://www.w3.org/2000/svg" width="30" height="39" viewBox="0 0 30 39" fill="none">
  <path d="M28 9.87427V9.86449L27.9999 9.8547C27.9741 7.22116 26.9884 5.13785 25.2121 3.7711C23.5163 2.4663 21.3411 2 19.2212 2H10.7375C8.62449 2 6.44795 2.46632 4.75479 3.77276C2.97844 5.14339 2 7.23382 2 9.87427V33.4024C2 35.116 3.27196 36.9833 5.38875 36.9833C6.04871 36.9833 6.62489 36.7703 7.06162 36.5145L14.9855 32.0554L22.868 36.4981C23.6508 36.9851 24.6569 37.1626 25.6266 36.8302C26.5517 36.5179 27.248 35.839 27.6377 35.0281L27.6377 35.0281L27.6429 35.0172C27.8898 34.4952 28 33.9362 28 33.4024V9.87427Z" stroke="#545454" stroke-width="4"/>
</svg>