<svg width="28" height="37" viewBox="0 0 28 37" fill="none" xmlns="http://www.w3.org/2000/svg">
<path id="Vector" d="M26.5 8.87427V8.86693L26.4999 8.8596C26.4754 6.35746 25.5454 4.42784 23.9072 3.16738C22.3294 1.95338 20.2769 1.5 18.2212 1.5H9.7375C7.68868 1.5 5.63518 1.95339 4.06023 3.16862C2.42289 4.43199 1.5 6.36695 1.5 8.87427V32.4024C1.5 33.9046 2.60866 35.4833 4.38875 35.4833C4.94275 35.4833 5.43384 35.3035 5.81237 35.081L13.9857 30.4815L22.1233 35.068C22.7927 35.4881 23.6477 35.6375 24.4656 35.3569C25.2522 35.0917 25.8501 34.5127 26.187 33.8115L26.187 33.8115L26.1909 33.8034C26.4036 33.3537 26.5 32.8686 26.5 32.4024V8.87427Z" stroke="#737373" stroke-width="3"/>
</svg>
