<svg width="16" height="26" viewBox="0 0 16 26" fill="none" xmlns="http://www.w3.org/2000/svg">
<g id="Frame 13">
<g id="Group 221">
<path id="Vector" d="M13.4073 6.02994H7.92322L1.72513 2.44463C1.45111 2.28641 1.35462 1.93133 1.51287 1.65734L2.3079 0.283415C2.46225 0.0171209 2.8289 -0.0793624 3.09519 0.0711322L13.4073 6.02994ZM15.2945 7.57367V8.77395C15.2945 9.19846 14.9511 9.54581 14.5227 9.54581H0.771866C0.347347 9.54581 0 9.19846 0 8.77395V7.57367C0 7.14916 0.347347 6.80181 0.771866 6.80181H14.5227C14.9511 6.80181 15.2945 7.14916 15.2945 7.57367ZM14.4262 10.3177L13.0368 19.0436C12.8709 19.0166 12.7011 19.005 12.5274 19.005C10.5192 19.005 8.9112 20.6108 8.9112 22.6212C8.9112 23.0882 8.99996 23.5474 9.18136 23.9874H4.033C3.45796 23.9874 2.97941 23.5783 2.89065 23.011L0.868345 10.3177H14.4262Z" fill="#ACACAC"/>
<path id="Vector_2" d="M12.5266 23.0548C12.7661 23.0548 12.9604 22.8606 12.9604 22.621C12.9604 22.3815 12.7661 22.1873 12.5266 22.1873C12.287 22.1873 12.0928 22.3815 12.0928 22.621C12.0928 22.8606 12.287 23.0548 12.5266 23.0548Z" fill="#ACACAC"/>
<path id="Vector_3" d="M12.5274 19.7769C10.9585 19.7769 9.68311 21.0225 9.68311 22.6212C9.68311 24.1894 10.9525 25.4655 12.5274 25.4655C14.0943 25.4655 15.3718 24.1881 15.3718 22.6212C15.3718 21.0543 14.0943 19.7769 12.5274 19.7769ZM12.5265 23.8267C11.8617 23.8267 11.3209 23.2859 11.3209 22.6211C11.3209 21.9563 11.8617 21.4154 12.5265 21.4154C13.1914 21.4154 13.7322 21.9563 13.7322 22.6211C13.7322 23.2859 13.1914 23.8267 12.5265 23.8267Z" fill="#ACACAC"/>
</g>
</g>
</svg>
