<svg xmlns="http://www.w3.org/2000/svg" width="36" height="36" viewBox="0 0 27 34" fill="none">
  <path d="M24.5188 12.3843L23.9813 28.6531C23.9355 30.0464 23.3485 31.367 22.345 32.3347C21.3415 33.3024 20.0003 33.8409 18.6063 33.8359H8.39377C7.0006 33.8409 5.66025 33.3031 4.65686 32.3366C3.65347 31.3701 3.06592 30.0508 3.01877 28.6584L2.48127 12.3843C2.46951 12.0279 2.59981 11.6814 2.84349 11.4211C3.08718 11.1608 3.42429 11.008 3.78068 10.9962C4.13706 10.9844 4.48352 11.1147 4.74384 11.3584C5.00416 11.6021 5.15701 11.9392 5.16877 12.2956L5.70627 28.5684C5.73304 29.2631 6.02796 29.9204 6.52909 30.4022C7.03022 30.8841 7.69857 31.153 8.39377 31.1524H18.6063C19.3024 31.1529 19.9715 30.8833 20.4728 30.4003C20.974 29.9173 21.2684 29.2587 21.2938 28.563L21.8313 12.2956C21.843 11.9392 21.9959 11.6021 22.2562 11.3584C22.5165 11.1147 22.863 10.9844 23.2194 10.9962C23.5757 11.008 23.9129 11.1608 24.1566 11.4211C24.4002 11.6814 24.5305 12.0279 24.5188 12.3843ZM26.2966 6.97032C26.2966 7.3267 26.155 7.66849 25.903 7.92049C25.651 8.1725 25.3092 8.31407 24.9528 8.31407H2.04858C1.6922 8.31407 1.35041 8.1725 1.09841 7.92049C0.846407 7.66849 0.704834 7.3267 0.704834 6.97032C0.704834 6.61393 0.846407 6.27215 1.09841 6.02014C1.35041 5.76814 1.6922 5.62657 2.04858 5.62657H6.21421C6.63997 5.62772 7.05093 5.47041 7.36712 5.18528C7.6833 4.90014 7.88209 4.50756 7.9248 4.08394C8.02396 3.09022 8.48953 2.16901 9.23079 1.49979C9.97204 0.830569 10.9359 0.461283 11.9346 0.463881H15.0655C16.0641 0.461283 17.028 0.830569 17.7693 1.49979C18.5105 2.16901 18.9761 3.09022 19.0752 4.08394C19.1179 4.50756 19.3167 4.90014 19.6329 5.18528C19.9491 5.47041 20.3601 5.62772 20.7858 5.62657H24.9515C25.3078 5.62657 25.6496 5.76814 25.9016 6.02014C26.1536 6.27215 26.2952 6.61393 26.2952 6.97032H26.2966ZM10.2576 5.62657H16.7452C16.5686 5.2231 16.4531 4.79557 16.4025 4.35807C16.3692 4.02684 16.2142 3.71977 15.9674 3.49634C15.7206 3.2729 15.3997 3.14902 15.0668 3.14869H11.9359C11.603 3.14902 11.2821 3.2729 11.0353 3.49634C10.7885 3.71977 10.6335 4.02684 10.6002 4.35807C10.5492 4.79564 10.4346 5.22317 10.2576 5.62657ZM11.6107 25.9857V14.5437C11.6107 14.1873 11.4691 13.8455 11.2171 13.5935C10.9651 13.3415 10.6233 13.1999 10.267 13.1999C9.91057 13.1999 9.56879 13.3415 9.31678 13.5935C9.06478 13.8455 8.92321 14.1873 8.92321 14.5437V25.9911C8.92321 26.3475 9.06478 26.6893 9.31678 26.9413C9.56879 27.1933 9.91057 27.3349 10.267 27.3349C10.6233 27.3349 10.9651 27.1933 11.2171 26.9413C11.4691 26.6893 11.6107 26.3475 11.6107 25.9911V25.9857ZM18.0795 25.9857V14.5437C18.0795 14.1873 17.9379 13.8455 17.6859 13.5935C17.4339 13.3415 17.0922 13.1999 16.7358 13.1999C16.3794 13.1999 16.0376 13.3415 15.7856 13.5935C15.5336 13.8455 15.392 14.1873 15.392 14.5437V25.9911C15.392 26.3475 15.5336 26.6893 15.7856 26.9413C16.0376 27.1933 16.3794 27.3349 16.7358 27.3349C17.0922 27.3349 17.4339 27.1933 17.6859 26.9413C17.9379 26.6893 18.0795 26.3475 18.0795 25.9911V25.9857Z" fill="#818181"/>
</svg>