<svg width="60" height="60" viewBox="0 0 60 60" fill="none" xmlns="http://www.w3.org/2000/svg">
<g filter="url(#filter0_i_3541_6585)">
<circle cx="30" cy="30" r="29.4595" fill="url(#paint0_linear_3541_6585)" stroke="#DDBE8F" stroke-width="1.08108"/>
</g>
<g clip-path="url(#clip0_3541_6585)">
<path d="M30.0341 12.9916C35.053 12.9916 40.0719 13.009 45.0908 12.9742C45.9907 12.9742 46.2157 13.2872 46.2157 14.1221C46.1984 24.2096 46.1984 34.2971 46.2157 44.3672C46.2157 45.2716 45.8869 45.5673 45.0388 45.4629C44.2774 45.376 43.637 45.4282 43.7236 46.4891C43.7582 46.8717 43.4466 47.0282 43.0832 47.0282C41.7852 47.0282 40.4872 47.0108 39.1892 47.0282C38.6181 47.0282 38.5316 46.663 38.5489 46.2108C38.5835 45.6369 38.3066 45.4629 37.7701 45.4629C32.5781 45.4803 27.3862 45.4803 22.1942 45.4629C21.6231 45.4629 21.4154 45.7064 21.4327 46.2456C21.4501 46.8369 21.1731 47.063 20.5847 47.0456C19.4252 47.0108 18.283 47.0282 17.1234 47.0456C16.535 47.063 16.1716 46.8891 16.2235 46.2108C16.2754 45.5499 15.8947 45.4629 15.3582 45.4629C13.7486 45.4803 13.7833 45.6543 13.7833 43.8455C13.7833 33.984 13.7833 24.14 13.7833 14.2786C13.7833 12.9916 13.7833 12.9916 15.0639 12.9916C20.0655 12.9916 25.0498 12.9916 30.0341 12.9916ZM30.1033 17.2701C26.5036 17.2701 22.8865 17.2875 19.2867 17.2527C18.5772 17.2527 18.3003 17.4788 18.3522 18.2093C18.4041 19.0267 18.3695 19.8267 18.3522 20.6442C18.3522 20.9398 18.3695 21.3225 18.0234 21.3573C17.21 21.4616 17.2965 22.0182 17.2965 22.5747C17.2965 23.1487 17.3138 23.74 17.2965 24.3139C17.2965 24.7835 17.3311 25.1836 17.9368 25.2531C18.3003 25.2879 18.3522 25.601 18.3522 25.914C18.3522 27.8794 18.3522 29.8621 18.3522 31.8274C18.3522 32.0883 18.3522 32.4187 17.9887 32.4187C17.21 32.4013 17.2792 32.9231 17.2792 33.4275C17.2792 34.158 17.2792 34.871 17.2965 35.6015C17.2965 35.932 17.3138 36.2798 17.7465 36.3146C18.3003 36.3668 18.3695 36.732 18.3695 37.1668C18.3695 38.0886 18.4041 39.0278 18.3522 39.9496C18.3349 40.5583 18.5252 40.6975 19.131 40.7496C21.2078 40.9236 23.2845 40.6975 25.344 40.7322C28.2515 40.767 31.159 40.8192 34.0665 40.8018C35.1914 40.8018 36.3164 40.6627 37.4413 40.7496C38.5662 40.8366 39.6911 40.8018 40.8161 40.7496C41.6295 40.7148 41.8198 40.4018 41.8198 39.6365C41.7852 32.5405 41.7852 25.4444 41.8198 18.331C41.8198 17.4092 41.5083 17.2179 40.6776 17.2353C37.1471 17.2875 33.6165 17.2701 30.1033 17.2701Z" fill="#FF9900"/>
<path d="M30.1384 18.9215C33.1324 18.9215 36.1437 18.9389 39.1378 18.9041C39.8992 18.9041 40.1588 19.165 40.1415 19.9129C40.1242 26.035 40.1242 32.1397 40.1415 38.2617C40.1415 38.9574 39.8473 39.1661 39.207 39.1661C33.1151 39.1487 27.0405 39.1487 20.9486 39.1661C20.239 39.1661 19.9275 38.9052 19.9967 38.1922C20.0313 37.7921 19.9967 37.3747 20.014 36.9747C20.014 36.6964 20.066 36.4008 20.3775 36.366C21.1043 36.3138 21.0697 35.8268 21.0697 35.305C21.0697 34.6963 21.0524 34.0876 21.0697 33.4789C21.087 32.9745 21.0351 32.5571 20.4121 32.4701C20.1006 32.4353 20.0313 32.157 20.0313 31.8788C20.0313 29.8787 20.0313 27.8786 20.0313 25.8784C20.0313 25.6002 20.066 25.3045 20.3775 25.2697C21.139 25.1828 21.087 24.661 21.087 24.1218C21.0697 23.6001 21.087 23.0783 21.087 22.5565C21.087 22 21.1736 21.4608 20.3602 21.3391C19.8929 21.2695 20.0313 20.7303 20.0313 20.3651C19.9967 18.9041 20.014 18.9041 21.4159 18.9041C24.3061 18.9215 27.2309 18.9215 30.1384 18.9215ZM22.6619 29.2525C22.6619 33.3745 25.9675 36.679 30.0172 36.6443C34.0842 36.6095 37.3206 33.3049 37.3206 29.183C37.3206 25.1132 33.9631 21.8087 29.8961 21.826C25.9156 21.826 22.6619 25.1828 22.6619 29.2525Z" fill="#FF9900"/>
<path d="M29.1692 23.5826C29.5326 23.513 29.6018 23.8261 29.6191 24.2261C29.6191 24.487 29.6018 24.8 29.9653 24.8174C30.3979 24.8522 30.3979 24.5044 30.3806 24.2087C30.346 23.6 30.6921 23.5478 31.1594 23.6347C31.7305 23.7565 32.2497 23.9826 32.7689 24.2609C33.3573 24.5739 33.8765 24.9044 33.0631 25.5479C32.8555 25.7218 32.8035 25.9131 33.0285 26.1392C33.2362 26.3479 33.4439 26.3305 33.6169 26.1218C34.2573 25.3392 34.6034 25.8088 34.9322 26.4175C35.2265 26.9567 35.4168 27.5306 35.5553 28.1219C35.6764 28.6611 35.5207 28.8872 34.9669 28.9046C34.7246 28.9046 34.3092 28.7307 34.3265 29.2177C34.3265 29.5829 34.638 29.5829 34.8976 29.5829C35.6245 29.5829 35.6937 29.9655 35.5207 30.5569C35.3649 31.096 35.1745 31.6004 34.9149 32.0874C34.5861 32.6961 34.24 33.1483 33.5996 32.3657C33.4266 32.157 33.2189 32.1396 33.0112 32.3483C32.7862 32.5744 32.8555 32.7657 33.0631 32.9396C33.79 33.5136 33.4612 33.8788 32.8208 34.1918C32.3709 34.4006 31.9382 34.6267 31.4709 34.7832C30.8825 34.9745 30.2768 35.1136 30.3633 34.1223C30.3806 33.8614 30.2595 33.6701 29.948 33.6875C29.6364 33.7049 29.5845 33.9484 29.6018 34.1918C29.6538 34.9571 29.2384 34.9919 28.6673 34.8354C28.1481 34.6788 27.6289 34.5223 27.1443 34.244C26.5559 33.9136 26.0367 33.5831 26.8501 32.9396C27.0578 32.7831 27.0924 32.557 26.8847 32.3309C26.6597 32.1048 26.452 32.1917 26.2963 32.3831C25.7079 33.1135 25.3617 32.7483 25.0502 32.1222C24.7733 31.583 24.5137 31.0265 24.3926 30.4351C24.2887 29.9481 24.4099 29.6525 24.9637 29.6177C25.2233 29.6003 25.6213 29.7046 25.604 29.2524C25.5867 28.8698 25.2406 28.9394 24.9983 28.922C24.3926 28.9046 24.2714 28.5915 24.4099 28.0524C24.5483 27.4784 24.7733 26.9567 25.0502 26.4349C25.379 25.8088 25.7079 25.3566 26.3309 26.174C26.4693 26.3479 26.6597 26.4349 26.8501 26.2436C27.0578 26.0697 27.1097 25.8262 26.902 25.6349C26.0194 24.8696 26.7116 24.5391 27.3001 24.2087C27.8366 23.8782 28.4077 23.6869 29.1692 23.5826ZM29.9653 31.2699C31.1421 31.2699 31.9728 30.4177 31.9901 29.2524C31.9901 28.0002 31.1767 27.1828 29.948 27.1828C28.8577 27.1828 27.9058 28.1393 27.9231 29.2351C27.9231 30.3308 28.875 31.2699 29.9653 31.2699Z" fill="#FF9900"/>
</g>
<defs>
<filter id="filter0_i_3541_6585" x="0" y="0" width="60" height="60" filterUnits="userSpaceOnUse" color-interpolation-filters="sRGB">
<feFlood flood-opacity="0" result="BackgroundImageFix"/>
<feBlend mode="normal" in="SourceGraphic" in2="BackgroundImageFix" result="shape"/>
<feColorMatrix in="SourceAlpha" type="matrix" values="0 0 0 0 0 0 0 0 0 0 0 0 0 0 0 0 0 0 127 0" result="hardAlpha"/>
<feOffset/>
<feGaussianBlur stdDeviation="2.16216"/>
<feComposite in2="hardAlpha" operator="arithmetic" k2="-1" k3="1"/>
<feColorMatrix type="matrix" values="0 0 0 0 0 0 0 0 0 0 0 0 0 0 0 0 0 0 0.25 0"/>
<feBlend mode="normal" in2="shape" result="effect1_innerShadow_3541_6585"/>
</filter>
<linearGradient id="paint0_linear_3541_6585" x1="53.25" y1="1.52998e-06" x2="30" y2="60" gradientUnits="userSpaceOnUse">
<stop stop-color="#FFF3D3"/>
<stop offset="1" stop-color="#FCF2D8"/>
</linearGradient>
<clipPath id="clip0_3541_6585">
<rect width="32.4324" height="34.0541" fill="white" transform="translate(13.7837 12.973)"/>
</clipPath>
</defs>
</svg>
