<svg width="38" height="47" viewBox="0 0 38 47" fill="none" xmlns="http://www.w3.org/2000/svg">
<path d="M27.5629 39.3363C21.6766 42.2993 18.8586 45.0385 18.8586 45.0385C18.8586 45.0385 16.0406 42.2993 10.1543 39.3363C0.611616 34.5325 1.35748 24.2367 1.45252 7.5625L8.47757 1.42188H29.2396L36.2647 7.5625C36.3639 24.2367 37.1056 34.5325 27.5629 39.3363Z" fill="#B1B1B1"/>
<g style="mix-blend-mode:screen">
<path d="M27.5627 39.3363C21.6764 42.2993 18.8584 45.0385 18.8584 45.0385V1.42188H29.2394L36.2645 7.5625C36.3637 24.2367 37.1054 34.5325 27.5627 39.3363Z" fill="#F4F4F4" fill-opacity="0.3"/>
</g>
<path d="M18.8567 47L17.8902 46.0646C17.8656 46.0404 15.1197 43.4211 9.53211 40.6087C4.98055 38.3175 2.27795 34.6946 1.0289 29.2078C-0.0852268 24.2972 -0.0368601 18.2806 0.0284773 10.6619C0.0375284 9.6518 0.0457309 8.61559 0.0530849 7.55325V6.90637L7.95807 0H29.7596L37.6612 6.90637V7.55325C37.6679 8.61559 37.6762 9.6518 37.6858 10.6619C37.7511 18.2806 37.8029 24.2972 36.6853 29.2078C35.4363 34.6946 32.7337 38.3175 28.1821 40.6087C22.5945 43.4211 19.8486 46.0404 19.8215 46.0663L18.8567 47ZM2.84902 8.21735C2.8428 9.05747 2.83601 9.88064 2.82865 10.6869C2.70392 25.1999 2.6301 33.9608 10.7761 38.0625C14.8804 40.1298 17.5432 42.092 18.8584 43.1678C20.1728 42.092 22.8355 40.1281 26.9399 38.0625C35.0858 33.9608 35.0129 25.1999 34.8881 10.6869C34.8814 9.88006 34.8746 9.05689 34.8678 8.21735L28.7201 2.84248H8.99414L2.84902 8.21735Z" fill="#4B4B4B"/>
<path d="M18.8569 45.1575L18.7983 45.1007C18.7703 45.074 15.9201 42.3357 10.1152 39.4157C5.88609 37.2864 3.47879 34.0469 2.30865 28.9071C1.22507 24.1507 1.27683 18.203 1.34132 10.6731C1.34981 9.66125 1.35801 8.6236 1.36593 7.56011V7.52135L8.44444 1.33594H29.2727L36.3503 7.52307V7.56183C36.3565 8.62532 36.3645 9.66297 36.3741 10.6748C36.4386 18.2048 36.4903 24.1516 35.4067 28.908C34.2375 34.0451 31.8302 37.2847 27.6002 39.4166C21.7953 42.3383 18.9451 45.0765 18.9171 45.1015L18.8569 45.1575ZM1.53564 7.60232C1.52941 8.65202 1.52149 9.67675 1.51188 10.6765C1.44739 18.1944 1.39648 24.1335 2.47412 28.8701C3.63153 33.9521 6.01083 37.1555 10.1907 39.2589C15.5654 41.9653 18.4216 44.5175 18.8569 44.9215C19.293 44.5175 22.1492 41.9653 27.5238 39.2589C31.7037 37.1555 34.083 33.9513 35.2404 28.8692C36.3189 24.1318 36.2672 18.1944 36.2027 10.6756C36.1942 9.67647 36.1863 8.65202 36.1789 7.60232L29.2065 1.50821H8.50808L1.53564 7.60232Z" fill="#A9A9A9"/>
<path d="M14.5866 12.8182L19.647 27.6264H19.8512L24.9116 12.8182H27.8768L21.3338 31H18.1644L11.6214 12.8182H14.5866Z" fill="#4B4B4B"/>
</svg>
