<svg width="74" height="74" viewBox="0 0 74 74" fill="none" xmlns="http://www.w3.org/2000/svg">
<g clip-path="url(#clip0_532_9380)">
<path d="M63.0638 63.0682C77.435 48.697 77.435 25.3968 63.0638 11.0256C48.6927 -3.34556 25.3924 -3.34556 11.0213 11.0256C-3.34988 25.3968 -3.34988 48.697 11.0213 63.0682C25.3924 77.4393 48.6927 77.4393 63.0638 63.0682Z" fill="url(#paint0_radial_532_9380)"/>
<g clip-path="url(#clip1_532_9380)">
<path fill-rule="evenodd" clip-rule="evenodd" d="M20.162 50.3828C21.514 50.0151 22.9888 49.5248 24.3408 49.2797C22.8659 45.7254 21.8827 41.5583 21.7598 37.0234H15C15.2458 42.0485 17.0894 46.7059 20.162 50.3828Z" fill="#19679F"/>
<path fill-rule="evenodd" clip-rule="evenodd" d="M25.9385 48.9115C27.6592 48.5438 29.3799 48.2987 31.1006 48.0536C30.6089 44.867 30.2402 40.945 30.2402 36.9004H23.3575C23.4804 41.4352 24.3408 45.4798 25.9385 48.9115Z" fill="#19679F"/>
<path fill-rule="evenodd" clip-rule="evenodd" d="M32.5754 48.0541C34.0503 47.9315 35.648 47.809 37.1229 47.809C38.5978 47.809 39.9497 47.9315 41.4246 48.0541C41.9162 44.8674 42.2849 41.068 42.2849 37.0234H37H31.7151C31.7151 41.068 32.0838 44.7449 32.5754 48.0541Z" fill="#19679F"/>
<path fill-rule="evenodd" clip-rule="evenodd" d="M43.0223 48.1766C44.743 48.4218 46.4637 48.5443 48.1844 48.912C49.6592 45.4803 50.6425 41.4357 50.6425 37.0234H43.8827C43.8827 41.068 43.514 44.8674 43.0223 48.1766Z" fill="#19679F"/>
<path fill-rule="evenodd" clip-rule="evenodd" d="M49.7821 49.2797C51.1341 49.6474 52.6089 49.8925 53.9609 50.3828C57.0335 46.7059 58.8771 42.1711 59.1229 37.0234H52.3631C52.2402 41.5583 51.257 45.7254 49.7821 49.2797Z" fill="#19679F"/>
<path fill-rule="evenodd" clip-rule="evenodd" d="M52.7318 51.6084C51.5027 51.2407 50.2737 50.9956 49.0446 50.6279C48.6759 51.3633 48.3072 51.9761 47.9385 52.5889C46.8323 54.3048 45.6033 55.7756 44.2513 56.8786C47.4469 55.8981 50.2737 54.0597 52.7318 51.6084Z" fill="#19679F"/>
<path fill-rule="evenodd" clip-rule="evenodd" d="M47.4469 50.3828C45.8492 50.0151 44.2514 49.8926 42.7765 49.6475C42.5307 50.628 42.4078 51.6085 42.162 52.4664C41.5475 54.55 40.933 56.3884 40.0726 57.614C42.5307 56.6335 44.8659 54.6725 46.7095 51.8536C46.9553 51.3633 47.2011 50.8731 47.4469 50.3828Z" fill="#19679F"/>
<path fill-rule="evenodd" clip-rule="evenodd" d="M41.1787 49.5249C39.8268 49.4023 38.4748 49.4023 37.2458 49.4023C35.7709 49.4023 34.419 49.4023 32.9441 49.5249C33.1899 50.3828 33.3128 51.2408 33.5586 52.0987C34.5419 55.8982 35.8938 58.2269 37.1229 58.2269C38.3519 58.2269 39.7039 55.8982 40.6871 52.0987C40.81 51.3633 41.0558 50.5054 41.1787 49.5249Z" fill="#19679F"/>
<path fill-rule="evenodd" clip-rule="evenodd" d="M31.3464 49.6475C29.7487 49.77 28.1509 50.0151 26.676 50.3828C26.9218 50.8731 27.2906 51.3633 27.5364 51.8536C29.3799 54.6725 31.5922 56.7561 34.1732 57.614C33.3129 56.3884 32.6984 54.55 32.0838 52.4664C31.7151 51.6085 31.4693 50.7505 31.3464 49.6475Z" fill="#19679F"/>
<path fill-rule="evenodd" clip-rule="evenodd" d="M24.9553 50.75C23.7263 50.9951 22.4972 51.3628 21.2682 51.7305L21.3911 51.8531C23.7263 54.1818 26.5531 56.0202 29.7486 57.1233C28.3967 56.0202 27.1676 54.5494 26.0615 52.8336C25.6928 52.0982 25.3241 51.3628 24.9553 50.75Z" fill="#19679F"/>
<path fill-rule="evenodd" clip-rule="evenodd" d="M21.5139 20.6003C22.743 20.968 23.8491 21.2131 25.0782 21.4582C25.4469 20.8454 25.6927 20.2326 26.1843 19.6198C27.2905 17.9039 28.5195 16.4331 29.8715 15.3301C26.553 16.5557 23.8491 18.3941 21.5139 20.6003Z" fill="#19679F"/>
<path fill-rule="evenodd" clip-rule="evenodd" d="M26.676 21.8259C28.2738 22.1936 29.8716 22.3162 31.3464 22.5613C31.5922 21.5808 31.7151 20.7229 31.9609 19.9875C32.5755 17.7813 33.19 16.0655 34.0503 14.8398C31.5922 15.8203 29.257 17.7813 27.4135 20.6003C27.1676 20.968 26.9218 21.4582 26.676 21.8259Z" fill="#19679F"/>
<path fill-rule="evenodd" clip-rule="evenodd" d="M32.9441 22.6834C34.296 22.8059 35.7709 22.8059 37.1229 22.8059C38.4748 22.8059 39.7039 22.6834 41.0558 22.6834C40.9329 21.8254 40.81 21.0901 40.5642 20.3547C39.581 16.5553 38.3519 14.2266 37 14.2266C35.7709 14.2266 34.419 16.5553 33.4357 20.3547C33.3128 21.0901 33.067 21.8254 32.9441 22.6834Z" fill="#19679F"/>
<path fill-rule="evenodd" clip-rule="evenodd" d="M42.7765 22.5613C44.3743 22.4387 45.8492 22.1936 47.4469 21.8259C47.2011 21.4582 46.9553 20.968 46.7095 20.6003C44.8659 17.7813 42.6536 15.6978 40.0726 14.8398C40.933 16.0655 41.5475 17.9039 42.162 19.9875C42.2849 20.7229 42.5307 21.5808 42.7765 22.5613Z" fill="#19679F"/>
<path fill-rule="evenodd" clip-rule="evenodd" d="M49.0446 21.5808C50.2737 21.3356 51.5027 21.0905 52.6089 20.7228C50.2737 18.3941 47.4469 16.6783 44.2513 15.5752C45.6033 16.6783 46.8323 18.149 47.9385 19.8649C48.3072 20.2326 48.6759 20.8454 49.0446 21.5808Z" fill="#19679F"/>
<path fill-rule="evenodd" clip-rule="evenodd" d="M53.838 21.9482C52.486 22.3159 51.1341 22.6836 49.7821 23.0513C51.3799 26.6056 52.2402 30.8953 52.3631 35.4301H59.1229C58.8771 30.2825 56.9106 25.6251 53.838 21.9482Z" fill="#19679F"/>
<path fill-rule="evenodd" clip-rule="evenodd" d="M48.0614 23.2959C46.3408 23.6636 44.6201 23.9087 42.8994 24.0313C43.5139 27.3405 43.7597 31.2625 43.8827 35.4296H50.6424C50.6424 30.8948 49.6592 26.7277 48.0614 23.2959Z" fill="#19679F"/>
<path fill-rule="evenodd" clip-rule="evenodd" d="M41.4246 24.2764C39.9497 24.3989 38.5978 24.3989 37.1229 24.5215C35.648 24.5215 34.0503 24.3989 32.5754 24.2764C31.9609 27.5856 31.7151 31.385 31.5922 35.4296H36.8771H42.162C42.2849 31.385 42.0391 27.463 41.4246 24.2764Z" fill="#19679F"/>
<path fill-rule="evenodd" clip-rule="evenodd" d="M31.1006 24.1543C29.3799 23.9092 27.6592 23.6641 25.9385 23.4189C24.3408 26.8507 23.4804 31.0178 23.3575 35.5526H30.1173C30.1173 31.263 30.486 27.4635 31.1006 24.1543Z" fill="#19679F"/>
<path fill-rule="evenodd" clip-rule="evenodd" d="M24.3408 22.9287C22.9888 22.6836 21.6369 22.3159 20.2849 21.9482C17.0894 25.6251 15.1229 30.2825 15 35.4301H21.7598C21.8827 30.7728 22.743 26.4831 24.3408 22.9287Z" fill="#19679F"/>
</g>
<g clip-path="url(#clip2_532_9380)">
<path d="M25.9785 61.2266L25.5039 61.0519C21.017 59.4801 15.1495 55.0702 13.3806 47.735C11.396 39.4829 12.0863 34.8984 12.1295 34.7237L12.302 33.7632L13.2081 33.5012C13.2512 33.5012 14.7612 33.0209 19.0324 31.9294C23.5193 30.7505 25.6333 30.3139 25.7196 30.3139L25.9785 30.2266L26.2805 30.2702C26.3668 30.2702 28.4376 30.7068 32.9677 31.8857C37.1957 32.9773 38.7057 33.4575 38.792 33.4575L39.698 33.7195L39.8706 34.6801C39.9137 34.8547 40.604 39.4392 38.6195 47.6914C36.8506 55.0702 30.9831 59.4801 26.4962 61.0519L25.9785 61.2266ZM15.0632 36.1209C14.9769 37.7801 15.0201 41.4914 16.3144 46.9928C17.7381 52.8435 22.2681 56.5111 25.9785 57.9519C29.6456 56.5111 34.2188 52.8435 35.6426 46.9928C36.98 41.4477 37.0231 37.7364 36.9369 36.1209C36.074 35.859 34.564 35.466 32.1911 34.8547C28.7396 33.9378 26.6688 33.5012 25.9785 33.3266C25.245 33.5012 23.2173 33.9378 19.7658 34.8547C17.4361 35.466 15.9261 35.9026 15.0632 36.1209Z" fill="#5A91B8"/>
<path d="M25.9785 60.3095L25.7628 60.2221C21.4916 58.7376 15.9261 54.5024 14.2435 47.5165C12.3021 39.439 12.9492 35.0292 12.9924 34.8545L13.0787 34.4616L13.4669 34.3306C13.5101 34.3306 15.0201 33.8503 19.2481 32.7588C23.735 31.5799 25.8059 31.1869 25.8922 31.1433L25.9785 31.0996L26.1079 31.1433C26.1942 31.1433 28.2651 31.5799 32.752 32.7588C36.98 33.8503 38.4901 34.2869 38.5332 34.3306L38.9215 34.4616L39.0078 34.8545C39.0509 35.0292 39.6981 39.439 37.7566 47.5165C36.074 54.5024 30.5085 58.7376 26.1942 60.2221L25.9785 60.3095ZM14.2435 35.4658C14.1141 36.6883 13.9415 40.7926 15.4947 47.2109C17.0047 53.5855 22.0525 57.4714 25.9785 58.9123C29.9045 57.4714 34.9523 53.5855 36.4623 47.2109C38.0586 40.7489 37.8861 36.6883 37.7566 35.4658C37.0663 35.2475 35.4269 34.8109 32.4069 34.025C28.5671 33.0207 26.4962 32.5841 25.9785 32.4531C25.4608 32.5841 23.3899 33.0207 19.5501 34.025C16.5733 34.8109 14.9338 35.2475 14.2435 35.4658Z" fill="white"/>
<path d="M25.9785 31.7988C25.9785 31.7988 28.0493 32.2354 32.5794 33.4143C36.8506 34.5059 38.3606 34.9862 38.3606 34.9862C38.3606 34.9862 39.0509 39.3523 37.1094 47.3862C35.5563 53.8918 30.4222 58.0833 25.9785 59.6115C21.5347 58.0833 16.4006 53.8918 14.8475 47.3862C12.9492 39.3087 13.6395 34.9425 13.6395 34.9425C13.6395 34.9425 15.1495 34.5059 19.4207 33.3707C23.9076 32.1918 25.9785 31.7988 25.9785 31.7988Z" fill="#217BB3"/>
<path d="M24.6218 50.9179C24.4713 51.0863 24.2581 51.2266 24.0699 51.2266C23.8818 51.2266 23.6686 51.0792 23.5118 50.9109L20 46.9823L21.1163 45.7336L24.0762 49.0448L31.9026 40.2266L33 41.4963L24.6218 50.9179Z" fill="white" stroke="white" stroke-linejoin="round"/>
</g>
<mask id="mask0_532_9380" style="mask-type:alpha" maskUnits="userSpaceOnUse" x="0" y="0" width="74" height="74">
<circle cx="36.8" cy="37.0266" r="36.8" fill="#D9D9D9"/>
</mask>
<g mask="url(#mask0_532_9380)">
<circle cx="59.5" cy="22.7266" r="14.5" fill="#E2E1E1"/>
<path d="M66.5455 17.2266H53.4545C52.6509 17.2266 52 17.8531 52 18.6266V27.0266C52 27.8001 52.6509 28.4266 53.4545 28.4266H58.5455V29.8266H57.0909V31.2266H62.9091V29.8266H61.4545V28.4266H66.5455C67.3491 28.4266 68 27.8001 68 27.0266V18.6266C68 17.8531 67.3491 17.2266 66.5455 17.2266ZM66.5455 27.0266H53.4545V18.6266H66.5455V27.0266Z" fill="#19679F"/>
</g>
</g>
<defs>
<radialGradient id="paint0_radial_532_9380" cx="0" cy="0" r="1" gradientUnits="userSpaceOnUse" gradientTransform="translate(37.0426 37.0469) rotate(45) scale(36.7996)">
<stop stop-color="#FFD6AF"/>
<stop offset="1" stop-color="#EAD305"/>
</radialGradient>
<clipPath id="clip0_532_9380">
<rect width="73.6" height="73.6" fill="white" transform="translate(0 0.226562)"/>
</clipPath>
<clipPath id="clip1_532_9380">
<rect width="44" height="44" fill="white" transform="translate(15 14.2266)"/>
</clipPath>
<clipPath id="clip2_532_9380">
<rect width="28" height="31" fill="white" transform="translate(12 30.2266)"/>
</clipPath>
</defs>
</svg>
