<svg width="40" height="40" viewBox="0 0 40 40" fill="none" xmlns="http://www.w3.org/2000/svg">
<circle cx="20" cy="20" r="20" fill="#0FB063"/>
<path d="M10.2097 20.267L9.8824 19.889C9.64877 20.0913 9.5 20.3823 9.5 20.7045C9.5 21.0266 9.64877 21.3176 9.8824 21.5199L9.88351 21.5209L15.3197 26.199L15.3212 26.2004C15.4378 26.2999 15.5722 26.3754 15.7151 26.4256C15.8581 26.4759 16.0091 26.5007 16.1602 26.5L16.1577 26L16.1595 26.5C16.4579 26.4989 16.756 26.3976 16.987 26.2004L16.9884 26.1991L29.496 15.4418L29.1714 15.0615L29.4974 15.4405L29.4965 15.4413C29.6133 15.3415 29.7109 15.2186 29.7792 15.0774C29.8478 14.9357 29.8846 14.7803 29.8846 14.6209C29.8846 14.4616 29.8478 14.3062 29.7792 14.1645M10.2097 20.267L9.88198 19.8894C9.99816 19.7886 10.1325 19.7119 10.2755 19.6606C10.4186 19.6093 10.57 19.5835 10.7215 19.5835C10.8731 19.5835 11.0245 19.6093 11.1676 19.6606C11.3103 19.7117 11.4443 19.7882 11.5602 19.8886C11.5605 19.8889 11.5608 19.8891 11.5611 19.8894L16.1577 23.845L27.8286 13.8014L27.8297 13.8005C28.0622 13.6017 28.3626 13.5 28.6631 13.5C28.9633 13.5 29.2636 13.6015 29.496 13.8001C29.613 13.9 29.7108 14.0231 29.7792 14.1645M10.2097 20.267C10.0754 20.3833 10 20.5405 10 20.7045C10 20.8684 10.0754 21.0256 10.2097 21.1419L11.2334 20.267C11.1664 20.2089 11.0867 20.1627 10.9988 20.1312C10.911 20.0997 10.8167 20.0835 10.7215 20.0835C10.6264 20.0835 10.5321 20.0997 10.4443 20.1312C10.3564 20.1627 10.2767 20.2089 10.2097 20.267ZM29.7792 14.1645L29.33 14.3819L29.7792 14.1645C29.7792 14.1645 29.7792 14.1645 29.7792 14.1645Z" fill="white" stroke="white"/>
</svg>
