<svg width="75" height="76" viewBox="0 0 75 76" fill="none" xmlns="http://www.w3.org/2000/svg">
<path d="M73.877 38.327C74.0316 18.0037 57.6816 1.40315 37.3583 1.2486C17.035 1.09405 0.434393 17.444 0.279841 37.7673C0.125289 58.0906 16.4753 74.6912 36.7986 74.8458C57.1219 75.0003 73.7224 58.6503 73.877 38.327Z" fill="url(#paint0_radial_532_9443)"/>
<path fill-rule="evenodd" clip-rule="evenodd" d="M13.0025 38.1652C13.0263 36.7833 13.1137 35.4094 13.3519 34.0434C13.5981 32.6059 13.9555 31.1684 14.4876 29.8104C15.0276 28.4444 15.6233 27.1181 16.3857 25.8554C17.1322 24.6244 17.982 23.4808 18.9191 22.3927C21.0475 19.9149 23.7557 17.8977 26.7021 16.5078C28.6875 15.5707 30.7603 14.9513 32.9205 14.5542C34.9616 14.1809 37.0582 14.165 39.1231 14.3159C40.902 14.4509 42.7048 14.856 44.3964 15.4198C47.0966 16.3172 49.6221 17.6753 51.8538 19.4463C54.6017 21.6303 56.8333 24.3941 58.4296 27.5311C59.192 29.0321 59.8274 30.6601 60.2244 32.2962C60.4468 33.2254 60.6454 34.1545 60.7724 35.1076C60.9074 36.1162 60.963 37.1168 60.9948 38.1334C61.0345 39.8091 60.8439 41.5087 60.5104 43.1526C60.1371 45.011 59.5415 46.8297 58.7393 48.5451C57.9452 50.2526 56.9604 51.8886 55.777 53.3578C55.1735 54.1044 54.554 54.8271 53.871 55.5021C53.5216 55.8516 53.1642 56.1851 52.7989 56.5187C52.4494 56.8363 52.1 57.1381 51.687 57.3684C48.8994 58.9886 45.961 57.0587 43.7531 55.105C43.6102 55.2798 43.4672 55.4624 43.3163 55.6371C43.0304 55.9707 42.6413 56.1613 42.1966 56.2089C41.2991 56.3122 40.4652 56.066 39.6711 55.6927C37.0106 54.43 34.5327 52.8654 32.2375 51.0229C29.8153 49.0772 27.6551 46.8456 25.4949 44.606C22.7868 41.7866 20.6107 38.594 18.8238 35.1314C18.395 34.2975 18.0932 33.416 18.0376 32.4073C18.0296 31.8911 18.2123 31.3511 18.6332 30.9858C19.7451 30.0327 20.9205 29.175 22.2308 28.5079C22.9536 28.1347 23.5968 28.2458 24.1845 28.7779C25.6776 30.1519 27.1548 31.5417 28.5366 33.0347C29.3149 33.8766 29.3229 34.2022 28.6717 35.1552C28.2269 35.7985 27.7345 36.41 27.2898 37.0533C26.6386 37.9984 26.6624 38.737 27.3533 39.6503C27.6472 40.0315 27.9489 40.4127 28.2746 40.7701C29.847 42.4855 31.5069 44.1215 33.1985 45.7337C33.6909 46.2023 34.2071 46.6391 34.763 47.0282C35.4857 47.5285 36.2402 47.6397 37.0106 47.1235C37.2885 46.9409 37.5665 46.7502 37.8286 46.5517C38.3686 46.1387 38.9086 45.7337 39.4725 45.3684C39.9093 45.0825 40.3382 45.0904 40.767 45.3763C40.91 45.4716 41.0529 45.5749 41.18 45.686C42.6889 47.0917 44.1105 48.5848 45.5083 50.1017C46.0483 50.6894 46.1436 51.3406 45.7704 52.0554C45.4606 52.651 45.1112 53.2228 44.7379 53.7708C45.3494 54.3347 46.0007 54.8668 46.6996 55.3274C47.4699 55.8357 48.3515 56.2884 49.2886 56.3678C49.7492 56.4075 50.2019 56.336 50.6228 56.1534C51.0358 55.9707 51.3773 55.7007 51.7108 55.4068C52.4335 54.7715 53.1165 54.1044 53.7678 53.3975C55.0543 51.9998 56.1424 50.4194 57.0318 48.7436C57.9213 47.0679 58.5964 45.289 59.0411 43.4465C59.2714 42.5014 59.462 41.5245 59.5494 40.5556C59.6209 39.7694 59.6606 38.9832 59.6924 38.189C59.7003 37.6489 59.6765 37.0454 59.6288 36.4894C59.5812 35.8461 59.5256 35.2029 59.4223 34.5675C59.1364 32.9236 58.7314 31.3273 58.1278 29.7627C57.4845 28.0949 56.6348 26.5145 55.6261 25.0453C53.7281 22.2895 51.2026 19.9625 48.3197 18.263C46.2786 17.0638 44.0788 16.214 41.7756 15.666C40.2587 15.3086 38.7022 15.1498 37.1456 15.0942C35.0013 15.0307 32.7935 15.2928 30.7206 15.8566C28.4811 16.4681 26.3447 17.3814 24.3831 18.6124C23.0489 19.4463 21.8179 20.4232 20.6743 21.4953C19.5545 22.5516 18.5776 23.727 17.6802 24.9738C16.9178 26.0301 16.2507 27.1737 15.7027 28.357C15.0673 29.723 14.5114 31.1287 14.162 32.59C14.0031 33.2492 13.8681 33.9163 13.7411 34.5834C13.6219 35.2187 13.5663 35.8779 13.5107 36.5212C13.4393 37.2201 13.4234 37.9348 13.4393 38.6337C13.4552 39.547 13.5107 40.4603 13.6299 41.3657C14.1064 45.1142 15.5359 48.7198 17.712 51.8092C19.9118 54.9383 22.8741 57.4876 26.2812 59.2189C27.9966 60.0925 29.7994 60.7199 31.6657 61.1726C33.3414 61.5776 35.0489 61.7126 36.7723 61.7682C35.589 61.7444 34.4056 61.6967 33.2303 61.522C29.4341 60.9502 25.8126 59.473 22.7074 57.2096C19.6577 54.978 17.1719 52.0157 15.4803 48.6325C14.6305 46.9329 13.9952 45.1381 13.5822 43.2876C13.3678 42.3267 13.209 41.3578 13.1137 40.3809C13.0501 39.6423 12.9866 38.8958 13.0025 38.1652Z" fill="#EFFFEB"/>
<mask id="mask0_532_9443" style="mask-type:alpha" maskUnits="userSpaceOnUse" x="0" y="0" width="74" height="74">
<circle cx="36.8" cy="37.0266" r="36.8" fill="#D9D9D9"/>
</mask>
<g mask="url(#mask0_532_9443)">
<circle cx="59.5" cy="22.7266" r="14.5" fill="#E2E1E1"/>
<g clip-path="url(#clip0_532_9443)">
<path d="M62.549 18.4731H56.4219V21.3029H62.549V18.4731Z" fill="white"/>
<path d="M62.549 15.8521V17.8478H61.9421V16.4776H57.0288V17.8478H56.4219V15.8521H62.549Z" fill="white"/>
<path d="M55.8149 15.2266V17.8478H57.0288V16.4776H61.9421V17.8181H63.156V15.2266H55.8149ZM61.9421 18.4734V20.6478H57.0288V18.4734H55.8149V21.9287H63.156V18.4734H61.9421Z" fill="#24355F"/>
<path d="M60.4682 22.7925H58.5029V24.6095H60.4682V22.7925Z" fill="#24355F"/>
<path d="M67 21.7198V29.2261H52V21.3325L57.896 23.5963V25.2346H61.0751V23.6857L67 21.7198Z" fill="#24355F"/>
<path d="M67 18.4731V21.0646L61.0751 23.0306V22.1668H57.896V22.9412L52 20.6774V18.4731H67Z" fill="#24355F"/>
<path d="M60.4682 22.7925V23.5669L59.4856 23.8946L58.5029 23.5074V22.7925H60.4682Z" fill="#24355F"/>
<path d="M67 18.4731V21.0646L61.0751 23.0306V22.1668H57.896V22.9412L52 20.6774V18.4731H67Z" fill="#24355F"/>
<path d="M59.4856 23.5669L58.5029 23.1797V23.835L59.4856 24.2222L60.4971 23.8946V23.2393L59.4856 23.5669Z" fill="white"/>
<path d="M60.4682 22.7925H58.5029V24.6095H60.4682V22.7925Z" fill="#24355F"/>
</g>
</g>
<defs>
<radialGradient id="paint0_radial_532_9443" cx="0" cy="0" r="1" gradientUnits="userSpaceOnUse" gradientTransform="translate(37.0784 38.0472) rotate(0.435707) scale(36.7996)">
<stop stop-color="#5B6C96"/>
<stop offset="1" stop-color="#172852"/>
</radialGradient>
<clipPath id="clip0_532_9443">
<rect width="15" height="14" fill="white" transform="translate(52 15.2266)"/>
</clipPath>
</defs>
</svg>
