<svg width="44" height="40" viewBox="0 0 44 40" fill="none" xmlns="http://www.w3.org/2000/svg">
<ellipse cx="21.5214" cy="20" rx="21.5214" ry="20" fill="#078340"/>
<path d="M41.6068 12.6667L26.5419 6.66675L22.955 15.0001L21.8789 30.3334C21.8789 30.3334 35.8678 34.0001 36.5852 34.3334C38.7373 32.6667 41.5423 28.9267 42.6829 24.3334C43.759 20.0001 42.3242 15.0001 41.6068 12.6667Z" fill="#04AD66"/>
<path d="M31.5824 29.3002C31.3672 28.4002 31.3134 27.4502 31.5824 26.5502C31.7439 25.9002 31.2596 25.3002 30.5602 25.3002H14.4192C13.3431 25.3002 12.5898 26.3502 12.5898 27.9002C12.5898 29.4502 13.2893 30.5002 14.3654 30.5002H30.5064C31.2596 30.5002 31.7439 29.9002 31.5824 29.3002ZM17.1631 21.6002C16.8403 21.6002 16.6251 21.8502 16.6251 22.1002V24.3502H27.4396V22.1002C27.4396 21.8502 27.1706 21.6002 26.9016 21.6002H17.1631ZM17.0555 13.0502C17.5398 14.6002 18.7772 15.8502 20.4451 16.3502V17.8502C20.4451 19.0502 19.9609 19.9002 19.4229 20.5502H24.7494C24.2114 19.9002 23.7272 19.0502 23.7272 17.8502V16.3502C25.3413 15.8502 26.6325 14.6002 27.1168 13.0502C29.3227 12.8502 31.0444 10.9502 31.0444 8.6502V8.3502C31.0444 7.8002 30.5602 7.3502 29.9683 7.3502H27.2782C27.2782 6.8502 26.8477 6.4502 26.3097 6.4502H17.8088C17.2707 6.4502 16.8403 6.8502 16.8403 7.3502H14.1501C13.5583 7.3502 13.0741 7.8002 13.0741 8.3502V8.6502C13.0741 11.0002 14.8496 12.9002 17.0555 13.0502ZM27.2782 11.8002V8.4002H29.9683V8.7002C29.9683 10.4002 28.7847 11.8002 27.2782 12.1002C27.2782 11.9502 27.2782 11.8502 27.2782 11.8002ZM14.1501 8.4002H16.8403C16.8403 10.7002 16.8403 11.6002 16.8403 12.0502C15.3338 11.8002 14.1501 10.4002 14.1501 8.6502V8.4002Z" fill="white"/>
</svg>
