<svg width="40" height="40" viewBox="0 0 40 40" fill="none" xmlns="http://www.w3.org/2000/svg">
<circle cx="20" cy="20" r="20" fill="#C515AD"/>
<path d="M20.0799 9.00869C20.6083 8.97126 21.1368 9.08055 21.6099 9.3251C24.7028 10.8443 27.7049 12.5285 30.4568 14.6447C31.777 15.6612 32.3409 17.6293 31.7901 19.1721C31.4721 20.0641 30.8852 20.6734 29.9628 20.8361C28.9552 21.0145 28.1388 20.5982 27.5126 19.8004C27.4053 19.6661 27.3254 19.511 27.2776 19.3444C27.2299 19.1778 27.2152 19.003 27.2345 18.8304C27.2537 18.6579 27.3065 18.491 27.3898 18.3398C27.4731 18.1886 27.585 18.0561 27.7191 17.9502C28.353 17.4767 29.1104 17.7639 29.2601 18.5505C29.318 18.8546 29.389 19.1317 29.7497 19.0801C30.1104 19.0285 30.1136 18.7154 30.1027 18.4248C30.0612 17.2972 28.9912 16.5757 27.8 16.8719C27.2667 17.0099 26.7864 17.3098 26.4219 17.7325C25.0394 19.2686 24.4339 21.1368 24.1476 23.1531C23.8961 24.9272 23.741 26.7144 23.6831 28.5063C23.5989 31.1453 21.2219 32.7128 18.8504 31.6783C15.5291 30.2297 12.5313 28.2808 10.1073 25.4936C9.20345 24.4569 8.76848 23.2731 9.12367 21.8784C9.39361 20.817 10.057 20.624 10.8308 21.3657C13.0482 23.4975 15.4919 25.3152 18.0438 26.9916C18.6143 27.3663 18.9181 27.7904 18.9279 28.5265C18.9465 29.9111 19.7957 30.7627 20.9279 30.6584C21.1832 30.6364 21.43 30.5542 21.6492 30.4183C21.8405 30.306 21.9367 30.122 21.8678 29.8954C21.799 29.6687 21.6121 29.6014 21.3902 29.6138C19.9629 29.6923 19.9159 29.6452 19.8143 28.1383C19.7585 27.3248 19.34 26.7604 18.6788 26.3329C16.6572 25.0309 14.7239 23.5899 12.8919 22.0198C12.6559 21.8156 12.4242 21.6047 12.1947 21.3915C12.0448 21.2651 11.9341 21.0968 11.8758 20.9069C11.8176 20.717 11.8145 20.5139 11.8668 20.3222C12.6887 17.1143 13.8231 14.0545 15.9203 11.4581C16.4792 10.7653 17.1365 10.1627 17.87 9.67069C18.5323 9.22973 19.258 8.94585 20.0799 9.00869Z" fill="white"/>
</svg>
