<svg width="22" height="22" viewBox="0 0 22 22" fill="none" xmlns="http://www.w3.org/2000/svg">
<path id="Vector" d="M7.11098 0H1.06452C0.47647 0 0 0.47647 0 1.06452V7.09677C0 7.68482 0.47647 8.16129 1.06452 8.16129C1.65256 8.16129 2.12903 7.68482 2.12903 7.09677V2.12903H7.11098C7.69903 2.12903 8.1755 1.65256 8.1755 1.06452C8.1755 0.47647 7.69903 0 7.11098 0ZM20.9355 13.8387C20.3474 13.8387 19.871 14.3152 19.871 14.9032V19.871H14.9244C14.3363 19.871 13.8599 20.3474 13.8599 20.9355C13.8599 21.5235 14.3363 22 14.9244 22H20.9355C21.5235 22 22 21.5235 22 20.9355V14.9032C22 14.3152 21.5235 13.8387 20.9355 13.8387ZM7.11098 19.871H2.12903V14.9032C2.12903 14.3152 1.65256 13.8387 1.06452 13.8387C0.47647 13.8387 0 14.3152 0 14.9032V20.9355C0 21.5235 0.47647 22 1.06452 22H7.11098C7.69903 22 8.1755 21.5235 8.1755 20.9355C8.1755 20.3474 7.69903 19.871 7.11098 19.871ZM20.9355 0H14.9244C14.3363 0 13.8599 0.47647 13.8599 1.06452C13.8599 1.65256 14.3363 2.12903 14.9244 2.12903H19.871V7.09677C19.871 7.68482 20.3474 8.16129 20.9355 8.16129C21.5235 8.16129 22 7.68482 22 7.09677V1.06452C22 0.47647 21.5235 0 20.9355 0Z" fill="#438BBF"/>
</svg>
