<svg width="29" height="24" viewBox="0 0 29 24" fill="none" xmlns="http://www.w3.org/2000/svg">
<path d="M10.4688 0.767334C4.96875 0.767334 0.46875 5.23162 0.46875 10.7673C0.46875 16.2673 4.93304 20.7673 10.4688 20.7673C15.9688 20.7673 20.4688 16.303 20.4688 10.7673C20.4688 5.26733 15.9688 0.767334 10.4688 0.767334ZM15.8973 9.87448L13.8259 11.8388C13.7545 11.9102 13.7188 12.0173 13.7188 12.1245L14.2188 14.9459C14.3259 15.5888 13.683 16.053 13.1116 15.7673L10.6116 14.4102C10.5045 14.3745 10.3973 14.3745 10.2902 14.4102L7.79018 15.7673C7.21875 16.0888 6.54018 15.5888 6.68304 14.9459L7.18304 12.1245C7.21875 12.0173 7.18304 11.9102 7.07589 11.8388L5.00446 9.87448C4.54018 9.44591 4.79018 8.66019 5.43304 8.55305L8.25446 8.16019C8.36161 8.16019 8.46875 8.08876 8.50446 7.98162L9.75446 5.41019C10.0402 4.83876 10.8616 4.83876 11.1473 5.41019L12.3973 7.98162C12.433 8.08876 12.5402 8.16019 12.6473 8.16019L15.4688 8.55305C16.1116 8.66019 16.3616 9.44591 15.8973 9.87448Z" fill="white"/>
<mask id="path-2-outside-1_8745_4695" maskUnits="userSpaceOnUse" x="13.2969" y="10.5022" width="15" height="15" fill="black">
<rect fill="white" x="13.2969" y="10.5022" width="15" height="15"/>
<path d="M19.9077 22.6428V12.8133H22.1378V22.6428H19.9077ZM16.108 18.8431V16.613H25.9375V18.8431H16.108Z"/>
</mask>
<path d="M19.9077 22.6428V12.8133H22.1378V22.6428H19.9077ZM16.108 18.8431V16.613H25.9375V18.8431H16.108Z" fill="#4A8DBD"/>
<path d="M19.9077 22.6428H17.9077V24.6428H19.9077V22.6428ZM19.9077 12.8133V10.8133H17.9077V12.8133H19.9077ZM22.1378 12.8133H24.1378V10.8133H22.1378V12.8133ZM22.1378 22.6428V24.6428H24.1378V22.6428H22.1378ZM16.108 18.8431H14.108V20.8431H16.108V18.8431ZM16.108 16.613V14.613H14.108V16.613H16.108ZM25.9375 16.613H27.9375V14.613H25.9375V16.613ZM25.9375 18.8431V20.8431H27.9375V18.8431H25.9375ZM21.9077 22.6428V12.8133H17.9077V22.6428H21.9077ZM19.9077 14.8133H22.1378V10.8133H19.9077V14.8133ZM20.1378 12.8133V22.6428H24.1378V12.8133H20.1378ZM22.1378 20.6428H19.9077V24.6428H22.1378V20.6428ZM18.108 18.8431V16.613H14.108V18.8431H18.108ZM16.108 18.613H25.9375V14.613H16.108V18.613ZM23.9375 16.613V18.8431H27.9375V16.613H23.9375ZM25.9375 16.8431H16.108V20.8431H25.9375V16.8431Z" fill="#4A8DBD" mask="url(#path-2-outside-1_8745_4695)"/>
<path d="M19.9077 22.6428V12.8133H22.1378V22.6428H19.9077ZM16.108 18.8431V16.613H25.9375V18.8431H16.108Z" fill="white"/>
</svg>
