<svg xmlns="http://www.w3.org/2000/svg" width="23" height="24" viewBox="0 0 23 24" fill="none">
  <path d="M1.00631 12.4881C1.00631 9.4336 1.00421 6.37932 1 3.32524C1 3.0867 1.07008 2.99652 1.36304 3.00059C2.4844 3.01513 3.60575 2.97906 4.72711 3.02153C4.9619 3.03026 5.03478 3.10182 5.02918 3.2816C5.0217 3.56242 5.0217 3.84343 5.02918 4.12464C5.03478 4.33234 4.93737 4.42077 4.67875 4.41554C4.20007 4.4039 3.72069 4.40798 3.24201 4.41554C2.85164 4.42077 2.68834 4.55633 2.67573 4.87516C2.66802 5.0689 2.67573 5.26323 2.67573 5.45697V19.9439C2.67573 20.5193 2.77595 20.606 3.45717 20.6066C8.17622 20.6066 12.8953 20.6066 17.6143 20.6066C18.2009 20.6066 18.3236 20.5013 18.3236 20.0027C18.3236 15.029 18.3236 10.055 18.3236 5.08054C18.3236 4.48768 18.2346 4.41612 17.512 4.41496C17.1034 4.41496 16.6941 4.40739 16.2855 4.41496C16.0577 4.41961 15.9673 4.33641 15.9687 4.15663C15.9687 3.85584 15.9729 3.55505 15.9687 3.25484C15.9652 3.10008 16.0353 3.02735 16.2322 3.02212C17.4111 2.98255 18.5906 3.01048 19.7701 3.00873C19.9278 3.00873 20.0007 3.07331 19.9923 3.20887C19.9839 3.35433 19.9923 3.49978 19.9923 3.64523C19.9923 9.64712 19.9949 15.649 20 21.6509C20 21.9343 19.918 22 19.5795 22C13.5176 21.9899 7.45575 21.9899 1.39388 22C1.0841 22 1.0035 21.9447 1.00421 21.6858C1.01542 18.622 1.01121 15.5577 1.01121 12.4933L1.00631 12.4881Z" fill="#707175" stroke="#707175" stroke-width="0.5"/>
  <path d="M10.3405 5.27001C9.18921 5.27001 8.03772 5.27001 6.88603 5.27001C6.25139 5.27001 6.02754 5.07019 6.01641 4.44551C6 3.54776 6.01055 2.64883 6 1.75225C6 1.50086 6.09845 1.41354 6.3516 1.41882C6.9962 1.43288 7.6408 1.41882 8.2854 1.42643C8.47058 1.42643 8.56844 1.37194 8.61649 1.18325C8.77764 0.543918 9.24058 0.20228 9.84358 0.0592954C10.8749 -0.185067 11.918 0.34878 12.0774 1.23891C12.1102 1.42058 12.2444 1.42468 12.3892 1.42409C13.0426 1.42409 13.6965 1.43171 14.3505 1.41882C14.596 1.41413 14.6746 1.50965 14.6728 1.74463C14.6658 2.66172 14.6728 3.5794 14.6681 4.49884C14.6634 5.01686 14.405 5.26884 13.8841 5.2706C12.7021 5.27294 11.5213 5.27001 10.3405 5.27001Z" fill="#707175"/>
  <path d="M10.1759 8.72469H5.5084C5.00081 8.72469 5.00081 8.72469 5.00016 8.25238C5.00016 8.01798 5.00534 7.78358 5.00016 7.54918C4.99562 7.37338 5.08832 7.29954 5.27373 7.3013C5.34892 7.3013 5.42477 7.3013 5.50062 7.3013H14.9004C15.4087 7.3013 15.4087 7.3013 15.4093 7.74842C15.4093 7.96348 15.3951 8.17913 15.4093 8.39302C15.4301 8.6491 15.3186 8.7329 15.0359 8.73114C13.4166 8.72001 11.7959 8.72469 10.1759 8.72469Z" fill="#707175"/>
  <path d="M10.2069 12.0631H5.57322C5.00016 12.0631 5.00016 12.0631 5.00016 11.5304C5.00016 11.3153 5.00535 11.1009 5.00016 10.8858C4.99563 10.71 5.08573 10.635 5.27308 10.6367C5.34827 10.6367 5.42412 10.6367 5.49932 10.6367H14.8989C15.4072 10.6367 15.4072 10.6367 15.4072 11.0839C15.4072 11.289 15.3916 11.4941 15.4104 11.6986C15.4363 11.9787 15.3177 12.0725 15.0052 12.0701C13.5039 12.0584 12.0026 12.0648 10.5012 12.0648L10.2069 12.0631Z" fill="#707175"/>
  <path d="M10.2085 13.9709C11.7964 13.9709 13.3843 13.9709 14.9722 13.9709C15.3955 13.9709 15.4046 13.9814 15.4059 14.3676C15.4059 14.5827 15.4059 14.7972 15.4059 15.0122C15.4059 15.3908 15.3968 15.3966 14.9625 15.399H5.46613C5.0013 15.399 5.0013 15.399 5 14.973C5 14.7776 5 14.5823 5 14.387C5 13.9715 5 13.9703 5.47715 13.9697L10.2085 13.9709Z" fill="#707175"/>
  <path d="M10.1715 18.7361C8.59407 18.7361 7.01665 18.7361 5.43922 18.7361C5.01137 18.7361 5.0023 18.7256 5.00035 18.3435C5.00035 18.0898 5.00813 17.836 5.00035 17.5817C4.99322 17.3784 5.0937 17.2946 5.31087 17.308C5.36467 17.311 5.41913 17.308 5.47293 17.308H14.9362C15.4062 17.308 15.4062 17.308 15.4075 17.7282C15.4075 17.9526 15.3938 18.1782 15.4107 18.4015C15.4308 18.6605 15.3102 18.7408 15.0334 18.7396C13.6507 18.7314 12.268 18.7361 10.8846 18.7361H10.1715Z" fill="#707175"/>
  <path d="M19 13.2H15C13.4536 13.2 12.2 14.4536 12.2 16V20C12.2 21.5464 13.4536 22.8 15 22.8H19C20.5464 22.8 21.8 21.5464 21.8 20V16C21.8 14.4536 20.5464 13.2 19 13.2Z" fill="white" stroke="#707175" stroke-width="1.6"/>
  <path d="M15 18H19" stroke="#707175" stroke-width="1.5" stroke-linecap="round" stroke-linejoin="round"/>
  <path d="M17 16V20" stroke="#707175" stroke-width="1.5" stroke-linecap="round" stroke-linejoin="round"/>
</svg>