<svg xmlns="http://www.w3.org/2000/svg" width="50" height="50" viewBox="0 0 50 50" fill="none">
  <g clip-path="url(#clip0_5621_5974)">
    <path d="M24.9998 49.9995C38.8067 49.9995 49.9995 38.8067 49.9995 24.9998C49.9995 11.1928 38.8067 0 24.9998 0C11.1928 0 0 11.1928 0 24.9998C0 38.8067 11.1928 49.9995 24.9998 49.9995Z" fill="white"/>
    <mask id="mask0_5621_5974" style="mask-type:alpha" maskUnits="userSpaceOnUse" x="0" y="0" width="50" height="50">
      <path d="M24.9998 49.9995C38.8067 49.9995 49.9995 38.8067 49.9995 24.9998C49.9995 11.1928 38.8067 0 24.9998 0C11.1928 0 0 11.1928 0 24.9998C0 38.8067 11.1928 49.9995 24.9998 49.9995Z" fill="white"/>
    </mask>
    <g mask="url(#mask0_5621_5974)">
      <path d="M47.4448 33.3392L37.7578 33.3627L33.8348 7.48618V7.47055C33.7019 6.63431 33.0377 6.03253 32.2327 6.00127C31.4278 5.97001 30.7245 6.51708 30.5291 7.32988L23.5271 37.8799L19.2446 19.8969L19.2368 19.8656C19.0414 19.0997 18.3928 18.5761 17.6348 18.5605C16.8767 18.5527 16.2125 19.045 15.9937 19.7953L15.9858 19.8265L12.6411 33.0344L2.56295 33.0266C1.70333 33.0266 1 33.73 1 34.5975C1 35.4572 1.70333 36.1684 2.56295 36.1684H13.8759C14.587 36.1215 15.1731 35.6369 15.3841 34.9335L15.3919 34.9023L17.5566 26.3367L21.9094 44.6167L21.9173 44.6401C22.1751 45.6483 22.9566 46 23.5505 46H23.5662C24.1601 46 24.9416 45.6327 25.1916 44.6089L31.8733 15.4422L34.8351 35.0117V35.0273C34.9601 35.8245 35.5931 36.4341 36.3667 36.4966L36.4371 36.5044L47.4448 36.4731C48.3044 36.4731 49.0078 35.7698 48.9999 34.9023C49.0078 34.0348 48.3044 33.3392 47.4448 33.3392Z" fill="#435059"/>
    </g>
  </g>
  <defs>
    <clipPath id="clip0_5621_5974">
      <rect width="50" height="50" fill="white"/>
    </clipPath>
  </defs>
</svg>