<svg width="30" height="31" viewBox="0 0 30 31" fill="none" xmlns="http://www.w3.org/2000/svg">
<g id="blind-svgrepo-com 2" clip-path="url(#clip0_109_493)">
<g id="Group">
<path id="Vector" d="M27.3852 2.48241C27.028 2.10693 26.5601 1.91943 26.0923 1.91943C25.6243 1.91943 25.1565 2.10693 24.7994 2.48241L2.85522 25.5234C2.14071 26.2734 2.14071 27.4884 2.85522 28.2384C3.21236 28.6134 3.68025 28.8009 4.14808 28.8009C4.61614 28.8009 5.08379 28.6134 5.44094 28.2384L27.3852 5.19741C28.0996 4.44741 28.0996 3.23193 27.3852 2.48241Z" fill="#F9F9F9"/>
<path id="Vector_2" d="M4.67988 20.892L9.66234 15.6603C9.65885 15.559 9.63388 15.4634 9.63388 15.3603C9.63388 12.1878 12.0928 9.60361 15.1145 9.59983C15.1161 9.59797 15.1198 9.59797 15.1235 9.59983C15.1235 9.59983 15.1235 9.59983 15.1251 9.59983C15.2216 9.59983 15.3109 9.62419 15.4054 9.62983L18.6878 6.18355C17.5859 5.93605 16.4269 5.75977 15.1287 5.75977C15.1287 5.75977 15.1287 5.75977 15.1269 5.75977C15.1251 5.75977 15.1235 5.75977 15.1198 5.75977C15.1198 5.75977 15.1161 5.75977 15.1126 5.75977C15.1109 5.75977 15.1109 5.75977 15.1109 5.75977C8.01583 5.76361 4.07274 9.81361 0.868911 14.1898C0.365311 14.8803 0.365311 15.8403 0.868911 16.5303C2.00663 18.0847 3.24771 19.587 4.67988 20.892Z" fill="#F9F9F9"/>
<path id="Vector_3" d="M29.3706 14.1899C28.2329 12.636 26.9918 11.1336 25.5596 9.82861L20.5773 15.0603C20.5807 15.1616 20.6057 15.2572 20.6057 15.3603C20.6057 18.5328 18.1468 21.1166 15.1251 21.1208C15.1235 21.1208 15.1235 21.1208 15.1235 21.1208C15.1235 21.1208 15.1216 21.1208 15.1198 21.1208C15.118 21.1208 15.1161 21.1208 15.1161 21.1208C15.1161 21.1208 15.1161 21.1208 15.1144 21.1208C15.018 21.1208 14.9287 21.096 14.834 21.0908L11.5518 24.5371C12.6536 24.7846 13.8127 24.9609 15.1109 24.9609C15.1109 24.9609 15.1109 24.9609 15.1127 24.9609H15.1144C15.1161 24.9609 15.1198 24.9609 15.1198 24.9609C15.1198 24.9609 15.1216 24.9609 15.1235 24.9609C15.1235 24.9609 15.1235 24.9609 15.1252 24.9609H15.127C15.1287 24.9609 15.1287 24.9609 15.1287 24.9609C15.1341 24.9609 15.1412 24.9609 15.1484 24.9609C15.1555 24.959 15.1627 24.959 15.1734 24.9609C22.2382 24.9402 26.1722 20.8977 29.3708 16.5304C29.8742 15.8404 29.8742 14.8804 29.3706 14.1899Z" fill="#F9F9F9"/>
</g>
</g>
<defs>
<clipPath id="clip0_109_493">
<rect width="29.2571" height="30.72" fill="white" transform="translate(0.491211)"/>
</clipPath>
</defs>
</svg>
