<svg width="35" height="36" viewBox="0 0 35 36" fill="none" xmlns="http://www.w3.org/2000/svg">
<path d="M14.0266 21.1962C13.2003 20.3713 12.6973 19.2503 12.6973 17.9928C12.6973 15.4735 14.7265 13.4429 17.2444 13.4429C18.4904 13.4429 19.6372 13.9473 20.4492 14.7722" stroke="white" stroke-width="1.43714" stroke-linecap="round" stroke-linejoin="round"/>
<path d="M21.7075 18.7993C21.3741 20.6532 19.914 22.1162 18.0615 22.4525" stroke="white" stroke-width="1.43714" stroke-linecap="round" stroke-linejoin="round"/>
<path d="M9.56319 25.6594C7.28246 23.8687 5.35094 21.2531 3.95117 17.9922C5.36532 14.717 7.30976 12.087 9.60487 10.282C11.8856 8.47695 14.517 7.49683 17.2447 7.49683C19.9882 7.49683 22.6181 8.49133 24.9133 10.3093" stroke="white" stroke-width="1.43714" stroke-linecap="round" stroke-linejoin="round"/>
<path d="M27.9481 13.4702C28.9368 14.7838 29.8063 16.2999 30.5378 17.9914C27.711 24.5405 22.7155 28.4854 17.2443 28.4854C16.0041 28.4854 14.781 28.2842 13.6055 27.8919" stroke="white" stroke-width="1.43714" stroke-linecap="round" stroke-linejoin="round"/>
<path d="M28.5796 6.65649L5.91016 29.3259" stroke="white" stroke-width="1.43714" stroke-linecap="round" stroke-linejoin="round"/>
</svg>
