<svg xmlns="http://www.w3.org/2000/svg" width="36" height="26" viewBox="0 0 36 26" fill="none">
<path d="M17.5186 17.1995C17.6093 17.1239 17.6832 17.0302 17.7357 16.9243C17.7882 16.8185 17.818 16.703 17.8234 16.585C17.8287 16.467 17.8094 16.3492 17.7667 16.2391C17.7239 16.129 17.6587 16.029 17.5752 15.9455C17.4917 15.862 17.3917 15.7968 17.2816 15.7541C17.1715 15.7113 17.0537 15.692 16.9357 15.6974C16.8177 15.7027 16.7022 15.7325 16.5964 15.785C16.4906 15.8375 16.3969 15.9114 16.3212 16.0022L10.2051 22.111L10.2051 1.91892C10.1936 1.70094 10.0988 1.49571 9.94046 1.3455C9.78208 1.1953 9.57211 1.11157 9.35383 1.11157C9.13555 1.11157 8.92558 1.1953 8.7672 1.3455C8.60882 1.49571 8.51408 1.70094 8.50252 1.91892L8.50251 22.111L2.39363 15.9926C2.23236 15.8386 2.01795 15.7526 1.79496 15.7526C1.57197 15.7526 1.35756 15.8386 1.19628 15.9926C1.11751 16.0711 1.055 16.1644 1.01236 16.2671C0.969707 16.3699 0.947753 16.48 0.947753 16.5912C0.947753 16.7025 0.969707 16.8126 1.01236 16.9154C1.055 17.0181 1.11751 17.1114 1.19628 17.1899L8.76354 24.7572C8.84106 24.8377 8.93404 24.9018 9.03691 24.9456C9.13978 24.9893 9.25042 25.0119 9.36221 25.0119C9.474 25.0119 9.58464 24.9893 9.68751 24.9456C9.79038 24.9018 9.88336 24.8377 9.96089 24.7572L17.5186 17.1995Z" fill="#707175" stroke="#707175"/>
<path d="M18.1299 8.92403C18.0392 8.99967 17.9652 9.09338 17.9127 9.19919C17.8603 9.30499 17.8304 9.42057 17.8251 9.53855C17.8198 9.65653 17.8391 9.77433 17.8818 9.88443C17.9245 9.99454 17.9897 10.0945 18.0732 10.178C18.1567 10.2616 18.2567 10.3268 18.3668 10.3695C18.4769 10.4122 18.5947 10.4315 18.7127 10.4262C18.8307 10.4208 18.9463 10.391 19.0521 10.3385C19.1579 10.286 19.2516 10.2121 19.3272 10.1214L25.4433 4.0125L25.4433 24.2046C25.4549 24.4226 25.5496 24.6278 25.708 24.778C25.8664 24.9282 26.0763 25.012 26.2946 25.012C26.5129 25.012 26.7229 24.9282 26.8812 24.778C27.0396 24.6278 27.1344 24.4226 27.1459 24.2046L27.1459 4.0125L33.2548 10.131C33.4161 10.285 33.6305 10.3709 33.8535 10.3709C34.0765 10.3709 34.2909 10.285 34.4522 10.131C34.5309 10.0524 34.5934 9.95913 34.6361 9.85639C34.6787 9.75366 34.7007 9.64352 34.7007 9.53229C34.7007 9.42105 34.6787 9.31092 34.6361 9.20818C34.5934 9.10545 34.5309 9.01214 34.4522 8.93361L26.8849 1.36636C26.8074 1.28582 26.7144 1.22175 26.6115 1.17798C26.5087 1.13422 26.398 1.11167 26.2862 1.11167C26.1744 1.11167 26.0638 1.13422 25.9609 1.17798C25.8581 1.22175 25.7651 1.28582 25.6876 1.36636L18.1299 8.92403Z" fill="#707175" stroke="#707175"/>
</svg>