<svg xmlns="http://www.w3.org/2000/svg" width="24" height="21" viewBox="0 0 24 21" fill="none">
<path d="M14.2961 3.9688C14.2961 5.28197 11.2773 5.96908 8.29529 5.96908C5.31327 5.96908 2.29446 5.28197 2.29446 3.9688C2.29446 2.65564 5.31327 1.96853 8.29529 1.96853C11.2773 1.96853 14.2961 2.65564 14.2961 3.9688ZM16.3779 9.09516C15.0412 8.24918 13.5475 7.8209 12.17 7.89073C10.7502 7.96236 9.62067 8.55098 8.98956 9.54803C7.71154 11.5672 8.94642 14.6496 11.7424 16.4193C12.9852 17.2062 14.3645 17.6312 15.6586 17.6312C15.7563 17.6312 15.8536 17.6287 15.9503 17.6239C17.3701 17.5522 18.4997 16.9636 19.1308 15.9666C20.4086 13.9474 19.1739 10.8649 16.3779 9.09516ZM20.2564 16.6812L19.1876 18.3699C18.2433 19.8618 16.5105 20.6348 14.5657 20.635C13.0684 20.6352 11.4458 20.1771 9.95944 19.2363C7.83677 17.9552 6.14808 15.5258 6.08803 13.1497C3.00291 12.724 0.960938 11.477 0.960938 9.96963V3.9688C0.960937 2.09941 4.18257 0.63501 8.29529 0.63501C12.408 0.63501 15.6296 2.09941 15.6296 3.9688V7.20837C16.1456 7.41757 16.6402 7.66921 17.0911 7.96855C20.5088 10.1316 21.9296 14.0406 20.2564 16.6812ZM1.6277 3.9688C1.6277 5.25674 4.30694 6.63584 8.29529 6.63584C12.2836 6.63584 14.9629 5.25674 14.9629 3.9688C14.9629 2.68087 12.2836 1.30177 8.29529 1.30177C4.30694 1.30177 1.6277 2.68087 1.6277 3.9688ZM12.8773 6.58544C13.4386 6.61505 14.003 6.70594 14.5554 6.85031C14.7838 6.60503 14.9629 6.3071 14.9629 5.96908V5.37324C14.4853 5.85133 13.7668 6.26445 12.8773 6.58544ZM1.6277 5.96908C1.6277 7.22615 4.18378 8.56634 8.01446 8.63005C8.441 8.03604 8.9749 7.57917 9.58345 7.2513C9.16581 7.28378 8.73657 7.3026 8.29529 7.3026C5.29426 7.3026 2.77432 6.52108 1.6277 5.37324V5.96908ZM1.6277 7.96936C1.6277 9.17857 3.84938 10.2724 6.77369 10.5586C6.78051 10.5475 6.78619 10.5361 6.79313 10.5251C6.79313 10.5251 7.26161 9.78486 7.57855 9.28414C4.8975 9.17039 2.68145 8.42839 1.6277 7.37351V7.96936ZM6.11639 12.4807C6.16407 12.045 6.27165 11.6152 6.44617 11.1985C4.26321 10.9489 2.52422 10.2705 1.6277 9.37415V9.96963C1.6277 11.0657 3.52357 12.1044 6.11639 12.4807ZM11.9232 7.2549C8.77633 7.47159 7.0222 10.244 8.17261 13.1806C9.71212 17.6872 17.0567 20.3147 19.694 16.3233C22.1683 12.2431 16.6772 6.72281 11.9232 7.2549Z" fill="white"/>
<path d="M18.2867 10.4399C17.7947 10.6443 17.3478 10.944 16.9714 11.3217C16.5947 11.6991 16.2959 12.1473 16.092 12.6406C15.8881 13.1339 15.7832 13.6627 15.7832 14.1967C15.7832 14.7306 15.8881 15.2594 16.092 15.7527C16.2959 16.246 16.5947 16.6942 16.9714 17.0716C17.3478 17.4493 17.7947 17.749 18.2867 17.9534C18.7786 18.1578 19.3059 18.2631 19.8385 18.2631C20.371 18.2631 20.8983 18.1578 21.3902 17.9534C21.8822 17.749 22.3291 17.4493 22.7055 17.0716C23.0822 16.6942 23.381 16.246 23.5849 15.7527C23.7888 15.2594 23.8937 14.7306 23.8937 14.1967C23.8937 13.6627 23.7888 13.1339 23.5849 12.6406C23.381 12.1473 23.0822 11.6991 22.7055 11.3217C22.3291 10.944 21.8822 10.6443 21.3902 10.4399C20.8983 10.2355 20.371 10.1302 19.8385 10.1302C19.3059 10.1302 18.7786 10.2355 18.2867 10.4399Z" fill="#4A8DBD"/>
<path fill-rule="evenodd" clip-rule="evenodd" d="M17.4607 13.6435C17.503 13.6433 17.545 13.6515 17.5842 13.6676C17.6234 13.6837 17.659 13.7074 17.689 13.7374L19.0106 15.0626C19.0351 15.0872 19.0643 15.1068 19.0964 15.1202C19.1286 15.1336 19.163 15.1404 19.1978 15.1404C19.2325 15.1404 19.267 15.1336 19.2991 15.1202C19.3312 15.1068 19.3604 15.0872 19.385 15.0626L21.9899 12.4504C22.0506 12.3902 22.1326 12.3565 22.218 12.3568C22.3034 12.357 22.3853 12.3911 22.4456 12.4517C22.506 12.5122 22.5401 12.5943 22.5403 12.6799C22.5405 12.7655 22.5069 12.8478 22.4469 12.9087L19.4261 15.9377C19.3654 15.9981 19.2832 16.032 19.1976 16.032C19.1121 16.032 19.0299 15.9981 18.9692 15.9377L17.2311 14.1961C17.1859 14.1508 17.1551 14.0931 17.1426 14.0303C17.1301 13.9674 17.1365 13.9023 17.161 13.8431C17.1855 13.7839 17.227 13.7333 17.2802 13.6978C17.3333 13.6623 17.3968 13.6434 17.4607 13.6435ZM16.8584 13.362C17.0183 13.2023 17.2348 13.1126 17.4605 13.1126C17.6863 13.1126 17.9028 13.2023 18.0627 13.362L19.1975 14.4999L21.6162 12.0755C21.7765 11.9179 21.9923 11.8301 22.2168 11.8312C22.4413 11.8323 22.6562 11.9222 22.8149 12.0814C22.9736 12.2406 23.0633 12.4561 23.0643 12.6812C23.0654 12.9063 22.9778 13.1227 22.8206 13.2834L19.7998 16.3127C19.6398 16.4724 19.4233 16.5621 19.1975 16.5621C18.9718 16.5621 18.7552 16.4724 18.5953 16.3127L16.8584 14.5708C16.6989 14.4105 16.6094 14.1933 16.6094 13.9668C16.6094 13.7404 16.6989 13.5223 16.8584 13.362Z" fill="white"/>
</svg>