<svg xmlns="http://www.w3.org/2000/svg" width="32" height="30" viewBox="0 0 32 30" fill="none">
<path fill-rule="evenodd" clip-rule="evenodd" d="M26.5335 22.2153C25.4849 22.8566 24.2608 23.3545 22.9253 23.6945C24.4924 22.3307 25.3374 20.6827 25.3374 18.9341V18.4173C25.5596 18.299 25.7784 18.1773 25.9889 18.0485C27.232 17.2885 28.1961 16.3928 28.8497 15.4091C29.3599 16.1541 29.6285 16.9507 29.6285 17.7643C29.6285 19.4145 28.5293 20.9952 26.5335 22.2153ZM29.6285 21.9441C29.6285 23.2538 28.9338 24.5189 27.6502 25.5957V23.3977C28.4322 22.8888 29.0944 22.3238 29.6285 21.7158V21.9441ZM27.118 26.0068C26.932 26.1395 26.7386 26.2696 26.5335 26.3951C25.96 26.7456 25.3328 27.052 24.665 27.3147V24.8351C25.5431 24.5304 26.3662 24.158 27.118 23.7221V26.0068ZM24.1328 27.5112C23.3595 27.7793 22.5373 27.9896 21.6796 28.1383V25.5765C22.5288 25.4418 23.3496 25.2511 24.1328 25.0094V27.5112ZM21.2303 22.9968C21.0443 23.1295 20.851 23.2596 20.6458 23.3851C20.0723 23.7358 19.4451 24.0421 18.7773 24.3048V21.8252C19.6555 21.5204 20.4786 21.148 21.2303 20.7121V22.9968ZM21.1474 28.2222C20.3526 28.3346 19.5315 28.3955 18.6946 28.4015V26.0336C18.9071 25.9613 19.1161 25.8846 19.3219 25.8044C19.9401 25.7813 20.5496 25.7305 21.1474 25.6528V28.2222ZM17.3169 18.693V16.1097C18.1501 16.1041 18.9707 16.0481 19.7699 15.9442V18.5137C18.9749 18.6261 18.1538 18.6871 17.3169 18.693ZM12.6687 21.2139C9.64299 21.2139 6.80986 20.5006 4.6915 19.2054C2.69569 17.9852 1.59665 16.4045 1.59665 14.7544C1.59665 13.1558 2.63089 11.6233 4.51002 10.4196V12.2357C4.51002 14.4627 5.88035 16.5271 8.3686 18.0485C10.7343 19.495 13.8631 20.2916 17.1787 20.2916C17.6051 20.2916 18.0282 20.2779 18.4472 20.2518C16.7232 20.8789 14.7412 21.2139 12.6687 21.2139ZM18.2451 24.5012C17.4718 24.7694 16.6496 24.9798 15.792 25.1285V22.5665C16.6411 22.4318 17.4619 22.2412 18.2451 21.9994V24.5012ZM18.1623 28.3978C17.3241 28.3805 16.5028 28.309 15.7094 28.1848V26.7604C16.558 26.6295 17.3785 26.4422 18.1623 26.2049V28.3978ZM15.2598 25.2122C14.4649 25.3247 13.6438 25.3855 12.8069 25.3916V22.8083C13.6401 22.8027 14.4605 22.7467 15.2598 22.6428V25.2122ZM15.1771 28.0927C14.3173 27.93 13.4945 27.7053 12.7241 27.4214V26.9892C13.5569 26.9869 14.3775 26.9343 15.1771 26.8338V28.0927ZM12.2747 25.3878C11.4364 25.3706 10.6151 25.299 9.82169 25.1748V22.6074C10.6199 22.7221 11.4404 22.7884 12.2747 22.8044V25.3878ZM9.28947 25.0827C8.42967 24.92 7.60686 24.6955 6.83648 24.4116V21.9204C7.61711 22.1754 8.43925 22.376 9.28947 22.523V25.0827ZM6.30426 24.2015C5.73186 23.9625 5.19126 23.6905 4.6915 23.3851C4.38987 23.2006 4.11125 23.007 3.85126 22.8071V20.5627C3.85366 20.5643 3.85605 20.5657 3.85858 20.5673C4.60395 21.0231 5.4253 21.414 6.30426 21.736V24.2015ZM3.31905 22.3623C2.19913 21.3357 1.59665 20.1541 1.59665 18.9341V18.7058C2.07139 19.2463 2.64752 19.7526 3.31905 20.216V22.3623ZM6.10667 12.0074C6.58141 12.5477 7.15767 13.0542 7.82906 13.5176V15.6638C6.70914 14.6373 6.10667 13.4556 6.10667 12.2357V12.0074ZM10.8143 15.0376V17.5031C10.242 17.264 9.70127 16.9921 9.20165 16.6865C8.89989 16.5021 8.6214 16.3086 8.36128 16.1086V13.8642C8.36381 13.8657 8.36607 13.8673 8.3686 13.8688C9.11397 14.3245 9.93545 14.7154 10.8143 15.0376ZM13.7995 15.8245V18.3843C12.9398 18.2216 12.1169 17.9969 11.3465 17.713V15.2218C12.1273 15.4769 12.9493 15.6776 13.7995 15.8245ZM16.7847 16.1058V18.6893C15.9466 18.672 15.1251 18.6006 14.3317 18.4762V15.9089C15.1299 16.0236 15.9504 16.0899 16.7847 16.1058ZM23.2873 17.6063V15.1266C24.1655 14.8218 24.9886 14.4494 25.7403 14.0136V16.2982C25.5543 16.431 25.3611 16.5611 25.1558 16.6865C24.5825 17.0372 23.9551 17.3436 23.2873 17.6063ZM20.3021 18.4299V15.868C21.1513 15.7333 21.9721 15.5427 22.7551 15.301V17.8028C21.9818 18.0709 21.1598 18.2812 20.3021 18.4299ZM21.7625 20.3877C22.2473 20.0722 22.6861 19.7351 23.0768 19.3796C23.299 19.3059 23.5167 19.2269 23.732 19.1447C23.6619 20.3791 22.9771 21.5668 21.7625 22.5857V20.3877ZM28.2508 12.0074V12.2357C28.2508 13.5452 27.5561 14.8105 26.2726 15.8871V13.6892C27.0545 13.1802 27.7167 12.6152 28.2508 12.0074ZM9.20165 3.60491C11.32 2.30971 14.153 1.59639 17.1787 1.59639C20.2045 1.59639 23.0376 2.30971 25.1558 3.60491C27.1516 4.82508 28.2508 6.40591 28.2508 8.05591C28.2508 9.70591 27.1516 11.2867 25.1558 12.5069C23.0376 13.8021 20.2045 14.5154 17.1787 14.5154C14.153 14.5154 11.32 13.8021 9.20165 12.5069C7.20583 11.2867 6.10667 9.70591 6.10667 8.05591C6.10667 6.40591 7.20583 4.82508 9.20165 3.60491ZM29.6154 13.7984C29.7684 13.2902 29.8475 12.7677 29.8475 12.2357V8.05591C29.8475 5.82868 28.4771 3.76428 25.9889 2.24306C23.6232 0.796598 20.4944 0 17.1787 0C13.8631 0 10.7343 0.796598 8.3686 2.24306C5.9796 3.70362 4.6146 5.66492 4.51002 7.79024V8.57274C4.28782 8.69114 4.06907 8.81273 3.85858 8.94151C1.46959 10.4021 0.104581 12.3635 0 14.4888V18.9341C0 21.1613 1.37033 23.2257 3.85858 24.7471C5.06618 25.4854 6.4735 26.0533 8.0023 26.4334C8.50152 26.9082 9.08377 27.352 9.74625 27.7571C12.1118 29.2034 15.2407 30 18.5563 30C21.872 30 25.0008 29.2034 27.3665 27.7571C29.8546 26.2357 31.2251 24.1713 31.2251 21.9441V17.7643C31.2251 16.343 30.6661 14.9884 29.6154 13.7984Z" fill="#FFB877"/>
</svg>