<svg xmlns="http://www.w3.org/2000/svg" width="46" height="39" viewBox="0 0 46 39" fill="none">
<path d="M38.8036 7.03157H35.9102L35.1868 4.77106C34.7179 3.44467 33.848 2.29695 32.6978 1.48691C31.5475 0.676875 30.1738 0.244627 28.767 0.25005H17.1932C15.7725 0.252708 14.3886 0.701435 13.2368 1.5329C12.0849 2.36436 11.2232 3.53658 10.7733 4.88409L10.05 7.14459H7.15652C5.35795 7.14459 3.63304 7.85907 2.36126 9.13085C1.08948 10.4026 0.375 12.1275 0.375 13.9261V32.0102C0.375 33.8087 1.08948 35.5336 2.36126 36.8054C3.63304 38.0772 5.35795 38.7917 7.15652 38.7917H38.8036C40.6022 38.7917 42.3271 38.0772 43.5989 36.8054C44.8706 35.5336 45.5851 33.8087 45.5851 32.0102V13.9261C45.6001 13.0261 45.4358 12.1321 45.1017 11.2962C44.7676 10.4604 44.2705 9.69936 43.6393 9.05762C43.0081 8.41588 42.2554 7.90622 41.4252 7.55837C40.5949 7.21053 39.7038 7.03144 38.8036 7.03157ZM41.0641 31.8971C41.0641 32.4967 40.826 33.0716 40.402 33.4955C39.9781 33.9195 39.4031 34.1576 38.8036 34.1576H7.15652C6.557 34.1576 5.98203 33.9195 5.5581 33.4955C5.13417 33.0716 4.89601 32.4967 4.89601 31.8971V13.8131C4.89601 13.2136 5.13417 12.6386 5.5581 12.2147C5.98203 11.7907 6.557 11.5526 7.15652 11.5526H11.6775C12.1705 11.5783 12.6583 11.442 13.0665 11.1644C13.4746 10.8869 13.7808 10.4833 13.938 10.0154L15.1587 6.30821C15.3104 5.85922 15.5993 5.46925 15.9846 5.19342C16.37 4.91759 16.8323 4.76984 17.3062 4.77106H28.88C29.3539 4.76984 29.8162 4.91759 30.2015 5.19342C30.5869 5.46925 30.8758 5.85922 31.0275 6.30821L32.2481 10.0154C32.3932 10.4466 32.665 10.824 33.0279 11.0982C33.3909 11.3725 33.8282 11.5308 34.2826 11.5526H38.8036C39.4031 11.5526 39.9781 11.7907 40.402 12.2147C40.826 12.6386 41.0641 13.2136 41.0641 13.8131V31.8971ZM22.9801 11.5526C21.1917 11.5526 19.4435 12.0829 17.9566 13.0764C16.4696 14.07 15.3107 15.4822 14.6263 17.1344C13.942 18.7866 13.7629 20.6046 14.1118 22.3586C14.4607 24.1126 15.3218 25.7237 16.5864 26.9883C17.8509 28.2528 19.4621 29.114 21.2161 29.4629C22.97 29.8118 24.7881 29.6327 26.4403 28.9483C28.0925 28.264 29.5047 27.105 30.4982 25.6181C31.4918 24.1311 32.0221 22.3829 32.0221 20.5946C32.0221 18.1965 31.0695 15.8966 29.3737 14.2009C27.678 12.5052 25.3782 11.5526 22.9801 11.5526ZM22.9801 25.1156C22.0859 25.1156 21.2118 24.8505 20.4683 24.3537C19.7248 23.8569 19.1454 23.1508 18.8032 22.3247C18.461 21.4986 18.3715 20.5896 18.5459 19.7126C18.7204 18.8356 19.151 18.03 19.7832 17.3978C20.4155 16.7655 21.2211 16.3349 22.0981 16.1605C22.975 15.986 23.8841 16.0755 24.7102 16.4177C25.5363 16.7599 26.2424 17.3394 26.7391 18.0829C27.2359 18.8263 27.5011 19.7004 27.5011 20.5946C27.5011 21.7936 27.0248 22.9436 26.1769 23.7914C25.329 24.6393 24.1791 25.1156 22.9801 25.1156Z" fill="#4B4D50"/>
</svg>