<svg xmlns="http://www.w3.org/2000/svg" width="17" height="12" viewBox="0 0 17 12" fill="none">
<path d="M5.06353 10.442L5.06211 10.4408L0.861827 6.84298L0.860797 6.8421C0.665259 6.6736 0.538592 6.42907 0.538592 6.15615C0.538592 5.88323 0.66526 5.6387 0.860798 5.47021C0.957908 5.38643 1.06968 5.32303 1.18819 5.28074C1.30687 5.23838 1.43221 5.2172 1.55751 5.2172C1.6828 5.2172 1.80815 5.23838 1.92682 5.28074C2.04514 5.32296 2.15673 5.38621 2.25373 5.46978C2.25402 5.47003 2.25432 5.47029 2.25461 5.47054L5.7578 8.47125L14.7272 0.788329L14.7283 0.787447C14.9225 0.622055 15.1721 0.538592 15.4201 0.538592C15.6681 0.538592 15.9174 0.621945 16.1116 0.787118C16.1117 0.787228 16.1119 0.787338 16.112 0.787448L5.06353 10.442ZM5.06353 10.442C5.16105 10.5249 5.27302 10.5874 5.39156 10.6289C5.51011 10.6703 5.63516 10.6908 5.76009 10.6902M5.06353 10.442L5.76009 10.6902M5.76009 10.6902C5.75988 10.6902 5.75967 10.6902 5.75946 10.6902L5.7578 10.2288L5.76009 10.6902Z" fill="#313131" stroke="#313131" stroke-width="0.922816"/>
</svg>