<svg width="9" height="7" viewBox="0 0 9 7" fill="none" xmlns="http://www.w3.org/2000/svg">
<path d="M3.22362 6.03543C3.18936 6.03563 3.15539 6.02906 3.12367 6.0161C3.09195 6.00315 3.0631 5.98406 3.03877 5.95993L1.07571 3.99687C1.02722 3.94809 1 3.8821 1 3.81332C1 3.74454 1.02722 3.67855 1.07571 3.62977C1.09991 3.60537 1.12871 3.586 1.16043 3.57278C1.19216 3.55956 1.22619 3.55276 1.26056 3.55276C1.29493 3.55276 1.32896 3.55956 1.36068 3.57278C1.39241 3.586 1.42121 3.60537 1.44541 3.62977L3.22362 5.40798L7.55589 1.07571C7.60467 1.02722 7.67066 1 7.73944 1C7.80822 1 7.87421 1.02722 7.92299 1.07571C7.94739 1.09991 7.96676 1.12871 7.97998 1.16043C7.99319 1.19216 8 1.22619 8 1.26056C8 1.29493 7.99319 1.32896 7.97998 1.36068C7.96676 1.39241 7.94739 1.42121 7.92299 1.44541L3.40587 5.95993C3.35737 6.00803 3.29192 6.03514 3.22362 6.03543Z" fill="#313131" stroke="#313131" stroke-width="0.49"/>
</svg>
