<svg width="25" height="25" viewBox="0 0 25 25" fill="none" xmlns="http://www.w3.org/2000/svg">
<path d="M24 13.9372L11.5 10.0997C11.2818 10.0349 11.0501 10.031 10.8298 10.0882C10.6095 10.1455 10.409 10.2618 10.25 10.4247C10.0915 10.5863 9.97984 10.788 9.927 11.0082C9.87416 11.2283 9.88211 11.4587 9.95 11.6747L13.9625 24.0247C14.0411 24.2593 14.1876 24.4654 14.3834 24.6167C14.5793 24.768 14.8156 24.8578 15.0625 24.8747H15.1625C15.3946 24.8728 15.6217 24.8064 15.8182 24.6827C16.0147 24.5591 16.1729 24.3832 16.275 24.1747L18.9 18.8747L24.25 16.2497C24.4731 16.1373 24.6574 15.9606 24.779 15.7424C24.9007 15.5242 24.9543 15.2746 24.9328 15.0257C24.9112 14.7769 24.8156 14.5401 24.6583 14.3461C24.5009 14.1521 24.2891 14.0096 24.05 13.9372H24ZM5.85 4.09969C5.61462 3.86431 5.29538 3.73207 4.9625 3.73207C4.62962 3.73207 4.31038 3.86431 4.075 4.09969C3.83962 4.33507 3.70738 4.65431 3.70738 4.98719C3.70738 5.32007 3.83962 5.63931 4.075 5.87469L7.525 9.31219C7.6418 9.42804 7.78032 9.5197 7.93262 9.5819C8.08491 9.64411 8.24799 9.67564 8.4125 9.67469C8.72737 9.66372 9.02649 9.53425 9.25 9.31219C9.36716 9.19598 9.46015 9.05773 9.52361 8.90541C9.58707 8.75309 9.61975 8.5897 9.61975 8.42469C9.61975 8.25967 9.58707 8.09629 9.52361 7.94397C9.46015 7.79164 9.36716 7.65339 9.25 7.53719L5.85 4.09969ZM6.5125 13.3497C6.81211 13.3535 7.10314 13.2496 7.33258 13.0569C7.56201 12.8642 7.71458 12.5955 7.7625 12.2997C7.81703 11.975 7.74128 11.642 7.55171 11.3728C7.36214 11.1037 7.07405 10.9202 6.75 10.8622L1.8875 10.0997C1.56513 10.0602 1.24004 10.1477 0.981061 10.3436C0.722081 10.5396 0.549548 10.8287 0.499998 11.1497C0.449596 11.4761 0.530422 11.8092 0.72482 12.0762C0.919218 12.3432 1.21139 12.5224 1.5375 12.5747L6.35 13.3372L6.5125 13.3497ZM6.575 15.0747L2.2375 17.2747C1.98838 17.4023 1.7893 17.6098 1.67215 17.8641C1.555 18.1183 1.52657 18.4044 1.5914 18.6767C1.65623 18.949 1.81058 19.1917 2.02971 19.3658C2.24885 19.54 2.5201 19.6355 2.8 19.6372C2.99622 19.6406 3.19 19.5933 3.3625 19.4997L7.7125 17.2997C7.86362 17.228 7.99881 17.1267 8.11006 17.0018C8.22132 16.8769 8.30638 16.7309 8.3602 16.5726C8.41402 16.4142 8.4355 16.2466 8.42339 16.0798C8.41127 15.913 8.3658 15.7503 8.28966 15.6014C8.21352 15.4524 8.10826 15.3203 7.98013 15.2128C7.852 15.1053 7.70359 15.0246 7.54369 14.9755C7.3838 14.9263 7.21568 14.9098 7.04929 14.9269C6.88289 14.9439 6.72161 14.9942 6.575 15.0747ZM15.6375 8.33719C15.8165 8.42534 16.013 8.47232 16.2125 8.47469C16.4433 8.47399 16.6695 8.40938 16.8658 8.28803C17.0622 8.16668 17.2211 7.99333 17.325 7.78719L19.5375 3.46219C19.6168 3.31426 19.6656 3.15186 19.6808 2.98469C19.696 2.81752 19.6774 2.649 19.626 2.48918C19.5747 2.32936 19.4917 2.18151 19.382 2.05446C19.2723 1.92741 19.1381 1.82376 18.9875 1.74969C18.6938 1.6005 18.3531 1.57327 18.0394 1.67392C17.7258 1.77457 17.4645 1.99497 17.3125 2.28719L15.1 6.64969C15.0242 6.79572 14.9779 6.95528 14.9639 7.11923C14.9499 7.28317 14.9684 7.44827 15.0183 7.60505C15.0683 7.76183 15.1487 7.90721 15.2549 8.03285C15.3612 8.15848 15.4912 8.26191 15.6375 8.33719ZM12.1125 7.81219H12.3125C12.4752 7.78637 12.6312 7.72863 12.7715 7.64231C12.9119 7.55598 13.0337 7.44277 13.1302 7.30918C13.2266 7.17559 13.2956 7.02425 13.3334 6.86388C13.3711 6.7035 13.3767 6.53725 13.35 6.37469L12.5875 1.57469C12.5612 1.41054 12.5029 1.25316 12.4158 1.11156C12.3287 0.969952 12.2146 0.846885 12.08 0.749383C11.9453 0.651882 11.7928 0.581855 11.6311 0.543302C11.4694 0.504749 11.3017 0.498424 11.1375 0.524688C10.9733 0.550952 10.816 0.609292 10.6744 0.696375C10.5328 0.783459 10.4097 0.897581 10.3122 1.03223C10.2147 1.16687 10.1447 1.3194 10.1061 1.48111C10.0676 1.64282 10.0612 1.81054 10.0875 1.97469L10.875 6.74969C10.9199 7.04561 11.0695 7.3156 11.2966 7.51058C11.5237 7.70556 11.8132 7.81258 12.1125 7.81219Z" fill="#707175"/>
</svg>
