<svg
            xmlns="http://www.w3.org/2000/svg"
            viewBox="0 0 23 23"
            fill="none"
            className="h-[10px] w-[10px] tablet:h-[23px] tablet:w-[23px]"
          >
            <path
              d="M0.742781 4.71145C-0.210937 3.77788 -0.251625 2.22222 0.651895 1.23678C1.55542 0.251347 3.06101 0.209303 4.01472 1.14287L10.9221 7.9044L17.466 0.76724C18.3696 -0.218195 19.8751 -0.260239 20.8289 0.673332C21.7826 1.6069 21.8233 3.16257 20.9197 4.148L14.3759 11.2852L21.2833 18.0467C22.237 18.9803 22.2777 20.5359 21.3742 21.5213C20.4706 22.5068 18.9651 22.5488 18.0113 21.6153L11.1039 14.8537L4.56004 21.9909C3.65651 22.9763 2.15092 23.0184 1.19721 22.0848C0.243494 21.1512 0.202803 19.5956 1.10632 18.6101L7.65021 11.473L0.742781 4.71145Z"
              fill="#F3F3F3"
            />
          </svg>