<svg width="50" height="50" viewBox="0 0 50 50" fill="none" xmlns="http://www.w3.org/2000/svg">
<rect width="50" height="50" rx="24.0889" fill="white"/>
<path d="M33.7019 38.125H20.1394C18.9832 38.125 17.8744 37.6805 17.0569 36.8894C16.2393 36.0982 15.78 35.0251 15.78 33.9063V20.7813C15.78 19.6624 16.2393 18.5893 17.0569 17.7981C17.8744 17.007 18.9832 16.5625 20.1394 16.5625H33.7019C34.8581 16.5625 35.9669 17.007 36.7844 17.7981C37.602 18.5893 38.0613 19.6624 38.0613 20.7813V33.9063C38.0613 35.0251 37.602 36.0982 36.7844 36.8894C35.9669 37.6805 34.8581 38.125 33.7019 38.125Z" fill="#707175"/>
<path d="M18.6885 14.6882H32.9703C32.6689 13.8663 32.112 13.1548 31.3762 12.6512C30.6404 12.1477 29.7616 11.8768 28.8603 11.8757H15.2979C14.1417 11.8757 13.0328 12.3202 12.2153 13.1114C11.3978 13.9025 10.9385 14.9756 10.9385 16.0945V29.2195C10.9396 30.0916 11.2195 30.9421 11.7398 31.6542C12.2601 32.3663 12.9954 32.9051 13.8447 33.1968V19.3757C13.8447 18.1325 14.355 16.9402 15.2634 16.0612C16.1718 15.1821 17.4038 14.6882 18.6885 14.6882Z" fill="#707175"/>
</svg>
