<svg width="46" height="46" viewBox="0 0 46 46" fill="none" xmlns="http://www.w3.org/2000/svg">
<g id="copy">
<path id="Vector" d="M36.0916 42.708H16.4382C14.7628 42.708 13.156 42.0425 11.9713 40.8578C10.7866 39.6731 10.1211 38.0663 10.1211 36.3909V16.7376C10.1211 15.0621 10.7866 13.4554 11.9713 12.2707C13.156 11.086 14.7628 10.4204 16.4382 10.4204H36.0916C37.767 10.4204 39.3738 11.086 40.5584 12.2707C41.7431 13.4554 42.4087 15.0621 42.4087 16.7376V36.3909C42.4087 38.0663 41.7431 39.6731 40.5584 40.8578C39.3738 42.0425 37.767 42.708 36.0916 42.708Z" fill="#A3A3A3"/>
<path id="Vector_2" d="M14.3359 7.61279H35.0316C34.5948 6.38204 33.7879 5.31658 32.7216 4.56257C31.6553 3.80856 30.3819 3.40294 29.0759 3.40137H9.42261C7.7472 3.40137 6.14041 4.06692 4.95572 5.25161C3.77102 6.43631 3.10547 8.0431 3.10547 9.71851V29.3718C3.10705 30.6778 3.51266 31.9513 4.26667 33.0175C5.02068 34.0838 6.08614 34.8907 7.31689 35.3275V14.6318C7.31689 12.7703 8.0564 10.9849 9.37272 9.66862C10.689 8.3523 12.4744 7.61279 14.3359 7.61279Z" fill="#A3A3A3"/>
</g>
</svg>
