<svg xmlns="http://www.w3.org/2000/svg" width="20" height="20" viewBox="0 0 20 20" fill="none">
<path d="M2.44135 8.07187C2.45776 8.07187 2.47416 8.07187 2.49467 8.06781L7.28119 7.31625C7.39194 7.3 7.48217 7.23093 7.52729 7.12937L9.52885 2.75812C9.60268 2.59562 9.52885 2.40062 9.36479 2.3275C9.30737 2.30312 9.24174 2.29093 9.17612 2.30312L4.38959 3.05468C4.27885 3.07093 4.18862 3.14 4.1435 3.24156L2.14194 7.61281C2.06811 7.77531 2.14194 7.97031 2.306 8.04343C2.34701 8.05968 2.39213 8.07187 2.44135 8.07187ZM4.83666 6.34531L6.04252 6.84906L3.67592 7.21875L4.83666 6.34531ZM5.04174 5.37437L4.81205 3.64781L7.99487 3.14812L5.04174 5.37437ZM4.43881 5.82937L3.27807 6.70687L4.26655 4.54562L4.43881 5.82937ZM7.05971 6.57281L5.43959 5.89437L8.39272 3.66812L7.05971 6.57281Z" fill="white"/>
<path d="M19.6345 10.6229C19.4376 9.19696 18.7198 7.68977 17.6083 6.38165C16.1727 4.68759 14.3147 3.59884 12.6167 3.4404C12.5223 3.2129 12.3952 2.99759 12.2434 2.79852L11.0499 1.24665C10.3403 0.32446 9.12215 -0.110227 7.62098 0.0238351C6.17313 0.149773 4.61864 0.791648 3.24461 1.82759C1.87469 2.85946 0.836995 4.17571 0.332503 5.52446C-0.192497 6.92602 -0.0940593 8.20571 0.615511 9.12384L1.30047 10.0135C1.16512 10.2004 1.05028 10.3995 0.964144 10.6107L0.217659 12.4145C-0.225309 13.487 0.0125814 14.7463 0.890316 15.9651C1.73524 17.1391 3.08055 18.1385 4.67606 18.7885C5.8409 19.2598 7.04676 19.5035 8.16649 19.5035C8.57254 19.5035 8.97449 19.471 9.37235 19.402C10.8571 19.142 11.9194 18.4066 12.3624 17.3382L13.0638 15.6401C13.1868 15.6888 13.3139 15.7335 13.437 15.7701C13.9333 15.9326 14.4501 16.0179 14.971 16.022C15.779 16.022 16.4927 15.7863 17.0546 15.3191L18.5639 14.0638C19.4581 13.3285 19.8395 12.1016 19.6345 10.6229ZM10.287 12.8938L11.2919 12.057C11.7348 12.5485 12.2229 12.9913 12.7561 13.3854L11.7677 14.2101C11.2263 13.8282 10.73 13.3854 10.287 12.8938ZM9.86453 12.3982C9.72918 12.2235 9.59793 12.0488 9.47489 11.866C9.46258 11.8416 9.44617 11.8173 9.42977 11.7929H9.42567C9.18367 11.4313 8.96629 11.0535 8.78172 10.6595C9.06473 10.4888 9.33953 10.2979 9.61024 10.0948C9.67996 10.042 9.74969 9.98915 9.81942 9.93227C10.1147 10.5091 10.4634 11.0535 10.8694 11.5573L9.86453 12.3982ZM8.94578 12.7638C8.81043 13.097 8.42489 13.2554 8.08856 13.1213L6.57098 12.5079L6.97703 11.5248C7.3995 11.3785 7.81375 11.1998 8.21161 10.9885C8.41668 11.4151 8.65457 11.8295 8.92118 12.2195C9.00731 12.386 9.01961 12.5851 8.94578 12.7638ZM8.1993 14.0679C8.33875 14.397 8.18289 14.7788 7.84657 14.917C7.6866 14.982 7.50614 14.986 7.34618 14.921L5.8286 14.3076L6.32489 13.1051L7.84246 13.7185C8.00243 13.7835 8.12957 13.9095 8.1993 14.0679ZM3.52762 10.371C3.56453 10.371 3.59735 10.371 3.63426 10.371L4.31512 11.2566C3.44969 11.1795 2.76063 10.8463 2.32996 10.2857L2.27254 10.2126C2.6786 10.3182 3.10516 10.3751 3.52762 10.371ZM5.17645 11.2526C5.16414 11.2526 5.15184 11.2526 5.13953 11.2566L4.40946 10.306C4.88114 10.237 5.34461 10.1232 5.79578 9.96477L6.57098 10.9723C6.11571 11.1145 5.65223 11.2079 5.17645 11.2526ZM8.15418 8.7379L8.94989 9.76977C8.40848 10.1516 7.82606 10.4766 7.21492 10.7326L6.43153 9.7129C7.03856 9.44884 7.61278 9.12384 8.15418 8.7379ZM9.47078 9.37977L8.67508 8.3479C9.19188 7.93352 9.66356 7.4704 10.0819 6.96259L10.8653 7.98227C10.4552 8.49415 9.98758 8.9654 9.47078 9.37977ZM11.2673 7.42571L10.4921 6.41821C10.7669 6.02821 11.0007 5.6179 11.1934 5.18321L11.9235 6.13384C11.9194 6.14602 11.9153 6.15821 11.9112 6.1704C11.743 6.60915 11.5298 7.03165 11.2673 7.42571ZM12.145 5.34571L11.4641 4.46009C11.5995 4.0254 11.6692 3.5704 11.6692 3.1154L11.7266 3.18852C12.1573 3.75321 12.2968 4.50071 12.145 5.34571ZM0.947738 5.75196C1.41121 4.51696 2.37098 3.30634 3.64657 2.34352C4.92215 1.38071 6.3536 0.787585 7.6825 0.669773C7.83836 0.657585 7.99012 0.64946 8.13778 0.64946C9.19598 0.64946 10.0368 0.994773 10.5331 1.64071C11.0991 2.37602 11.1647 3.43634 10.7218 4.61852C10.2583 5.85352 9.29852 7.06415 8.02293 8.02696C6.74735 8.98977 5.3159 9.5829 3.987 9.70071C2.71551 9.8104 1.70243 9.46509 1.13641 8.72977C0.566292 7.99446 0.500667 6.93415 0.947738 5.75196ZM1.80496 10.6757C2.4284 11.4882 3.45379 11.9229 4.72118 11.9229C4.88934 11.9229 5.0616 11.9148 5.23387 11.8985C5.54969 11.8701 5.86141 11.8213 6.16903 11.7482L5.21336 14.0598L4.60633 13.812L4.35614 14.4132L4.96317 14.661L4.71297 15.2623L5.32 15.5101L5.5784 14.9088L6.18543 15.1566L5.93524 15.7579L6.54227 16.0057L6.79246 15.4045L7.09598 15.5263C7.76864 15.7985 8.53153 15.4816 8.80633 14.8154C8.93758 14.4945 8.93758 14.137 8.80223 13.8201C8.78993 13.7957 8.77762 13.7713 8.76532 13.7429C9.10985 13.6251 9.39285 13.3691 9.53641 13.036C9.54461 13.0482 9.55692 13.0604 9.56512 13.0685C10.4141 14.0679 11.4149 14.8641 12.4567 15.3801C12.0794 16.1885 11.2098 16.7491 9.99989 16.9604C8.68739 17.192 7.1493 16.9848 5.66453 16.3835C4.17977 15.7823 2.937 14.8601 2.1659 13.7835C1.42352 12.7557 1.21434 11.7157 1.56707 10.8585C1.60809 10.757 1.66141 10.6554 1.71883 10.562L1.80496 10.6757ZM5.11903 16.8588L4.62274 18.0613C4.01571 17.7932 3.44149 17.4601 2.90828 17.066L3.39637 15.8798C3.93368 16.2657 4.512 16.5907 5.11903 16.8588ZM5.72606 17.1026C6.34539 17.3341 6.98934 17.5007 7.64559 17.6023L7.1575 18.7885C6.49715 18.6991 5.85321 18.5366 5.22977 18.3051L5.72606 17.1026ZM0.824691 12.6663L0.861605 12.581C0.98055 13.0198 1.16512 13.4423 1.41121 13.8282L0.984652 14.852C0.611409 14.076 0.553988 13.3163 0.824691 12.6663ZM1.42352 15.5913C1.41532 15.5791 1.40711 15.571 1.40301 15.5588L1.85828 14.4538C2.1577 14.8235 2.49403 15.1607 2.85907 15.4654L2.37508 16.6354C2.01825 16.3226 1.69832 15.9732 1.42352 15.5913ZM7.84246 18.8495L8.32645 17.6795C8.52332 17.6957 8.7202 17.6998 8.91297 17.6998C9.19598 17.6998 9.47489 17.6835 9.75379 17.651L9.29852 18.756C9.28621 18.7601 9.27391 18.7601 9.26161 18.7641C8.78993 18.8454 8.31414 18.8738 7.84246 18.8495ZM10.0942 18.5448L10.5208 17.517C10.9679 17.4113 11.3985 17.2407 11.7923 17.0091L11.7554 17.0945C11.4847 17.7485 10.9063 18.2482 10.0942 18.5448ZM12.3419 14.5798L13.3181 13.7673C13.7241 14.0191 14.1507 14.2304 14.5936 14.401L13.6708 15.1688C13.6585 15.1648 13.6462 15.1607 13.6339 15.1566C13.1868 15.0104 12.752 14.8195 12.3419 14.5798ZM16.6321 14.8276C16.0866 15.2826 15.3401 15.4573 14.4788 15.3435L15.336 14.6285C15.7093 14.722 16.0907 14.7707 16.4763 14.7707C16.5542 14.7707 16.628 14.7666 16.7018 14.7626L16.6321 14.8276ZM18.1415 13.5763C17.4237 14.1735 16.3614 14.2873 15.1473 13.9054C13.88 13.5032 12.6126 12.6135 11.579 11.3988C11.0868 10.822 10.6684 10.1841 10.3362 9.50165C11.3493 8.57946 12.1163 7.5029 12.5306 6.40196C12.8382 5.5854 12.9325 4.80946 12.8177 4.1229C14.2655 4.3504 15.8774 5.34977 17.112 6.80415C18.1456 8.01884 18.81 9.41227 18.9905 10.7163C19.1587 11.9635 18.8593 12.9791 18.1415 13.5763Z" fill="white"/>
<path d="M16.5173 8.21C15.9472 8.16125 15.414 8.48219 15.1925 9.00219L14.647 8.84375L14.5854 8.28313C15.2909 8.12469 15.738 7.43 15.578 6.72719C15.4181 6.02844 14.7167 5.58563 14.0071 5.74407C13.3016 5.9025 12.8546 6.59719 13.0145 7.3C13.1171 7.75907 13.4657 8.12469 13.921 8.25875L13.9989 8.9575L13.8513 9.07938C13.2606 8.665 12.4444 8.79907 12.022 9.38407C11.6036 9.96907 11.739 10.7775 12.3296 11.1959C12.9202 11.6103 13.7364 11.4763 14.1589 10.8913C14.4337 10.5053 14.4788 10.0016 14.2737 9.57907L14.4214 9.45719L15.1022 9.65219C15.1761 10.2656 15.6724 10.745 16.2917 10.7978C16.3286 10.8019 16.3696 10.8019 16.4065 10.8019C16.7141 10.8019 17.0136 10.6922 17.2474 10.4972C17.8011 10.0341 17.8749 9.21344 17.4073 8.665C17.1858 8.405 16.8618 8.23844 16.5173 8.21ZM13.7897 7.43407C13.5559 7.15782 13.5929 6.7475 13.8718 6.52C14.1507 6.28844 14.5649 6.325 14.7946 6.60125C15.0284 6.8775 14.9915 7.28782 14.7126 7.51532C14.5813 7.625 14.405 7.68188 14.2327 7.66563C14.0604 7.64938 13.9005 7.56813 13.7897 7.43407ZM13.7405 10.1966C13.7077 10.5541 13.3919 10.8181 13.0309 10.7856C12.67 10.7531 12.4034 10.4403 12.4362 10.0828C12.4649 9.74563 12.7479 9.48969 13.0884 9.48969C13.1089 9.48969 13.1253 9.48969 13.1458 9.49375C13.5026 9.52625 13.7733 9.83907 13.7405 10.1966ZM17.0546 9.55875C17.0382 9.72938 16.9561 9.88782 16.8249 10.0016C16.546 10.2331 16.1317 10.1966 15.902 9.92032C15.6683 9.64407 15.7052 9.23375 15.9841 9.00625C16.103 8.90875 16.2507 8.85594 16.4065 8.85594C16.427 8.85594 16.4434 8.85594 16.464 8.86C16.8208 8.88844 17.0874 9.20125 17.0546 9.55875Z" fill="white"/>
</svg>