<svg xmlns="http://www.w3.org/2000/svg" width="27" height="23" viewBox="0 0 27 23" fill="none">
<path d="M24.3377 0.385254H2.33766C1.26975 0.385254 0.396484 1.25852 0.396484 2.32643V17.8558C0.396484 18.9237 1.26975 19.797 2.33766 19.797H9.45531V21.0911H7.51413C7.15773 21.0911 6.86707 21.3818 6.86707 21.7382C6.86707 22.0946 7.15774 22.3853 7.51413 22.3853H19.1612C19.5176 22.3853 19.8083 22.0946 19.8083 21.7382C19.8083 21.3818 19.5176 21.0911 19.1612 21.0911H17.22V19.797H24.3377C25.4056 19.797 26.2788 18.9237 26.2788 17.8558V2.32643C26.2788 1.25852 25.4056 0.385254 24.3377 0.385254ZM9.26054 5.62611C9.00147 5.36703 9.00147 4.97905 9.26054 4.71997C9.51962 4.46089 9.9076 4.46089 10.1667 4.71997L11.1044 5.65768C11.5568 5.33415 12.1079 5.10794 12.6892 5.01062V3.71651C12.6892 3.36011 12.9799 3.06945 13.3362 3.06945C13.6926 3.06945 13.9833 3.36012 13.9833 3.71651V5.01062C14.5659 5.10794 15.1157 5.33415 15.5681 5.65768L16.5058 4.71997C16.7649 4.46089 17.1528 4.46089 17.4119 4.71997C17.671 4.97904 17.671 5.36702 17.4119 5.62611L16.4742 6.56382C16.7977 7.01625 17.024 7.56728 17.1213 8.1486H18.4154C18.7718 8.1486 19.0625 8.43927 19.0625 8.79566C19.0625 9.15206 18.7718 9.44272 18.4154 9.44272H17.1213C17.024 10.0253 16.7977 10.5751 16.4742 11.0275L17.4119 11.9652C17.671 12.2243 17.671 12.6123 17.4119 12.8714C17.283 13.0003 17.1213 13.066 16.9595 13.066C16.7978 13.066 16.636 13.0015 16.5071 12.8714L15.5694 11.9336C15.1169 12.2572 14.5659 12.4834 13.9846 12.5807V13.8748C13.9846 14.2312 13.6939 14.5219 13.3375 14.5219C12.9811 14.5219 12.6905 14.2312 12.6905 13.8748V12.5807C12.1079 12.4834 11.5581 12.2572 11.1057 11.9336L10.168 12.8714C10.0391 13.0003 9.87731 13.066 9.71556 13.066C9.5538 13.066 9.39202 13.0015 9.26313 12.8714C9.00406 12.6123 9.00406 12.2243 9.26313 11.9652L10.2009 11.0275C9.87732 10.5751 9.65111 10.024 9.55379 9.44272H8.25967C7.90327 9.44272 7.61261 9.15205 7.61261 8.79566C7.61261 8.43926 7.90329 8.1486 8.25967 8.1486H9.55379C9.6511 7.56599 9.87732 7.01625 10.2009 6.56382L9.26054 5.62611ZM15.9259 21.0911H10.7494V19.797H15.9259V21.0911ZM24.3377 18.5029H2.33766C1.98126 18.5029 1.6906 18.2122 1.6906 17.8558V17.2088H24.9847V17.8558C24.9847 18.2122 24.694 18.5029 24.3377 18.5029ZM10.7494 8.79702C10.7494 7.37401 11.9146 6.20878 13.3377 6.20878C14.7607 6.20878 15.9259 7.37401 15.9259 8.79702C15.9259 10.22 14.7607 11.3853 13.3377 11.3853C11.9146 11.3853 10.7494 10.22 10.7494 8.79702Z" fill="white"/>
</svg>