<svg width="20" height="20" viewBox="0 0 20 20" fill="none" xmlns="http://www.w3.org/2000/svg">
<path d="M6.69131 6.61719C2.99445 6.61719 0 9.61164 0 13.3085C0 17.0054 3.03142 19.9998 6.69131 19.9998C10.3512 19.9998 13.3826 17.0054 13.3826 13.3085C13.3826 9.61164 10.3882 6.61719 6.69131 6.61719ZM11.0906 10.5359H9.61183C9.35305 9.79648 8.98336 9.09408 8.57671 8.46562C9.61183 8.87227 10.4991 9.61164 11.0906 10.5359ZM6.69131 8.57652C7.24584 9.09408 7.72643 9.75952 8.02218 10.5359H5.32348C5.69316 9.75952 6.13678 9.09408 6.69131 8.57652ZM4.84288 8.46562C4.39926 9.09408 4.02957 9.75952 3.80776 10.5359H2.32902C2.92052 9.61164 3.80776 8.87227 4.84288 8.46562ZM1.66359 14.5654C1.55268 14.1588 1.51571 13.7521 1.51571 13.3085C1.51571 12.8649 1.58965 12.4213 1.70055 12.0146H3.43808C3.36414 12.4213 3.32717 12.8649 3.32717 13.3085C3.32717 13.7152 3.36414 14.1588 3.40111 14.5654H1.66359ZM2.29205 16.0442H3.77079C4.02957 16.8205 4.39926 17.5229 4.84288 18.1514C3.77079 17.7447 2.88355 17.0054 2.29205 16.0442ZM6.69131 18.0405C6.09981 17.5229 5.65619 16.8205 5.32348 16.0072H8.05915C7.7634 16.8205 7.28281 17.5229 6.69131 18.0405ZM4.91682 14.5654C4.84288 14.1588 4.80591 13.7521 4.80591 13.3085C4.80591 12.8649 4.84288 12.4213 4.91682 12.0146H8.4658C8.53974 12.4213 8.57671 12.8649 8.57671 13.3085C8.57671 13.7152 8.53974 14.1588 8.4658 14.5654H4.91682ZM8.57671 18.1514C9.02033 17.5229 9.39002 16.8205 9.6488 16.0442H11.1275C10.536 17.0054 9.6488 17.7447 8.57671 18.1514ZM11.9039 13.3085C11.9039 13.7521 11.8299 14.1588 11.756 14.5654H9.98152C10.0555 14.1588 10.0555 13.7521 10.0555 13.3085C10.0555 12.8649 10.0185 12.4213 9.94455 12.0146H11.6821C11.8299 12.4213 11.9039 12.8649 11.9039 13.3085Z" fill="white"/>
<path d="M14.0113 10.6469C14.3071 11.4603 14.4919 12.3475 14.4919 13.2717C17.5973 12.7172 20.0002 9.98151 20.0002 6.69131C20.0002 2.99445 17.0058 0 13.3089 0C10.0187 0 7.28304 2.36599 6.72852 5.50832C7.24608 5.50832 7.72667 5.54529 8.20726 5.65619C8.24423 5.58225 8.24423 5.47135 8.2812 5.39741H10.0557C10.0187 5.65619 9.98175 5.95194 9.98175 6.24769C10.4993 6.50647 11.0169 6.80222 11.4605 7.13493C11.4605 6.98706 11.4235 6.83919 11.4235 6.69131C11.4235 6.24769 11.4605 5.80407 11.5344 5.39741H15.0834C15.1573 5.80407 15.1943 6.24769 15.1943 6.69131C15.1943 7.09797 15.1573 7.54159 15.0834 7.94824H12.3108C12.7544 8.39187 13.1241 8.87246 13.4198 9.42699H14.6768C14.4919 9.87061 14.2701 10.2773 14.0113 10.6469ZM10.3884 3.91867H8.90966C9.50116 2.99445 10.3884 2.25508 11.4235 1.84843C11.0169 2.47689 10.6472 3.1793 10.3884 3.91867ZM11.9781 3.91867C12.3108 3.14233 12.7544 2.47689 13.3089 1.95933C13.8634 2.47689 14.344 3.14233 14.6398 3.91867H11.9781ZM18.3366 5.39741C18.4476 5.80407 18.5215 6.24769 18.5215 6.69131C18.5215 7.13493 18.4476 7.54159 18.3736 7.94824H16.5991C16.6731 7.54159 16.6731 7.13493 16.6731 6.69131C16.6731 6.24769 16.6361 5.80407 16.5622 5.39741H18.3366ZM15.1943 1.84843C16.2294 2.25508 17.1167 2.99445 17.7082 3.91867H16.2294C15.9707 3.1793 15.6379 2.47689 15.1943 1.84843ZM16.2664 9.42699H17.7451C17.1537 10.3882 16.2664 11.1275 15.1943 11.5342C15.6379 10.9057 16.0076 10.2033 16.2664 9.42699Z" fill="white"/>
<path d="M2.14432 5.39762H5.65633V3.10557H2.14432V2.10742L0.0371094 4.2516L2.14432 6.39578V5.39762Z" fill="white"/>
<path d="M17.1157 14.5286H13.6406V16.8576H17.1157V17.8188L19.2598 15.6746L17.1157 13.5674V14.5286Z" fill="white"/>
</svg>
