<svg width="50" height="50" viewBox="0 0 50 50" fill="none" xmlns="http://www.w3.org/2000/svg">
<g clip-path="url(#clip0_10684_3232)">
<path d="M49.9995 25.0002C49.9995 11.1933 38.8067 0.000486612 24.9998 0.000486612C11.1928 0.000486612 0 11.1933 0 25.0002C0 38.8072 11.1928 50 24.9998 50C38.8067 50 49.9995 38.8072 49.9995 25.0002Z" fill="#FFD900"/>
<path d="M20.037 19.926C14.4917 19.926 10 24.4177 10 29.963C10 35.5083 14.5471 40 20.037 40C25.5268 40 30.0739 35.5083 30.0739 29.963C30.0739 24.4177 25.5823 19.926 20.037 19.926ZM26.6359 25.804H24.4177C24.0296 24.695 23.475 23.6414 22.8651 22.6987C24.4177 23.3086 25.7486 24.4177 26.6359 25.804ZM20.037 22.865C20.8688 23.6414 21.5896 24.6395 22.0333 25.804H17.9852C18.5397 24.6395 19.2052 23.6414 20.037 22.865ZM17.2643 22.6987C16.5989 23.6414 16.0444 24.6395 15.7116 25.804H13.4935C14.3808 24.4177 15.7116 23.3086 17.2643 22.6987ZM12.4954 31.8484C12.329 31.2384 12.2736 30.6284 12.2736 29.963C12.2736 29.2976 12.3845 28.6321 12.5508 28.0221H15.1571C15.0462 28.6321 14.9908 29.2976 14.9908 29.963C14.9908 30.573 15.0462 31.2384 15.1017 31.8484H12.4954ZM13.4381 34.0665H15.6562C16.0444 35.231 16.5989 36.2846 17.2643 37.2273C15.6562 36.6173 14.3253 35.5083 13.4381 34.0665ZM20.037 37.061C19.1497 36.2846 18.4843 35.231 17.9852 34.0111H22.0887C21.6451 35.231 20.9242 36.2846 20.037 37.061ZM17.3752 31.8484C17.2643 31.2384 17.2089 30.6284 17.2089 29.963C17.2089 29.2976 17.2643 28.6321 17.3752 28.0221H22.6987C22.8096 28.6321 22.8651 29.2976 22.8651 29.963C22.8651 30.573 22.8096 31.2384 22.6987 31.8484H17.3752ZM22.8651 37.2273C23.5305 36.2846 24.085 35.231 24.4732 34.0665H26.6913C25.8041 35.5083 24.4732 36.6173 22.8651 37.2273ZM27.8558 29.963C27.8558 30.6284 27.7449 31.2384 27.634 31.8484H24.9723C25.0832 31.2384 25.0832 30.6284 25.0832 29.963C25.0832 29.2976 25.0277 28.6321 24.9168 28.0221H27.5231C27.7449 28.6321 27.8558 29.2976 27.8558 29.963Z" fill="#373201"/>
<path d="M31.016 25.9704C31.4596 27.1904 31.7369 28.5213 31.7369 29.9076C36.3949 29.0758 39.9994 24.9723 39.9994 20.037C39.9994 14.4917 35.5077 10 29.9624 10C25.0271 10 20.9236 13.549 20.0918 18.2625C20.8681 18.2625 21.589 18.3179 22.3099 18.4843C22.3654 18.3734 22.3654 18.207 22.4208 18.0961H25.0826C25.0271 18.4843 24.9716 18.9279 24.9716 19.3715C25.748 19.7597 26.5243 20.2033 27.1898 20.7024C27.1898 20.4806 27.1343 20.2588 27.1343 20.037C27.1343 19.3715 27.1898 18.7061 27.3007 18.0961H32.6241C32.735 18.7061 32.7905 19.3715 32.7905 20.037C32.7905 20.6469 32.735 21.3124 32.6241 21.9224H28.4652C29.1306 22.5878 29.6851 23.3087 30.1288 24.1405H32.0142C31.7369 24.8059 31.4042 25.4159 31.016 25.9704ZM25.5816 15.878H23.3635C24.2508 14.4917 25.5816 13.3826 27.1343 12.7726C26.5243 13.7153 25.9698 14.7689 25.5816 15.878ZM27.9661 15.878C28.4652 14.7135 29.1306 13.7153 29.9624 12.939C30.7942 13.7153 31.5151 14.7135 31.9587 15.878H27.9661ZM37.504 18.0961C37.6704 18.7061 37.7813 19.3715 37.7813 20.037C37.7813 20.7024 37.6704 21.3124 37.5594 21.9224H34.8977C35.0086 21.3124 35.0086 20.7024 35.0086 20.037C35.0086 19.3715 34.9532 18.7061 34.8423 18.0961H37.504ZM32.7905 12.7726C34.3432 13.3826 35.6741 14.4917 36.5613 15.878H34.3432C33.955 14.7689 33.4559 13.7153 32.7905 12.7726ZM34.3986 24.1405H36.6167C35.7295 25.5823 34.3986 26.6913 32.7905 27.3013C33.4559 26.3586 34.0105 25.305 34.3986 24.1405Z" fill="#373201"/>
<path d="M13.2165 18.0962H18.4845V14.6581H13.2165V13.1609L10.0557 16.3772L13.2165 19.5934V18.0962Z" fill="#373201"/>
<path d="M35.6745 31.7931H30.4619V35.2866H35.6745V36.7284L38.8907 33.5121L35.6745 30.3513V31.7931Z" fill="#373201"/>
</g>
<defs>
<clipPath id="clip0_10684_3232">
<rect width="50" height="50" fill="white"/>
</clipPath>
</defs>
</svg>
