<svg width="23" height="23" viewBox="0 0 23 23" fill="none" xmlns="http://www.w3.org/2000/svg">
<path d="M14.0013 5.00806L12.4525 6.5414L4.2004 14.7769C4.01079 14.9678 3.88895 15.2153 3.85347 15.4817L2.97374 21.5903C2.88205 22.3199 3.33306 23 4.38626 23L10.5072 22.122C10.7742 22.0866 11.0222 21.965 11.2135 21.7758L19.4656 13.5403L20.8533 12.1554C20.9059 12.1047 20.9556 12.051 21.002 11.9946C21.8642 11.0552 22.3298 9.81987 22.3018 8.54623C22.2738 7.27258 21.7544 6.05885 20.8517 5.15803C19.9491 4.25721 18.7329 3.7388 17.4567 3.71086C16.1805 3.68293 14.9427 4.14761 14.0013 5.00806ZM17.3468 6.20753C17.6713 6.20326 17.9935 6.26349 18.2944 6.38471C18.5954 6.50594 18.8692 6.68573 19.0998 6.91361C19.3305 7.14149 19.5134 7.4129 19.6378 7.71202C19.7623 8.01115 19.8259 8.33201 19.8249 8.65591C19.8257 9.18357 19.6514 9.69664 19.3293 10.1151L15.8847 6.67742C16.3072 6.36501 16.821 6.1999 17.3468 6.20753ZM9.75138 19.7355L5.66249 20.3167L6.24485 16.236L14.1005 8.4086L17.5946 11.8957L9.75138 19.7355ZM1.23906 2.47312H12.3906C12.7192 2.47312 13.0343 2.34284 13.2667 2.11094C13.4991 1.87904 13.6296 1.56451 13.6296 1.23656C13.6296 0.908603 13.4991 0.59408 13.2667 0.36218C13.0343 0.13028 12.7192 0 12.3906 0H1.23906C0.910439 0 0.59528 0.13028 0.362911 0.36218C0.130543 0.59408 0 0.908603 0 1.23656C0 1.56451 0.130543 1.87904 0.362911 2.11094C0.59528 2.34284 0.910439 2.47312 1.23906 2.47312ZM1.23906 7.41935H8.6734C9.00202 7.41935 9.31718 7.28907 9.54954 7.05717C9.78191 6.82527 9.91246 6.51075 9.91246 6.1828C9.91246 5.85484 9.78191 5.54032 9.54954 5.30842C9.31718 5.07652 9.00202 4.94624 8.6734 4.94624H1.23906C0.910439 4.94624 0.59528 5.07652 0.362911 5.30842C0.130543 5.54032 0 5.85484 0 6.1828C0 6.51075 0.130543 6.82527 0.362911 7.05717C0.59528 7.28907 0.910439 7.41935 1.23906 7.41935ZM3.71717 9.89247H1.23906C0.910439 9.89247 0.59528 10.0228 0.362911 10.2547C0.130543 10.4866 0 10.8011 0 11.129C0 11.457 0.130543 11.7715 0.362911 12.0034C0.59528 12.2353 0.910439 12.3656 1.23906 12.3656H3.71717C4.04579 12.3656 4.36095 12.2353 4.59332 12.0034C4.82568 11.7715 4.95623 11.457 4.95623 11.129C4.95623 10.8011 4.82568 10.4866 4.59332 10.2547C4.36095 10.0228 4.04579 9.89247 3.71717 9.89247Z" fill="#818181"/>
</svg>
