<svg xmlns="http://www.w3.org/2000/svg" width="30" height="30" viewBox="0 0 30 30" fill="none">
  <path d="M28.5412 1.45883C30.4863 3.40393 30.4863 6.55756 28.5412 8.50266L10.1461 26.8977C9.34824 27.6956 8.34848 28.2616 7.25376 28.5353L1.54832 29.9617C0.636371 30.1897 -0.189676 29.3636 0.0383114 28.4517L1.46467 22.7462C1.73835 21.6515 2.3044 20.6518 3.10231 19.8539L21.4973 1.45883C23.4424 -0.486275 26.5961 -0.486275 28.5412 1.45883ZM19.7362 6.74143L4.86327 21.6148C4.38453 22.0936 4.04489 22.6934 3.88069 23.3502L2.95766 27.0423L6.64976 26.1193C7.30659 25.9551 7.90644 25.6155 8.38519 25.1367L23.2576 10.2628L19.7362 6.74143ZM23.2583 3.21978L21.4969 4.98074L25.0183 8.50213L26.7802 6.7417C27.7528 5.76915 27.7528 4.19233 26.7802 3.21978C25.8077 2.24723 24.2308 2.24723 23.2583 3.21978Z" fill="#818181"/>
</svg>