<svg width="50" height="50" viewBox="0 0 50 50" fill="none" xmlns="http://www.w3.org/2000/svg">
<g clip-path="url(#clip0_8741_4027)">
<path d="M24.9998 49.9995C38.8067 49.9995 49.9995 38.8067 49.9995 24.9998C49.9995 11.1928 38.8067 0 24.9998 0C11.1928 0 0 11.1928 0 24.9998C0 38.8067 11.1928 49.9995 24.9998 49.9995Z" fill="white"/>
<g clip-path="url(#clip1_8741_4027)">
<path d="M49.2892 28.985C51.4779 15.3519 42.1921 2.52705 28.5489 0.340004C14.9058 -1.84704 2.0715 7.43185 -0.11716 21.065C-2.30582 34.6982 6.97992 47.523 20.6231 49.71C34.2663 51.897 47.1006 42.6181 49.2892 28.985Z" fill="#69F1FA"/>
<path d="M24.4742 12.9082L38.5499 21.5861H10.3984L24.4742 12.9082Z" fill="#3CC7C1"/>
<path d="M38.7509 35.55C38.7509 36.9465 37.645 38.0437 36.2374 38.0437H12.7108C11.3032 38.0437 10.1973 36.9465 10.1973 35.55V22.1841C10.1973 21.9846 10.1973 21.8849 10.1973 21.7852L23.6698 30.064C23.6698 30.064 23.6698 30.064 23.7703 30.064C23.7703 30.064 23.7703 30.064 23.8708 30.064C23.9714 30.064 24.0719 30.1638 24.1725 30.1638C24.273 30.1638 24.3735 30.1638 24.4741 30.1638C24.5746 30.1638 24.6752 30.1638 24.7757 30.1638C24.8762 30.1638 24.9768 30.064 25.0773 30.064C25.0773 30.064 25.0773 30.064 25.1779 30.064C25.1779 30.064 25.1779 30.064 25.2784 30.064L38.7509 21.7852C38.7509 21.8849 38.7509 22.0844 38.7509 22.1841V35.55Z" fill="#3CC7C1"/>
</g>
</g>
<defs>
<clipPath id="clip0_8741_4027">
<rect width="50" height="50" fill="white"/>
</clipPath>
<clipPath id="clip1_8741_4027">
<rect width="50.0368" height="50" fill="white"/>
</clipPath>
</defs>
</svg>
