<svg width="51" height="51" viewBox="0 0 51 51" fill="none" xmlns="http://www.w3.org/2000/svg">
<path d="M50.3685 29.605C52.5572 15.9718 43.2715 3.14701 29.6283 0.959958C15.9851 -1.22709 3.15081 8.05181 0.962147 21.685C-1.22651 35.3181 8.05922 48.1429 21.7024 50.33C35.3456 52.517 48.1799 43.2381 50.3685 29.605Z" fill="#69F1FA"/>
<path d="M25.5534 13.5263L39.6291 22.2042H11.4777L25.5534 13.5263Z" fill="#1DAFB8"/>
<path d="M39.8302 36.1686C39.8302 37.565 38.7243 38.6622 37.3167 38.6622H13.7901C12.3825 38.6622 11.2766 37.565 11.2766 36.1686V22.8027C11.2766 22.6032 11.2766 22.5034 11.2766 22.4037L24.7491 30.6826C24.7491 30.6826 24.7491 30.6826 24.8496 30.6826C24.8496 30.6826 24.8496 30.6826 24.9501 30.6826C25.0507 30.6826 25.1512 30.7823 25.2518 30.7823C25.3523 30.7823 25.4529 30.7823 25.5534 30.7823C25.6539 30.7823 25.7545 30.7823 25.855 30.7823C25.9556 30.7823 26.0561 30.6826 26.1566 30.6826C26.1566 30.6826 26.1566 30.6826 26.2572 30.6826C26.2572 30.6826 26.2572 30.6826 26.3577 30.6826L39.8302 22.4037C39.8302 22.5034 39.8302 22.7029 39.8302 22.8027V36.1686Z" fill="#1DAFB8"/>
</svg>
