<svg width="50" height="50" viewBox="0 0 50 50" fill="none" xmlns="http://www.w3.org/2000/svg">
<rect width="50" height="50" rx="24.0889" fill="white"/>
<path d="M17.5732 30.4418C18.3106 31.279 18.2053 32.5871 17.3625 33.3196C16.5198 34.0522 15.2029 33.9475 14.4655 33.1103L8.51356 26.2557C7.82881 25.4709 7.82881 24.372 8.51356 23.5872L14.4129 16.7326C14.7816 16.2616 15.361 16 15.993 16C16.4671 16 16.9411 16.157 17.3098 16.4709C17.7312 16.8372 17.9946 17.3081 17.9946 17.8837C18.0472 18.407 17.8366 18.9302 17.5205 19.3488L12.78 24.9476L17.5732 30.4418ZM29.8459 18.9302L23.9466 32.5871C23.5252 33.5813 22.261 34.1045 21.2603 33.6336C20.7335 33.4243 20.3648 33.0057 20.1541 32.5348C19.9435 32.0115 19.9435 31.4883 20.1541 30.965L26.0534 17.3081C26.3695 16.5756 27.1069 16.0523 27.9496 16.0523C28.213 16.0523 28.4764 16.1046 28.7397 16.2093C29.2665 16.4186 29.6352 16.8372 29.8459 17.3081C30.0565 17.8837 30.0565 18.407 29.8459 18.9302ZM41.4864 26.2557L35.5871 33.1103C34.8497 33.9475 33.5329 34.0522 32.6902 33.3196C31.8474 32.5871 31.7421 31.279 32.4795 30.4418L37.22 24.9476L32.4268 19.4535C32.0581 19.0349 31.9001 18.5116 31.9527 17.9884C32.0054 17.4651 32.2688 16.9419 32.6375 16.5756C33.0062 16.2616 33.4802 16.1046 33.9543 16.1046C34.5337 16.1046 35.1131 16.3663 35.5345 16.8372L41.4864 23.6918C42.1712 24.372 42.1712 25.5232 41.4864 26.2557Z" fill="#707175"/>
</svg>
