<svg xmlns="http://www.w3.org/2000/svg" width="20" height="23" viewBox="0 0 20 23" fill="none">
<path fill-rule="evenodd" clip-rule="evenodd" d="M9.88005 10.3475C9.97468 10.3475 10.0672 10.3756 10.1458 10.4282C10.2245 10.4807 10.2858 10.5555 10.3221 10.6429C10.3583 10.7303 10.3677 10.8265 10.3493 10.9193C10.3308 11.0121 10.2853 11.0974 10.2183 11.1643C10.1514 11.2312 10.0662 11.2767 9.97339 11.2952C9.88058 11.3137 9.78439 11.3042 9.69697 11.268C9.60955 11.2318 9.53483 11.1704 9.48226 11.0918C9.42969 11.0131 9.40163 10.9206 9.40163 10.826C9.40189 10.6992 9.45238 10.5776 9.54204 10.488C9.63171 10.3983 9.75325 10.3478 9.88005 10.3475ZM9.53535 11.9402V12.7345C9.53775 12.8243 9.5751 12.9096 9.63946 12.9723C9.70382 13.035 9.7901 13.07 9.87993 13.07C9.96976 13.07 10.056 13.035 10.1204 12.9723C10.1848 12.9096 10.2221 12.8243 10.2245 12.7345V11.9402C10.491 11.8578 10.7191 11.6825 10.8673 11.4462C11.0156 11.2099 11.0741 10.9283 11.0324 10.6525C10.9908 10.3767 10.8515 10.125 10.64 9.94305C10.4286 9.76114 10.1589 9.66111 9.87993 9.66111C9.60098 9.66111 9.33129 9.76114 9.11981 9.94305C8.90834 10.125 8.76911 10.3767 8.72741 10.6525C8.68571 10.9283 8.74431 11.2099 8.89256 11.4462C9.0408 11.6825 9.26888 11.8578 9.53535 11.9402ZM6.43821 8.79298V13.8138C6.43821 13.849 6.44513 13.8838 6.45859 13.9162C6.47204 13.9487 6.49177 13.9782 6.51663 14.003C6.54149 14.0279 6.571 14.0476 6.60348 14.061C6.63595 14.0744 6.67075 14.0813 6.7059 14.0813H13.0545C13.0896 14.0813 13.1244 14.0744 13.1569 14.061C13.1894 14.0476 13.2189 14.0279 13.2437 14.003C13.2686 13.9782 13.2883 13.9487 13.3018 13.9162C13.3152 13.8838 13.3221 13.849 13.3221 13.8138V8.79298C13.3221 8.75789 13.3151 8.72316 13.3016 8.69077C13.2881 8.65837 13.2684 8.62895 13.2435 8.60419C13.2187 8.57942 13.1892 8.55979 13.1567 8.54642C13.1243 8.53306 13.0895 8.52621 13.0545 8.52627H6.7059C6.67081 8.52621 6.63605 8.53306 6.60361 8.54642C6.57116 8.55979 6.54167 8.57942 6.51681 8.60419C6.49196 8.62895 6.47222 8.65837 6.45873 8.69077C6.44524 8.72316 6.43827 8.75789 6.43821 8.79298ZM7.90183 6.77369C7.89892 6.51204 7.94794 6.25241 8.04606 6.00984C8.14418 5.76726 8.28944 5.54656 8.47343 5.36051C8.65743 5.17445 8.8765 5.02675 9.11797 4.92594C9.35944 4.82514 9.61851 4.77323 9.88017 4.77323C10.1418 4.77323 10.4009 4.82514 10.6424 4.92594C10.8838 5.02675 11.1029 5.17445 11.2869 5.36051C11.4709 5.54656 11.6162 5.76726 11.7143 6.00984C11.8124 6.25241 11.8614 6.51204 11.8585 6.77369V7.8381H7.90183V6.77369ZM6.7059 14.7678H13.0545C13.3077 14.7676 13.5505 14.667 13.7295 14.4879C13.9086 14.3089 14.0092 14.0661 14.0093 13.8129V8.79298C14.0091 8.53979 13.9085 8.29703 13.7294 8.11799C13.5504 7.93896 13.3076 7.83829 13.0545 7.8381H12.5447V6.77369C12.5447 6.06674 12.2639 5.38875 11.764 4.88887C11.2641 4.38898 10.5861 4.10815 9.8792 4.10815C9.17225 4.10815 8.49426 4.38898 7.99437 4.88887C7.49449 5.38875 7.21365 6.06674 7.21365 6.77369V7.8381H6.7059C6.4527 7.83829 6.20994 7.93896 6.03091 8.11799C5.85187 8.29703 5.7512 8.53979 5.75101 8.79298V13.8138C5.75114 14.0671 5.85179 14.3099 6.03083 14.4889C6.20988 14.668 6.45268 14.7686 6.7059 14.7687V14.7678ZM9.73215 22.1018C9.7785 22.1235 9.82909 22.1348 9.8803 22.1348C9.93108 22.1352 9.98127 22.1239 10.027 22.1018C13.617 20.4032 16.2015 18.0069 17.7098 14.9795C19.2138 11.9605 19.6819 8.24049 19.1033 3.92345C19.0946 3.86291 19.0702 3.8057 19.0325 3.75753C18.9948 3.70936 18.9451 3.67192 18.8884 3.64892L10.006 0.158667C9.92521 0.126798 9.83538 0.126798 9.75464 0.158667L0.873901 3.65014C0.81704 3.67286 0.767207 3.71023 0.729464 3.75845C0.691722 3.80667 0.667416 3.86402 0.659015 3.92468C0.0793845 8.24171 0.545582 11.9618 2.05247 14.9807C3.55986 18.0082 6.14436 20.4044 9.73337 22.103L9.73215 22.1018Z" fill="white"/>
</svg>