<svg xmlns="http://www.w3.org/2000/svg" width="30" height="31" viewBox="0 0 30 31" fill="none">
  <g clip-path="url(#clip0_1_48)">
    <path d="M27.3848 2.48226C27.0277 2.10678 26.5598 1.91928 26.092 1.91928C25.6239 1.91928 25.1561 2.10678 24.7991 2.48226L2.85489 25.5232C2.14037 26.2732 2.14037 27.4882 2.85489 28.2382C3.21203 28.6132 3.67991 28.8007 4.14774 28.8007C4.6158 28.8007 5.08346 28.6132 5.4406 28.2382L27.3848 5.19726C28.0992 4.44726 28.0992 3.23178 27.3848 2.48226Z" fill="#7C7C7C"/>
    <path d="M4.67982 20.892L9.66228 15.6603C9.65879 15.559 9.63382 15.4634 9.63382 15.3603C9.63382 12.1878 12.0927 9.60356 15.1144 9.59978C15.116 9.59792 15.1198 9.59792 15.1234 9.59978C15.1234 9.59978 15.1234 9.59978 15.1251 9.59978C15.2215 9.59978 15.3108 9.62414 15.4053 9.62978L18.6878 6.1835C17.5859 5.936 16.4269 5.75972 15.1286 5.75972C15.1286 5.75972 15.1286 5.75972 15.1269 5.75972C15.1251 5.75972 15.1234 5.75972 15.1197 5.75972C15.1197 5.75972 15.116 5.75972 15.1126 5.75972C15.1108 5.75972 15.1108 5.75972 15.1108 5.75972C8.01576 5.76356 4.07268 9.81356 0.86885 14.1898C0.36525 14.8803 0.36525 15.8403 0.86885 16.5303C2.00656 18.0846 3.24765 19.587 4.67982 20.892Z" fill="#7C7C7C"/>
    <path d="M29.3708 14.1898C28.233 12.6359 26.992 11.1335 25.5597 9.8285L20.5774 15.0602C20.5808 15.1615 20.6058 15.2571 20.6058 15.3602C20.6058 18.5327 18.1469 21.1165 15.1253 21.1207C15.1236 21.1207 15.1236 21.1207 15.1236 21.1207C15.1236 21.1207 15.1217 21.1207 15.1199 21.1207C15.1181 21.1207 15.1162 21.1207 15.1162 21.1207C15.1162 21.1207 15.1162 21.1207 15.1146 21.1207C15.0181 21.1207 14.9289 21.0958 14.8341 21.0907L11.5519 24.537C12.6538 24.7845 13.8128 24.9608 15.111 24.9608C15.111 24.9608 15.111 24.9608 15.1128 24.9608H15.1146C15.1162 24.9608 15.1199 24.9608 15.1199 24.9608C15.1199 24.9608 15.1217 24.9608 15.1237 24.9608C15.1237 24.9608 15.1237 24.9608 15.1253 24.9608H15.1271C15.1289 24.9608 15.1289 24.9608 15.1289 24.9608C15.1342 24.9608 15.1414 24.9608 15.1485 24.9608C15.1557 24.9589 15.1628 24.9589 15.1735 24.9608C22.2383 24.9401 26.1724 20.8976 29.3709 16.5303C29.8743 15.8403 29.8743 14.8803 29.3708 14.1898Z" fill="#7C7C7C"/>
  </g>
  <defs>
    <clipPath id="clip0_1_48">
      <rect width="29.2571" height="30.72" fill="white" transform="translate(0.491211)"/>
    </clipPath>
  </defs>
</svg>