<svg width="30" height="30" viewBox="0 0 30 30" fill="none" xmlns="http://www.w3.org/2000/svg">
<path d="M27.3327 14.3754C26.5327 12.9879 22.1327 6.02545 14.6577 6.25045C7.7452 6.42545 3.7452 12.5004 2.6577 14.3754C2.54799 14.5655 2.49023 14.781 2.49023 15.0004C2.49023 15.2199 2.54799 15.4354 2.6577 15.6254C3.4452 16.9879 7.6577 23.7504 15.0202 23.7504H15.3327C22.2452 23.5754 26.2577 17.5004 27.3327 15.6254C27.4424 15.4354 27.5002 15.2199 27.5002 15.0004C27.5002 14.781 27.4424 14.5655 27.3327 14.3754ZM15.2702 21.2504C9.8827 21.3754 6.3702 16.7629 5.2702 15.0004C6.5202 12.9879 9.7827 8.87545 14.7827 8.75045C20.1452 8.61295 23.6702 13.2379 24.7827 15.0004C23.4952 17.0129 20.2702 21.1254 15.2702 21.2504Z" fill="#7C7C7C"/>
<path d="M15.0039 10.626C14.1386 10.626 13.2928 10.8826 12.5733 11.3633C11.8538 11.844 11.2931 12.5273 10.9619 13.3267C10.6308 14.1262 10.5442 15.0058 10.713 15.8545C10.8818 16.7032 11.2985 17.4827 11.9103 18.0946C12.5222 18.7064 13.3017 19.1231 14.1504 19.2919C14.9991 19.4607 15.8787 19.3741 16.6781 19.0429C17.4776 18.7118 18.1609 18.1511 18.6416 17.4316C19.1223 16.7121 19.3789 15.8663 19.3789 15.001C19.3789 13.8407 18.918 12.7279 18.0975 11.9074C17.277 11.0869 16.1642 10.626 15.0039 10.626ZM15.0039 16.876C14.6331 16.876 14.2706 16.766 13.9622 16.56C13.6539 16.354 13.4135 16.0611 13.2716 15.7185C13.1297 15.3759 13.0926 14.9989 13.1649 14.6352C13.2373 14.2715 13.4159 13.9374 13.6781 13.6752C13.9403 13.4129 14.2744 13.2344 14.6381 13.162C15.0018 13.0897 15.3788 13.1268 15.7214 13.2687C16.0641 13.4106 16.3569 13.6509 16.5629 13.9593C16.7689 14.2676 16.8789 14.6301 16.8789 15.001C16.8789 15.4983 16.6814 15.9752 16.3297 16.3268C15.9781 16.6784 15.5012 16.876 15.0039 16.876Z" fill="#7C7C7C"/>
</svg>
