<svg width="34" height="24" viewBox="0 0 34 24" fill="none" xmlns="http://www.w3.org/2000/svg">
<g id="eye">
<path id="Vector" d="M17 0.75C9.5 0.75 3.095 5.415 0.5 12C3.095 18.585 9.5 23.25 17 23.25C24.5075 23.25 30.905 18.585 33.5 12C30.905 5.415 24.5075 0.75 17 0.75ZM17 19.5C12.86 19.5 9.5 16.14 9.5 12C9.5 7.86 12.86 4.5 17 4.5C21.14 4.5 24.5 7.86 24.5 12C24.5 16.14 21.14 19.5 17 19.5ZM17 7.5C14.5175 7.5 12.5 9.5175 12.5 12C12.5 14.4825 14.5175 16.5 17 16.5C19.4825 16.5 21.5 14.4825 21.5 12C21.5 9.5175 19.4825 7.5 17 7.5Z" fill="#7C7C7C"/>
</g>
</svg>
