<svg width="54" height="49" viewBox="0 0 54 49" fill="none" xmlns="http://www.w3.org/2000/svg">
<path d="M53.6172 24.7188C53.6172 27.1146 52.5365 28.3125 50.375 28.3125H8.85156V45.2266C8.85156 47.2839 7.83594 48.3125 5.80469 48.3125C3.64323 48.3125 2.39323 48.2214 2.05469 48.0391C0.804688 47.6484 0.179688 46.7109 0.179688 45.2266V11.8281C0.179688 8.02604 2.6276 5.10938 7.52344 3.07812C11.2734 1.51562 15.388 0.734375 19.8672 0.734375H26.3516C28.4089 0.734375 29.4375 2.0625 29.4375 4.71875C29.4375 6.77604 28.4089 7.80469 26.3516 7.80469C14.6849 7.80469 8.85156 9.25 8.85156 12.1406V21.1641H50.375C52.5365 21.1641 53.6172 22.349 53.6172 24.7188Z" fill="url(#paint0_linear_10064_844)"/>
<defs>
<linearGradient id="paint0_linear_10064_844" x1="-1.5" y1="-18" x2="55.9212" y2="-17.7111" gradientUnits="userSpaceOnUse">
<stop stop-color="#6BA5CF"/>
<stop offset="1" stop-color="#389CE3"/>
</linearGradient>
</defs>
</svg>
