<svg xmlns="http://www.w3.org/2000/svg" width="49" height="48" viewBox="0 0 49 48" fill="none">
  <g clip-path="url(#clip0_109_475)">
    <path d="M24.7368 47.5712C38.0673 47.5712 48.8739 37.0921 48.8739 24.1655C48.8739 11.2389 38.0673 0.759766 24.7368 0.759766C11.4062 0.759766 0.599609 11.2389 0.599609 24.1655C0.599609 37.0921 11.4062 47.5712 24.7368 47.5712Z" fill="#5E9DFC"/>
    <path d="M30.8051 25.0816H26.4981V40.3823H19.9727V25.0816H16.8691V19.7044H19.9727V16.2247C19.9727 13.7363 21.1916 9.83984 26.5562 9.83984L31.3898 9.85945V15.079H27.8827C27.3074 15.079 26.4985 15.3577 26.4985 16.5447V19.7094H31.3752L30.8051 25.0816Z" fill="#313131"/>
  </g>
  <defs>
    <clipPath id="clip0_109_475">
      <rect width="48.2743" height="46.8114" fill="white" transform="translate(0.599609 0.759766)"/>
    </clipPath>
  </defs>
</svg>