<svg xmlns="http://www.w3.org/2000/svg" width="49" height="48" viewBox="0 0 49 48" fill="none">
  <g clip-path="url(#clip0_1_30)">
    <path d="M24.7369 47.5714C38.0674 47.5714 48.874 37.0923 48.874 24.1657C48.874 11.2391 38.0674 0.76001 24.7369 0.76001C11.4063 0.76001 0.599731 11.2391 0.599731 24.1657C0.599731 37.0923 11.4063 47.5714 24.7369 47.5714Z" fill="#3B5998"/>
    <path d="M30.805 25.0819H26.498V40.3826H19.9725V25.0819H16.869V19.7047H19.9725V16.225C19.9725 13.7367 21.1915 9.84015 26.5561 9.84015L31.3897 9.85976V15.0793H27.8826C27.3073 15.0793 26.4984 15.358 26.4984 16.545V19.7097H31.3751L30.805 25.0819Z" fill="white"/>
  </g>
  <defs>
    <clipPath id="clip0_1_30">
      <rect width="48.2743" height="46.8114" fill="white" transform="translate(0.600098 0.76001)"/>
    </clipPath>
  </defs>
</svg>