<svg xmlns="http://www.w3.org/2000/svg" width="18" height="19" viewBox="0 0 18 19" fill="none">
<path d="M9.05859 7.70496C13.058 7.70496 17.3086 6.39058 17.3086 3.95496C17.3086 1.51933 13.058 0.204956 9.05859 0.204956C5.05922 0.204956 0.808594 1.51933 0.808594 3.95496C0.808594 6.39058 5.05922 7.70496 9.05859 7.70496ZM9.05859 1.70496C13.1791 1.70496 15.8086 3.03771 15.8086 3.95496C15.8086 4.87221 13.1791 6.20496 9.05859 6.20496C4.93809 6.20496 2.30859 4.87221 2.30859 3.95496C2.30859 3.03771 4.93809 1.70496 9.05859 1.70496Z" fill="white"/>
<path d="M16.5586 6.20502C16.1446 6.20502 15.8086 6.54102 15.8086 6.95502C15.8086 7.87227 13.1791 9.20502 9.05859 9.20502C4.93809 9.20502 2.30859 7.87227 2.30859 6.95502C2.30859 6.54102 1.97259 6.20502 1.55859 6.20502C1.14459 6.20502 0.808594 6.54102 0.808594 6.95502V9.20502C0.808594 11.6406 5.05922 12.955 9.05859 12.955C13.058 12.955 17.3086 11.6406 17.3086 9.20502V6.95502C17.3086 6.54102 16.9726 6.20502 16.5586 6.20502ZM15.8086 9.20502C15.8086 10.1223 13.1791 11.455 9.05859 11.455C4.93809 11.455 2.30859 10.1223 2.30859 9.20502V9.17727C3.90009 10.1796 6.52959 10.705 9.05859 10.705C11.5876 10.705 14.2171 10.1796 15.8086 9.17727V9.20502Z" fill="white"/>
<path d="M16.5586 11.455C16.1446 11.455 15.8086 11.791 15.8086 12.205C15.8086 13.1222 13.1791 14.455 9.05859 14.455C4.93809 14.455 2.30859 13.1222 2.30859 12.205C2.30859 11.791 1.97259 11.455 1.55859 11.455C1.14459 11.455 0.808594 11.791 0.808594 12.205V14.455C0.808594 16.8906 5.05922 18.205 9.05859 18.205C13.058 18.205 17.3086 16.8906 17.3086 14.455V12.205C17.3086 11.791 16.9726 11.455 16.5586 11.455ZM15.8086 14.455C15.8086 15.3722 13.1791 16.705 9.05859 16.705C4.93809 16.705 2.30859 15.3722 2.30859 14.455V14.4272C3.90009 15.4296 6.52959 15.955 9.05859 15.955C11.5876 15.955 14.2171 15.4296 15.8086 14.4272V14.455Z" fill="white"/>
<ellipse cx="9.1875" cy="3.125" rx="6.5625" ry="1.875" fill="white"/>
</svg>