<svg xmlns="http://www.w3.org/2000/svg" width="21" height="21" viewBox="0 0 21 21" fill="none">
<path d="M20.8457 10.095C20.8457 15.6198 16.3707 20.095 10.8457 20.095C5.32069 20.095 0.845703 15.62 0.845703 10.095C0.845703 4.56996 5.32069 0.0949707 10.8457 0.0949707C16.3707 0.0949707 20.8457 4.56996 20.8457 10.095ZM5.8457 6.76164C5.8457 7.67833 6.59567 8.4283 7.51237 8.4283C8.42906 8.4283 9.17904 7.67833 9.17904 6.76164C9.17904 5.84494 8.42906 5.09497 7.51237 5.09497C6.59567 5.09497 5.8457 5.84494 5.8457 6.76164ZM15.8457 13.4283C15.8457 12.5116 15.0957 11.7616 14.179 11.7616C13.2623 11.7616 12.5124 12.5116 12.5124 13.4283C12.5124 14.345 13.2623 15.095 14.179 15.095C15.0957 15.095 15.8457 14.345 15.8457 13.4283ZM15.879 5.06137C15.554 4.73637 15.029 4.73637 14.704 5.06137L5.81232 13.9531C5.48731 14.2781 5.48731 14.8031 5.81232 15.1281C5.97898 15.2948 6.18731 15.3698 6.40399 15.3698C6.62068 15.3698 6.829 15.2864 6.99568 15.1281L15.8874 6.23636C16.2124 5.91135 16.2124 5.38633 15.8874 5.06137H15.879Z" fill="white"/>
</svg>