<svg xmlns="http://www.w3.org/2000/svg" width="21" height="22" viewBox="0 0 21 22" fill="none">
<path d="M2.71804 15.7857C2.71804 14.8553 2.71452 13.925 2.72117 12.9951C2.72117 12.816 2.6742 12.7388 2.48318 12.7353C1.94183 12.7243 1.46115 12.5472 1.09047 12.1385C0.39176 11.3672 0.425032 10.2845 1.16875 9.5168C1.53083 9.14334 1.90269 8.77968 2.27024 8.4117C4.54551 6.13515 6.82038 3.85834 9.09486 1.58127C9.19889 1.47404 9.30851 1.3724 9.42327 1.27678C9.71881 1.03734 10.0496 0.92409 10.441 0.892347C11.137 0.833566 11.6454 1.1212 12.1155 1.59459C14.699 4.19614 17.2892 6.79155 19.8863 9.38082C20.0291 9.52385 20.1732 9.66649 20.282 9.83657C20.6648 10.4358 20.6734 11.08 20.3908 11.6984C20.1035 12.3281 19.5688 12.6604 18.867 12.7239C18.4458 12.7631 18.4701 12.6757 18.4697 13.1452C18.4697 14.9081 18.4697 16.6716 18.4697 18.4355C18.4697 18.8133 18.4419 19.1876 18.2943 19.545C18.1336 19.9353 17.8619 20.2696 17.5128 20.5065C17.1638 20.7434 16.7529 20.8724 16.3313 20.8773C15.2787 20.8813 14.2261 20.8773 13.1736 20.8773C12.7324 20.8773 12.4976 20.6453 12.4972 20.2053C12.4956 18.683 12.4956 17.1606 12.4972 15.6383C12.4972 15.201 12.3117 14.8761 11.9053 14.6912C11.7852 14.6407 11.6554 14.6173 11.5253 14.6226C10.908 14.6226 10.2907 14.6187 9.6734 14.6226C9.09017 14.6292 8.69599 15.029 8.69521 15.6168C8.69286 17.1258 8.69286 18.6349 8.69521 20.1441C8.69521 20.6657 8.48188 20.8801 7.96402 20.8801C6.95686 20.8801 5.94931 20.864 4.94255 20.8844C3.71698 20.9071 2.75679 19.8925 2.73957 18.8302C2.73957 18.7588 2.72039 18.6879 2.72039 18.6166C2.71882 17.6735 2.71882 16.7302 2.72039 15.7868L2.71804 15.7857Z" fill="white"/>
<path d="M11.0829 2.29605C13.7708 4.98695 16.4586 7.67784 19.1465 10.3687C19.3809 10.6039 19.442 10.8672 19.3218 11.1313C19.1938 11.4143 18.959 11.5232 18.6603 11.5232C18.4004 11.5213 18.1405 11.5197 17.8806 11.5232C17.4899 11.5291 17.248 11.7693 17.248 12.1612C17.246 13.2541 17.248 14.3471 17.248 15.4396C17.2498 16.4933 17.25 17.5453 17.2484 18.5958C17.248 19.2749 16.8495 19.6751 16.1665 19.6751C15.4259 19.6774 14.6849 19.6704 13.9443 19.6798C13.7619 19.6817 13.7118 19.621 13.7118 19.4446C13.7173 18.2024 13.7142 16.9597 13.7142 15.7175C13.7138 15.1261 13.5631 14.5865 13.1599 14.1359C12.7442 13.6707 12.2224 13.4156 11.6024 13.3991C10.9334 13.3838 10.2641 13.3886 9.59472 13.3991C8.51359 13.416 7.5992 14.2773 7.49586 15.3585C7.47786 15.547 7.4712 15.7343 7.4712 15.9228C7.4712 17.1004 7.46885 18.2792 7.47433 19.4548C7.47512 19.6214 7.42854 19.6833 7.25396 19.6813C6.50006 19.6731 5.74655 19.6809 4.99265 19.6766C4.3374 19.6727 3.93853 19.2683 3.93853 18.6107C3.93853 16.4964 3.93853 14.3824 3.93853 12.2686C3.93814 11.7325 3.72872 11.5201 3.19872 11.5201C2.96699 11.5201 2.73213 11.5248 2.49727 11.5201C2.20801 11.5154 1.97628 11.4013 1.85885 11.1235C1.73633 10.8386 1.8154 10.5917 2.02795 10.3789M2.71804 15.7857C2.71804 14.8553 2.71452 13.925 2.72117 12.9951C2.72117 12.816 2.6742 12.7388 2.48318 12.7353C1.94183 12.7243 1.46115 12.5472 1.09047 12.1385C0.39176 11.3672 0.425032 10.2845 1.16875 9.5168C1.53083 9.14334 1.90269 8.77968 2.27024 8.4117C4.54551 6.13515 6.82038 3.85834 9.09486 1.58127C9.19889 1.47404 9.30851 1.3724 9.42327 1.27678C9.71881 1.03734 10.0496 0.92409 10.441 0.892347C11.137 0.833566 11.6454 1.1212 12.1155 1.59459C14.699 4.19614 17.2892 6.79155 19.8863 9.38082C20.0291 9.52385 20.1732 9.66649 20.282 9.83657C20.6648 10.4358 20.6734 11.08 20.3908 11.6984C20.1035 12.3281 19.5688 12.6604 18.867 12.7239C18.4458 12.7631 18.4701 12.6757 18.4697 13.1452C18.4697 14.9081 18.4697 16.6716 18.4697 18.4355C18.4697 18.8133 18.4419 19.1876 18.2943 19.545C18.1336 19.9353 17.8619 20.2696 17.5128 20.5065C17.1638 20.7434 16.7529 20.8724 16.3313 20.8773C15.2787 20.8813 14.2261 20.8773 13.1736 20.8773C12.7324 20.8773 12.4976 20.6453 12.4972 20.2053C12.4956 18.683 12.4956 17.1606 12.4972 15.6383C12.4972 15.201 12.3117 14.8761 11.9053 14.6912C11.7852 14.6407 11.6554 14.6173 11.5253 14.6226C10.908 14.6226 10.2907 14.6187 9.6734 14.6226C9.09017 14.6292 8.69599 15.029 8.69521 15.6168C8.69286 17.1258 8.69286 18.6349 8.69521 20.1441C8.69521 20.6657 8.48188 20.8801 7.96402 20.8801C6.95686 20.8801 5.94931 20.864 4.94255 20.8844C3.71698 20.9071 2.75679 19.8925 2.73957 18.8302C2.73957 18.7588 2.72039 18.6879 2.72039 18.6166C2.71882 17.6735 2.71882 16.7302 2.72039 15.7868L2.71804 15.7857Z" stroke="white" stroke-width="0.842105"/>
<path d="M7.89776 7.01584C7.72683 6.84492 7.72683 6.58895 7.89776 6.41802C8.06868 6.2471 8.32465 6.2471 8.49558 6.41802L9.11423 7.03667C9.41271 6.82323 9.77626 6.67399 10.1598 6.60978V5.75599C10.1598 5.52086 10.3515 5.3291 10.5867 5.3291C10.8218 5.3291 11.0136 5.52087 11.0136 5.75599V6.60978C11.3979 6.67398 11.7606 6.82323 12.0591 7.03667L12.6778 6.41802C12.8487 6.2471 13.1047 6.2471 13.2756 6.41802C13.4465 6.58894 13.4465 6.84491 13.2756 7.01584L12.6569 7.63449C12.8704 7.93298 13.0196 8.29652 13.0838 8.68004H13.9376C14.1727 8.68004 14.3645 8.87181 14.3645 9.10693C14.3645 9.34207 14.1727 9.53383 13.9376 9.53383H13.0838C13.0196 9.9182 12.8704 10.2809 12.6569 10.5794L13.2756 11.198C13.4465 11.3689 13.4465 11.6249 13.2756 11.7958C13.1905 11.8809 13.0838 11.9242 12.9771 11.9242C12.8704 11.9242 12.7637 11.8817 12.6786 11.7958L12.06 11.1772C11.7615 11.3906 11.3979 11.5399 11.0144 11.6041V12.4579C11.0144 12.693 10.8226 12.8848 10.5875 12.8848C10.3524 12.8848 10.1606 12.693 10.1606 12.4579V11.6041C9.77626 11.5399 9.41357 11.3906 9.11509 11.1772L8.49643 11.7958C8.41139 11.8809 8.30466 11.9242 8.19795 11.9242C8.09123 11.9242 7.9845 11.8817 7.89946 11.7958C7.72854 11.6249 7.72854 11.369 7.89946 11.198L8.51812 10.5794C8.30467 10.2809 8.15543 9.91735 8.09123 9.53383H7.23744C7.00231 9.53383 6.81055 9.34206 6.81055 9.10693C6.81055 8.8718 7.00232 8.68004 7.23744 8.68004H8.09123C8.15543 8.29567 8.30467 7.93298 8.51812 7.63449L7.89776 7.01584ZM8.88004 9.10783C8.88004 8.16901 9.64879 7.40026 10.5876 7.40026C11.5264 7.40026 12.2952 8.16901 12.2952 9.10783C12.2952 10.0467 11.5264 10.8154 10.5876 10.8154C9.64879 10.8154 8.88004 10.0467 8.88004 9.10783Z" fill="#4A8DBD"/>
<path d="M8.88086 9.10699C8.88086 8.16816 9.64961 7.39941 10.5884 7.39941C11.5273 7.39941 12.296 8.16816 12.296 9.10699C12.296 10.0458 11.5273 10.8146 10.5884 10.8146C9.64961 10.8146 8.88086 10.0458 8.88086 9.10699Z" fill="white"/>
</svg>