<svg width="50" height="50" viewBox="0 0 50 50" fill="none" xmlns="http://www.w3.org/2000/svg">
<g clip-path="url(#clip0_9900_972)">
<path d="M50.1645 25.0139C50.1645 11.2069 38.9718 0.0141585 25.1648 0.0141585C11.3578 0.0141585 0.165009 11.2069 0.165009 25.0139C0.165009 38.8209 11.3578 50.0137 25.1648 50.0137C38.9718 50.0137 50.1645 38.8209 50.1645 25.0139Z" fill="white"/>
<path d="M38.1816 15.4047L38.6181 14.6125C38.8005 14.2816 38.8435 13.8998 38.738 13.5363C38.6324 13.1741 38.3927 12.8731 38.063 12.6906L37.1288 12.176C36.7979 11.9935 36.4161 11.9518 36.0526 12.0561C35.6904 12.1616 35.3894 12.4014 35.2069 12.7323L34.7704 13.5245L38.1816 15.4047Z" fill="#707175"/>
<path d="M33.3738 26.3001L30.936 27.3998C30.7119 27.5014 30.4709 27.5536 30.222 27.5536C30.222 27.5536 30.1581 27.5523 30.1347 27.5509C29.8715 27.5366 29.6122 27.4637 29.3829 27.3373C28.906 27.0741 28.5764 26.5972 28.5008 26.0591L28.2832 24.5099H15.1692C14.7861 24.5099 14.4747 24.1998 14.4747 23.8154C14.4747 23.4311 14.7861 23.121 15.1692 23.121H28.1141C28.1219 22.8499 28.1923 22.5854 28.3265 22.3418L29.047 21.0362L15.1695 21.0349C14.7864 21.0349 14.475 20.7248 14.475 20.3405C14.475 19.9561 14.7864 19.646 15.1695 19.646H29.7625C29.7781 19.646 29.7912 19.6538 29.8068 19.6551L32.0818 15.5301C31.5945 15.2708 31.0472 15.1079 30.4583 15.1079H14.475C12.5596 15.1079 11 16.6662 11 18.5829V29.3167C11 31.232 12.5583 32.7917 14.475 32.7917H18.6978C18.8828 32.7917 19.0548 32.892 19.1447 33.0549L20.806 36.0269C21.146 36.6367 21.7675 37.0002 22.4659 37.0002C23.1656 37.0002 23.7845 36.6367 24.1259 36.0269L25.7872 33.0549C25.8771 32.8933 26.0491 32.793 26.2341 32.793H30.4569C32.3722 32.793 33.9319 31.2346 33.9319 29.318V25.886C33.7742 26.058 33.5866 26.204 33.3729 26.3004L33.3738 26.3001ZM24.2037 27.9848H15.1704C14.7873 27.9848 14.4759 27.6747 14.4759 27.2904C14.4759 26.906 14.7873 26.5959 15.1704 26.5959H24.2037C24.5868 26.5959 24.8982 26.906 24.8982 27.2904C24.8982 27.6747 24.5868 27.9848 24.2037 27.9848Z" fill="#707175"/>
<path d="M34.1012 14.7427L29.5448 23.0072C29.5084 23.0736 29.4953 23.1492 29.5045 23.2235L29.8758 25.8646C29.8914 25.9727 29.9566 26.0678 30.0517 26.1199C30.0986 26.146 30.1494 26.1603 30.2015 26.1629C30.2563 26.1655 30.311 26.1551 30.3618 26.133L32.7931 25.0372C32.8622 25.0072 32.9182 24.9538 32.9547 24.8886L37.511 16.6241L34.0998 14.744L34.1012 14.7427Z" fill="#707175"/>
</g>
<defs>
<clipPath id="clip0_9900_972">
<rect width="50" height="50" fill="white"/>
</clipPath>
</defs>
</svg>
