<svg xmlns="http://www.w3.org/2000/svg" width="175" height="175" viewBox="0 0 175 175" fill="none">
<path d="M149.5 87C149.5 121.242 121.742 149 87.5 149C53.2583 149 25.5 121.242 25.5 87C25.5 52.7583 53.2583 25 87.5 25C121.742 25 149.5 52.7583 149.5 87ZM33.509 87C33.509 116.818 57.6816 140.991 87.5 140.991C117.318 140.991 141.491 116.818 141.491 87C141.491 57.1816 117.318 33.009 87.5 33.009C57.6816 33.009 33.509 57.1816 33.509 87Z" fill="#D8D8D8"/>
<path d="M116.514 137.584C117.619 139.491 116.974 141.945 114.999 142.925C104.71 148.03 93.1748 150.182 81.6868 149.098C68.8712 147.889 56.752 142.712 47.0173 134.29C37.2826 125.867 30.4173 114.618 27.3778 102.11C24.3382 89.6012 25.2757 76.4561 30.0598 64.5056C34.8438 52.555 43.2361 42.3942 54.0675 35.4385C64.899 28.4829 77.6302 25.0787 90.4877 25.7003C103.345 26.3219 115.689 30.9383 125.799 38.9064C134.861 46.0491 141.725 55.5662 145.649 66.3616C146.402 68.433 145.175 70.6547 143.06 71.2726C140.944 71.8905 138.742 70.6696 137.97 68.6055C134.524 59.4018 128.616 51.2895 120.858 45.175C112.052 38.2348 101.301 34.2139 90.1023 33.6725C78.9034 33.1311 67.8145 36.0961 58.3803 42.1545C48.9461 48.2129 41.6364 57.0629 37.4696 67.4718C33.3027 77.8808 32.4861 89.3301 35.1335 100.225C37.781 111.12 43.7607 120.918 52.2396 128.254C60.7185 135.59 71.2743 140.099 82.4367 141.152C92.2711 142.08 102.145 140.285 110.99 136.002C112.973 135.041 115.409 135.677 116.514 137.584Z" fill="url(#paint0_linear_10064_1272)"/>
<defs>
<linearGradient id="paint0_linear_10064_1272" x1="87.5" y1="0" x2="174.99" y2="88.7976" gradientUnits="userSpaceOnUse">
<stop stop-color="#6BA5CF"/>
<stop offset="1" stop-color="#389CE3"/>
</linearGradient>
</defs>
</svg>