<svg xmlns="http://www.w3.org/2000/svg" width="21" height="21" viewBox="0 0 21 21" fill="none">
<g clip-path="url(#clip0_2485_5869)">
<path d="M6.90376 1H1.3125C0.768725 1 0.328125 1.4406 0.328125 1.98438V7.5625C0.328125 8.10628 0.768725 8.54688 1.3125 8.54688C1.85628 8.54688 2.29688 8.10628 2.29688 7.5625V2.96875H6.90376C7.44754 2.96875 7.88814 2.52815 7.88814 1.98438C7.88814 1.4406 7.44754 1 6.90376 1ZM19.6875 13.7969C19.1437 13.7969 18.7031 14.2375 18.7031 14.7812V19.375H14.1289C13.5851 19.375 13.1446 19.8156 13.1446 20.3594C13.1446 20.9032 13.5851 21.3438 14.1289 21.3438H19.6875C20.2313 21.3438 20.6719 20.9032 20.6719 20.3594V14.7812C20.6719 14.2375 20.2313 13.7969 19.6875 13.7969ZM6.90376 19.375H2.29688V14.7812C2.29688 14.2375 1.85628 13.7969 1.3125 13.7969C0.768725 13.7969 0.328125 14.2375 0.328125 14.7812V20.3594C0.328125 20.9032 0.768725 21.3438 1.3125 21.3438H6.90376C7.44754 21.3438 7.88814 20.9032 7.88814 20.3594C7.88814 19.8156 7.44754 19.375 6.90376 19.375ZM19.6875 1H14.1289C13.5851 1 13.1446 1.4406 13.1446 1.98438C13.1446 2.52815 13.5851 2.96875 14.1289 2.96875H18.7031V7.5625C18.7031 8.10628 19.1437 8.54688 19.6875 8.54688C20.2313 8.54688 20.6719 8.10628 20.6719 7.5625V1.98438C20.6719 1.4406 20.2313 1 19.6875 1Z" fill="#435059"/>
</g>
<defs>
<clipPath id="clip0_2485_5869">
<rect width="21" height="21" fill="white"/>
</clipPath>
</defs>
</svg>