<svg width="45" height="45" viewBox="0 0 45 45" fill="none" xmlns="http://www.w3.org/2000/svg">
<g id="search 1" clip-path="url(#clip0_109_468)">
<path id="Vector" d="M9.96037 26.7434L8.43277 32.4461L2.84943 32.5642C1.18083 29.4693 0.234375 25.9284 0.234375 22.1655C0.234375 18.5269 1.11929 15.0956 2.68786 12.0742H2.68906L7.6598 12.9855L9.83729 17.9264C9.38155 19.2551 9.13315 20.6814 9.13315 22.1655C9.13332 23.7763 9.42509 25.3196 9.96037 26.7434Z" fill="#FBBB00"/>
<path id="Vector_2" d="M43.7372 18.0664C43.9892 19.3938 44.1206 20.7646 44.1206 22.1656C44.1206 23.7366 43.9554 25.269 43.6408 26.7471C42.5726 31.7771 39.7815 36.1693 35.915 39.2774L35.9138 39.2762L29.6529 38.9568L28.7668 33.4252C31.3324 31.9206 33.3374 29.5659 34.3936 26.7471H22.6602V18.0664H34.5648H43.7372Z" fill="#518EF8"/>
<path id="Vector_3" d="M35.9134 39.2764L35.9146 39.2776C32.1542 42.3001 27.3773 44.1086 22.1774 44.1086C13.821 44.1086 6.55581 39.4379 2.84961 32.5645L9.96055 26.7437C11.8136 31.6892 16.5844 35.2097 22.1774 35.2097C24.5814 35.2097 26.8337 34.5599 28.7663 33.4253L35.9134 39.2764Z" fill="#28B446"/>
<path id="Vector_4" d="M36.1829 5.27431L29.0744 11.094C27.0742 9.84374 24.7099 9.12151 22.1769 9.12151C16.4572 9.12151 11.5972 12.8035 9.83701 17.9264L2.6887 12.0742H2.6875C6.33944 5.0332 13.6963 0.222656 22.1769 0.222656C27.501 0.222656 32.3827 2.11917 36.1829 5.27431Z" fill="#F14336"/>
</g>
<defs>
<clipPath id="clip0_109_468">
<rect width="43.8857" height="43.8857" fill="white" transform="translate(0.234375 0.222656)"/>
</clipPath>
</defs>
</svg>
