<svg xmlns="http://www.w3.org/2000/svg" width="28" height="25" viewBox="0 0 28 25" fill="none">
                    <path
                      d="M27.1176 12.2852C26.2489 10.7785 21.4708 3.21776 13.3535 3.46209C5.84711 3.65213 1.50342 10.2491 0.322482 12.2852C0.203346 12.4916 0.140625 12.7256 0.140625 12.9639C0.140625 13.2022 0.203346 13.4363 0.322482 13.6426C1.17765 15.1222 5.75209 22.4657 13.7472 22.4657H14.0865C21.593 22.2757 25.9502 15.6787 27.1176 13.6426C27.2367 13.4363 27.2995 13.2022 27.2995 12.9639C27.2995 12.7256 27.2367 12.4916 27.1176 12.2852ZM14.0187 19.7509C8.16827 19.8866 4.35397 14.8778 3.15945 12.9639C4.51685 10.7785 8.05967 6.31263 13.4893 6.17689C19.3125 6.02758 23.1404 11.05 24.3485 12.9639C22.9504 15.1493 19.4483 19.6152 14.0187 19.7509Z"
                      fill="#7C7C7C"
                    />
                    <path
                      d="M13.7275 8.21289C12.7878 8.21289 11.8693 8.49153 11.088 9.01356C10.3067 9.5356 9.69779 10.2776 9.33821 11.1457C8.97862 12.0138 8.88454 12.9691 9.06785 13.8907C9.25117 14.8122 9.70365 15.6588 10.3681 16.3232C11.0325 16.9876 11.879 17.4401 12.8006 17.6234C13.7222 17.8067 14.6774 17.7126 15.5456 17.3531C16.4137 16.9935 17.1557 16.3845 17.6777 15.6033C18.1997 14.822 18.4784 13.9034 18.4784 12.9638C18.4784 11.7038 17.9778 10.4954 17.0869 9.6044C16.1959 8.71343 14.9875 8.21289 13.7275 8.21289ZM13.7275 14.9999C13.3248 14.9999 12.9311 14.8805 12.5963 14.6568C12.2614 14.433 12.0005 14.115 11.8464 13.743C11.6922 13.3709 11.6519 12.9615 11.7305 12.5666C11.8091 12.1716 12.003 11.8088 12.2877 11.5241C12.5725 11.2393 12.9353 11.0454 13.3302 10.9668C13.7252 10.8883 14.1346 10.9286 14.5067 11.0827C14.8787 11.2368 15.1967 11.4978 15.4204 11.8326C15.6442 12.1674 15.7636 12.5611 15.7636 12.9638C15.7636 13.5038 15.5491 14.0217 15.1672 14.4035C14.7854 14.7854 14.2675 14.9999 13.7275 14.9999Z"
                      fill="#7C7C7C"
                    />
                    <line
                      x1="24.3314"
                      y1="2.44259"
                      x2="5.17646"
                      y2="22.9186"
                      stroke="#7C7C7C"
                      stroke-width="3.45626"
                      stroke-linecap="round"
                    />
                  </svg>