<svg width="50" height="50" viewBox="0 0 50 50" fill="none" xmlns="http://www.w3.org/2000/svg">
<g clip-path="url(#clip0_4603_9260)">
<path d="M50.1646 25.0139C50.1646 11.2069 38.9718 0.0141585 25.1648 0.0141585C11.3578 0.0141585 0.165039 11.2069 0.165039 25.0139C0.165039 38.8209 11.3578 50.0137 25.1648 50.0137C38.9718 50.0137 50.1646 38.8209 50.1646 25.0139Z" fill="white"/>
<path d="M42.6191 24.1079C41.4763 22.1258 35.1906 12.1794 24.512 12.5008C14.637 12.7508 8.9227 21.4294 7.36912 24.1079C7.21239 24.3794 7.12988 24.6873 7.12988 25.0008C7.12988 25.3142 7.21239 25.6222 7.36912 25.8936C8.49412 27.8401 14.512 37.5008 25.0298 37.5008H25.4763C35.3513 37.2508 41.0834 28.5722 42.6191 25.8936C42.7759 25.6222 42.8584 25.3142 42.8584 25.0008C42.8584 24.6873 42.7759 24.3794 42.6191 24.1079ZM25.387 33.9294C17.6906 34.1079 12.6727 27.5186 11.1013 25.0008C12.887 22.1258 17.5477 16.2508 24.6906 16.0722C32.3513 15.8758 37.387 22.4829 38.9763 25.0008C37.137 27.8758 32.5298 33.7508 25.387 33.9294Z" fill="#7C7C7C"/>
<line x1="38.0933" y1="10.8269" x2="11.8259" y2="38.9058" stroke="#7C7C7C" stroke-width="4" stroke-linecap="round"/>
<path d="M25.0039 18.751C23.7678 18.751 22.5594 19.1175 21.5316 19.8043C20.5038 20.491 19.7027 21.4672 19.2297 22.6092C18.7566 23.7512 18.6328 25.0079 18.874 26.2203C19.1152 27.4327 19.7104 28.5463 20.5845 29.4204C21.4586 30.2945 22.5722 30.8897 23.7846 31.1309C24.997 31.372 26.2536 31.2483 27.3957 30.7752C28.5377 30.3022 29.5138 29.5011 30.2006 28.4733C30.8874 27.4455 31.2539 26.2371 31.2539 25.001C31.2539 23.3434 30.5954 21.7537 29.4233 20.5816C28.2512 19.4095 26.6615 18.751 25.0039 18.751ZM25.0039 27.6795C24.4741 27.6795 23.9563 27.5225 23.5158 27.2281C23.0753 26.9338 22.732 26.5155 22.5292 26.026C22.3265 25.5366 22.2735 24.998 22.3768 24.4784C22.4802 23.9588 22.7353 23.4815 23.1099 23.1069C23.4845 22.7323 23.9618 22.4772 24.4813 22.3739C25.0009 22.2705 25.5395 22.3236 26.029 22.5263C26.5184 22.729 26.9367 23.0724 27.2311 23.5128C27.5254 23.9533 27.6825 24.4712 27.6825 25.001C27.6825 25.7114 27.4003 26.3927 26.8979 26.895C26.3956 27.3973 25.7143 27.6795 25.0039 27.6795Z" fill="#7C7C7C"/>
</g>
<defs>
<clipPath id="clip0_4603_9260">
<rect width="50" height="50" fill="white"/>
</clipPath>
</defs>
</svg>
