<svg width="50" height="50" viewBox="0 0 50 50" fill="none" xmlns="http://www.w3.org/2000/svg">
<g clip-path="url(#clip0_4740_1935)">
<path d="M25.1648 50.0142C38.9718 50.0142 50.1646 38.8214 50.1646 25.0144C50.1646 11.2074 38.9718 0.0146484 25.1648 0.0146484C11.3578 0.0146484 0.165039 11.2074 0.165039 25.0144C0.165039 38.8214 11.3578 50.0142 25.1648 50.0142Z" fill="white"/>
<path d="M39.3409 36.1136L37.75 34.5227C37.1136 33.8864 36.1591 33.8864 35.5227 34.5227C34.8864 35.1591 34.8864 36.1136 35.5227 36.75L37.1136 38.3409C37.4318 38.6591 37.9091 38.8182 38.2273 38.8182C38.5455 38.8182 39.0227 38.6591 39.3409 38.3409C39.9773 37.7045 39.9773 36.75 39.3409 36.1136ZM28.6818 40.4091C28.6818 41.3636 29.3182 42 30.2727 42C31.2273 42 31.8636 41.3636 31.8636 40.4091V37.2273C31.8636 36.2727 31.2273 35.6364 30.2727 35.6364C29.3182 35.6364 28.6818 36.2727 28.6818 37.2273V40.4091ZM41.4091 27.6818H38.2273C37.2727 27.6818 36.6364 28.3182 36.6364 29.2727C36.6364 30.2273 37.2727 30.8636 38.2273 30.8636H41.4091C42.3636 30.8636 43 30.2273 43 29.2727C43 28.3182 42.3636 27.6818 41.4091 27.6818ZM39.3409 18.7727C39.3409 16.5455 38.5455 14.6364 36.9545 13.0455C35.3636 11.4545 33.4545 10.6591 31.2273 10.6591C29 10.6591 27.0909 11.4545 25.5 13.0455L22 16.5455C21.3636 17.1818 21.3636 18.1364 22 18.7727C22.6364 19.4091 23.5909 19.4091 24.2273 18.7727L27.7273 15.2727C29.6364 13.3636 32.8182 13.3636 34.7273 15.2727C35.6818 16.2273 36.1591 17.5 36.1591 18.7727C36.1591 20.0455 35.6818 21.3182 34.7273 22.2727L31.2273 25.7727C30.5909 26.4091 30.5909 27.3636 31.2273 28C31.5455 28.3182 32.0227 28.4773 32.3409 28.4773C32.6591 28.4773 33.1364 28.3182 33.4545 28L36.9545 24.5C38.5455 22.9091 39.3409 21 39.3409 18.7727ZM11.6591 30.2273C11.6591 32.4545 12.4545 34.3636 14.0455 35.9545C15.6364 37.5455 17.5455 38.3409 19.7727 38.3409C22 38.3409 23.9091 37.5455 25.5 35.9545L29 32.4545C29.6364 31.8182 29.6364 30.8636 29 30.2273C28.3636 29.5909 27.4091 29.5909 26.7727 30.2273L23.2727 33.7273C21.3636 35.6364 18.1818 35.6364 16.2727 33.7273C15.3182 32.7727 14.8409 31.5 14.8409 30.2273C14.8409 28.9545 15.3182 27.6818 16.2727 26.7273L19.7727 23.2273C20.4091 22.5909 20.4091 21.6364 19.7727 21C19.1364 20.3636 18.1818 20.3636 17.5455 21L14.0455 24.5C12.4545 26.0909 11.6591 28 11.6591 30.2273ZM15.4773 12.25L13.8864 10.6591C13.25 10.0227 12.2955 10.0227 11.6591 10.6591C11.0227 11.2955 11.0227 12.25 11.6591 12.8864L13.25 14.4773C13.5682 14.7955 13.8864 14.9545 14.3636 14.9545C14.8409 14.9545 15.1591 14.7955 15.4773 14.4773C16.1136 13.8409 16.1136 12.8864 15.4773 12.25ZM22.3182 11.7727V8.59091C22.3182 7.63636 21.6818 7 20.7273 7C19.7727 7 19.1364 7.63636 19.1364 8.59091V11.7727C19.1364 12.7273 19.7727 13.3636 20.7273 13.3636C21.6818 13.3636 22.3182 12.7273 22.3182 11.7727ZM12.7727 21.3182C13.7273 21.3182 14.3636 20.6818 14.3636 19.7273C14.3636 18.7727 13.7273 18.1364 12.7727 18.1364H9.59091C8.63636 18.1364 8 18.7727 8 19.7273C8 20.6818 8.63636 21.3182 9.59091 21.3182H12.7727Z" fill="#7C7C7C"/>
</g>
<defs>
<clipPath id="clip0_4740_1935">
<rect width="50" height="50" fill="white"/>
</clipPath>
</defs>
</svg>
