<svg width="37" height="32" viewBox="0 0 37 32" fill="none" xmlns="http://www.w3.org/2000/svg">
<path d="M37 12.5473C36.9998 13.2064 36.775 13.846 36.362 14.3625C35.949 14.8791 35.372 15.2422 34.7247 15.3929C34.0774 15.5437 33.3977 15.4733 32.7958 15.1931C32.1939 14.9129 31.7052 14.4395 31.4089 13.8495L23.7978 15.1058C23.7978 15.1305 23.7978 15.1551 23.7978 15.1802C23.797 16.5132 23.3189 17.8027 22.4484 18.819L27.3041 24.3453C28.1941 23.8555 29.2354 23.7096 30.2275 23.9356C31.2196 24.1616 32.0922 24.7436 32.677 25.5694C33.2619 26.3952 33.5176 27.4064 33.395 28.408C33.2723 29.4095 32.78 30.3307 32.0128 30.9938C31.2456 31.657 30.2579 32.0152 29.2401 31.9995C28.2223 31.9838 27.2464 31.5952 26.5004 30.9086C25.7545 30.222 25.2914 29.2861 25.2003 28.2812C25.1093 27.2763 25.3967 26.2736 26.0073 25.4663L21.1532 19.9423C20.2612 20.504 19.2287 20.8076 18.172 20.8188C17.1153 20.8301 16.0764 20.5486 15.1725 20.0061L14.362 20.9698C14.9891 21.7624 15.298 22.7571 15.2293 23.762C15.1605 24.767 14.7189 25.7111 13.9896 26.4126C13.2602 27.114 12.2948 27.5231 11.2792 27.561C10.2637 27.5989 9.2699 27.263 8.48941 26.6178C7.70892 25.9727 7.19694 25.0642 7.05213 24.0672C6.90731 23.0702 7.13991 22.0553 7.70511 21.2182C8.2703 20.3811 9.12809 19.7809 10.1132 19.5334C11.0983 19.2858 12.141 19.4083 13.0403 19.8774L13.8508 18.9137C13.0632 18.0296 12.574 16.9237 12.4517 15.7506L5.96251 15.4243C5.71977 16.1151 5.23384 16.6959 4.59389 17.0602C3.95394 17.4245 3.2029 17.5479 2.47859 17.4076C1.75429 17.2674 1.1053 16.873 0.650743 16.2967C0.196181 15.7205 -0.033466 15.0011 0.00394519 14.2706C0.0413563 13.54 0.343316 12.8474 0.85441 12.3197C1.3655 11.7921 2.05145 11.4648 2.78636 11.398C3.52127 11.3311 4.25585 11.5292 4.8553 11.9559C5.45474 12.3825 5.87883 13.0091 6.04975 13.7207L12.5382 14.047C12.7143 13.1953 13.0868 12.3955 13.6265 11.7102C14.1663 11.0249 14.8587 10.4727 15.6496 10.0966C16.4405 9.72063 17.3084 9.53106 18.1855 9.54276C19.0626 9.55445 19.9251 9.7671 20.7055 10.1641L24.5419 4.90107C24.0896 4.32348 23.8626 3.60359 23.9026 2.87351C23.9426 2.14343 24.2469 1.45213 24.7596 0.926465C25.2724 0.400803 25.9592 0.0760384 26.694 0.0117664C27.4288 -0.0525055 28.1624 0.148026 28.7601 0.576564C29.3578 1.0051 29.7796 1.6329 29.9479 2.34476C30.1163 3.05661 30.02 3.80477 29.6768 4.45195C29.3335 5.09913 28.7663 5.60192 28.0792 5.86805C27.3921 6.13417 26.6313 6.14579 25.9362 5.90077L22.0983 11.1649C22.7443 11.7955 23.2295 12.5695 23.5135 13.423L31.1227 12.167C31.2205 11.4309 31.5972 10.7592 32.1762 10.2882C32.7553 9.81723 33.4935 9.58219 34.241 9.63077C34.9885 9.67935 35.6893 10.0079 36.2014 10.5498C36.7135 11.0917 36.9984 11.8064 36.9984 12.5489L37 12.5473Z" fill="white"/>
</svg>
