<svg width="24" height="32" viewBox="0 0 24 32" fill="none" xmlns="http://www.w3.org/2000/svg">
<g clip-path="url(#clip0_8072_4468)">
<path d="M0.015572 17.9107C0.015572 13.3844 0.0129855 8.85832 0.0078125 4.33254C0.0078125 3.97906 0.0940286 3.84542 0.454412 3.85146C1.83387 3.87301 3.21333 3.81956 4.59279 3.8825C4.88161 3.89543 4.97128 4.00147 4.96438 4.26788C4.95518 4.68402 4.95518 5.10045 4.96438 5.51716C4.97128 5.82495 4.85144 5.956 4.5333 5.94824C3.94444 5.93099 3.35472 5.93703 2.76587 5.94824C2.28564 5.956 2.08476 6.15688 2.06924 6.62935C2.05976 6.91645 2.06924 7.20441 2.06924 7.49151V28.9593C2.06924 29.812 2.19253 29.9405 3.03055 29.9413C8.83577 29.9413 14.641 29.9413 20.4462 29.9413C21.1678 29.9413 21.3187 29.7853 21.3187 29.0464C21.3187 21.6761 21.3187 14.3052 21.3187 6.93369C21.3187 6.05515 21.2092 5.9491 20.3203 5.94737C19.8177 5.94737 19.3142 5.93617 18.8116 5.94737C18.5314 5.95427 18.4201 5.83098 18.4219 5.56457C18.4219 5.11884 18.427 4.6731 18.4219 4.22822C18.4176 3.99889 18.5038 3.89112 18.746 3.88336C20.1962 3.82473 21.6472 3.86612 23.0982 3.86353C23.2922 3.86353 23.3819 3.95923 23.3715 4.16011C23.3612 4.37565 23.3715 4.59119 23.3715 4.80673C23.3715 13.7008 23.3747 22.5949 23.381 31.4889C23.381 31.9088 23.2801 32.0062 22.8637 32.0062C15.4066 31.9913 7.94947 31.9913 0.492347 32.0062C0.111272 32.0062 0.0121233 31.9243 0.0129854 31.5407C0.02678 27.0005 0.0216071 22.4595 0.0216071 17.9185L0.015572 17.9107Z" fill="white"/>
<path d="M11.6907 7.75358C9.99686 7.75358 8.30271 7.75358 6.60828 7.75358C5.67455 7.75358 5.34521 7.45959 5.32883 6.54052C5.30469 5.21969 5.32021 3.89713 5.30469 2.57802C5.30469 2.20816 5.44953 2.07969 5.82198 2.08745C6.77036 2.10815 7.71874 2.08745 8.66712 2.09866C8.93956 2.09866 9.08354 2.01848 9.15424 1.74087C9.39133 0.800248 10.0724 0.297607 10.9596 0.0872392C12.477 -0.272282 14.0117 0.513148 14.2462 1.82277C14.2944 2.09004 14.4919 2.09608 14.7048 2.09521C15.6661 2.09521 16.6283 2.10642 17.5905 2.08745C17.9517 2.08056 18.0673 2.22109 18.0647 2.56682C18.0543 3.9161 18.0647 5.26625 18.0578 6.61898C18.0509 7.38113 17.6707 7.75186 16.9042 7.75444C15.1652 7.75789 13.428 7.75358 11.6907 7.75358Z" fill="white"/>
<path d="M11.6493 12.8354H5.44177C4.7667 12.8354 4.7667 12.8354 4.76584 12.1405C4.76584 11.7957 4.77273 11.4508 4.76584 11.1059C4.7598 10.8473 4.88309 10.7387 5.12967 10.7413C5.22968 10.7413 5.33055 10.7413 5.43143 10.7413H17.9328C18.6087 10.7413 18.6087 10.7413 18.6096 11.3991C18.6096 11.7155 18.5906 12.0328 18.6096 12.3475C18.6372 12.7242 18.4889 12.8475 18.113 12.8449C15.9593 12.8285 13.8039 12.8354 11.6493 12.8354Z" fill="white"/>
<path d="M11.6907 17.748H5.52799C4.76584 17.748 4.76584 17.748 4.76584 16.9643C4.76584 16.6478 4.77274 16.3323 4.76584 16.0159C4.75981 15.7572 4.87965 15.6469 5.12881 15.6495C5.22882 15.6495 5.3297 15.6495 5.42971 15.6495H17.9311C18.607 15.6495 18.607 15.6495 18.607 16.3073C18.607 16.609 18.5863 16.9108 18.6113 17.2117C18.6458 17.6238 18.488 17.7618 18.0724 17.7583C16.0757 17.7411 14.0789 17.7505 12.0821 17.7505L11.6907 17.748Z" fill="white"/>
<path d="M11.6961 20.5545C13.8079 20.5545 15.9196 20.5545 18.0313 20.5545C18.5943 20.5545 18.6064 20.57 18.6081 21.1381C18.6081 21.4546 18.6081 21.7701 18.6081 22.0865C18.6081 22.6435 18.596 22.6521 18.0184 22.6555H5.38943C4.77126 22.6555 4.77126 22.6555 4.76953 22.0288C4.76953 21.7414 4.76953 21.454 4.76953 21.1666C4.76953 20.5553 4.76953 20.5536 5.40408 20.5527L11.6961 20.5545Z" fill="white"/>
<path d="M11.6436 27.566C9.54563 27.566 7.44771 27.566 5.34978 27.566C4.78075 27.566 4.76868 27.5505 4.7661 26.9884C4.7661 26.6151 4.77644 26.2418 4.7661 25.8676C4.75661 25.5684 4.89025 25.4451 5.17907 25.4649C5.25063 25.4693 5.32305 25.4649 5.39461 25.4649H17.9805C18.6055 25.4649 18.6055 25.4649 18.6072 26.0831C18.6072 26.4133 18.5891 26.7453 18.6116 27.0737C18.6383 27.4548 18.4779 27.5729 18.1098 27.5712C16.2708 27.5591 14.4318 27.566 12.5919 27.566H11.6436Z" fill="white"/>
</g>
<defs>
<clipPath id="clip0_8072_4468">
<rect width="23.3698" height="32" fill="white"/>
</clipPath>
</defs>
</svg>
