<svg width="24" height="32" viewBox="0 0 24 32" fill="none" xmlns="http://www.w3.org/2000/svg">
<g clip-path="url(#clip0_8072_2854)">
<path d="M0.00775947 18.0601C0.00775947 13.5338 0.00517297 9.00773 0 4.48196C0 4.12847 0.0862161 3.99484 0.4466 4.00087C1.82606 4.02243 3.20552 3.96897 4.58498 4.03191C4.8738 4.04484 4.96347 4.15089 4.95657 4.4173C4.94737 4.83343 4.94737 5.24986 4.95657 5.66657C4.96347 5.97436 4.84362 6.10541 4.52549 6.09765C3.93663 6.08041 3.34691 6.08644 2.75806 6.09765C2.27783 6.10541 2.07695 6.30629 2.06143 6.77876C2.05195 7.06586 2.06143 7.35382 2.06143 7.64092V29.1088C2.06143 29.9614 2.18472 30.0899 3.02274 30.0908C8.82796 30.0908 14.6332 30.0908 20.4384 30.0908C21.16 30.0908 21.3109 29.9347 21.3109 29.1958C21.3109 21.8255 21.3109 14.4546 21.3109 7.0831C21.3109 6.20456 21.2014 6.09851 20.3125 6.09679C19.8099 6.09679 19.3064 6.08558 18.8037 6.09679C18.5235 6.10369 18.4123 5.9804 18.4141 5.71399C18.4141 5.26825 18.4192 4.82251 18.4141 4.37764C18.4097 4.1483 18.496 4.04053 18.7382 4.03277C20.1884 3.97415 21.6394 4.01553 23.0904 4.01294C23.2844 4.01294 23.3741 4.10864 23.3637 4.30953C23.3534 4.52507 23.3637 4.74061 23.3637 4.95615C23.3637 13.8502 23.3669 22.7443 23.3732 31.6383C23.3732 32.0582 23.2723 32.1556 22.8559 32.1556C15.3988 32.1407 7.94166 32.1407 0.484535 32.1556C0.103459 32.1556 0.00431076 32.0737 0.00517293 31.6901C0.0189675 27.1499 0.0137946 22.6089 0.0137946 18.0679L0.00775947 18.0601Z" fill="white"/>
<rect y="6" width="23" height="26" fill="white"/>
<rect x="4" y="2" width="15" height="7" rx="2" fill="#389CE3"/>
<path d="M11.6907 7.75358C9.99686 7.75358 8.30271 7.75358 6.60828 7.75358C5.67455 7.75358 5.34521 7.45959 5.32883 6.54052C5.30469 5.21969 5.32021 3.89713 5.30469 2.57802C5.30469 2.20816 5.44953 2.07969 5.82198 2.08745C6.77036 2.10815 7.71874 2.08745 8.66712 2.09866C8.93956 2.09866 9.08354 2.01848 9.15424 1.74087C9.39133 0.800248 10.0724 0.297607 10.9596 0.0872392C12.477 -0.272282 14.0117 0.513148 14.2462 1.82277C14.2944 2.09004 14.4919 2.09608 14.7048 2.09521C15.6661 2.09521 16.6283 2.10642 17.5905 2.08745C17.9517 2.08056 18.0673 2.22109 18.0647 2.56682C18.0543 3.9161 18.0647 5.26625 18.0578 6.61898C18.0509 7.38113 17.6707 7.75186 16.9042 7.75444C15.1652 7.75789 13.428 7.75358 11.6907 7.75358Z" fill="white"/>
<path d="M11.6493 12.8359H5.44177C4.7667 12.8359 4.7667 12.8359 4.76584 12.141C4.76584 11.7962 4.77273 11.4513 4.76584 11.1064C4.7598 10.8478 4.88309 10.7392 5.12967 10.7417C5.22968 10.7417 5.33055 10.7417 5.43143 10.7417H17.9328C18.6087 10.7417 18.6087 10.7417 18.6096 11.3996C18.6096 11.716 18.5906 12.0333 18.6096 12.3479C18.6372 12.7247 18.4889 12.848 18.113 12.8454C15.9593 12.829 13.8039 12.8359 11.6493 12.8359Z" fill="#389CE3"/>
<path d="M11.6907 17.7475H5.52799C4.76584 17.7475 4.76584 17.7475 4.76584 16.9638C4.76584 16.6474 4.77274 16.3318 4.76584 16.0154C4.75981 15.7567 4.87965 15.6464 5.12881 15.649C5.22882 15.649 5.3297 15.649 5.42971 15.649H17.9311C18.607 15.649 18.607 15.649 18.607 16.3068C18.607 16.6086 18.5863 16.9103 18.6113 17.2112C18.6458 17.6233 18.488 17.7613 18.0724 17.7578C16.0757 17.7406 14.0789 17.7501 12.0821 17.7501L11.6907 17.7475Z" fill="#389CE3"/>
<path d="M11.6961 20.5549C13.8079 20.5549 15.9196 20.5549 18.0313 20.5549C18.5943 20.5549 18.6064 20.5705 18.6081 21.1386C18.6081 21.455 18.6081 21.7706 18.6081 22.087C18.6081 22.644 18.596 22.6526 18.0184 22.656H5.38943C4.77126 22.656 4.77126 22.656 4.76953 22.0292C4.76953 21.7419 4.76953 21.4545 4.76953 21.1671C4.76953 20.5558 4.76953 20.5541 5.40408 20.5532L11.6961 20.5549Z" fill="#389CE3"/>
<path d="M11.6436 27.566C9.54563 27.566 7.44771 27.566 5.34978 27.566C4.78075 27.566 4.76868 27.5505 4.7661 26.9884C4.7661 26.6151 4.77644 26.2418 4.7661 25.8676C4.75661 25.5684 4.89025 25.4451 5.17907 25.4649C5.25063 25.4693 5.32305 25.4649 5.39461 25.4649H17.9805C18.6055 25.4649 18.6055 25.4649 18.6072 26.0831C18.6072 26.4133 18.5891 26.7453 18.6116 27.0737C18.6383 27.4548 18.4779 27.5729 18.1098 27.5712C16.2708 27.5591 14.4318 27.566 12.5919 27.566H11.6436Z" fill="#389CE3"/>
</g>
<defs>
<clipPath id="clip0_8072_2854">
<rect width="23.3698" height="32" fill="white"/>
</clipPath>
</defs>
</svg>
