<svg width="172" height="16" viewBox="0 0 172 16" fill="none" xmlns="http://www.w3.org/2000/svg">
<path d="M6.78 0.5H8.96C9.6 0.5 9.72 0.86 9.72 1.58C9.72 2.3 9.6 2.66 8.96 2.66H6.86C4.52 2.66 3.52 3.34 3.52 4.22V6.78H16.48C17.12 6.78 17.26 7.14 17.26 7.86C17.26 8.58 17.12 8.94 16.48 8.94H3.52V14.14C3.52 14.9 3.06 15.08 2.18 15.08C1.32 15.08 0.86 14.9 0.86 14.14V4.22C0.86 1.72 2.84 0.5 6.78 0.5ZM30 15H24.18C20.24 15 18.26 13.76 18.26 11.28V4.22C18.26 1.72 20.24 0.5 24.18 0.5H30C33.94 0.5 35.92 1.72 35.92 4.22V11.28C35.92 13.76 33.94 15 30 15ZM29.92 12.84C32.26 12.84 33.28 12.14 33.28 11.28V4.22C33.28 3.34 32.26 2.66 29.92 2.66H24.26C21.92 2.66 20.9 3.34 20.9 4.22V11.28C20.9 12.14 21.92 12.84 24.26 12.84H29.92ZM49.6197 15H43.4597C39.5197 15 37.5397 13.76 37.5397 11.28V1.36C37.5397 0.599999 37.9997 0.419999 38.8597 0.419999C39.7397 0.419999 40.1997 0.599999 40.1997 1.36V11.28C40.1997 12.14 41.1997 12.84 43.5397 12.84H49.5397C51.8797 12.84 52.8797 12.14 52.8797 11.28V1.36C52.8797 0.599999 53.3397 0.419999 54.2197 0.419999C55.0797 0.419999 55.5397 0.599999 55.5397 1.36V11.28C55.5397 13.76 53.5597 15 49.6197 15ZM74.0263 15.08C73.3063 15.08 73.1463 14.98 72.4463 14.4L60.0063 3.92V14.14C60.0063 14.9 59.5463 15.08 58.6663 15.08C57.8063 15.08 57.3463 14.9 57.3463 14.14V1.36C57.3463 0.619999 57.7863 0.419999 58.6063 0.419999C59.4863 0.419999 59.8663 0.639999 60.4863 1.16L72.7463 11.6V1.36C72.7463 0.599999 73.2063 0.419999 74.0663 0.419999C74.9463 0.419999 75.4063 0.599999 75.4063 1.36V14.14C75.4063 14.92 74.9463 15.08 74.0263 15.08ZM95.4677 4.22V11.28C95.4677 13.76 93.5077 15 89.5477 15H78.2077C77.5877 15 77.2877 14.68 77.2877 14.06V1.42C77.2877 0.799999 77.5877 0.5 78.2077 0.5H89.5477C93.5077 0.5 95.4677 1.72 95.4677 4.22ZM79.9477 2.66V12.84H89.4677C91.8077 12.84 92.8477 12.14 92.8477 11.28V4.22C92.8477 3.34 91.8077 2.66 89.4677 2.66H79.9477ZM105.668 0.439999C106.448 0.439999 106.908 0.699999 107.228 1.14L115.948 13.58C116.048 13.74 116.088 13.9 116.088 14.04C116.088 14.64 115.308 15.1 114.628 15.1C114.268 15.1 113.948 14.98 113.748 14.7L111.388 11.26H100.268L98.0478 14.7C97.8678 14.98 97.5278 15.1 97.1878 15.1C96.5278 15.1 95.7478 14.64 95.7478 14.02C95.7478 13.86 95.8078 13.72 95.8878 13.58L104.088 1.14C104.388 0.699999 104.868 0.439999 105.668 0.439999ZM105.668 2.88L101.648 9.1H109.908L105.668 2.88ZM127.869 2.66H121.829V14.14C121.829 14.9 121.369 15.08 120.489 15.08C119.629 15.08 119.169 14.9 119.169 14.14V2.66H113.149C112.509 2.66 112.369 2.3 112.369 1.58C112.369 0.86 112.509 0.5 113.149 0.5H127.869C128.509 0.5 128.649 0.86 128.649 1.58C128.649 2.3 128.509 2.66 127.869 2.66ZM132.487 1.36V14.14C132.487 14.9 132.027 15.08 131.147 15.08C130.287 15.08 129.827 14.9 129.827 14.14V1.36C129.827 0.599999 130.287 0.419999 131.147 0.419999C132.027 0.419999 132.487 0.599999 132.487 1.36ZM145.918 15H140.098C136.158 15 134.178 13.76 134.178 11.28V4.22C134.178 1.72 136.158 0.5 140.098 0.5H145.918C149.858 0.5 151.838 1.72 151.838 4.22V11.28C151.838 13.76 149.858 15 145.918 15ZM145.838 12.84C148.178 12.84 149.198 12.14 149.198 11.28V4.22C149.198 3.34 148.178 2.66 145.838 2.66H140.178C137.838 2.66 136.818 3.34 136.818 4.22V11.28C136.818 12.14 137.838 12.84 140.178 12.84H145.838ZM170.218 15.08C169.498 15.08 169.338 14.98 168.638 14.4L156.198 3.92V14.14C156.198 14.9 155.738 15.08 154.858 15.08C153.998 15.08 153.538 14.9 153.538 14.14V1.36C153.538 0.619999 153.978 0.419999 154.798 0.419999C155.678 0.419999 156.058 0.639999 156.678 1.16L168.938 11.6V1.36C168.938 0.599999 169.398 0.419999 170.258 0.419999C171.138 0.419999 171.598 0.599999 171.598 1.36V14.14C171.598 14.92 171.138 15.08 170.218 15.08Z" fill="white"/>
</svg>
