 <svg
                  xmlns="http://www.w3.org/2000/svg"
                  width="41"
                  height="41"
                  viewBox="0 0 41 41"
                  fill="none"
                  className="size-[15px] tablet:size-[41px]"
                >
                  <path
                    d="M35.6826 19.2751C35.6826 28.2373 28.4173 35.5026 19.455 35.5026C10.4928 35.5026 3.22746 28.2373 3.22746 19.2751C3.22746 10.3128 10.4928 3.04751 19.455 3.04751C28.4173 3.04751 35.6826 10.3128 35.6826 19.2751Z"
                    fill="white"
                  />
                  <path
                    d="M34.6479 33.8809C42.2729 25.8323 41.9295 13.1264 33.8809 5.50145C25.8323 -2.12352 13.1264 -1.78012 5.50145 6.26845C-2.12352 14.317 -1.78012 27.0229 6.26845 34.6479C14.317 42.2729 27.0229 41.9295 34.6479 33.8809ZM13.8838 16.1848C13.3089 15.6402 13.2844 14.7326 13.829 14.1577C14.3736 13.5828 15.2812 13.5583 15.8561 14.1029L20.0199 18.0476L23.9645 13.8838C24.5092 13.3089 25.4167 13.2844 25.9916 13.829C26.5665 14.3736 26.591 15.2812 26.0464 15.8561L22.1018 20.0199L26.2655 23.9645C26.8404 24.5092 26.865 25.4167 26.3203 25.9916C25.7757 26.5665 24.8681 26.591 24.2932 26.0464L20.1295 22.1018L16.1848 26.2655C15.6402 26.8404 14.7326 26.865 14.1577 26.3203C13.5828 25.7757 13.5583 24.8681 14.1029 24.2932L18.0476 20.1295L13.8838 16.1848Z"
                    fill="#7C7C7C"
                  />
                </svg>