<svg xmlns="http://www.w3.org/2000/svg" width="29" height="27" viewBox="0 0 29 27" fill="none">
<path d="M14.7841 1.0257C17.8498 1.0257 20.9176 1.09785 23.9811 1.00201C26.4206 0.926629 28.1609 2.98346 28.1195 5.09413C28.0422 9.25409 28.0999 13.4173 28.0966 17.5783C28.0966 20.025 26.4424 21.6532 23.9583 21.6564C21.1823 21.6564 18.4041 21.6629 15.6314 21.651C15.2336 21.6452 14.8463 21.7774 14.5369 22.0247C12.9643 23.2093 11.3787 24.3712 9.79192 25.5396C9.55996 25.7109 9.33017 25.8885 9.03721 25.9542C8.09954 26.1642 7.41889 25.6398 7.36988 24.6254C7.33612 23.9092 7.36008 23.191 7.35899 22.4716C7.35899 21.6661 7.35899 21.6726 6.56181 21.6629C5.71344 21.6532 4.86616 21.7232 4.0363 21.4131C2.58242 20.8746 1.48575 19.4639 1.47922 17.9229C1.46071 13.5282 1.45199 9.1324 1.47922 4.73876C1.49338 2.70886 3.20645 1.0537 5.25713 1.0397C8.4317 1.01709 11.6063 1.03324 14.7809 1.03324L14.7841 1.0257Z" fill="#707175" stroke="#707175" stroke-width="1.06651"/>
<path d="M15.1853 14.7646C13.499 14.7646 11.8083 14.7646 10.1253 14.7646C9.57408 14.7646 9.16994 14.5589 9.00109 14.0192C8.95884 13.8799 8.94978 13.7329 8.97463 13.5896C8.99947 13.4463 9.05754 13.3106 9.14428 13.1933C9.23102 13.0759 9.34408 12.9799 9.47459 12.913C9.6051 12.846 9.74952 12.8099 9.89653 12.8074C13.4151 12.783 16.9337 12.783 20.4523 12.8074C21.0754 12.8074 21.4382 13.2555 21.4142 13.8231C21.3924 14.3617 20.9785 14.7538 20.3553 14.7592C18.632 14.7743 16.9087 14.7592 15.1853 14.7592V14.7646Z" fill="white" stroke="white" stroke-width="0.65"/>
<path d="M15.173 9.83119C13.4878 9.83119 11.8015 9.83119 10.1163 9.83119C9.37881 9.83119 8.9812 9.50804 8.96159 8.90913C8.94198 8.31023 9.36356 7.92999 10.1196 7.92999C13.5082 7.92568 16.8975 7.92568 20.2875 7.92999C21.1056 7.92999 21.5806 8.46857 21.3769 9.14934C21.2255 9.64915 20.8584 9.83765 20.3409 9.83442C18.6165 9.82473 16.8953 9.83119 15.173 9.83119Z" fill="white" stroke="white" stroke-width="0.65"/>
</svg>