<svg xmlns="http://www.w3.org/2000/svg" width="21" height="25" viewBox="0 0 21 25" fill="none">
<path fill-rule="evenodd" clip-rule="evenodd" d="M10.2355 25H10.6885C11.859 25 12.7652 24.0587 12.7652 22.8916V22.2515H8.15882V22.8916C8.15882 24.0587 9.10275 25 10.2355 25ZM12.7652 3.0497C15.9368 3.80271 18.3154 6.66416 18.3154 10.0151V17.3569C18.3154 17.5828 18.391 17.7711 18.542 17.9217L20.0145 19.3524C20.2033 19.503 20.2788 19.6913 20.2788 19.9172V20.6702C20.2788 21.122 19.9012 21.4608 19.4859 21.4608H1.47584C1.06052 21.4608 0.720703 21.122 0.720703 20.6702V19.8795C0.720703 19.6913 0.796218 19.503 0.909489 19.3524L2.3065 17.9217C2.45752 17.7711 2.53304 17.5828 2.53304 17.3569V10.5045C2.53304 7.00301 4.91173 4.02861 8.15882 3.125V2.07078C8.15882 0.941265 9.10275 0 10.2355 0H10.6885C11.859 0 12.7652 0.941265 12.7652 2.07078V3.0497Z" fill="white"/>
</svg>