<svg width="34" height="26" viewBox="0 0 34 26" fill="none" xmlns="http://www.w3.org/2000/svg">
<path d="M20.6009 6.9286C20.5984 7.13025 20.5844 7.33158 20.5588 7.53162C20.5448 7.61576 20.5307 7.68587 20.5167 7.75599C20.5148 7.75782 20.5134 7.76 20.5124 7.76241C20.5113 7.76482 20.5108 7.7674 20.5108 7.77002C20.5108 7.77263 20.5113 7.77522 20.5124 7.77762C20.5134 7.78003 20.5148 7.78221 20.5167 7.78404H20.5027C20.429 8.0898 20.3208 8.38619 20.1802 8.66753C19.8522 9.25764 19.3724 9.74933 18.7905 10.0917C18.2086 10.434 17.5457 10.6145 16.8706 10.6145C16.1955 10.6145 15.5326 10.434 14.9507 10.0917C14.3688 9.74933 13.889 9.25764 13.561 8.66753C13.4197 8.37527 13.3069 8.07 13.2245 7.75599C13.2241 7.67927 13.2099 7.60325 13.1824 7.53162C13.1964 7.51759 13.1964 7.51759 13.1824 7.51759C13.0835 6.85853 13.1597 6.18504 13.4034 5.56474C13.6471 4.94445 14.0497 4.39918 14.5707 3.98366C15.1249 3.5631 15.7848 3.30459 16.4772 3.2369C17.1695 3.16921 17.8671 3.295 18.4921 3.60028C19.1172 3.90555 19.6453 4.37832 20.0176 4.96595C20.3899 5.55359 20.5918 6.23302 20.6009 6.9286ZM25.7195 22.3124C25.7222 22.8247 25.6799 23.3362 25.5932 23.841C25.5828 23.8726 25.578 23.9059 25.5792 23.9392C22.8763 25.2947 19.8943 26.0006 16.8706 26.0006C13.8468 26.0006 10.8648 25.2947 8.16197 23.9392C8.16316 23.9059 8.15841 23.8726 8.14795 23.841C7.93914 22.6163 7.98971 21.3615 8.29639 20.1576C8.60308 18.9537 9.15904 17.8276 9.92833 16.8521C10.6976 15.8766 11.6631 15.0735 12.7623 14.4946C13.8616 13.9157 15.0701 13.574 16.3097 13.4916H16.3657C16.7013 13.4542 17.0399 13.4542 17.3754 13.4916H17.4315C19.6756 13.6325 21.7817 14.623 23.3213 16.2616C24.861 17.9003 25.7185 20.064 25.7195 22.3124ZM10.3356 6.9286C10.3328 6.99437 10.3375 7.06024 10.3496 7.12493C9.8829 7.33747 9.37601 7.44746 8.86315 7.44748C8.19044 7.4462 7.53064 7.26268 6.95387 6.91644C6.37711 6.57019 5.90493 6.07416 5.58751 5.48104C5.27009 4.88792 5.1193 4.21989 5.15115 3.54793C5.183 2.87597 5.39632 2.2252 5.76842 1.66477C6.14052 1.10434 6.65751 0.655188 7.26444 0.365056C7.87137 0.0749249 8.54557 -0.0453518 9.21539 0.0170114C9.8852 0.0793745 10.5256 0.322047 11.0685 0.719237C11.6115 1.11643 12.0367 1.65329 12.2989 2.27279C11.6752 2.87677 11.1798 3.60046 10.8425 4.40047C10.5051 5.20049 10.3327 6.06037 10.3356 6.9286Z" fill="#707175"/>
<path d="M12.2987 11.5838C10.1997 12.4852 8.41065 13.9815 7.15217 15.8879C5.89369 17.7943 5.22089 20.0275 5.21679 22.3118V22.4801C3.45223 22.1553 1.74597 21.5692 0.154286 20.7411C0.0503257 20.2052 -0.00133737 19.6604 2.63036e-05 19.1144C0.000398125 16.7639 0.934285 14.5098 2.59632 12.8478C4.25835 11.1858 6.51244 10.2519 8.86291 10.2515C9.77389 10.2441 10.6795 10.3911 11.5414 10.6863C11.7587 11.0134 12.0128 11.3145 12.2987 11.5838ZM28.6081 3.71656C28.6082 4.20648 28.5119 4.69163 28.3245 5.14429C28.1371 5.59695 27.8623 6.00824 27.5159 6.35466C27.1695 6.70109 26.7582 6.97585 26.3055 7.16325C25.8529 7.35065 25.3677 7.44701 24.8778 7.44682C24.3649 7.44681 23.8581 7.33682 23.3913 7.12428C23.4035 7.05959 23.4082 6.99371 23.4053 6.92795C23.4082 6.05972 23.2359 5.19983 22.8985 4.39982C22.5611 3.5998 22.0658 2.87612 21.442 2.27213C21.778 1.48146 22.3766 0.830941 23.1366 0.430399C23.8966 0.0298559 24.7716 -0.0961756 25.6138 0.0735778C26.4559 0.243331 27.2138 0.698471 27.7593 1.36217C28.3048 2.02586 28.6046 2.85745 28.6081 3.71656ZM33.7407 19.1144C33.742 19.6604 33.6904 20.2052 33.5864 20.7411C31.9947 21.5692 30.2885 22.1553 28.5239 22.4801V22.3118C28.5198 20.0275 27.847 17.7943 26.5885 15.8879C25.3301 13.9815 23.541 12.4852 21.442 11.5838C21.7279 11.3145 21.982 11.0134 22.1993 10.6863C23.0612 10.3911 23.9668 10.2441 24.8778 10.2515C27.2283 10.2519 29.4824 11.1858 31.1444 12.8478C32.8064 14.5098 33.7403 16.7639 33.7407 19.1144Z" fill="#707175"/>
</svg>
