<svg xmlns="http://www.w3.org/2000/svg" width="112" height="23" viewBox="0 0 112 23" fill="none">
<path fill-rule="evenodd" clip-rule="evenodd" d="M39.0348 0H32.647C32.2099 0 31.8381 0.317704 31.77 0.74909L29.1864 17.1297C29.135 17.453 29.3854 17.7443 29.7132 17.7443H32.7628C33.1999 17.7443 33.5717 17.4266 33.6399 16.9944L34.3367 12.5763C34.4039 12.1437 34.7766 11.8264 35.2128 11.8264H37.235C41.4429 11.8264 43.8712 9.79005 44.5057 5.75499C44.7914 3.98968 44.5178 2.60258 43.691 1.63088C42.7832 0.564517 41.1727 0 39.0348 0ZM39.7718 5.98279C39.4226 8.27501 37.6712 8.27501 35.9778 8.27501H35.0138L35.6901 3.994C35.7302 3.73551 35.9544 3.54489 36.216 3.54489H36.6578C37.8113 3.54489 38.8995 3.54489 39.4619 4.20234C39.7969 4.59483 39.8997 5.1775 39.7718 5.98279ZM58.1296 5.9093H55.0706C54.81 5.9093 54.5848 6.09993 54.5446 6.35884L54.4093 7.21427L54.1953 6.90434C53.5331 5.94302 52.0566 5.62186 50.5826 5.62186C47.2021 5.62186 44.3151 8.18208 43.7528 11.7737C43.4606 13.5649 43.876 15.2779 44.8922 16.4727C45.8245 17.571 47.1584 18.0288 48.7452 18.0288C51.4687 18.0288 52.9794 16.2773 52.9794 16.2773L52.8428 17.1275C52.7914 17.4526 53.0417 17.7439 53.3676 17.7439H56.1231C56.5614 17.7439 56.931 17.4262 57.0002 16.9939L58.6535 6.52397C58.7058 6.20194 58.4564 5.9093 58.1296 5.9093ZM53.8655 11.8631C53.5703 13.6107 52.1832 14.7839 50.4145 14.7839C49.5262 14.7839 48.8161 14.499 48.3605 13.9591C47.9083 13.4231 47.7363 12.6598 47.8803 11.81C48.156 10.0771 49.5664 8.8659 51.3084 8.8659C52.1768 8.8659 52.883 9.15421 53.3481 9.69884C53.8141 10.2491 53.9991 11.0168 53.8655 11.8631ZM71.3472 5.90887H74.4213C74.8518 5.90887 75.1029 6.3917 74.8583 6.74484L64.6344 21.5028C64.4689 21.7418 64.1961 21.884 63.9048 21.884H60.8346C60.4023 21.884 60.1499 21.3973 60.4002 21.0433L63.5836 16.5496L60.1979 6.61301C60.0807 6.26764 60.3358 5.90887 60.7032 5.90887H63.7237C64.1162 5.90887 64.4624 6.16649 64.5756 6.54212L66.3725 12.5435L70.6124 6.29833C70.7783 6.05454 71.0541 5.90887 71.3472 5.90887Z" fill="#253B80"/>
<path fill-rule="evenodd" clip-rule="evenodd" d="M104.675 17.1305L107.296 0.450407C107.337 0.191489 107.561 0.000864502 107.822 0H110.773C111.099 0 111.349 0.292201 111.298 0.615525L108.712 16.9953C108.645 17.4275 108.273 17.7452 107.835 17.7452H105.2C104.874 17.7452 104.623 17.4539 104.675 17.1305ZM84.5976 0.000865676H78.2086C77.7725 0.000865676 77.4007 0.318569 77.3324 0.749956L74.7489 17.1305C74.6975 17.4539 74.9477 17.7452 75.2741 17.7452H78.5522C78.857 17.7452 79.1176 17.523 79.1651 17.2205L79.8982 12.5772C79.9657 12.1445 80.3382 11.8273 80.7744 11.8273H82.7955C87.0043 11.8273 89.4322 9.79092 90.0672 5.75586C90.3538 3.99054 90.0784 2.60345 89.252 1.63175C88.3447 0.565383 86.7354 0.000865676 84.5976 0.000865676ZM85.3345 5.98365C84.9862 8.27588 83.2347 8.27588 81.5403 8.27588H80.5773L81.2546 3.99486C81.2948 3.73638 81.517 3.54576 81.7793 3.54576H82.2211C83.3739 3.54576 84.4631 3.54575 85.0251 4.20321C85.3605 4.59569 85.4625 5.17837 85.3345 5.98365ZM103.691 5.91017H100.634C100.371 5.91017 100.148 6.10079 100.109 6.35971L99.9733 7.21514L99.7585 6.90521C99.0963 5.94388 97.6206 5.62272 96.1467 5.62272C92.7661 5.62272 89.88 8.18295 89.3177 11.7745C89.0263 13.5658 89.44 15.2788 90.4562 16.4735C91.3903 17.5719 92.7224 18.0296 94.3092 18.0296C97.0328 18.0296 98.543 16.2781 98.543 16.2781L98.4069 17.1284C98.3554 17.4534 98.6057 17.7448 98.9338 17.7448H101.688C102.124 17.7448 102.496 17.4271 102.564 16.9948L104.218 6.52483C104.269 6.20281 104.019 5.91017 103.691 5.91017ZM99.427 11.864C99.1335 13.6116 97.7447 14.7847 95.9755 14.7847C95.089 14.7847 94.3775 14.4999 93.9215 13.96C93.4694 13.424 93.2995 12.6606 93.4417 11.8108C93.7188 10.0779 95.1274 8.86677 96.8694 8.86677C97.7382 8.86677 98.444 9.15508 98.9096 9.69971C99.3773 10.25 99.5623 11.0176 99.427 11.864Z" fill="#179BD7"/>
<path d="M5.53765 22.22L5.93629 19.6882L5.0484 19.6675H0.808594L3.75507 0.984351C3.76407 0.927943 3.7939 0.875354 3.83734 0.838012C3.88078 0.80067 3.93651 0.78009 3.99443 0.78009H11.1434C13.5168 0.78009 15.1546 1.27398 16.0098 2.24879C16.4107 2.70611 16.666 3.18398 16.7895 3.70988C16.919 4.26171 16.9214 4.92098 16.7948 5.72508L16.7856 5.78377V6.29898L17.1866 6.52613C17.5243 6.70522 17.7924 6.91025 17.9982 7.14501C18.3413 7.536 18.5631 8.03294 18.6568 8.62209C18.7536 9.22803 18.7215 9.94904 18.5631 10.7653C18.3802 11.7043 18.0844 12.5222 17.6851 13.1913C17.3176 13.8079 16.8497 14.3192 16.2942 14.7157C15.7637 15.0922 15.1333 15.3781 14.4207 15.561C13.7301 15.7407 12.9429 15.8316 12.0794 15.8316H11.523C11.1252 15.8316 10.7386 15.9748 10.4354 16.2317C10.1313 16.4939 9.92994 16.852 9.86829 17.2438L9.82639 17.4718L9.12213 21.9341L9.0901 22.098C9.08176 22.15 9.06728 22.1759 9.046 22.1935C9.02691 22.2093 8.99949 22.22 8.97272 22.22H5.53765Z" fill="#253B80"/>
<path d="M17.5646 5.84344C17.5433 5.97987 17.519 6.11934 17.4916 6.26263C16.5486 11.1032 13.3233 12.7754 9.2037 12.7754H7.10628C6.60255 12.7754 6.17802 13.1412 6.09948 13.6382L5.02554 20.4491L4.72146 22.3796C4.67034 22.7058 4.92199 23 5.25108 23H8.97136C9.4119 23 9.78597 22.6799 9.8553 22.2455L9.89194 22.0564L10.5925 17.6114L10.6374 17.3676C10.7059 16.9317 11.0808 16.6115 11.5214 16.6115H12.0778C15.682 16.6115 18.5036 15.1482 19.3283 10.9134C19.6728 9.14441 19.4944 7.66733 18.5828 6.62848C18.3071 6.31522 17.9648 6.05532 17.5646 5.84344Z" fill="#179BD7"/>
<path d="M16.5766 5.45049C16.4327 5.40857 16.2839 5.37046 16.1315 5.33616C15.9783 5.30264 15.8212 5.27291 15.6598 5.247C15.0942 5.15553 14.4746 5.11209 13.8107 5.11209H8.20736C8.06936 5.11209 7.93838 5.14333 7.821 5.19974C7.56256 5.32396 7.37059 5.56864 7.32407 5.86816L6.13188 13.4183L6.09766 13.6385C6.1762 13.1416 6.60073 12.7757 7.10446 12.7757H9.20188C13.3215 12.7757 16.547 11.1028 17.4897 6.26297C17.5178 6.11968 17.5415 5.98021 17.5628 5.84379C17.3243 5.71726 17.0659 5.60903 16.7877 5.51679C16.7192 5.49393 16.6484 5.47184 16.5766 5.45049Z" fill="#222D65"/>
<path d="M7.32732 5.86798C7.37383 5.56844 7.56602 5.32379 7.82424 5.20031C7.9425 5.1439 8.07282 5.11266 8.2106 5.11266H13.8142C14.4781 5.11266 15.0976 5.1561 15.663 5.24757C15.8247 5.27348 15.9818 5.3032 16.1349 5.33673C16.2874 5.37104 16.4359 5.40915 16.5801 5.45106C16.6516 5.47241 16.7225 5.4945 16.7918 5.51661C17.07 5.60883 17.3284 5.71783 17.5669 5.84359C17.8475 4.05476 17.5647 2.83681 16.5976 1.73393C15.5314 0.5198 13.6068 0 11.1443 0H3.99514C3.49207 0 3.06315 0.365826 2.98527 0.863533L0.00764056 19.7388C-0.0511573 20.1122 0.236909 20.4492 0.61339 20.4492H5.02718L6.13534 13.4181L7.32732 5.86798Z" fill="#253B80"/>
</svg>