<svg xmlns="http://www.w3.org/2000/svg" width="30" height="26" viewBox="0 0 30 26" fill="none">
<path fill-rule="evenodd" clip-rule="evenodd" d="M3.81251 18.2264H1.5439C1.38866 18.2264 1.25663 18.3392 1.23242 18.4924L0.31488 24.3098C0.296643 24.4246 0.385541 24.5281 0.501978 24.5281H1.58503C1.74027 24.5281 1.87231 24.4153 1.89652 24.2617L2.14399 22.6927C2.16786 22.5391 2.30021 22.4264 2.45514 22.4264H3.1733C4.66771 22.4264 5.53012 21.7032 5.75547 20.2702C5.85694 19.6433 5.75977 19.1507 5.46611 18.8056C5.14374 18.4269 4.57176 18.2264 3.81251 18.2264ZM4.07424 20.3511C3.95021 21.1652 3.32822 21.1652 2.72682 21.1652H2.38447L2.62464 19.6448C2.6389 19.553 2.71851 19.4853 2.8114 19.4853H2.9683C3.37797 19.4853 3.76446 19.4853 3.96418 19.7188C4.08315 19.8582 4.11968 20.0651 4.07424 20.3511ZM10.5939 20.325H9.50754C9.41498 20.325 9.335 20.3927 9.32072 20.4847L9.27267 20.7884L9.19669 20.6784C8.96151 20.337 8.43712 20.2229 7.91366 20.2229C6.71306 20.2229 5.68778 21.1322 5.48806 22.4077C5.38429 23.0438 5.53181 23.6522 5.89271 24.0765C6.22383 24.4665 6.69756 24.6291 7.26109 24.6291C8.22835 24.6291 8.76487 24.0071 8.76487 24.0071L8.71636 24.309C8.69809 24.4245 8.78697 24.5279 8.90272 24.5279H9.88134C10.037 24.5279 10.1682 24.4151 10.1928 24.2616L10.78 20.5433C10.7986 20.4289 10.71 20.325 10.5939 20.325ZM9.07956 22.4394C8.97471 23.0601 8.4821 23.4767 7.85394 23.4767C7.53848 23.4767 7.28627 23.3755 7.12447 23.1838C6.9639 22.9935 6.9028 22.7224 6.95392 22.4206C7.05186 21.8051 7.55276 21.375 8.1714 21.375C8.4798 21.375 8.73063 21.4774 8.89581 21.6708C9.06129 21.8662 9.12699 22.1389 9.07956 22.4394ZM15.2881 20.3249H16.3798C16.5327 20.3249 16.6219 20.4963 16.535 20.6217L12.9041 25.8628C12.8453 25.9477 12.7484 25.9982 12.645 25.9982H11.5546C11.4011 25.9982 11.3114 25.8254 11.4003 25.6997L12.5309 24.1038L11.3285 20.5749C11.2869 20.4523 11.3774 20.3249 11.5079 20.3249H12.5806C12.72 20.3249 12.843 20.4163 12.8832 20.5497L13.5213 22.6811L15.0271 20.4632C15.0861 20.3766 15.184 20.3249 15.2881 20.3249Z" fill="#253B80"/>
<path fill-rule="evenodd" clip-rule="evenodd" d="M27.1265 24.3098L28.0576 18.386C28.0718 18.294 28.1515 18.2264 28.2441 18.226H29.2922C29.408 18.226 29.4969 18.3298 29.4786 18.4446L28.5605 24.2617C28.5365 24.4152 28.4045 24.5281 28.249 24.5281H27.3129C27.1971 24.5281 27.1083 24.4246 27.1265 24.3098ZM19.9962 18.2264H17.7272C17.5723 18.2264 17.4403 18.3392 17.416 18.4924L16.4985 24.3098C16.4802 24.4246 16.5691 24.5281 16.685 24.5281H17.8492C17.9574 24.5281 18.05 24.4491 18.0669 24.3417L18.3272 22.6927C18.3512 22.539 18.4835 22.4264 18.6384 22.4264H19.3562C20.8509 22.4264 21.7132 21.7032 21.9387 20.2702C22.0405 19.6432 21.9427 19.1506 21.6492 18.8055C21.327 18.4268 20.7554 18.2264 19.9962 18.2264ZM20.2579 20.3511C20.1342 21.1651 19.5122 21.1651 18.9104 21.1651H18.5684L18.8089 19.6448C18.8232 19.553 18.9021 19.4853 18.9953 19.4853H19.1522C19.5616 19.4853 19.9484 19.4853 20.148 19.7188C20.2671 19.8582 20.3034 20.0651 20.2579 20.3511ZM26.777 20.325H25.6914C25.598 20.325 25.5188 20.3927 25.5049 20.4846L25.4568 20.7884L25.3805 20.6784C25.1453 20.3369 24.6213 20.2229 24.0978 20.2229C22.8972 20.2229 21.8722 21.1321 21.6725 22.4076C21.569 23.0438 21.716 23.6521 22.0769 24.0764C22.4086 24.4665 22.8817 24.6291 23.4452 24.6291C24.4125 24.6291 24.9489 24.007 24.9489 24.007L24.9005 24.309C24.8822 24.4244 24.9711 24.5279 25.0876 24.5279H26.0658C26.2207 24.5279 26.3527 24.4151 26.3769 24.2616L26.9644 20.5433C26.9824 20.4289 26.8935 20.325 26.777 20.325ZM25.2628 22.4394C25.1585 23.06 24.6653 23.4767 24.037 23.4767C23.7222 23.4767 23.4695 23.3755 23.3075 23.1838C23.147 22.9934 23.0866 22.7223 23.1371 22.4205C23.2355 21.8051 23.7358 21.375 24.3545 21.375C24.663 21.375 24.9137 21.4774 25.079 21.6708C25.2451 21.8662 25.3108 22.1388 25.2628 22.4394Z" fill="#179BD7"/>
<path d="M12.2073 16.1452L12.4863 14.3737L11.865 14.3593H8.89844L10.9601 1.28705C10.9664 1.24758 10.9872 1.21079 11.0176 1.18466C11.048 1.15853 11.087 1.14413 11.1275 1.14413H16.1296C17.7903 1.14413 18.9362 1.4897 19.5346 2.17176C19.8151 2.49173 19.9938 2.82609 20.0802 3.19405C20.1708 3.58016 20.1725 4.04144 20.0839 4.60405L20.0774 4.64511V5.0056L20.358 5.16452C20.5943 5.28983 20.7819 5.43329 20.9259 5.59754C21.166 5.87111 21.3212 6.21881 21.3867 6.63103C21.4544 7.05499 21.432 7.55947 21.3212 8.13061C21.1931 8.78762 20.9862 9.35982 20.7068 9.82804C20.4497 10.2595 20.1223 10.6172 19.7336 10.8946C19.3624 11.158 18.9214 11.358 18.4228 11.4861C17.9395 11.6118 17.3887 11.6754 16.7845 11.6754H16.3952C16.1169 11.6754 15.8464 11.7756 15.6343 11.9554C15.4215 12.1388 15.2806 12.3893 15.2374 12.6635L15.2081 12.823L14.7154 15.9452L14.6929 16.0599C14.6871 16.0963 14.677 16.1144 14.6621 16.1267C14.6487 16.1377 14.6295 16.1452 14.6108 16.1452H12.2073Z" fill="#253B80"/>
<path d="M20.6237 4.68689C20.6088 4.78234 20.5918 4.87993 20.5726 4.98018C19.9128 8.36704 17.6561 9.53706 14.7736 9.53706H13.3061C12.9536 9.53706 12.6566 9.79302 12.6016 10.1407L11.8502 14.9061L11.6374 16.2569C11.6017 16.4851 11.7777 16.691 12.008 16.691H14.6111C14.9193 16.691 15.181 16.467 15.2296 16.1631L15.2552 16.0308L15.7453 12.9207L15.7768 12.7501C15.8247 12.4451 16.0871 12.2211 16.3953 12.2211H16.7846C19.3065 12.2211 21.2807 11.1972 21.8578 8.23425C22.0988 6.99651 21.974 5.96303 21.3361 5.23616C21.1432 5.01698 20.9037 4.83513 20.6237 4.68689Z" fill="#179BD7"/>
<path d="M19.9336 4.41194C19.8329 4.38261 19.7288 4.35594 19.6221 4.33195C19.515 4.30849 19.4051 4.28769 19.2921 4.26956C18.8964 4.20557 18.4628 4.17517 17.9983 4.17517H14.0777C13.9811 4.17517 13.8895 4.19703 13.8074 4.2365C13.6265 4.32341 13.4922 4.49461 13.4597 4.70418L12.6255 9.98684L12.6016 10.1409C12.6565 9.79325 12.9536 9.53728 13.306 9.53728H14.7736C17.656 9.53728 19.9129 8.36674 20.5725 4.98042C20.5922 4.88016 20.6088 4.78258 20.6236 4.68712C20.4568 4.5986 20.2759 4.52287 20.0813 4.45833C20.0334 4.44234 19.9838 4.42688 19.9336 4.41194Z" fill="#222D65"/>
<path d="M13.4589 4.70404C13.4914 4.49445 13.6259 4.32327 13.8066 4.23688C13.8893 4.19741 13.9805 4.17555 14.0769 4.17555H17.9977C18.4622 4.17555 18.8957 4.20595 19.2913 4.26994C19.4045 4.28807 19.5144 4.30887 19.6215 4.33233C19.7282 4.35634 19.8321 4.383 19.933 4.41232C19.983 4.42726 20.0326 4.44272 20.0811 4.45819C20.2758 4.52271 20.4566 4.59898 20.6235 4.68697C20.8198 3.43536 20.6219 2.58319 19.9453 1.81153C19.1992 0.962021 17.8526 0.598328 16.1296 0.598328H11.1274C10.7754 0.598328 10.4753 0.854289 10.4208 1.20252L8.33738 14.4092C8.29624 14.6704 8.49779 14.9062 8.76122 14.9062H11.8495L12.6249 9.98669L13.4589 4.70404Z" fill="#253B80"/>
</svg>