<svg width="49" height="49" viewBox="0 0 49 49" fill="none" xmlns="http://www.w3.org/2000/svg">
<g clip-path="url(#clip0_1107_1830)">
<circle cx="24.6335" cy="24.6335" r="24.6335" fill="white"/>
<g clip-path="url(#clip1_1107_1830)">
<path d="M25.189 24.0117V26.3H22.3701V24.0117H25.189Z" fill="#69C0F5"/>
<path d="M33.3956 14.8062C33.3956 20.1454 29.117 24.5186 23.7813 24.5186C18.4959 24.5186 14.167 20.1963 14.167 14.8062C14.167 9.41603 18.4959 5.09375 23.7813 5.09375C29.0666 5.09375 33.3956 9.41603 33.3956 14.8062Z" fill="#4A8DBD"/>
<path d="M24.184 42.4691C29.57 42.4691 34.352 39.3672 37.3722 34.6381V33.0617C37.3722 28.2818 33.3453 24.3663 29.3687 23.5527L23.7813 38.8587L18.194 23.5527C14.2174 24.3663 10.1904 28.2818 10.1904 33.0617V33.2651C13.1603 38.757 18.2946 42.4691 24.184 42.4691Z" fill="#4A8DBD"/>
<path d="M24.8376 25.7383H23.7805H22.7234L20.1562 38.9594L23.7805 42.0104L27.4047 38.9594L24.8376 25.7383Z" fill="#5AB9F3"/>
</g>
</g>
<defs>
<clipPath id="clip0_1107_1830">
<rect width="49" height="49" fill="white"/>
</clipPath>
<clipPath id="clip1_1107_1830">
<rect width="27.1818" height="37.375" fill="white" transform="translate(10.1924 5.09766)"/>
</clipPath>
</defs>
</svg>
