<svg width="50" height="50" viewBox="0 0 50 50" fill="none" xmlns="http://www.w3.org/2000/svg">
<g clip-path="url(#clip0_10473_1006)">
<path d="M49.9995 25.0002C49.9995 11.1933 38.8067 0.000486612 24.9998 0.000486612C11.1928 0.000486612 0 11.1933 0 25.0002C0 38.8072 11.1928 50 24.9998 50C38.8067 50 49.9995 38.8072 49.9995 25.0002Z" fill="#602F5F"/>
<path d="M29.4619 34.9052C30.3157 35.7596 31.3623 36.4212 32.7394 36.9449C32.822 36.9724 32.9322 37 33.0148 37C33.1525 37 33.2903 36.9724 33.3729 36.9173L33.7309 36.7795C34.0064 36.6692 34.3093 36.5314 34.5847 36.3936C35.6589 35.8423 36.4852 35.1532 37.0911 34.3263C37.6419 33.6097 37.9449 32.8379 37.9725 32.0386C38 31.5149 38 30.9636 38 30.4399V28.0695C38 27.6009 37.7246 27.2977 37.2564 27.2426L37.0636 27.215C36.7881 27.1874 36.5403 27.1599 36.2924 27.1047C35.411 26.9118 34.5572 26.4983 33.5932 25.8368C33.4555 25.7266 33.2627 25.6163 33.0424 25.6163C32.7945 25.6163 32.6292 25.7266 32.4915 25.8368C31.2246 26.7189 30.0678 27.1599 28.8835 27.2426C28.5805 27.2701 28.0572 27.3804 28.0572 28.1246V29.3098C28.0572 30.1091 28.0572 30.9085 28.0572 31.7078C28.0572 32.0386 28.0847 32.3693 28.1674 32.7277C28.3602 33.4719 28.7733 34.1885 29.4619 34.9052ZM29.2415 28.3451C30.5085 28.2073 31.7203 27.7387 33.0148 26.8567V31.3771H36.7881C36.7881 31.57 36.7881 31.763 36.7606 31.9283C36.733 32.4796 36.5403 33.0033 36.1271 33.5546C35.6038 34.2437 34.9153 34.8225 34.0339 35.2911C33.7585 35.4289 33.5106 35.5391 33.2352 35.6494C33.1525 35.677 33.0975 35.7045 33.0148 35.7596V31.3771H29.2415C29.2415 30.6604 29.2415 29.9438 29.2415 29.2547V28.3451ZM19.3538 26.6913V22.3087C18.803 21.9504 18.4449 21.3164 18.4449 20.5998V16.0794C18.4449 13.8192 20.2627 12 22.5212 12H23.0169H23.5127C25.7712 12 27.589 13.8192 27.589 16.0794V20.6273C27.589 21.344 27.2309 21.9504 26.6801 22.3363V26.6913C26.6801 26.774 26.7076 26.8291 26.7903 26.8842C26.8729 26.9394 27.0106 26.9945 27.1758 27.0772C27.0381 27.3528 26.9555 27.6836 26.9555 28.0695V29.3649C26.9555 30.1367 26.9555 30.8809 26.9555 31.6527C26.9555 32.0662 27.0106 32.4796 27.0932 32.9206C27.3136 33.9129 27.8369 34.8225 28.6631 35.677C28.7182 35.7321 28.7733 35.7872 28.8284 35.8423H28.0021H18.0042H17.3157H12.5233C12.2203 35.8423 12 35.5943 12 35.3186V34.1885C12 32.5347 12.7987 30.9636 14.1483 29.9713C16.5169 28.2348 18.7479 27.1323 19.2436 26.8842C19.2987 26.8567 19.3538 26.774 19.3538 26.6913Z" fill="#FCCBFF"/>
</g>
<defs>
<clipPath id="clip0_10473_1006">
<rect width="50" height="50" fill="white"/>
</clipPath>
</defs>
</svg>
