<svg xmlns="http://www.w3.org/2000/svg" width="28" height="20" viewBox="0 0 28 20" fill="none">
<path d="M7.73128 12.6216C8.04225 12.4426 8.43988 12.55 8.61832 12.8618C8.79676 13.1736 8.68969 13.5724 8.37872 13.7513L7.53588 14.2386L8.37702 14.726C8.68799 14.9049 8.79505 15.3036 8.61662 15.6154C8.4382 15.9273 8.04058 16.0346 7.72959 15.8557L6.88844 15.3684V16.343C6.88844 16.7043 6.59617 16.9973 6.23592 16.9973C5.87568 16.9973 5.5834 16.7043 5.5834 16.343V15.3701L4.74396 15.8557C4.43299 16.0346 4.03536 15.9273 3.85692 15.6154C3.67848 15.3036 3.78555 14.9049 4.09652 14.726L4.93766 14.2386L4.09482 13.7513C3.78386 13.5724 3.6768 13.1737 3.85523 12.8618C4.03365 12.55 4.43127 12.4426 4.74226 12.6216L5.5834 13.1072V12.1342C5.5834 11.773 5.87568 11.4799 6.23592 11.4799C6.59617 11.4799 6.88844 11.773 6.88844 12.1342V13.1089L7.73128 12.6216ZM1.92516 12.1087C1.92516 12.4699 1.63288 12.763 1.27264 12.763C0.91239 12.763 0.620117 12.4699 0.620117 12.1087V9.46755C0.620117 9.10631 0.91239 8.81323 1.27264 8.81323H5.5888C5.94905 8.81323 6.24132 9.10631 6.24132 9.46755C6.24132 9.82878 5.94905 10.1219 5.5888 10.1219H1.92516V12.1087ZM5.5888 18.3569C5.94905 18.3569 6.24132 18.65 6.24132 19.0112C6.24132 19.3724 5.94905 19.6655 5.5888 19.6655H1.27264C0.91239 19.6655 0.620117 19.3724 0.620117 19.0112V16.3684C0.620117 16.0072 0.91239 15.7141 1.27264 15.7141C1.63288 15.7141 1.92516 16.0072 1.92516 16.3684V18.3569H5.5888Z" fill="white"/>
<path d="M23.0696 12.6216C23.3805 12.4426 23.7782 12.55 23.9566 12.8618C24.1351 13.1736 24.028 13.5724 23.717 13.7513L22.8759 14.2386L23.717 14.726C24.028 14.9049 24.135 15.3036 23.9566 15.6154C23.7782 15.9273 23.3806 16.0346 23.0696 15.8557L22.2284 15.3684V16.343C22.2284 16.7043 21.9362 16.9973 21.5759 16.9973C21.2157 16.9973 20.9234 16.7043 20.9234 16.343V15.3701L20.0839 15.8557C19.773 16.0346 19.3753 15.9273 19.1969 15.6154C19.0185 15.3036 19.1255 14.9049 19.4365 14.726L20.2776 14.2386L19.4348 13.7513C19.1238 13.5724 19.0168 13.1737 19.1952 12.8618C19.3736 12.55 19.7713 12.4426 20.0822 12.6216L20.9217 13.1072V12.1342C20.9217 11.773 21.214 11.4799 21.5742 11.4799C21.9345 11.4799 22.2267 11.773 22.2267 12.1342V13.1089L23.0696 12.6216ZM15.904 12.6216C16.215 12.4426 16.6126 12.55 16.7911 12.8618C16.9695 13.1736 16.8624 13.5724 16.5515 13.7513L15.7103 14.2386L16.5515 14.726C16.8624 14.9049 16.9695 15.3036 16.7911 15.6154C16.6126 15.9273 16.215 16.0346 15.904 15.8557L15.0629 15.3684V16.343C15.0629 16.7043 14.7706 16.9973 14.4104 16.9973C14.0501 16.9973 13.7578 16.7043 13.7578 16.343V15.3701L12.9184 15.8557C12.6074 16.0346 12.2098 15.9273 12.0314 15.6154C11.8529 15.3036 11.96 14.9049 12.271 14.726L13.1121 14.2386L12.2693 13.7513C11.9583 13.5724 11.8512 13.1737 12.0297 12.8618C12.2081 12.55 12.6057 12.4426 12.9167 12.6216L13.7562 13.1072V12.1342C13.7562 11.773 14.0484 11.4799 14.4087 11.4799C14.7689 11.4799 15.0612 11.773 15.0612 12.1342V13.1089L15.904 12.6216ZM22.2235 10.1219C21.8632 10.1219 21.571 9.82878 21.571 9.46755C21.571 9.10631 21.8632 8.81323 22.2235 8.81323H26.5396C26.8999 8.81323 27.1922 9.10631 27.1922 9.46755V12.1087C27.1922 12.4699 26.8999 12.763 26.5396 12.763C26.1794 12.763 25.8871 12.4699 25.8871 12.1087V10.1219H22.2235ZM25.8871 16.3684C25.8871 16.0072 26.1794 15.7141 26.5396 15.7141C26.8999 15.7141 27.1922 16.0072 27.1922 16.3684V19.0112C27.1922 19.3724 26.8999 19.6655 26.5396 19.6655H22.2235C21.8632 19.6655 21.571 19.3724 21.571 19.0112C21.571 18.65 21.8632 18.3569 22.2235 18.3569H25.8871V16.3684Z" fill="white"/>
<path fill-rule="evenodd" clip-rule="evenodd" d="M11.3106 4.59398C11.353 4.59376 11.3949 4.60194 11.4341 4.61805C11.4733 4.63416 11.5089 4.65787 11.539 4.68783L12.8605 6.01301C12.8851 6.0377 12.9143 6.05728 12.9464 6.07065C12.9785 6.08401 13.0129 6.09089 13.0477 6.09089C13.0825 6.09089 13.1169 6.08401 13.149 6.07065C13.1812 6.05728 13.2103 6.0377 13.2349 6.01301L15.8398 3.40089C15.9006 3.34067 15.9826 3.30699 16.068 3.30723C16.1534 3.30746 16.2352 3.34158 16.2956 3.40213C16.356 3.46268 16.39 3.54474 16.3902 3.63037C16.3905 3.716 16.3569 3.79824 16.2968 3.85912L13.2761 6.88818C13.2153 6.9486 13.1332 6.9825 13.0476 6.9825C12.962 6.9825 12.8799 6.9486 12.8191 6.88818L11.0811 5.14653C11.0358 5.10126 11.005 5.04355 10.9926 4.98071C10.9801 4.91787 10.9865 4.85273 11.011 4.79354C11.0355 4.73436 11.0769 4.6838 11.1301 4.64827C11.1833 4.61274 11.2458 4.59384 11.3097 4.59398H11.3106ZM10.7083 4.31242C10.8683 4.15271 11.0848 4.06304 11.3105 4.06304C11.5362 4.06304 11.7527 4.15271 11.9126 4.31242L13.0475 5.45037L15.4662 3.02595C15.6264 2.86834 15.8423 2.78054 16.0667 2.78164C16.2912 2.78275 16.5061 2.87266 16.6649 3.03184C16.8236 3.19101 16.9132 3.40658 16.9142 3.63167C16.9153 3.85675 16.8277 4.07315 16.6705 4.23382L13.6497 7.26311C13.4898 7.42284 13.2732 7.51251 13.0475 7.51251C12.8217 7.51251 12.6052 7.42284 12.4452 7.26311L10.7083 5.52123C10.5489 5.36091 10.4593 5.14372 10.4593 4.91729C10.4593 4.69087 10.5489 4.47368 10.7083 4.31336V4.31242ZM10.1641 1.6095C10.6269 1.14507 11.1765 0.776641 11.7814 0.525276C12.3863 0.273911 13.0346 0.144531 13.6894 0.144531C14.3442 0.144531 14.9925 0.273911 15.5974 0.525276C16.2023 0.776641 16.7519 1.14507 17.2147 1.6095C17.6779 2.07361 18.0453 2.62469 18.296 3.23125C18.5467 3.83781 18.6757 4.48795 18.6757 5.14453C18.6757 5.80111 18.5467 6.45126 18.296 7.05781C18.0453 7.66437 17.6779 8.21545 17.2147 8.67957C16.7519 9.144 16.2023 9.51242 15.5974 9.76379C14.9925 10.0152 14.3442 10.1445 13.6894 10.1445C13.0346 10.1445 12.3863 10.0152 11.7814 9.76379C11.1765 9.51242 10.6269 9.144 10.1641 8.67957C9.70092 8.21545 9.3335 7.66437 9.08283 7.05781C8.83215 6.45126 8.70312 5.80111 8.70312 5.14453C8.70312 4.48795 8.83215 3.83781 9.08283 3.23125C9.3335 2.62469 9.70092 2.07361 10.1641 1.6095Z" fill="white"/>
</svg>