<svg xmlns="http://www.w3.org/2000/svg" width="21" height="21" viewBox="0 0 21 21" fill="none">
<path d="M10.9688 0.764954C5.46875 0.764954 0.96875 5.22924 0.96875 10.765C0.96875 16.265 5.43304 20.765 10.9688 20.765C16.4688 20.765 20.9688 16.3007 20.9688 10.765C20.9688 5.26495 16.4688 0.764954 10.9688 0.764954ZM16.3973 9.8721L14.3259 11.8364C14.2545 11.9078 14.2188 12.015 14.2188 12.1221L14.7188 14.9435C14.8259 15.5864 14.183 16.0507 13.6116 15.765L11.1116 14.4078C11.0045 14.3721 10.8973 14.3721 10.7902 14.4078L8.29018 15.765C7.71875 16.0864 7.04018 15.5864 7.18304 14.9435L7.68304 12.1221C7.71875 12.015 7.68304 11.9078 7.57589 11.8364L5.50446 9.8721C5.04018 9.44353 5.29018 8.65781 5.93304 8.55067L8.75446 8.15781C8.86161 8.15781 8.96875 8.08638 9.00446 7.97924L10.2545 5.40781C10.5402 4.83638 11.3616 4.83638 11.6473 5.40781L12.8973 7.97924C12.933 8.08638 13.0402 8.15781 13.1473 8.15781L15.9688 8.55067C16.6116 8.65781 16.8616 9.44353 16.3973 9.8721Z" fill="white"/>
</svg>