<svg xmlns="http://www.w3.org/2000/svg" width="20" height="21" viewBox="0 0 20 21" fill="none">
<path d="M19.3037 4.31353H16.9129C17.8246 3.40853 18.1904 2.37103 17.7971 1.4777C17.4404 0.666029 16.5504 0.201029 15.3554 0.201029C14.5254 0.201029 13.5637 0.420195 12.6554 0.820195C11.7046 1.2377 10.8779 1.81603 10.3112 2.45186C9.74625 1.81603 8.91792 1.2377 7.97042 0.820195C7.05792 0.420195 6.09708 0.200195 5.26708 0.200195C4.06958 0.200195 3.17875 0.665195 2.82625 1.4752C2.43208 2.3702 2.79792 3.40853 3.70792 4.31186H1.31542C1.12458 4.31186 0.96875 4.46603 0.96875 4.65853V8.84519C0.96875 9.03436 1.12542 9.1902 1.31542 9.1902H2.52292H9.64208V4.31353H9.80458H10.8171H10.9762V9.18936H18.0987H19.3029C19.4946 9.18936 19.6496 9.03436 19.6496 8.84519V4.65853C19.6521 4.46686 19.4971 4.31353 19.3037 4.31353ZM8.53042 4.24936C7.99208 4.24936 7.30958 4.0877 6.66542 3.80353C5.51125 3.29936 4.92042 2.6427 4.77708 2.33436C4.86958 2.3052 5.02458 2.27436 5.26708 2.27436C5.80708 2.27436 6.49125 2.43603 7.13542 2.7202C8.28792 3.22353 8.87708 3.88103 9.02375 4.1902C8.93292 4.21853 8.77625 4.24936 8.53042 4.24936ZM13.9587 3.80353C13.3112 4.0877 12.6304 4.24936 12.0937 4.24936C11.8462 4.24936 11.6904 4.21853 11.6021 4.18936C11.7454 3.88103 12.3312 3.22353 13.4854 2.71936C14.1329 2.4352 14.8121 2.27353 15.3554 2.27353C15.5996 2.27353 15.7546 2.30436 15.8471 2.33353C15.7037 2.6427 15.1112 3.29936 13.9587 3.80353Z" fill="white"/>
<path d="M10.9766 10.5336V20.2002H17.7541C17.9449 20.2002 18.0991 20.0461 18.0991 19.8536V10.5336H10.9766Z" fill="white"/>
<path d="M2.52344 10.5336V19.8536C2.52344 20.0461 2.67677 20.2002 2.86844 20.2002H9.8051V10.5336H2.52344Z" fill="white"/>
</svg>