<svg width="50" height="50" viewBox="0 0 50 50" fill="none" xmlns="http://www.w3.org/2000/svg">
<path d="M25 50C38.8071 50 50 38.8071 50 25C50 11.1929 38.8071 0 25 0C11.1929 0 0 11.1929 0 25C0 38.8071 11.1929 50 25 50Z" fill="#FFFDFC"/>
<path d="M37.5473 15H12.2621C11.7509 15 11.6739 15.2406 12.0911 15.5367L24.2294 24.1516C24.602 24.5335 25.2073 24.5335 25.58 24.1516L37.7183 15.5367C38.1354 15.2406 38.0585 15 37.5473 15Z" fill="#4A8DBD"/>
<path d="M38.8093 17.3875V33.262C38.8093 34.2214 38.0307 35.0001 37.0712 35.0001H12.7381C11.7787 35.0001 11 34.2214 11 33.262V17.3875C11 16.8758 11.3374 16.7029 11.7532 17.0009L24.2294 25.9555C24.602 26.3379 25.2073 26.3379 25.58 25.9555L38.0562 17.0009C38.4719 16.7029 38.8093 16.8758 38.8093 17.3875Z" fill="#4A8DBD"/>
</svg>
