<svg width="27" height="24" viewBox="0 0 27 24" fill="none" xmlns="http://www.w3.org/2000/svg">
<path d="M25.9431 10.8408L16.6098 1.50758C16.4398 1.33752 16.1835 1.28744 15.9599 1.37945C15.7363 1.47147 15.593 1.68929 15.593 1.93156V6.87475C14.9186 6.7641 14.236 6.70819 13.55 6.70819C6.67102 6.70819 1.07422 12.305 1.07422 19.184C1.07422 20.3615 1.23845 21.5275 1.56341 22.6491C1.63795 22.9053 1.87089 23.0812 2.13648 23.0812C2.40204 23.0812 2.635 22.9053 2.70955 22.6491C4.09327 17.8514 8.55443 14.5005 13.551 14.5005C14.237 14.5005 14.9231 14.5634 15.594 14.6857V20.5979C15.594 20.839 15.7396 21.0569 15.9609 21.15C16.1845 21.2421 16.4408 21.192 16.6108 21.0219L25.9441 11.6887C26.0571 11.5757 26.12 11.4266 26.12 11.2682C26.12 11.1097 26.0571 10.9583 25.9441 10.8477L25.9431 10.8408ZM16.7834 19.1573V14.2106C16.7892 13.9333 16.6017 13.6794 16.3186 13.6142C15.4124 13.408 14.4818 13.3044 13.5453 13.3044C8.73602 13.3044 4.37994 16.1103 2.31953 20.3324C2.28109 19.9504 2.26013 19.566 2.26013 19.1816C2.26013 12.9584 7.32319 7.89857 13.5432 7.89857C14.3899 7.89857 15.2344 7.99408 16.0509 8.17928C16.3724 8.25382 16.6915 8.05116 16.7637 7.72852C16.7754 7.68077 16.7789 7.63069 16.7789 7.58293V3.3664L24.6746 11.2589L16.7789 19.1546L16.7834 19.1573Z" fill="#707175" stroke="#707175" stroke-width="0.921033"/>
</svg>
