<svg
            xmlns="http://www.w3.org/2000/svg"
            viewBox="0 0 31 30"
            fill="none"
            className="h-[14px] w-[14px] tablet:h-[31px] tablet:w-[31px]"
          >
            <path
              d="M24.7022 28.1248H11.1396C9.98347 28.1248 8.87465 27.6803 8.05711 26.8891C7.23956 26.0979 6.78027 25.0249 6.78027 23.906V10.781C6.78027 9.66213 7.23956 8.58907 8.05711 7.7979C8.87465 7.00673 9.98347 6.56226 11.1396 6.56226H24.7022C25.8583 6.56226 26.9672 7.00673 27.7847 7.7979C28.6022 8.58907 29.0615 9.66213 29.0615 10.781V23.906C29.0615 25.0249 28.6022 26.0979 27.7847 26.8891C26.9672 27.6803 25.8583 28.1248 24.7022 28.1248Z"
              fill="#707175"
            />
            <path
              d="M9.68847 4.68799H23.9703C23.6689 3.86606 23.112 3.15452 22.3762 2.65097C21.6404 2.14742 20.7616 1.87654 19.8603 1.87549H6.29785C5.14167 1.87549 4.03285 2.31996 3.21531 3.11113C2.39777 3.9023 1.93848 4.97536 1.93848 6.09424V19.2192C1.93956 20.0914 2.21947 20.9418 2.73981 21.6539C3.26014 22.366 3.9954 22.9049 4.84473 23.1966V9.37549C4.84473 8.13228 5.35505 6.94 6.26343 6.06092C7.17181 5.18185 8.40383 4.68799 9.68847 4.68799Z"
              fill="#707175"
            />
          </svg>