<svg width="50" height="50" viewBox="0 0 50 50" fill="none" xmlns="http://www.w3.org/2000/svg">
<g clip-path="url(#clip0_10266_1995)">
<g clip-path="url(#clip1_10266_1995)">
<path d="M50.1646 25.0139C50.1646 11.2069 38.9718 0.0141585 25.1648 0.0141585C11.3578 0.0141585 0.165039 11.2069 0.165039 25.0139C0.165039 38.8209 11.3578 50.0137 25.1648 50.0137C38.9718 50.0137 50.1646 38.8209 50.1646 25.0139Z" fill="white"/>
<g clip-path="url(#clip2_10266_1995)">
<path d="M25.7813 12.5C26.5474 12.6167 27.3013 12.7832 28.0015 13.1265C30.3994 14.3008 31.8467 16.1938 32.1885 18.853C32.6812 22.6885 30.0781 25.9985 26.6387 26.793C26.1067 26.9113 25.5635 26.9718 25.0186 26.9736C22.8818 26.9985 20.7871 27.2749 18.7891 28.082C17.7729 28.4927 16.8208 29.0161 15.9658 29.708C14.9775 30.5073 14.501 31.5522 14.4727 32.8101C14.4604 33.3306 14.4697 33.8516 14.4727 34.3726C14.4727 35.1538 14.8447 35.5293 15.6245 35.5293H28.564C28.7104 35.5293 28.8569 35.5151 29 35.5635C29.3779 35.6919 29.6265 35.9468 29.6948 36.3403C29.7661 36.7515 29.6274 37.0957 29.2822 37.3423C29.1923 37.3998 29.0994 37.4524 29.0039 37.5H14.9414C14.4829 37.3853 14.0459 37.2261 13.6621 36.9375C13.0273 36.4614 12.6719 35.8179 12.5 35.0586V32.0312C12.6201 31.4331 12.7637 30.8438 13.019 30.2837C13.6191 28.9697 14.6558 28.0771 15.8418 27.3271C17.2026 26.4668 18.6802 25.8877 20.2412 25.5098C20.3145 25.4922 20.4238 25.5098 20.4497 25.4155C20.4688 25.3481 20.3823 25.3135 20.335 25.2715C18.3945 23.5625 17.5029 21.4199 17.8164 18.8521C18.145 16.1826 19.6089 14.2871 22.0215 13.1177C22.7158 12.7812 23.4619 12.6182 24.2188 12.5H25.7813ZM19.7446 19.7183C19.7915 22.6616 22.0703 24.9683 25 24.9702C27.9072 24.9702 30.2427 22.6899 30.2446 19.7217C30.2446 16.8408 27.9927 14.4971 25.0156 14.4829C22.1084 14.4707 19.8022 16.7559 19.7446 19.7183Z" fill="#707175"/>
<path d="M32.3244 37.4999C31.8209 37.2773 31.5993 36.9013 31.6168 36.3417C31.6427 35.5375 31.6237 34.7304 31.6237 33.9267C31.6237 33.6117 31.6237 33.6112 31.297 33.6108C30.4513 33.6108 29.6056 33.6108 28.7579 33.6108C28.1461 33.6108 27.7189 33.203 27.716 32.6269C27.7135 32.0351 28.1388 31.6259 28.7633 31.6244C29.6251 31.6244 30.4869 31.6176 31.3512 31.6283C31.5661 31.6308 31.631 31.5658 31.6286 31.3515C31.6178 30.4652 31.6212 29.579 31.6286 28.6923C31.6296 28.467 31.7077 28.2489 31.8498 28.0741C31.9919 27.8993 32.1895 27.7784 32.4098 27.7314C32.635 27.6854 32.8691 27.7175 33.0737 27.8222C33.2783 27.9269 33.4413 28.098 33.5358 28.3075C33.5943 28.451 33.6208 28.6054 33.6134 28.7602C33.6134 29.5977 33.6134 30.4351 33.6134 31.2724C33.6134 31.6235 33.6134 31.6235 33.9552 31.6239C34.7521 31.6239 35.5494 31.643 36.3478 31.6171C36.9078 31.599 37.2838 31.8207 37.5065 32.3246V32.9106C37.2838 33.413 36.9088 33.6347 36.3497 33.6176C35.5221 33.5927 34.6935 33.6176 33.8654 33.6078C33.6735 33.6078 33.6119 33.6679 33.6139 33.8593C33.6222 34.6894 33.5988 35.5165 33.6242 36.3437C33.6412 36.9028 33.4186 37.2778 32.9166 37.5004L32.3244 37.4999Z" fill="#707175"/>
</g>
</g>
</g>
<defs>
<clipPath id="clip0_10266_1995">
<rect width="50" height="50" fill="white"/>
</clipPath>
<clipPath id="clip1_10266_1995">
<rect width="50" height="50" fill="white"/>
</clipPath>
<clipPath id="clip2_10266_1995">
<rect width="25" height="25" fill="white" transform="translate(12.5 12.5)"/>
</clipPath>
</defs>
</svg>
