<svg width="38" height="17" viewBox="0 0 38 17" fill="none" xmlns="http://www.w3.org/2000/svg">
<path fill-rule="evenodd" clip-rule="evenodd" d="M20.4218 2.8737L17.8289 3.43015V1.32801L20.4218 0.78186V2.8737ZM9.88369 1.97721L7.36319 2.51306L7.35286 10.7671C7.35286 12.2922 8.49948 13.4154 10.0283 13.4154C10.8754 13.4154 11.4952 13.2608 11.836 13.0753V10.9835C11.5055 11.1174 9.87336 11.5914 9.87336 10.0664V6.40821H11.836V4.21332H9.87336L9.88369 1.97721ZM3.78057 6.27425C3.23309 6.27425 2.90253 6.42882 2.90253 6.8307C2.90253 7.26949 3.47142 7.46251 4.1772 7.70197C5.32778 8.09236 6.84215 8.60617 6.84856 10.5095C6.84856 12.354 5.37138 13.4154 3.22276 13.4154C2.33438 13.4154 1.36337 13.2402 0.402692 12.828V10.3755C1.2704 10.8495 2.36537 11.1999 3.22276 11.1999C3.80123 11.1999 4.21443 11.0453 4.21443 10.5713C4.21443 10.0852 3.59774 9.86308 2.85322 9.59487C1.71937 9.18641 0.289062 8.67115 0.289062 6.95436C0.289062 5.13043 1.6836 4.03814 3.78057 4.03814C4.63795 4.03814 5.48501 4.1721 6.34239 4.51216V6.93375C5.55732 6.51126 4.56565 6.27425 3.78057 6.27425ZM33.7504 4.03815C36.1985 4.03815 37.4795 6.11969 37.4795 8.75767C37.4795 8.90014 37.4726 9.13834 37.4668 9.34032C37.4625 9.48897 37.4588 9.61799 37.4588 9.67479H32.4075C32.5211 10.8907 33.4095 11.2411 34.4115 11.2411C35.4341 11.2411 36.2399 11.0247 36.9423 10.6743V12.7353C36.2399 13.1268 35.3102 13.4051 34.0809 13.4051C31.5604 13.4051 29.8044 11.8388 29.8044 8.73707C29.8044 6.11969 31.2919 4.03815 33.7504 4.03815ZM33.7428 6.13001C33.092 6.13001 32.3792 6.61433 32.3792 7.77875H35.0443C35.0443 6.61433 34.3729 6.13001 33.7428 6.13001ZM15.0529 4.97587L14.8877 4.21333H12.6564V13.2299H15.2389V7.11924C15.8483 6.32578 16.8813 6.47004 17.2016 6.58339V4.21333C16.871 4.08967 15.6624 3.86297 15.0529 4.97587ZM17.8289 4.21331H20.4218V13.2299H17.8289V4.21331ZM25.8147 4.03815C24.8023 4.03815 24.1515 4.51217 23.79 4.84192L23.6557 4.20303H21.3831V16.2182L23.9656 15.6721L23.9759 12.7559C24.3478 13.0238 24.8953 13.4051 25.8043 13.4051C27.6534 13.4051 29.3372 11.9212 29.3372 8.65463C29.3268 5.66629 27.6224 4.03815 25.8147 4.03815ZM25.193 11.138C24.5835 11.138 24.2219 10.9216 23.974 10.6537L23.9637 6.83071C24.2323 6.53188 24.6042 6.32579 25.193 6.32579C26.133 6.32579 26.7838 7.37686 26.7838 8.72676C26.7838 10.1076 26.1433 11.138 25.193 11.138Z" fill="#6461FC"/>
</svg>
