<svg width="46" height="46" viewBox="0 0 46 46" fill="none" xmlns="http://www.w3.org/2000/svg">
<circle cx="22.7747" cy="22.7747" r="22.7747" fill="url(#paint0_linear_2241_3838)"/>
<g clip-path="url(#clip0_2241_3838)">
<path d="M22.323 33.6987C26.7209 33.7325 30.0949 31.85 32.5506 28.218C33.4574 26.8769 33.8349 25.3817 34.0004 23.8031C34.07 23.1351 34.1828 22.4725 34.2957 21.8109C34.4865 20.6987 34.263 19.6245 33.9393 18.582C32.5032 13.9412 29.4033 11.0352 24.6511 10.1034C18.0643 8.8108 11.8096 13.3598 10.7404 19.9294C10.5432 21.1419 10.8058 22.2857 10.9639 23.4528C11.1748 25.0356 11.4321 26.6046 11.6419 28.1843C11.7474 28.9408 11.4542 29.3977 10.7372 29.6499C10.055 29.8895 9.35914 30.1079 8.62106 30.0277C7.62149 29.9222 6.85073 29.3893 6.23496 28.6243C5.22485 27.3718 4.7588 25.9135 4.63438 24.3222C4.53038 23.177 4.67424 22.0228 5.05614 20.9382C5.60443 19.4219 6.58713 18.277 8.19087 17.9362C8.87096 17.7916 9.0618 17.4824 9.28323 16.9242C11.2866 11.873 14.9464 8.75593 20.2985 7.88222C25.1319 7.09399 29.3136 8.59554 32.7404 12.103C34.2071 13.6035 35.2351 15.3931 35.8836 17.3927C35.9806 17.6914 36.105 17.8359 36.4477 17.8634C37.887 17.9773 38.9308 18.7466 39.5287 20.0244C40.9289 23.017 40.7085 25.9071 38.7663 28.6074C38.5014 28.9876 38.1623 29.3103 37.7694 29.5558C37.3765 29.8014 36.9381 29.9647 36.4804 30.0361C35.8846 30.1332 35.3279 29.9623 34.7796 29.7882C34.4011 29.6679 34.1881 29.7238 33.9361 30.072C32.0118 32.7406 29.456 34.526 26.2981 35.4335C26.0134 35.5158 25.8953 35.6445 25.8584 35.9358C25.7318 36.9414 25.2416 37.355 24.223 37.3561C23.04 37.3561 21.8559 37.3561 20.6718 37.3561C19.7755 37.3561 19.2473 36.8865 19.1271 35.9991C19.077 35.6191 19.0887 35.2335 19.1619 34.8574C19.2158 34.5763 19.3544 34.3185 19.5592 34.1187C19.7639 33.919 20.0249 33.7867 20.307 33.7399C20.9681 33.6259 21.6461 33.7177 22.323 33.6987Z" fill="white"/>
</g>
<defs>
<linearGradient id="paint0_linear_2241_3838" x1="3.00324" y1="27.3295" x2="41.1558" y2="17.7639" gradientUnits="userSpaceOnUse">
<stop stop-color="#6BA5CF"/>
<stop offset="1" stop-color="#389CE3"/>
</linearGradient>
<clipPath id="clip0_2241_3838">
<rect width="35.8253" height="29.6838" fill="white" transform="translate(4.60645 7.67651)"/>
</clipPath>
</defs>
</svg>
