<svg xmlns="http://www.w3.org/2000/svg" width="26" height="22" viewBox="0 0 26 22" fill="none">
<path d="M10.7036 16.9013H11.1288C11.3588 16.9013 11.546 16.7141 11.546 16.4841V15.8396C12.2361 15.7433 12.8084 15.4972 13.2551 15.1041C13.806 14.62 14.0842 13.9407 14.0842 13.0848C14.0842 12.2798 13.8354 11.6539 13.3487 11.2207C12.9448 10.865 12.3484 10.6002 11.5327 10.4183V7.67694C11.7466 7.72509 11.9365 7.7973 12.1023 7.89091C12.3805 8.0487 12.6078 8.25999 12.7977 8.53546C12.8619 8.62907 12.9635 8.69326 13.0732 8.70931C13.1855 8.72535 13.3005 8.69861 13.3915 8.63175L13.7926 8.3322C13.9718 8.19847 14.0119 7.94707 13.8862 7.76253C13.6001 7.34531 13.2283 7.00564 12.7843 6.75156C12.434 6.55365 12.0194 6.41992 11.546 6.35574V5.7085C11.546 5.4785 11.3588 5.29128 11.1288 5.29128H10.7036C10.4736 5.29128 10.2863 5.4785 10.2863 5.7085V6.34504C9.60702 6.41992 9.03467 6.63388 8.58268 6.97622C8.00498 7.41752 7.71079 8.0594 7.71079 8.88315C7.71079 9.65876 7.96487 10.2659 8.465 10.6911C8.8742 11.0361 9.47062 11.3036 10.2863 11.5042V14.5237C9.99215 14.4675 9.73807 14.3712 9.52678 14.2402C9.19514 14.0343 8.8956 13.7615 8.63617 13.4271C8.56663 13.3389 8.465 13.28 8.35267 13.2693C8.24034 13.2587 8.12801 13.2907 8.04243 13.3603L7.64125 13.6866C7.46741 13.8283 7.43531 14.0824 7.57171 14.2643C7.91138 14.7136 8.3286 15.0907 8.81536 15.3822C9.22189 15.6283 9.71667 15.7861 10.289 15.8503V16.4868C10.2863 16.7141 10.4736 16.9013 10.7036 16.9013ZM11.5353 11.7556C12.0114 11.8893 12.2682 12.0417 12.4046 12.1594C12.6265 12.3547 12.7362 12.6622 12.7362 13.1062C12.7362 13.5609 12.6051 13.8979 12.3377 14.1386C12.1371 14.3178 11.867 14.4461 11.5353 14.5157V11.7556ZM9.68725 9.91551C9.46259 9.8112 9.29945 9.67748 9.20584 9.52236C9.10956 9.35921 9.05874 9.13723 9.05874 8.8564C9.05874 8.45255 9.18177 8.16905 9.44387 7.97114C9.65516 7.81067 9.93866 7.70101 10.2863 7.6502V10.1348C10.0537 10.0653 9.85307 9.99307 9.68725 9.91551ZM24.71 9.7069C24.4746 9.45549 24.0788 9.4448 23.8274 9.68015L20.6929 12.6355C20.7704 12.1273 20.8132 11.6138 20.8132 11.095C20.8132 5.58013 16.3254 1.09497 10.8132 1.09497C5.30105 1.09497 0.810547 5.58013 0.810547 11.095C0.810547 16.6098 5.29838 21.095 10.8105 21.095C12.5436 21.095 14.2526 20.643 15.753 19.7898C16.0526 19.6186 16.1569 19.2362 15.9857 18.9366C15.8146 18.6371 15.4321 18.5328 15.1326 18.704C13.822 19.4501 12.327 19.8433 10.8105 19.8433C5.98573 19.846 2.05954 15.9198 2.05954 11.095C2.05954 6.27015 5.98573 2.34397 10.8105 2.34397C15.6354 2.34397 19.5616 6.27015 19.5616 11.095C19.5616 11.6593 19.5027 12.2156 19.3957 12.7639L16.2826 9.46084C16.0446 9.20944 15.6514 9.19874 15.4 9.4341C15.1486 9.67213 15.1379 10.068 15.3733 10.3167L19.4653 14.6547C19.5883 14.7858 19.7541 14.85 19.9199 14.85C20.0751 14.85 20.2275 14.7938 20.3479 14.6788L24.6859 10.5868C24.9373 10.3515 24.948 9.95563 24.71 9.7069Z" fill="white" stroke="white" stroke-width="0.5"/>
</svg>