<svg xmlns="http://www.w3.org/2000/svg" viewBox="0 0 30.81 32.53"><defs><style>.cls-1{fill:#fff;}</style></defs><g id="Layer_2" data-name="Layer 2"><g id="Layer_1-2" data-name="Layer 1"><path class="cls-1" d="M30.21,0H.6A.6.6,0,0,0,0,.6V30.21a.6.6,0,0,0,.6.6H2.09v.92a.6.6,0,0,0,.6.6H7.3a.6.6,0,0,0,.6-.6v-.92H22.66v1.12a.6.6,0,0,0,.6.6h4.61a.6.6,0,0,0,.6-.6V30.81h1.74a.6.6,0,0,0,.6-.6V.6A.6.6,0,0,0,30.21,0ZM27.68,27.68H3.12V3.13H27.68Z"/><path class="cls-1" d="M5,5V8.54H4V12.5H5v5.44H4v3.94H5v3.78H25.61V5Zm2.1,18.54V21.89H8V18H7.07V12.5H8V8.55H7.06V7.13H23.5V23.57Z"/><path class="cls-1" d="M21.35,14.17A6.18,6.18,0,0,0,19,10.38a6.07,6.07,0,0,0-3-1.22,9.4,9.4,0,0,0-1.17,0c-.27,0-.6.07-.8.11a6.2,6.2,0,0,0-4.8,4.69,4.88,4.88,0,0,0-.13,1.33,4.47,4.47,0,0,0,.1,1.18A5.79,5.79,0,0,0,9.75,18a5.73,5.73,0,0,0,.93,1.39A6.18,6.18,0,0,0,14,21.28a6.27,6.27,0,0,0,2.85-.05,6.17,6.17,0,0,0,4.51-4.74,6.49,6.49,0,0,0,0-2.32ZM19.6,15.82a4.5,4.5,0,0,1-.45,1.43,5.1,5.1,0,0,1-.43.67L18,17.16l-.78.78.76.76a4.38,4.38,0,0,1-2,.85l-.14,0V18.51h-1.1v1.07c-.18,0-.5-.1-.71-.16a4.51,4.51,0,0,1-1.38-.71l.75-.76-.78-.78-.49.48-.27.27a5,5,0,0,1-.3-.45,4.13,4.13,0,0,1-.48-1.17,4.3,4.3,0,0,1-.09-.47H12V14.7H11a4.43,4.43,0,0,1,.47-1.47,7.36,7.36,0,0,1,.4-.62l.75.75.78-.77-.75-.76,0,0a4.55,4.55,0,0,1,2-.83h.08V12h1.1V11a3.4,3.4,0,0,1,.46.09,4.13,4.13,0,0,1,1.6.75l.05,0-.76.75.79.79.75-.75h0a4.37,4.37,0,0,1,.86,2.07H18.53v1.12Z"/><path class="cls-1" d="M17.12,15.67a1.84,1.84,0,0,1-.48.9,1.93,1.93,0,0,1-.88.52,3.15,3.15,0,0,1-.5,0l-.27,0a1.87,1.87,0,0,1-1.53-1.45,2.26,2.26,0,0,1,0-.86,1.88,1.88,0,0,1,.52-.88,1.84,1.84,0,0,1,.9-.48,2.12,2.12,0,0,1,.87,0,1.9,1.9,0,0,1,.87.52,1.81,1.81,0,0,1,.48.89A2.21,2.21,0,0,1,17.12,15.67Z"/></g></g></svg>