<svg width="31" height="32" viewBox="0 0 31 32" fill="none" xmlns="http://www.w3.org/2000/svg">
<path d="M15.2545 0.0163343C19.9681 0.0163343 24.6817 0.0326686 29.3953 0C30.2405 0 30.4518 0.294018 30.4518 1.07806C30.4356 10.552 30.4356 20.0259 30.4518 29.4834C30.4518 30.3328 30.143 30.6105 29.3466 30.5125C28.6314 30.4308 28.03 30.4798 28.1113 31.4762C28.1438 31.8356 27.8512 31.9826 27.5099 31.9826C26.2909 31.9826 25.0718 31.9662 23.8528 31.9826C23.3164 31.9826 23.2352 31.6396 23.2514 31.2149C23.2839 30.6758 23.0239 30.5125 22.52 30.5125C17.6439 30.5288 12.7677 30.5288 7.89158 30.5125C7.35521 30.5125 7.16016 30.7412 7.17642 31.2475C7.19267 31.8029 6.93261 32.0152 6.37998 31.9989C5.29098 31.9662 4.21823 31.9826 3.12922 31.9989C2.57659 32.0152 2.23527 31.8519 2.28403 31.2149C2.33279 30.5942 1.9752 30.5125 1.47134 30.5125C-0.0402647 30.5288 -0.00775722 30.6922 -0.00775722 28.9934C-0.00775722 19.7318 -0.00775722 10.4866 -0.00775722 1.22507C-0.00775722 0.0163343 -0.00775724 0.0163343 1.19502 0.0163343C5.89237 0.0163343 10.5735 0.0163343 15.2545 0.0163343ZM15.3196 4.03457C11.9388 4.03457 8.54173 4.05091 5.16095 4.01824C4.49454 4.01824 4.23448 4.23059 4.28324 4.91663C4.332 5.68434 4.2995 6.43572 4.28324 7.20343C4.28324 7.48111 4.2995 7.84047 3.97442 7.87314C3.21049 7.97114 3.29176 8.49384 3.29176 9.01654C3.29176 9.55557 3.30801 10.1109 3.29176 10.65C3.29176 11.091 3.32427 11.4667 3.89315 11.532C4.23448 11.5647 4.28324 11.8587 4.28324 12.1527C4.28324 13.9985 4.28324 15.8606 4.28324 17.7064C4.28324 17.9514 4.28324 18.2618 3.94191 18.2618C3.21049 18.2454 3.27551 18.7355 3.27551 19.2091C3.27551 19.8952 3.27551 20.5649 3.29176 21.2509C3.29176 21.5613 3.30801 21.888 3.71436 21.9206C4.23448 21.9696 4.2995 22.3127 4.2995 22.721C4.2995 23.5867 4.332 24.4688 4.28324 25.3345C4.26699 25.9062 4.44578 26.0369 5.01466 26.0859C6.96512 26.2492 8.91557 26.0369 10.8498 26.0696C13.5804 26.1022 16.311 26.1512 19.0417 26.1349C20.0982 26.1349 21.1547 26.0042 22.2112 26.0859C23.2677 26.1676 24.3242 26.1349 25.3807 26.0859C26.1446 26.0532 26.3234 25.7592 26.3234 25.0405C26.2909 18.3761 26.2909 11.7117 26.3234 5.03097C26.3234 4.16525 26.0308 3.98557 25.2506 4.00191C21.9349 4.05091 18.6191 4.03457 15.3196 4.03457Z" fill="white"/>
<path d="M15.3519 5.5853C18.1638 5.5853 20.992 5.60164 23.8039 5.56897C24.5191 5.56897 24.7629 5.81398 24.7466 6.51636C24.7304 12.266 24.7304 17.9994 24.7466 23.7491C24.7466 24.4024 24.4703 24.5984 23.8689 24.5984C18.1476 24.5821 12.4425 24.5821 6.72117 24.5984C6.05477 24.5984 5.7622 24.3534 5.82721 23.6837C5.85972 23.308 5.82721 22.916 5.84347 22.5403C5.84347 22.279 5.89223 22.0013 6.1848 21.9686C6.86745 21.9196 6.83495 21.4623 6.83495 20.9722C6.83495 20.4005 6.81869 19.8288 6.83495 19.2571C6.8512 18.7834 6.80244 18.3914 6.2173 18.3097C5.92474 18.2771 5.85972 18.0157 5.85972 17.7544C5.85972 15.8759 5.85972 13.9975 5.85972 12.119C5.85972 11.8577 5.89223 11.58 6.1848 11.5473C6.89996 11.4657 6.8512 10.9756 6.8512 10.4693C6.83495 9.97923 6.8512 9.4892 6.8512 8.99917C6.8512 8.47648 6.93247 7.97011 6.16854 7.85577C5.72969 7.79044 5.85972 7.28407 5.85972 6.94105C5.82721 5.56897 5.84347 5.56897 7.16002 5.56897C9.87441 5.5853 12.6213 5.5853 15.3519 5.5853ZM8.3303 15.2879C8.3303 19.1591 11.4348 22.2626 15.2382 22.23C19.0578 22.1973 22.0973 19.0938 22.0973 15.2225C22.0973 11.4003 18.944 8.2968 15.1244 8.31313C11.386 8.31313 8.3303 11.4657 8.3303 15.2879Z" fill="white"/>
<path d="M14.4422 9.96287C14.7835 9.89753 14.8485 10.1915 14.8648 10.5672C14.8648 10.8122 14.8485 11.1063 15.1899 11.1226C15.5962 11.1553 15.5962 10.8286 15.58 10.5509C15.5474 9.9792 15.8725 9.9302 16.3114 10.0119C16.8478 10.1262 17.3354 10.3386 17.823 10.5999C18.3756 10.8939 18.8632 11.2043 18.0993 11.8086C17.9042 11.972 17.8555 12.1517 18.0668 12.364C18.2618 12.56 18.4569 12.5437 18.6194 12.3477C19.2208 11.6126 19.5459 12.0537 19.8547 12.6254C20.131 13.1317 20.3098 13.6708 20.4398 14.2261C20.5536 14.7325 20.4073 14.9448 19.8872 14.9612C19.6597 14.9612 19.2696 14.7978 19.2858 15.2552C19.2858 15.5982 19.5784 15.5982 19.8222 15.5982C20.5049 15.5982 20.5699 15.9576 20.4073 16.5129C20.261 17.0193 20.0823 17.493 19.8384 17.9503C19.5296 18.522 19.2046 18.9467 18.6032 18.2117C18.4406 18.0157 18.2456 17.9993 18.0505 18.1954C17.8392 18.4077 17.9042 18.5874 18.0993 18.7507C18.782 19.2898 18.4731 19.6328 17.8717 19.9268C17.4491 20.1228 17.0428 20.3352 16.6039 20.4822C16.0513 20.6618 15.4824 20.7925 15.5637 19.8615C15.58 19.6164 15.4662 19.4368 15.1736 19.4531C14.881 19.4694 14.8323 19.6981 14.8485 19.9268C14.8973 20.6455 14.5072 20.6782 13.9708 20.5312C13.4832 20.3842 12.9956 20.2371 12.5405 19.9758C11.9879 19.6654 11.5003 19.3551 12.2642 18.7507C12.4592 18.6037 12.4917 18.3914 12.2967 18.179C12.0854 17.9667 11.8903 18.0483 11.7441 18.228C11.1914 18.9141 10.8664 18.571 10.5738 17.983C10.3137 17.4766 10.0699 16.954 9.95615 16.3986C9.85862 15.9412 9.9724 15.6635 10.4925 15.6309C10.7363 15.6145 11.1102 15.7125 11.0939 15.2879C11.0777 14.9285 10.7526 14.9938 10.525 14.9775C9.95615 14.9612 9.84237 14.6671 9.9724 14.1608C10.1024 13.6218 10.3137 13.1317 10.5738 12.6417C10.8826 12.0537 11.1914 11.629 11.7766 12.3967C11.9066 12.56 12.0854 12.6417 12.2642 12.462C12.4592 12.2987 12.508 12.07 12.3129 11.8903C11.484 11.1716 12.1342 10.8613 12.6868 10.5509C13.1907 10.2405 13.727 10.0609 14.4422 9.96287ZM15.1899 17.1826C16.2951 17.1826 17.0753 16.3822 17.0916 15.2879C17.0916 14.1118 16.3276 13.3441 15.1736 13.3441C14.1496 13.3441 13.2557 14.2425 13.2719 15.2715C13.2719 16.3006 14.1659 17.1826 15.1899 17.1826Z" fill="white"/>
</svg>
