<svg xmlns="http://www.w3.org/2000/svg" width="26" height="22" viewBox="0 0 26 22" fill="none">
<path d="M13.0859 0.675049C7.58594 0.675049 3.08594 5.13933 3.08594 10.675C3.08594 16.175 7.55022 20.675 13.0859 20.675C18.5859 20.675 23.0859 16.2108 23.0859 10.675C23.0859 5.17505 18.5859 0.675049 13.0859 0.675049ZM18.5145 9.78219L16.4431 11.7465C16.3717 11.8179 16.3359 11.925 16.3359 12.0322L16.8359 14.8536C16.9431 15.4965 16.3002 15.9608 15.7288 15.675L13.2288 14.3179C13.1217 14.2822 13.0145 14.2822 12.9074 14.3179L10.4074 15.675C9.83594 15.9965 9.15737 15.4965 9.30022 14.8536L9.80022 12.0322C9.83594 11.925 9.80022 11.8179 9.69308 11.7465L7.62165 9.78219C7.15737 9.35362 7.40737 8.56791 8.05022 8.46076L10.8717 8.06791C10.9788 8.06791 11.0859 7.99648 11.1217 7.88934L12.3717 5.31791C12.6574 4.74648 13.4788 4.74648 13.7645 5.31791L15.0145 7.88934C15.0502 7.99648 15.1574 8.06791 15.2645 8.06791L18.0859 8.46076C18.7288 8.56791 18.9788 9.35362 18.5145 9.78219Z" fill="white"/>
<path d="M2.40918 1.61865L23.7614 19.7317" stroke="white" stroke-width="3" stroke-linecap="round"/>
</svg>