<svg width="50" height="50" viewBox="0 0 50 50" fill="none" xmlns="http://www.w3.org/2000/svg">
<g clip-path="url(#clip0_7960_2248)">
<g clip-path="url(#clip1_7960_2248)">
<path d="M25 50C38.8071 50 50 38.8071 50 25C50 11.1929 38.8071 0 25 0C11.1929 0 0 11.1929 0 25C0 38.8071 11.1929 50 25 50Z" fill="#C8D4EC"/>
<g clip-path="url(#clip2_7960_2248)">
<path d="M25.002 33.5289C22.3603 33.5289 19.7185 33.5289 17.0767 33.5289C15.3939 33.5289 14.4904 32.6452 14.4838 30.973C14.4768 27.8751 14.4768 24.7732 14.4838 21.6673C14.4838 20.1734 14.9527 19.538 16.3991 19.0625C16.7795 18.937 16.835 18.6966 16.8416 18.3625C16.8654 17.2872 16.7861 16.2107 16.9512 15.1355C17.6037 10.8704 21.363 7.75967 25.5806 8.0146C29.8814 8.27878 33.2695 11.832 33.3619 16.1922C33.3778 16.9399 33.3699 17.6875 33.3619 18.4377C33.3619 18.7799 33.4544 18.9899 33.8388 19.0982C34.984 19.4324 35.5678 20.1126 35.581 21.2935C35.618 24.5957 35.6273 27.898 35.581 31.1909C35.5599 32.6862 34.6115 33.5183 33.111 33.5236C30.4124 33.5355 27.7072 33.5289 25.002 33.5289ZM25.0879 18.9872C26.385 18.9872 27.6821 18.9767 28.9806 18.9938C29.4508 18.9938 29.6648 18.838 29.641 18.3426C29.6133 17.5963 29.6582 16.8461 29.6225 16.0971C29.501 13.5544 27.5091 11.6721 25.0192 11.7091C22.5293 11.7461 20.6114 13.7076 20.5665 16.2504C20.5546 16.9319 20.5837 17.6148 20.5572 18.2951C20.5374 18.8102 20.7461 19.0004 21.2547 18.9925C22.5412 18.974 23.8119 18.9886 25.0879 18.9872ZM25.0245 29.2321C27.0243 29.2598 26.6096 29.0484 26.3256 27.6602C26.1935 27.042 26.1486 26.5163 26.5488 25.9298C27.0124 25.2522 26.7417 24.3263 26.0918 23.8045C25.7807 23.5748 25.403 23.4533 25.0163 23.4585C24.6296 23.4638 24.2553 23.5955 23.9506 23.8336C23.3232 24.3514 23.0854 25.2218 23.5385 25.9087C23.9268 26.4991 23.8925 27.046 23.7379 27.6562C23.3179 29.3113 23.3998 29.2426 25.0245 29.2321Z" fill="#0A4875"/>
<path d="M15.7536 37.0253C15.714 36.6291 15.6942 36.2698 16.282 36.2777C16.8248 36.2856 16.8592 36.6185 16.8697 37.0253C16.8882 37.802 16.9014 37.8113 17.5896 37.3992C17.9027 37.2129 18.1378 37.0729 18.3822 37.5114C18.6041 37.9077 18.501 38.09 18.1576 38.304C17.4219 38.7597 17.4285 38.7768 18.1999 39.2775C18.4535 39.4426 18.6741 39.5773 18.4865 39.9524C18.2844 40.3487 18.1021 40.5323 17.6398 40.2364C16.912 39.7688 16.8909 39.7979 16.8631 40.6327C16.8513 40.9761 16.8631 41.2931 16.3691 41.3209C15.8751 41.3486 15.7285 41.0924 15.6902 40.6512C15.6255 39.8983 15.603 39.8851 14.9333 40.2417C14.6044 40.4174 14.3838 40.4266 14.1751 40.07C13.9783 39.7358 13.9968 39.5007 14.3482 39.3131C14.4446 39.2616 14.5278 39.181 14.6256 39.1348C15.0905 38.905 15.0932 38.7134 14.6256 38.4479C14.3838 38.3158 13.9902 38.2524 13.9942 37.8588C13.9942 37.3661 14.4591 37.1297 14.8924 37.3741C14.9287 37.3986 14.9667 37.4207 15.006 37.4401C15.2226 37.5273 15.4154 37.8245 15.6387 37.7043C15.8619 37.5841 15.7074 37.2499 15.7536 37.0253Z" fill="#0A4875"/>
<path d="M20.3789 37.1704C20.5874 37.2759 20.7895 37.3936 20.9839 37.5231C21.4885 37.8969 21.6206 37.6948 21.5757 37.1678C21.5638 37.0357 21.5757 36.9036 21.5757 36.7715C21.5572 36.3885 21.7804 36.2828 22.1146 36.2775C22.4488 36.2722 22.6746 36.3792 22.6773 36.757C22.676 36.7786 22.676 36.8002 22.6773 36.8217C22.7552 37.6935 22.7631 37.7094 23.5662 37.2906C23.8885 37.1216 24.0431 37.2193 24.1963 37.4927C24.3495 37.7662 24.4697 37.9709 24.1223 38.2153C23.3681 38.7436 23.3681 38.7793 24.1356 39.3024C24.4816 39.5375 24.4645 39.7488 24.2676 40.0645C24.0708 40.3802 23.8714 40.5308 23.5359 40.2613C23.5184 40.2479 23.4998 40.236 23.4804 40.2257C22.7169 39.7845 22.7077 39.7832 22.6879 40.6616C22.6773 41.0288 22.6297 41.3075 22.1595 41.322C21.6893 41.3365 21.5334 41.1001 21.5743 40.6695C21.5836 40.5823 21.5743 40.4925 21.5743 40.4053C21.6298 39.8571 21.433 39.8056 20.9905 40.0672C20.6841 40.2481 20.3459 40.6404 19.9946 40.0817C19.7793 39.7396 19.7859 39.5177 20.1689 39.2826C20.9284 38.8163 20.9152 38.7965 20.1504 38.2681C19.9734 38.1453 19.7225 38.0396 19.8598 37.7622C19.9708 37.5324 20.0302 37.2457 20.3789 37.1704Z" fill="#0A4875"/>
<path d="M26.2706 37.2247C26.4344 37.3171 26.6325 37.4109 26.8135 37.5324C27.2177 37.7966 27.4594 37.7966 27.4171 37.2181C27.4052 37.0662 27.4171 36.9116 27.4171 36.7571C27.4171 36.3687 27.6707 36.2882 27.9917 36.2987C28.2823 36.308 28.5201 36.378 28.5201 36.7399C28.5201 36.7835 28.5201 36.8271 28.5201 36.872C28.5742 37.7966 28.5848 37.8098 29.3628 37.3766C29.7234 37.1758 29.907 37.2564 30.0985 37.5879C30.2768 37.897 30.2465 38.0846 29.9387 38.292C29.1964 38.7926 29.1911 38.8309 29.9387 39.2879C30.3469 39.5349 30.2663 39.7608 30.084 40.0923C29.8779 40.4648 29.6441 40.4609 29.343 40.2403C29.3246 40.2279 29.3057 40.2164 29.2862 40.2059C28.5386 39.7912 28.528 39.7898 28.5016 40.6762C28.491 41.0539 28.4184 41.3115 27.9613 41.3181C27.47 41.326 27.3881 41.0539 27.3828 40.6471C27.3735 39.807 27.3471 39.7872 26.5902 40.2403C26.2164 40.4622 26.0196 40.4014 25.807 40.0382C25.6194 39.7146 25.6656 39.5098 25.9853 39.3473C26.1794 39.2456 26.3644 39.1268 26.5546 39.0158C26.7672 38.893 26.7844 38.7701 26.5546 38.6367C26.3247 38.5033 26.1068 38.358 25.8822 38.2206C25.6841 38.0991 25.6009 37.9446 25.7502 37.7293C25.8822 37.5364 25.9351 37.2696 26.2706 37.2247Z" fill="#0A4875"/>
<path d="M36.1071 39.6394C36.1126 39.7535 36.0874 39.867 36.0341 39.9681C35.9809 40.0692 35.9015 40.1542 35.8043 40.2142C35.7071 40.2742 35.5955 40.3071 35.4813 40.3094C35.367 40.3116 35.2543 40.2833 35.1547 40.2272C35.1151 40.206 35.0781 40.1836 35.0398 40.1611C34.3424 39.7649 34.349 39.7649 34.3239 40.5574C34.316 40.8467 34.4229 41.198 33.9752 41.2971C33.464 41.4107 33.2394 41.2205 33.2196 40.6287C33.1906 39.7913 33.1879 39.786 32.4984 40.1915C32.2052 40.3645 31.9555 40.5693 31.6913 40.1149C31.4576 39.7107 31.5474 39.5046 31.9265 39.2761C32.6701 38.8297 32.6662 38.8006 31.8855 38.3238C31.5698 38.1322 31.4364 37.95 31.6464 37.5867C31.838 37.2552 32.0242 37.168 32.3835 37.3648C33.1681 37.7954 33.1985 37.7796 33.2302 36.9144C33.2513 36.357 33.5446 36.242 34.0108 36.32C34.4269 36.39 34.3411 36.7242 34.349 36.9963C34.3754 37.8509 34.3794 37.8628 35.0755 37.448C35.4163 37.2446 35.6672 37.1323 35.9393 37.5735C36.2299 38.0451 35.9301 38.1838 35.6157 38.3766C34.9553 38.7729 34.9553 38.7808 35.6302 39.2008C35.8244 39.325 36.0859 39.4029 36.1071 39.6394Z" fill="#0A4875"/>
</g>
</g>
</g>
<defs>
<clipPath id="clip0_7960_2248">
<rect width="50" height="50" fill="white"/>
</clipPath>
<clipPath id="clip1_7960_2248">
<rect width="50" height="50" rx="25" fill="white"/>
</clipPath>
<clipPath id="clip2_7960_2248">
<rect width="22.1064" height="33.33" fill="white" transform="translate(14 8)"/>
</clipPath>
</defs>
</svg>
