<svg width="49" height="49" viewBox="0 0 49 49" fill="none" xmlns="http://www.w3.org/2000/svg">
<circle cx="24.5" cy="24.5" r="24.5" fill="white"/>
<g clip-path="url(#clip0_1107_1810)">
<path d="M29.6555 17.3203H19.3027V22.1017H29.6555V17.3203Z" fill="white"/>
<path d="M29.6555 12.8926V16.2647H28.63V13.9495H20.3282V16.2647H19.3027V12.8926H29.6555Z" fill="white"/>
<path d="M18.2764 11.8359V16.265H20.3274V13.9498H28.6292V16.2147H30.6802V11.8359H18.2764ZM28.6292 17.3219V20.996H20.3274V17.3219H18.2764V23.1602H30.6802V17.3219H28.6292Z" fill="#4A8DBD"/>
<path d="M26.1381 24.6133H22.8174V27.6834H26.1381V24.6133Z" fill="#4A8DBD"/>
<path d="M37.1749 22.8027V35.4859H11.8301V22.1484L21.7922 25.9735V28.7417H27.1639V26.1245L37.1749 22.8027Z" fill="#4A8DBD"/>
<path d="M37.1749 17.3164V21.6951L27.1639 25.0169V23.5573H21.7922V24.8659L11.8301 21.0408V17.3164H37.1749Z" fill="#4A8DBD"/>
<path d="M26.1381 24.6133V25.9219L24.4777 26.4755L22.8174 25.8212V24.6133H26.1381Z" fill="#4A8DBD"/>
<path d="M37.1749 17.3164V21.6951L27.1639 25.0169V23.5573H21.7922V24.8659L11.8301 21.0408V17.3164H37.1749Z" fill="#4A8DBD"/>
<path d="M24.4777 25.9238L22.8174 25.2695V26.3768L24.4777 27.0311L26.1869 26.4775V25.3702L24.4777 25.9238Z" fill="white"/>
<path d="M26.1371 24.6191H22.8164V27.6893H26.1371V24.6191Z" fill="#4A8DBD"/>
</g>
<defs>
<clipPath id="clip0_1107_1810">
<rect width="25.3448" height="23.6552" fill="white" transform="translate(11.8262 11.8301)"/>
</clipPath>
</defs>
</svg>
