<svg xmlns="http://www.w3.org/2000/svg" width="21" height="21" viewBox="0 0 21 21" fill="none">
<path d="M14.3039 3.42877C14.3039 4.74193 11.2851 5.42904 8.3031 5.42904C5.32108 5.42904 2.30227 4.74193 2.30227 3.42877C2.30227 2.1156 5.32108 1.42849 8.3031 1.42849C11.2851 1.42849 14.3039 2.1156 14.3039 3.42877ZM16.3858 8.55513C15.049 7.70914 13.5553 7.28086 12.1778 7.3507C10.758 7.42232 9.62848 8.01094 8.99737 9.00799C7.71936 11.0271 8.95423 14.1096 11.7502 15.8792C12.993 16.6661 14.3723 17.0911 15.6664 17.0911C15.7641 17.0911 15.8614 17.0887 15.9581 17.0838C17.3779 17.0122 18.5075 16.4236 19.1386 15.4265C20.4164 13.4074 19.1817 10.3249 16.3858 8.55513ZM20.2642 16.1412L19.1954 17.8298C18.2511 19.3218 16.5183 20.0948 14.5735 20.095C13.0762 20.0951 11.4536 19.6371 9.96725 18.6963C7.84458 17.4152 6.15589 14.9858 6.09584 12.6097C3.01072 12.184 0.96875 10.9369 0.96875 9.42959V3.42877C0.96875 1.55937 4.19039 0.0949707 8.3031 0.0949707C12.4158 0.0949707 15.6374 1.55937 15.6374 3.42877V6.66833C16.1534 6.87753 16.648 7.12917 17.0989 7.42851C20.5166 9.59159 21.9374 13.5006 20.2642 16.1412ZM1.63551 3.42877C1.63551 4.7167 4.31475 6.0958 8.3031 6.0958C12.2914 6.0958 14.9707 4.7167 14.9707 3.42877C14.9707 2.14083 12.2914 0.76173 8.3031 0.76173C4.31475 0.76173 1.63551 2.14083 1.63551 3.42877ZM12.8851 6.0454C13.4464 6.07501 14.0109 6.1659 14.5632 6.31027C14.7916 6.06499 14.9707 5.76706 14.9707 5.42904V4.8332C14.4931 5.31129 13.7747 5.72441 12.8851 6.0454ZM1.63551 5.42904C1.63551 6.68611 4.19159 8.02631 8.02228 8.09001C8.44881 7.496 8.98272 7.03913 9.59126 6.71126C9.17362 6.74374 8.74438 6.76256 8.3031 6.76256C5.30207 6.76256 2.78213 5.98104 1.63551 4.8332V5.42904ZM1.63551 7.42932C1.63551 8.63853 3.85719 9.73231 6.7815 10.0185C6.78832 10.0074 6.794 9.99608 6.80094 9.98501C6.80094 9.98501 7.26943 9.24482 7.58637 8.7441C4.90531 8.63035 2.68926 7.88835 1.63551 6.83347V7.42932ZM6.12421 11.9406C6.17188 11.5049 6.27946 11.0752 6.45399 10.6585C4.27103 10.4089 2.53204 9.73048 1.63551 8.83412V9.42959C1.63551 10.5256 3.53138 11.5644 6.12421 11.9406ZM11.931 6.71486C8.78414 6.93155 7.03001 9.70393 8.18042 12.6406C9.71994 17.1471 17.0645 19.7746 19.7018 15.7832C22.1761 11.7031 16.6851 6.18277 11.931 6.71486Z" fill="white"/>
</svg>