<svg width="36" height="36" viewBox="0 0 36 36" fill="none" xmlns="http://www.w3.org/2000/svg">
<rect x="1.2" y="1.2" width="33.6" height="33.6" rx="3.5" fill="#DB0000" stroke="#1E1111" stroke-width="1.4"/>
<path d="M28.492 27.5H20.96V26.66C21.24 26.66 21.5293 26.6413 21.828 26.604C22.1267 26.5667 22.3787 26.4733 22.584 26.324C22.7893 26.1747 22.892 25.9413 22.892 25.624C22.892 25.4187 22.8547 25.1853 22.78 24.924C22.724 24.644 22.6027 24.2987 22.416 23.888L21.324 21.368H14.156L12.896 24.336C12.8213 24.56 12.7467 24.784 12.672 25.008C12.616 25.2133 12.588 25.4467 12.588 25.708C12.588 26.1 12.7373 26.3613 13.036 26.492C13.3347 26.604 13.8107 26.66 14.464 26.66V27.5H8.584V26.66C9.10667 26.66 9.52667 26.576 9.844 26.408C10.1613 26.24 10.4693 25.904 10.768 25.4C11.0667 24.8773 11.44 24.084 11.888 23.02L17.824 8.964H18.972L25.608 24.168C26.0187 25.0827 26.4107 25.7267 26.784 26.1C27.176 26.4733 27.7453 26.66 28.492 26.66V27.5ZM20.904 20.248L17.824 12.408H17.74L14.576 20.248H20.904Z" fill="white"/>
</svg>
