<svg width="35" height="35" viewBox="0 0 35 35" fill="none" xmlns="http://www.w3.org/2000/svg">
<rect x="0.7" y="0.7" width="33.6" height="33.6" rx="3.5" fill="#0F0F0F" stroke="#696969" stroke-width="1.4"/>
<path d="M26.48 27H18.64V26.188H18.92C19.4613 26.188 19.844 26.132 20.068 26.02C20.292 25.908 20.404 25.7027 20.404 25.404C20.404 25.1053 20.3293 24.7787 20.18 24.424C20.0307 24.0693 19.7693 23.6027 19.396 23.024L17.632 20.252L16.82 18.852H16.764L13.376 23.64C13.1893 23.8827 12.984 24.172 12.76 24.508C12.5547 24.844 12.452 25.1427 12.452 25.404C12.452 25.6467 12.564 25.8427 12.788 25.992C13.012 26.1227 13.4973 26.188 14.244 26.188V27H8.056V26.188C8.56 26.1693 8.97067 26.104 9.288 25.992C9.60533 25.8613 9.91333 25.6373 10.212 25.32C10.5293 25.0027 10.912 24.5547 11.36 23.976L16.036 17.816L12.032 11.824C11.584 11.1707 11.2107 10.676 10.912 10.34C10.632 9.98534 10.3147 9.75201 9.96 9.64001C9.624 9.50934 9.12933 9.44401 8.476 9.44401V8.60401H16.26V9.44401H15.952C15.4293 9.44401 15.056 9.50934 14.832 9.64001C14.608 9.75201 14.496 9.95734 14.496 10.256C14.496 10.592 14.6827 11.04 15.056 11.6C15.448 12.1413 15.812 12.7387 16.148 13.392L17.716 16.052H17.772L20.712 11.824C20.936 11.4507 21.1133 11.124 21.244 10.844C21.3933 10.564 21.468 10.312 21.468 10.088C21.468 9.88267 21.356 9.72401 21.132 9.61201C20.9267 9.50001 20.488 9.44401 19.816 9.44401V8.60401H26.256V9.44401C25.6587 9.46267 25.164 9.53734 24.772 9.66801C24.3987 9.79867 24.0347 10.0413 23.68 10.396C23.3253 10.732 22.8867 11.2453 22.364 11.936L18.472 17.004L23.596 24.508C24.0627 25.18 24.4827 25.628 24.856 25.852C25.248 26.0573 25.7893 26.1693 26.48 26.188V27Z" fill="white"/>
</svg>
