<svg width="55" height="37" viewBox="0 0 55 37" fill="none" xmlns="http://www.w3.org/2000/svg">
<rect x="1" y="1" width="52.5" height="35" rx="4.2" fill="#26B8F7" stroke="#0670AB" stroke-width="1.4"/>
<path d="M27.208 9.336V10.176C26.704 10.176 26.3213 10.2227 26.06 10.316C25.8173 10.3907 25.5933 10.5307 25.388 10.736C25.164 10.9227 24.9867 11.2493 24.856 11.716C24.7253 12.1827 24.66 12.92 24.66 13.928V27.956H23.736L12.144 12.976H12.004V23.56C12.004 24.4933 12.0693 25.2027 12.2 25.688C12.3307 26.1547 12.5827 26.472 12.956 26.64C13.3293 26.808 13.8613 26.892 14.552 26.892V27.732H8V26.892C8.74667 26.892 9.30667 26.8173 9.68 26.668C10.0533 26.5 10.3053 26.1733 10.436 25.688C10.5667 25.2027 10.632 24.4933 10.632 23.56V11.604C10.184 11.0253 9.792 10.6427 9.456 10.456C9.12 10.2693 8.63467 10.176 8 10.176V9.336H12.76L23.12 22.86H23.26V13.788C23.26 12.948 23.2227 12.3133 23.148 11.884C23.0733 11.4547 22.9333 11.1187 22.728 10.876C22.504 10.6147 22.2427 10.4373 21.944 10.344C21.6453 10.232 21.1973 10.176 20.6 10.176V9.336H27.208Z" fill="white"/>
<path d="M44.9932 23.56L45.6652 24.148C44.9186 25.2867 43.9386 26.22 42.7252 26.948C41.5119 27.676 39.9906 28.04 38.1612 28.04C36.2386 28.04 34.6239 27.6293 33.3172 26.808C32.0106 25.9867 31.0212 24.8573 30.3492 23.42C29.6959 21.9827 29.3692 20.3587 29.3692 18.548C29.3692 16.5133 29.7612 14.7867 30.5452 13.368C31.3292 11.9493 32.4119 10.8667 33.7932 10.12C35.1746 9.37333 36.7612 9 38.5532 9C39.5426 9 40.3359 9.084 40.9332 9.252C41.5306 9.42 42.0066 9.588 42.3612 9.756C42.7159 9.924 43.0052 10.008 43.2292 10.008C43.4532 10.008 43.6212 9.91467 43.7332 9.728C43.8639 9.52267 44.0132 9.28 44.1812 9H45.0212V15.412H44.0692C43.7706 13.5827 43.1359 12.2573 42.1652 11.436C41.2132 10.6147 40.0186 10.204 38.5812 10.204C36.5652 10.204 35.0066 10.9227 33.9052 12.36C32.8226 13.7973 32.2812 15.7667 32.2812 18.268C32.2812 20.1347 32.5612 21.656 33.1212 22.832C33.6999 24.008 34.4932 24.876 35.5012 25.436C36.5092 25.996 37.6666 26.276 38.9732 26.276C40.2612 26.276 41.3906 26.0427 42.3612 25.576C43.3319 25.0907 44.2092 24.4187 44.9932 23.56Z" fill="white"/>
</svg>
