<svg width="35" height="36" viewBox="0 0 35 36" fill="none" xmlns="http://www.w3.org/2000/svg">
<rect x="0.7" y="1.2" width="33.6" height="33.6" rx="3.5" fill="#0FB063" stroke="#0F5634" stroke-width="1.4"/>
<path d="M23.744 22.292L22.96 27.5H8.008V26.66C8.77333 26.66 9.34267 26.6133 9.716 26.52C10.108 26.408 10.3693 26.1747 10.5 25.82C10.6493 25.4653 10.724 24.924 10.724 24.196V12.52C10.724 11.8107 10.6493 11.2693 10.5 10.896C10.3693 10.5227 10.108 10.2707 9.716 10.14C9.34267 10.0093 8.77333 9.94401 8.008 9.94401V9.10401H22.708L22.876 13.696H21.98C21.8493 12.7627 21.644 12.0627 21.364 11.596C21.1027 11.1107 20.664 10.784 20.048 10.616C19.4507 10.448 18.5733 10.364 17.416 10.364H13.3V17.476H16.576C17.4347 17.476 18.088 17.4013 18.536 17.252C18.984 17.1027 19.292 16.8227 19.46 16.412C19.628 16.0013 19.712 15.4227 19.712 14.676H20.608V21.172H19.712C19.712 20.4067 19.628 19.8373 19.46 19.464C19.292 19.0907 18.984 18.848 18.536 18.736C18.088 18.624 17.4347 18.568 16.576 18.568H13.3V26.268H16.912C17.9947 26.268 18.8627 26.2213 19.516 26.128C20.188 26.016 20.7107 25.82 21.084 25.54C21.476 25.26 21.7933 24.8587 22.036 24.336C22.2973 23.8133 22.568 23.132 22.848 22.292H23.744Z" fill="white"/>
</svg>
