<svg width="35" height="35" viewBox="0 0 35 35" fill="none" xmlns="http://www.w3.org/2000/svg">
<rect x="0.7" y="0.7" width="33.6" height="33.6" rx="3.5" fill="#0FB063" stroke="#0F5634" stroke-width="1.4"/>
<path d="M26.18 18.32V19.216C25.396 19.216 24.8827 19.356 24.64 19.636C24.3973 19.8973 24.276 20.4667 24.276 21.344V25.404C23.268 25.9827 22.2507 26.4493 21.224 26.804C20.1973 27.14 18.9093 27.308 17.36 27.308C14.392 27.308 12.152 26.4867 10.64 24.844C9.14667 23.1827 8.4 20.8587 8.4 17.872C8.4 15.8 8.792 14.0547 9.576 12.636C10.3787 11.1987 11.4613 10.116 12.824 9.38801C14.2053 8.64134 15.7733 8.26801 17.528 8.26801C18.5547 8.26801 19.3667 8.35201 19.964 8.52001C20.58 8.68801 21.056 8.85601 21.392 9.02401C21.7467 9.19201 22.036 9.27601 22.26 9.27601C22.5027 9.27601 22.68 9.18268 22.792 8.99601C22.9227 8.80934 23.0813 8.56668 23.268 8.26801H24.08V14.68H23.128C22.8107 12.8133 22.176 11.4787 21.224 10.676C20.272 9.87334 19.0493 9.47201 17.556 9.47201C15.5773 9.47201 14.0373 10.2 12.936 11.656C11.8533 13.0933 11.312 15.0533 11.312 17.536C11.312 20.392 11.8813 22.5293 13.02 23.948C14.1773 25.348 15.7547 26.048 17.752 26.048C18.6293 26.048 19.3667 25.9173 19.964 25.656C20.58 25.3947 21.168 25.0587 21.728 24.648V21.624C21.728 20.952 21.672 20.448 21.56 20.112C21.448 19.7573 21.2147 19.524 20.86 19.412C20.5053 19.2813 19.9733 19.216 19.264 19.216V18.32H26.18Z" fill="white"/>
</svg>
