<svg width="47" height="35" viewBox="0 0 47 35" fill="none" xmlns="http://www.w3.org/2000/svg">
<rect x="0.7" y="0.7" width="44.8" height="33.6" rx="3.5" fill="#F7F71E" stroke="#9F9F4E" stroke-width="1.4"/>
<path d="M6.112 8.336H13.084C13.98 8.336 14.8387 8.41067 15.66 8.56C16.5 8.69067 17.2373 8.924 17.872 9.26C18.5253 9.596 19.0387 10.072 19.412 10.688C19.804 11.2853 20 12.0507 20 12.984C20 14.0667 19.7947 14.9813 19.384 15.728C18.9733 16.456 18.4133 17.044 17.704 17.492C17.0133 17.94 16.2293 18.2573 15.352 18.444C14.4747 18.6307 13.5787 18.724 12.664 18.724C12.384 18.724 12.0853 18.7053 11.768 18.668C11.4507 18.6307 11.2173 18.5747 11.068 18.5V23.288C11.068 24.0533 11.1427 24.6227 11.292 24.996C11.46 25.3693 11.7493 25.612 12.16 25.724C12.5707 25.836 13.1493 25.892 13.896 25.892V26.732H6V25.892C6.728 25.892 7.26933 25.8267 7.624 25.696C7.97867 25.5653 8.212 25.3133 8.324 24.94C8.436 24.548 8.492 23.96 8.492 23.176V11.136C8.492 10.3147 8.31467 9.78267 7.96 9.54C7.624 9.29733 7.008 9.176 6.112 9.176V8.336ZM11.068 9.54V17.464C11.2173 17.4827 11.432 17.5107 11.712 17.548C12.0107 17.5667 12.3 17.576 12.58 17.576C14.092 17.576 15.24 17.2867 16.024 16.708C16.8267 16.1107 17.228 15 17.228 13.376C17.228 12.1067 16.8547 11.136 16.108 10.464C15.38 9.77333 14.26 9.428 12.748 9.428C12.468 9.428 12.188 9.43733 11.908 9.456C11.6467 9.47467 11.3667 9.50267 11.068 9.54Z" fill="#4A472B"/>
<path d="M39.8894 18.052V18.948C39.1054 18.948 38.5921 19.088 38.3494 19.368C38.1067 19.6293 37.9854 20.1987 37.9854 21.076V25.136C36.9774 25.7147 35.9601 26.1813 34.9334 26.536C33.9067 26.872 32.6187 27.04 31.0694 27.04C28.1014 27.04 25.8614 26.2187 24.3494 24.576C22.8561 22.9147 22.1094 20.5907 22.1094 17.604C22.1094 15.532 22.5014 13.7867 23.2854 12.368C24.0881 10.9307 25.1707 9.848 26.5334 9.12C27.9147 8.37333 29.4827 8 31.2374 8C32.2641 8 33.0761 8.084 33.6734 8.252C34.2894 8.42 34.7654 8.588 35.1014 8.756C35.4561 8.924 35.7454 9.008 35.9694 9.008C36.2121 9.008 36.3894 8.91467 36.5014 8.728C36.6321 8.54133 36.7907 8.29867 36.9774 8H37.7894V14.412H36.8374C36.5201 12.5453 35.8854 11.2107 34.9334 10.408C33.9814 9.60533 32.7587 9.204 31.2654 9.204C29.2867 9.204 27.7467 9.932 26.6454 11.388C25.5627 12.8253 25.0214 14.7853 25.0214 17.268C25.0214 20.124 25.5907 22.2613 26.7294 23.68C27.8867 25.08 29.4641 25.78 31.4614 25.78C32.3387 25.78 33.0761 25.6493 33.6734 25.388C34.2894 25.1267 34.8774 24.7907 35.4374 24.38V21.356C35.4374 20.684 35.3814 20.18 35.2694 19.844C35.1574 19.4893 34.9241 19.256 34.5694 19.144C34.2147 19.0133 33.6827 18.948 32.9734 18.948V18.052H39.8894Z" fill="#4A472B"/>
</svg>
