<svg width="23" height="23" viewBox="0 0 23 23" fill="none" xmlns="http://www.w3.org/2000/svg">
<rect x="0.46" y="0.46" width="22.08" height="22.08" rx="2.3" fill="#DB0000" stroke="#1E1111" stroke-width="0.92"/>
<path d="M18.3954 17.9141H13.4458V17.3621C13.6298 17.3621 13.8199 17.3498 14.0162 17.3253C14.2125 17.3007 14.3781 17.2394 14.513 17.1413C14.6479 17.0431 14.7154 16.8898 14.7154 16.6813C14.7154 16.5463 14.6909 16.393 14.6418 16.2213C14.605 16.0373 14.5253 15.8103 14.4026 15.5405L13.685 13.8845H8.97461L8.14661 15.8349C8.09755 15.9821 8.04848 16.1293 7.99941 16.2765C7.96261 16.4114 7.94421 16.5647 7.94421 16.7365C7.94421 16.9941 8.04235 17.1658 8.23861 17.2517C8.43488 17.3253 8.74768 17.3621 9.17701 17.3621V17.9141H5.31301V17.3621C5.65648 17.3621 5.93248 17.3069 6.14101 17.1965C6.34955 17.0861 6.55195 16.8653 6.74821 16.5341C6.94448 16.1906 7.18981 15.6693 7.48421 14.9701L11.385 5.73326H12.1394L16.5002 15.7245C16.7701 16.3255 17.0277 16.7487 17.273 16.9941C17.5306 17.2394 17.9047 17.3621 18.3954 17.3621V17.9141ZM13.409 13.1485L11.385 7.99646H11.3298L9.25061 13.1485H13.409Z" fill="white"/>
</svg>
