<svg width="23" height="23" viewBox="0 0 23 23" fill="none" xmlns="http://www.w3.org/2000/svg">
<rect x="0.461408" y="0.461408" width="22.0769" height="22.0772" rx="2.30704" fill="#0FB063" stroke="#0F5634" stroke-width="0.922816"/>
<path d="M16.5603 14.0867L16.0436 17.5195H6.18787V16.9658C6.69234 16.9658 7.06762 16.9351 7.3137 16.8736C7.57209 16.7997 7.74435 16.6459 7.83048 16.4122C7.92891 16.1784 7.97813 15.8215 7.97813 15.3417V7.64539C7.97813 7.17783 7.92891 6.82101 7.83048 6.57492C7.74435 6.32884 7.57209 6.16273 7.3137 6.0766C7.06762 5.99047 6.69234 5.94741 6.18787 5.94741V5.39372H15.8774L15.9882 8.42056H15.3976C15.3114 7.80535 15.1761 7.34394 14.9915 7.03633C14.8193 6.71642 14.5301 6.5011 14.1241 6.39036C13.7304 6.27962 13.1521 6.22425 12.3892 6.22425H9.67611V10.9122H11.8355C12.4015 10.9122 12.8321 10.8629 13.1274 10.7645C13.4228 10.6661 13.6258 10.4815 13.7365 10.2108C13.8472 9.94013 13.9026 9.5587 13.9026 9.06653H14.4932V13.3484H13.9026C13.9026 12.8439 13.8472 12.4686 13.7365 12.2226C13.6258 11.9765 13.4228 11.8165 13.1274 11.7427C12.8321 11.6689 12.4015 11.632 11.8355 11.632H9.67611V16.7075H12.057C12.7706 16.7075 13.3428 16.6767 13.7734 16.6152C14.2164 16.5413 14.5609 16.4122 14.807 16.2276C15.0654 16.043 15.2745 15.7785 15.4345 15.434C15.6067 15.0894 15.7852 14.6403 15.9697 14.0867H16.5603Z" fill="white"/>
</svg>
